<?xml version="1.0" encoding="UTF-8" standalone="no"?>
<!-- Created with Inkscape (http://www.inkscape.org/) -->

<svg
   xmlns:dc="http://purl.org/dc/elements/1.1/"
   xmlns:cc="http://creativecommons.org/ns#"
   xmlns:rdf="http://www.w3.org/1999/02/22-rdf-syntax-ns#"
   xmlns:svg="http://www.w3.org/2000/svg"
   xmlns="http://www.w3.org/2000/svg"
   xmlns:sodipodi="http://sodipodi.sourceforge.net/DTD/sodipodi-0.dtd"
   xmlns:inkscape="http://www.inkscape.org/namespaces/inkscape"
   id="svg2"
   version="1.1"
   inkscape:version="0.48.4 r9939"
   width="1061.7285"
   height="454.53455"
   xml:space="preserve"
   sodipodi:docname="figure 15 rev 1.pdf"><metadata
     id="metadata8"><rdf:RDF><cc:Work
         rdf:about=""><dc:format>image/svg+xml</dc:format><dc:type
           rdf:resource="http://purl.org/dc/dcmitype/StillImage" /><dc:title></dc:title></cc:Work></rdf:RDF></metadata><defs
     id="defs6"><clipPath
       clipPathUnits="userSpaceOnUse"
       id="clipPath16"><path
         d="m 4,479 3500,0 0,1521 L 4,2000 4,479 z"
         id="path18"
         inkscape:connector-curvature="0" /></clipPath><clipPath
       clipPathUnits="userSpaceOnUse"
       id="clipPath216"><path
         d="m 4,479 3500,0 0,1521 L 4,2000 4,479 z"
         id="path218"
         inkscape:connector-curvature="0" /></clipPath></defs><sodipodi:namedview
     pagecolor="#ffffff"
     bordercolor="#666666"
     borderopacity="1"
     objecttolerance="10"
     gridtolerance="10"
     guidetolerance="10"
     inkscape:pageopacity="0"
     inkscape:pageshadow="2"
     inkscape:window-width="1600"
     inkscape:window-height="1127"
     id="namedview4"
     showgrid="false"
     fit-margin-top="5"
     fit-margin-left="5"
     fit-margin-right="0"
     fit-margin-bottom="0"
     units="mm"
     inkscape:zoom="0.89749082"
     inkscape:cx="543.0815"
     inkscape:cy="228.17503"
     inkscape:window-x="-3"
     inkscape:window-y="-3"
     inkscape:window-maximized="1"
     inkscape:current-layer="g10" /><g
     id="g10"
     inkscape:groupmode="layer"
     inkscape:label="figure 15 rev 1"
     transform="matrix(0.3,0,0,-0.3,10.528535,598.23454)"><g
       id="g12"><g
         id="g14"
         clip-path="url(#clipPath16)"><path
           d="m 1217.74,1569.62 3.56,0 0.01,303.17 -3.56,0 -0.01,-303.17 z"
           style="fill:#000000;fill-opacity:1;fill-rule:nonzero;stroke:none"
           id="path20"
           inkscape:connector-curvature="0" /><path
           d="m 124.66,1509.12 3.56,0 0.01,424.17 -3.56,0 -0.01,-424.17 z"
           style="fill:#000000;fill-opacity:1;fill-rule:nonzero;stroke:none"
           id="path22"
           inkscape:connector-curvature="0" /><path
           d="m 2093.34,1519.79 0,49.83 -320.31,0 0,-49.83 320.31,0 z"
           style="fill:#ff0000;fill-opacity:1;fill-rule:evenodd;stroke:none"
           id="path24"
           inkscape:connector-curvature="0" /><path
           d="m 1219.52,1571.4 0,-3.56 2169.61,0.01 0,3.56 -2169.61,-0.01 z"
           style="fill:#000000;fill-opacity:1;fill-rule:nonzero;stroke:none"
           id="path26"
           inkscape:connector-curvature="0" /><path
           d="m 126.44,1521.58 0,-3.56 1966.9,-0.01 0,3.56 -1966.9,0.01 z"
           style="fill:#000000;fill-opacity:1;fill-rule:nonzero;stroke:none"
           id="path28"
           inkscape:connector-curvature="0" /><path
           d="m 1557.63,1872.79 0,49.81 -320.31,0 0,-49.81 320.31,0 m -512.61,-1066.04 0,49.82 -320.31,0 0,-49.82 320.31,0 z"
           style="fill:#ff0000;fill-opacity:1;fill-rule:evenodd;stroke:none"
           id="path30"
           inkscape:connector-curvature="0" /><path
           d="m 1219.53,1874.57 0,-3.56 2169.6,-0.01 0,3.56 -2169.6,0.01 z"
           style="fill:#000000;fill-opacity:1;fill-rule:nonzero;stroke:none"
           id="path32"
           inkscape:connector-curvature="0" /><path
           d="m 126.44,1510.9 0,-3.56 1949.1,-0.01 0,3.56 -1949.1,0.01 z"
           style="fill:#000000;fill-opacity:1;fill-rule:nonzero;stroke:none"
           id="path34"
           inkscape:connector-curvature="0" /><path
           d="m 126.45,1935.06 0,-3.55 1949.09,0 0,3.55 -1949.09,0 z"
           style="fill:#000000;fill-opacity:1;fill-rule:nonzero;stroke:none"
           id="path36"
           inkscape:connector-curvature="0" /><path
           d="m 126.45,1924.39 0,-3.56 1949.09,-0.01 0,3.56 -1949.09,0.01 z"
           style="fill:#000000;fill-opacity:1;fill-rule:nonzero;stroke:none"
           id="path38"
           inkscape:connector-curvature="0" /><path
           d="m 2073.76,1872.78 3.56,0 0,60.51 -3.56,0 0,-60.51 z"
           style="fill:#000000;fill-opacity:1;fill-rule:nonzero;stroke:none"
           id="path40"
           inkscape:connector-curvature="0" /><path
           d="m 3387.35,1569.63 3.56,0 0,303.15 -3.56,0 0,-303.15 z"
           style="fill:#000000;fill-opacity:1;fill-rule:nonzero;stroke:none"
           id="path42"
           inkscape:connector-curvature="0" /><path
           d="m 2091.56,1519.79 3.56,0 0,49.83 -3.56,0 0,-49.83 z"
           style="fill:#000000;fill-opacity:1;fill-rule:nonzero;stroke:none"
           id="path44"
           inkscape:connector-curvature="0" /><path
           d="m 1555.85,1872.79 3.56,0 0,49.81 -3.56,0 0,-49.81 z"
           style="fill:#000000;fill-opacity:1;fill-rule:nonzero;stroke:none"
           id="path46"
           inkscape:connector-curvature="0" /><path
           d="m 1235.54,1872.79 3.56,0 0,49.82 -3.56,0 0,-49.82 z"
           style="fill:#000000;fill-opacity:1;fill-rule:nonzero;stroke:none"
           id="path48"
           inkscape:connector-curvature="0" /><path
           d="m 1771.25,1517.96 3.56,0 0,53.32 -3.56,0 0,-53.32 z"
           style="fill:#000000;fill-opacity:1;fill-rule:nonzero;stroke:none"
           id="path50"
           inkscape:connector-curvature="0" /><path
           d="m 2073.76,1509.11 3.56,0 0,10.68 -3.56,0 0,-10.68 z"
           style="fill:#000000;fill-opacity:1;fill-rule:nonzero;stroke:none"
           id="path52"
           inkscape:connector-curvature="0" /><path
           d="m 169.42,856.57 3.56,0 0,303.17 -3.55,0 -0.01,-303.17 z"
           style="fill:#000000;fill-opacity:1;fill-rule:nonzero;stroke:none"
           id="path54"
           inkscape:connector-curvature="0" /><path
           d="m 124.66,796.07 3.56,0 0.01,424.17 -3.56,0 -0.01,-424.17 z"
           style="fill:#000000;fill-opacity:1;fill-rule:nonzero;stroke:none"
           id="path56"
           inkscape:connector-curvature="0" /><path
           d="m 171.2,858.35 0,-3.56 2261.96,0.01 0,3.56 -2261.96,-0.01 z"
           style="fill:#000000;fill-opacity:1;fill-rule:nonzero;stroke:none"
           id="path58"
           inkscape:connector-curvature="0" /><path
           d="m 126.44,808.53 0,-3.56 1949.1,-0.01 0,3.56 -1949.1,0.01 z"
           style="fill:#000000;fill-opacity:1;fill-rule:nonzero;stroke:none"
           id="path60"
           inkscape:connector-curvature="0" /><path
           d="m 509.31,1159.74 0,49.82 -320.31,0 0,-49.82 320.31,0 z"
           style="fill:#ff0000;fill-opacity:1;fill-rule:evenodd;stroke:none"
           id="path62"
           inkscape:connector-curvature="0" /><path
           d="m 171.21,1161.52 0,-3.56 2261.95,-0.01 0,3.56 -2261.95,0.01 z"
           style="fill:#000000;fill-opacity:1;fill-rule:nonzero;stroke:none"
           id="path64"
           inkscape:connector-curvature="0" /><path
           d="m 126.44,797.85 0,-3.56 1949.1,0 0,3.55 -1949.1,0.01 z"
           style="fill:#000000;fill-opacity:1;fill-rule:nonzero;stroke:none"
           id="path66"
           inkscape:connector-curvature="0" /><path
           d="m 126.45,1222.02 0,-3.56 1949.09,0 0,3.56 -1949.09,0 z"
           style="fill:#000000;fill-opacity:1;fill-rule:nonzero;stroke:none"
           id="path68"
           inkscape:connector-curvature="0" /><path
           d="m 126.45,1211.34 0,-3.56 1949.09,-0.01 0,3.56 -1949.09,0.01 z"
           style="fill:#000000;fill-opacity:1;fill-rule:nonzero;stroke:none"
           id="path70"
           inkscape:connector-curvature="0" /><path
           d="m 2073.76,1159.74 3.56,0 0,60.5 -3.56,0 0,-60.5 z"
           style="fill:#000000;fill-opacity:1;fill-rule:nonzero;stroke:none"
           id="path72"
           inkscape:connector-curvature="0" /><path
           d="m 2431.38,856.58 3.56,0 0,303.15 -3.56,0 0,-303.15 z"
           style="fill:#000000;fill-opacity:1;fill-rule:nonzero;stroke:none"
           id="path74"
           inkscape:connector-curvature="0" /><path
           d="m 1043.24,806.74 3.56,0 0,49.84 -3.56,0 0,-49.84 z"
           style="fill:#000000;fill-opacity:1;fill-rule:nonzero;stroke:none"
           id="path76"
           inkscape:connector-curvature="0" /><path
           d="m 507.53,1158.08 3.56,0 0,52.81 -3.56,0 0,-52.81 z"
           style="fill:#000000;fill-opacity:1;fill-rule:nonzero;stroke:none"
           id="path78"
           inkscape:connector-curvature="0" /><path
           d="m 187.22,1158.25 3.56,0 0,52.97 -3.56,0 0,-52.97 z"
           style="fill:#000000;fill-opacity:1;fill-rule:nonzero;stroke:none"
           id="path80"
           inkscape:connector-curvature="0" /><path
           d="m 722.93,806.74 3.56,0 0,49.83 -3.56,0 0,-49.83 z"
           style="fill:#000000;fill-opacity:1;fill-rule:nonzero;stroke:none"
           id="path82"
           inkscape:connector-curvature="0" /><path
           d="m 2073.76,796.06 3.56,0 0,60.52 -3.56,0 0,-60.52 z"
           style="fill:#000000;fill-opacity:1;fill-rule:nonzero;stroke:none"
           id="path84"
           inkscape:connector-curvature="0" /><path
           d="m 3503.37,479 -4.95,4.95"
           style="fill:none;stroke:#000000;stroke-width:2.95275593;stroke-linecap:round;stroke-linejoin:round;stroke-miterlimit:10;stroke-opacity:1;stroke-dasharray:none"
           id="path86"
           inkscape:connector-curvature="0" /><path
           d="m 30.37,1384.05 0,3.56 353.39,0 0,-3.56 -353.39,0 z"
           style="fill:#000000;fill-opacity:1;fill-rule:nonzero;stroke:none"
           id="path88"
           inkscape:connector-curvature="0" /><path
           d="m 77.63,1384.57 -2.51,2.52 123.95,123.29 2.51,-2.52 -123.95,-123.29 z"
           style="fill:#000000;fill-opacity:1;fill-rule:nonzero;stroke:none"
           id="path90"
           inkscape:connector-curvature="0" /><path
           d="m 26.48,1345.94 -2.52,2.52 38.63,38.63 2.52,-2.52 -38.63,-38.63 z"
           style="fill:#000000;fill-opacity:1;fill-rule:nonzero;stroke:none"
           id="path92"
           inkscape:connector-curvature="0" /><path
           d="m 64.42,1345.94 -2.52,2.52 38.63,38.63 2.52,-2.52 -38.63,-38.63 z"
           style="fill:#000000;fill-opacity:1;fill-rule:nonzero;stroke:none"
           id="path94"
           inkscape:connector-curvature="0" /><path
           d="m 101.62,1345.94 -2.52,2.52 38.63,38.63 2.52,-2.52 -38.63,-38.63 z"
           style="fill:#000000;fill-opacity:1;fill-rule:nonzero;stroke:none"
           id="path96"
           inkscape:connector-curvature="0" /><path
           d="m 132.12,1345.94 -2.52,2.52 38.64,38.63 2.51,-2.52 -38.63,-38.63 z"
           style="fill:#000000;fill-opacity:1;fill-rule:nonzero;stroke:none"
           id="path98"
           inkscape:connector-curvature="0" /><path
           d="m 164.11,1345.94 -2.52,2.52 38.64,38.63 2.51,-2.52 -38.63,-38.63 z"
           style="fill:#000000;fill-opacity:1;fill-rule:nonzero;stroke:none"
           id="path100"
           inkscape:connector-curvature="0" /><path
           d="m 193.87,1345.94 -2.52,2.52 38.64,38.63 2.51,-2.52 -38.63,-38.63 z"
           style="fill:#000000;fill-opacity:1;fill-rule:nonzero;stroke:none"
           id="path102"
           inkscape:connector-curvature="0" /><path
           d="m 225.12,1345.94 -2.52,2.52 38.63,38.63 2.52,-2.52 -38.63,-38.63 z"
           style="fill:#000000;fill-opacity:1;fill-rule:nonzero;stroke:none"
           id="path104"
           inkscape:connector-curvature="0" /><path
           d="m 261.57,1345.94 -2.52,2.52 38.64,38.63 2.51,-2.52 -38.63,-38.63 z"
           style="fill:#000000;fill-opacity:1;fill-rule:nonzero;stroke:none"
           id="path106"
           inkscape:connector-curvature="0" /><path
           d="m 299.51,1345.94 -2.51,2.52 38.63,38.63 2.52,-2.52 -38.64,-38.63 z"
           style="fill:#000000;fill-opacity:1;fill-rule:nonzero;stroke:none"
           id="path108"
           inkscape:connector-curvature="0" /><path
           d="m 324.06,1345.94 -2.51,2.52 38.63,38.63 2.52,-2.52 -38.64,-38.63 z"
           style="fill:#000000;fill-opacity:1;fill-rule:nonzero;stroke:none"
           id="path110"
           inkscape:connector-curvature="0" /><path
           d="m 325.54,1387.09 -2.51,-2.52 -123.96,123.29 2.51,2.52 123.96,-123.29 z"
           style="fill:#000000;fill-opacity:1;fill-rule:nonzero;stroke:none"
           id="path112"
           inkscape:connector-curvature="0" /><path
           d="m 1909.05,1384.56 -2.51,2.53 123.96,123.28 2.51,-2.52 -123.96,-123.29 z"
           style="fill:#000000;fill-opacity:1;fill-rule:nonzero;stroke:none"
           id="path114"
           inkscape:connector-curvature="0" /><path
           d="m 2156.96,1387.09 -2.51,-2.53 -123.95,123.29 2.51,2.52 123.95,-123.28 z"
           style="fill:#000000;fill-opacity:1;fill-rule:nonzero;stroke:none"
           id="path116"
           inkscape:connector-curvature="0" /><path
           d="m 1855.06,1286.88 0,3.56 353.38,0 0,-3.56 -353.38,0 z"
           style="fill:#000000;fill-opacity:1;fill-rule:nonzero;stroke:none"
           id="path118"
           inkscape:connector-curvature="0" /><path
           d="m 1851.16,1248.77 -2.51,2.52 38.63,38.63 2.51,-2.52 -38.63,-38.63 z"
           style="fill:#000000;fill-opacity:1;fill-rule:nonzero;stroke:none"
           id="path120"
           inkscape:connector-curvature="0" /><path
           d="m 1889.1,1248.77 -2.51,2.52 38.63,38.63 2.52,-2.52 -38.64,-38.63 z"
           style="fill:#000000;fill-opacity:1;fill-rule:nonzero;stroke:none"
           id="path122"
           inkscape:connector-curvature="0" /><path
           d="m 1926.3,1248.77 -2.51,2.52 38.63,38.63 2.52,-2.52 -38.64,-38.63 z"
           style="fill:#000000;fill-opacity:1;fill-rule:nonzero;stroke:none"
           id="path124"
           inkscape:connector-curvature="0" /><path
           d="m 1956.81,1248.77 -2.52,2.52 38.63,38.63 2.52,-2.52 -38.63,-38.63 z"
           style="fill:#000000;fill-opacity:1;fill-rule:nonzero;stroke:none"
           id="path126"
           inkscape:connector-curvature="0" /><path
           d="m 1988.8,1248.77 -2.52,2.52 38.63,38.63 2.52,-2.52 -38.63,-38.63 z"
           style="fill:#000000;fill-opacity:1;fill-rule:nonzero;stroke:none"
           id="path128"
           inkscape:connector-curvature="0" /><path
           d="m 2018.55,1248.77 -2.51,2.52 38.63,38.63 2.52,-2.52 -38.64,-38.63 z"
           style="fill:#000000;fill-opacity:1;fill-rule:nonzero;stroke:none"
           id="path130"
           inkscape:connector-curvature="0" /><path
           d="m 2049.8,1248.77 -2.52,2.52 38.64,38.63 2.51,-2.52 -38.63,-38.63 z"
           style="fill:#000000;fill-opacity:1;fill-rule:nonzero;stroke:none"
           id="path132"
           inkscape:connector-curvature="0" /><path
           d="m 2086.26,1248.77 -2.52,2.52 38.63,38.63 2.52,-2.52 -38.63,-38.63 z"
           style="fill:#000000;fill-opacity:1;fill-rule:nonzero;stroke:none"
           id="path134"
           inkscape:connector-curvature="0" /><path
           d="m 2124.2,1248.77 -2.52,2.52 38.63,38.63 2.52,-2.52 -38.63,-38.63 z"
           style="fill:#000000;fill-opacity:1;fill-rule:nonzero;stroke:none"
           id="path136"
           inkscape:connector-curvature="0" /><path
           d="m 2148.75,1248.77 -2.52,2.52 38.64,38.63 2.51,-2.52 -38.63,-38.63 z"
           style="fill:#000000;fill-opacity:1;fill-rule:nonzero;stroke:none"
           id="path138"
           inkscape:connector-curvature="0" /><path
           d="m 1950.4,1289.39 c 26.434,-4.6198 51.6021,13.0641 56.2182,39.4944 4.6162,26.4303 -13.0677,51.5985 -39.4981,56.2146 -26.4303,4.6161 -51.5984,-13.0678 -56.2145,-39.4981 -1.3312,-7.6217 -0.8226,-15.4512 1.4832,-22.8366"
           style="fill:none;stroke:#000000;stroke-width:2.49131989;stroke-linecap:butt;stroke-linejoin:round;stroke-miterlimit:10;stroke-opacity:1;stroke-dasharray:none"
           id="path140"
           inkscape:connector-curvature="0" /><path
           d="m 2005.14,1322.76 c 7.9912,25.6154 -6.2885,52.8596 -31.8997,60.8557 -25.6112,7.9962 -52.8553,-6.2835 -60.8515,-31.8947 -7.9962,-25.6111 6.2836,-52.8553 31.8947,-60.8515 7.3855,-2.3058 15.2149,-2.8143 22.8366,-1.4832"
           style="fill:none;stroke:#000000;stroke-width:2.49131989;stroke-linecap:butt;stroke-linejoin:round;stroke-miterlimit:10;stroke-opacity:1;stroke-dasharray:none"
           id="path142"
           inkscape:connector-curvature="0" /><path
           d="m 1907.79,1384.04 0,3.56 247.92,0 0,-3.56 -247.92,0 z"
           style="fill:#000000;fill-opacity:1;fill-rule:nonzero;stroke:none"
           id="path144"
           inkscape:connector-curvature="0" /><path
           d="m 2151.11,1322.76 c 2.3077,7.3897 2.8162,15.2192 1.4851,22.8409 -4.6162,26.4303 -29.7843,44.1142 -56.2146,39.4981 -26.4303,-4.6161 -44.1142,-29.7843 -39.4981,-56.2146 4.6161,-26.4303 29.7842,-44.1142 56.2145,-39.4981"
           style="fill:none;stroke:#000000;stroke-width:2.49131989;stroke-linecap:butt;stroke-linejoin:round;stroke-miterlimit:10;stroke-opacity:1;stroke-dasharray:none"
           id="path146"
           inkscape:connector-curvature="0" /><path
           d="m 2096.38,1289.39 c 7.6222,-1.3348 15.4516,-0.8263 22.8371,1.4795 25.6112,7.9962 39.8909,35.2404 31.8947,60.8515 -7.9962,25.6112 -35.2403,39.8909 -60.8514,31.8947 -25.6112,-7.9961 -39.891,-35.2403 -31.8948,-60.8514"
           style="fill:none;stroke:#000000;stroke-width:2.49131989;stroke-linecap:butt;stroke-linejoin:round;stroke-miterlimit:10;stroke-opacity:1;stroke-dasharray:none"
           id="path148"
           inkscape:connector-curvature="0" /><path
           d="m 30.37,671.01 0,3.55 353.39,0 0,-3.55 -353.39,0 z"
           style="fill:#000000;fill-opacity:1;fill-rule:nonzero;stroke:none"
           id="path150"
           inkscape:connector-curvature="0" /><path
           d="m 77.63,671.52 -2.51,2.53 123.95,123.29 2.51,-2.53 L 77.63,671.52 z"
           style="fill:#000000;fill-opacity:1;fill-rule:nonzero;stroke:none"
           id="path152"
           inkscape:connector-curvature="0" /><path
           d="m 26.48,632.89 -2.52,2.52 38.63,38.63 2.52,-2.51 -38.63,-38.64 z"
           style="fill:#000000;fill-opacity:1;fill-rule:nonzero;stroke:none"
           id="path154"
           inkscape:connector-curvature="0" /><path
           d="m 64.42,632.89 -2.52,2.52 38.63,38.63 2.52,-2.51 -38.63,-38.64 z"
           style="fill:#000000;fill-opacity:1;fill-rule:nonzero;stroke:none"
           id="path156"
           inkscape:connector-curvature="0" /><path
           d="m 101.62,632.89 -2.52,2.52 38.63,38.63 2.52,-2.51 -38.63,-38.64 z"
           style="fill:#000000;fill-opacity:1;fill-rule:nonzero;stroke:none"
           id="path158"
           inkscape:connector-curvature="0" /><path
           d="m 132.12,632.89 -2.52,2.52 38.64,38.63 2.51,-2.51 -38.63,-38.64 z"
           style="fill:#000000;fill-opacity:1;fill-rule:nonzero;stroke:none"
           id="path160"
           inkscape:connector-curvature="0" /><path
           d="m 164.11,632.89 -2.52,2.52 38.64,38.63 2.51,-2.51 -38.63,-38.64 z"
           style="fill:#000000;fill-opacity:1;fill-rule:nonzero;stroke:none"
           id="path162"
           inkscape:connector-curvature="0" /><path
           d="m 193.87,632.89 -2.52,2.52 38.64,38.63 2.51,-2.51 -38.63,-38.64 z"
           style="fill:#000000;fill-opacity:1;fill-rule:nonzero;stroke:none"
           id="path164"
           inkscape:connector-curvature="0" /><path
           d="m 225.12,632.89 -2.52,2.52 38.63,38.63 2.52,-2.51 -38.63,-38.64 z"
           style="fill:#000000;fill-opacity:1;fill-rule:nonzero;stroke:none"
           id="path166"
           inkscape:connector-curvature="0" /><path
           d="m 261.57,632.89 -2.52,2.52 38.64,38.63 2.51,-2.51 -38.63,-38.64 z"
           style="fill:#000000;fill-opacity:1;fill-rule:nonzero;stroke:none"
           id="path168"
           inkscape:connector-curvature="0" /><path
           d="m 299.51,632.89 -2.51,2.52 38.63,38.63 2.52,-2.51 -38.64,-38.64 z"
           style="fill:#000000;fill-opacity:1;fill-rule:nonzero;stroke:none"
           id="path170"
           inkscape:connector-curvature="0" /><path
           d="m 324.06,632.89 -2.51,2.52 38.63,38.63 2.52,-2.51 -38.64,-38.64 z"
           style="fill:#000000;fill-opacity:1;fill-rule:nonzero;stroke:none"
           id="path172"
           inkscape:connector-curvature="0" /><path
           d="m 325.54,674.05 -2.51,-2.53 -123.96,123.29 2.51,2.53 123.96,-123.29 z"
           style="fill:#000000;fill-opacity:1;fill-rule:nonzero;stroke:none"
           id="path174"
           inkscape:connector-curvature="0" /><path
           d="m 1909.05,671.51 -2.51,2.53 123.96,123.29 2.51,-2.53 -123.96,-123.29 z"
           style="fill:#000000;fill-opacity:1;fill-rule:nonzero;stroke:none"
           id="path176"
           inkscape:connector-curvature="0" /><path
           d="m 2156.96,674.04 -2.51,-2.53 -123.95,123.29 2.51,2.53 123.95,-123.29 z"
           style="fill:#000000;fill-opacity:1;fill-rule:nonzero;stroke:none"
           id="path178"
           inkscape:connector-curvature="0" /><path
           d="m 1855.06,573.84 0,3.55 353.38,0 0,-3.55 -353.38,0 z"
           style="fill:#000000;fill-opacity:1;fill-rule:nonzero;stroke:none"
           id="path180"
           inkscape:connector-curvature="0" /><path
           d="m 1851.16,535.72 -2.51,2.52 38.63,38.63 2.51,-2.51 -38.63,-38.64 z"
           style="fill:#000000;fill-opacity:1;fill-rule:nonzero;stroke:none"
           id="path182"
           inkscape:connector-curvature="0" /><path
           d="m 1889.1,535.72 -2.51,2.52 38.63,38.63 2.52,-2.51 -38.64,-38.64 z"
           style="fill:#000000;fill-opacity:1;fill-rule:nonzero;stroke:none"
           id="path184"
           inkscape:connector-curvature="0" /><path
           d="m 1926.3,535.72 -2.51,2.52 38.63,38.63 2.52,-2.51 -38.64,-38.64 z"
           style="fill:#000000;fill-opacity:1;fill-rule:nonzero;stroke:none"
           id="path186"
           inkscape:connector-curvature="0" /><path
           d="m 1956.81,535.72 -2.52,2.52 38.63,38.63 2.52,-2.51 -38.63,-38.64 z"
           style="fill:#000000;fill-opacity:1;fill-rule:nonzero;stroke:none"
           id="path188"
           inkscape:connector-curvature="0" /><path
           d="m 1988.8,535.72 -2.52,2.52 38.63,38.63 2.52,-2.51 -38.63,-38.64 z"
           style="fill:#000000;fill-opacity:1;fill-rule:nonzero;stroke:none"
           id="path190"
           inkscape:connector-curvature="0" /><path
           d="m 2018.55,535.72 -2.51,2.52 38.63,38.63 2.52,-2.51 -38.64,-38.64 z"
           style="fill:#000000;fill-opacity:1;fill-rule:nonzero;stroke:none"
           id="path192"
           inkscape:connector-curvature="0" /><path
           d="m 2049.8,535.72 -2.52,2.52 38.64,38.63 2.51,-2.51 -38.63,-38.64 z"
           style="fill:#000000;fill-opacity:1;fill-rule:nonzero;stroke:none"
           id="path194"
           inkscape:connector-curvature="0" /><path
           d="m 2086.26,535.72 -2.52,2.52 38.63,38.63 2.52,-2.51 -38.63,-38.64 z"
           style="fill:#000000;fill-opacity:1;fill-rule:nonzero;stroke:none"
           id="path196"
           inkscape:connector-curvature="0" /><path
           d="m 2124.2,535.72 -2.52,2.52 38.63,38.63 2.52,-2.51 -38.63,-38.64 z"
           style="fill:#000000;fill-opacity:1;fill-rule:nonzero;stroke:none"
           id="path198"
           inkscape:connector-curvature="0" /><path
           d="m 2148.75,535.72 -2.52,2.52 38.64,38.63 2.51,-2.51 -38.63,-38.64 z"
           style="fill:#000000;fill-opacity:1;fill-rule:nonzero;stroke:none"
           id="path200"
           inkscape:connector-curvature="0" /><path
           d="m 1950.4,576.34 c 26.434,-4.61662 51.6021,13.06728 56.2182,39.4976 4.6162,26.43032 -13.0677,51.59843 -39.4981,56.21455 -26.4303,4.61612 -51.5984,-13.06778 -56.2145,-39.4981 -1.3312,-7.62171 -0.8226,-15.45112 1.4832,-22.8366"
           style="fill:none;stroke:#000000;stroke-width:2.49131989;stroke-linecap:butt;stroke-linejoin:round;stroke-miterlimit:10;stroke-opacity:1;stroke-dasharray:none"
           id="path202"
           inkscape:connector-curvature="0" /><path
           d="m 2005.14,609.72 c 7.9912,25.60861 -6.2885,52.85274 -31.8997,60.84893 -25.6112,7.99618 -52.8553,-6.28357 -60.8515,-31.89473 -7.9962,-25.61116 6.2836,-52.85529 31.8947,-60.85148 7.3855,-2.30585 15.2149,-2.81437 22.8366,-1.48322"
           style="fill:none;stroke:#000000;stroke-width:2.49131989;stroke-linecap:butt;stroke-linejoin:round;stroke-miterlimit:10;stroke-opacity:1;stroke-dasharray:none"
           id="path204"
           inkscape:connector-curvature="0" /><path
           d="m 1907.79,671 0,3.56 247.92,0 0,-3.56 -247.92,0 z"
           style="fill:#000000;fill-opacity:1;fill-rule:nonzero;stroke:none"
           id="path206"
           inkscape:connector-curvature="0" /><path
           d="m 2151.11,609.72 c 2.3077,7.38293 2.8162,15.21234 1.4851,22.83405 -4.6162,26.43032 -29.7843,44.11422 -56.2146,39.4981 -26.4303,-4.61612 -44.1142,-29.78423 -39.4981,-56.21455 4.6161,-26.43032 29.7842,-44.11422 56.2145,-39.4981"
           style="fill:none;stroke:#000000;stroke-width:2.49131989;stroke-linecap:butt;stroke-linejoin:round;stroke-miterlimit:10;stroke-opacity:1;stroke-dasharray:none"
           id="path208"
           inkscape:connector-curvature="0" /><path
           d="m 2096.38,576.34 c 7.6222,-1.33165 15.4516,-0.82313 22.8371,1.48272 25.6112,7.99619 39.8909,35.24032 31.8947,60.85148 -7.9962,25.61116 -35.2403,39.89091 -60.8514,31.89473 -25.6112,-7.99619 -39.891,-35.24032 -31.8948,-60.85148"
           style="fill:none;stroke:#000000;stroke-width:2.49131989;stroke-linecap:butt;stroke-linejoin:round;stroke-miterlimit:10;stroke-opacity:1;stroke-dasharray:none"
           id="path210"
           inkscape:connector-curvature="0" /></g></g><g
       id="g212"><g
         id="g214"
         clip-path="url(#clipPath216)" /></g></g></svg>