<?xml version="1.0" encoding="UTF-8" standalone="no"?>
<svg
   xmlns:dc="http://purl.org/dc/elements/1.1/"
   xmlns:cc="http://creativecommons.org/ns#"
   xmlns:rdf="http://www.w3.org/1999/02/22-rdf-syntax-ns#"
   xmlns:svg="http://www.w3.org/2000/svg"
   xmlns="http://www.w3.org/2000/svg"
   xmlns:sodipodi="http://sodipodi.sourceforge.net/DTD/sodipodi-0.dtd"
   xmlns:inkscape="http://www.inkscape.org/namespaces/inkscape"
   width="411.66736"
   height="256.23599"
   viewBox="0 0 116.18167 72.315491"
   version="1.1"
   id="svg2"
   inkscape:version="0.48.4 r9939"
   sodipodi:docname="naca66021.svg">
  <metadata
     id="metadata48">
    <rdf:RDF>
      <cc:Work
         rdf:about="">
        <dc:format>image/svg+xml</dc:format>
        <dc:type
           rdf:resource="http://purl.org/dc/dcmitype/StillImage" />
        <dc:title>Airfoil plot (n66021-il) NACA 66-021 AIRFOIL by AirfoilTools.com</dc:title>
      </cc:Work>
    </rdf:RDF>
  </metadata>
  <defs
     id="defs46" />
  <sodipodi:namedview
     pagecolor="#ffffff"
     bordercolor="#666666"
     borderopacity="1"
     objecttolerance="10"
     gridtolerance="10"
     guidetolerance="10"
     inkscape:pageopacity="0"
     inkscape:pageshadow="2"
     inkscape:window-width="1600"
     inkscape:window-height="1127"
     id="namedview44"
     showgrid="false"
     inkscape:zoom="2.2049443"
     inkscape:cx="201.96871"
     inkscape:cy="87.295218"
     inkscape:window-x="-3"
     inkscape:window-y="-3"
     inkscape:window-maximized="1"
     inkscape:current-layer="svg2"
     units="mm"
     fit-margin-top="5"
     fit-margin-left="5"
     fit-margin-right="5"
     fit-margin-bottom="5"
     showguides="true"
     inkscape:guide-bbox="true" />
  <title
     id="title4">Airfoil plot (n66021-il) NACA 66-021 AIRFOIL by AirfoilTools.com</title>
  <path
     id="path3981"
     d="M 107.86277,15.304229 102.1464,13.958674 97.192762,12.854119 87.28946,10.834966 77.381071,9.0459733 67.477908,7.5069253 57.57112,6.2680203 c 0,0 -6.592703,-0.664095 -9.898844,-0.85899 -3.295051,-0.194241 -6.596602,-0.299292 -9.897243,-0.308901 -1.649752,-0.0048 -4.947716,0.125593 -4.947716,0.125593 l -4.952387,0.375748 c 0,0 -3.309259,0.395099 -4.945487,0.705675 -1.66443,0.315929 -3.318145,0.702306 -4.945558,1.175781 -0.835274,0.243012 -1.659868,0.527509 -2.46724,0.852831 -0.841458,0.339057 -1.6792,0.698434 -2.471073,1.142978 -0.863354,0.484672 -1.708426,1.0180747 -2.470308,1.6530737 -0.451753,0.376519 -0.9163397,0.767481 -1.2309038,1.266545 -0.6275837,0.995678 -1.2308899,2.136533 -1.2276336,3.316933 0.00326,1.181882 0.6112592,2.322289 1.2474787,3.314123 0.3185332,0.496579 0.7891337,0.880945 1.2439997,1.253739 0.766867,0.6285 1.612786,1.159785 2.479708,1.63746 0.794305,0.437664 1.635499,0.786043 2.478734,1.117363 0.813142,0.319497 1.642556,0.599757 2.482776,0.837214 1.627629,0.45999 4.944367,1.134761 4.944367,1.134761 l 4.954544,0.674441 4.947436,0.334516 c 0,0 3.301335,0.111242 4.952316,0.09436 3.303156,-0.03378 6.606163,-0.172881 9.902401,-0.391366 3.303986,-0.218999 9.891322,-0.921248 9.891322,-0.921248 l 9.892857,-1.32137 9.896689,-1.611517 9.891673,-1.851463 9.886447,-2.101408 4.946395,-1.13579 5.79601,-1.43204"
     inkscape:connector-curvature="0"
     style="fill:none;stroke:#000000;stroke-width:0.2;stroke-miterlimit:4;stroke-opacity:1;stroke-dasharray:none;stroke-dashoffset:0"
     sodipodi:nodetypes="cccccccaaccssssaaaaassscccaaccccccc" />
  <path
     d="m 108.064,40.870454 c 0,0 -3.34198,-0.404007 -4.99371,-0.720724 -1.6841,-0.322927 -5.002291,-1.200647 -5.002291,-1.200647 l -4.995876,-1.400797 -5.007127,-1.470603 -4.996771,-1.450787 -5.005158,-1.360621 c 0,0 -3.324365,-0.833425 -5.001936,-1.180651 -1.656721,-0.34291 -3.320785,-0.65946 -4.996745,-0.890697 -1.658817,-0.228871 -4.999583,-0.490582 -4.999583,-0.490582 l -5.005285,-0.250441 -4.991886,-0.06065 -4.999199,0.0895 -5.006154,0.259656 -4.993291,0.419451 -5.000426,0.579605 -5.006844,0.779752 c 0,0 -3.338985,0.624729 -4.992729,1.009535 -1.681156,0.391185 -3.352425,0.828814 -5.007176,1.319844 -0.839934,0.249242 -1.670704,0.529678 -2.495635,0.824806 -0.841967,0.301224 -1.683687,0.606966 -2.503127,0.964963 -0.849957,0.371329 -1.690804,0.768873 -2.498474,1.224924 -0.430131,0.242873 -0.8511996,0.505339 -1.2458355,0.802429 -0.1776481,0.133737 -0.3441523,0.282668 -0.5022209,0.439061 -0.087191,0.08627 -0.1838277,0.168192 -0.2451267,0.274431 -0.2681661,0.464768 -0.5022608,0.99266 -0.5027059,1.529244 -4.426e-4,0.533521 0.2309904,1.059047 0.497313,1.521342 0.063709,0.110589 0.1642045,0.195937 0.2551512,0.285478 0.1564281,0.15401 0.3220993,0.299557 0.4977978,0.431158 0.3980933,0.298179 0.821666,0.562913 1.254659,0.80767 0.805943,0.455572 1.643462,0.856126 2.492339,1.225582 0.820123,0.356942 1.66479,0.655517 2.507501,0.955266 0.825399,0.293591 1.655155,0.576786 2.495177,0.825467 1.653417,0.489479 3.324098,0.922787 5.004263,1.31063 1.655756,0.382209 4.998714,1.000679 4.998714,1.000679 l 5.004774,0.780535 5.001194,0.580568 4.998151,0.410595 4.995287,0.25062 5.002421,0.09047 4.999736,-0.05951 4.996155,-0.259477 c 0,0 3.342587,-0.259615 5.002037,-0.489619 1.678926,-0.232704 3.345469,-0.553451 5.004696,-0.899732 1.676905,-0.34997 4.999505,-1.189686 4.999505,-1.189686 l 4.996462,-1.359658 4.994671,-1.459643 5.004491,-1.46982 4.995567,-1.409651 c 0,0 3.31528,-0.8872 4.99915,-1.209682 1.6527,-0.316513 4.9981,-0.709584 4.9981,-0.709584"
     id="path34"
     inkscape:connector-curvature="0"
     style="fill:none;stroke:#050505;stroke-width:0.2;stroke-miterlimit:4;stroke-opacity:1;stroke-dasharray:none"
     sodipodi:nodetypes="cacccccaaccccccccaaaaaaaaaaaaaaaaaccccccccaacccccac" />
  <line
     x1="5.0749989"
     x2="111.05501"
     y1="40.862171"
     y2="40.862171"
     id="line40"
     style="fill:none;stroke:#000000;stroke-width:0.15000001;stroke-miterlimit:4;stroke-dasharray:none" />
  <line
     id="line3987"
     y2="67.15258"
     y1="67.15258"
     x2="111.10667"
     x1="5.1166635"
     style="fill:none;stroke:#000000;stroke-width:0.15000001;stroke-miterlimit:4;stroke-dasharray:none" />
  <path
     d="m 108.10292,67.06382 -1.01334,-0.298497 -0.99106,-0.26587 -0.99071,-0.27587 -0.99106,-0.26587 -1.98213,-0.53175 -1.98249,-0.52176 -1.982857,-0.51176 -1.983213,-0.50177 -1.98357,-0.49177 -1.983932,-0.48179 -1.984655,-0.46179 -1.984651,-0.4618 -1.985371,-0.4418 -1.985375,-0.44181 -1.986093,-0.42182 -1.986452,-0.41183 -1.987175,-0.39184 -1.987175,-0.39184 -1.987894,-0.37185 -1.988256,-0.361861 -1.988975,-0.341873 -1.989336,-0.331879 -1.990415,-0.301898 -1.990776,-0.291905 -1.991137,-0.281912 -1.992218,-0.251931 -1.992579,-0.241937 -1.993299,-0.22195 -1.994377,-0.19197 -1.994741,-0.181977 -1.995458,-0.161989 -1.996541,-0.132009 -1.99762,-0.102028 -1.998342,-0.08204 -1.999062,-0.06205 -1.999784,-0.04207 -2.000502,-0.02208 -2.001223,-0.0021 -2.001944,0.01789 -2.003385,0.05787 -2.004826,0.09784 -2.006627,0.147805 -2.008789,0.207771 -2.01131,0.277725 -2.013832,0.347679 -2.015993,0.407641 -2.018876,0.487589 -2.022477,0.587524 -2.02608,0.687455 -1.015562,0.41369 -1.018083,0.48364 -1.021325,0.57358 -1.026729,0.72348 -0.8264996,0.72069 -0.41487,0.40532 -0.417032,0.46528 -0.211038,0.30259 -0.1075,0.20626 -0.05501,0.13811 -0.05825,0.22805 0.03304,0.4715 0.04565,0.12172 0.09309,0.19348 c 0,0 0.1190008,0.190525 0.190144,0.27703 0.1168171,0.142041 0.2469177,0.273894 0.386051,0.39416 0.1217022,0.105199 0.2510972,0.203121 0.390014,0.28424 0.2491024,0.145461 0.5160972,0.261129 0.7875936,0.3586 0.321919,0.115574 0.991065,0.26588 0.991065,0.26588 l 0.992506,0.2259 0.993948,0.18592 0.995388,0.14596 1.993658,0.21195 1.99546,0.16199 1.99654,0.13201 1.997981,0.092 1.998342,0.082 1.999783,0.0421 1.999782,0.0421 2.000864,0.0121 2.000863,0.0121 2.001223,0.002 2.001224,0.002 2.001584,-0.008 2.001224,0.002 2.001582,-0.008 2.001224,0.002 2.001223,0.002 2.001585,-0.008 2.001221,0.002 2.001227,0.002 2.001582,-0.008 2.001223,0.002 2.001224,0.002 2.001582,-0.008 2.001227,0.002 2.001223,0.002 2.001583,-0.008 2.001223,0.002 2.001224,0.002 2.001582,-0.008 2.001226,0.002 2.001221,0.002 2.001585,-0.008 2.001224,0.002 2.001582,-0.008 2.001224,0.002 2.001223,0.002 2.001585,-0.008 2.001224,0.002 2.001224,0.002 2.001582,-0.008 2.001223,0.002 2.001224,0.002 2.001582,-0.008 2.00123,0.002 2.00122,0.002 1.00079,-0.004 1.00079,-0.004 1.00043,0.006 1.00079,-0.004"
     id="path32"
     inkscape:connector-curvature="0"
     style="fill:none;stroke:#130909;stroke-width:0.2;stroke-miterlimit:4;stroke-opacity:1;stroke-dasharray:none"
     sodipodi:nodetypes="ccccccccccccccccccccccccccccccccccccccccccccccccccccccccccccccccaaaaccccccccccccccccccccccccccccccccccccccccccccccccccccc" />
  <line
     style="fill:none;stroke:#000000;stroke-width:0.15000001;stroke-miterlimit:4;stroke-dasharray:none"
     id="line4058"
     y2="15.293119"
     y1="15.293119"
     x2="111.05501"
     x1="5.0749989" />
  <path
     id="path4178"
     d="m 8.1594656,63.748045 c 0.3079341,-0.09766 0.7987743,-0.239391 1.0002911,-0.269239 0.4092619,-0.104071 0.7829137,-0.190448 1.1821523,-0.282143 l 0.946737,-0.185292 1.003467,-0.170749 1.012888,-0.140561 1.00289,-0.140754 2.005011,-0.241516 2.014433,-0.211328 2.003666,-0.171528 2.013472,-0.161338 2.002898,-0.131535 2.002513,-0.11154 2.001937,-0.08154 2.011742,-0.07135 2.001168,-0.04155 2.000784,-0.02156 2.000592,-0.01156 2.000207,0.0084 2.000207,0.0084 2.000015,0.01844 1.999823,0.02844 1.999438,0.04843 1.999439,0.04843 1.999054,0.06843 1.998862,0.07843 1.99867,0.08842 1.998285,0.10842 1.998286,0.10842 1.998093,0.118418 1.997902,0.128417 1.997709,0.138414 1.997516,0.148413 1.987519,0.148221 1.997133,0.168409 1.997132,0.168409 1.996748,0.188406 1.996749,0.188405 1.98675,0.188213 1.996556,0.198404 1.996363,0.208402 1.986366,0.208209 1.996172,0.2184 1.995979,0.228398 1.99598,0.228398 1.985789,0.238204 1.995788,0.238396 1.995595,0.248395 1.985597,0.248202 1.995431,0.258392 1.9954,0.258393 1.98521,0.268198 0.9977,0.129196 0.99751,0.139195 0.99751,0.139194 0.98751,0.139003"
     inkscape:connector-curvature="0"
     style="fill:none;stroke:#000000;stroke-width:0.15000001;stroke-miterlimit:4;stroke-dasharray:none"
     sodipodi:nodetypes="cccccccccccccccccccccccccccccccccccccccccccccccccccccccc" />
  <text
     xml:space="preserve"
     style="font-size:5.64444447px;font-style:normal;font-variant:normal;font-weight:normal;font-stretch:normal;text-align:start;line-height:100%;letter-spacing:0px;word-spacing:0px;writing-mode:lr-tb;text-anchor:start;fill:#000000;fill-opacity:1;stroke:none;font-family:Serif;-inkscape-font-specification:Serif"
     x="97.003601"
     y="9.0334139"
     id="text4241"
     sodipodi:linespacing="100%"><tspan
       sodipodi:role="line"
       id="tspan4243"
       x="97.003601"
       y="9.0334139"
       style="font-size:2.53999996px;font-style:normal;font-variant:normal;font-weight:normal;font-stretch:normal;font-family:Sans;-inkscape-font-specification:Sans">NACA 0021</tspan></text>
  <text
     sodipodi:linespacing="100%"
     id="text4245"
     y="33.86895"
     x="94.181374"
     style="font-size:5.64444447px;font-style:normal;font-variant:normal;font-weight:normal;font-stretch:normal;text-align:start;line-height:100%;letter-spacing:0px;word-spacing:0px;writing-mode:lr-tb;text-anchor:start;fill:#000000;fill-opacity:1;stroke:none;font-family:Serif;-inkscape-font-specification:Serif"
     xml:space="preserve"><tspan
       style="font-size:2.53999996px;font-style:normal;font-variant:normal;font-weight:normal;font-stretch:normal;font-family:Sans;-inkscape-font-specification:Sans"
       y="33.86895"
       x="94.181374"
       id="tspan4247"
       sodipodi:role="line">NACA 66-021</tspan></text>
  <text
     xml:space="preserve"
     style="font-size:5.64444447px;font-style:normal;font-variant:normal;font-weight:normal;font-stretch:normal;text-align:start;line-height:100%;letter-spacing:0px;word-spacing:0px;writing-mode:lr-tb;text-anchor:start;fill:#000000;fill-opacity:1;stroke:none;font-family:Serif;-inkscape-font-specification:Serif"
     x="102.0836"
     y="60.962334"
     id="text4249"
     sodipodi:linespacing="100%"><tspan
       sodipodi:role="line"
       id="tspan4251"
       x="102.0836"
       y="60.962334"
       style="font-size:2.53999996px;font-style:normal;font-variant:normal;font-weight:normal;font-stretch:normal;font-family:Sans;-inkscape-font-specification:Sans">Clark Y</tspan></text>
</svg>
