<?xml version="1.0" encoding="UTF-8" standalone="no"?>
<!-- Created with Inkscape (http://www.inkscape.org/) -->

<svg
   xmlns:dc="http://purl.org/dc/elements/1.1/"
   xmlns:cc="http://creativecommons.org/ns#"
   xmlns:rdf="http://www.w3.org/1999/02/22-rdf-syntax-ns#"
   xmlns:svg="http://www.w3.org/2000/svg"
   xmlns="http://www.w3.org/2000/svg"
   xmlns:sodipodi="http://sodipodi.sourceforge.net/DTD/sodipodi-0.dtd"
   xmlns:inkscape="http://www.inkscape.org/namespaces/inkscape"
   id="svg2"
   version="1.1"
   inkscape:version="0.48.4 r9939"
   width="629.30377"
   height="275.72345"
   xml:space="preserve"
   sodipodi:docname="Pedalforce340W.svg"
   inkscape:export-filename="/home/theo/Desktop/Data/Radlabor/Pedalforce340W.png"
   inkscape:export-xdpi="90"
   inkscape:export-ydpi="90"><metadata
     id="metadata8"><rdf:RDF><cc:Work
         rdf:about=""><dc:format>image/svg+xml</dc:format><dc:type
           rdf:resource="http://purl.org/dc/dcmitype/StillImage" /><dc:title></dc:title></cc:Work></rdf:RDF></metadata><defs
     id="defs6"><clipPath
       clipPathUnits="userSpaceOnUse"
       id="clipPath16"><path
         d="m 21.36,12.12 553.68,0 0,817.32 -553.68,0 0,-817.32 z"
         clip-rule="evenodd"
         id="path18"
         inkscape:connector-curvature="0" /></clipPath><clipPath
       clipPathUnits="userSpaceOnUse"
       id="clipPath34"><path
         d="m 21.36,13.08 553.68,0 0,10.584 -553.68,0 0,-10.584 z"
         clip-rule="evenodd"
         id="path36"
         inkscape:connector-curvature="0" /></clipPath><clipPath
       clipPathUnits="userSpaceOnUse"
       id="clipPath48"><path
         d="m 48.72,237.96 509.88,0 0,12.36 -509.88,0 0,-12.36 z"
         clip-rule="evenodd"
         id="path50"
         inkscape:connector-curvature="0" /></clipPath><clipPath
       clipPathUnits="userSpaceOnUse"
       id="clipPath60"><path
         d="m 48.72,237.96 509.88,0 0,12.36 -509.88,0 0,-12.36 z"
         clip-rule="evenodd"
         id="path62"
         inkscape:connector-curvature="0" /></clipPath><clipPath
       clipPathUnits="userSpaceOnUse"
       id="clipPath70"><path
         d="m 48.72,456.84 509.88,0 0,12.36 -509.88,0 0,-12.36 z"
         clip-rule="evenodd"
         id="path72"
         inkscape:connector-curvature="0" /></clipPath><clipPath
       clipPathUnits="userSpaceOnUse"
       id="clipPath82"><path
         d="m 48.72,456.84 509.88,0 0,12.36 -509.88,0 0,-12.36 z"
         clip-rule="evenodd"
         id="path84"
         inkscape:connector-curvature="0" /></clipPath><clipPath
       clipPathUnits="userSpaceOnUse"
       id="clipPath92"><path
         d="m 48.72,675.72 509.88,0 0,12.24 -509.88,0 0,-12.24 z"
         clip-rule="evenodd"
         id="path94"
         inkscape:connector-curvature="0" /></clipPath><clipPath
       clipPathUnits="userSpaceOnUse"
       id="clipPath104"><path
         d="m 48.72,675.72 509.88,0 0,12.24 -509.88,0 0,-12.24 z"
         clip-rule="evenodd"
         id="path106"
         inkscape:connector-curvature="0" /></clipPath><clipPath
       clipPathUnits="userSpaceOnUse"
       id="clipPath112"><path
         d="m 20.4,12.24 554.52,0 0,818.16 -554.52,0 0,-818.16 z"
         clip-rule="evenodd"
         id="path114"
         inkscape:connector-curvature="0" /></clipPath><clipPath
       clipPathUnits="userSpaceOnUse"
       id="clipPath128"><path
         d="m 48.72,693.24 509.88,0 0,84 -509.88,0 0,-84 z"
         clip-rule="evenodd"
         id="path130"
         inkscape:connector-curvature="0" /></clipPath><clipPath
       clipPathUnits="userSpaceOnUse"
       id="clipPath140"><path
         d="m 20.4,12.24 554.52,0 0,818.16 -554.52,0 0,-818.16 z"
         clip-rule="evenodd"
         id="path142"
         inkscape:connector-curvature="0" /></clipPath><clipPath
       clipPathUnits="userSpaceOnUse"
       id="clipPath148"><path
         d="m 48.72,693.24 509.88,0 0,84 -509.88,0 0,-84 z"
         clip-rule="evenodd"
         id="path150"
         inkscape:connector-curvature="0" /></clipPath><clipPath
       clipPathUnits="userSpaceOnUse"
       id="clipPath160"><path
         d="m 20.4,12.24 554.52,0 0,818.16 -554.52,0 0,-818.16 z"
         clip-rule="evenodd"
         id="path162"
         inkscape:connector-curvature="0" /></clipPath><clipPath
       clipPathUnits="userSpaceOnUse"
       id="clipPath168"><path
         d="m 48.72,693.24 509.88,0 0,84 -509.88,0 0,-84 z"
         clip-rule="evenodd"
         id="path170"
         inkscape:connector-curvature="0" /></clipPath><clipPath
       clipPathUnits="userSpaceOnUse"
       id="clipPath180"><path
         d="m 20.4,12.24 554.52,0 0,818.16 -554.52,0 0,-818.16 z"
         clip-rule="evenodd"
         id="path182"
         inkscape:connector-curvature="0" /></clipPath><clipPath
       clipPathUnits="userSpaceOnUse"
       id="clipPath188"><path
         d="m 48.72,693.24 509.88,0 0,84 -509.88,0 0,-84 z"
         clip-rule="evenodd"
         id="path190"
         inkscape:connector-curvature="0" /></clipPath><clipPath
       clipPathUnits="userSpaceOnUse"
       id="clipPath200"><path
         d="m 20.4,12.24 554.52,0 0,818.16 -554.52,0 0,-818.16 z"
         clip-rule="evenodd"
         id="path202"
         inkscape:connector-curvature="0" /></clipPath><clipPath
       clipPathUnits="userSpaceOnUse"
       id="clipPath208"><path
         d="m 48.72,693.24 509.88,0 0,84 -509.88,0 0,-84 z"
         clip-rule="evenodd"
         id="path210"
         inkscape:connector-curvature="0" /></clipPath><clipPath
       clipPathUnits="userSpaceOnUse"
       id="clipPath220"><path
         d="m 20.4,12.24 554.52,0 0,818.16 -554.52,0 0,-818.16 z"
         clip-rule="evenodd"
         id="path222"
         inkscape:connector-curvature="0" /></clipPath><clipPath
       clipPathUnits="userSpaceOnUse"
       id="clipPath228"><path
         d="m 48.72,693.24 509.88,0 0,84 -509.88,0 0,-84 z"
         clip-rule="evenodd"
         id="path230"
         inkscape:connector-curvature="0" /></clipPath><clipPath
       clipPathUnits="userSpaceOnUse"
       id="clipPath236"><path
         d="m 230.88,693.24 161.76,0 0,84 -161.76,0 0,-84 z"
         clip-rule="evenodd"
         id="path238"
         inkscape:connector-curvature="0" /></clipPath><clipPath
       clipPathUnits="userSpaceOnUse"
       id="clipPath248"><path
         d="m 20.4,12.24 554.52,0 0,818.16 -554.52,0 0,-818.16 z"
         clip-rule="evenodd"
         id="path250"
         inkscape:connector-curvature="0" /></clipPath><clipPath
       clipPathUnits="userSpaceOnUse"
       id="clipPath256"><path
         d="m 230.88,693.24 161.76,0 0,84 -161.76,0 0,-84 z"
         clip-rule="evenodd"
         id="path258"
         inkscape:connector-curvature="0" /></clipPath><clipPath
       clipPathUnits="userSpaceOnUse"
       id="clipPath268"><path
         d="m 20.4,12.24 554.52,0 0,818.16 -554.52,0 0,-818.16 z"
         clip-rule="evenodd"
         id="path270"
         inkscape:connector-curvature="0" /></clipPath><clipPath
       clipPathUnits="userSpaceOnUse"
       id="clipPath276"><path
         d="m 230.88,693.24 161.76,0 0,84 -161.76,0 0,-84 z"
         clip-rule="evenodd"
         id="path278"
         inkscape:connector-curvature="0" /></clipPath><clipPath
       clipPathUnits="userSpaceOnUse"
       id="clipPath288"><path
         d="m 20.4,12.24 554.52,0 0,818.16 -554.52,0 0,-818.16 z"
         clip-rule="evenodd"
         id="path290"
         inkscape:connector-curvature="0" /></clipPath><clipPath
       clipPathUnits="userSpaceOnUse"
       id="clipPath296"><path
         d="m 230.88,693.24 161.76,0 0,84 -161.76,0 0,-84 z"
         clip-rule="evenodd"
         id="path298"
         inkscape:connector-curvature="0" /></clipPath><clipPath
       clipPathUnits="userSpaceOnUse"
       id="clipPath308"><path
         d="m 20.4,12.24 554.52,0 0,818.16 -554.52,0 0,-818.16 z"
         clip-rule="evenodd"
         id="path310"
         inkscape:connector-curvature="0" /></clipPath><clipPath
       clipPathUnits="userSpaceOnUse"
       id="clipPath316"><path
         d="m 230.88,693.24 161.76,0 0,84 -161.76,0 0,-84 z"
         clip-rule="evenodd"
         id="path318"
         inkscape:connector-curvature="0" /></clipPath><clipPath
       clipPathUnits="userSpaceOnUse"
       id="clipPath328"><path
         d="m 20.4,12.24 554.52,0 0,818.16 -554.52,0 0,-818.16 z"
         clip-rule="evenodd"
         id="path330"
         inkscape:connector-curvature="0" /></clipPath><clipPath
       clipPathUnits="userSpaceOnUse"
       id="clipPath336"><path
         d="m 230.88,693.24 161.76,0 0,84 -161.76,0 0,-84 z"
         clip-rule="evenodd"
         id="path338"
         inkscape:connector-curvature="0" /></clipPath><clipPath
       clipPathUnits="userSpaceOnUse"
       id="clipPath344"><path
         d="m 206.64,791.76 210.36,0 0,19.32 -210.36,0 0,-19.32 z"
         clip-rule="evenodd"
         id="path346"
         inkscape:connector-curvature="0" /></clipPath><clipPath
       clipPathUnits="userSpaceOnUse"
       id="clipPath356"><path
         d="m 206.64,791.76 210.36,0 0,19.32 -210.36,0 0,-19.32 z"
         clip-rule="evenodd"
         id="path358"
         inkscape:connector-curvature="0" /></clipPath><clipPath
       clipPathUnits="userSpaceOnUse"
       id="clipPath364"><path
         d="m 28.44,792.48 242.88,0 0,15.24 -242.88,0 0,-15.24 z"
         clip-rule="evenodd"
         id="path366"
         inkscape:connector-curvature="0" /></clipPath><clipPath
       clipPathUnits="userSpaceOnUse"
       id="clipPath376"><path
         d="m 28.44,792.48 242.88,0 0,15.24 -242.88,0 0,-15.24 z"
         clip-rule="evenodd"
         id="path378"
         inkscape:connector-curvature="0" /></clipPath><clipPath
       clipPathUnits="userSpaceOnUse"
       id="clipPath396"><path
         d="m 64.92,463.32 202.32,0 0,207 -202.32,0 0,-207 z"
         clip-rule="evenodd"
         id="path398"
         inkscape:connector-curvature="0" /></clipPath><clipPath
       clipPathUnits="userSpaceOnUse"
       id="clipPath410"><path
         d="m 64.92,463.32 202.32,0 0,207 -202.32,0 0,-207 z"
         clip-rule="evenodd"
         id="path412"
         inkscape:connector-curvature="0" /></clipPath><clipPath
       clipPathUnits="userSpaceOnUse"
       id="clipPath434"><path
         d="m 64.92,244.44 202.32,0 0,207.36 -202.32,0 0,-207.36 z"
         clip-rule="evenodd"
         id="path436"
         inkscape:connector-curvature="0" /></clipPath><clipPath
       clipPathUnits="userSpaceOnUse"
       id="clipPath448"><path
         d="m 64.92,244.44 202.32,0 0,207.36 -202.32,0 0,-207.36 z"
         clip-rule="evenodd"
         id="path450"
         inkscape:connector-curvature="0" /></clipPath><clipPath
       clipPathUnits="userSpaceOnUse"
       id="clipPath472"><path
         d="m 64.92,26.28 202.32,0 0,206.52 -202.32,0 0,-206.52 z"
         clip-rule="evenodd"
         id="path474"
         inkscape:connector-curvature="0" /></clipPath><clipPath
       clipPathUnits="userSpaceOnUse"
       id="clipPath486"><path
         d="m 64.92,26.28 202.32,0 0,206.52 -202.32,0 0,-206.52 z"
         clip-rule="evenodd"
         id="path488"
         inkscape:connector-curvature="0" /></clipPath><clipPath
       clipPathUnits="userSpaceOnUse"
       id="clipPath510"><path
         d="m 333.24,528.72 199.2,0 0,132.96 -199.2,0 0,-132.96 z"
         clip-rule="evenodd"
         id="path512"
         inkscape:connector-curvature="0" /></clipPath><clipPath
       clipPathUnits="userSpaceOnUse"
       id="clipPath520"><path
         d="m 333.24,528.72 199.2,0 0,132.96 -199.2,0 0,-132.96 z"
         clip-rule="evenodd"
         id="path522"
         inkscape:connector-curvature="0" /></clipPath><clipPath
       clipPathUnits="userSpaceOnUse"
       id="clipPath530"><path
         d="m 333.24,528.72 199.2,0 0,132.96 -199.2,0 0,-132.96 z"
         clip-rule="evenodd"
         id="path532"
         inkscape:connector-curvature="0" /></clipPath><clipPath
       clipPathUnits="userSpaceOnUse"
       id="clipPath542"><path
         d="m 299.52,478.44 242.88,0 0,191.88 -242.88,0 0,-191.88 z"
         clip-rule="evenodd"
         id="path544"
         inkscape:connector-curvature="0" /></clipPath><clipPath
       clipPathUnits="userSpaceOnUse"
       id="clipPath554"><path
         d="m 299.52,478.44 242.88,0 0,191.88 -242.88,0 0,-191.88 z"
         clip-rule="evenodd"
         id="path556"
         inkscape:connector-curvature="0" /></clipPath><clipPath
       clipPathUnits="userSpaceOnUse"
       id="clipPath566"><path
         d="m 299.52,478.44 242.88,0 0,191.88 -242.88,0 0,-191.88 z"
         clip-rule="evenodd"
         id="path568"
         inkscape:connector-curvature="0" /></clipPath><clipPath
       clipPathUnits="userSpaceOnUse"
       id="clipPath578"><path
         d="m 299.52,478.44 242.88,0 0,191.88 -242.88,0 0,-191.88 z"
         clip-rule="evenodd"
         id="path580"
         inkscape:connector-curvature="0" /></clipPath><clipPath
       clipPathUnits="userSpaceOnUse"
       id="clipPath590"><path
         d="m 299.52,478.44 242.88,0 0,191.88 -242.88,0 0,-191.88 z"
         clip-rule="evenodd"
         id="path592"
         inkscape:connector-curvature="0" /></clipPath><clipPath
       clipPathUnits="userSpaceOnUse"
       id="clipPath602"><path
         d="m 299.52,478.44 242.88,0 0,191.88 -242.88,0 0,-191.88 z"
         clip-rule="evenodd"
         id="path604"
         inkscape:connector-curvature="0" /></clipPath><clipPath
       clipPathUnits="userSpaceOnUse"
       id="clipPath614"><path
         d="m 299.52,478.44 242.88,0 0,191.88 -242.88,0 0,-191.88 z"
         clip-rule="evenodd"
         id="path616"
         inkscape:connector-curvature="0" /></clipPath><clipPath
       clipPathUnits="userSpaceOnUse"
       id="clipPath626"><path
         d="m 299.52,478.44 242.88,0 0,191.88 -242.88,0 0,-191.88 z"
         clip-rule="evenodd"
         id="path628"
         inkscape:connector-curvature="0" /></clipPath><clipPath
       clipPathUnits="userSpaceOnUse"
       id="clipPath638"><path
         d="m 299.52,478.44 242.88,0 0,191.88 -242.88,0 0,-191.88 z"
         clip-rule="evenodd"
         id="path640"
         inkscape:connector-curvature="0" /></clipPath><clipPath
       clipPathUnits="userSpaceOnUse"
       id="clipPath650"><path
         d="m 299.52,478.44 242.88,0 0,191.88 -242.88,0 0,-191.88 z"
         clip-rule="evenodd"
         id="path652"
         inkscape:connector-curvature="0" /></clipPath><clipPath
       clipPathUnits="userSpaceOnUse"
       id="clipPath662"><path
         d="m 299.52,478.44 242.88,0 0,191.88 -242.88,0 0,-191.88 z"
         clip-rule="evenodd"
         id="path664"
         inkscape:connector-curvature="0" /></clipPath><clipPath
       clipPathUnits="userSpaceOnUse"
       id="clipPath674"><path
         d="m 299.52,478.44 242.88,0 0,191.88 -242.88,0 0,-191.88 z"
         clip-rule="evenodd"
         id="path676"
         inkscape:connector-curvature="0" /></clipPath><clipPath
       clipPathUnits="userSpaceOnUse"
       id="clipPath686"><path
         d="m 299.52,478.44 242.88,0 0,191.88 -242.88,0 0,-191.88 z"
         clip-rule="evenodd"
         id="path688"
         inkscape:connector-curvature="0" /></clipPath><clipPath
       clipPathUnits="userSpaceOnUse"
       id="clipPath698"><path
         d="m 299.52,478.44 242.88,0 0,191.88 -242.88,0 0,-191.88 z"
         clip-rule="evenodd"
         id="path700"
         inkscape:connector-curvature="0" /></clipPath><clipPath
       clipPathUnits="userSpaceOnUse"
       id="clipPath710"><path
         d="m 299.52,478.44 242.88,0 0,191.88 -242.88,0 0,-191.88 z"
         clip-rule="evenodd"
         id="path712"
         inkscape:connector-curvature="0" /></clipPath><clipPath
       clipPathUnits="userSpaceOnUse"
       id="clipPath722"><path
         d="m 299.52,478.44 242.88,0 0,191.88 -242.88,0 0,-191.88 z"
         clip-rule="evenodd"
         id="path724"
         inkscape:connector-curvature="0" /></clipPath><clipPath
       clipPathUnits="userSpaceOnUse"
       id="clipPath734"><path
         d="m 299.52,478.44 242.88,0 0,191.88 -242.88,0 0,-191.88 z"
         clip-rule="evenodd"
         id="path736"
         inkscape:connector-curvature="0" /></clipPath><clipPath
       clipPathUnits="userSpaceOnUse"
       id="clipPath746"><path
         d="m 299.52,478.44 242.88,0 0,191.88 -242.88,0 0,-191.88 z"
         clip-rule="evenodd"
         id="path748"
         inkscape:connector-curvature="0" /></clipPath><clipPath
       clipPathUnits="userSpaceOnUse"
       id="clipPath754"><path
         d="m 299.52,478.44 242.88,0 0,191.88 -242.88,0 0,-191.88 z"
         clip-rule="evenodd"
         id="path756"
         inkscape:connector-curvature="0" /></clipPath><clipPath
       clipPathUnits="userSpaceOnUse"
       id="clipPath766"><path
         d="m 299.52,478.44 242.88,0 0,191.88 -242.88,0 0,-191.88 z"
         clip-rule="evenodd"
         id="path768"
         inkscape:connector-curvature="0" /></clipPath><clipPath
       clipPathUnits="userSpaceOnUse"
       id="clipPath778"><path
         d="m 299.52,478.44 242.88,0 0,191.88 -242.88,0 0,-191.88 z"
         clip-rule="evenodd"
         id="path780"
         inkscape:connector-curvature="0" /></clipPath><clipPath
       clipPathUnits="userSpaceOnUse"
       id="clipPath790"><path
         d="m 299.52,478.44 242.88,0 0,191.88 -242.88,0 0,-191.88 z"
         clip-rule="evenodd"
         id="path792"
         inkscape:connector-curvature="0" /></clipPath><clipPath
       clipPathUnits="userSpaceOnUse"
       id="clipPath800"><path
         d="m 299.52,478.44 242.88,0 0,191.88 -242.88,0 0,-191.88 z"
         clip-rule="evenodd"
         id="path802"
         inkscape:connector-curvature="0" /></clipPath><clipPath
       clipPathUnits="userSpaceOnUse"
       id="clipPath814"><path
         d="m 299.52,478.44 242.88,0 0,191.88 -242.88,0 0,-191.88 z"
         clip-rule="evenodd"
         id="path816"
         inkscape:connector-curvature="0" /></clipPath><clipPath
       clipPathUnits="userSpaceOnUse"
       id="clipPath838"><path
         d="m 333.24,309.84 199.2,0 0,133.32 -199.2,0 0,-133.32 z"
         clip-rule="evenodd"
         id="path840"
         inkscape:connector-curvature="0" /></clipPath><clipPath
       clipPathUnits="userSpaceOnUse"
       id="clipPath848"><path
         d="m 333.24,309.84 199.2,0 0,133.32 -199.2,0 0,-133.32 z"
         clip-rule="evenodd"
         id="path850"
         inkscape:connector-curvature="0" /></clipPath><clipPath
       clipPathUnits="userSpaceOnUse"
       id="clipPath858"><path
         d="m 333.24,309.84 199.2,0 0,133.32 -199.2,0 0,-133.32 z"
         clip-rule="evenodd"
         id="path860"
         inkscape:connector-curvature="0" /></clipPath><clipPath
       clipPathUnits="userSpaceOnUse"
       id="clipPath870"><path
         d="m 299.52,259.56 242.88,0 0,192.24 -242.88,0 0,-192.24 z"
         clip-rule="evenodd"
         id="path872"
         inkscape:connector-curvature="0" /></clipPath><clipPath
       clipPathUnits="userSpaceOnUse"
       id="clipPath882"><path
         d="m 299.52,259.56 242.88,0 0,192.24 -242.88,0 0,-192.24 z"
         clip-rule="evenodd"
         id="path884"
         inkscape:connector-curvature="0" /></clipPath><clipPath
       clipPathUnits="userSpaceOnUse"
       id="clipPath894"><path
         d="m 299.52,259.56 242.88,0 0,192.24 -242.88,0 0,-192.24 z"
         clip-rule="evenodd"
         id="path896"
         inkscape:connector-curvature="0" /></clipPath><clipPath
       clipPathUnits="userSpaceOnUse"
       id="clipPath906"><path
         d="m 299.52,259.56 242.88,0 0,192.24 -242.88,0 0,-192.24 z"
         clip-rule="evenodd"
         id="path908"
         inkscape:connector-curvature="0" /></clipPath><clipPath
       clipPathUnits="userSpaceOnUse"
       id="clipPath918"><path
         d="m 299.52,259.56 242.88,0 0,192.24 -242.88,0 0,-192.24 z"
         clip-rule="evenodd"
         id="path920"
         inkscape:connector-curvature="0" /></clipPath><clipPath
       clipPathUnits="userSpaceOnUse"
       id="clipPath930"><path
         d="m 299.52,259.56 242.88,0 0,192.24 -242.88,0 0,-192.24 z"
         clip-rule="evenodd"
         id="path932"
         inkscape:connector-curvature="0" /></clipPath><clipPath
       clipPathUnits="userSpaceOnUse"
       id="clipPath942"><path
         d="m 299.52,259.56 242.88,0 0,192.24 -242.88,0 0,-192.24 z"
         clip-rule="evenodd"
         id="path944"
         inkscape:connector-curvature="0" /></clipPath><clipPath
       clipPathUnits="userSpaceOnUse"
       id="clipPath954"><path
         d="m 299.52,259.56 242.88,0 0,192.24 -242.88,0 0,-192.24 z"
         clip-rule="evenodd"
         id="path956"
         inkscape:connector-curvature="0" /></clipPath><clipPath
       clipPathUnits="userSpaceOnUse"
       id="clipPath966"><path
         d="m 299.52,259.56 242.88,0 0,192.24 -242.88,0 0,-192.24 z"
         clip-rule="evenodd"
         id="path968"
         inkscape:connector-curvature="0" /></clipPath><clipPath
       clipPathUnits="userSpaceOnUse"
       id="clipPath978"><path
         d="m 299.52,259.56 242.88,0 0,192.24 -242.88,0 0,-192.24 z"
         clip-rule="evenodd"
         id="path980"
         inkscape:connector-curvature="0" /></clipPath><clipPath
       clipPathUnits="userSpaceOnUse"
       id="clipPath990"><path
         d="m 299.52,259.56 242.88,0 0,192.24 -242.88,0 0,-192.24 z"
         clip-rule="evenodd"
         id="path992"
         inkscape:connector-curvature="0" /></clipPath><clipPath
       clipPathUnits="userSpaceOnUse"
       id="clipPath1002"><path
         d="m 299.52,259.56 242.88,0 0,192.24 -242.88,0 0,-192.24 z"
         clip-rule="evenodd"
         id="path1004"
         inkscape:connector-curvature="0" /></clipPath><clipPath
       clipPathUnits="userSpaceOnUse"
       id="clipPath1014"><path
         d="m 299.52,259.56 242.88,0 0,192.24 -242.88,0 0,-192.24 z"
         clip-rule="evenodd"
         id="path1016"
         inkscape:connector-curvature="0" /></clipPath><clipPath
       clipPathUnits="userSpaceOnUse"
       id="clipPath1026"><path
         d="m 299.52,259.56 242.88,0 0,192.24 -242.88,0 0,-192.24 z"
         clip-rule="evenodd"
         id="path1028"
         inkscape:connector-curvature="0" /></clipPath><clipPath
       clipPathUnits="userSpaceOnUse"
       id="clipPath1038"><path
         d="m 299.52,259.56 242.88,0 0,192.24 -242.88,0 0,-192.24 z"
         clip-rule="evenodd"
         id="path1040"
         inkscape:connector-curvature="0" /></clipPath><clipPath
       clipPathUnits="userSpaceOnUse"
       id="clipPath1050"><path
         d="m 299.52,259.56 242.88,0 0,192.24 -242.88,0 0,-192.24 z"
         clip-rule="evenodd"
         id="path1052"
         inkscape:connector-curvature="0" /></clipPath><clipPath
       clipPathUnits="userSpaceOnUse"
       id="clipPath1062"><path
         d="m 299.52,259.56 242.88,0 0,192.24 -242.88,0 0,-192.24 z"
         clip-rule="evenodd"
         id="path1064"
         inkscape:connector-curvature="0" /></clipPath><clipPath
       clipPathUnits="userSpaceOnUse"
       id="clipPath1070"><path
         d="m 299.52,259.56 242.88,0 0,192.24 -242.88,0 0,-192.24 z"
         clip-rule="evenodd"
         id="path1072"
         inkscape:connector-curvature="0" /></clipPath><clipPath
       clipPathUnits="userSpaceOnUse"
       id="clipPath1082"><path
         d="m 299.52,259.56 242.88,0 0,192.24 -242.88,0 0,-192.24 z"
         clip-rule="evenodd"
         id="path1084"
         inkscape:connector-curvature="0" /></clipPath><clipPath
       clipPathUnits="userSpaceOnUse"
       id="clipPath1094"><path
         d="m 299.52,259.56 242.88,0 0,192.24 -242.88,0 0,-192.24 z"
         clip-rule="evenodd"
         id="path1096"
         inkscape:connector-curvature="0" /></clipPath><clipPath
       clipPathUnits="userSpaceOnUse"
       id="clipPath1106"><path
         d="m 299.52,259.56 242.88,0 0,192.24 -242.88,0 0,-192.24 z"
         clip-rule="evenodd"
         id="path1108"
         inkscape:connector-curvature="0" /></clipPath><clipPath
       clipPathUnits="userSpaceOnUse"
       id="clipPath1116"><path
         d="m 299.52,259.56 242.88,0 0,192.24 -242.88,0 0,-192.24 z"
         clip-rule="evenodd"
         id="path1118"
         inkscape:connector-curvature="0" /></clipPath><clipPath
       clipPathUnits="userSpaceOnUse"
       id="clipPath1130"><path
         d="m 299.52,259.56 242.88,0 0,192.24 -242.88,0 0,-192.24 z"
         clip-rule="evenodd"
         id="path1132"
         inkscape:connector-curvature="0" /></clipPath></defs><sodipodi:namedview
     pagecolor="#ffffff"
     bordercolor="#666666"
     borderopacity="1"
     objecttolerance="10"
     gridtolerance="10"
     guidetolerance="10"
     inkscape:pageopacity="0"
     inkscape:pageshadow="2"
     inkscape:window-width="1600"
     inkscape:window-height="1139"
     id="namedview4"
     showgrid="false"
     fit-margin-top="10"
     fit-margin-bottom="10"
     fit-margin-right="10"
     fit-margin-left="10"
     inkscape:zoom="1.7947622"
     inkscape:cx="336.25501"
     inkscape:cy="32.654229"
     inkscape:window-x="-4"
     inkscape:window-y="-4"
     inkscape:window-maximized="1"
     inkscape:current-layer="g10" /><g
     id="g10"
     inkscape:groupmode="layer"
     inkscape:label="Pedalforce 340W EN"
     transform="matrix(1.25,0,0,-1.25,-58.77125,863.74844)"><g
       id="g56"><g
         id="g58"
         clip-path="url(#clipPath60)" /></g><g
       id="g78"><g
         id="g80"
         clip-path="url(#clipPath82)" /></g><g
       id="g88"><g
         id="g90"
         clip-path="url(#clipPath92)"><text
           transform="matrix(1,0,0,-1,54.312,677.4)"
           id="text96"><tspan
             style="font-size:7.67999983px;font-variant:normal;font-weight:bold;writing-mode:lr-tb;fill:#ffffff;fill-opacity:1;fill-rule:nonzero;stroke:none;font-family:Verdana;-inkscape-font-specification:Verdana Bold"
             x="0 4.9920001 10.05312"
             y="0"
             sodipodi:role="line"
             id="tspan98">Fe </tspan></text>
</g></g><g
       id="g100"><g
         id="g102"
         clip-path="url(#clipPath104)" /></g><g
       id="g136"><g
         id="g138"
         clip-path="url(#clipPath140)" /></g><g
       id="g156"><g
         id="g158"
         clip-path="url(#clipPath160)" /></g><g
       id="g176"><g
         id="g178"
         clip-path="url(#clipPath180)" /></g><g
       id="g196"><g
         id="g198"
         clip-path="url(#clipPath200)" /></g><g
       id="g216"><g
         id="g218"
         clip-path="url(#clipPath220)" /></g><g
       id="g224"><g
         id="g226"
         clip-path="url(#clipPath228)" /></g><g
       id="g244"><g
         id="g246"
         clip-path="url(#clipPath248)" /></g><g
       id="g264"><g
         id="g266"
         clip-path="url(#clipPath268)" /></g><g
       id="g284"><g
         id="g286"
         clip-path="url(#clipPath288)" /></g><g
       id="g304"><g
         id="g306"
         clip-path="url(#clipPath308)" /></g><g
       id="g324"><g
         id="g326"
         clip-path="url(#clipPath328)" /></g><g
       id="g332"><g
         id="g334"
         clip-path="url(#clipPath336)" /></g><g
       id="g352"><g
         id="g354"
         clip-path="url(#clipPath356)" /></g><g
       id="g372"><g
         id="g374"
         clip-path="url(#clipPath376)" /></g><path
       d="m 165.60652,660.76342 c 2.52151,-4.45656 7.55216,-13.38349 7.55216,-13.38349 0,0 -6.62513,11.16905 -7.55216,13.38349 -0.42022,1.02417 1.69338,-0.0138 2.00239,-0.0278 0.66745,-0.0278 1.50796,-0.0693 2.00236,-0.0968 0.50677,-0.0278 0.66747,-0.0554 1.00118,-0.0832 0.33372,-0.0278 0.66746,-0.0554 1.0012,-0.0969 0.33373,-0.0278 0.66746,-0.0693 1.00117,-0.0968 0.32139,-0.0415 0.65511,-0.0832 0.98883,-0.1384 0.33373,-0.0415 0.65511,-0.0832 0.98881,-0.13842 0.0619,-0.0138 0.71691,0.31833 0.98884,-0.15224 1.59446,-2.79571 8.5904,-16.62211 8.5904,-16.62211 0,0 -7.47798,13.90944 -8.5904,16.62211 -0.40791,1.01034 1.73044,-0.33217 1.97763,-0.37369 0.64276,-0.13838 1.45852,-0.33216 1.95293,-0.44288 0.48205,-0.11076 0.64273,-0.15224 0.96412,-0.2353 0.32136,-0.0832 0.64272,-0.16607 0.96408,-0.26294 0.3214,-0.083 0.64275,-0.17994 0.96412,-0.27682 0.32136,-0.0967 0.64275,-0.19376 0.9641,-0.29063 0.309,-0.0968 0.63037,-0.19377 0.95175,-0.30447 0.0372,-0.0138 0.69217,0.15221 0.93938,-0.31835 1.85403,-3.52923 10.18488,-20.85719 10.18488,-20.85719 0,0 -8.80054,17.494 -10.18488,20.85719 -0.40791,0.9965 1.69336,-0.62281 1.8664,-0.70583 0.63039,-0.23531 1.39671,-0.55362 1.85405,-0.74738 0.45732,-0.19376 0.60567,-0.26297 0.91465,-0.40136 0.29665,-0.13842 0.60566,-0.27681 0.90229,-0.41522 0.29667,-0.15225 0.59332,-0.29064 0.90233,-0.44288 0.29662,-0.13842 0.59328,-0.29065 0.88993,-0.4429 0.28427,-0.15225 0.58093,-0.3045 0.87758,-0.45672 0.0247,-0.0278 0.63037,0 0.86523,-0.48441 2.1754,-4.38733 12.17488,-25.86737 12.17488,-25.86737 0,0 -10.43209,21.72914 -12.17488,25.86737 -0.40789,0.98265 1.59447,-0.91346 1.73043,-0.9965 0.55622,-0.34599 1.26075,-0.78889 1.68102,-1.05184 0.40787,-0.26295 0.54385,-0.35986 0.82812,-0.55361 0.27191,-0.17992 0.54386,-0.37368 0.81579,-0.55361 0.25956,-0.19377 0.53149,-0.38754 0.8034,-0.5813 0.25958,-0.19376 0.53151,-0.38753 0.79108,-0.59513 0.25956,-0.19376 0.53148,-0.40136 0.79106,-0.59513 0.0123,-0.0278 0.53149,-0.15223 0.76633,-0.62281 2.66983,-5.30078 15.21553,-31.18199 15.21553,-31.18199 0,0 -12.92888,26.19953 -15.21553,31.18199 -0.43261,0.94114 1.42142,-1.19025 1.52033,-1.27328 0.49439,-0.42905 1.10005,-0.98267 1.45851,-1.31482 0.37081,-0.33218 0.48205,-0.45673 0.7169,-0.67817 0.23483,-0.23529 0.46968,-0.45675 0.70452,-0.69202 0.23486,-0.23528 0.46969,-0.47057 0.69218,-0.70587 0.22248,-0.23527 0.45734,-0.47056 0.67982,-0.70584 0.22249,-0.24912 0.44498,-0.4844 0.66746,-0.73353 0.0123,-0.0139 0.40787,-0.29064 0.64273,-0.73352 3.20132,-6.0897 18.52807,-35.77696 18.52807,-35.77696 0,0 -15.64813,30.06095 -18.52807,35.77696 -0.44497,0.89962 1.19894,-1.42556 1.26074,-1.5086 0.42026,-0.51208 0.91467,-1.14873 1.21132,-1.55008 0.29666,-0.38754 0.39552,-0.52594 0.58093,-0.78891 0.19777,-0.26296 0.38317,-0.52592 0.56857,-0.78889 0.18541,-0.27681 0.3708,-0.53975 0.55622,-0.81657 0.1854,-0.26296 0.35844,-0.53977 0.54386,-0.81657 0.17304,-0.26297 0.34607,-0.53978 0.51911,-0.81658 0.0124,-0.0277 0.27194,-0.40136 0.50679,-0.84426 3.64628,-6.8509 21.34622,-40.27499 21.34622,-40.27499 0,0 -17.94714,33.85313 -21.34622,40.27499 -0.45735,0.87194 0.927,-1.60545 0.97645,-1.6885 0.309,-0.56744 0.67983,-1.28713 0.90231,-1.73002 0.23486,-0.42906 0.29664,-0.5813 0.43262,-0.87194 0.14832,-0.29066 0.28428,-0.58129 0.42024,-0.88577 0.13598,-0.29064 0.27192,-0.5813 0.39552,-0.88578 0.13598,-0.29063 0.25957,-0.59512 0.38318,-0.88578 0.13596,-0.30447 0.24721,-0.60895 0.3708,-0.91345 0.0123,-0.0139 0.13597,-0.47055 0.35846,-0.89961 3.98,-7.63979 23.57108,-44.93917 23.57108,-44.93917 0,0 -19.75176,37.75609 -23.57108,44.93917 -0.45734,0.84425 0.618,-1.7577 0.64273,-1.82691 0.21015,-0.6228 0.44498,-1.39786 0.59332,-1.85459 0.13594,-0.47055 0.18538,-0.62279 0.2719,-0.94114 0.0867,-0.30446 0.16069,-0.62279 0.2472,-0.94112 0.0742,-0.30448 0.16071,-0.6228 0.23486,-0.94114 0.0742,-0.30448 0.14832,-0.62281 0.21012,-0.94112 0.0742,-0.31834 0.13596,-0.63665 0.21013,-0.955 0,-0.0138 -0.0372,-0.51206 0.17304,-0.94111 4.12834,-8.40102 24.55991,-49.43725 24.55991,-49.43725 0,0 -20.5181,41.52062 -24.55991,49.43725 -0.43261,0.84424 0.309,-1.8546 0.32138,-1.92379 0.0867,-0.63666 0.18539,-1.4394 0.23483,-1.90995 0.0619,-0.48441 0.0742,-0.65048 0.0991,-0.96882 0.0372,-0.31833 0.0617,-0.65047 0.0867,-0.9688 0.0248,-0.31833 0.0372,-0.63666 0.0619,-0.96884 0.0124,-0.31832 0.0247,-0.63665 0.0372,-0.96881 0.0123,-0.31832 0.0247,-0.63666 0.0247,-0.96882 0,-0.0139 -0.18539,-0.52592 0.0123,-0.96882 4.04181,-8.92692 24.22618,-52.64816 24.22618,-52.64816 0,0 -20.18437,44.20564 -24.22618,52.64816 -0.40787,0.85809 -0.0372,-1.86842 -0.0372,-1.93761 -0.0248,-0.63666 -0.0742,-1.4394 -0.099,-1.92379 -0.0372,-0.48442 -0.0495,-0.6505 -0.0867,-0.96882 -0.0248,-0.31831 -0.0619,-0.65048 -0.099,-0.96881 -0.0247,-0.31832 -0.0617,-0.63666 -0.11129,-0.95498 -0.0372,-0.33216 -0.0867,-0.65048 -0.12357,-0.96882 -0.0495,-0.31833 -0.099,-0.63666 -0.14832,-0.95496 0,-0.0138 -0.34608,-0.5121 -0.17304,-0.955 3.68339,-9.20374 22.23616,-54.27577 22.23616,-54.27577 0,0 -18.46627,45.54262 -22.23616,54.27577 -0.37083,0.87195 -0.35845,-1.84072 -0.38318,-1.8961 -0.13596,-0.63663 -0.33372,-1.42555 -0.44497,-1.8961 -0.12371,-0.47057 -0.16068,-0.62282 -0.24722,-0.94114 -0.0867,-0.30448 -0.18538,-0.62282 -0.27189,-0.9273 -0.099,-0.30449 -0.18542,-0.62282 -0.2843,-0.92728 -0.0991,-0.3045 -0.19777,-0.62282 -0.30901,-0.92729 -0.0991,-0.3045 -0.21012,-0.60897 -0.30901,-0.91347 -0.0123,-0.0138 -0.4944,-0.45673 -0.33372,-0.91346 3.13952,-9.13453 19.15845,-53.89793 19.15845,-53.89793 0,0 -15.8459,45.22014 -19.15845,53.89793 -0.35846,0.91346 -0.69218,-1.74385 -0.72926,-1.81306 -0.2472,-0.59511 -0.58093,-1.34249 -0.77869,-1.78538 -0.19778,-0.44289 -0.27194,-0.5813 -0.42026,-0.87193 -0.13598,-0.3045 -0.28429,-0.59514 -0.4326,-0.88578 -0.13598,-0.29066 -0.28431,-0.56746 -0.44497,-0.85809 -0.14834,-0.29064 -0.309,-0.5813 -0.45735,-0.8581 -0.16067,-0.29062 -0.32136,-0.56744 -0.48202,-0.85809 -0.0124,-0.0138 -0.63041,-0.35983 -0.49442,-0.84424 2.4844,-8.80238 15.42563,-51.99631 15.42563,-51.99631 0,0 -12.68165,43.60912 -15.42563,51.99631 -0.30901,0.95495 -0.98883,-1.59164 -1.02592,-1.66084 -0.35845,-0.53978 -0.81579,-1.21792 -1.10007,-1.6193 -0.27192,-0.40138 -0.3708,-0.53977 -0.56856,-0.80273 -0.18542,-0.26296 -0.38319,-0.52593 -0.58094,-0.78888 -0.19775,-0.26298 -0.39555,-0.51211 -0.5933,-0.77508 -0.19776,-0.26296 -0.40788,-0.51209 -0.61802,-0.77506 -0.19776,-0.2491 -0.40788,-0.49823 -0.61801,-0.74736 -0.0124,-0.0139 -0.75398,-0.24912 -0.64273,-0.74736 1.8664,-8.37335 11.79172,-49.45799 11.79172,-49.45799 0,0 -9.60395,41.45834 -11.79172,49.45799 -0.27192,0.98265 -1.26076,-1.41171 -1.3102,-1.46706 -0.44495,-0.48439 -1.02591,-1.0657 -1.37199,-1.4117 -0.34609,-0.35986 -0.46969,-0.47058 -0.70454,-0.69201 -0.23483,-0.23529 -0.46968,-0.45674 -0.71689,-0.67817 -0.23485,-0.22146 -0.48206,-0.45674 -0.7169,-0.66433 -0.24721,-0.22144 -0.49441,-0.44287 -0.74162,-0.66434 -0.24721,-0.20762 -0.50678,-0.42904 -0.75398,-0.63665 -0.0124,-0.0139 -0.8405,-0.11077 -0.76633,-0.63665 1.21129,-7.93046 7.99711,-46.96815 7.99711,-46.96815 0,0 -6.40264,39.34219 -7.99711,46.96815 -0.21013,1.03801 -1.48324,-1.16258 -1.5574,-1.21795 -0.51913,-0.38753 -1.19896,-0.87192 -1.59447,-1.16258 -0.4079,-0.29064 -0.54387,-0.37367 -0.81578,-0.56744 -0.2843,-0.17991 -0.55622,-0.35985 -0.82813,-0.53976 -0.28431,-0.17991 -0.55623,-0.35986 -0.84052,-0.53977 -0.28428,-0.17993 -0.56856,-0.34601 -0.8405,-0.51209 -0.28428,-0.17992 -0.56856,-0.34601 -0.86521,-0.51209 -0.0124,-0.0139 -0.88995,0.0554 -0.86523,-0.4844 0.48206,-7.41835 3.75753,-44.01603 3.75753,-44.01603 0,0 -2.8305,36.83294 -3.75753,44.01603 -0.13596,1.06569 -1.65628,-0.89963 -1.74279,-0.94115 -0.59332,-0.30448 -1.34728,-0.66434 -1.79226,-0.88576 -0.44496,-0.22146 -0.60565,-0.27681 -0.90231,-0.41521 -0.309,-0.13839 -0.60563,-0.2768 -0.91465,-0.40137 -0.309,-0.13839 -0.61801,-0.26296 -0.92701,-0.38752 -0.29665,-0.12457 -0.60566,-0.24913 -0.92703,-0.37368 -0.309,-0.11077 -0.61802,-0.23531 -0.92703,-0.34601 -0.0247,-0.0139 -0.91467,0.20761 -0.93937,-0.34601 -0.25957,-6.86474 -0.58094,-40.82447 -0.58094,-40.82447 0,0 0.80342,34.12582 0.58094,40.82447 -0.0372,1.10723 -1.79225,-0.59512 -1.89113,-0.6228 -0.64275,-0.2076 -1.44617,-0.42905 -1.92821,-0.56746 -0.48205,-0.13839 -0.64273,-0.17991 -0.9641,-0.26296 -0.32137,-0.0832 -0.64274,-0.16608 -0.96411,-0.24912 -0.33371,-0.0693 -0.65508,-0.15225 -0.97644,-0.22146 -0.33374,-0.0694 -0.65512,-0.13839 -0.97648,-0.20759 -0.33375,-0.0693 -0.65509,-0.13839 -0.98881,-0.19377 -0.0247,0 -0.91468,0.37369 -0.98883,-0.17992 -0.87759,-6.4357 -4.31374,-38.45087 -4.31374,-38.45087 0,0 3.93056,32.09822 4.31374,38.45087 0.0742,1.12106 -1.86641,-0.29063 -1.97765,-0.3045 -0.66746,-0.083 -1.4956,-0.17991 -1.99,-0.23526 -0.49443,-0.0554 -0.66747,-0.0554 -1.00119,-0.0832 -0.33373,-0.0416 -0.66746,-0.0554 -1.00119,-0.083 -0.33375,-0.0278 -0.66747,-0.0416 -1.00119,-0.0554 -0.33374,-0.0138 -0.66744,-0.0277 -1.00117,-0.0415 -0.33373,-0.0139 -0.66746,-0.0278 -1.00118,-0.0278 -0.0247,0 -0.87761,0.5398 -1.0012,-0.0138 -1.3967,-6.04816 -7.40381,-36.26551 -7.40381,-36.26551 0,0 6.50152,30.21735 7.40381,36.26551 0.16071,1.10722 -1.87877,0.0278 -2.00236,0.0415 -0.66746,0.0139 -1.50796,0.0694 -2.00237,0.0968 -0.50676,0.0277 -0.66746,0.0416 -1.00118,0.083 -0.33373,0.0278 -0.66747,0.0554 -1.00119,0.0832 -0.33372,0.0416 -0.66746,0.0693 -1.00118,0.11075 -0.33373,0.0415 -0.65509,0.0832 -0.98882,0.12456 -0.33373,0.0554 -0.66746,0.0969 -0.98883,0.15225 -0.0372,0 -0.82815,0.67818 -0.98882,0.15225 -1.77987,-5.5084 -9.6534,-33.25112 -9.6534,-33.25112 0,0 8.36792,27.64584 9.6534,33.25112 0.24722,1.07954 -1.84171,0.346 -1.97765,0.37368 -0.6551,0.1384 -1.4585,0.31833 -1.95292,0.42906 -0.48208,0.12457 -0.64275,0.16606 -0.96411,0.2491 -0.32137,0.083 -0.6551,0.16609 -0.97648,0.26298 -0.32135,0.083 -0.63034,0.1799 -0.95172,0.26297 -0.32139,0.0968 -0.64274,0.19375 -0.9641,0.30447 -0.30902,0.0969 -0.63041,0.19375 -0.95176,0.3045 -0.0247,0.0138 -0.72926,0.81656 -0.93937,0.31831 -2.02711,-4.91329 -11.18607,-29.8395 -11.18607,-29.8395 0,0 9.62866,24.74631 11.18607,29.8395 0.32137,1.05187 -1.74281,0.65051 -1.87877,0.69204 -0.618,0.2491 -1.38435,0.56743 -1.8417,0.7612 -0.45732,0.19376 -0.60564,0.26296 -0.91465,0.40135 -0.29665,0.1384 -0.60565,0.27681 -0.90232,0.41521 -0.29663,0.1384 -0.60564,0.29066 -0.90228,0.42905 -0.29664,0.15224 -0.5933,0.30449 -0.88993,0.45672 -0.29665,0.15223 -0.58093,0.30448 -0.87759,0.45673 -0.0372,0.0138 -0.63039,0.95497 -0.87758,0.48441 -2.20013,-4.31815 -12.38504,-26.36838 -12.38504,-26.36838 0,0 10.61751,21.80111 12.38504,26.36838 0.39553,0.98265 -1.5945,0.91344 -1.7181,0.99649 -0.56856,0.33216 -1.26074,0.78889 -1.68098,1.05186 -0.42027,0.26297 -0.55621,0.35985 -0.82814,0.53977 -0.27194,0.19378 -0.54384,0.37368 -0.81578,0.56744 -0.27193,0.19377 -0.53149,0.38754 -0.80343,0.5813 -0.27192,0.19375 -0.53149,0.38751 -0.79106,0.58128 -0.27191,0.2076 -0.53149,0.40136 -0.79105,0.60898 -0.0247,0.0278 -0.49442,1.05185 -0.76633,0.60896 -2.3732,-3.70917 -13.46037,-22.87927 -13.46037,-22.87927 0,0 11.47037,18.86562 13.46037,22.87927 0.45731,0.9273 -1.40907,1.17642 -1.52033,1.2733 -0.49439,0.42905 -1.10005,0.99651 -1.47087,1.32868 -0.35844,0.33215 -0.46968,0.44288 -0.70454,0.67816 -0.2472,0.22143 -0.48203,0.45672 -0.70454,0.69201 -0.23484,0.22145 -0.46966,0.45671 -0.69216,0.692 -0.23485,0.24912 -0.45734,0.48441 -0.67983,0.71971 -0.22247,0.23527 -0.44497,0.48438 -0.66746,0.71968 -0.0247,0.0416 -0.33372,1.12106 -0.64272,0.74737 -2.48442,-3.031 -14.21436,-18.90573 -14.21436,-18.90573 0,0 12.0513,15.50104 14.21436,18.90573 0.53148,0.84426 -1.16189,1.37018 -1.27312,1.49474 -0.40788,0.51208 -0.9023,1.16258 -1.19893,1.55012 -0.29667,0.3875 -0.39554,0.52592 -0.58094,0.78888 -0.19776,0.26295 -0.38318,0.53976 -0.56859,0.80275 -0.1854,0.26295 -0.37081,0.53975 -0.55621,0.80273 -0.18541,0.27679 -0.35844,0.5536 -0.54386,0.81657 -0.17303,0.27679 -0.34609,0.55359 -0.51912,0.83039 -0.0248,0.0415 -0.17304,1.16258 -0.50678,0.83043 -2.43496,-2.40812 -14.11544,-15.29335 -14.11544,-15.29335 0,0 11.92768,12.47003 14.11544,15.29344 0.58094,0.7612 -0.88995,1.55009 -0.97646,1.70233 -0.30901,0.56745 -0.69218,1.28714 -0.91467,1.71619 -0.22248,0.44289 -0.28428,0.59513 -0.43261,0.88578 -0.13594,0.29064 -0.27191,0.58129 -0.40788,0.87193 -0.13596,0.30449 -0.27193,0.59513 -0.40788,0.88577 -0.12358,0.30449 -0.24722,0.60897 -0.38316,0.89961 -0.12371,0.3045 -0.24722,0.59513 -0.35846,0.89961 -0.0247,0.0554 0,1.19027 -0.35846,0.91347 -2.27427,-1.79925 -13.312032,-11.69497 -13.312032,-11.69497 0,0 11.198432,9.43901 13.312032,11.69497 0.64276,0.67815 -0.59328,1.64698 -0.65508,1.8269 -0.19777,0.6228 -0.44498,1.38401 -0.58094,1.85458 -0.14832,0.47058 -0.18541,0.62281 -0.27192,0.9273 -0.0867,0.31834 -0.1607,0.63665 -0.24721,0.94115 -0.0867,0.31832 -0.16068,0.63665 -0.23486,0.94114 -0.0742,0.31831 -0.14831,0.63665 -0.22246,0.95495 -0.0619,0.30449 -0.13598,0.62281 -0.19779,0.94115 -0.0124,0.0554 0.21013,1.19026 -0.17303,0.95496 -2.0889,-1.24562 -12.28614,-8.42868 -12.28614,-8.42868 0,0 10.28376,6.69866 12.28614,8.42868 0.67982,0.59516 -0.2843,1.68852 -0.32138,1.90996 -0.0866,0.63666 -0.18541,1.43937 -0.2472,1.92379 -0.0495,0.48439 -0.0618,0.6505 -0.0867,0.96881 -0.0372,0.31832 -0.0619,0.63664 -0.0867,0.96882 -0.0247,0.31833 -0.0372,0.63664 -0.0618,0.95498 -0.0124,0.33216 -0.0249,0.65048 -0.0371,0.9688 -0.0124,0.33217 -0.0247,0.6505 -0.0247,0.96883 -0.0124,0.0693 0.38315,1.14872 -0.0124,0.96879 -1.84169,-0.80272 -11.025394,-5.79903 -11.025394,-5.79903 0,0 9.183704,4.51191 11.025394,5.79903 0.72924,0.51209 0.0246,1.68852 0.0371,1.93765 0.0247,0.65049 0.0742,1.45322 0.0991,1.93763 0.0371,0.48441 0.0495,0.65048 0.0867,0.96881 0.0247,0.31833 0.0619,0.63664 0.0867,0.96882 0.0371,0.31831 0.0742,0.63664 0.12357,0.95497 0.0371,0.31832 0.0742,0.63666 0.1237,0.95498 0.0495,0.33215 0.0991,0.65049 0.14833,0.96882 0.0124,0.0832 0.59329,1.06568 0.17305,0.95496 -1.58212,-0.44288 -9.665765,-3.62614 -9.665765,-3.62614 0,0 7.984775,2.69884 9.665765,3.62614 0.77869,0.42906 0.30901,1.60546 0.37081,1.89612 0.14832,0.63664 0.34608,1.41171 0.45734,1.88228 0.11128,0.47055 0.16068,0.63664 0.24719,0.94111 0.0867,0.31833 0.1854,0.62282 0.27193,0.94113 0.0867,0.30448 0.1854,0.60898 0.28429,0.9273 0.0991,0.30449 0.19775,0.60898 0.29666,0.9273 0.11128,0.30449 0.2101,0.60897 0.32134,0.91346 0.0371,0.0968 0.7787,0.94114 0.33372,0.91344 -1.29781,-0.0968 -8.12071,-1.45321 -8.12071,-1.45321 0,0 6.64985,0.91345 8.12071,1.45321 0.84053,0.3045 0.58095,1.46706 0.71692,1.81307 0.25957,0.59514 0.59329,1.32867 0.79104,1.77155 0.19779,0.44289 0.27194,0.59512 0.4079,0.88577 0.14832,0.29065 0.29665,0.58131 0.43261,0.87193 0.14832,0.29067 0.29665,0.58129 0.45732,0.87195 0.14833,0.29063 0.29665,0.56744 0.45734,0.85809 0.16069,0.29064 0.32137,0.56744 0.48206,0.84425 0.0742,0.13841 0.93938,0.76121 0.49441,0.84424 -0.97647,0.19378 -6.36556,0.27682 -6.36556,0.27682 0,0 5.12954,-0.49825 6.36556,-0.27682 0.88993,0.16609 0.7787,1.27331 1.0259,1.66084 0.35845,0.55362 0.81577,1.23178 1.10007,1.63313 0.27193,0.40137 0.37082,0.52593 0.56858,0.78891 0.18539,0.27681 0.38315,0.53977 0.58094,0.7889 0.19774,0.26298 0.39552,0.52592 0.59328,0.78887 0.19777,0.24913 0.40789,0.51209 0.60566,0.76122 0.21012,0.26297 0.42025,0.51209 0.63038,0.76121 0.13594,0.16608 1.05062,0.51208 0.64273,0.74738 -0.63038,0.35983 -4.42498,1.39784 -4.42498,1.39784 0,0 3.46086,-1.4117 4.42498,-1.39784 0.92704,0.0139 0.87758,0.99649 1.31018,1.46705 0.445,0.47058 1.02594,1.06571 1.372,1.41171 0.3461,0.34602 0.45735,0.45674 0.70453,0.69202 0.23485,0.22144 0.46971,0.45672 0.70455,0.67817 0.2472,0.22143 0.49441,0.44287 0.72926,0.66432 0.24721,0.22144 0.49441,0.44289 0.74161,0.65051 0.24722,0.22142 0.49443,0.42902 0.75397,0.65046 0.24722,0.20762 1.00119,0.346 0.76635,0.62281 -0.24721,0.29066 -2.20014,1.07955 -2.20014,1.07955 0,0 1.56976,-1.10723 2.20014,-1.07955 0.61802,0.0278 1.02589,0.83041 1.5574,1.21794 0.51913,0.40139 1.19894,0.88578 1.59447,1.17643 0.40789,0.27681 0.54386,0.37369 0.81578,0.5536 0.27193,0.19375 0.55621,0.37369 0.82815,0.55361 0.28427,0.17994 0.55621,0.35984 0.8405,0.52592 0.28427,0.17994 0.55621,0.35985 0.84047,0.52593 0.28431,0.16608 0.56859,0.34601 0.85289,0.51209 0.29665,0.16608 0.66746,0.65051 0.86521,0.48442 0.21012,-0.15225 0.34611,-1.45322 0.34611,-1.45322 0,0 -0.58095,1.05185 -0.34611,1.45322 0.2472,0.40137 1.17424,0.63663 1.75517,0.94112 0.59331,0.30449 1.34727,0.66433 1.79223,0.88578 0.44498,0.20762 0.60567,0.2768 0.90232,0.41521 0.309,0.13839 0.60563,0.26297 0.91464,0.40137 0.30901,0.12456 0.60567,0.26296 0.91466,0.38751 0.30903,0.12456 0.61802,0.24913 0.92704,0.35986 0.309,0.12457 0.63038,0.24911 0.93938,0.35983 0.17305,0.0693 0.60565,0.76123 0.93937,0.34601 0.5933,-0.76121 2.62038,-4.87175 2.62038,-4.87175 0,0 -2.49676,3.94446 -2.62038,4.87175 -0.12369,0.91346 1.26075,0.42904 1.89114,0.62282 0.64271,0.2076 1.44614,0.42905 1.91584,0.56745 0.48206,0.13841 0.6551,0.17991 0.97646,0.26295 0.32136,0.0832 0.64272,0.1661 0.96411,0.23529 0.32137,0.0831 0.65509,0.15225 0.97647,0.23529 0.32137,0.0693 0.65509,0.1384 0.97645,0.20759 0.33371,0.0693 0.65511,0.12459 0.98884,0.19377 0.099,0.0139 0.67981,0.62282 0.98881,0.17993 0.93939,-1.41169 4.65984,-8.60862 4.65984,-8.60862 0,0 -4.21487,7.11387 -4.65984,8.60862 -0.32135,1.05184 1.50795,0.23528 1.97765,0.29065 0.65509,0.0967 1.49559,0.19376 1.99001,0.23527 0.4944,0.0554 0.66747,0.0693 1.0012,0.0968 0.33371,0.0277 0.66745,0.0554 1.00116,0.0832 0.33371,0.0139 0.66745,0.0416 1.00118,0.0554 0.33374,0.0138 0.66746,0.0278 1.00119,0.0415 0.33373,0.0139 0.66746,0.0139 1.00119,0.0278"
       style="fill:none;stroke:#000000;stroke-width:1.04634726;stroke-linecap:round;stroke-linejoin:round;stroke-miterlimit:10;stroke-opacity:1;stroke-dasharray:none"
       id="path462"
       inkscape:connector-curvature="0" /><path
       d="m 299.59,662.5 c 0,4.25 3.44,7.7 7.69,7.7 l 227.48,0 c 4.25,0 7.7,-3.45 7.7,-7.7 l 0,-176.39 c 0,-4.25 -3.45,-7.69 -7.7,-7.69 l -227.48,0 c -4.25,0 -7.69,3.44 -7.69,7.69 l 0,176.39 z"
       style="fill:#ffffff;fill-opacity:1;fill-rule:evenodd;stroke:none"
       id="path494"
       inkscape:connector-curvature="0" /><path
       d="m 333.24,529.08 198.72,0 m -198.72,13.32 198.72,0 m -198.72,26.52 198.72,0 m -198.72,13.2 198.72,0 m -198.72,13.32 198.72,0 m -198.72,13.2 198.72,0 m -198.72,13.2 198.72,0 m -198.72,13.32 198.72,0 m -198.72,13.2 198.72,0 m -198.72,13.32 198.72,0"
       style="fill:none;stroke:#868686;stroke-width:0.47999999;stroke-linecap:butt;stroke-linejoin:round;stroke-miterlimit:10;stroke-opacity:1;stroke-dasharray:none"
       id="path496"
       inkscape:connector-curvature="0" /><path
       d="m 333.24,529.08 0,132.6"
       style="fill:none;stroke:#868686;stroke-width:0.47999999;stroke-linecap:butt;stroke-linejoin:round;stroke-miterlimit:10;stroke-opacity:1;stroke-dasharray:none"
       id="path498"
       inkscape:connector-curvature="0" /><path
       d="m 330.84,529.08 2.4,0 m -2.4,13.32 2.4,0 m -2.4,13.2 2.4,0 m -2.4,13.32 2.4,0 m -2.4,13.2 2.4,0 m -2.4,13.32 2.4,0 m -2.4,13.2 2.4,0 m -2.4,13.2 2.4,0 m -2.4,13.32 2.4,0 m -2.4,13.2 2.4,0 m -2.4,13.32 2.4,0"
       style="fill:none;stroke:#868686;stroke-width:0.47999999;stroke-linecap:butt;stroke-linejoin:round;stroke-miterlimit:10;stroke-opacity:1;stroke-dasharray:none"
       id="path500"
       inkscape:connector-curvature="0" /><path
       d="m 333.24,555.6 198.72,0"
       style="fill:none;stroke:#868686;stroke-width:0.47999999;stroke-linecap:butt;stroke-linejoin:round;stroke-miterlimit:10;stroke-opacity:1;stroke-dasharray:none"
       id="path502"
       inkscape:connector-curvature="0" /><path
       d="m 333.24,555.6 0,-2.4 m 49.68,2.4 0,-2.4 m 49.68,2.4 0,-2.4 m 49.68,2.4 0,-2.4 m 49.68,2.4 0,-2.4"
       style="fill:none;stroke:#868686;stroke-width:0.47999999;stroke-linecap:butt;stroke-linejoin:round;stroke-miterlimit:10;stroke-opacity:1;stroke-dasharray:none"
       id="path504"
       inkscape:connector-curvature="0" /><g
       id="g506"><g
         id="g508"
         clip-path="url(#clipPath510)"><path
           d="m 333.24,555.63 c 0.18,0 0.37,0 0.55,0 0.19,0 0.37,0 0.55,0 0.19,0 0.37,0 0.56,0 0.18,0 0.36,0 0.55,0 0.18,0 0.37,0 0.55,0 0.18,0 0.37,0 0.55,0 0.19,0 0.37,0 0.55,0 0.19,0 0.37,0 0.56,0 0.18,0 0.36,0 0.55,0 0.18,0 0.37,0 0.55,0 0.18,0 0.37,0 0.55,0 0.19,0 0.37,0 0.55,0 0.19,0 0.37,0 0.55,0 0.19,0 0.37,0 0.56,0 0.18,0 0.36,0 0.55,0 0.18,0 0.37,0 0.55,0 0.18,0 0.37,0 0.55,0 0.19,0 0.37,0 0.55,0 0.19,0 0.37,0 0.56,0 0.18,0 0.36,0 0.55,0 0.18,0 0.37,0 0.55,0 0.18,0 0.37,0 0.55,0 0.19,0 0.37,0 0.55,0 0.19,0 0.37,0 0.56,0 0.18,0 0.36,0 0.55,0 0.18,0 0.37,0 0.55,0 0.18,0 0.37,0 0.55,0 0.19,0 0.37,0 0.55,0 0.19,0 0.37,0 0.56,0 0.18,0 0.36,0 0.55,0 0.18,0 0.37,0 0.55,0 0.18,0 0.37,0 0.55,0 0.19,0 0.37,0 0.55,0 0.19,0 0.37,0 0.56,0 0.18,0 0.36,0 0.55,0 0.18,0 0.37,0 0.55,0 0.18,0 0.37,0 0.55,0 0.19,0 0.37,0 0.55,0 0.19,0 0.37,0 0.56,0 0.18,0 0.36,0 0.55,0 0.18,0 0.37,0 0.55,0 0.18,0 0.37,0 0.55,0 0.19,0 0.37,0 0.55,0 0.19,0 0.37,0 0.55,0 0.19,0 0.37,0 0.56,0 0.18,0 0.36,0 0.55,0 0.18,0 0.37,0 0.55,0 0.18,0 0.37,0 0.55,0 0.19,0 0.37,0 0.55,0 0.19,0 0.37,0 0.56,0 0.18,0 0.36,0 0.55,0 0.18,0 0.37,0 0.55,0 0.18,0 0.37,0 0.55,0 0.19,0 0.37,0 0.55,0 0.19,0 0.37,0 0.56,0 0.18,0 0.36,0 0.55,0 0.18,0 0.37,0 0.55,0 0.18,0 0.37,0 0.55,0 0.19,0 0.37,0 0.55,0 0.19,0 0.37,0 0.56,0 0.18,0 0.36,0 0.55,0 0.18,0 0.37,0 0.55,0 0.18,0 0.37,0 0.55,0 0.19,0 0.37,0 0.55,0 0.19,0 0.37,0 0.56,0 0.18,0 0.36,0 0.55,0 0.18,0 0.37,0 0.55,0 0.18,0 0.37,0 0.55,0 0.19,0 0.37,0 0.55,0 0.19,0 0.37,0 0.56,0 0.18,0 0.36,0 0.55,0 0.18,0 0.37,0 0.55,0 0.18,0 0.37,0 0.55,0 0.19,0 0.37,0 0.55,0 0.19,0 0.37,0 0.56,0 0.18,0 0.36,0 0.55,0 0.18,0 0.36,0 0.55,0 0.18,0 0.37,0 0.55,0 0.18,0 0.37,0 0.55,0 0.19,0 0.37,0 0.55,0 0.19,0 0.37,0 0.56,0 0.18,0 0.36,0 0.55,0 0.18,0 0.37,0 0.55,0 0.18,0 0.37,0 0.55,0 0.19,0 0.37,0 0.55,0 0.19,0 0.37,0 0.56,0 0.18,0 0.36,0 0.55,0 0.18,0 0.37,0 0.55,0 0.18,0 0.37,0 0.55,0 0.19,0 0.37,0 0.55,0 0.19,0 0.37,0 0.56,0 0.18,0 0.36,0 0.55,0 0.18,0 0.37,0 0.55,0 0.18,0 0.37,0 0.55,0 0.19,0 0.37,0 0.55,0 0.19,0 0.37,0 0.56,0 0.18,0 0.36,0 0.55,0 0.18,0 0.37,0 0.55,0 0.18,0 0.37,0 0.55,0 0.19,0 0.37,0 0.55,0 0.19,0 0.37,0 0.56,0 0.18,0 0.36,0 0.55,0 0.18,0 0.37,0 0.55,0 0.18,0 0.37,0 0.55,0 0.19,0 0.37,0 0.55,0 0.19,0 0.37,0 0.56,0 0.18,0 0.36,0 0.55,0 0.18,0 0.36,0 0.55,0 0.18,0 0.37,0 0.55,0 0.18,0 0.37,0 0.55,0 0.19,0 0.37,0 0.55,0 0.19,0 0.37,0 0.56,0 0.18,0 0.36,0 0.55,0 0.18,0 0.37,0 0.55,0 0.18,0 0.37,0 0.55,0 0.19,0 0.37,0 0.55,0 0.19,0 0.37,0 0.56,0 0.18,0 0.36,0 0.55,0 0.18,0 0.37,0 0.55,0 0.18,0 0.37,0 0.55,0 0.19,0 0.37,0 0.55,0 0.19,0 0.37,0 0.56,0 0.18,0 0.36,0 0.55,0 0.18,0 0.37,0 0.55,0 0.18,0 0.37,0 0.55,0 0.19,0 0.37,0 0.55,0 0.19,0 0.37,0 0.56,0 0.18,0 0.36,0 0.55,0 0.18,0 0.37,0 0.55,0 0.18,0 0.37,0 0.55,0 0.19,0 0.37,0 0.55,0 0.19,0 0.37,0 0.56,0 0.18,0 0.36,0 0.55,0 0.18,0 0.37,0 0.55,0 0.18,0 0.37,0 0.55,0 0.19,0 0.37,0 0.55,0 0.19,0 0.37,0 0.56,0 0.18,0 0.36,0 0.55,0 0.18,0 0.37,0 0.55,0 0.18,0 0.37,0 0.55,0 0.19,0 0.37,0 0.55,0 0.19,0 0.37,0 0.55,0 0.19,0 0.37,0 0.56,0 0.18,0 0.36,0 0.55,0 0.18,0 0.37,0 0.55,0 0.18,0 0.37,0 0.55,0 0.19,0 0.37,0 0.55,0 0.19,0 0.37,0 0.56,0 0.18,0 0.36,0 0.55,0 0.18,0 0.37,0 0.55,0 0.18,0 0.37,0 0.55,0 0.19,0 0.37,0 0.55,0 0.19,0 0.37,0 0.56,0 0.18,0 0.36,0 0.55,0 0.18,0 0.37,0 0.55,0 0.18,0 0.37,0 0.55,0 0.19,0 0.37,0 0.55,0 0.19,0 0.37,0 0.56,0 0.18,0 0.36,0 0.55,0 0.18,0 0.37,0 0.55,0 0.18,0 0.37,0 0.55,0 0.19,0 0.37,0 0.55,0 0.19,0 0.37,0 0.56,0 0.18,0 0.36,0 0.55,0 0.18,0 0.37,0 0.55,0 0.18,0 0.37,0 0.55,0 0.19,0 0.37,0 0.55,0 0.19,0 0.37,0 0.56,0 0.18,0 0.36,0 0.55,0 0.18,0 0.37,0 0.55,0 0.18,0 0.37,0 0.55,0 0.19,0 0.37,0 0.55,0 0.19,0 0.37,0 0.56,0 0.18,0 0.36,0 0.55,0 0.18,0 0.36,0 0.55,0 0.18,0 0.37,0 0.55,0 0.18,0 0.37,0 0.55,0 0.19,0 0.37,0 0.55,0 0.19,0 0.37,0 0.56,0 0.18,0 0.36,0 0.55,0 0.18,0 0.37,0 0.55,0 0.18,0 0.37,0 0.55,0 0.19,0 0.37,0 0.55,0 0.19,0 0.37,0 0.56,0 0.18,0 0.36,0 0.55,0 0.18,0 0.37,0 0.55,0 0.18,0 0.37,0 0.55,0 0.19,0 0.37,0 0.55,0 0.19,0 0.37,0 0.56,0 0.18,0 0.36,0 0.55,0 0.18,0 0.37,0 0.55,0 0.18,0 0.37,0 0.55,0 0.19,0 0.37,0 0.55,0 0.19,0 0.37,0 0.56,0 0.18,0 0.36,0 0.55,0 0.18,0 0.37,0 0.55,0 0.18,0 0.37,0 0.55,0 0.19,0 0.37,0 0.55,0 0.19,0 0.37,0 0.56,0 0.18,0 0.36,0 0.55,0 0.18,0 0.37,0 0.55,0 0.18,0 0.37,0 0.55,0 0.19,0 0.37,0 0.55,0 0.19,0 0.37,0 0.56,0 0.18,0 0.36,0 0.55,0 0.18,0 0.36,0 0.55,0 0.18,0 0.37,0 0.55,0 0.18,0 0.37,0 0.55,0 0.19,0 0.37,0 0.55,0 0.19,0 0.37,0 0.56,0 0.18,0 0.36,0 0.55,0 0.18,0 0.37,0 0.55,0 0.18,0 0.37,0 0.55,0 0.19,0 0.37,0 0.55,0 0.19,0 0.37,0 0.56,0 0.18,0 0.36,0 0.55,0 0.18,0 0.37,0 0.55,0 0.18,0 0.37,0 0.55,0 0.19,0 0.37,0 0.55,0 0.19,0 0.37,0 0.56,0 0.18,0 0.36,0 0.55,0 0.18,0 0.37,0 0.55,0 0.18,0 0.37,0 0.55,0 0.19,0 0.37,0 0.55,0 0.19,0 0.37,0 0.56,0 0.18,0 0.36,0 0.55,0 0.18,0 0.37,0 0.55,0 0.18,0 0.37,0 0.55,0 0.19,0 0.37,0 0.55,0 0.19,0 0.37,0 0.56,0 0.18,0 0.36,0 0.55,0 0.18,0 0.37,0 0.55,0 0.18,0 0.37,0 0.55,0 0.19,0 0.37,0 0.55,0 0.19,0 0.37,0 0.56,0 0.18,0 0.36,0 0.55,0 0.18,0 0.37,0 0.55,0 0.18,0 0.37,0 0.55,0 0.18,0 0.37,0 0.55,0 0.19,0 0.37,0 0.55,0 0.19,0 0.37,0 0.56,0 0.18,0 0.36,0 0.55,0 0.18,0 0.37,0 0.55,0 0.18,0 0.37,0 0.55,0 0.19,0 0.37,0 0.55,0 0.19,0 0.37,0 0.56,0 0.18,0 0.36,0 0.55,0 0.18,0 0.37,0 0.55,0 0.18,0 0.37,0 0.55,0 0.19,0 0.37,0 0.55,0 0.19,0 0.37,0 0.56,0 0.18,0 0.36,0 0.55,0 0.18,0 0.37,0 0.55,0 0.18,0 0.37,0 0.55,0 0.19,0 0.37,0 0.55,0 0.19,0 0.37,0 0.56,0 0.18,0 0.36,0 0.55,0 0.18,0 0.37,0 0.55,0 0.18,0 0.37,0 0.55,0 0.19,0 0.37,0 0.55,0 0.19,0 0.37,0 0.56,0 0.18,0 0.36,0 0.55,0 0.18,0 0.37,0 0.55,0 0.18,0 0.37,0 0.55,0 0.19,0 0.37,0 0.55,0 0.19,0 0.37,0 0.56,0 0.18,0 0.36,0 0.55,0 0.18,0 0.37,0 0.55,0 0.18,0 0.37,0 0.55,0 0.18,0 0.37,0 0.55,0 0.19,0 0.37,0 0.55,0 0.19,0 0.37,0 0.56,0 0.18,0 0.36,0 0.55,0 0.18,0 0.37,0 0.55,0 0.18,0 0.37,0 0.55,0 0.19,0 0.37,0 0.55,0 0.19,0 0.37,0 0.56,0 0.18,0 0.36,0 0.55,0 0.18,0 0.37,0 0.55,0 0.18,0 0.37,0 0.55,0 0.19,0 0.37,0 0.55,0 0.19,0 0.37,0 0.56,0 0.18,0 0.36,0 0.55,0 0.18,0 0.37,0 0.55,0 0.18,0 0.37,0 0.55,0 0.19,0 0.37,0 0.55,0 0.19,0 0.37,0 0.56,0 0.18,0 0.36,0 0.55,0 0.18,0 0.37,0 0.55,0 0.18,0 0.37,0 0.55,0 0.19,0 0.37,0 0.55,0 0.19,0 0.37,0 0.56,0 0.18,0 0.36,0 0.55,0 0.18,0 0.37,0 0.55,0 0.18,0 0.37,0 0.55,0 0.19,0 0.37,0 0.55,0 0.19,0 0.37,0 0.56,0 0.18,0 0.36,0 0.55,0 0.18,0 0.37,0 0.55,0 0.18,0 0.37,0 0.55,0 0.19,0 0.37,0 0.55,0 0.19,0 0.37,0 0.55,0 0.19,0 0.37,0 0.56,0 0.18,0 0.36,0 0.55,0 0.18,0 0.37,0 0.55,0 0.18,0 0.37,0 0.55,0 0.19,0 0.37,0 0.55,0 0.19,0 0.37,0 0.56,0 0.18,0 0.36,0 0.55,0 0.18,0 0.37,0 0.55,0 0.18,0 0.37,0 0.55,0 0.19,0 0.37,0 0.55,0 0.19,0 0.37,0 0.56,0 0.18,0 0.36,0 0.55,0 0.18,0 0.37,0 0.55,0 0.18,0 0.37,0 0.55,0 0.19,0 0.37,0 0.55,0 0.19,0 0.37,0 0.56,0 0.18,0 0.36,0 0.55,0 0.18,0 0.37,0 0.55,0 0.18,0 0.37,0 0.55,0 0.19,0 0.37,0 0.55,0 0.19,0 0.37,0 0.56,0 0.18,0 0.36,0 0.55,0 0.18,0 0.37,0 0.55,0 0.18,0 0.37,0 0.55,0 0.19,0 0.37,0 0.55,0 0.19,0 0.37,0 0.56,0 0.18,0 0.36,0 0.55,0 0.18,0 0.37,0 0.55,0 0.18,0 0.37,0 0.55,0 0.19,0 0.37,0 0.55,0 0.19,0 0.37,0 0.56,0 0.18,0 0.36,0 0.55,0 0.18,0 0.36,0 0.55,0 0.18,0 0.37,0 0.55,0 0.18,0 0.37,0 0.55,0 0.19,0 0.37,0 0.55,0 0.19,0 0.37,0 0.56,0 0.18,0 0.36,0 0.55,0 0.18,0 0.37,0 0.55,0 0.18,0 0.37,0 0.55,0 0.19,0 0.37,0 0.55,0 0.19,0 0.37,0 0.56,0 0.18,0 0.36,0 0.55,0 0.18,0 0.37,0 0.55,0 0.18,0 0.37,0 0.55,0 0.19,0 0.37,0 0.55,0 0.19,0 0.37,0 0.56,0 0.18,0 0.36,0 0.55,0 0.18,0 0.37,0 0.55,0 0.18,0 0.37,0 0.55,0 0.19,0 0.37,0 0.55,0 0.19,0 0.37,0 0.56,0 0.18,0 0.36,0 0.55,0 0.18,0 0.37,0 0.55,0 0.18,0 0.37,0 0.55,0 0.19,0 0.37,0 0.55,0 0.19,0 0.37,0 0.56,0"
           style="fill:none;stroke:#000000;stroke-width:1.91999996;stroke-linecap:round;stroke-linejoin:round;stroke-miterlimit:10;stroke-opacity:1;stroke-dasharray:none"
           id="path514"
           inkscape:connector-curvature="0" /></g></g><g
       id="g516"><g
         id="g518"
         clip-path="url(#clipPath520)"><path
           d="m 333.24,568.85 c 0.18,0.13 0.37,0.25 0.55,0.4 0.19,0.15 0.37,0.32 0.55,0.5 0.19,0.19 0.37,0.4 0.56,0.61 0.18,0.21 0.36,0.44 0.55,0.67 0.18,0.23 0.37,0.47 0.55,0.71 0.18,0.24 0.37,0.5 0.55,0.74 0.19,0.25 0.37,0.49 0.55,0.75 0.19,0.25 0.37,0.5 0.56,0.76 0.18,0.27 0.36,0.55 0.55,0.83 0.18,0.27 0.37,0.55 0.55,0.84 0.18,0.3 0.37,0.6 0.55,0.9 0.19,0.31 0.37,0.61 0.55,0.91 0.19,0.3 0.37,0.6 0.55,0.9 0.19,0.3 0.37,0.6 0.56,0.9 0.18,0.3 0.36,0.59 0.55,0.9 0.18,0.31 0.37,0.63 0.55,0.95 0.18,0.33 0.37,0.64 0.55,0.98 0.19,0.35 0.37,0.73 0.55,1.09 0.19,0.36 0.37,0.71 0.56,1.06 0.18,0.35 0.36,0.71 0.55,1.06 0.18,0.35 0.37,0.71 0.55,1.06 0.18,0.35 0.37,0.71 0.55,1.06 0.19,0.36 0.37,0.66 0.55,1.06 0.19,0.4 0.37,0.93 0.56,1.33 0.18,0.39 0.36,0.66 0.55,1.06 0.18,0.39 0.37,0.88 0.55,1.32 0.18,0.44 0.37,0.89 0.55,1.33 0.19,0.44 0.37,0.88 0.55,1.32 0.19,0.44 0.37,0.89 0.56,1.33 0.18,0.44 0.36,0.88 0.55,1.32 0.18,0.45 0.37,0.84 0.55,1.33 0.18,0.48 0.37,1.1 0.55,1.59 0.19,0.48 0.37,0.84 0.55,1.32 0.19,0.49 0.37,1.11 0.56,1.59 0.18,0.49 0.36,0.84 0.55,1.33 0.18,0.49 0.37,1.1 0.55,1.59 0.18,0.49 0.37,0.84 0.55,1.32 0.19,0.49 0.37,1.07 0.55,1.6 0.19,0.53 0.37,1.06 0.56,1.59 0.18,0.53 0.36,1.1 0.55,1.59 0.18,0.48 0.37,0.84 0.55,1.32 0.18,0.49 0.37,1.11 0.55,1.59 0.19,0.49 0.37,0.84 0.55,1.33 0.19,0.48 0.37,1.1 0.55,1.59 0.19,0.48 0.37,0.88 0.56,1.32 0.18,0.44 0.36,0.84 0.55,1.33 0.18,0.48 0.37,1.1 0.55,1.59 0.18,0.48 0.37,0.92 0.55,1.32 0.19,0.4 0.37,0.67 0.55,1.06 0.19,0.4 0.37,0.89 0.56,1.33 0.18,0.44 0.36,0.88 0.55,1.32 0.18,0.44 0.37,0.93 0.55,1.33 0.18,0.4 0.37,0.66 0.55,1.06 0.19,0.4 0.37,0.93 0.55,1.32 0.19,0.4 0.37,0.71 0.56,1.06 0.18,0.36 0.36,0.71 0.55,1.06 0.18,0.36 0.37,0.71 0.55,1.06 0.18,0.36 0.37,0.71 0.55,1.06 0.19,0.36 0.37,0.71 0.55,1.06 0.19,0.36 0.37,0.71 0.56,1.06 0.18,0.36 0.36,0.76 0.55,1.06 0.18,0.31 0.37,0.49 0.55,0.8 0.18,0.31 0.37,0.71 0.55,1.06 0.19,0.35 0.37,0.75 0.55,1.06 0.19,0.31 0.37,0.49 0.56,0.8 0.18,0.3 0.36,0.75 0.55,1.06 0.18,0.31 0.37,0.53 0.55,0.79 0.18,0.27 0.37,0.53 0.55,0.8 0.19,0.26 0.37,0.57 0.55,0.79 0.19,0.22 0.37,0.31 0.56,0.53 0.18,0.22 0.36,0.53 0.55,0.8 0.18,0.26 0.37,0.57 0.55,0.79 0.18,0.22 0.37,0.35 0.55,0.53 0.19,0.18 0.37,0.36 0.55,0.53 0.19,0.18 0.37,0.36 0.56,0.53 0.18,0.18 0.36,0.4 0.55,0.53 0.18,0.13 0.36,0.13 0.55,0.27 0.18,0.13 0.37,0.39 0.55,0.53 0.18,0.13 0.37,0.17 0.55,0.26 0.19,0.09 0.37,0.18 0.55,0.27 0.19,0.09 0.37,0.22 0.56,0.26 0.18,0.05 0.36,-0.04 0.55,0 0.18,0.05 0.37,0.22 0.55,0.27 0.18,0.04 0.37,0 0.55,0 0.19,0 0.37,0 0.55,0 0.19,0 0.37,0.04 0.56,0 0.18,-0.05 0.36,-0.22 0.55,-0.27 0.18,-0.04 0.37,0.05 0.55,0 0.18,-0.04 0.37,-0.17 0.55,-0.26 0.19,-0.09 0.37,-0.14 0.55,-0.27 0.19,-0.13 0.37,-0.4 0.56,-0.53 0.18,-0.13 0.36,-0.17 0.55,-0.26 0.18,-0.09 0.37,-0.14 0.55,-0.27 0.18,-0.13 0.37,-0.35 0.55,-0.53 0.19,-0.17 0.37,-0.35 0.55,-0.53 0.19,-0.17 0.37,-0.35 0.56,-0.53 0.18,-0.18 0.36,-0.31 0.55,-0.53 0.18,-0.22 0.37,-0.53 0.55,-0.79 0.18,-0.27 0.37,-0.58 0.55,-0.8 0.19,-0.22 0.37,-0.31 0.55,-0.53 0.19,-0.22 0.37,-0.53 0.56,-0.79 0.18,-0.27 0.36,-0.49 0.55,-0.8 0.18,-0.31 0.37,-0.75 0.55,-1.06 0.18,-0.31 0.37,-0.49 0.55,-0.79 0.19,-0.31 0.37,-0.71 0.55,-1.06 0.19,-0.36 0.37,-0.76 0.56,-1.06 0.18,-0.31 0.36,-0.49 0.55,-0.8 0.18,-0.31 0.36,-0.66 0.55,-1.06 0.18,-0.4 0.37,-0.93 0.55,-1.33 0.18,-0.39 0.37,-0.7 0.55,-1.06 0.19,-0.35 0.37,-0.66 0.55,-1.06 0.19,-0.39 0.37,-0.92 0.56,-1.32 0.18,-0.4 0.36,-0.66 0.55,-1.06 0.18,-0.4 0.37,-0.88 0.55,-1.33 0.18,-0.44 0.37,-0.92 0.55,-1.32 0.19,-0.4 0.37,-0.66 0.55,-1.06 0.19,-0.4 0.37,-0.89 0.56,-1.33 0.18,-0.44 0.36,-0.88 0.55,-1.32 0.18,-0.44 0.37,-0.93 0.55,-1.33 0.18,-0.39 0.37,-0.66 0.55,-1.06 0.19,-0.4 0.37,-0.88 0.55,-1.32 0.19,-0.44 0.37,-0.89 0.56,-1.33 0.18,-0.44 0.36,-0.88 0.55,-1.32 0.18,-0.44 0.37,-0.93 0.55,-1.33 0.18,-0.4 0.37,-0.66 0.55,-1.06 0.19,-0.4 0.37,-0.88 0.55,-1.32 0.19,-0.45 0.37,-0.93 0.56,-1.33 0.18,-0.4 0.36,-0.66 0.55,-1.06 0.18,-0.4 0.37,-0.88 0.55,-1.32 0.18,-0.45 0.37,-0.93 0.55,-1.33 0.19,-0.4 0.37,-0.66 0.55,-1.06 0.19,-0.4 0.37,-0.93 0.56,-1.32 0.18,-0.4 0.36,-0.71 0.55,-1.07 0.18,-0.35 0.37,-0.66 0.55,-1.06 0.18,-0.39 0.37,-0.92 0.55,-1.32 0.19,-0.4 0.37,-0.71 0.55,-1.06 0.19,-0.35 0.37,-0.66 0.56,-1.06 0.18,-0.4 0.36,-0.93 0.55,-1.33 0.18,-0.39 0.37,-0.7 0.55,-1.06 0.18,-0.35 0.37,-0.75 0.55,-1.06 0.19,-0.31 0.37,-0.48 0.55,-0.79 0.19,-0.31 0.37,-0.71 0.55,-1.06 0.19,-0.36 0.37,-0.71 0.56,-1.06 0.18,-0.36 0.36,-0.71 0.55,-1.06 0.18,-0.36 0.37,-0.71 0.55,-1.06 0.18,-0.36 0.37,-0.75 0.55,-1.06 0.19,-0.31 0.37,-0.49 0.55,-0.8 0.19,-0.31 0.37,-0.75 0.56,-1.06 0.18,-0.31 0.36,-0.48 0.55,-0.79 0.18,-0.31 0.37,-0.75 0.55,-1.06 0.18,-0.31 0.37,-0.53 0.55,-0.8 0.19,-0.26 0.37,-0.48 0.55,-0.79 0.19,-0.31 0.37,-0.75 0.56,-1.06 0.18,-0.31 0.36,-0.58 0.55,-0.8 0.18,-0.22 0.37,-0.26 0.55,-0.53 0.18,-0.26 0.37,-0.75 0.55,-1.06 0.19,-0.31 0.37,-0.53 0.55,-0.79 0.19,-0.27 0.37,-0.58 0.56,-0.8 0.18,-0.22 0.36,-0.31 0.55,-0.53 0.18,-0.22 0.37,-0.52 0.55,-0.77 0.18,-0.24 0.37,-0.46 0.55,-0.69 0.19,-0.23 0.37,-0.45 0.55,-0.69 0.19,-0.23 0.37,-0.47 0.56,-0.71 0.18,-0.24 0.36,-0.48 0.55,-0.72 0.18,-0.23 0.37,-0.46 0.55,-0.69 0.18,-0.22 0.37,-0.45 0.55,-0.66 0.19,-0.21 0.37,-0.4 0.55,-0.61 0.19,-0.21 0.37,-0.42 0.56,-0.63 0.18,-0.22 0.36,-0.45 0.55,-0.67 0.18,-0.22 0.37,-0.43 0.55,-0.66 0.18,-0.23 0.37,-0.46 0.55,-0.69 0.19,-0.22 0.37,-0.45 0.55,-0.66 0.19,-0.21 0.37,-0.4 0.56,-0.61 0.18,-0.21 0.36,-0.43 0.55,-0.64 0.18,-0.2 0.36,-0.39 0.55,-0.61 0.18,-0.21 0.37,-0.43 0.55,-0.66 0.18,-0.22 0.37,-0.46 0.55,-0.69 0.19,-0.23 0.37,-0.46 0.55,-0.69 0.19,-0.22 0.37,-0.44 0.56,-0.66 0.18,-0.22 0.36,-0.45 0.55,-0.66 0.18,-0.22 0.37,-0.42 0.55,-0.64 0.18,-0.22 0.37,-0.44 0.55,-0.66 0.19,-0.23 0.37,-0.46 0.55,-0.69 0.19,-0.23 0.37,-0.46 0.56,-0.69 0.18,-0.23 0.36,-0.48 0.55,-0.72 0.18,-0.23 0.37,-0.45 0.55,-0.68 0.18,-0.23 0.37,-0.47 0.55,-0.69 0.19,-0.23 0.37,-0.45 0.55,-0.67 0.19,-0.22 0.37,-0.43 0.56,-0.66 0.18,-0.22 0.36,-0.46 0.55,-0.69 0.18,-0.23 0.37,-0.46 0.55,-0.69 0.18,-0.23 0.37,-0.46 0.55,-0.69 0.19,-0.22 0.37,-0.45 0.55,-0.66 0.19,-0.21 0.37,-0.41 0.56,-0.61 0.18,-0.2 0.36,-0.4 0.55,-0.61 0.18,-0.2 0.37,-0.4 0.55,-0.61 0.18,-0.2 0.37,-0.41 0.55,-0.62 0.19,-0.2 0.37,-0.41 0.55,-0.62 0.19,-0.2 0.37,-0.4 0.56,-0.6 0.18,-0.19 0.36,-0.38 0.55,-0.57 0.18,-0.18 0.37,-0.36 0.55,-0.54 0.18,-0.18 0.37,-0.35 0.55,-0.53 0.19,-0.18 0.37,-0.35 0.55,-0.53 0.19,-0.18 0.37,-0.37 0.56,-0.55 0.18,-0.19 0.36,-0.38 0.55,-0.55 0.18,-0.18 0.36,-0.34 0.55,-0.51 0.18,-0.16 0.37,-0.32 0.55,-0.47 0.18,-0.15 0.37,-0.28 0.55,-0.43 0.19,-0.14 0.37,-0.3 0.55,-0.45 0.19,-0.15 0.37,-0.3 0.56,-0.45 0.18,-0.15 0.36,-0.3 0.55,-0.45 0.18,-0.15 0.37,-0.31 0.55,-0.45 0.18,-0.14 0.37,-0.27 0.55,-0.4 0.19,-0.12 0.37,-0.23 0.55,-0.34 0.19,-0.12 0.37,-0.24 0.56,-0.35 0.18,-0.11 0.36,-0.21 0.55,-0.31 0.18,-0.11 0.37,-0.22 0.55,-0.32 0.18,-0.11 0.37,-0.22 0.55,-0.32 0.19,-0.1 0.37,-0.2 0.55,-0.29 0.19,-0.1 0.37,-0.19 0.56,-0.27 0.18,-0.08 0.36,-0.14 0.55,-0.21 0.18,-0.07 0.37,-0.12 0.55,-0.19 0.18,-0.06 0.37,-0.11 0.55,-0.18 0.19,-0.07 0.37,-0.15 0.55,-0.21 0.19,-0.07 0.37,-0.13 0.56,-0.19 0.18,-0.06 0.36,-0.1 0.55,-0.16 0.18,-0.05 0.37,-0.11 0.55,-0.16 0.18,-0.04 0.37,-0.07 0.55,-0.1 0.19,-0.04 0.37,-0.07 0.55,-0.11 0.19,-0.04 0.37,-0.08 0.56,-0.13 0.18,-0.05 0.36,-0.1 0.55,-0.16 0.18,-0.06 0.37,-0.13 0.55,-0.19 0.18,-0.05 0.37,-0.08 0.55,-0.13 0.19,-0.04 0.37,-0.09 0.55,-0.13 0.19,-0.04 0.37,-0.07 0.56,-0.11 0.18,-0.04 0.36,-0.08 0.55,-0.13 0.18,-0.04 0.37,-0.08 0.55,-0.13 0.18,-0.05 0.37,-0.11 0.55,-0.16 0.18,-0.05 0.37,-0.12 0.55,-0.16 0.19,-0.04 0.37,-0.07 0.55,-0.11 0.19,-0.03 0.37,-0.07 0.56,-0.1 0.18,-0.03 0.36,-0.05 0.55,-0.08 0.18,-0.03 0.37,-0.06 0.55,-0.08 0.18,-0.02 0.37,-0.03 0.55,-0.05 0.19,-0.03 0.37,-0.07 0.55,-0.08 0.19,-0.02 0.37,-0.03 0.56,-0.03 0.18,0 0.36,0 0.55,0 0.18,0 0.37,0.01 0.55,0.03 0.18,0.01 0.37,0.03 0.55,0.05 0.19,0.02 0.37,0.06 0.55,0.08 0.19,0.02 0.37,0.03 0.56,0.05 0.18,0.02 0.36,0.04 0.55,0.06 0.18,0.01 0.37,0 0.55,0.02 0.18,0.02 0.37,0.05 0.55,0.08 0.19,0.03 0.37,0.05 0.55,0.08 0.19,0.03 0.37,0.08 0.56,0.11 0.18,0.03 0.36,0.05 0.55,0.08 0.18,0.02 0.37,0.04 0.55,0.05 0.18,0.01 0.37,0.01 0.55,0.03 0.19,0.01 0.37,0.03 0.55,0.05 0.19,0.02 0.37,0.05 0.56,0.08 0.18,0.03 0.36,0.07 0.55,0.1 0.18,0.04 0.37,0.06 0.55,0.08 0.18,0.03 0.37,0.06 0.55,0.08 0.19,0.03 0.37,0.04 0.55,0.06 0.19,0.01 0.37,0.03 0.56,0.05 0.18,0.02 0.36,0.03 0.55,0.05 0.18,0.02 0.37,0.05 0.55,0.08 0.18,0.03 0.37,0.07 0.55,0.11 0.18,0.03 0.37,0.07 0.55,0.1 0.19,0.04 0.37,0.08 0.55,0.11 0.19,0.03 0.37,0.03 0.56,0.05 0.18,0.03 0.36,0.06 0.55,0.08 0.18,0.03 0.37,0.05 0.55,0.08 0.18,0.03 0.37,0.06 0.55,0.11 0.19,0.04 0.37,0.11 0.55,0.16 0.19,0.05 0.37,0.08 0.56,0.13 0.18,0.05 0.36,0.11 0.55,0.16 0.18,0.04 0.37,0.07 0.55,0.1 0.18,0.04 0.37,0.09 0.55,0.14 0.19,0.05 0.37,0.1 0.55,0.16 0.19,0.05 0.37,0.11 0.56,0.18 0.18,0.07 0.36,0.17 0.55,0.24 0.18,0.08 0.37,0.14 0.55,0.21 0.18,0.07 0.37,0.15 0.55,0.21 0.19,0.07 0.37,0.13 0.55,0.19 0.19,0.06 0.37,0.1 0.56,0.16 0.18,0.06 0.36,0.14 0.55,0.21 0.18,0.08 0.37,0.16 0.55,0.24 0.18,0.08 0.37,0.19 0.55,0.26 0.19,0.08 0.37,0.14 0.55,0.22 0.19,0.07 0.37,0.16 0.56,0.24 0.18,0.07 0.36,0.11 0.55,0.18 0.18,0.07 0.37,0.14 0.55,0.21 0.18,0.07 0.37,0.14 0.55,0.21 0.19,0.08 0.37,0.19 0.55,0.27 0.19,0.08 0.37,0.16 0.56,0.24 0.18,0.08 0.36,0.17 0.55,0.24 0.18,0.07 0.37,0.12 0.55,0.18 0.18,0.07 0.37,0.15 0.55,0.21 0.19,0.07 0.37,0.12 0.55,0.19 0.19,0.07 0.37,0.14 0.55,0.21 0.19,0.08 0.37,0.16 0.56,0.24 0.18,0.08 0.36,0.16 0.55,0.24 0.18,0.07 0.37,0.14 0.55,0.21 0.18,0.07 0.37,0.15 0.55,0.21 0.19,0.07 0.37,0.13 0.55,0.19 0.19,0.06 0.37,0.11 0.56,0.18 0.18,0.07 0.36,0.17 0.55,0.24 0.18,0.08 0.37,0.14 0.55,0.21 0.18,0.08 0.37,0.15 0.55,0.22 0.19,0.06 0.37,0.12 0.55,0.17 0.19,0.05 0.37,0.1 0.56,0.15 0.18,0.04 0.36,0.09 0.55,0.13 0.18,0.05 0.37,0.09 0.55,0.14 0.18,0.04 0.37,0.09 0.55,0.13 0.19,0.04 0.37,0.09 0.55,0.13 0.19,0.04 0.37,0.08 0.56,0.11 0.18,0.04 0.36,0.07 0.55,0.09 0.18,0.03 0.37,0.05 0.55,0.07 0.18,0.02 0.37,0.04 0.55,0.06 0.19,0.03 0.37,0.05 0.55,0.08 0.19,0.03 0.37,0.06 0.56,0.09 0.18,0.03 0.36,0.07 0.55,0.1 0.18,0.03 0.37,0.05 0.55,0.07 0.18,0.03 0.37,0.05 0.55,0.07 0.19,0.02 0.37,0.03 0.55,0.06 0.19,0.02 0.37,0.05 0.56,0.08 0.18,0.03 0.36,0.07 0.55,0.12 0.18,0.04 0.37,0.1 0.55,0.15 0.18,0.05 0.37,0.11 0.55,0.16 0.19,0.05 0.37,0.11 0.55,0.16 0.19,0.05 0.37,0.1 0.56,0.15 0.18,0.05 0.36,0.11 0.55,0.16 0.18,0.06 0.36,0.12 0.55,0.19 0.18,0.07 0.37,0.14 0.55,0.22 0.18,0.09 0.37,0.17 0.55,0.26 0.19,0.09 0.37,0.18 0.55,0.27 0.19,0.09 0.37,0.18 0.56,0.27 0.18,0.09 0.36,0.18 0.55,0.27 0.18,0.09 0.37,0.18 0.55,0.28 0.18,0.1 0.37,0.21 0.55,0.32 0.19,0.11 0.37,0.23 0.55,0.35 0.19,0.13 0.37,0.26 0.56,0.39 0.18,0.13 0.36,0.27 0.55,0.4 0.18,0.14 0.37,0.27 0.55,0.4 0.18,0.14 0.37,0.28 0.55,0.43 0.19,0.14 0.37,0.29 0.55,0.45 0.19,0.15 0.37,0.31 0.56,0.47 0.18,0.17 0.36,0.35 0.55,0.53 0.18,0.18 0.37,0.37 0.55,0.56 0.18,0.19 0.37,0.39 0.55,0.58 0.19,0.19 0.37,0.37 0.55,0.56 0.19,0.19 0.37,0.36 0.56,0.56 0.18,0.19 0.36,0.4 0.55,0.61 0.18,0.2 0.37,0.41 0.55,0.63 0.18,0.22 0.37,0.46 0.55,0.69 0.19,0.23 0.37,0.46 0.55,0.69 0.19,0.23 0.37,0.48 0.56,0.72"
           style="fill:none;stroke:#be6c6e;stroke-width:1.67999995;stroke-linecap:round;stroke-linejoin:round;stroke-miterlimit:10;stroke-opacity:1;stroke-dasharray:none"
           id="path524"
           inkscape:connector-curvature="0" /></g></g><g
       id="g538"><g
         id="g540"
         clip-path="url(#clipPath542)"><text
           transform="matrix(1,0,0,-1,312.14,526.92)"
           id="text546"><tspan
             style="font-size:7.65600014px;font-variant:normal;font-weight:normal;writing-mode:lr-tb;fill:#000000;fill-opacity:1;fill-rule:nonzero;stroke:none;font-family:Calibri;-inkscape-font-specification:Calibri"
             x="0 2.3886721 6.2702641 10.113576"
             y="0"
             sodipodi:role="line"
             id="tspan548">-100</tspan></text>
</g></g><g
       id="g550"><g
         id="g552"
         clip-path="url(#clipPath554)"><text
           transform="matrix(1,0,0,-1,316.03,540.17)"
           id="text558"><tspan
             style="font-size:7.67999983px;font-variant:normal;font-weight:normal;writing-mode:lr-tb;fill:#000000;fill-opacity:1;fill-rule:nonzero;stroke:none;font-family:Calibri;-inkscape-font-specification:Calibri"
             x="0 2.3961599 6.2899199"
             y="0"
             sodipodi:role="line"
             id="tspan560">-50</tspan></text>
</g></g><g
       id="g562"><g
         id="g564"
         clip-path="url(#clipPath566)"><text
           transform="matrix(1,0,0,-1,322.3,553.44)"
           id="text570"><tspan
             style="font-size:7.67999983px;font-variant:normal;font-weight:normal;writing-mode:lr-tb;fill:#000000;fill-opacity:1;fill-rule:nonzero;stroke:none;font-family:Calibri;-inkscape-font-specification:Calibri"
             x="0"
             y="0"
             id="tspan572">0</tspan></text>
</g></g><g
       id="g574"><g
         id="g576"
         clip-path="url(#clipPath578)"><text
           transform="matrix(1,0,0,-1,318.41,566.69)"
           id="text582"><tspan
             style="font-size:7.67999983px;font-variant:normal;font-weight:normal;writing-mode:lr-tb;fill:#000000;fill-opacity:1;fill-rule:nonzero;stroke:none;font-family:Calibri;-inkscape-font-specification:Calibri"
             x="0 3.86396"
             y="0"
             sodipodi:role="line"
             id="tspan584">50</tspan></text>
</g></g><g
       id="g586"><g
         id="g588"
         clip-path="url(#clipPath590)"><text
           transform="matrix(1,0,0,-1,314.5,579.94)"
           id="text594"><tspan
             style="font-size:7.65600014px;font-variant:normal;font-weight:normal;writing-mode:lr-tb;fill:#000000;fill-opacity:1;fill-rule:nonzero;stroke:none;font-family:Calibri;-inkscape-font-specification:Calibri"
             x="0 3.881592 7.8397441"
             y="0"
             sodipodi:role="line"
             id="tspan596">100</tspan></text>
</g></g><g
       id="g598"><g
         id="g600"
         clip-path="url(#clipPath602)"><text
           transform="matrix(1,0,0,-1,314.5,593.18)"
           id="text606"><tspan
             style="font-size:7.67999983px;font-variant:normal;font-weight:normal;writing-mode:lr-tb;fill:#000000;fill-opacity:1;fill-rule:nonzero;stroke:none;font-family:Calibri;-inkscape-font-specification:Calibri"
             x="0 3.89376 7.84128"
             y="0"
             sodipodi:role="line"
             id="tspan608">150</tspan></text>
</g></g><g
       id="g610"><g
         id="g612"
         clip-path="url(#clipPath614)"><text
           transform="matrix(1,0,0,-1,314.5,606.46)"
           id="text618"><tspan
             style="font-size:7.67999983px;font-variant:normal;font-weight:normal;writing-mode:lr-tb;fill:#000000;fill-opacity:1;fill-rule:nonzero;stroke:none;font-family:Calibri;-inkscape-font-specification:Calibri"
             x="0 3.89376 7.84128"
             y="0"
             sodipodi:role="line"
             id="tspan620">200</tspan></text>
</g></g><g
       id="g622"><g
         id="g624"
         clip-path="url(#clipPath626)"><text
           transform="matrix(1,0,0,-1,314.5,619.7)"
           id="text630"><tspan
             style="font-size:7.67999983px;font-variant:normal;font-weight:normal;writing-mode:lr-tb;fill:#000000;fill-opacity:1;fill-rule:nonzero;stroke:none;font-family:Calibri;-inkscape-font-specification:Calibri"
             x="0 3.89376 7.84128"
             y="0"
             sodipodi:role="line"
             id="tspan632">250</tspan></text>
</g></g><g
       id="g634"><g
         id="g636"
         clip-path="url(#clipPath638)"><text
           transform="matrix(1,0,0,-1,314.5,632.95)"
           id="text642"><tspan
             style="font-size:7.65600014px;font-variant:normal;font-weight:normal;writing-mode:lr-tb;fill:#000000;fill-opacity:1;fill-rule:nonzero;stroke:none;font-family:Calibri;-inkscape-font-specification:Calibri"
             x="0 3.881592 7.8397441"
             y="0"
             sodipodi:role="line"
             id="tspan644">300</tspan></text>
</g></g><g
       id="g646"><g
         id="g648"
         clip-path="url(#clipPath650)"><text
           transform="matrix(1,0,0,-1,314.5,646.2)"
           id="text654"><tspan
             style="font-size:7.67999983px;font-variant:normal;font-weight:normal;writing-mode:lr-tb;fill:#000000;fill-opacity:1;fill-rule:nonzero;stroke:none;font-family:Calibri;-inkscape-font-specification:Calibri"
             x="0 3.89376 7.84128"
             y="0"
             sodipodi:role="line"
             id="tspan656">350</tspan></text>
</g></g><g
       id="g658"><g
         id="g660"
         clip-path="url(#clipPath662)"><text
           transform="matrix(1,0,0,-1,314.5,659.47)"
           id="text666"><tspan
             style="font-size:7.67999983px;font-variant:normal;font-weight:normal;writing-mode:lr-tb;fill:#000000;fill-opacity:1;fill-rule:nonzero;stroke:none;font-family:Calibri;-inkscape-font-specification:Calibri"
             x="0 3.89376 7.84128"
             y="0"
             sodipodi:role="line"
             id="tspan668">400</tspan></text>
</g></g><g
       id="g670"><g
         id="g672"
         clip-path="url(#clipPath674)"><text
           transform="matrix(1,0,0,-1,331.39,543.41)"
           id="text678"><tspan
             style="font-size:7.67999983px;font-variant:normal;font-weight:normal;writing-mode:lr-tb;fill:#000000;fill-opacity:1;fill-rule:nonzero;stroke:none;font-family:Calibri;-inkscape-font-specification:Calibri"
             x="0"
             y="0"
             id="tspan680">0</tspan></text>
</g></g><g
       id="g682"><g
         id="g684"
         clip-path="url(#clipPath686)"><text
           transform="matrix(1,0,0,-1,379.13,543.41)"
           id="text690"><tspan
             style="font-size:7.67999983px;font-variant:normal;font-weight:normal;writing-mode:lr-tb;fill:#000000;fill-opacity:1;fill-rule:nonzero;stroke:none;font-family:Calibri;-inkscape-font-specification:Calibri"
             x="0 3.888"
             y="0"
             sodipodi:role="line"
             id="tspan692">90</tspan></text>
</g></g><g
       id="g694"><g
         id="g696"
         clip-path="url(#clipPath698)"><text
           transform="matrix(1,0,0,-1,426.86,543.41)"
           id="text702"><tspan
             style="font-size:7.67999983px;font-variant:normal;font-weight:normal;writing-mode:lr-tb;fill:#000000;fill-opacity:1;fill-rule:nonzero;stroke:none;font-family:Calibri;-inkscape-font-specification:Calibri"
             x="0 3.89376 7.8643198"
             y="0"
             sodipodi:role="line"
             id="tspan704">180</tspan></text>
</g></g><g
       id="g706"><g
         id="g708"
         clip-path="url(#clipPath710)"><text
           transform="matrix(1,0,0,-1,476.54,543.41)"
           id="text714"><tspan
             style="font-size:7.67999983px;font-variant:normal;font-weight:normal;writing-mode:lr-tb;fill:#000000;fill-opacity:1;fill-rule:nonzero;stroke:none;font-family:Calibri;-inkscape-font-specification:Calibri"
             x="0 3.89376 7.8643198"
             y="0"
             sodipodi:role="line"
             id="tspan716">270</tspan></text>
</g></g><g
       id="g718"><g
         id="g720"
         clip-path="url(#clipPath722)"><text
           transform="matrix(1,0,0,-1,526.25,543.41)"
           id="text726"><tspan
             style="font-size:7.67999983px;font-variant:normal;font-weight:normal;writing-mode:lr-tb;fill:#000000;fill-opacity:1;fill-rule:nonzero;stroke:none;font-family:Calibri;-inkscape-font-specification:Calibri"
             x="0 3.86304 7.8182402"
             y="0"
             sodipodi:role="line"
             id="tspan728">360</tspan></text>
</g></g><g
       id="g742"><g
         id="g744"
         clip-path="url(#clipPath746)" /></g><g
       id="g786"><g
         id="g788"
         clip-path="url(#clipPath790)" /></g><g
       id="g796"
       transform="translate(26.075878,138.40274)"><g
         id="g798"
         clip-path="url(#clipPath800)"><text
           transform="matrix(1,0,0,-1,401.4,487.78)"
           id="text804"
           style="fill:#cccccc"><tspan
             style="font-size:7.19999981px;font-variant:normal;font-weight:normal;writing-mode:lr-tb;fill:#000000;fill-opacity:1;fill-rule:nonzero;stroke:none;font-family:Sans;-inkscape-font-specification:Sans"
             x="0"
             sodipodi:role="line"
             id="tspan806"
             y="0">Radial force</tspan></text>
</g></g><g
       id="g810"
       transform="translate(-53.04324,164.47862)"><g
         id="g812"
         clip-path="url(#clipPath814)"><text
           transform="matrix(1,0,0,-1,440.18,487.78)"
           id="text818"><tspan
             style="font-size:7.19999981px;font-variant:normal;font-weight:normal;writing-mode:lr-tb;fill:#000000;fill-opacity:1;fill-rule:nonzero;stroke:none;font-family:Sans;-inkscape-font-specification:Sans"
             x="0"
             y="0"
             sodipodi:role="line"
             id="tspan820">Tangential force</tspan></text>
</g></g><g
       id="g844"
       transform="matrix(1,0,0,0.90153544,-0.44574151,236.14066)"><g
         id="g846"
         clip-path="url(#clipPath848)"><path
           d="m 333.24,327.55 c 0.18,-0.08 0.37,-0.15 0.55,-0.24 0.19,-0.08 0.37,-0.17 0.55,-0.26 0.19,-0.1 0.37,-0.2 0.56,-0.3 0.18,-0.1 0.36,-0.18 0.55,-0.29 0.18,-0.11 0.37,-0.24 0.55,-0.36 0.18,-0.11 0.37,-0.21 0.55,-0.32 0.19,-0.11 0.37,-0.24 0.55,-0.35 0.19,-0.12 0.37,-0.22 0.56,-0.33 0.18,-0.11 0.36,-0.22 0.55,-0.32 0.18,-0.11 0.37,-0.2 0.55,-0.3 0.18,-0.1 0.37,-0.2 0.55,-0.29 0.19,-0.1 0.37,-0.2 0.55,-0.3 0.19,-0.1 0.37,-0.2 0.55,-0.29 0.19,-0.1 0.37,-0.2 0.56,-0.3 0.18,-0.1 0.36,-0.2 0.55,-0.29 0.18,-0.1 0.37,-0.2 0.55,-0.3 0.18,-0.1 0.37,-0.25 0.55,-0.29 0.19,-0.05 0.37,0.04 0.55,0 0.19,-0.05 0.37,-0.2 0.56,-0.3 0.18,-0.1 0.36,-0.25 0.55,-0.3 0.18,-0.04 0.37,0.05 0.55,0 0.18,-0.04 0.37,-0.24 0.55,-0.29 0.19,-0.05 0.37,0.05 0.55,0 0.19,-0.05 0.37,-0.25 0.56,-0.3 0.18,-0.04 0.36,0 0.55,0 0.18,0 0.37,0 0.55,0 0.18,0 0.37,0 0.55,0 0.19,0 0.37,0 0.55,0 0.19,0 0.37,0 0.56,0 0.18,0 0.36,-0.04 0.55,0 0.18,0.05 0.37,0.25 0.55,0.3 0.18,0.05 0.37,-0.05 0.55,0 0.19,0.05 0.37,0.2 0.55,0.29 0.19,0.1 0.37,0.2 0.56,0.3 0.18,0.1 0.36,0.15 0.55,0.3 0.18,0.14 0.37,0.39 0.55,0.59 0.18,0.19 0.37,0.39 0.55,0.59 0.19,0.19 0.37,0.39 0.55,0.59 0.19,0.19 0.37,0.38 0.56,0.59 0.18,0.2 0.36,0.4 0.55,0.65 0.18,0.24 0.37,0.52 0.55,0.79 0.18,0.28 0.37,0.56 0.55,0.86 0.19,0.29 0.37,0.6 0.55,0.91 0.19,0.32 0.37,0.64 0.55,0.98 0.19,0.33 0.37,0.68 0.56,1.03 0.18,0.35 0.36,0.72 0.55,1.09 0.18,0.37 0.37,0.74 0.55,1.12 0.18,0.39 0.37,0.78 0.55,1.18 0.19,0.41 0.37,0.83 0.55,1.24 0.19,0.41 0.37,0.8 0.56,1.21 0.18,0.42 0.36,0.84 0.55,1.27 0.18,0.43 0.37,0.88 0.55,1.33 0.18,0.45 0.37,0.9 0.55,1.36 0.19,0.45 0.37,0.92 0.55,1.38 0.19,0.47 0.37,0.92 0.56,1.39 0.18,0.47 0.36,0.94 0.55,1.42 0.18,0.47 0.37,0.96 0.55,1.44 0.18,0.49 0.37,0.98 0.55,1.48 0.19,0.5 0.37,0.99 0.55,1.5 0.19,0.51 0.37,1.04 0.56,1.57 0.18,0.52 0.36,1.05 0.55,1.59 0.18,0.54 0.37,1.08 0.55,1.63 0.18,0.54 0.37,1.08 0.55,1.62 0.19,0.55 0.37,1.09 0.55,1.64 0.19,0.55 0.37,1.1 0.56,1.66 0.18,0.56 0.36,1.14 0.55,1.71 0.18,0.57 0.37,1.14 0.55,1.72 0.18,0.57 0.37,1.16 0.55,1.74 0.19,0.58 0.37,1.16 0.55,1.74 0.19,0.57 0.37,1.13 0.56,1.71 0.18,0.57 0.36,1.16 0.55,1.74 0.18,0.58 0.37,1.16 0.55,1.74 0.18,0.58 0.37,1.16 0.55,1.74 0.19,0.59 0.37,1.18 0.55,1.77 0.19,0.6 0.37,1.21 0.56,1.8 0.18,0.6 0.36,1.18 0.55,1.77 0.18,0.59 0.36,1.18 0.55,1.77 0.18,0.59 0.37,1.18 0.55,1.77 0.18,0.59 0.37,1.19 0.55,1.78 0.19,0.59 0.37,1.18 0.55,1.77 0.19,0.59 0.37,1.18 0.56,1.77 0.18,0.59 0.36,1.18 0.55,1.77 0.18,0.59 0.37,1.18 0.55,1.77 0.18,0.59 0.37,1.18 0.55,1.77 0.19,0.59 0.37,1.18 0.55,1.77 0.19,0.59 0.37,1.23 0.56,1.77 0.18,0.54 0.36,0.93 0.55,1.47 0.18,0.55 0.37,1.19 0.55,1.78 0.18,0.59 0.37,1.18 0.55,1.77 0.19,0.59 0.37,1.23 0.55,1.77 0.19,0.54 0.37,0.98 0.56,1.47 0.18,0.49 0.36,0.94 0.55,1.48 0.18,0.54 0.37,1.23 0.55,1.77 0.18,0.54 0.37,0.98 0.55,1.47 0.19,0.5 0.37,0.99 0.55,1.48 0.19,0.49 0.37,0.98 0.56,1.47 0.18,0.5 0.36,1.04 0.55,1.48 0.18,0.44 0.37,0.74 0.55,1.18 0.18,0.44 0.37,1.03 0.55,1.48 0.19,0.44 0.37,0.78 0.55,1.18 0.19,0.39 0.37,0.73 0.56,1.18 0.18,0.44 0.36,1.03 0.55,1.47 0.18,0.45 0.37,0.84 0.55,1.18 0.18,0.35 0.37,0.54 0.55,0.89 0.19,0.34 0.37,0.83 0.55,1.18 0.19,0.34 0.37,0.54 0.56,0.88 0.18,0.35 0.36,0.84 0.55,1.18 0.18,0.35 0.36,0.59 0.55,0.89 0.18,0.29 0.37,0.59 0.55,0.88 0.18,0.3 0.37,0.64 0.55,0.89 0.19,0.25 0.37,0.34 0.55,0.59 0.19,0.25 0.37,0.64 0.56,0.89 0.18,0.24 0.36,0.34 0.55,0.59 0.18,0.24 0.37,0.64 0.55,0.88 0.18,0.25 0.37,0.39 0.55,0.59 0.19,0.2 0.37,0.39 0.55,0.59 0.19,0.2 0.37,0.44 0.56,0.59 0.18,0.15 0.36,0.15 0.55,0.3 0.18,0.14 0.37,0.39 0.55,0.59 0.18,0.19 0.37,0.44 0.55,0.59 0.19,0.14 0.37,0.14 0.55,0.29 0.19,0.15 0.37,0.44 0.56,0.59 0.18,0.15 0.36,0.2 0.55,0.3 0.18,0.1 0.37,0.19 0.55,0.29 0.18,0.1 0.37,0.2 0.55,0.3 0.19,0.1 0.37,0.19 0.55,0.29 0.19,0.1 0.37,0.2 0.56,0.3 0.18,0.1 0.36,0.19 0.55,0.29 0.18,0.1 0.37,0.2 0.55,0.3 0.18,0.1 0.37,0.19 0.55,0.29 0.19,0.1 0.37,0.25 0.55,0.3 0.19,0.05 0.37,-0.05 0.56,0 0.18,0.05 0.36,0.2 0.55,0.29 0.18,0.1 0.37,0.25 0.55,0.3 0.18,0.05 0.37,0 0.55,0 0.19,0 0.37,0 0.55,0 0.19,0 0.37,0 0.56,0 0.18,0 0.36,0 0.55,0 0.18,0 0.37,0 0.55,0 0.18,0 0.37,0 0.55,0 0.19,0 0.37,0 0.55,0 0.19,0 0.37,0.05 0.55,0 0.19,-0.05 0.37,-0.25 0.56,-0.3 0.18,-0.05 0.36,0.05 0.55,0 0.18,-0.05 0.37,-0.19 0.55,-0.29 0.18,-0.1 0.37,-0.2 0.55,-0.3 0.19,-0.1 0.37,-0.19 0.55,-0.29 0.19,-0.1 0.37,-0.2 0.56,-0.3 0.18,-0.1 0.36,-0.19 0.55,-0.29 0.18,-0.1 0.37,-0.2 0.55,-0.3 0.18,-0.1 0.37,-0.19 0.55,-0.29 0.19,-0.1 0.37,-0.15 0.55,-0.3 0.19,-0.14 0.37,-0.44 0.56,-0.59 0.18,-0.15 0.36,-0.19 0.55,-0.29 0.18,-0.1 0.37,-0.2 0.55,-0.3 0.18,-0.1 0.37,-0.19 0.55,-0.29 0.19,-0.1 0.37,-0.15 0.55,-0.3 0.19,-0.15 0.37,-0.44 0.56,-0.59 0.18,-0.15 0.36,-0.19 0.55,-0.29 0.18,-0.1 0.37,-0.2 0.55,-0.3 0.18,-0.1 0.37,-0.2 0.55,-0.29 0.19,-0.1 0.37,-0.25 0.55,-0.3 0.19,-0.05 0.37,0.05 0.56,0 0.18,-0.05 0.36,-0.2 0.55,-0.29 0.18,-0.1 0.37,-0.2 0.55,-0.3 0.18,-0.1 0.37,-0.24 0.55,-0.29 0.19,-0.05 0.37,0.05 0.55,0 0.19,-0.05 0.37,-0.25 0.56,-0.3 0.18,-0.05 0.36,0.05 0.55,0 0.18,-0.05 0.37,-0.2 0.55,-0.29 0.18,-0.1 0.37,-0.25 0.55,-0.3 0.19,-0.05 0.37,0.05 0.55,0 0.19,-0.05 0.37,-0.25 0.56,-0.29 0.18,-0.05 0.36,0.04 0.55,0 0.18,-0.05 0.36,-0.25 0.55,-0.3 0.18,-0.05 0.37,0.05 0.55,0 0.18,-0.05 0.37,-0.2 0.55,-0.29 0.19,-0.1 0.37,-0.25 0.55,-0.3 0.19,-0.05 0.37,0.05 0.56,0 0.18,-0.05 0.36,-0.2 0.55,-0.29 0.18,-0.1 0.37,-0.2 0.55,-0.3 0.18,-0.1 0.37,-0.2 0.55,-0.29 0.19,-0.1 0.37,-0.2 0.55,-0.3 0.19,-0.1 0.37,-0.2 0.56,-0.3 0.18,-0.09 0.36,-0.14 0.55,-0.29 0.18,-0.15 0.37,-0.44 0.55,-0.59 0.18,-0.15 0.37,-0.2 0.55,-0.3 0.19,-0.09 0.37,-0.14 0.55,-0.29 0.19,-0.15 0.37,-0.39 0.56,-0.59 0.18,-0.2 0.36,-0.44 0.55,-0.59 0.18,-0.15 0.37,-0.15 0.55,-0.3 0.18,-0.14 0.37,-0.39 0.55,-0.59 0.19,-0.19 0.37,-0.44 0.55,-0.59 0.19,-0.14 0.37,-0.14 0.56,-0.29 0.18,-0.15 0.36,-0.39 0.55,-0.59 0.18,-0.2 0.37,-0.4 0.55,-0.59 0.18,-0.2 0.37,-0.4 0.55,-0.59 0.19,-0.2 0.37,-0.4 0.55,-0.59 0.19,-0.2 0.37,-0.4 0.56,-0.59 0.18,-0.2 0.36,-0.4 0.55,-0.59 0.18,-0.2 0.37,-0.4 0.55,-0.59 0.18,-0.2 0.37,-0.4 0.55,-0.59 0.19,-0.2 0.37,-0.4 0.55,-0.59 0.19,-0.2 0.37,-0.4 0.56,-0.59 0.18,-0.2 0.36,-0.4 0.55,-0.59 0.18,-0.2 0.36,-0.4 0.55,-0.59 0.18,-0.2 0.37,-0.4 0.55,-0.59 0.18,-0.2 0.37,-0.4 0.55,-0.59 0.19,-0.2 0.37,-0.4 0.55,-0.59 0.19,-0.2 0.37,-0.4 0.56,-0.59 0.18,-0.2 0.36,-0.4 0.55,-0.59 0.18,-0.2 0.37,-0.4 0.55,-0.6 0.18,-0.19 0.37,-0.39 0.55,-0.59 0.19,-0.19 0.37,-0.39 0.55,-0.59 0.19,-0.19 0.37,-0.39 0.56,-0.59 0.18,-0.19 0.36,-0.39 0.55,-0.59 0.18,-0.19 0.37,-0.39 0.55,-0.59 0.18,-0.19 0.37,-0.39 0.55,-0.59 0.19,-0.19 0.37,-0.39 0.55,-0.59 0.19,-0.19 0.37,-0.39 0.56,-0.59 0.18,-0.19 0.36,-0.39 0.55,-0.59 0.18,-0.19 0.37,-0.39 0.55,-0.59 0.18,-0.19 0.37,-0.39 0.55,-0.59 0.19,-0.19 0.37,-0.39 0.55,-0.59 0.19,-0.19 0.37,-0.34 0.56,-0.59 0.18,-0.24 0.36,-0.64 0.55,-0.88 0.18,-0.25 0.37,-0.4 0.55,-0.59 0.18,-0.2 0.37,-0.4 0.55,-0.59 0.19,-0.2 0.37,-0.35 0.55,-0.59 0.19,-0.25 0.37,-0.64 0.56,-0.89 0.18,-0.24 0.36,-0.39 0.55,-0.59 0.18,-0.2 0.37,-0.39 0.55,-0.59 0.18,-0.2 0.37,-0.34 0.55,-0.59 0.19,-0.25 0.37,-0.64 0.55,-0.88 0.19,-0.25 0.37,-0.4 0.56,-0.59 0.18,-0.2 0.36,-0.35 0.55,-0.6 0.18,-0.24 0.37,-0.63 0.55,-0.88 0.18,-0.25 0.37,-0.39 0.55,-0.59 0.18,-0.2 0.37,-0.39 0.55,-0.59 0.19,-0.2 0.37,-0.35 0.55,-0.59 0.19,-0.25 0.37,-0.64 0.56,-0.89 0.18,-0.24 0.36,-0.39 0.55,-0.59 0.18,-0.19 0.37,-0.34 0.55,-0.59 0.18,-0.24 0.37,-0.64 0.55,-0.88 0.19,-0.25 0.37,-0.4 0.55,-0.59 0.19,-0.2 0.37,-0.4 0.56,-0.59 0.18,-0.2 0.36,-0.35 0.55,-0.59 0.18,-0.25 0.37,-0.64 0.55,-0.89 0.18,-0.24 0.37,-0.39 0.55,-0.59 0.19,-0.19 0.37,-0.39 0.55,-0.59 0.19,-0.19 0.37,-0.39 0.56,-0.59 0.18,-0.2 0.36,-0.39 0.55,-0.59 0.18,-0.2 0.37,-0.39 0.55,-0.59 0.18,-0.2 0.37,-0.37 0.55,-0.59 0.19,-0.22 0.37,-0.49 0.55,-0.71 0.19,-0.21 0.37,-0.39 0.56,-0.59 0.18,-0.19 0.36,-0.39 0.55,-0.59 0.18,-0.19 0.37,-0.4 0.55,-0.59 0.18,-0.19 0.37,-0.38 0.55,-0.56 0.19,-0.18 0.37,-0.35 0.55,-0.53 0.19,-0.18 0.37,-0.38 0.56,-0.56 0.18,-0.18 0.36,-0.35 0.55,-0.53 0.18,-0.18 0.37,-0.36 0.55,-0.53 0.18,-0.18 0.37,-0.36 0.55,-0.53 0.19,-0.18 0.37,-0.34 0.55,-0.51 0.19,-0.16 0.37,-0.34 0.56,-0.5 0.18,-0.16 0.36,-0.31 0.55,-0.47 0.18,-0.16 0.37,-0.31 0.55,-0.47 0.18,-0.16 0.37,-0.32 0.55,-0.47 0.18,-0.16 0.37,-0.32 0.55,-0.48 0.19,-0.15 0.37,-0.29 0.55,-0.44 0.19,-0.15 0.37,-0.32 0.56,-0.47 0.18,-0.15 0.36,-0.3 0.55,-0.44 0.18,-0.15 0.37,-0.28 0.55,-0.42 0.18,-0.13 0.37,-0.27 0.55,-0.41 0.19,-0.14 0.37,-0.28 0.55,-0.41 0.19,-0.14 0.37,-0.28 0.56,-0.42 0.18,-0.13 0.36,-0.27 0.55,-0.41 0.18,-0.14 0.37,-0.28 0.55,-0.41 0.18,-0.13 0.37,-0.26 0.55,-0.39 0.19,-0.12 0.37,-0.23 0.55,-0.35 0.19,-0.12 0.37,-0.23 0.56,-0.35 0.18,-0.13 0.36,-0.27 0.55,-0.39 0.18,-0.12 0.37,-0.21 0.55,-0.32 0.18,-0.12 0.37,-0.24 0.55,-0.36 0.19,-0.11 0.37,-0.21 0.55,-0.32 0.19,-0.11 0.37,-0.25 0.56,-0.36 0.18,-0.1 0.36,-0.19 0.55,-0.29 0.18,-0.1 0.37,-0.22 0.55,-0.32 0.18,-0.11 0.37,-0.23 0.55,-0.33 0.19,-0.1 0.37,-0.2 0.55,-0.29 0.19,-0.1 0.37,-0.2 0.56,-0.3 0.18,-0.1 0.36,-0.22 0.55,-0.32 0.18,-0.11 0.37,-0.2 0.55,-0.3 0.18,-0.1 0.37,-0.2 0.55,-0.29 0.19,-0.1 0.37,-0.18 0.55,-0.27 0.19,-0.09 0.37,-0.2 0.56,-0.3 0.18,-0.09 0.36,-0.17 0.55,-0.26 0.18,-0.09 0.37,-0.18 0.55,-0.27 0.18,-0.08 0.37,-0.17 0.55,-0.26 0.19,-0.09 0.37,-0.18 0.55,-0.27 0.19,-0.09 0.37,-0.17 0.55,-0.26 0.19,-0.09 0.37,-0.19 0.56,-0.27 0.18,-0.08 0.36,-0.16 0.55,-0.23 0.18,-0.08 0.37,-0.16 0.55,-0.24 0.18,-0.08 0.37,-0.18 0.55,-0.27 0.19,-0.08 0.37,-0.17 0.55,-0.26 0.19,-0.09 0.37,-0.18 0.56,-0.27 0.18,-0.09 0.36,-0.17 0.55,-0.26 0.18,-0.09 0.37,-0.18 0.55,-0.27 0.18,-0.09 0.37,-0.2 0.55,-0.29 0.19,-0.1 0.37,-0.2 0.55,-0.3 0.19,-0.1 0.37,-0.19 0.56,-0.29 0.18,-0.11 0.36,-0.24 0.55,-0.36 0.18,-0.12 0.37,-0.25 0.55,-0.38 0.18,-0.13 0.37,-0.27 0.55,-0.42 0.19,-0.14 0.37,-0.29 0.55,-0.44 0.19,-0.15 0.37,-0.31 0.56,-0.47 0.18,-0.16 0.36,-0.32 0.55,-0.5 0.18,-0.18 0.37,-0.37 0.55,-0.56 0.18,-0.19 0.37,-0.39 0.55,-0.59 0.19,-0.21 0.37,-0.43 0.55,-0.65 0.19,-0.22 0.37,-0.45 0.56,-0.68 0.18,-0.23 0.36,-0.46 0.55,-0.69 0.18,-0.24 0.37,-0.47 0.55,-0.72 0.18,-0.24 0.37,-0.49 0.55,-0.74 0.19,-0.25 0.37,-0.51 0.55,-0.77 0.19,-0.26 0.37,-0.53 0.56,-0.8 0.18,-0.26 0.36,-0.54 0.55,-0.81 0.18,-0.27 0.37,-0.54 0.55,-0.82 0.18,-0.27 0.37,-0.55 0.55,-0.82 0.19,-0.27 0.37,-0.52 0.55,-0.79 0.19,-0.28 0.37,-0.56 0.56,-0.83 0.18,-0.28 0.36,-0.55 0.55,-0.83 0.18,-0.27 0.36,-0.55 0.55,-0.82 0.18,-0.28 0.37,-0.55 0.55,-0.83 0.18,-0.28 0.37,-0.56 0.55,-0.83 0.19,-0.27 0.37,-0.53 0.55,-0.79 0.19,-0.27 0.37,-0.54 0.56,-0.8 0.18,-0.26 0.36,-0.51 0.55,-0.77 0.18,-0.26 0.37,-0.53 0.55,-0.79 0.18,-0.27 0.37,-0.53 0.55,-0.8 0.19,-0.27 0.37,-0.54 0.55,-0.8 0.19,-0.26 0.37,-0.5 0.56,-0.76 0.18,-0.26 0.36,-0.54 0.55,-0.8 0.18,-0.26 0.37,-0.51 0.55,-0.77 0.18,-0.25 0.37,-0.51 0.55,-0.77 0.19,-0.25 0.37,-0.48 0.55,-0.73 0.19,-0.25 0.37,-0.52 0.56,-0.77 0.18,-0.25 0.36,-0.47 0.55,-0.71 0.18,-0.24 0.37,-0.5 0.55,-0.74 0.18,-0.24 0.37,-0.47 0.55,-0.7 0.19,-0.24 0.37,-0.46 0.55,-0.68 0.19,-0.22 0.37,-0.44 0.56,-0.65 0.18,-0.22 0.36,-0.44 0.55,-0.65 0.18,-0.21 0.37,-0.42 0.55,-0.62 0.18,-0.21 0.37,-0.42 0.55,-0.62 0.19,-0.2 0.37,-0.4 0.55,-0.59 0.19,-0.19 0.37,-0.38 0.56,-0.56"
           style="fill:none;stroke:#be6c6e;stroke-width:1.67999995;stroke-linecap:round;stroke-linejoin:round;stroke-miterlimit:10;stroke-opacity:1;stroke-dasharray:none"
           id="path852"
           inkscape:connector-curvature="0" /></g></g><g
       id="g950"><g
         id="g952"
         clip-path="url(#clipPath954)" /></g><g
       id="g1058"><g
         id="g1060"
         clip-path="url(#clipPath1062)" /></g><g
       id="g1102"><g
         id="g1104"
         clip-path="url(#clipPath1106)" /></g><path
       style="fill:#cccccc"
       d="m 459.79859,254.45219 c 2.90891,-5.13836 4.44263,-7.50447 6.50095,-10.02918 l 1.93055,-2.36801 6.56712,0 6.56712,0 2.27184,2.71346 c 2.02069,2.4135 7.27052,11.38769 7.29463,12.46961 0.005,0.22984 -7.40562,0.41789 -16.4683,0.41789 l -16.47761,0 1.8137,-3.20377 z"
       id="path4115"
       inkscape:connector-curvature="0"
       transform="matrix(0.8,0,0,-0.8,0,841.56)" /><path
       style="fill:#cccccc"
       d="m 468.93162,241.49783 c 0.45116,-0.72999 11.24955,-0.72999 11.70071,0 0.22169,0.35869 -1.86243,0.55717 -5.85035,0.55717 -3.98793,0 -6.07204,-0.19848 -5.85036,-0.55717 z"
       id="path4117"
       inkscape:connector-curvature="0"
       transform="matrix(0.8,0,0,-0.8,0,841.56)" /><path
       style="fill:#cccccc"
       d="m 470.62004,239.9829 c 1.06654,-0.8776 3.22353,-1.69715 4.47827,-1.70152 0.60153,-0.002 4.16504,1.72198 4.78649,2.31576 0.16251,0.15529 -2.10073,0.28234 -5.02944,0.28234 l -5.32492,0 1.0896,-0.89658 z"
       id="path4119"
       inkscape:connector-curvature="0"
       transform="matrix(0.8,0,0,-0.8,0,841.56)" /><path
       style="fill:#cccccc"
       d="m 452.13848,269.92999 c 0.99657,-2.31094 2.6165,-5.81246 3.59985,-7.78118 l 1.7879,-3.57947 17.13828,-0.098 17.13829,-0.098 0.63874,1.47696 c 0.35132,0.81232 1.39307,3.18668 2.31502,5.27634 l 1.67626,3.79938 -2.21651,2.25222 c -1.21909,1.23872 -2.21652,2.41 -2.21652,2.60285 0,0.20043 -8.92564,0.35063 -20.83663,0.35063 l -20.83663,0 1.81195,-4.2017 z"
       id="path4121"
       inkscape:connector-curvature="0"
       transform="matrix(0.8,0,0,-0.8,0,841.56)" /><path
       style="fill:#cccccc"
       d="m 444.81722,288.41359 c 0.47112,-1.24597 1.76813,-4.65885 2.88225,-7.58418 l 2.02566,-5.31878 20.34936,-0.10204 c 11.19215,-0.0561 20.34937,-0.0136 20.34937,0.0945 0,0.10807 -0.83103,1.48369 -1.84674,3.05691 -1.0157,1.57323 -2.87487,4.9436 -4.13147,7.48972 l -2.28474,4.62931 -19.10014,0 -19.10014,0 0.85659,-2.26541 z"
       id="path4123"
       inkscape:connector-curvature="0"
       transform="matrix(0.8,0,0,-0.8,0,841.56)" /><path
       style="fill:#cccccc"
       d="m 439.18108,303.58196 c 0.80059,-2.00439 2.15314,-5.54921 3.00567,-7.87738 l 1.55006,-4.23303 19.05185,-0.002 c 15.08983,-0.002 19.00886,0.10012 18.84507,0.49018 -1.53913,3.66546 -5.78727,14.58774 -5.78727,14.87949 0,0.24851 -6.83284,0.38738 -19.06049,0.38738 l -19.0605,0 1.45561,-3.64435 0,0 z"
       id="path4125"
       inkscape:connector-curvature="0"
       transform="matrix(0.8,0,0,-0.8,0,841.56)" /><path
       style="fill:#cccccc"
       d="m 430.14437,323.61254 c 0,-0.0886 0.94577,-2.00567 2.10172,-4.26019 1.15594,-2.25451 2.77682,-5.72788 3.60196,-7.7186 l 1.50025,-3.61948 19.03444,0 19.03443,0 -0.91345,2.4624 c -0.5024,1.35432 -1.75986,4.90017 -2.79437,7.87967 l -1.8809,5.41728 -19.84204,0 c -10.91312,0 -19.84204,-0.0725 -19.84204,-0.16108 z"
       id="path4127"
       inkscape:connector-curvature="0"
       transform="matrix(0.8,0,0,-0.8,0,841.56)" /><path
       style="fill:#cccccc"
       d="m 419.50682,340.14991 c 0,-0.094 0.93078,-1.40896 2.06841,-2.92202 1.13763,-1.51306 3.36778,-4.89331 4.95589,-7.51167 l 2.88747,-4.76065 20.01903,0 20.01904,0 -2.28533,6.59922 c -1.25693,3.62957 -2.47423,7.08678 -2.7051,7.68268 l -0.41977,1.08346 -22.26982,0 c -12.2484,0 -22.26982,-0.077 -22.26982,-0.17102 z"
       id="path4129"
       inkscape:connector-curvature="0"
       transform="matrix(0.8,0,0,-0.8,0,841.56)" /><path
       style="fill:#cccccc"
       d="m 417.14292,349.06736 c 0,-4.92917 0.14047,-7.15338 0.47278,-7.48569 0.55659,-0.55659 46.01727,-0.69982 46.01727,-0.14498 0,0.35044 -2.52959,7.59011 -4.18736,11.98419 l -1.00331,2.65939 -20.64969,0 -20.64969,0 0,-7.01291 z"
       id="path4131"
       inkscape:connector-curvature="0"
       transform="matrix(0.8,0,0,-0.8,0,841.56)" /><path
       style="fill:#cccccc"
       d="m 461.26907,355.8511 c 0,-0.21206 4.31235,-12.50152 4.93109,-14.05274 0.25912,-0.64966 2.37144,-0.68947 36.58441,-0.68947 l 36.3094,0 4.98251,6.20524 c 2.74038,3.41289 5.44113,6.63506 6.00167,7.16038 0.56055,0.52533 1.01917,1.10153 1.01917,1.28045 0,0.17892 -20.21135,0.32531 -44.91412,0.32531 -24.70277,0 -44.91413,-0.10313 -44.91413,-0.22917 z"
       id="path4133"
       inkscape:connector-curvature="0"
       transform="matrix(0.8,0,0,-0.8,0,841.56)" /><path
       style="fill:#cccccc"
       d="m 466.87296,339.82845 c 0.0948,-0.27087 1.28812,-3.72807 2.65176,-7.68268 l 2.47933,-7.1902 26.78396,0 26.78397,0 0.84467,1.07645 c 1.33156,1.69695 6.56192,7.96947 9.23962,11.08063 1.34178,1.55899 2.4396,2.91862 2.4396,3.0214 0,0.10278 -16.06395,0.18688 -35.69767,0.18688 -28.38743,0 -35.66235,-0.10086 -35.52524,-0.49248 z"
       id="path4135"
       inkscape:connector-curvature="0"
       transform="matrix(0.8,0,0,-0.8,0,841.56)" /><path
       style="fill:#cccccc"
       d="m 473.90293,319.3413 c 0.8553,-2.43777 2.1226,-5.98362 2.81621,-7.87967 l 1.26112,-3.44736 18.39372,0 18.39373,0 2.17621,3.84134 c 1.19692,2.11274 3.34313,5.57358 4.76937,7.69075 1.42623,2.11718 2.59315,3.93443 2.59315,4.03834 0,0.1039 -11.69068,0.18892 -25.9793,0.18892 l -25.97931,0 1.5551,-4.43232 z"
       id="path4137"
       inkscape:connector-curvature="0"
       transform="matrix(0.8,0,0,-0.8,0,841.56)" /><path
       style="fill:#cccccc"
       d="m 479.06099,304.9609 c 0.46176,-1.24597 1.83665,-4.7475 3.05531,-7.78117 l 2.21574,-5.51577 11.05981,-0.10453 11.05981,-0.10452 2.79797,5.81728 c 1.53888,3.19951 3.34363,6.74808 4.01056,7.8857 l 1.2126,2.06842 -18.12568,0 -18.12568,0 0.83956,-2.26541 z"
       id="path4139"
       inkscape:connector-curvature="0"
       transform="matrix(0.8,0,0,-0.8,0,841.56)" /><path
       style="fill:#cccccc"
       d="m 486.50412,287.33459 c 1.52652,-3.30416 5.16948,-9.41487 6.63792,-11.13449 0.65106,-0.76243 1.13403,-0.88444 3.45171,-0.87205 l 2.69474,0.0144 2.52143,5.79685 c 1.38679,3.18826 2.84945,6.49499 3.25036,7.34828 0.40092,0.8533 0.72893,1.69544 0.72893,1.87143 0,0.17599 -4.68679,0.31998 -10.4151,0.31998 l -10.41511,0 1.54512,-3.34441 z"
       id="path4141"
       inkscape:connector-curvature="0"
       transform="matrix(0.8,0,0,-0.8,0,841.56)" /><path
       style="fill:#cccccc"
       d="m 495.64414,274.24348 c 0.5959,-0.0903 1.57101,-0.0903 2.16691,0 0.5959,0.0903 0.10834,0.16413 -1.08346,0.16413 -1.1918,0 -1.67935,-0.0739 -1.08345,-0.16413 z"
       id="path4143"
       inkscape:connector-curvature="0"
       transform="matrix(0.8,0,0,-0.8,0,841.56)" /><path
       style="fill:#cccccc"
       d="m 495.08115,273.66707 c 0.33353,-0.57506 2.12208,-2.29327 2.38715,-2.29327 0.12353,0 1.38673,2.52634 1.38684,2.7736 2e-5,0.0455 -0.92261,0.0828 -2.05028,0.0828 l -2.05031,0 0.3266,-0.56311 z"
       id="path4145"
       inkscape:connector-curvature="0"
       transform="matrix(0.8,0,0,-0.8,0,841.56)" /><path
       style="fill:#cccccc"
       d="m 583.43147,370.91861 c -9.34012,-1.67417 -18.04391,-5.26836 -22.56567,-9.31839 l -2.78588,-2.49526 22.14778,-0.0214 c 19.32498,-0.0187 22.14778,0.0851 22.14778,0.81435 0,0.45967 0.25073,0.83577 0.55718,0.83577 0.30645,0 0.55718,-0.3761 0.55718,-0.83577 0,-0.72171 1.9579,-0.8334 14.3473,-0.81847 l 14.3473,0.0173 -5.57176,2.15025 c -3.06448,1.18263 -7.81004,3.02829 -10.5457,4.10146 l -4.97392,1.95121 -0.95028,-1.17354 c -0.82745,-1.02187 -1.13876,-1.08766 -2.40866,-0.50905 -0.86972,0.39627 -1.4584,0.44441 -1.4584,0.11926 0,-0.29988 -1.12828,-0.54524 -2.5073,-0.54524 -1.9079,0 -2.50729,0.20931 -2.50729,0.87557 0,0.79597 -0.0796,0.79597 -0.87557,0 -0.93363,-0.93364 -1.83679,-1.08262 -3.25769,-0.53737 -1.42626,0.54731 -1.05816,1.76979 0.4463,1.48219 1.75857,-0.33617 2.2436,0.58134 1.03738,1.9624 -0.76923,0.88073 -2.16798,1.24164 -6.70311,1.72957 -5.88958,0.63365 -6.11089,0.63926 -8.47697,0.21516 z"
       id="path4147"
       inkscape:connector-curvature="0"
       transform="matrix(0.8,0,0,-0.8,0,841.56)" /><path
       style="fill:#cccccc"
       d="m 600.216,369.42564 c 0,-0.12258 0.1379,-0.36077 0.30644,-0.52932 0.16855,-0.16855 0.30645,-0.73841 0.30645,-1.26636 l 0,-0.95992 1.81887,-0.0589 c 1.39859,-0.0453 1.78748,0.0253 1.68304,0.30523 -0.0747,0.20027 -0.29936,0.82115 -0.49923,1.37975 -0.30475,0.85166 -0.52474,1.04232 -1.36267,1.18093 -1.39398,0.23061 -2.2529,0.211 -2.2529,-0.0514 z"
       id="path4149"
       inkscape:connector-curvature="0"
       transform="matrix(0.8,0,0,-0.8,0,841.56)" /><path
       style="fill:#cccccc"
       d="m 607.32659,367.93483 c 0.40264,-1.31143 1.28813,-1.75546 2.02711,-1.01649 0.55235,0.55236 0.38033,1.03778 -0.43182,1.21852 -0.42136,0.0938 -0.99788,0.2339 -1.28115,0.3114 -0.43027,0.11771 -0.48197,0.0332 -0.31414,-0.51343 z"
       id="path4151"
       inkscape:connector-curvature="0"
       transform="matrix(0.8,0,0,-0.8,0,841.56)" /><path
       style="fill:#cccccc"
       d="m 655.60901,354.32718 c 1.21931,-0.91877 3.65426,-3.17076 5.411,-5.00442 l 3.19408,-3.33392 0.17792,1.70222 c 0.0978,0.93623 0.17792,3.18821 0.17792,5.00442 l 0,3.3022 -5.58892,0 -5.58891,0 2.21691,-1.6705 z"
       id="path4155"
       inkscape:connector-curvature="0"
       transform="matrix(0.8,0,0,-0.8,0,841.56)" /><g
       transform="translate(3.3430612,30.533295)"
       id="g4157"><g
         clip-path="url(#clipPath800)"
         id="g4159"><text
           style="fill:#cccccc"
           id="text4161"
           transform="matrix(1,0,0,-1,401.4,487.78)"><tspan
             y="0"
             id="tspan4163"
             sodipodi:role="line"
             x="0"
             style="font-size:8px;font-variant:normal;font-weight:normal;writing-mode:lr-tb;fill:#000000;fill-opacity:1;fill-rule:nonzero;stroke:none;font-family:Sans;-inkscape-font-specification:Sans">Crankangle []</tspan></text>
</g></g><g
       id="g4165"
       transform="matrix(-0.00636127,0.99997977,-0.99997977,-0.00636127,797.17784,181.6151)"><g
         id="g4167"
         clip-path="url(#clipPath800)"><text
           transform="matrix(1,0,0,-1,401.4,487.78)"
           id="text4169"
           style="fill:#cccccc"><tspan
             style="font-size:8px;font-variant:normal;font-weight:normal;writing-mode:lr-tb;fill:#000000;fill-opacity:1;fill-rule:nonzero;stroke:none;font-family:Sans;-inkscape-font-specification:Sans"
             x="0"
             sodipodi:role="line"
             id="tspan4171"
             y="0">Force [N]</tspan></text>
</g></g><g
       transform="translate(-301.41047,115.93985)"
       id="g4941"><g
         clip-path="url(#clipPath814)"
         id="g4943"><text
           id="text4945"
           transform="scale(1,-1)"
           x="426.94217"
           y="-485.25851"><tspan
             id="tspan4947"
             sodipodi:role="line"
             y="-485.25851"
             x="426.94217"
             style="font-size:8px;font-variant:normal;font-weight:normal;writing-mode:lr-tb;fill:#000000;fill-opacity:1;fill-rule:nonzero;stroke:none;font-family:Sans;-inkscape-font-specification:Sans">Total resultant force</tspan></text>
</g></g></g></svg>