<?xml version="1.0" encoding="UTF-8" standalone="no"?>
<svg
   xmlns:dc="http://purl.org/dc/elements/1.1/"
   xmlns:cc="http://creativecommons.org/ns#"
   xmlns:rdf="http://www.w3.org/1999/02/22-rdf-syntax-ns#"
   xmlns:svg="http://www.w3.org/2000/svg"
   xmlns="http://www.w3.org/2000/svg"
   viewBox="0 0 976.91337 483.836"
   height="483.836"
   width="976.91333"
   xml:space="preserve"
   id="svg2"
   version="1.1"><metadata
     id="metadata8"><rdf:RDF><cc:Work
         rdf:about=""><dc:format>image/svg+xml</dc:format><dc:type
           rdf:resource="http://purl.org/dc/dcmitype/StillImage" /><dc:title></dc:title></cc:Work></rdf:RDF></metadata><defs
     id="defs6"><clipPath
       id="clipPath18"
       clipPathUnits="userSpaceOnUse"><path
         style="clip-rule:evenodd"
         id="path16"
         d="M 0,0.028 H 841.861 V 595.275 H 0 Z" /></clipPath></defs><g
     transform="matrix(1.3333333,0,0,-1.3333333,-56.929331,676.29865)"
     id="g10"><path
       id="path22"
       style="fill:#fcfcfc;fill-opacity:1;fill-rule:evenodd;stroke:none"
       d="M 409.039,166.847 H 65.197 V 484.724 H 752.882 V 166.847 Z" /><g
       id="g24"><path
         id="path26"
         style="fill:none;stroke:#b3b3b3;stroke-width:0.75;stroke-linecap:butt;stroke-linejoin:round;stroke-miterlimit:10;stroke-dasharray:none;stroke-opacity:1"
         d="M 336.472,224.305 H 142.186 V 478.374 H 530.731 V 224.305 Z" /></g><g
       id="g28"><path
         id="path30"
         style="fill:none;stroke:#b3b3b3;stroke-width:0.75;stroke-linecap:butt;stroke-linejoin:round;stroke-miterlimit:10;stroke-dasharray:none;stroke-opacity:1"
         d="M 530.731,224.333 H 142.186" /></g><g
       id="g32"><path
         id="path34"
         style="fill:none;stroke:#b3b3b3;stroke-width:0.75;stroke-linecap:butt;stroke-linejoin:round;stroke-miterlimit:10;stroke-dasharray:none;stroke-opacity:1"
         d="M 530.731,259.625 H 142.186" /></g><g
       id="g36"><path
         id="path38"
         style="fill:none;stroke:#b3b3b3;stroke-width:0.75;stroke-linecap:butt;stroke-linejoin:round;stroke-miterlimit:10;stroke-dasharray:none;stroke-opacity:1"
         d="M 530.731,294.916 H 142.186" /></g><g
       id="g40"><path
         id="path42"
         style="fill:none;stroke:#b3b3b3;stroke-width:0.75;stroke-linecap:butt;stroke-linejoin:round;stroke-miterlimit:10;stroke-dasharray:none;stroke-opacity:1"
         d="M 530.731,330.179 H 142.186" /></g><g
       id="g44"><path
         id="path46"
         style="fill:none;stroke:#b3b3b3;stroke-width:0.75;stroke-linecap:butt;stroke-linejoin:round;stroke-miterlimit:10;stroke-dasharray:none;stroke-opacity:1"
         d="M 530.731,365.47 H 142.186" /></g><g
       id="g48"><path
         id="path50"
         style="fill:none;stroke:#b3b3b3;stroke-width:0.75;stroke-linecap:butt;stroke-linejoin:round;stroke-miterlimit:10;stroke-dasharray:none;stroke-opacity:1"
         d="M 530.731,400.762 H 142.186" /></g><g
       id="g52"><path
         id="path54"
         style="fill:none;stroke:#b3b3b3;stroke-width:0.75;stroke-linecap:butt;stroke-linejoin:round;stroke-miterlimit:10;stroke-dasharray:none;stroke-opacity:1"
         d="M 530.731,436.053 H 142.186" /></g><g
       id="g56"><path
         id="path58"
         style="fill:none;stroke:#b3b3b3;stroke-width:0.75;stroke-linecap:butt;stroke-linejoin:round;stroke-miterlimit:10;stroke-dasharray:none;stroke-opacity:1"
         d="M 530.731,471.344 H 142.186" /></g><g
       id="g60"><path
         id="path62"
         style="fill:none;stroke:#b3b3b3;stroke-width:0.75;stroke-linecap:butt;stroke-linejoin:round;stroke-miterlimit:10;stroke-dasharray:none;stroke-opacity:1"
         d="m 142.186,220.081 v 4.252" /></g><g
       id="g64"><path
         id="path66"
         style="fill:none;stroke:#b3b3b3;stroke-width:0.75;stroke-linecap:butt;stroke-linejoin:round;stroke-miterlimit:10;stroke-dasharray:none;stroke-opacity:1"
         d="m 181.02,220.081 v 4.252" /></g><g
       id="g68"><path
         id="path70"
         style="fill:none;stroke:#b3b3b3;stroke-width:0.75;stroke-linecap:butt;stroke-linejoin:round;stroke-miterlimit:10;stroke-dasharray:none;stroke-opacity:1"
         d="m 219.883,220.081 v 4.252" /></g><g
       id="g72"><path
         id="path74"
         style="fill:none;stroke:#b3b3b3;stroke-width:0.75;stroke-linecap:butt;stroke-linejoin:round;stroke-miterlimit:10;stroke-dasharray:none;stroke-opacity:1"
         d="m 258.746,220.081 v 4.252" /></g><g
       id="g76"><path
         id="path78"
         style="fill:none;stroke:#b3b3b3;stroke-width:0.75;stroke-linecap:butt;stroke-linejoin:round;stroke-miterlimit:10;stroke-dasharray:none;stroke-opacity:1"
         d="m 297.609,220.081 v 4.252" /></g><g
       id="g80"><path
         id="path82"
         style="fill:none;stroke:#b3b3b3;stroke-width:0.75;stroke-linecap:butt;stroke-linejoin:round;stroke-miterlimit:10;stroke-dasharray:none;stroke-opacity:1"
         d="m 336.472,220.081 v 4.252" /></g><g
       id="g84"><path
         id="path86"
         style="fill:none;stroke:#b3b3b3;stroke-width:0.75;stroke-linecap:butt;stroke-linejoin:round;stroke-miterlimit:10;stroke-dasharray:none;stroke-opacity:1"
         d="m 375.307,220.081 v 4.252" /></g><g
       id="g88"><path
         id="path90"
         style="fill:none;stroke:#b3b3b3;stroke-width:0.75;stroke-linecap:butt;stroke-linejoin:round;stroke-miterlimit:10;stroke-dasharray:none;stroke-opacity:1"
         d="m 414.142,220.081 v 4.252" /></g><g
       id="g92"><path
         id="path94"
         style="fill:none;stroke:#b3b3b3;stroke-width:0.75;stroke-linecap:butt;stroke-linejoin:round;stroke-miterlimit:10;stroke-dasharray:none;stroke-opacity:1"
         d="m 453.005,220.081 v 4.252" /></g><g
       id="g96"><path
         id="path98"
         style="fill:none;stroke:#b3b3b3;stroke-width:0.75;stroke-linecap:butt;stroke-linejoin:round;stroke-miterlimit:10;stroke-dasharray:none;stroke-opacity:1"
         d="m 491.868,220.081 v 4.252" /></g><g
       id="g100"><path
         id="path102"
         style="fill:none;stroke:#b3b3b3;stroke-width:0.75;stroke-linecap:butt;stroke-linejoin:round;stroke-miterlimit:10;stroke-dasharray:none;stroke-opacity:1"
         d="m 530.731,220.081 v 4.252" /></g><g
       id="g104"><path
         id="path106"
         style="fill:none;stroke:#b3b3b3;stroke-width:0.75;stroke-linecap:butt;stroke-linejoin:round;stroke-miterlimit:10;stroke-dasharray:none;stroke-opacity:1"
         d="M 142.186,224.333 H 530.731" /></g><g
       id="g108"><path
         id="path110"
         style="fill:none;stroke:#b3b3b3;stroke-width:0.75;stroke-linecap:butt;stroke-linejoin:round;stroke-miterlimit:10;stroke-dasharray:none;stroke-opacity:1"
         d="m 137.934,224.333 h 4.252" /></g><g
       id="g112"><path
         id="path114"
         style="fill:none;stroke:#b3b3b3;stroke-width:0.75;stroke-linecap:butt;stroke-linejoin:round;stroke-miterlimit:10;stroke-dasharray:none;stroke-opacity:1"
         d="m 137.934,259.625 h 4.252" /></g><g
       id="g116"><path
         id="path118"
         style="fill:none;stroke:#b3b3b3;stroke-width:0.75;stroke-linecap:butt;stroke-linejoin:round;stroke-miterlimit:10;stroke-dasharray:none;stroke-opacity:1"
         d="m 137.934,294.916 h 4.252" /></g><g
       id="g120"><path
         id="path122"
         style="fill:none;stroke:#b3b3b3;stroke-width:0.75;stroke-linecap:butt;stroke-linejoin:round;stroke-miterlimit:10;stroke-dasharray:none;stroke-opacity:1"
         d="m 137.934,330.179 h 4.252" /></g><g
       id="g124"><path
         id="path126"
         style="fill:none;stroke:#b3b3b3;stroke-width:0.75;stroke-linecap:butt;stroke-linejoin:round;stroke-miterlimit:10;stroke-dasharray:none;stroke-opacity:1"
         d="m 137.934,365.47 h 4.252" /></g><g
       id="g128"><path
         id="path130"
         style="fill:none;stroke:#b3b3b3;stroke-width:0.75;stroke-linecap:butt;stroke-linejoin:round;stroke-miterlimit:10;stroke-dasharray:none;stroke-opacity:1"
         d="m 137.934,400.762 h 4.252" /></g><g
       id="g132"><path
         id="path134"
         style="fill:none;stroke:#b3b3b3;stroke-width:0.75;stroke-linecap:butt;stroke-linejoin:round;stroke-miterlimit:10;stroke-dasharray:none;stroke-opacity:1"
         d="m 137.934,436.053 h 4.252" /></g><g
       id="g136"><path
         id="path138"
         style="fill:none;stroke:#b3b3b3;stroke-width:0.75;stroke-linecap:butt;stroke-linejoin:round;stroke-miterlimit:10;stroke-dasharray:none;stroke-opacity:1"
         d="m 137.934,471.344 h 4.252" /></g><g
       id="g140"><path
         id="path142"
         style="fill:none;stroke:#b3b3b3;stroke-width:0.75;stroke-linecap:butt;stroke-linejoin:round;stroke-miterlimit:10;stroke-dasharray:none;stroke-opacity:1"
         d="m 142.186,224.333 v 254.07" /></g><g
       id="g144"><path
         id="path146"
         style="fill:none;stroke:#ff420e;stroke-width:2.9762001;stroke-linecap:butt;stroke-linejoin:round;stroke-miterlimit:10;stroke-dasharray:none;stroke-opacity:1"
         d="m 142.186,224.333 9.694,4.196 9.723,4.195 9.723,4.223 9.694,4.252 9.723,4.281 9.723,4.337 9.695,4.393 9.722,4.479 9.723,4.564 9.723,4.649 9.695,4.734 9.722,4.875 9.723,4.989 9.695,5.103 9.723,5.272 9.722,5.443 9.695,5.584 9.723,5.754 9.723,5.953 9.722,6.151 9.695,6.321 9.723,6.548 9.723,6.718 9.694,6.917 9.723,7.058 9.723,7.229 9.694,7.37 9.695,7.511 9.723,7.626 9.722,7.738 9.695,7.852 9.723,7.937 9.723,8.022 9.694,8.079 9.723,8.164 9.723,8.192 9.694,8.249 9.723,8.277 9.723,8.305 9.723,8.306" /></g><path
       id="path148"
       style="fill:#ff420e;fill-opacity:1;fill-rule:evenodd;stroke:none"
       d="m 145.729,224.333 -0.028,0.17 v 0.142 l -0.029,0.17 v 0.142 l -0.028,0.17 -0.057,0.142 -0.028,0.141 -0.057,0.142 -0.056,0.142 -0.057,0.142 -0.085,0.141 -0.057,0.142 -0.085,0.142 -0.085,0.113 -0.085,0.142 -0.113,0.113 -0.085,0.114 -0.114,0.113 -0.113,0.113 -0.113,0.086 -0.114,0.113 -0.142,0.085 -0.113,0.085 -0.142,0.085 -0.141,0.057 -0.142,0.085 -0.142,0.056 -0.142,0.057 -0.141,0.057 -0.142,0.028 -0.142,0.057 -0.17,0.028 h -0.142 l -0.17,0.029 h -0.141 -0.142 -0.17 -0.142 l -0.17,-0.029 h -0.142 l -0.17,-0.028 -0.142,-0.057 -0.141,-0.028 -0.142,-0.057 -0.142,-0.057 -0.142,-0.056 -0.141,-0.085 -0.142,-0.057 -0.142,-0.085 -0.113,-0.085 -0.142,-0.085 -0.113,-0.113 -0.114,-0.086 -0.113,-0.113 -0.113,-0.113 -0.085,-0.114 -0.114,-0.113 -0.085,-0.142 -0.085,-0.113 -0.085,-0.142 -0.057,-0.142 -0.085,-0.141 -0.056,-0.142 -0.057,-0.142 -0.057,-0.142 -0.028,-0.141 -0.057,-0.142 -0.028,-0.17 v -0.142 l -0.028,-0.17 v -0.142 -0.17 -0.141 -0.142 l 0.028,-0.17 v -0.142 l 0.028,-0.17 0.057,-0.142 0.028,-0.142 0.057,-0.141 0.057,-0.142 0.056,-0.142 0.085,-0.141 0.057,-0.142 0.085,-0.142 0.085,-0.113 0.085,-0.142 0.114,-0.113 0.085,-0.114 0.113,-0.113 0.113,-0.114 0.114,-0.085 0.113,-0.113 0.142,-0.085 0.113,-0.085 0.142,-0.085 0.142,-0.057 0.141,-0.085 0.142,-0.057 0.142,-0.056 0.142,-0.057 0.141,-0.028 0.142,-0.057 0.17,-0.028 h 0.142 l 0.17,-0.029 h 0.142 l 0.17,-0.028 0.142,0.028 h 0.141 l 0.17,0.029 h 0.142 l 0.17,0.028 0.142,0.057 0.142,0.028 0.141,0.057 0.142,0.056 0.142,0.057 0.142,0.085 0.141,0.057 0.142,0.085 0.113,0.085 0.142,0.085 0.114,0.113 0.113,0.085 0.113,0.114 0.114,0.113 0.085,0.114 0.113,0.113 0.085,0.142 0.085,0.113 0.085,0.142 0.057,0.142 0.085,0.141 0.057,0.142 0.056,0.142 0.057,0.141 0.028,0.142 0.057,0.142 0.028,0.17 v 0.142 l 0.029,0.17 v 0.142 z" /><g
       id="g150"><path
         id="path152"
         style="fill:none;stroke:#ff420e;stroke-width:0.75;stroke-linecap:butt;stroke-linejoin:round;stroke-miterlimit:10;stroke-dasharray:none;stroke-opacity:1"
         d="m 145.729,224.333 -0.028,0.17 v 0.142 l -0.029,0.17 v 0.142 l -0.028,0.17 -0.057,0.142 -0.028,0.141 -0.057,0.142 -0.056,0.142 -0.057,0.142 -0.085,0.141 -0.057,0.142 -0.085,0.142 -0.085,0.113 -0.085,0.142 -0.113,0.113 -0.085,0.114 -0.114,0.113 -0.113,0.113 -0.113,0.086 -0.114,0.113 -0.142,0.085 -0.113,0.085 -0.142,0.085 -0.141,0.057 -0.142,0.085 -0.142,0.056 -0.142,0.057 -0.141,0.057 -0.142,0.028 -0.142,0.057 -0.17,0.028 h -0.142 l -0.17,0.029 h -0.141 -0.142 -0.17 -0.142 l -0.17,-0.029 h -0.142 l -0.17,-0.028 -0.142,-0.057 -0.141,-0.028 -0.142,-0.057 -0.142,-0.057 -0.142,-0.056 -0.141,-0.085 -0.142,-0.057 -0.142,-0.085 -0.113,-0.085 -0.142,-0.085 -0.113,-0.113 -0.114,-0.086 -0.113,-0.113 -0.113,-0.113 -0.085,-0.114 -0.114,-0.113 -0.085,-0.142 -0.085,-0.113 -0.085,-0.142 -0.057,-0.142 -0.085,-0.141 -0.056,-0.142 -0.057,-0.142 -0.057,-0.142 -0.028,-0.141 -0.057,-0.142 -0.028,-0.17 v -0.142 l -0.028,-0.17 v -0.142 -0.17 -0.141 -0.142 l 0.028,-0.17 v -0.142 l 0.028,-0.17 0.057,-0.142 0.028,-0.142 0.057,-0.141 0.057,-0.142 0.056,-0.142 0.085,-0.141 0.057,-0.142 0.085,-0.142 0.085,-0.113 0.085,-0.142 0.114,-0.113 0.085,-0.114 0.113,-0.113 0.113,-0.114 0.114,-0.085 0.113,-0.113 0.142,-0.085 0.113,-0.085 0.142,-0.085 0.142,-0.057 0.141,-0.085 0.142,-0.057 0.142,-0.056 0.142,-0.057 0.141,-0.028 0.142,-0.057 0.17,-0.028 h 0.142 l 0.17,-0.029 h 0.142 l 0.17,-0.028 0.142,0.028 h 0.141 l 0.17,0.029 h 0.142 l 0.17,0.028 0.142,0.057 0.142,0.028 0.141,0.057 0.142,0.056 0.142,0.057 0.142,0.085 0.141,0.057 0.142,0.085 0.113,0.085 0.142,0.085 0.114,0.113 0.113,0.085 0.113,0.114 0.114,0.113 0.085,0.114 0.113,0.113 0.085,0.142 0.085,0.113 0.085,0.142 0.057,0.142 0.085,0.141 0.057,0.142 0.056,0.142 0.057,0.141 0.028,0.142 0.057,0.142 0.028,0.17 v 0.142 l 0.029,0.17 v 0.142 z" /></g><path
       id="path154"
       style="fill:#ff420e;fill-opacity:1;fill-rule:evenodd;stroke:none"
       d="m 340.016,321.76 -0.029,0.142 v 0.17 l -0.028,0.142 v 0.141 l -0.028,0.17 -0.057,0.142 -0.028,0.142 -0.057,0.142 -0.057,0.17 -0.056,0.141 -0.085,0.114 -0.057,0.142 -0.085,0.141 -0.085,0.114 -0.085,0.141 -0.114,0.114 -0.085,0.113 -0.113,0.114 -0.113,0.113 -0.114,0.085 -0.113,0.113 -0.142,0.085 -0.113,0.085 -0.142,0.085 -0.142,0.085 -0.142,0.057 -0.141,0.057 -0.142,0.057 -0.142,0.056 -0.141,0.029 -0.142,0.056 -0.17,0.029 -0.142,0.028 h -0.17 l -0.142,0.028 h -0.142 -0.17 l -0.141,-0.028 h -0.17 l -0.142,-0.028 -0.17,-0.029 -0.142,-0.056 -0.142,-0.029 -0.141,-0.056 -0.142,-0.057 -0.142,-0.057 -0.142,-0.057 -0.141,-0.085 -0.142,-0.085 -0.114,-0.085 -0.141,-0.085 -0.114,-0.113 -0.113,-0.085 -0.113,-0.113 -0.114,-0.114 -0.085,-0.113 -0.113,-0.114 -0.085,-0.141 -0.085,-0.114 -0.085,-0.141 -0.057,-0.142 -0.085,-0.114 -0.057,-0.141 -0.056,-0.17 -0.057,-0.142 -0.028,-0.142 -0.057,-0.142 -0.029,-0.17 v -0.141 l -0.028,-0.142 v -0.17 -0.142 -0.17 -0.142 l 0.028,-0.17 v -0.142 l 0.029,-0.141 0.057,-0.17 0.028,-0.142 0.057,-0.142 0.056,-0.142 0.057,-0.141 0.085,-0.142 0.057,-0.142 0.085,-0.113 0.085,-0.142 0.085,-0.113 0.113,-0.142 0.085,-0.113 0.114,-0.114 0.113,-0.085 0.113,-0.113 0.114,-0.085 0.141,-0.114 0.114,-0.085 0.142,-0.085 0.141,-0.056 0.142,-0.085 0.142,-0.057 0.142,-0.057 0.141,-0.057 0.142,-0.028 0.142,-0.028 0.17,-0.029 0.142,-0.028 0.17,-0.028 h 0.141 0.17 0.142 0.142 l 0.17,0.028 0.142,0.028 0.17,0.029 0.142,0.028 0.141,0.028 0.142,0.057 0.142,0.057 0.141,0.057 0.142,0.085 0.142,0.056 0.142,0.085 0.113,0.085 0.142,0.114 0.113,0.085 0.114,0.113 0.113,0.085 0.113,0.114 0.085,0.113 0.114,0.142 0.085,0.113 0.085,0.142 0.085,0.113 0.057,0.142 0.085,0.142 0.056,0.141 0.057,0.142 0.057,0.142 0.028,0.142 0.057,0.17 0.028,0.141 v 0.142 l 0.028,0.17 v 0.142 z" /><g
       id="g156"><path
         id="path158"
         style="fill:none;stroke:#ff420e;stroke-width:0.75;stroke-linecap:butt;stroke-linejoin:round;stroke-miterlimit:10;stroke-dasharray:none;stroke-opacity:1"
         d="m 340.016,321.76 -0.029,0.142 v 0.17 l -0.028,0.142 v 0.141 l -0.028,0.17 -0.057,0.142 -0.028,0.142 -0.057,0.142 -0.057,0.17 -0.056,0.141 -0.085,0.114 -0.057,0.142 -0.085,0.141 -0.085,0.114 -0.085,0.141 -0.114,0.114 -0.085,0.113 -0.113,0.114 -0.113,0.113 -0.114,0.085 -0.113,0.113 -0.142,0.085 -0.113,0.085 -0.142,0.085 -0.142,0.085 -0.142,0.057 -0.141,0.057 -0.142,0.057 -0.142,0.056 -0.141,0.029 -0.142,0.056 -0.17,0.029 -0.142,0.028 h -0.17 l -0.142,0.028 h -0.142 -0.17 l -0.141,-0.028 h -0.17 l -0.142,-0.028 -0.17,-0.029 -0.142,-0.056 -0.142,-0.029 -0.141,-0.056 -0.142,-0.057 -0.142,-0.057 -0.142,-0.057 -0.141,-0.085 -0.142,-0.085 -0.114,-0.085 -0.141,-0.085 -0.114,-0.113 -0.113,-0.085 -0.113,-0.113 -0.114,-0.114 -0.085,-0.113 -0.113,-0.114 -0.085,-0.141 -0.085,-0.114 -0.085,-0.141 -0.057,-0.142 -0.085,-0.114 -0.057,-0.141 -0.056,-0.17 -0.057,-0.142 -0.028,-0.142 -0.057,-0.142 -0.029,-0.17 v -0.141 l -0.028,-0.142 v -0.17 -0.142 -0.17 -0.142 l 0.028,-0.17 v -0.142 l 0.029,-0.141 0.057,-0.17 0.028,-0.142 0.057,-0.142 0.056,-0.142 0.057,-0.141 0.085,-0.142 0.057,-0.142 0.085,-0.113 0.085,-0.142 0.085,-0.113 0.113,-0.142 0.085,-0.113 0.114,-0.114 0.113,-0.085 0.113,-0.113 0.114,-0.085 0.141,-0.114 0.114,-0.085 0.142,-0.085 0.141,-0.056 0.142,-0.085 0.142,-0.057 0.142,-0.057 0.141,-0.057 0.142,-0.028 0.142,-0.028 0.17,-0.029 0.142,-0.028 0.17,-0.028 h 0.141 0.17 0.142 0.142 l 0.17,0.028 0.142,0.028 0.17,0.029 0.142,0.028 0.141,0.028 0.142,0.057 0.142,0.057 0.141,0.057 0.142,0.085 0.142,0.056 0.142,0.085 0.113,0.085 0.142,0.114 0.113,0.085 0.114,0.113 0.113,0.085 0.113,0.114 0.085,0.113 0.114,0.142 0.085,0.113 0.085,0.142 0.085,0.113 0.057,0.142 0.085,0.142 0.056,0.141 0.057,0.142 0.057,0.142 0.028,0.142 0.057,0.17 0.028,0.141 v 0.142 l 0.028,0.17 v 0.142 z" /></g><path
       id="path160"
       style="fill:#ff420e;fill-opacity:1;fill-rule:evenodd;stroke:none"
       d="m 534.274,474.179 -0.028,0.17 v 0.142 l -0.029,0.141 v 0.171 l -0.028,0.141 -0.057,0.142 -0.028,0.17 -0.057,0.142 -0.056,0.142 -0.057,0.141 -0.085,0.142 -0.057,0.142 -0.085,0.113 -0.085,0.142 -0.085,0.113 -0.113,0.114 -0.085,0.141 -0.114,0.085 -0.113,0.114 -0.114,0.113 -0.113,0.085 -0.142,0.085 -0.113,0.114 -0.142,0.056 -0.142,0.085 -0.141,0.057 -0.142,0.085 -0.142,0.057 -0.141,0.028 -0.142,0.057 -0.142,0.028 -0.17,0.029 -0.142,0.028 -0.17,0.028 h -0.142 -0.141 -0.17 -0.142 l -0.17,-0.028 -0.142,-0.028 -0.17,-0.029 -0.142,-0.028 -0.141,-0.057 -0.142,-0.028 -0.142,-0.057 -0.142,-0.085 -0.141,-0.057 -0.142,-0.085 -0.142,-0.056 -0.113,-0.114 -0.142,-0.085 -0.113,-0.085 -0.114,-0.113 -0.113,-0.114 -0.114,-0.085 -0.085,-0.141 -0.113,-0.114 -0.085,-0.113 -0.085,-0.142 -0.085,-0.113 -0.057,-0.142 -0.085,-0.142 -0.056,-0.141 -0.057,-0.142 -0.057,-0.142 -0.028,-0.17 -0.057,-0.142 -0.028,-0.141 v -0.171 l -0.029,-0.141 v -0.142 -0.17 -0.142 -0.17 l 0.029,-0.142 v -0.17 l 0.028,-0.141 0.057,-0.142 0.028,-0.142 0.057,-0.17 0.057,-0.142 0.056,-0.141 0.085,-0.142 0.057,-0.114 0.085,-0.141 0.085,-0.142 0.085,-0.113 0.113,-0.114 0.085,-0.113 0.114,-0.114 0.113,-0.113 0.114,-0.113 0.113,-0.085 0.142,-0.085 0.113,-0.085 0.142,-0.085 0.142,-0.086 0.141,-0.056 0.142,-0.057 0.142,-0.057 0.142,-0.056 0.141,-0.057 0.142,-0.028 0.17,-0.029 0.142,-0.028 h 0.17 l 0.142,-0.028 h 0.17 0.141 l 0.142,0.028 h 0.17 l 0.142,0.028 0.17,0.029 0.142,0.028 0.142,0.057 0.141,0.056 0.142,0.057 0.142,0.057 0.141,0.056 0.142,0.086 0.142,0.085 0.113,0.085 0.142,0.085 0.113,0.085 0.114,0.113 0.113,0.113 0.114,0.114 0.085,0.113 0.113,0.114 0.085,0.113 0.085,0.142 0.085,0.141 0.057,0.114 0.085,0.142 0.057,0.141 0.056,0.142 0.057,0.17 0.028,0.142 0.057,0.142 0.028,0.141 v 0.17 l 0.029,0.142 v 0.17 z" /><g
       id="g162"><path
         id="path164"
         style="fill:none;stroke:#ff420e;stroke-width:0.75;stroke-linecap:butt;stroke-linejoin:round;stroke-miterlimit:10;stroke-dasharray:none;stroke-opacity:1"
         d="m 534.274,474.179 -0.028,0.17 v 0.142 l -0.029,0.141 v 0.171 l -0.028,0.141 -0.057,0.142 -0.028,0.17 -0.057,0.142 -0.056,0.142 -0.057,0.141 -0.085,0.142 -0.057,0.142 -0.085,0.113 -0.085,0.142 -0.085,0.113 -0.113,0.114 -0.085,0.141 -0.114,0.085 -0.113,0.114 -0.114,0.113 -0.113,0.085 -0.142,0.085 -0.113,0.114 -0.142,0.056 -0.142,0.085 -0.141,0.057 -0.142,0.085 -0.142,0.057 -0.141,0.028 -0.142,0.057 -0.142,0.028 -0.17,0.029 -0.142,0.028 -0.17,0.028 h -0.142 -0.141 -0.17 -0.142 l -0.17,-0.028 -0.142,-0.028 -0.17,-0.029 -0.142,-0.028 -0.141,-0.057 -0.142,-0.028 -0.142,-0.057 -0.142,-0.085 -0.141,-0.057 -0.142,-0.085 -0.142,-0.056 -0.113,-0.114 -0.142,-0.085 -0.113,-0.085 -0.114,-0.113 -0.113,-0.114 -0.114,-0.085 -0.085,-0.141 -0.113,-0.114 -0.085,-0.113 -0.085,-0.142 -0.085,-0.113 -0.057,-0.142 -0.085,-0.142 -0.056,-0.141 -0.057,-0.142 -0.057,-0.142 -0.028,-0.17 -0.057,-0.142 -0.028,-0.141 v -0.171 l -0.029,-0.141 v -0.142 -0.17 -0.142 -0.17 l 0.029,-0.142 v -0.17 l 0.028,-0.141 0.057,-0.142 0.028,-0.142 0.057,-0.17 0.057,-0.142 0.056,-0.141 0.085,-0.142 0.057,-0.114 0.085,-0.141 0.085,-0.142 0.085,-0.113 0.113,-0.114 0.085,-0.113 0.114,-0.114 0.113,-0.113 0.114,-0.113 0.113,-0.085 0.142,-0.085 0.113,-0.085 0.142,-0.085 0.142,-0.086 0.141,-0.056 0.142,-0.057 0.142,-0.057 0.142,-0.056 0.141,-0.057 0.142,-0.028 0.17,-0.029 0.142,-0.028 h 0.17 l 0.142,-0.028 h 0.17 0.141 l 0.142,0.028 h 0.17 l 0.142,0.028 0.17,0.029 0.142,0.028 0.142,0.057 0.141,0.056 0.142,0.057 0.142,0.057 0.141,0.056 0.142,0.086 0.142,0.085 0.113,0.085 0.142,0.085 0.113,0.085 0.114,0.113 0.113,0.113 0.114,0.114 0.085,0.113 0.113,0.114 0.085,0.113 0.085,0.142 0.085,0.141 0.057,0.114 0.085,0.142 0.057,0.141 0.056,0.142 0.057,0.17 0.028,0.142 0.057,0.142 0.028,0.141 v 0.17 l 0.029,0.142 v 0.17 z" /></g><g
       id="g166"><path
         id="path168"
         style="fill:none;stroke:#83caff;stroke-width:2.9762001;stroke-linecap:butt;stroke-linejoin:round;stroke-miterlimit:10;stroke-dasharray:none;stroke-opacity:1"
         d="m 142.186,224.333 9.694,0.879 9.723,0.907 9.723,0.907 9.694,0.936 9.723,0.963 9.723,1.021 9.695,1.105 9.722,1.163 9.723,1.247 9.723,1.332 9.695,1.446 9.722,1.559 9.723,1.672 9.695,1.814 9.723,1.985 9.722,2.097 9.695,2.296 9.723,2.438 9.723,2.636 9.722,2.835 9.695,3.061 9.723,3.232 9.723,3.402 9.694,3.6 9.723,3.77 9.723,3.911 9.694,4.054 9.695,4.195 9.723,4.337 9.722,4.422 9.695,4.536 9.723,4.649 9.723,4.705 9.694,4.791 9.723,4.847 9.723,4.875 9.694,4.933 9.723,4.96 9.723,4.989 9.723,4.989" /></g><path
       id="path170"
       style="fill:#83caff;fill-opacity:1;fill-rule:evenodd;stroke:none"
       d="m 145.729,224.333 -0.028,0.17 v 0.142 l -0.029,0.17 v 0.142 l -0.028,0.17 -0.057,0.142 -0.028,0.141 -0.057,0.142 -0.056,0.142 -0.057,0.142 -0.085,0.141 -0.057,0.142 -0.085,0.142 -0.085,0.113 -0.085,0.142 -0.113,0.113 -0.085,0.114 -0.114,0.113 -0.113,0.113 -0.113,0.086 -0.114,0.113 -0.142,0.085 -0.113,0.085 -0.142,0.085 -0.141,0.057 -0.142,0.085 -0.142,0.056 -0.142,0.057 -0.141,0.057 -0.142,0.028 -0.142,0.057 -0.17,0.028 h -0.142 l -0.17,0.029 h -0.141 -0.142 -0.17 -0.142 l -0.17,-0.029 h -0.142 l -0.17,-0.028 -0.142,-0.057 -0.141,-0.028 -0.142,-0.057 -0.142,-0.057 -0.142,-0.056 -0.141,-0.085 -0.142,-0.057 -0.142,-0.085 -0.113,-0.085 -0.142,-0.085 -0.113,-0.113 -0.114,-0.086 -0.113,-0.113 -0.113,-0.113 -0.085,-0.114 -0.114,-0.113 -0.085,-0.142 -0.085,-0.113 -0.085,-0.142 -0.057,-0.142 -0.085,-0.141 -0.056,-0.142 -0.057,-0.142 -0.057,-0.142 -0.028,-0.141 -0.057,-0.142 -0.028,-0.17 v -0.142 l -0.028,-0.17 v -0.142 -0.17 -0.141 -0.142 l 0.028,-0.17 v -0.142 l 0.028,-0.17 0.057,-0.142 0.028,-0.142 0.057,-0.141 0.057,-0.142 0.056,-0.142 0.085,-0.141 0.057,-0.142 0.085,-0.142 0.085,-0.113 0.085,-0.142 0.114,-0.113 0.085,-0.114 0.113,-0.113 0.113,-0.114 0.114,-0.085 0.113,-0.113 0.142,-0.085 0.113,-0.085 0.142,-0.085 0.142,-0.057 0.141,-0.085 0.142,-0.057 0.142,-0.056 0.142,-0.057 0.141,-0.028 0.142,-0.057 0.17,-0.028 h 0.142 l 0.17,-0.029 h 0.142 l 0.17,-0.028 0.142,0.028 h 0.141 l 0.17,0.029 h 0.142 l 0.17,0.028 0.142,0.057 0.142,0.028 0.141,0.057 0.142,0.056 0.142,0.057 0.142,0.085 0.141,0.057 0.142,0.085 0.113,0.085 0.142,0.085 0.114,0.113 0.113,0.085 0.113,0.114 0.114,0.113 0.085,0.114 0.113,0.113 0.085,0.142 0.085,0.113 0.085,0.142 0.057,0.142 0.085,0.141 0.057,0.142 0.056,0.142 0.057,0.141 0.028,0.142 0.057,0.142 0.028,0.17 v 0.142 l 0.029,0.17 v 0.142 z" /><g
       id="g172"><path
         id="path174"
         style="fill:none;stroke:#83caff;stroke-width:0.75;stroke-linecap:butt;stroke-linejoin:round;stroke-miterlimit:10;stroke-dasharray:none;stroke-opacity:1"
         d="m 145.729,224.333 -0.028,0.17 v 0.142 l -0.029,0.17 v 0.142 l -0.028,0.17 -0.057,0.142 -0.028,0.141 -0.057,0.142 -0.056,0.142 -0.057,0.142 -0.085,0.141 -0.057,0.142 -0.085,0.142 -0.085,0.113 -0.085,0.142 -0.113,0.113 -0.085,0.114 -0.114,0.113 -0.113,0.113 -0.113,0.086 -0.114,0.113 -0.142,0.085 -0.113,0.085 -0.142,0.085 -0.141,0.057 -0.142,0.085 -0.142,0.056 -0.142,0.057 -0.141,0.057 -0.142,0.028 -0.142,0.057 -0.17,0.028 h -0.142 l -0.17,0.029 h -0.141 -0.142 -0.17 -0.142 l -0.17,-0.029 h -0.142 l -0.17,-0.028 -0.142,-0.057 -0.141,-0.028 -0.142,-0.057 -0.142,-0.057 -0.142,-0.056 -0.141,-0.085 -0.142,-0.057 -0.142,-0.085 -0.113,-0.085 -0.142,-0.085 -0.113,-0.113 -0.114,-0.086 -0.113,-0.113 -0.113,-0.113 -0.085,-0.114 -0.114,-0.113 -0.085,-0.142 -0.085,-0.113 -0.085,-0.142 -0.057,-0.142 -0.085,-0.141 -0.056,-0.142 -0.057,-0.142 -0.057,-0.142 -0.028,-0.141 -0.057,-0.142 -0.028,-0.17 v -0.142 l -0.028,-0.17 v -0.142 -0.17 -0.141 -0.142 l 0.028,-0.17 v -0.142 l 0.028,-0.17 0.057,-0.142 0.028,-0.142 0.057,-0.141 0.057,-0.142 0.056,-0.142 0.085,-0.141 0.057,-0.142 0.085,-0.142 0.085,-0.113 0.085,-0.142 0.114,-0.113 0.085,-0.114 0.113,-0.113 0.113,-0.114 0.114,-0.085 0.113,-0.113 0.142,-0.085 0.113,-0.085 0.142,-0.085 0.142,-0.057 0.141,-0.085 0.142,-0.057 0.142,-0.056 0.142,-0.057 0.141,-0.028 0.142,-0.057 0.17,-0.028 h 0.142 l 0.17,-0.029 h 0.142 l 0.17,-0.028 0.142,0.028 h 0.141 l 0.17,0.029 h 0.142 l 0.17,0.028 0.142,0.057 0.142,0.028 0.141,0.057 0.142,0.056 0.142,0.057 0.142,0.085 0.141,0.057 0.142,0.085 0.113,0.085 0.142,0.085 0.114,0.113 0.113,0.085 0.113,0.114 0.114,0.113 0.085,0.114 0.113,0.113 0.085,0.142 0.085,0.113 0.085,0.142 0.057,0.142 0.085,0.141 0.057,0.142 0.056,0.142 0.057,0.141 0.028,0.142 0.057,0.142 0.028,0.17 v 0.142 l 0.029,0.17 v 0.142 z" /></g><path
       id="path176"
       style="fill:#83caff;fill-opacity:1;fill-rule:evenodd;stroke:none"
       d="m 340.016,255.571 -0.029,0.17 v 0.142 l -0.028,0.17 v 0.142 l -0.028,0.141 -0.057,0.17 -0.028,0.142 -0.057,0.142 -0.057,0.142 -0.056,0.141 -0.085,0.142 -0.057,0.142 -0.085,0.113 -0.085,0.142 -0.085,0.113 -0.114,0.142 -0.085,0.114 -0.113,0.113 -0.113,0.085 -0.114,0.113 -0.113,0.085 -0.142,0.114 -0.113,0.085 -0.142,0.085 -0.142,0.057 -0.142,0.085 -0.141,0.056 -0.142,0.057 -0.142,0.057 -0.141,0.028 -0.142,0.028 -0.17,0.029 -0.142,0.028 -0.17,0.028 h -0.142 -0.142 -0.17 -0.141 l -0.17,-0.028 -0.142,-0.028 -0.17,-0.029 -0.142,-0.028 -0.142,-0.028 -0.141,-0.057 -0.142,-0.057 -0.142,-0.056 -0.142,-0.085 -0.141,-0.057 -0.142,-0.085 -0.114,-0.085 -0.141,-0.114 -0.114,-0.085 -0.113,-0.113 -0.113,-0.085 -0.114,-0.113 -0.085,-0.114 -0.113,-0.142 -0.085,-0.113 -0.085,-0.142 -0.085,-0.113 -0.057,-0.142 -0.085,-0.142 -0.057,-0.141 -0.056,-0.142 -0.057,-0.142 -0.028,-0.142 -0.057,-0.17 -0.029,-0.141 v -0.142 l -0.028,-0.17 v -0.142 -0.17 -0.142 -0.17 l 0.028,-0.141 v -0.142 l 0.029,-0.17 0.057,-0.142 0.028,-0.142 0.057,-0.141 0.056,-0.171 0.057,-0.141 0.085,-0.114 0.057,-0.141 0.085,-0.142 0.085,-0.114 0.085,-0.141 0.113,-0.114 0.085,-0.113 0.114,-0.113 0.113,-0.114 0.113,-0.085 0.114,-0.113 0.141,-0.085 0.114,-0.085 0.142,-0.085 0.141,-0.085 0.142,-0.057 0.142,-0.057 0.142,-0.056 0.141,-0.057 0.142,-0.029 0.142,-0.056 0.17,-0.029 0.142,-0.028 h 0.17 l 0.141,-0.028 h 0.17 0.142 l 0.142,0.028 h 0.17 l 0.142,0.028 0.17,0.029 0.142,0.056 0.141,0.029 0.142,0.057 0.142,0.056 0.141,0.057 0.142,0.057 0.142,0.085 0.142,0.085 0.113,0.085 0.142,0.085 0.113,0.113 0.114,0.085 0.113,0.114 0.113,0.113 0.085,0.113 0.114,0.114 0.085,0.141 0.085,0.114 0.085,0.142 0.057,0.141 0.085,0.114 0.056,0.141 0.057,0.171 0.057,0.141 0.028,0.142 0.057,0.142 0.028,0.17 v 0.142 l 0.028,0.141 v 0.17 z" /><g
       id="g178"><path
         id="path180"
         style="fill:none;stroke:#83caff;stroke-width:0.75;stroke-linecap:butt;stroke-linejoin:round;stroke-miterlimit:10;stroke-dasharray:none;stroke-opacity:1"
         d="m 340.016,255.571 -0.029,0.17 v 0.142 l -0.028,0.17 v 0.142 l -0.028,0.141 -0.057,0.17 -0.028,0.142 -0.057,0.142 -0.057,0.142 -0.056,0.141 -0.085,0.142 -0.057,0.142 -0.085,0.113 -0.085,0.142 -0.085,0.113 -0.114,0.142 -0.085,0.114 -0.113,0.113 -0.113,0.085 -0.114,0.113 -0.113,0.085 -0.142,0.114 -0.113,0.085 -0.142,0.085 -0.142,0.057 -0.142,0.085 -0.141,0.056 -0.142,0.057 -0.142,0.057 -0.141,0.028 -0.142,0.028 -0.17,0.029 -0.142,0.028 -0.17,0.028 h -0.142 -0.142 -0.17 -0.141 l -0.17,-0.028 -0.142,-0.028 -0.17,-0.029 -0.142,-0.028 -0.142,-0.028 -0.141,-0.057 -0.142,-0.057 -0.142,-0.056 -0.142,-0.085 -0.141,-0.057 -0.142,-0.085 -0.114,-0.085 -0.141,-0.114 -0.114,-0.085 -0.113,-0.113 -0.113,-0.085 -0.114,-0.113 -0.085,-0.114 -0.113,-0.142 -0.085,-0.113 -0.085,-0.142 -0.085,-0.113 -0.057,-0.142 -0.085,-0.142 -0.057,-0.141 -0.056,-0.142 -0.057,-0.142 -0.028,-0.142 -0.057,-0.17 -0.029,-0.141 v -0.142 l -0.028,-0.17 v -0.142 -0.17 -0.142 -0.17 l 0.028,-0.141 v -0.142 l 0.029,-0.17 0.057,-0.142 0.028,-0.142 0.057,-0.141 0.056,-0.171 0.057,-0.141 0.085,-0.114 0.057,-0.141 0.085,-0.142 0.085,-0.114 0.085,-0.141 0.113,-0.114 0.085,-0.113 0.114,-0.113 0.113,-0.114 0.113,-0.085 0.114,-0.113 0.141,-0.085 0.114,-0.085 0.142,-0.085 0.141,-0.085 0.142,-0.057 0.142,-0.057 0.142,-0.056 0.141,-0.057 0.142,-0.029 0.142,-0.056 0.17,-0.029 0.142,-0.028 h 0.17 l 0.141,-0.028 h 0.17 0.142 l 0.142,0.028 h 0.17 l 0.142,0.028 0.17,0.029 0.142,0.056 0.141,0.029 0.142,0.057 0.142,0.056 0.141,0.057 0.142,0.057 0.142,0.085 0.142,0.085 0.113,0.085 0.142,0.085 0.113,0.113 0.114,0.085 0.113,0.114 0.113,0.113 0.085,0.113 0.114,0.114 0.085,0.141 0.085,0.114 0.085,0.142 0.057,0.141 0.085,0.114 0.056,0.141 0.057,0.171 0.057,0.141 0.028,0.142 0.057,0.142 0.028,0.17 v 0.142 l 0.028,0.141 v 0.17 z" /></g><path
       id="path182"
       style="fill:#83caff;fill-opacity:1;fill-rule:evenodd;stroke:none"
       d="m 534.274,341.829 -0.028,0.17 v 0.142 l -0.029,0.17 v 0.142 l -0.028,0.142 -0.057,0.17 -0.028,0.141 -0.057,0.142 -0.056,0.142 -0.057,0.142 -0.085,0.141 -0.057,0.142 -0.085,0.142 -0.085,0.113 -0.085,0.114 -0.113,0.141 -0.085,0.114 -0.114,0.113 -0.113,0.114 -0.114,0.085 -0.113,0.113 -0.142,0.085 -0.113,0.085 -0.142,0.085 -0.142,0.057 -0.141,0.085 -0.142,0.057 -0.142,0.056 -0.141,0.057 -0.142,0.028 -0.142,0.029 -0.17,0.028 -0.142,0.028 -0.17,0.029 h -0.142 -0.141 -0.17 -0.142 l -0.17,-0.029 -0.142,-0.028 -0.17,-0.028 -0.142,-0.029 -0.141,-0.028 -0.142,-0.057 -0.142,-0.056 -0.142,-0.057 -0.141,-0.085 -0.142,-0.057 -0.142,-0.085 -0.113,-0.085 -0.142,-0.085 -0.113,-0.113 -0.114,-0.085 -0.113,-0.114 -0.114,-0.113 -0.085,-0.114 -0.113,-0.141 -0.085,-0.114 -0.085,-0.113 -0.085,-0.142 -0.057,-0.142 -0.085,-0.141 -0.056,-0.142 -0.057,-0.142 -0.057,-0.142 -0.028,-0.141 -0.057,-0.17 -0.028,-0.142 v -0.142 l -0.029,-0.17 v -0.142 -0.17 -0.141 -0.17 l 0.029,-0.142 v -0.142 l 0.028,-0.17 0.057,-0.142 0.028,-0.141 0.057,-0.142 0.057,-0.142 0.056,-0.142 0.085,-0.141 0.057,-0.142 0.085,-0.142 0.085,-0.113 0.085,-0.142 0.113,-0.113 0.085,-0.114 0.114,-0.113 0.113,-0.114 0.114,-0.085 0.113,-0.113 0.142,-0.085 0.113,-0.085 0.142,-0.085 0.142,-0.085 0.141,-0.057 0.142,-0.057 0.142,-0.056 0.142,-0.057 0.141,-0.028 0.142,-0.057 0.17,-0.028 0.142,-0.029 h 0.17 l 0.142,-0.028 h 0.17 0.141 l 0.142,0.028 h 0.17 l 0.142,0.029 0.17,0.028 0.142,0.057 0.142,0.028 0.141,0.057 0.142,0.056 0.142,0.057 0.141,0.057 0.142,0.085 0.142,0.085 0.113,0.085 0.142,0.085 0.113,0.113 0.114,0.085 0.113,0.114 0.114,0.113 0.085,0.114 0.113,0.113 0.085,0.142 0.085,0.113 0.085,0.142 0.057,0.142 0.085,0.141 0.057,0.142 0.056,0.142 0.057,0.142 0.028,0.141 0.057,0.142 0.028,0.17 v 0.142 l 0.029,0.142 v 0.17 z" /><g
       id="g184"><path
         id="path186"
         style="fill:none;stroke:#83caff;stroke-width:0.75;stroke-linecap:butt;stroke-linejoin:round;stroke-miterlimit:10;stroke-dasharray:none;stroke-opacity:1"
         d="m 534.274,341.829 -0.028,0.17 v 0.142 l -0.029,0.17 v 0.142 l -0.028,0.142 -0.057,0.17 -0.028,0.141 -0.057,0.142 -0.056,0.142 -0.057,0.142 -0.085,0.141 -0.057,0.142 -0.085,0.142 -0.085,0.113 -0.085,0.114 -0.113,0.141 -0.085,0.114 -0.114,0.113 -0.113,0.114 -0.114,0.085 -0.113,0.113 -0.142,0.085 -0.113,0.085 -0.142,0.085 -0.142,0.057 -0.141,0.085 -0.142,0.057 -0.142,0.056 -0.141,0.057 -0.142,0.028 -0.142,0.029 -0.17,0.028 -0.142,0.028 -0.17,0.029 h -0.142 -0.141 -0.17 -0.142 l -0.17,-0.029 -0.142,-0.028 -0.17,-0.028 -0.142,-0.029 -0.141,-0.028 -0.142,-0.057 -0.142,-0.056 -0.142,-0.057 -0.141,-0.085 -0.142,-0.057 -0.142,-0.085 -0.113,-0.085 -0.142,-0.085 -0.113,-0.113 -0.114,-0.085 -0.113,-0.114 -0.114,-0.113 -0.085,-0.114 -0.113,-0.141 -0.085,-0.114 -0.085,-0.113 -0.085,-0.142 -0.057,-0.142 -0.085,-0.141 -0.056,-0.142 -0.057,-0.142 -0.057,-0.142 -0.028,-0.141 -0.057,-0.17 -0.028,-0.142 v -0.142 l -0.029,-0.17 v -0.142 -0.17 -0.141 -0.17 l 0.029,-0.142 v -0.142 l 0.028,-0.17 0.057,-0.142 0.028,-0.141 0.057,-0.142 0.057,-0.142 0.056,-0.142 0.085,-0.141 0.057,-0.142 0.085,-0.142 0.085,-0.113 0.085,-0.142 0.113,-0.113 0.085,-0.114 0.114,-0.113 0.113,-0.114 0.114,-0.085 0.113,-0.113 0.142,-0.085 0.113,-0.085 0.142,-0.085 0.142,-0.085 0.141,-0.057 0.142,-0.057 0.142,-0.056 0.142,-0.057 0.141,-0.028 0.142,-0.057 0.17,-0.028 0.142,-0.029 h 0.17 l 0.142,-0.028 h 0.17 0.141 l 0.142,0.028 h 0.17 l 0.142,0.029 0.17,0.028 0.142,0.057 0.142,0.028 0.141,0.057 0.142,0.056 0.142,0.057 0.141,0.057 0.142,0.085 0.142,0.085 0.113,0.085 0.142,0.085 0.113,0.113 0.114,0.085 0.113,0.114 0.114,0.113 0.085,0.114 0.113,0.113 0.085,0.142 0.085,0.113 0.085,0.142 0.057,0.142 0.085,0.141 0.057,0.142 0.056,0.142 0.057,0.142 0.028,0.141 0.057,0.142 0.028,0.17 v 0.142 l 0.029,0.142 v 0.17 z" /></g><g
       id="g188" /><g
       id="g190"><path
         id="path192"
         style="fill:none;stroke:#579d1c;stroke-width:2.9762001;stroke-linecap:butt;stroke-linejoin:round;stroke-miterlimit:10;stroke-dasharray:none;stroke-opacity:1"
         d="m 230.088,224.333 9.241,0.312 9.695,0.454 9.722,0.538 9.723,0.652 9.695,0.794 9.723,0.964 9.722,1.077 9.695,1.275 9.723,1.446 9.723,1.616 9.722,1.814 9.695,2.041 9.723,2.211 9.723,2.409 9.694,2.58 9.723,2.75 9.723,2.919 9.694,3.033 9.695,3.175 9.723,3.317 9.722,3.401 9.695,3.544 9.723,3.6 9.723,3.713 9.694,3.77 9.723,3.827 9.723,3.883 9.694,3.912 9.723,3.969 9.723,3.968 9.723,3.997" /></g><path
       id="path194"
       style="fill:#579d1c;fill-opacity:1;fill-rule:evenodd;stroke:none"
       d="m 145.729,224.333 -0.028,0.17 v 0.142 l -0.029,0.17 v 0.142 l -0.028,0.17 -0.057,0.142 -0.028,0.141 -0.057,0.142 -0.056,0.142 -0.057,0.142 -0.085,0.141 -0.057,0.142 -0.085,0.142 -0.085,0.113 -0.085,0.142 -0.113,0.113 -0.085,0.114 -0.114,0.113 -0.113,0.113 -0.113,0.086 -0.114,0.113 -0.142,0.085 -0.113,0.085 -0.142,0.085 -0.141,0.057 -0.142,0.085 -0.142,0.056 -0.142,0.057 -0.141,0.057 -0.142,0.028 -0.142,0.057 -0.17,0.028 h -0.142 l -0.17,0.029 h -0.141 -0.142 -0.17 -0.142 l -0.17,-0.029 h -0.142 l -0.17,-0.028 -0.142,-0.057 -0.141,-0.028 -0.142,-0.057 -0.142,-0.057 -0.142,-0.056 -0.141,-0.085 -0.142,-0.057 -0.142,-0.085 -0.113,-0.085 -0.142,-0.085 -0.113,-0.113 -0.114,-0.086 -0.113,-0.113 -0.113,-0.113 -0.085,-0.114 -0.114,-0.113 -0.085,-0.142 -0.085,-0.113 -0.085,-0.142 -0.057,-0.142 -0.085,-0.141 -0.056,-0.142 -0.057,-0.142 -0.057,-0.142 -0.028,-0.141 -0.057,-0.142 -0.028,-0.17 v -0.142 l -0.028,-0.17 v -0.142 -0.17 -0.141 -0.142 l 0.028,-0.17 v -0.142 l 0.028,-0.17 0.057,-0.142 0.028,-0.142 0.057,-0.141 0.057,-0.142 0.056,-0.142 0.085,-0.141 0.057,-0.142 0.085,-0.142 0.085,-0.113 0.085,-0.142 0.114,-0.113 0.085,-0.114 0.113,-0.113 0.113,-0.114 0.114,-0.085 0.113,-0.113 0.142,-0.085 0.113,-0.085 0.142,-0.085 0.142,-0.057 0.141,-0.085 0.142,-0.057 0.142,-0.056 0.142,-0.057 0.141,-0.028 0.142,-0.057 0.17,-0.028 h 0.142 l 0.17,-0.029 h 0.142 l 0.17,-0.028 0.142,0.028 h 0.141 l 0.17,0.029 h 0.142 l 0.17,0.028 0.142,0.057 0.142,0.028 0.141,0.057 0.142,0.056 0.142,0.057 0.142,0.085 0.141,0.057 0.142,0.085 0.113,0.085 0.142,0.085 0.114,0.113 0.113,0.085 0.113,0.114 0.114,0.113 0.085,0.114 0.113,0.113 0.085,0.142 0.085,0.113 0.085,0.142 0.057,0.142 0.085,0.141 0.057,0.142 0.056,0.142 0.057,0.141 0.028,0.142 0.057,0.142 0.028,0.17 v 0.142 l 0.029,0.17 v 0.142 z" /><g
       id="g196"><path
         id="path198"
         style="fill:none;stroke:#579d1c;stroke-width:0.75;stroke-linecap:butt;stroke-linejoin:round;stroke-miterlimit:10;stroke-dasharray:none;stroke-opacity:1"
         d="m 145.729,224.333 -0.028,0.17 v 0.142 l -0.029,0.17 v 0.142 l -0.028,0.17 -0.057,0.142 -0.028,0.141 -0.057,0.142 -0.056,0.142 -0.057,0.142 -0.085,0.141 -0.057,0.142 -0.085,0.142 -0.085,0.113 -0.085,0.142 -0.113,0.113 -0.085,0.114 -0.114,0.113 -0.113,0.113 -0.113,0.086 -0.114,0.113 -0.142,0.085 -0.113,0.085 -0.142,0.085 -0.141,0.057 -0.142,0.085 -0.142,0.056 -0.142,0.057 -0.141,0.057 -0.142,0.028 -0.142,0.057 -0.17,0.028 h -0.142 l -0.17,0.029 h -0.141 -0.142 -0.17 -0.142 l -0.17,-0.029 h -0.142 l -0.17,-0.028 -0.142,-0.057 -0.141,-0.028 -0.142,-0.057 -0.142,-0.057 -0.142,-0.056 -0.141,-0.085 -0.142,-0.057 -0.142,-0.085 -0.113,-0.085 -0.142,-0.085 -0.113,-0.113 -0.114,-0.086 -0.113,-0.113 -0.113,-0.113 -0.085,-0.114 -0.114,-0.113 -0.085,-0.142 -0.085,-0.113 -0.085,-0.142 -0.057,-0.142 -0.085,-0.141 -0.056,-0.142 -0.057,-0.142 -0.057,-0.142 -0.028,-0.141 -0.057,-0.142 -0.028,-0.17 v -0.142 l -0.028,-0.17 v -0.142 -0.17 -0.141 -0.142 l 0.028,-0.17 v -0.142 l 0.028,-0.17 0.057,-0.142 0.028,-0.142 0.057,-0.141 0.057,-0.142 0.056,-0.142 0.085,-0.141 0.057,-0.142 0.085,-0.142 0.085,-0.113 0.085,-0.142 0.114,-0.113 0.085,-0.114 0.113,-0.113 0.113,-0.114 0.114,-0.085 0.113,-0.113 0.142,-0.085 0.113,-0.085 0.142,-0.085 0.142,-0.057 0.141,-0.085 0.142,-0.057 0.142,-0.056 0.142,-0.057 0.141,-0.028 0.142,-0.057 0.17,-0.028 h 0.142 l 0.17,-0.029 h 0.142 l 0.17,-0.028 0.142,0.028 h 0.141 l 0.17,0.029 h 0.142 l 0.17,0.028 0.142,0.057 0.142,0.028 0.141,0.057 0.142,0.056 0.142,0.057 0.142,0.085 0.141,0.057 0.142,0.085 0.113,0.085 0.142,0.085 0.114,0.113 0.113,0.085 0.113,0.114 0.114,0.113 0.085,0.114 0.113,0.113 0.085,0.142 0.085,0.113 0.085,0.142 0.057,0.142 0.085,0.141 0.057,0.142 0.056,0.142 0.057,0.141 0.028,0.142 0.057,0.142 0.028,0.17 v 0.142 l 0.029,0.17 v 0.142 z" /></g><path
       id="path200"
       style="fill:#579d1c;fill-opacity:1;fill-rule:evenodd;stroke:none"
       d="m 340.016,235.275 -0.029,0.17 v 0.142 l -0.028,0.17 v 0.142 l -0.028,0.17 -0.057,0.141 -0.028,0.142 -0.057,0.142 -0.057,0.142 -0.056,0.141 -0.085,0.142 -0.057,0.142 -0.085,0.142 -0.085,0.113 -0.085,0.142 -0.114,0.113 -0.085,0.113 -0.113,0.114 -0.113,0.113 -0.114,0.085 -0.113,0.114 -0.142,0.085 -0.113,0.085 -0.142,0.085 -0.142,0.056 -0.142,0.085 -0.141,0.057 -0.142,0.057 -0.142,0.057 -0.141,0.028 -0.142,0.028 -0.17,0.057 h -0.142 l -0.17,0.028 h -0.142 -0.142 -0.17 -0.141 l -0.17,-0.028 h -0.142 l -0.17,-0.057 -0.142,-0.028 -0.142,-0.028 -0.141,-0.057 -0.142,-0.057 -0.142,-0.057 -0.142,-0.085 -0.141,-0.056 -0.142,-0.085 -0.114,-0.085 -0.141,-0.085 -0.114,-0.114 -0.113,-0.085 -0.113,-0.113 -0.114,-0.114 -0.085,-0.113 -0.113,-0.113 -0.085,-0.142 -0.085,-0.113 -0.085,-0.142 -0.057,-0.142 -0.085,-0.142 -0.057,-0.141 -0.056,-0.142 -0.057,-0.142 -0.028,-0.142 -0.057,-0.141 -0.029,-0.17 v -0.142 l -0.028,-0.17 v -0.142 -0.17 -0.142 -0.141 l 0.028,-0.171 v -0.141 l 0.029,-0.17 0.057,-0.142 0.028,-0.142 0.057,-0.142 0.056,-0.141 0.057,-0.142 0.085,-0.142 0.057,-0.141 0.085,-0.142 0.085,-0.114 0.085,-0.141 0.113,-0.114 0.085,-0.113 0.114,-0.113 0.113,-0.114 0.113,-0.085 0.114,-0.113 0.141,-0.085 0.114,-0.085 0.142,-0.085 0.141,-0.057 0.142,-0.085 0.142,-0.057 0.142,-0.057 0.141,-0.056 0.142,-0.029 0.142,-0.056 0.17,-0.029 h 0.142 l 0.17,-0.028 h 0.141 l 0.17,-0.028 0.142,0.028 h 0.142 l 0.17,0.028 h 0.142 l 0.17,0.029 0.142,0.056 0.141,0.029 0.142,0.056 0.142,0.057 0.141,0.057 0.142,0.085 0.142,0.057 0.142,0.085 0.113,0.085 0.142,0.085 0.113,0.113 0.114,0.085 0.113,0.114 0.113,0.113 0.085,0.113 0.114,0.114 0.085,0.141 0.085,0.114 0.085,0.142 0.057,0.141 0.085,0.142 0.056,0.142 0.057,0.141 0.057,0.142 0.028,0.142 0.057,0.142 0.028,0.17 v 0.141 l 0.028,0.171 v 0.141 z" /><g
       id="g202"><path
         id="path204"
         style="fill:none;stroke:#579d1c;stroke-width:0.75;stroke-linecap:butt;stroke-linejoin:round;stroke-miterlimit:10;stroke-dasharray:none;stroke-opacity:1"
         d="m 340.016,235.275 -0.029,0.17 v 0.142 l -0.028,0.17 v 0.142 l -0.028,0.17 -0.057,0.141 -0.028,0.142 -0.057,0.142 -0.057,0.142 -0.056,0.141 -0.085,0.142 -0.057,0.142 -0.085,0.142 -0.085,0.113 -0.085,0.142 -0.114,0.113 -0.085,0.113 -0.113,0.114 -0.113,0.113 -0.114,0.085 -0.113,0.114 -0.142,0.085 -0.113,0.085 -0.142,0.085 -0.142,0.056 -0.142,0.085 -0.141,0.057 -0.142,0.057 -0.142,0.057 -0.141,0.028 -0.142,0.028 -0.17,0.057 h -0.142 l -0.17,0.028 h -0.142 -0.142 -0.17 -0.141 l -0.17,-0.028 h -0.142 l -0.17,-0.057 -0.142,-0.028 -0.142,-0.028 -0.141,-0.057 -0.142,-0.057 -0.142,-0.057 -0.142,-0.085 -0.141,-0.056 -0.142,-0.085 -0.114,-0.085 -0.141,-0.085 -0.114,-0.114 -0.113,-0.085 -0.113,-0.113 -0.114,-0.114 -0.085,-0.113 -0.113,-0.113 -0.085,-0.142 -0.085,-0.113 -0.085,-0.142 -0.057,-0.142 -0.085,-0.142 -0.057,-0.141 -0.056,-0.142 -0.057,-0.142 -0.028,-0.142 -0.057,-0.141 -0.029,-0.17 v -0.142 l -0.028,-0.17 v -0.142 -0.17 -0.142 -0.141 l 0.028,-0.171 v -0.141 l 0.029,-0.17 0.057,-0.142 0.028,-0.142 0.057,-0.142 0.056,-0.141 0.057,-0.142 0.085,-0.142 0.057,-0.141 0.085,-0.142 0.085,-0.114 0.085,-0.141 0.113,-0.114 0.085,-0.113 0.114,-0.113 0.113,-0.114 0.113,-0.085 0.114,-0.113 0.141,-0.085 0.114,-0.085 0.142,-0.085 0.141,-0.057 0.142,-0.085 0.142,-0.057 0.142,-0.057 0.141,-0.056 0.142,-0.029 0.142,-0.056 0.17,-0.029 h 0.142 l 0.17,-0.028 h 0.141 l 0.17,-0.028 0.142,0.028 h 0.142 l 0.17,0.028 h 0.142 l 0.17,0.029 0.142,0.056 0.141,0.029 0.142,0.056 0.142,0.057 0.141,0.057 0.142,0.085 0.142,0.057 0.142,0.085 0.113,0.085 0.142,0.085 0.113,0.113 0.114,0.085 0.113,0.114 0.113,0.113 0.085,0.113 0.114,0.114 0.085,0.141 0.085,0.114 0.085,0.142 0.057,0.141 0.085,0.142 0.056,0.142 0.057,0.141 0.057,0.142 0.028,0.142 0.057,0.142 0.028,0.17 v 0.141 l 0.028,0.171 v 0.141 z" /></g><path
       id="path206"
       style="fill:#579d1c;fill-opacity:1;fill-rule:evenodd;stroke:none"
       d="m 534.274,301.294 -0.028,0.142 v 0.141 l -0.029,0.17 v 0.142 l -0.028,0.17 -0.057,0.142 -0.028,0.142 -0.057,0.141 -0.056,0.142 -0.057,0.142 -0.085,0.142 -0.057,0.141 -0.085,0.142 -0.085,0.113 -0.085,0.142 -0.113,0.114 -0.085,0.113 -0.114,0.113 -0.113,0.114 -0.114,0.085 -0.113,0.113 -0.142,0.085 -0.113,0.085 -0.142,0.085 -0.142,0.057 -0.141,0.085 -0.142,0.057 -0.142,0.056 -0.141,0.057 -0.142,0.028 -0.142,0.057 -0.17,0.029 -0.142,0.028 h -0.17 -0.142 l -0.141,0.028 -0.17,-0.028 h -0.142 -0.17 l -0.142,-0.028 -0.17,-0.029 -0.142,-0.057 -0.141,-0.028 -0.142,-0.057 -0.142,-0.056 -0.142,-0.057 -0.141,-0.085 -0.142,-0.057 -0.142,-0.085 -0.113,-0.085 -0.142,-0.085 -0.113,-0.113 -0.114,-0.085 -0.113,-0.114 -0.114,-0.113 -0.085,-0.113 -0.113,-0.114 -0.085,-0.142 -0.085,-0.113 -0.085,-0.142 -0.057,-0.141 -0.085,-0.142 -0.056,-0.142 -0.057,-0.142 -0.057,-0.141 -0.028,-0.142 -0.057,-0.142 -0.028,-0.17 v -0.142 l -0.029,-0.17 v -0.141 -0.142 -0.17 -0.142 l 0.029,-0.17 v -0.142 l 0.028,-0.141 0.057,-0.171 0.028,-0.141 0.057,-0.142 0.057,-0.142 0.056,-0.141 0.085,-0.142 0.057,-0.142 0.085,-0.142 0.085,-0.113 0.085,-0.113 0.113,-0.142 0.085,-0.114 0.114,-0.113 0.113,-0.113 0.114,-0.085 0.113,-0.114 0.142,-0.085 0.113,-0.085 0.142,-0.085 0.142,-0.057 0.141,-0.085 0.142,-0.056 0.142,-0.057 0.142,-0.057 0.141,-0.028 0.142,-0.028 0.17,-0.057 h 0.142 l 0.17,-0.028 h 0.142 0.17 0.141 0.142 l 0.17,0.028 h 0.142 l 0.17,0.057 0.142,0.028 0.142,0.028 0.141,0.057 0.142,0.057 0.142,0.056 0.141,0.085 0.142,0.057 0.142,0.085 0.113,0.085 0.142,0.085 0.113,0.114 0.114,0.085 0.113,0.113 0.114,0.113 0.085,0.114 0.113,0.142 0.085,0.113 0.085,0.113 0.085,0.142 0.057,0.142 0.085,0.142 0.057,0.141 0.056,0.142 0.057,0.142 0.028,0.141 0.057,0.171 0.028,0.141 v 0.142 l 0.029,0.17 v 0.142 z" /><g
       id="g208"><path
         id="path210"
         style="fill:none;stroke:#579d1c;stroke-width:0.75;stroke-linecap:butt;stroke-linejoin:round;stroke-miterlimit:10;stroke-dasharray:none;stroke-opacity:1"
         d="m 534.274,301.294 -0.028,0.142 v 0.141 l -0.029,0.17 v 0.142 l -0.028,0.17 -0.057,0.142 -0.028,0.142 -0.057,0.141 -0.056,0.142 -0.057,0.142 -0.085,0.142 -0.057,0.141 -0.085,0.142 -0.085,0.113 -0.085,0.142 -0.113,0.114 -0.085,0.113 -0.114,0.113 -0.113,0.114 -0.114,0.085 -0.113,0.113 -0.142,0.085 -0.113,0.085 -0.142,0.085 -0.142,0.057 -0.141,0.085 -0.142,0.057 -0.142,0.056 -0.141,0.057 -0.142,0.028 -0.142,0.057 -0.17,0.029 -0.142,0.028 h -0.17 -0.142 l -0.141,0.028 -0.17,-0.028 h -0.142 -0.17 l -0.142,-0.028 -0.17,-0.029 -0.142,-0.057 -0.141,-0.028 -0.142,-0.057 -0.142,-0.056 -0.142,-0.057 -0.141,-0.085 -0.142,-0.057 -0.142,-0.085 -0.113,-0.085 -0.142,-0.085 -0.113,-0.113 -0.114,-0.085 -0.113,-0.114 -0.114,-0.113 -0.085,-0.113 -0.113,-0.114 -0.085,-0.142 -0.085,-0.113 -0.085,-0.142 -0.057,-0.141 -0.085,-0.142 -0.056,-0.142 -0.057,-0.142 -0.057,-0.141 -0.028,-0.142 -0.057,-0.142 -0.028,-0.17 v -0.142 l -0.029,-0.17 v -0.141 -0.142 -0.17 -0.142 l 0.029,-0.17 v -0.142 l 0.028,-0.141 0.057,-0.171 0.028,-0.141 0.057,-0.142 0.057,-0.142 0.056,-0.141 0.085,-0.142 0.057,-0.142 0.085,-0.142 0.085,-0.113 0.085,-0.113 0.113,-0.142 0.085,-0.114 0.114,-0.113 0.113,-0.113 0.114,-0.085 0.113,-0.114 0.142,-0.085 0.113,-0.085 0.142,-0.085 0.142,-0.057 0.141,-0.085 0.142,-0.056 0.142,-0.057 0.142,-0.057 0.141,-0.028 0.142,-0.028 0.17,-0.057 h 0.142 l 0.17,-0.028 h 0.142 0.17 0.141 0.142 l 0.17,0.028 h 0.142 l 0.17,0.057 0.142,0.028 0.142,0.028 0.141,0.057 0.142,0.057 0.142,0.056 0.141,0.085 0.142,0.057 0.142,0.085 0.113,0.085 0.142,0.085 0.113,0.114 0.114,0.085 0.113,0.113 0.114,0.113 0.085,0.114 0.113,0.142 0.085,0.113 0.085,0.113 0.085,0.142 0.057,0.142 0.085,0.142 0.057,0.141 0.056,0.142 0.057,0.142 0.028,0.141 0.057,0.171 0.028,0.141 v 0.142 l 0.029,0.17 v 0.142 z" /></g><g
       id="g212"><path
         id="path214"
         style="fill:none;stroke:#ff420e;stroke-width:2.9762001;stroke-linecap:butt;stroke-linejoin:round;stroke-miterlimit:10;stroke-dasharray:none;stroke-opacity:1"
         d="m 142.186,224.333 9.694,4.422 9.723,4.422 9.723,4.394 9.694,4.422 9.723,4.422 9.723,4.394 9.695,4.422 9.722,4.394 9.723,4.422 9.723,4.422 9.695,4.393 9.722,4.422 9.723,4.422 9.695,4.394 9.723,4.422 9.722,4.394 9.695,4.422 9.723,4.422 9.723,4.394 9.722,4.422 9.695,4.422 9.723,4.394 9.723,4.393 9.694,4.394 9.723,4.422 9.723,4.422 9.694,4.394 9.695,4.422 9.723,4.422 9.722,4.394 9.695,4.422 9.723,4.393 9.723,4.422 9.694,4.422 9.723,4.394 9.723,4.422 9.694,4.422 9.723,4.394 9.723,4.422 9.723,4.394" /></g><path
       id="path216"
       style="fill:#ff420e;fill-opacity:1;fill-rule:evenodd;stroke:none"
       d="m 138.643,227.877 v -7.087 h 7.086 v 7.087 z" /><g
       id="g218"><path
         id="path220"
         style="fill:none;stroke:#ff420e;stroke-width:0.75;stroke-linecap:butt;stroke-linejoin:round;stroke-miterlimit:10;stroke-dasharray:none;stroke-opacity:1"
         d="m 138.643,227.877 v -7.087 h 7.086 v 7.087 z" /></g><path
       id="path222"
       style="fill:#ff420e;fill-opacity:1;fill-rule:evenodd;stroke:none"
       d="m 332.929,316.119 v -7.087 h 7.087 v 7.087 z" /><g
       id="g224"><path
         id="path226"
         style="fill:none;stroke:#ff420e;stroke-width:0.75;stroke-linecap:butt;stroke-linejoin:round;stroke-miterlimit:10;stroke-dasharray:none;stroke-opacity:1"
         d="m 332.929,316.119 v -7.087 h 7.087 v 7.087 z" /></g><path
       id="path228"
       style="fill:#ff420e;fill-opacity:1;fill-rule:evenodd;stroke:none"
       d="m 527.187,404.305 v -7.087 h 7.087 v 7.087 z" /><g
       id="g230"><path
         id="path232"
         style="fill:none;stroke:#ff420e;stroke-width:0.75;stroke-linecap:butt;stroke-linejoin:round;stroke-miterlimit:10;stroke-dasharray:none;stroke-opacity:1"
         d="m 527.187,404.305 v -7.087 h 7.087 v 7.087 z" /></g><g
       id="g234"><path
         id="path236"
         style="fill:none;stroke:#83caff;stroke-width:2.9762001;stroke-linecap:butt;stroke-linejoin:round;stroke-miterlimit:10;stroke-dasharray:none;stroke-opacity:1"
         d="m 142.186,224.333 9.694,1.106 9.723,1.105 9.723,1.106 9.694,1.105 9.723,1.106 9.723,1.105 9.695,1.106 9.722,1.105 9.723,1.106 9.723,1.105 9.695,1.078 9.722,1.105 9.723,1.106 9.695,1.105 9.723,1.106 9.722,1.105 9.695,1.106 9.723,1.105 9.723,1.106 9.722,1.105 9.695,1.106 9.723,1.077 9.723,1.105 9.694,1.106 9.723,1.105 9.723,1.106 9.694,1.105 9.695,1.106 9.723,1.105 9.722,1.106 9.695,1.105 9.723,1.078 9.723,1.105 9.694,1.106 9.723,1.105 9.723,1.106 9.694,1.105 9.723,1.106 9.723,1.105 9.723,1.106" /></g><path
       id="path238"
       style="fill:#83caff;fill-opacity:1;fill-rule:evenodd;stroke:none"
       d="m 138.643,227.877 v -7.087 h 7.086 v 7.087 z" /><g
       id="g240"><path
         id="path242"
         style="fill:none;stroke:#83caff;stroke-width:0.75;stroke-linecap:butt;stroke-linejoin:round;stroke-miterlimit:10;stroke-dasharray:none;stroke-opacity:1"
         d="m 138.643,227.877 v -7.087 h 7.086 v 7.087 z" /></g><path
       id="path244"
       style="fill:#83caff;fill-opacity:1;fill-rule:evenodd;stroke:none"
       d="m 332.929,249.958 v -7.086 h 7.087 v 7.086 z" /><g
       id="g246"><path
         id="path248"
         style="fill:none;stroke:#83caff;stroke-width:0.75;stroke-linecap:butt;stroke-linejoin:round;stroke-miterlimit:10;stroke-dasharray:none;stroke-opacity:1"
         d="m 332.929,249.958 v -7.086 h 7.087 v 7.086 z" /></g><path
       id="path250"
       style="fill:#83caff;fill-opacity:1;fill-rule:evenodd;stroke:none"
       d="m 527.187,272.012 v -7.087 h 7.087 v 7.087 z" /><g
       id="g252"><path
         id="path254"
         style="fill:none;stroke:#83caff;stroke-width:0.75;stroke-linecap:butt;stroke-linejoin:round;stroke-miterlimit:10;stroke-dasharray:none;stroke-opacity:1"
         d="m 527.187,272.012 v -7.087 h 7.087 v 7.087 z" /></g><g
       id="g256"><path
         id="path258"
         style="fill:none;stroke:#579d1c;stroke-width:2.9762001;stroke-linecap:butt;stroke-linejoin:round;stroke-miterlimit:10;stroke-dasharray:none;stroke-opacity:1"
         d="m 142.186,224.333 9.694,0.114 9.723,0.085 9.723,0.085 9.694,0.085 9.723,0.085 9.723,0.085 9.695,0.085 9.722,0.085 9.723,0.113 9.723,0.085 9.695,0.085 9.722,0.085 9.723,0.085 9.695,0.086 9.723,0.085 9.722,0.085 9.695,0.085 9.723,0.113 9.723,0.085 9.722,0.085 9.695,0.085 9.723,0.085 9.723,0.085 9.694,0.085 9.723,0.085 9.723,0.085 9.694,0.114 9.695,0.085 9.723,0.085 9.722,0.085 9.695,0.085 9.723,0.085 9.723,0.085 9.694,0.085 9.723,0.085 9.723,0.113 9.694,0.085 9.723,0.085 9.723,0.086 9.723,0.085" /></g><path
       id="path260"
       style="fill:#579d1c;fill-opacity:1;fill-rule:evenodd;stroke:none"
       d="m 138.643,227.877 v -7.087 h 7.086 v 7.087 z" /><g
       id="g262"><path
         id="path264"
         style="fill:none;stroke:#579d1c;stroke-width:0.75;stroke-linecap:butt;stroke-linejoin:round;stroke-miterlimit:10;stroke-dasharray:none;stroke-opacity:1"
         d="m 138.643,227.877 v -7.087 h 7.086 v 7.087 z" /></g><path
       id="path266"
       style="fill:#579d1c;fill-opacity:1;fill-rule:evenodd;stroke:none"
       d="m 332.929,229.662 v -7.086 h 7.087 v 7.086 z" /><g
       id="g268"><path
         id="path270"
         style="fill:none;stroke:#579d1c;stroke-width:0.75;stroke-linecap:butt;stroke-linejoin:round;stroke-miterlimit:10;stroke-dasharray:none;stroke-opacity:1"
         d="m 332.929,229.662 v -7.086 h 7.087 v 7.086 z" /></g><path
       id="path272"
       style="fill:#579d1c;fill-opacity:1;fill-rule:evenodd;stroke:none"
       d="m 527.187,231.42 v -7.087 h 7.087 v 7.087 z" /><g
       id="g274"><path
         id="path276"
         style="fill:none;stroke:#579d1c;stroke-width:0.75;stroke-linecap:butt;stroke-linejoin:round;stroke-miterlimit:10;stroke-dasharray:none;stroke-opacity:1"
         d="m 527.187,231.42 v -7.087 h 7.087 v 7.087 z" /></g><g
       id="g278"><text
         id="text282"
         style="font-variant:normal;font-weight:normal;font-size:10.99800014px;font-family:Arial;-inkscape-font-specification:ArialMT;writing-mode:lr-tb;fill:#3c3c3c;fill-opacity:1;fill-rule:nonzero;stroke:none"
         transform="matrix(1,0,0,-1,139.209,206.787)"><tspan
           id="tspan280"
           y="0"
           x="0">0</tspan></text>
</g><g
       id="g284"><text
         id="text288"
         style="font-variant:normal;font-weight:normal;font-size:10.99800014px;font-family:Arial;-inkscape-font-specification:ArialMT;writing-mode:lr-tb;fill:#3c3c3c;fill-opacity:1;fill-rule:nonzero;stroke:none"
         transform="matrix(1,0,0,-1,173.509,206.787)"><tspan
           id="tspan286"
           y="0"
           x="0 5.9939098 8.9963636">0.2</tspan></text>
</g><g
       id="g290"><text
         id="text294"
         style="font-variant:normal;font-weight:normal;font-size:10.99800014px;font-family:Arial;-inkscape-font-specification:ArialMT;writing-mode:lr-tb;fill:#3c3c3c;fill-opacity:1;fill-rule:nonzero;stroke:none"
         transform="matrix(1,0,0,-1,212.4,206.787)"><tspan
           id="tspan292"
           y="0"
           x="0 5.9939098 8.9963636">0.4</tspan></text>
</g><g
       id="g296"><text
         id="text300"
         style="font-variant:normal;font-weight:normal;font-size:10.99800014px;font-family:Arial;-inkscape-font-specification:ArialMT;writing-mode:lr-tb;fill:#3c3c3c;fill-opacity:1;fill-rule:nonzero;stroke:none"
         transform="matrix(1,0,0,-1,251.206,206.787)"><tspan
           id="tspan298"
           y="0"
           x="0 5.9939098 8.9963636">0.6</tspan></text>
</g><g
       id="g302"><text
         id="text306"
         style="font-variant:normal;font-weight:normal;font-size:10.99800014px;font-family:Arial;-inkscape-font-specification:ArialMT;writing-mode:lr-tb;fill:#3c3c3c;fill-opacity:1;fill-rule:nonzero;stroke:none"
         transform="matrix(1,0,0,-1,290.098,206.787)"><tspan
           id="tspan304"
           y="0"
           x="0 5.9939098 8.9963636">0.8</tspan></text>
</g><g
       id="g308"><text
         id="text312"
         style="font-variant:normal;font-weight:normal;font-size:10.99800014px;font-family:Arial;-inkscape-font-specification:ArialMT;writing-mode:lr-tb;fill:#3c3c3c;fill-opacity:1;fill-rule:nonzero;stroke:none"
         transform="matrix(1,0,0,-1,333.496,206.787)"><tspan
           id="tspan310"
           y="0"
           x="0">1</tspan></text>
</g><g
       id="g314"><text
         id="text318"
         style="font-variant:normal;font-weight:normal;font-size:10.99800014px;font-family:Arial;-inkscape-font-specification:ArialMT;writing-mode:lr-tb;fill:#3c3c3c;fill-opacity:1;fill-rule:nonzero;stroke:none"
         transform="matrix(1,0,0,-1,367.795,206.787)"><tspan
           id="tspan316"
           y="0"
           x="0 5.9939098 8.9963636">1.2</tspan></text>
</g><g
       id="g320"><text
         id="text324"
         style="font-variant:normal;font-weight:normal;font-size:10.99800014px;font-family:Arial;-inkscape-font-specification:ArialMT;writing-mode:lr-tb;fill:#3c3c3c;fill-opacity:1;fill-rule:nonzero;stroke:none"
         transform="matrix(1,0,0,-1,406.687,206.787)"><tspan
           id="tspan322"
           y="0"
           x="0 5.9939098 8.9963636">1.4</tspan></text>
</g><g
       id="g326"><text
         id="text330"
         style="font-variant:normal;font-weight:normal;font-size:10.99800014px;font-family:Arial;-inkscape-font-specification:ArialMT;writing-mode:lr-tb;fill:#3c3c3c;fill-opacity:1;fill-rule:nonzero;stroke:none"
         transform="matrix(1,0,0,-1,445.493,206.787)"><tspan
           id="tspan328"
           y="0"
           x="0 5.9939098 8.9963636">1.6</tspan></text>
</g><g
       id="g332"><text
         id="text336"
         style="font-variant:normal;font-weight:normal;font-size:10.99800014px;font-family:Arial;-inkscape-font-specification:ArialMT;writing-mode:lr-tb;fill:#3c3c3c;fill-opacity:1;fill-rule:nonzero;stroke:none"
         transform="matrix(1,0,0,-1,484.413,206.787)"><tspan
           id="tspan334"
           y="0"
           x="0 5.9939098 8.9963636">1.8</tspan></text>
</g><g
       id="g338"><text
         id="text342"
         style="font-variant:normal;font-weight:normal;font-size:10.99800014px;font-family:Arial;-inkscape-font-specification:ArialMT;writing-mode:lr-tb;fill:#3c3c3c;fill-opacity:1;fill-rule:nonzero;stroke:none"
         transform="matrix(1,0,0,-1,527.811,206.787)"><tspan
           id="tspan340"
           y="0"
           x="0">2</tspan></text>
</g><g
       id="g344"><text
         id="text348"
         style="font-variant:normal;font-weight:normal;font-size:10.99800014px;font-family:Arial;-inkscape-font-specification:ArialMT;writing-mode:lr-tb;fill:#3c3c3c;fill-opacity:1;fill-rule:nonzero;stroke:none"
         transform="matrix(1,0,0,-1,129.09,220.166)"><tspan
           id="tspan346"
           y="0"
           x="0">0</tspan></text>
</g><g
       id="g350"><text
         id="text354"
         style="font-variant:normal;font-weight:normal;font-size:10.99800014px;font-family:Arial;-inkscape-font-specification:ArialMT;writing-mode:lr-tb;fill:#3c3c3c;fill-opacity:1;fill-rule:nonzero;stroke:none"
         transform="matrix(1,0,0,-1,117.099,255.486)"><tspan
           id="tspan352"
           y="0"
           x="0 5.9939098 11.98782">500</tspan></text>
</g><g
       id="g356"><text
         id="text360"
         style="font-variant:normal;font-weight:normal;font-size:10.99800014px;font-family:Arial;-inkscape-font-specification:ArialMT;writing-mode:lr-tb;fill:#3c3c3c;fill-opacity:1;fill-rule:nonzero;stroke:none"
         transform="matrix(1,0,0,-1,111.09,290.777)"><tspan
           id="tspan358"
           y="0"
           x="0 5.9939098 11.98782 17.98173">1000</tspan></text>
</g><g
       id="g362"><text
         id="text366"
         style="font-variant:normal;font-weight:normal;font-size:10.99800014px;font-family:Arial;-inkscape-font-specification:ArialMT;writing-mode:lr-tb;fill:#3c3c3c;fill-opacity:1;fill-rule:nonzero;stroke:none"
         transform="matrix(1,0,0,-1,111.09,326.069)"><tspan
           id="tspan364"
           y="0"
           x="0 5.9939098 11.98782 17.98173">1500</tspan></text>
</g><g
       id="g368"><text
         id="text372"
         style="font-variant:normal;font-weight:normal;font-size:10.99800014px;font-family:Arial;-inkscape-font-specification:ArialMT;writing-mode:lr-tb;fill:#3c3c3c;fill-opacity:1;fill-rule:nonzero;stroke:none"
         transform="matrix(1,0,0,-1,111.09,361.388)"><tspan
           id="tspan370"
           y="0"
           x="0 5.9939098 11.98782 17.98173">2000</tspan></text>
</g><g
       id="g374"><text
         id="text378"
         style="font-variant:normal;font-weight:normal;font-size:10.99800014px;font-family:Arial;-inkscape-font-specification:ArialMT;writing-mode:lr-tb;fill:#3c3c3c;fill-opacity:1;fill-rule:nonzero;stroke:none"
         transform="matrix(1,0,0,-1,111.09,396.68)"><tspan
           id="tspan376"
           y="0"
           x="0 5.9939098 11.98782 17.98173">2500</tspan></text>
</g><g
       id="g380"><text
         id="text384"
         style="font-variant:normal;font-weight:normal;font-size:10.99800014px;font-family:Arial;-inkscape-font-specification:ArialMT;writing-mode:lr-tb;fill:#3c3c3c;fill-opacity:1;fill-rule:nonzero;stroke:none"
         transform="matrix(1,0,0,-1,111.09,431.971)"><tspan
           id="tspan382"
           y="0"
           x="0 5.9939098 11.98782 17.98173">3000</tspan></text>
</g><g
       id="g386"><text
         id="text390"
         style="font-variant:normal;font-weight:normal;font-size:10.99800014px;font-family:Arial;-inkscape-font-specification:ArialMT;writing-mode:lr-tb;fill:#3c3c3c;fill-opacity:1;fill-rule:nonzero;stroke:none"
         transform="matrix(1,0,0,-1,111.09,467.262)"><tspan
           id="tspan388"
           y="0"
           x="0 5.9939098 11.98782 17.98173">3500</tspan></text>
</g><g
       id="g392"><path
         id="path394"
         style="fill:none;stroke:#579d1c;stroke-width:2.9762001;stroke-linecap:butt;stroke-linejoin:round;stroke-miterlimit:10;stroke-dasharray:none;stroke-opacity:1"
         d="m 550.828,368.163 h 22.678" /></g><path
       id="path396"
       style="fill:#579d1c;fill-opacity:1;fill-rule:evenodd;stroke:none"
       d="m 559.162,371.14 v -5.982 h 5.981 v 5.982 z" /><g
       id="g398"><path
         id="path400"
         style="fill:none;stroke:#579d1c;stroke-width:0.75;stroke-linecap:butt;stroke-linejoin:round;stroke-miterlimit:10;stroke-dasharray:none;stroke-opacity:1"
         d="m 559.162,371.14 v -5.982 h 5.981 v 5.982 z" /></g><g
       id="g402"><path
         id="path404"
         style="fill:none;stroke:#83caff;stroke-width:2.9762001;stroke-linecap:butt;stroke-linejoin:round;stroke-miterlimit:10;stroke-dasharray:none;stroke-opacity:1"
         d="m 550.828,354.047 h 22.678" /></g><path
       id="path406"
       style="fill:#83caff;fill-opacity:1;fill-rule:evenodd;stroke:none"
       d="m 559.162,357.023 v -5.981 h 5.981 v 5.981 z" /><g
       id="g408"><path
         id="path410"
         style="fill:none;stroke:#83caff;stroke-width:0.75;stroke-linecap:butt;stroke-linejoin:round;stroke-miterlimit:10;stroke-dasharray:none;stroke-opacity:1"
         d="m 559.162,357.023 v -5.981 h 5.981 v 5.981 z" /></g><g
       id="g412"><path
         id="path414"
         style="fill:none;stroke:#ff420e;stroke-width:2.9762001;stroke-linecap:butt;stroke-linejoin:round;stroke-miterlimit:10;stroke-dasharray:none;stroke-opacity:1"
         d="m 550.828,339.93 h 22.678" /></g><path
       id="path416"
       style="fill:#ff420e;fill-opacity:1;fill-rule:evenodd;stroke:none"
       d="m 559.162,342.906 v -5.981 h 5.981 v 5.981 z" /><g
       id="g418"><path
         id="path420"
         style="fill:none;stroke:#ff420e;stroke-width:0.75;stroke-linecap:butt;stroke-linejoin:round;stroke-miterlimit:10;stroke-dasharray:none;stroke-opacity:1"
         d="m 559.162,342.906 v -5.981 h 5.981 v 5.981 z" /></g><g
       id="g422"><path
         id="path424"
         style="fill:none;stroke:#579d1c;stroke-width:2.9762001;stroke-linecap:butt;stroke-linejoin:round;stroke-miterlimit:10;stroke-dasharray:none;stroke-opacity:1"
         d="m 550.828,311.725 h 22.678" /></g><path
       id="path426"
       style="fill:#579d1c;fill-opacity:1;fill-rule:evenodd;stroke:none"
       d="m 565.143,311.725 v 0.142 0.114 l -0.028,0.141 -0.028,0.114 -0.029,0.141 -0.028,0.114 -0.028,0.141 -0.029,0.114 -0.056,0.113 -0.057,0.142 -0.057,0.113 -0.057,0.114 -0.085,0.113 -0.056,0.114 -0.085,0.085 -0.085,0.113 -0.085,0.085 -0.085,0.113 -0.085,0.085 -0.114,0.085 -0.085,0.085 -0.113,0.057 -0.114,0.085 -0.113,0.057 -0.113,0.085 -0.114,0.057 -0.113,0.028 -0.114,0.057 -0.141,0.056 -0.114,0.029 -0.141,0.028 -0.114,0.028 -0.142,0.029 h -0.113 -0.142 -0.113 -0.142 -0.142 -0.113 l -0.142,-0.029 -0.113,-0.028 -0.142,-0.028 -0.113,-0.029 -0.142,-0.056 -0.113,-0.057 -0.114,-0.028 -0.113,-0.057 -0.113,-0.085 -0.114,-0.057 -0.113,-0.085 -0.114,-0.057 -0.085,-0.085 -0.113,-0.085 -0.085,-0.085 -0.085,-0.113 -0.085,-0.085 -0.085,-0.113 -0.085,-0.085 -0.057,-0.114 -0.085,-0.113 -0.057,-0.114 -0.056,-0.113 -0.057,-0.142 -0.057,-0.113 -0.028,-0.114 -0.028,-0.141 -0.029,-0.114 -0.028,-0.141 -0.028,-0.114 -0.029,-0.141 v -0.114 -0.142 -0.141 -0.114 l 0.029,-0.141 0.028,-0.114 0.028,-0.142 0.029,-0.113 0.028,-0.142 0.028,-0.113 0.057,-0.113 0.057,-0.142 0.056,-0.114 0.057,-0.113 0.085,-0.113 0.057,-0.114 0.085,-0.085 0.085,-0.113 0.085,-0.085 0.085,-0.114 0.085,-0.085 0.113,-0.085 0.085,-0.085 0.114,-0.056 0.113,-0.085 0.114,-0.057 0.113,-0.085 0.113,-0.057 0.114,-0.028 0.113,-0.057 0.142,-0.057 0.113,-0.028 0.142,-0.028 0.113,-0.029 0.142,-0.028 h 0.113 0.142 l 0.142,-0.028 0.113,0.028 h 0.142 0.113 l 0.142,0.028 0.114,0.029 0.141,0.028 0.114,0.028 0.141,0.057 0.114,0.057 0.113,0.028 0.114,0.057 0.113,0.085 0.113,0.057 0.114,0.085 0.113,0.056 0.085,0.085 0.114,0.085 0.085,0.085 0.085,0.114 0.085,0.085 0.085,0.113 0.085,0.085 0.056,0.114 0.085,0.113 0.057,0.113 0.057,0.114 0.057,0.142 0.056,0.113 0.029,0.113 0.028,0.142 0.028,0.113 0.029,0.142 0.028,0.114 0.028,0.141 v 0.114 z" /><g
       id="g428"><path
         id="path430"
         style="fill:none;stroke:#579d1c;stroke-width:0.75;stroke-linecap:butt;stroke-linejoin:round;stroke-miterlimit:10;stroke-dasharray:none;stroke-opacity:1"
         d="m 565.143,311.725 v 0.142 0.114 l -0.028,0.141 -0.028,0.114 -0.029,0.141 -0.028,0.114 -0.028,0.141 -0.029,0.114 -0.056,0.113 -0.057,0.142 -0.057,0.113 -0.057,0.114 -0.085,0.113 -0.056,0.114 -0.085,0.085 -0.085,0.113 -0.085,0.085 -0.085,0.113 -0.085,0.085 -0.114,0.085 -0.085,0.085 -0.113,0.057 -0.114,0.085 -0.113,0.057 -0.113,0.085 -0.114,0.057 -0.113,0.028 -0.114,0.057 -0.141,0.056 -0.114,0.029 -0.141,0.028 -0.114,0.028 -0.142,0.029 h -0.113 -0.142 -0.113 -0.142 -0.142 -0.113 l -0.142,-0.029 -0.113,-0.028 -0.142,-0.028 -0.113,-0.029 -0.142,-0.056 -0.113,-0.057 -0.114,-0.028 -0.113,-0.057 -0.113,-0.085 -0.114,-0.057 -0.113,-0.085 -0.114,-0.057 -0.085,-0.085 -0.113,-0.085 -0.085,-0.085 -0.085,-0.113 -0.085,-0.085 -0.085,-0.113 -0.085,-0.085 -0.057,-0.114 -0.085,-0.113 -0.057,-0.114 -0.056,-0.113 -0.057,-0.142 -0.057,-0.113 -0.028,-0.114 -0.028,-0.141 -0.029,-0.114 -0.028,-0.141 -0.028,-0.114 -0.029,-0.141 v -0.114 -0.142 -0.141 -0.114 l 0.029,-0.141 0.028,-0.114 0.028,-0.142 0.029,-0.113 0.028,-0.142 0.028,-0.113 0.057,-0.113 0.057,-0.142 0.056,-0.114 0.057,-0.113 0.085,-0.113 0.057,-0.114 0.085,-0.085 0.085,-0.113 0.085,-0.085 0.085,-0.114 0.085,-0.085 0.113,-0.085 0.085,-0.085 0.114,-0.056 0.113,-0.085 0.114,-0.057 0.113,-0.085 0.113,-0.057 0.114,-0.028 0.113,-0.057 0.142,-0.057 0.113,-0.028 0.142,-0.028 0.113,-0.029 0.142,-0.028 h 0.113 0.142 l 0.142,-0.028 0.113,0.028 h 0.142 0.113 l 0.142,0.028 0.114,0.029 0.141,0.028 0.114,0.028 0.141,0.057 0.114,0.057 0.113,0.028 0.114,0.057 0.113,0.085 0.113,0.057 0.114,0.085 0.113,0.056 0.085,0.085 0.114,0.085 0.085,0.085 0.085,0.114 0.085,0.085 0.085,0.113 0.085,0.085 0.056,0.114 0.085,0.113 0.057,0.113 0.057,0.114 0.057,0.142 0.056,0.113 0.029,0.113 0.028,0.142 0.028,0.113 0.029,0.142 0.028,0.114 0.028,0.141 v 0.114 z" /></g><g
       id="g432"><path
         id="path434"
         style="fill:none;stroke:#83caff;stroke-width:2.9762001;stroke-linecap:butt;stroke-linejoin:round;stroke-miterlimit:10;stroke-dasharray:none;stroke-opacity:1"
         d="m 550.828,297.609 h 22.678" /></g><path
       id="path436"
       style="fill:#83caff;fill-opacity:1;fill-rule:evenodd;stroke:none"
       d="m 565.143,297.609 v 0.142 0.113 l -0.028,0.142 -0.028,0.113 -0.029,0.142 -0.028,0.113 -0.028,0.142 -0.029,0.113 -0.056,0.114 -0.057,0.141 -0.057,0.114 -0.057,0.113 -0.085,0.114 -0.056,0.113 -0.085,0.085 -0.085,0.113 -0.085,0.085 -0.085,0.114 -0.085,0.085 -0.114,0.085 -0.085,0.085 -0.113,0.057 -0.114,0.085 -0.113,0.056 -0.113,0.085 -0.114,0.057 -0.113,0.028 -0.114,0.057 -0.141,0.057 -0.114,0.028 -0.141,0.029 -0.114,0.028 -0.142,0.028 h -0.113 -0.142 -0.113 -0.142 -0.142 -0.113 l -0.142,-0.028 -0.113,-0.028 -0.142,-0.029 -0.113,-0.028 -0.142,-0.057 -0.113,-0.057 -0.114,-0.028 -0.113,-0.057 -0.113,-0.085 -0.114,-0.056 -0.113,-0.085 -0.114,-0.057 -0.085,-0.085 -0.113,-0.085 -0.085,-0.085 -0.085,-0.114 -0.085,-0.085 -0.085,-0.113 -0.085,-0.085 -0.057,-0.113 -0.085,-0.114 -0.057,-0.113 -0.056,-0.114 -0.057,-0.141 -0.057,-0.114 -0.028,-0.113 -0.028,-0.142 -0.029,-0.113 -0.028,-0.142 -0.028,-0.113 -0.029,-0.142 v -0.113 -0.142 -0.142 -0.113 l 0.029,-0.142 0.028,-0.113 0.028,-0.142 0.029,-0.113 0.028,-0.142 0.028,-0.114 0.057,-0.113 0.057,-0.142 0.056,-0.113 0.057,-0.114 0.085,-0.113 0.057,-0.113 0.085,-0.085 0.085,-0.114 0.085,-0.085 0.085,-0.113 0.085,-0.085 0.113,-0.085 0.085,-0.085 0.114,-0.057 0.113,-0.085 0.114,-0.057 0.113,-0.085 0.113,-0.056 0.114,-0.029 0.113,-0.056 0.142,-0.057 0.113,-0.028 0.142,-0.029 0.113,-0.028 0.142,-0.029 h 0.113 0.142 l 0.142,-0.028 0.113,0.028 h 0.142 0.113 l 0.142,0.029 0.114,0.028 0.141,0.029 0.114,0.028 0.141,0.057 0.114,0.056 0.113,0.029 0.114,0.056 0.113,0.085 0.113,0.057 0.114,0.085 0.113,0.057 0.085,0.085 0.114,0.085 0.085,0.085 0.085,0.113 0.085,0.085 0.085,0.114 0.085,0.085 0.056,0.113 0.085,0.113 0.057,0.114 0.057,0.113 0.057,0.142 0.056,0.113 0.029,0.114 0.028,0.142 0.028,0.113 0.029,0.142 0.028,0.113 0.028,0.142 v 0.113 z" /><g
       id="g438"><path
         id="path440"
         style="fill:none;stroke:#83caff;stroke-width:0.75;stroke-linecap:butt;stroke-linejoin:round;stroke-miterlimit:10;stroke-dasharray:none;stroke-opacity:1"
         d="m 565.143,297.609 v 0.142 0.113 l -0.028,0.142 -0.028,0.113 -0.029,0.142 -0.028,0.113 -0.028,0.142 -0.029,0.113 -0.056,0.114 -0.057,0.141 -0.057,0.114 -0.057,0.113 -0.085,0.114 -0.056,0.113 -0.085,0.085 -0.085,0.113 -0.085,0.085 -0.085,0.114 -0.085,0.085 -0.114,0.085 -0.085,0.085 -0.113,0.057 -0.114,0.085 -0.113,0.056 -0.113,0.085 -0.114,0.057 -0.113,0.028 -0.114,0.057 -0.141,0.057 -0.114,0.028 -0.141,0.029 -0.114,0.028 -0.142,0.028 h -0.113 -0.142 -0.113 -0.142 -0.142 -0.113 l -0.142,-0.028 -0.113,-0.028 -0.142,-0.029 -0.113,-0.028 -0.142,-0.057 -0.113,-0.057 -0.114,-0.028 -0.113,-0.057 -0.113,-0.085 -0.114,-0.056 -0.113,-0.085 -0.114,-0.057 -0.085,-0.085 -0.113,-0.085 -0.085,-0.085 -0.085,-0.114 -0.085,-0.085 -0.085,-0.113 -0.085,-0.085 -0.057,-0.113 -0.085,-0.114 -0.057,-0.113 -0.056,-0.114 -0.057,-0.141 -0.057,-0.114 -0.028,-0.113 -0.028,-0.142 -0.029,-0.113 -0.028,-0.142 -0.028,-0.113 -0.029,-0.142 v -0.113 -0.142 -0.142 -0.113 l 0.029,-0.142 0.028,-0.113 0.028,-0.142 0.029,-0.113 0.028,-0.142 0.028,-0.114 0.057,-0.113 0.057,-0.142 0.056,-0.113 0.057,-0.114 0.085,-0.113 0.057,-0.113 0.085,-0.085 0.085,-0.114 0.085,-0.085 0.085,-0.113 0.085,-0.085 0.113,-0.085 0.085,-0.085 0.114,-0.057 0.113,-0.085 0.114,-0.057 0.113,-0.085 0.113,-0.056 0.114,-0.029 0.113,-0.056 0.142,-0.057 0.113,-0.028 0.142,-0.029 0.113,-0.028 0.142,-0.029 h 0.113 0.142 l 0.142,-0.028 0.113,0.028 h 0.142 0.113 l 0.142,0.029 0.114,0.028 0.141,0.029 0.114,0.028 0.141,0.057 0.114,0.056 0.113,0.029 0.114,0.056 0.113,0.085 0.113,0.057 0.114,0.085 0.113,0.057 0.085,0.085 0.114,0.085 0.085,0.085 0.085,0.113 0.085,0.085 0.085,0.114 0.085,0.085 0.056,0.113 0.085,0.113 0.057,0.114 0.057,0.113 0.057,0.142 0.056,0.113 0.029,0.114 0.028,0.142 0.028,0.113 0.029,0.142 0.028,0.113 0.028,0.142 v 0.113 z" /></g><g
       id="g442"><path
         id="path444"
         style="fill:none;stroke:#ff420e;stroke-width:2.9762001;stroke-linecap:butt;stroke-linejoin:round;stroke-miterlimit:10;stroke-dasharray:none;stroke-opacity:1"
         d="m 550.828,283.492 h 22.678" /></g><path
       id="path446"
       style="fill:#ff420e;fill-opacity:1;fill-rule:evenodd;stroke:none"
       d="m 565.143,283.492 v 0.142 0.113 l -0.028,0.142 -0.028,0.114 -0.029,0.141 -0.028,0.114 -0.028,0.141 -0.029,0.114 -0.056,0.113 -0.057,0.142 -0.057,0.113 -0.057,0.114 -0.085,0.113 -0.056,0.113 -0.085,0.085 -0.085,0.114 -0.085,0.085 -0.085,0.113 -0.085,0.085 -0.114,0.085 -0.085,0.085 -0.113,0.057 -0.114,0.085 -0.113,0.057 -0.113,0.085 -0.114,0.057 -0.113,0.028 -0.114,0.057 -0.141,0.056 -0.114,0.029 -0.141,0.028 -0.114,0.028 -0.142,0.029 h -0.113 -0.142 -0.113 -0.142 -0.142 -0.113 l -0.142,-0.029 -0.113,-0.028 -0.142,-0.028 -0.113,-0.029 -0.142,-0.056 -0.113,-0.057 -0.114,-0.028 -0.113,-0.057 -0.113,-0.085 -0.114,-0.057 -0.113,-0.085 -0.114,-0.057 -0.085,-0.085 -0.113,-0.085 -0.085,-0.085 -0.085,-0.113 -0.085,-0.085 -0.085,-0.114 -0.085,-0.085 -0.057,-0.113 -0.085,-0.113 -0.057,-0.114 -0.056,-0.113 -0.057,-0.142 -0.057,-0.113 -0.028,-0.114 -0.028,-0.141 -0.029,-0.114 -0.028,-0.141 -0.028,-0.114 -0.029,-0.142 v -0.113 -0.142 -0.141 -0.114 l 0.029,-0.142 0.028,-0.113 0.028,-0.142 0.029,-0.113 0.028,-0.142 0.028,-0.113 0.057,-0.114 0.057,-0.141 0.056,-0.114 0.057,-0.113 0.085,-0.113 0.057,-0.114 0.085,-0.085 0.085,-0.113 0.085,-0.085 0.085,-0.114 0.085,-0.085 0.113,-0.085 0.085,-0.085 0.114,-0.056 0.113,-0.086 0.114,-0.056 0.113,-0.085 0.113,-0.057 0.114,-0.028 0.113,-0.057 0.142,-0.057 0.113,-0.028 0.142,-0.028 0.113,-0.029 0.142,-0.028 h 0.113 0.142 l 0.142,-0.028 0.113,0.028 h 0.142 0.113 l 0.142,0.028 0.114,0.029 0.141,0.028 0.114,0.028 0.141,0.057 0.114,0.057 0.113,0.028 0.114,0.057 0.113,0.085 0.113,0.056 0.114,0.086 0.113,0.056 0.085,0.085 0.114,0.085 0.085,0.085 0.085,0.114 0.085,0.085 0.085,0.113 0.085,0.085 0.056,0.114 0.085,0.113 0.057,0.113 0.057,0.114 0.057,0.141 0.056,0.114 0.029,0.113 0.028,0.142 0.028,0.113 0.029,0.142 0.028,0.113 0.028,0.142 v 0.114 z" /><g
       id="g448"><path
         id="path450"
         style="fill:none;stroke:#ff420e;stroke-width:0.75;stroke-linecap:butt;stroke-linejoin:round;stroke-miterlimit:10;stroke-dasharray:none;stroke-opacity:1"
         d="m 565.143,283.492 v 0.142 0.113 l -0.028,0.142 -0.028,0.114 -0.029,0.141 -0.028,0.114 -0.028,0.141 -0.029,0.114 -0.056,0.113 -0.057,0.142 -0.057,0.113 -0.057,0.114 -0.085,0.113 -0.056,0.113 -0.085,0.085 -0.085,0.114 -0.085,0.085 -0.085,0.113 -0.085,0.085 -0.114,0.085 -0.085,0.085 -0.113,0.057 -0.114,0.085 -0.113,0.057 -0.113,0.085 -0.114,0.057 -0.113,0.028 -0.114,0.057 -0.141,0.056 -0.114,0.029 -0.141,0.028 -0.114,0.028 -0.142,0.029 h -0.113 -0.142 -0.113 -0.142 -0.142 -0.113 l -0.142,-0.029 -0.113,-0.028 -0.142,-0.028 -0.113,-0.029 -0.142,-0.056 -0.113,-0.057 -0.114,-0.028 -0.113,-0.057 -0.113,-0.085 -0.114,-0.057 -0.113,-0.085 -0.114,-0.057 -0.085,-0.085 -0.113,-0.085 -0.085,-0.085 -0.085,-0.113 -0.085,-0.085 -0.085,-0.114 -0.085,-0.085 -0.057,-0.113 -0.085,-0.113 -0.057,-0.114 -0.056,-0.113 -0.057,-0.142 -0.057,-0.113 -0.028,-0.114 -0.028,-0.141 -0.029,-0.114 -0.028,-0.141 -0.028,-0.114 -0.029,-0.142 v -0.113 -0.142 -0.141 -0.114 l 0.029,-0.142 0.028,-0.113 0.028,-0.142 0.029,-0.113 0.028,-0.142 0.028,-0.113 0.057,-0.114 0.057,-0.141 0.056,-0.114 0.057,-0.113 0.085,-0.113 0.057,-0.114 0.085,-0.085 0.085,-0.113 0.085,-0.085 0.085,-0.114 0.085,-0.085 0.113,-0.085 0.085,-0.085 0.114,-0.056 0.113,-0.086 0.114,-0.056 0.113,-0.085 0.113,-0.057 0.114,-0.028 0.113,-0.057 0.142,-0.057 0.113,-0.028 0.142,-0.028 0.113,-0.029 0.142,-0.028 h 0.113 0.142 l 0.142,-0.028 0.113,0.028 h 0.142 0.113 l 0.142,0.028 0.114,0.029 0.141,0.028 0.114,0.028 0.141,0.057 0.114,0.057 0.113,0.028 0.114,0.057 0.113,0.085 0.113,0.056 0.114,0.086 0.113,0.056 0.085,0.085 0.114,0.085 0.085,0.085 0.085,0.114 0.085,0.085 0.085,0.113 0.085,0.085 0.056,0.114 0.085,0.113 0.057,0.113 0.057,0.114 0.057,0.141 0.056,0.114 0.029,0.113 0.028,0.142 0.028,0.113 0.029,0.142 0.028,0.113 0.028,0.142 v 0.114 z" /></g><g
       id="g452"><text
         id="text456"
         style="font-variant:normal;font-weight:normal;font-size:10.00599957px;font-family:Arial;-inkscape-font-specification:ArialMT;writing-mode:lr-tb;fill:#3c3c3c;fill-opacity:1;fill-rule:nonzero;stroke:none"
         transform="matrix(1,0,0,-1,576.312,364.762)"><tspan
           id="tspan454"
           y="0"
           x="0 6.80408 12.0072 17.310381 19.5117 24.81488 27.806673 30.798468 33.800266 36.001587 41.294762 44.286556 46.487877 51.791058 56.994175 59.98597 62.277344 67.480461 72.773636 77.966751 81.058609 87.762627 89.963943 92.955742 98.258919 101.25072 106.44382 111.74701 114.74881 119.95193 122.94373 128.23689 133.54007 136.44182 139.44362 144.7468 149.94992">Chain friction loss with zero current</tspan></text>
</g><g
       id="g458"><text
         id="text462"
         style="font-variant:normal;font-weight:normal;font-size:10.00599957px;font-family:Arial;-inkscape-font-specification:ArialMT;writing-mode:lr-tb;fill:#3c3c3c;fill-opacity:1;fill-rule:nonzero;stroke:none"
         transform="matrix(1,0,0,-1,576.312,350.673)"><tspan
           id="tspan460"
           y="0"
           x="0 6.80408 12.0072 17.310381 19.5117 24.81488 27.806673 30.798468 33.800266 36.001587 41.294762 44.286556 46.487877 51.791058 56.994175 59.98597 62.277344 67.480461 72.773636 77.966751 81.058609 87.762627 89.963943 92.955742 98.258919 101.25072 106.45383 109.44563 114.74881 117.7406 125.94552 128.93732 134.23048 137.22229 142.41541 147.71858 150.72038 153.72218 158.92529 164.22849">Chain friction loss with 0.5 m/s current</tspan></text>
</g><g
       id="g464"><text
         id="text468"
         style="font-variant:normal;font-weight:normal;font-size:10.00599957px;font-family:Arial;-inkscape-font-specification:ArialMT;writing-mode:lr-tb;fill:#3c3c3c;fill-opacity:1;fill-rule:nonzero;stroke:none"
         transform="matrix(1,0,0,-1,576.312,336.585)"><tspan
           id="tspan466"
           y="0"
           x="0 6.80408 12.0072 17.310381 19.5117 24.81488 27.806673 30.798468 33.800266 36.001587 41.294762 44.286556 46.487877 51.791058 56.994175 59.98597 62.277344 67.480461 72.773636 77.966751 81.058609 87.762627 89.963943 92.955742 98.258919 101.25072 106.45383 109.44563 117.75061 120.7424 125.93552 128.92731 134.22049 139.4236 142.4254 145.4272 150.73038 155.9335">Chain friction loss with 1 m/s current</tspan></text>
</g><g
       id="g470"><text
         id="text474"
         style="font-variant:normal;font-weight:normal;font-size:10.00599957px;font-family:Arial;-inkscape-font-specification:ArialMT;writing-mode:lr-tb;fill:#3c3c3c;fill-opacity:1;fill-rule:nonzero;stroke:none"
         transform="matrix(1,0,0,-1,576.312,322.469)"><tspan
           id="tspan472"
           y="0"
           x="0 5.3031802 7.5945539 12.797674 17.990788 20.982582 26.285763 29.287561 34.490681 39.793861 45.097042 47.298363 52.491474 54.782848 59.975964 65.279144 68.270935 73.47406 78.777237 85.481255 90.784439 93.78624">plus propulsive power:</tspan></text>
</g><g
       id="g476"><text
         id="text480"
         style="font-variant:normal;font-weight:normal;font-size:10.00599957px;font-family:Arial;-inkscape-font-specification:ArialMT;writing-mode:lr-tb;fill:#3c3c3c;fill-opacity:1;fill-rule:nonzero;stroke:none"
         transform="matrix(1,0,0,-1,576.312,308.267)"><tspan
           id="tspan478"
           y="0"
           x="0 6.7940741 11.997194 20.302174 23.293968 29.997988 32.289364 35.281155 40.484276 43.57613 48.769245 53.972363 56.974163 62.277344 65.269135 70.46225 75.765434 78.767235 81.769035 86.972153 92.27533">Sum with zero current</tspan></text>
</g><g
       id="g482"><text
         id="text486"
         style="font-variant:normal;font-weight:normal;font-size:10.00599957px;font-family:Arial;-inkscape-font-specification:ArialMT;writing-mode:lr-tb;fill:#3c3c3c;fill-opacity:1;fill-rule:nonzero;stroke:none"
         transform="matrix(1,0,0,-1,576.312,294.179)"><tspan
           id="tspan484"
           y="0"
           x="0 6.7940741 11.997194 20.302174 23.293968 29.997988 32.289364 35.281155 40.484276 43.57613 48.779251 51.771046 56.974163 59.965958 68.270935 71.262733 76.455849 79.547699 84.740814 89.943932 92.945732 95.947533 101.25072 106.45383">Sum with 0.5 m/s current</tspan></text>
</g><g
       id="g488"><text
         id="text492"
         style="font-variant:normal;font-weight:normal;font-size:10.00599957px;font-family:Arial;-inkscape-font-specification:ArialMT;writing-mode:lr-tb;fill:#3c3c3c;fill-opacity:1;fill-rule:nonzero;stroke:none"
         transform="matrix(1,0,0,-1,576.312,280.062)"><tspan
           id="tspan490"
           y="0"
           x="0 6.7940741 11.997194 20.302174 23.293968 29.997988 32.289364 35.281155 40.484276 43.57613 48.779251 51.771046 59.975964 63.067818 68.260933 71.252724 76.445839 81.749023 84.750816 87.752617 92.955742 98.258919">Sum with 1 m/s current</tspan></text>
</g><g
       id="g494"><text
         id="text498"
         style="font-variant:normal;font-weight:normal;font-size:10.99800014px;font-family:Arial;-inkscape-font-specification:ArialMT;writing-mode:lr-tb;fill:#3c3c3c;fill-opacity:1;fill-rule:nonzero;stroke:none"
         transform="matrix(1,0,0,-1,269.49,184.28)"><tspan
           id="tspan496"
           y="0"
           x="0 8.2924919 11.976822 17.970732 24.063623 29.947554 32.246136 38.240047 44.233955 47.236408 53.219322 59.21323 65.207146 71.20105 77.194962 80.197418 83.881744 92.977089 95.979546 101.86348">Crossing speed (m/s)</tspan></text>
</g><g
       id="g500"><text
         id="text504"
         style="font-variant:normal;font-weight:normal;font-size:10.99800014px;font-family:Arial;-inkscape-font-specification:ArialMT;writing-mode:lr-tb;fill:#3c3c3c;fill-opacity:1;fill-rule:nonzero;stroke:none"
         transform="matrix(0,1,1,0,91.814,315.184)"><tspan
           id="tspan502"
           y="0"
           x="0">P</tspan></text>
<text
         id="text508"
         style="font-variant:normal;font-weight:normal;font-size:10.99800014px;font-family:Arial;-inkscape-font-specification:ArialMT;writing-mode:lr-tb;fill:#3c3c3c;fill-opacity:1;fill-rule:nonzero;stroke:none"
         transform="matrix(0,1,1,0,91.814,322.667)"><tspan
           id="tspan506"
           y="0"
           x="0">o</tspan></text>
<text
         id="text512"
         style="font-variant:normal;font-weight:normal;font-size:10.99800014px;font-family:Arial;-inkscape-font-specification:ArialMT;writing-mode:lr-tb;fill:#3c3c3c;fill-opacity:1;fill-rule:nonzero;stroke:none"
         transform="matrix(0,1,1,0,91.814,328.677)"><tspan
           id="tspan510"
           y="0"
           x="0">w</tspan></text>
<text
         id="text516"
         style="font-variant:normal;font-weight:normal;font-size:10.99800014px;font-family:Arial;-inkscape-font-specification:ArialMT;writing-mode:lr-tb;fill:#3c3c3c;fill-opacity:1;fill-rule:nonzero;stroke:none"
         transform="matrix(0,1,1,0,91.814,336.869)"><tspan
           id="tspan514"
           y="0"
           x="0">e</tspan></text>
<text
         id="text520"
         style="font-variant:normal;font-weight:normal;font-size:10.99800014px;font-family:Arial;-inkscape-font-specification:ArialMT;writing-mode:lr-tb;fill:#3c3c3c;fill-opacity:1;fill-rule:nonzero;stroke:none"
         transform="matrix(0,1,1,0,91.814,342.878)"><tspan
           id="tspan518"
           y="0"
           x="0">r</tspan></text>
<text
         id="text524"
         style="font-variant:normal;font-weight:normal;font-size:10.99800014px;font-family:Arial;-inkscape-font-specification:ArialMT;writing-mode:lr-tb;fill:#3c3c3c;fill-opacity:1;fill-rule:nonzero;stroke:none"
         transform="matrix(0,1,1,0,91.814,349.681)"><tspan
           id="tspan522"
           y="0"
           x="0">(</tspan></text>
<text
         id="text528"
         style="font-variant:normal;font-weight:normal;font-size:10.99800014px;font-family:Arial;-inkscape-font-specification:ArialMT;writing-mode:lr-tb;fill:#3c3c3c;fill-opacity:1;fill-rule:nonzero;stroke:none"
         transform="matrix(0,1,1,0,91.814,353.366)"><tspan
           id="tspan526"
           y="0"
           x="0">W</tspan></text>
<text
         id="text532"
         style="font-variant:normal;font-weight:normal;font-size:10.99800014px;font-family:Arial;-inkscape-font-specification:ArialMT;writing-mode:lr-tb;fill:#3c3c3c;fill-opacity:1;fill-rule:nonzero;stroke:none"
         transform="matrix(0,1,1,0,91.814,363.883)"><tspan
           id="tspan530"
           y="0"
           x="0">)</tspan></text>
</g></g></svg>