<?xml version="1.0" encoding="UTF-8" standalone="no"?>
<!-- Created with Inkscape (http://www.inkscape.org/) -->

<svg
   xmlns:dc="http://purl.org/dc/elements/1.1/"
   xmlns:cc="http://creativecommons.org/ns#"
   xmlns:rdf="http://www.w3.org/1999/02/22-rdf-syntax-ns#"
   xmlns:svg="http://www.w3.org/2000/svg"
   xmlns="http://www.w3.org/2000/svg"
   xmlns:sodipodi="http://sodipodi.sourceforge.net/DTD/sodipodi-0.dtd"
   xmlns:inkscape="http://www.inkscape.org/namespaces/inkscape"
   width="212.41356mm"
   height="83.311905mm"
   viewBox="0 0 212.41356 83.311905"
   version="1.1"
   id="svg4342"
   inkscape:version="0.92.5 (2060ec1f9f, 2020-04-08)"
   sodipodi:docname="Seilfuehrung.svg">
  <defs
     id="defs4336" />
  <sodipodi:namedview
     id="base"
     pagecolor="#ffffff"
     bordercolor="#666666"
     borderopacity="1.0"
     inkscape:pageopacity="0.0"
     inkscape:pageshadow="2"
     inkscape:zoom="1.4142136"
     inkscape:cx="328.27297"
     inkscape:cy="84.887219"
     inkscape:document-units="mm"
     inkscape:current-layer="layer1"
     showgrid="false"
     objecttolerance="1"
     guidetolerance="1"
     inkscape:window-width="1600"
     inkscape:window-height="823"
     inkscape:window-x="0"
     inkscape:window-y="0"
     inkscape:window-maximized="1"
     showguides="true"
     inkscape:guide-bbox="true"
     fit-margin-top="8"
     fit-margin-left="8"
     fit-margin-right="8"
     fit-margin-bottom="8">
    <sodipodi:guide
       position="-11.1125,105.56875"
       orientation="0,1"
       id="guide963"
       inkscape:locked="false" />
  </sodipodi:namedview>
  <metadata
     id="metadata4339">
    <rdf:RDF>
      <cc:Work
         rdf:about="">
        <dc:format>image/svg+xml</dc:format>
        <dc:type
           rdf:resource="http://purl.org/dc/dcmitype/StillImage" />
        <dc:title></dc:title>
      </cc:Work>
    </rdf:RDF>
  </metadata>
  <g
     inkscape:label="Ebene 1"
     inkscape:groupmode="layer"
     id="layer1"
     transform="translate(3.6936609,-14.762241)">
    <rect
       transform="matrix(-0.9999982,-0.00189668,0.00753751,-0.99997159,0,0)"
       y="-65.272095"
       x="-153.84178"
       height="10.281805"
       width="96.502815"
       id="rect2399"
       style="fill:#e6e2e2;fill-opacity:1;stroke:#000000;stroke-width:0.2072766;stroke-linecap:butt;stroke-linejoin:miter;stroke-miterlimit:4;stroke-dasharray:none;stroke-opacity:1" />
    <rect
       transform="rotate(-90)"
       y="104.78524"
       x="-73.606728"
       height="1.5660441"
       width="6.1830649"
       id="rect751"
       style="color:#000000;display:inline;overflow:visible;visibility:visible;fill:#b8b8b8;fill-opacity:1;fill-rule:nonzero;stroke:#000000;stroke-width:0.19050018;stroke-linecap:butt;stroke-linejoin:miter;stroke-miterlimit:4;stroke-dasharray:none;stroke-dashoffset:0;stroke-opacity:1;marker:none;enable-background:accumulate"
       inkscape:export-filename="/home/theo/Desktop/KF/Baechimattsteg5.3.2010.png"
       inkscape:export-xdpi="2.0010183"
       inkscape:export-ydpi="2.0010183"
       inkscape:transform-center-x="118.15696"
       inkscape:transform-center-y="-124.40715" />
    <path
       style="color:#000000;display:inline;overflow:visible;visibility:visible;fill:#b8b8b8;fill-opacity:1;fill-rule:nonzero;stroke:#000000;stroke-width:0.08679652;stroke-linecap:butt;stroke-linejoin:miter;stroke-miterlimit:4;stroke-dasharray:none;stroke-dashoffset:0;stroke-opacity:1;marker:none;enable-background:accumulate"
       d="M 40.207385,79.543447 C 34.818949,74.484372 28.640837,70.118971 20.81685,67.199346 l 1.052537,-1.517798 c 7.838434,2.705994 14.012265,7.11749 19.390541,12.344102 z"
       id="rect784"
       inkscape:connector-curvature="0"
       sodipodi:nodetypes="ccccc" />
    <path
       sodipodi:nodetypes="ccccc"
       inkscape:connector-curvature="0"
       id="path2112"
       d="m 171.21065,79.949848 c 5.38846,-5.059076 11.56656,-9.424477 19.39058,-12.344102 l -1.05258,-1.517797 c -7.83838,2.705993 -14.01221,7.117489 -19.39051,12.344102 z"
       style="color:#000000;display:inline;overflow:visible;visibility:visible;fill:#b8b8b8;fill-opacity:1;fill-rule:nonzero;stroke:#000000;stroke-width:0.08679652;stroke-linecap:butt;stroke-linejoin:miter;stroke-miterlimit:4;stroke-dasharray:none;stroke-dashoffset:0;stroke-opacity:1;marker:none;enable-background:accumulate" />
    <g
       id="g2105"
       transform="matrix(0.00677334,0,0,0.00677334,-526.80649,27.349184)">
      <rect
         transform="scale(-1)"
         y="-5892.6914"
         x="-105786.99"
         height="274.67957"
         width="24808.012"
         id="rect747"
         style="color:#000000;display:inline;overflow:visible;visibility:visible;fill:#b8b8b8;fill-opacity:1;fill-rule:nonzero;stroke:#000000;stroke-width:37.40098572;stroke-linecap:butt;stroke-linejoin:miter;stroke-miterlimit:4;stroke-dasharray:none;stroke-dashoffset:0;stroke-opacity:1;marker:none;enable-background:accumulate"
         inkscape:export-filename="/home/theo/Desktop/KF/Baechimattsteg5.3.2010.png"
         inkscape:export-xdpi="2.0010183"
         inkscape:export-ydpi="2.0010183" />
      <g
         transform="translate(8072.5486,-11704.729)"
         id="g3406">
        <ellipse
           ry="182.92798"
           rx="194.66974"
           cy="17862.934"
           cx="72833.352"
           id="ellipse1937"
           style="fill:#e9e6e6;fill-opacity:1;stroke:#0c0303;stroke-width:75.93493652;stroke-linecap:round;stroke-miterlimit:4;stroke-dasharray:none;stroke-dashoffset:0;stroke-opacity:1"
           transform="matrix(0.86506819,0,0,0.90336268,9919.7848,1326.7356)" />
        <circle
           style="fill:#e9e6e6;fill-opacity:1;stroke:#0c0303;stroke-width:101.59033203;stroke-linecap:round;stroke-miterlimit:4;stroke-dasharray:none;stroke-dashoffset:0;stroke-opacity:1"
           id="ellipse1939"
           cx="72833.773"
           cy="17863.094"
           r="69.105316"
           transform="matrix(0.69205455,0,0,0.8,22521.021,3167.9506)" />
      </g>
      <g
         transform="translate(32879.424,-11704.729)"
         id="g3410">
        <ellipse
           transform="matrix(0.86506819,0,0,0.90336268,9919.7848,1326.7356)"
           style="fill:#e9e6e6;fill-opacity:1;stroke:#0c0303;stroke-width:75.93493652;stroke-linecap:round;stroke-miterlimit:4;stroke-dasharray:none;stroke-dashoffset:0;stroke-opacity:1"
           id="ellipse3412"
           cx="72833.352"
           cy="17862.934"
           rx="194.66974"
           ry="182.92798" />
        <circle
           transform="matrix(0.69205455,0,0,0.8,22521.021,3167.9506)"
           r="69.105316"
           cy="17863.094"
           cx="72833.773"
           id="circle3414"
           style="fill:#e9e6e6;fill-opacity:1;stroke:#0c0303;stroke-width:101.59033203;stroke-linecap:round;stroke-miterlimit:4;stroke-dasharray:none;stroke-dashoffset:0;stroke-opacity:1" />
      </g>
    </g>
    <g
       id="g1123"
       transform="matrix(0.64800062,0,0,0.64800062,24.875293,-128.39666)"
       style="fill:#22c713;fill-opacity:1">
      <path
         style="opacity:1;fill:#22c713;fill-opacity:1;stroke:#000000;stroke-width:0.500386;stroke-linecap:round;stroke-miterlimit:4;stroke-dasharray:none;stroke-dashoffset:0;stroke-opacity:1"
         d="M 14.363287,311.91075 H 236.8397 v 9.63921 l -23.73683,15.34583 H 38.175787 l -23.8125,-15.13834 z"
         id="path1113"
         inkscape:connector-curvature="0"
         sodipodi:nodetypes="ccccccc" />
      <path
         inkscape:connector-curvature="0"
         id="path1115"
         d="m 38.174687,311.94021 0.0011,24.95559 v 0 0"
         style="fill:#22c713;fill-opacity:1;stroke:#000000;stroke-width:0.23;stroke-linecap:butt;stroke-linejoin:miter;stroke-miterlimit:4;stroke-dasharray:none;stroke-opacity:1" />
      <path
         style="fill:#22c713;fill-opacity:1;stroke:#000000;stroke-width:0.23;stroke-linecap:butt;stroke-linejoin:miter;stroke-miterlimit:4;stroke-dasharray:none;stroke-opacity:1"
         d="m 38.174687,311.94021 0.0011,24.95559 v 0 0"
         id="path1117"
         inkscape:connector-curvature="0" />
      <path
         inkscape:connector-curvature="0"
         id="path1119"
         d="m 213.10187,311.9402 0.001,24.95559 v 0 0"
         style="fill:#22c713;fill-opacity:1;stroke:#000000;stroke-width:0.23;stroke-linecap:butt;stroke-linejoin:miter;stroke-miterlimit:4;stroke-dasharray:none;stroke-opacity:1"
         sodipodi:nodetypes="cccc" />
      <path
         style="fill:#22c713;fill-opacity:1;stroke:#000000;stroke-width:0.23;stroke-linecap:butt;stroke-linejoin:miter;stroke-miterlimit:4;stroke-dasharray:none;stroke-opacity:1"
         d="m 124.49152,312.05773 0.001,24.95559 v 0 0"
         id="path1121"
         inkscape:connector-curvature="0"
         sodipodi:nodetypes="cccc" />
    </g>
    <path
       sodipodi:nodetypes="cc"
       inkscape:connector-curvature="0"
       id="path986"
       d="m 95.912867,80.162106 c 8.960713,-0.04122 11.221633,-0.01599 18.873303,-0.112719"
       style="fill:none;stroke:#5c5858;stroke-width:0.5;stroke-linecap:round;stroke-linejoin:miter;stroke-miterlimit:4;stroke-dasharray:none;stroke-dashoffset:0;stroke-opacity:1" />
    <rect
       inkscape:transform-center-y="-124.40715"
       inkscape:transform-center-x="118.15696"
       inkscape:export-ydpi="2.0010183"
       inkscape:export-xdpi="2.0010183"
       inkscape:export-filename="/home/theo/Desktop/KF/Baechimattsteg5.3.2010.png"
       style="color:#000000;display:inline;overflow:visible;visibility:visible;fill:#b8b8b8;fill-opacity:1;fill-rule:nonzero;stroke:#000000;stroke-width:0.19050018;stroke-linecap:butt;stroke-linejoin:miter;stroke-miterlimit:4;stroke-dasharray:none;stroke-dashoffset:0;stroke-opacity:1;marker:none;enable-background:accumulate"
       id="rect2107"
       width="6.1830649"
       height="1.5660441"
       x="-73.505127"
       y="48.905186"
       transform="rotate(-90)" />
    <rect
       inkscape:transform-center-y="-128.11523"
       inkscape:transform-center-x="118.15696"
       inkscape:export-ydpi="2.0010183"
       inkscape:export-xdpi="2.0010183"
       inkscape:export-filename="/home/theo/Desktop/KF/Baechimattsteg5.3.2010.png"
       style="color:#000000;display:inline;overflow:visible;visibility:visible;fill:#b8b8b8;fill-opacity:1;fill-rule:nonzero;stroke:#000000;stroke-width:0.19331837;stroke-linecap:butt;stroke-linejoin:miter;stroke-miterlimit:4;stroke-dasharray:none;stroke-dashoffset:0;stroke-opacity:1;marker:none;enable-background:accumulate"
       id="rect2109"
       width="6.3673577"
       height="1.5660441"
       x="-73.689423"
       y="162.1893"
       transform="rotate(-90)" />
    <path
       sodipodi:nodetypes="cscccc"
       d="m 57.451761,54.92043 c -0.154776,-0.293035 -0.228683,-0.557764 -0.225897,-0.795562 0.0029,-0.237785 0.08237,-0.43258 0.234945,-0.617837 1.724547,-0.05191 13.910523,-0.07037 16.338623,0.101573 0.376373,0.42441 0.26395,0.899147 0.05964,1.337741 -2.964478,0.0022 -6.77555,-0.02499 -16.407313,-0.02592 z"
       style="fill:#ca1006;fill-opacity:1;fill-rule:nonzero;stroke:#000000;stroke-width:0.08546111;stroke-linejoin:round;stroke-miterlimit:4;stroke-dasharray:none;stroke-opacity:1"
       id="path2458"
       inkscape:connector-curvature="0" />
    <g
       transform="matrix(0.00677334,0,0,0.00677334,-510.79525,-31.705871)"
       id="g2497">
      <path
         inkscape:transform-center-y="-0.00057406744"
         inkscape:export-filename="/home/theo/Desktop/KF/Baechimattsteg5.3.2010.png"
         inkscape:export-ydpi="2.0010183"
         inkscape:export-xdpi="2.0010183"
         inkscape:transform-center-x="152.45416"
         sodipodi:open="true"
         sodipodi:end="6.0827977"
         sodipodi:start="6.0974863"
         d="m 79101.525,15272.7 a 419.86069,419.33624 0 0 1 -333.607,489.263 419.86069,419.33624 0 0 1 -491.097,-331.392 419.86069,419.33624 0 0 1 330,-491.697 419.86069,419.33624 0 0 1 493.521,327.781"
         sodipodi:ry="419.33624"
         sodipodi:rx="419.86069"
         sodipodi:cy="15350.123"
         sodipodi:cx="78688.883"
         id="path2493"
         style="fill:#ffffff;fill-opacity:1;stroke:#6d6a6a;stroke-width:93.75;stroke-linecap:round;stroke-linejoin:round;stroke-miterlimit:4;stroke-dasharray:none;stroke-dashoffset:0;stroke-opacity:1"
         sodipodi:type="arc" />
      <path
         sodipodi:type="arc"
         style="fill:#ffffff;fill-opacity:1;stroke:#6d6a6a;stroke-width:93.75;stroke-linecap:round;stroke-linejoin:round;stroke-miterlimit:4;stroke-dasharray:none;stroke-dashoffset:0;stroke-opacity:1"
         id="path2495"
         sodipodi:cx="78688.883"
         sodipodi:cy="15350.123"
         sodipodi:rx="104.96517"
         sodipodi:ry="104.83406"
         d="m 78792.043,15330.767 a 104.96517,104.83406 0 0 1 -83.401,122.316 104.96517,104.83406 0 0 1 -122.775,-82.848 104.96517,104.83406 0 0 1 82.5,-122.924 104.96517,104.83406 0 0 1 123.381,81.945"
         sodipodi:start="6.0974863"
         sodipodi:end="6.0827977"
         sodipodi:open="true"
         inkscape:transform-center-x="38.113619"
         inkscape:export-xdpi="2.0010183"
         inkscape:export-ydpi="2.0010183"
         inkscape:export-filename="/home/theo/Desktop/KF/Baechimattsteg5.3.2010.png"
         inkscape:transform-center-y="-0.00020283445" />
    </g>
    <g
       transform="matrix(0.00677334,0,0,0.00677334,-343.99314,-31.84285)"
       id="g2503">
      <path
         inkscape:transform-center-y="-0.00057406744"
         inkscape:export-filename="/home/theo/Desktop/KF/Baechimattsteg5.3.2010.png"
         inkscape:export-ydpi="2.0010183"
         inkscape:export-xdpi="2.0010183"
         inkscape:transform-center-x="152.45416"
         sodipodi:open="true"
         sodipodi:end="6.0827977"
         sodipodi:start="6.0974863"
         d="m 79101.525,15272.7 a 419.86069,419.33624 0 0 1 -333.607,489.263 419.86069,419.33624 0 0 1 -491.097,-331.392 419.86069,419.33624 0 0 1 330,-491.697 419.86069,419.33624 0 0 1 493.521,327.781"
         sodipodi:ry="419.33624"
         sodipodi:rx="419.86069"
         sodipodi:cy="15350.123"
         sodipodi:cx="78688.883"
         id="path2499"
         style="fill:#ffffff;fill-opacity:1;stroke:#6d6a6a;stroke-width:93.75;stroke-linecap:round;stroke-linejoin:round;stroke-miterlimit:4;stroke-dasharray:none;stroke-dashoffset:0;stroke-opacity:1"
         sodipodi:type="arc" />
      <path
         sodipodi:type="arc"
         style="fill:#ffffff;fill-opacity:1;stroke:#6d6a6a;stroke-width:93.75;stroke-linecap:round;stroke-linejoin:round;stroke-miterlimit:4;stroke-dasharray:none;stroke-dashoffset:0;stroke-opacity:1"
         id="path2501"
         sodipodi:cx="78688.883"
         sodipodi:cy="15350.123"
         sodipodi:rx="104.96517"
         sodipodi:ry="104.83406"
         d="m 78792.043,15330.767 a 104.96517,104.83406 0 0 1 -83.401,122.316 104.96517,104.83406 0 0 1 -122.775,-82.848 104.96517,104.83406 0 0 1 82.5,-122.924 104.96517,104.83406 0 0 1 123.381,81.945"
         sodipodi:start="6.0974863"
         sodipodi:end="6.0827977"
         sodipodi:open="true"
         inkscape:transform-center-x="38.113619"
         inkscape:export-xdpi="2.0010183"
         inkscape:export-ydpi="2.0010183"
         inkscape:export-filename="/home/theo/Desktop/KF/Baechimattsteg5.3.2010.png"
         inkscape:transform-center-y="-0.00020283445" />
    </g>
    <rect
       inkscape:transform-center-y="-124.40715"
       inkscape:transform-center-x="118.15696"
       inkscape:export-ydpi="2.0010183"
       inkscape:export-xdpi="2.0010183"
       inkscape:export-filename="/home/theo/Desktop/KF/Baechimattsteg5.3.2010.png"
       style="color:#000000;display:inline;overflow:visible;visibility:visible;fill:#b8b8b8;fill-opacity:1;fill-rule:nonzero;stroke:#000000;stroke-width:0.19050018;stroke-linecap:butt;stroke-linejoin:miter;stroke-miterlimit:4;stroke-dasharray:none;stroke-dashoffset:0;stroke-opacity:1;marker:none;enable-background:accumulate"
       id="rect5331"
       width="6.1830649"
       height="1.5660441"
       x="-73.606728"
       y="77.268555"
       transform="rotate(-90)" />
    <rect
       inkscape:transform-center-y="-124.40715"
       inkscape:transform-center-x="118.15696"
       inkscape:export-ydpi="2.0010183"
       inkscape:export-xdpi="2.0010183"
       inkscape:export-filename="/home/theo/Desktop/KF/Baechimattsteg5.3.2010.png"
       style="color:#000000;display:inline;overflow:visible;visibility:visible;fill:#b8b8b8;fill-opacity:1;fill-rule:nonzero;stroke:#000000;stroke-width:0.19050018;stroke-linecap:butt;stroke-linejoin:miter;stroke-miterlimit:4;stroke-dasharray:none;stroke-dashoffset:0;stroke-opacity:1;marker:none;enable-background:accumulate"
       id="rect5333"
       width="6.1830649"
       height="1.5660441"
       x="-73.606728"
       y="134.41846"
       transform="rotate(-90)" />
    <path
       style="fill:none;stroke:#5c5858;stroke-width:0.5;stroke-linecap:round;stroke-linejoin:miter;stroke-miterlimit:4;stroke-dasharray:none;stroke-dashoffset:0;stroke-opacity:1"
       d="m 4.8134259,70.950875 c 0,0 16.2974471,-1.614615 17.2656101,-1.603615 34.284533,0.38952 66.531623,-0.299485 92.727834,-0.07974 38.14082,2.207862 42.32785,2.218606 74.71652,-0.08062 6.47459,0.172448 10.53041,8.873348 10.53041,8.873348"
       id="path4969"
       inkscape:connector-curvature="0"
       sodipodi:nodetypes="csccc" />
    <g
       id="g2509"
       transform="matrix(0.01300482,0,0,0.01300482,-927.50178,-124.8345)">
      <path
         sodipodi:type="arc"
         style="fill:#ffffff;fill-opacity:1;stroke:#6d6a6a;stroke-width:93.75;stroke-linecap:round;stroke-linejoin:round;stroke-miterlimit:4;stroke-dasharray:none;stroke-dashoffset:0;stroke-opacity:1"
         id="path2505"
         sodipodi:cx="78688.883"
         sodipodi:cy="15350.123"
         sodipodi:rx="419.86069"
         sodipodi:ry="419.33624"
         d="m 79101.525,15272.7 a 419.86069,419.33624 0 0 1 -333.607,489.263 419.86069,419.33624 0 0 1 -491.097,-331.392 419.86069,419.33624 0 0 1 330,-491.697 419.86069,419.33624 0 0 1 493.521,327.781"
         sodipodi:start="6.0974863"
         sodipodi:end="6.0827977"
         sodipodi:open="true"
         inkscape:transform-center-x="152.45416"
         inkscape:export-xdpi="2.0010183"
         inkscape:export-ydpi="2.0010183"
         inkscape:export-filename="/home/theo/Desktop/KF/Baechimattsteg5.3.2010.png"
         inkscape:transform-center-y="-0.00057406744" />
      <path
         inkscape:transform-center-y="-0.00020283445"
         inkscape:export-filename="/home/theo/Desktop/KF/Baechimattsteg5.3.2010.png"
         inkscape:export-ydpi="2.0010183"
         inkscape:export-xdpi="2.0010183"
         inkscape:transform-center-x="38.113619"
         sodipodi:open="true"
         sodipodi:end="6.0827977"
         sodipodi:start="6.0974863"
         d="m 78792.043,15330.767 a 104.96517,104.83406 0 0 1 -83.401,122.316 104.96517,104.83406 0 0 1 -122.775,-82.848 104.96517,104.83406 0 0 1 82.5,-122.924 104.96517,104.83406 0 0 1 123.381,81.945"
         sodipodi:ry="104.83406"
         sodipodi:rx="104.96517"
         sodipodi:cy="15350.123"
         sodipodi:cx="78688.883"
         id="path2507"
         style="fill:#ffffff;fill-opacity:1;stroke:#6d6a6a;stroke-width:93.75;stroke-linecap:round;stroke-linejoin:round;stroke-miterlimit:4;stroke-dasharray:none;stroke-dashoffset:0;stroke-opacity:1"
         sodipodi:type="arc" />
    </g>
    <rect
       style="fill:#cccccc;stroke:#000000;stroke-width:0.11440952;stroke-linecap:butt;stroke-linejoin:miter;stroke-miterlimit:4;stroke-dasharray:none;stroke-opacity:1"
       id="rect5037"
       width="25.560528"
       height="11.826692"
       x="-118.53915"
       y="-54.208786"
       transform="matrix(-0.99996608,-0.00823702,0.0017356,-0.99999849,0,0)" />
    <path
       inkscape:connector-curvature="0"
       id="path5039"
       style="fill:#ca1006;fill-opacity:1;fill-rule:nonzero;stroke:#000000;stroke-width:0.08546111;stroke-linejoin:round;stroke-miterlimit:4;stroke-dasharray:none;stroke-opacity:1"
       d="m 75.358819,55.182327 c -0.154776,-0.293035 -0.228683,-0.557764 -0.225897,-0.795562 0.0029,-0.237785 0.08237,-0.43258 0.234945,-0.617837 1.724547,-0.05191 13.910523,-0.07037 16.338623,0.101573 0.376373,0.42441 0.26395,0.899147 0.05964,1.337741 -2.964478,0.0022 -6.77555,-0.02499 -16.407313,-0.02592 z"
       sodipodi:nodetypes="cscccc" />
    <path
       sodipodi:nodetypes="cscccc"
       d="m 119.16193,55.182327 c -0.15256,-0.293035 -0.2254,-0.557764 -0.22266,-0.795562 0.003,-0.237785 0.0812,-0.43258 0.23158,-0.617837 1.6998,-0.05191 13.71088,-0.07037 16.10413,0.101573 0.37097,0.42441 0.26016,0.899147 0.0587,1.337741 -2.92193,0.0022 -6.6783,-0.02499 -16.17183,-0.02592 z"
       style="fill:#ca1006;fill-opacity:1;fill-rule:nonzero;stroke:#000000;stroke-width:0.08484562;stroke-linejoin:round;stroke-miterlimit:4;stroke-dasharray:none;stroke-opacity:1"
       id="path5041"
       inkscape:connector-curvature="0" />
    <path
       inkscape:connector-curvature="0"
       id="path5043"
       style="fill:#ca1006;fill-opacity:1;fill-rule:nonzero;stroke:#000000;stroke-width:0.08546111;stroke-linejoin:round;stroke-miterlimit:4;stroke-dasharray:none;stroke-opacity:1"
       d="m 136.56354,55.182327 c -0.15478,-0.293035 -0.22868,-0.557764 -0.2259,-0.795562 0.003,-0.237785 0.0824,-0.43258 0.23495,-0.617837 1.72455,-0.05191 13.91052,-0.07037 16.33862,0.101573 0.37637,0.42441 0.26395,0.899147 0.0596,1.337741 -2.96448,0.0022 -6.77555,-0.02499 -16.40731,-0.02592 z"
       sodipodi:nodetypes="cscccc" />
    <path
       style="fill:none;stroke:#101af2;stroke-width:0.47041163;stroke-linecap:butt;stroke-linejoin:miter;stroke-miterlimit:4;stroke-dasharray:3.76329303, 1.88164652;stroke-dashoffset:0;stroke-opacity:1"
       d="m 4.543085,83.185592 196.176815,-0.0024 v 0 0"
       id="path5045"
       inkscape:connector-curvature="0" />
    <g
       style="display:inline"
       id="g3900"
       transform="matrix(0.15487379,5.8584575e-4,-5.9446747e-4,0.15729044,104.25283,22.723994)">
      <path
         d="m 65.167963,0.00352439 c -2.27285,0.1262691 -4.2922,2.77236601 -6.3125,3.65625001 -2.02031,0.883883 -4.42735,-0.482709 -5.4375,0.90625 -1.01016,1.3889603 -1.89483,3.3973663 -3.03125,4.2812503 -1.13643,0.883883 -3.28125,2.7609453 -3.28125,4.7812503 0,2.020305 -1.78252,3.542196 -1.65625,5.562501 0.12627,2.020305 2.52236,3.806947 3.40625,7.46875 0.88388,3.661803 0.14102,4.667195 1.65625,6.6875 1.51523,2.020305 3.53759,3.645621 2.90625,7.8125 -0.63135,4.166879 -1.53458,4.421003 -4.3125,6.0625 -2.77792,1.641498 -13.35803,3.935755 -18.156253,7.21875 -4.798224,3.282996 -5.575983,6.671002 -7.34375,8.3125 -1.767767,1.641498 -7.398324,19.867175 -7.923942,21.793235 -1.044645,3.827977 -3.193779,14.230318 -5.420452,21.719529 -5.2678477,6.53461 -10.98960446,7.62594 -15.3132368,11.77129 -5.9044252,3.94751 -12.7582842,8.61023 -13.9109372,8.85027 -2.354706,0.49036 -2.588616,0.13732 -3.58064,0.64191 -2.902024,1.47612 -4.94907,0.0502 -5.459907,3.04772 4.706872,0.70399 14.835686,-0.46368 15.220372,0.68642 4.2845508,-3.28472 10.4564751,-4.70104 15.5986342,-6.44413 3.7646814,-1.27615 9.0498648,-3.10702 11.4796488,-4.80257 2.912189,-2.03219 7.307369,-7.56852 7.170914,-10.16204 -0.09568,-1.81856 2.087414,-4.28505 3.262164,-7.92642 0.65747,-2.037969 5.719084,-14.188128 5.775717,-15.450819 0.116497,-2.597428 2.445418,-5.286895 2.445418,-5.286895 0,0 3.65625,16.79425 3.65625,21.718754 0,4.92449 -3.27618,10.62659 -3.78125,16.6875 -0.50508,6.06092 -0.24366,6.93575 -0.875,10.21875 -0.63135,3.283 -2.026176,5.66798 -2.531253,10.71875 -0.505076,5.05076 0.897367,30.17767 1.78125,37.375 0.883883,7.19734 4.531253,18.05821 4.531253,21.59375 0,3.53553 -0.37754,7.45891 -0.125,14.65625 0.25253,7.19733 8.096029,36.66671 7.338419,40.70732 -0.75762,4.04061 -4.097052,6.03606 -5.738545,6.91995 -1.641498,0.88388 -10.7635,2.74648 -11.623498,4.33002 -1.754848,3.23125 1.732648,3.4357 4.801072,3.58916 3.599717,0.18002 7.19265,0.30703 9.018293,0.0579 4.448995,-0.60705 4.294281,0.79861 9.426073,-0.14173 4.60895,-0.84453 4.828754,0.96769 5.802573,-1.2538 0.764454,-1.74387 -0.586887,-20.62715 -0.586887,-31.8651 0,-11.23795 3.65498,-18.04124 3.78125,-26.375 0.12627,-8.33375 -2.40625,-11.12833 -2.40625,-13.90625 0,-2.77792 1.40117,-4.78839 1.90625,-7.1875 0.50507,-2.39911 0.12246,-17.94797 0.375,-23.125 0.25253,-5.17703 1.65625,-8.3125 1.65625,-8.3125 0,0 3.24338,7.72404 3.15625,11.875 -0.11723,5.58452 0.91432,22.6147 3.28125,33.0625 0.78497,3.46494 -0.75,6.43908 -0.75,12.5 0,6.06091 0.83852,10.80771 1.75,15.53125 1.28654,6.66724 3.58882,12.18639 3.65625,18.9375 0.0441,4.41884 -3.910826,16.6921 -3.532016,19.34375 0.3788,2.65165 4.629125,-0.24797 5.26296,0.65165 0.917199,1.30181 2.0402,-0.0909 4.807935,0.26064 5.246086,0.66639 3.388226,-0.41542 6.166146,-0.42228 2.879368,-0.007 5.508122,1.7434 5.381862,-0.78198 -0.12627,-2.52538 -7.205547,-3.37729 -7.836887,-8.30178 -0.63135,-4.9245 6.43369,-23.49381 6.8125,-39.65625 0.3788,-16.16244 -3.40625,-17.68829 -3.40625,-20.71875 0,-3.03046 0.36865,-10.97335 1,-13.625 0.63134,-2.65165 1.439795,-15.09685 2.955025,-18.88493 1.51522,-3.78807 6.778475,-3.09683 8.419975,-8.02132 1.6415,-4.92449 0.49365,-6.41798 1.125,-11.46875 0.63134,-5.05076 7.058697,-25.0138 7.437497,-32.96875 0.37881,-7.95495 -1.99619,-10.22541 -2.375,-15.781254 -0.37881,-5.55583 0.006,-15.793464 -0.625,-17.6875 -0.63134,-1.894036 -1.28125,-3.787119 -1.28125,-6.3125 0,-2.525382 0.87548,-10.733025 -2.281247,-15.53125 -3.15672,-4.798224 -8.84455,-5.17481 -11.875,-6.4375 -3.03046,-1.262691 -11.36358,-8.215735 -12.5,-11.625 -1.13643,-3.409264 0.63975,-8.948444 2.28125,-10.96875 1.64149,-2.020305 2.27363,-1.393559 3.03125,-2.65625 0.75761,-1.262691 -0.38135,-3.139752 0.25,-4.78125 0.63134,-1.641497 1.90498,-2.042195 2.03125,-4.0625 0.12627,-2.020306 -1.51983,-5.293465 -2.65625,-7.187501 -1.13642,-1.8940363 -1.14102,-4.4235403 -2.65625,-5.8125003 -1.51523,-1.38896 -2.76856,-0.11104 -4.03125,-1.5000003 -1.26269,-1.388959 -4.91466,-4.68876901 -7.1875,-4.56250001 z M 87.348305,100.45948 c 0.816228,2.94966 1.592108,3.47677 1.663408,5.79405 0,0 -4.3e-4,9.78732 0.0937,14.625 0.10351,5.31692 -2.310188,27.70073 -1.674697,26.22061 0.501503,-1.16805 -1.12369,-23.53997 -1.887803,-31.68936 -0.256439,-2.73496 -1.26349,-6.55895 -1.3125,-9.875 -0.0424,-2.86728 -0.383419,-13.099248 2.195581,-17.791219 z"
         id="path3614"
         style="color:#000000;display:inline;overflow:visible;visibility:visible;fill:#41b5e1;fill-opacity:1;fill-rule:nonzero;stroke:none;stroke-width:1.5;marker:none;enable-background:accumulate"
         inkscape:connector-curvature="0"
         sodipodi:nodetypes="cssssssssssssccssccssssscssssssssssssssssssscssssssssssssssssssscssssssssssssccccssccc" />
    </g>
    <text
       xml:space="preserve"
       style="font-style:normal;font-weight:normal;font-size:3.52777791px;line-height:1.25;font-family:sans-serif;letter-spacing:0px;word-spacing:0px;fill:#000000;fill-opacity:1;stroke:none;stroke-width:0.26458332"
       x="4.7247763"
       y="27.658777"
       id="text1004"><tspan
         sodipodi:role="line"
         x="4.7247763"
         y="27.658777"
         id="tspan998"
         style="stroke-width:0.26458332"><tspan
           x="4.7247763"
           y="27.658777"
           style="font-size:5.64444447px;stroke-width:0.26458332"
           id="tspan994">Cable ferry with wire rope</tspan><tspan
           dx="0"
           x="77.848991"
           y="27.658777"
           style="font-size:5.64444447px;stroke-width:0.26458332"
           id="tspan996" /></tspan><tspan
         sodipodi:role="line"
         x="4.7247763"
         y="34.714333"
         id="tspan1002"
         style="stroke-width:0.26458332"><tspan
           x="4.7247763"
           y="34.714333"
           style="font-size:5.64444447px;stroke-width:0.26458332"
           id="tspan1000">(left side taut)</tspan></tspan></text>
    <text
       xml:space="preserve"
       style="font-style:normal;font-weight:normal;font-size:1.41111112px;line-height:1.25;font-family:sans-serif;letter-spacing:0px;word-spacing:0px;fill:#000000;fill-opacity:1;stroke:none;stroke-width:0.26458332"
       x="135.31548"
       y="7.8482141"
       id="text5306"><tspan
         sodipodi:role="line"
         id="tspan5304"
         x="135.31548"
         y="9.0967169"
         style="stroke-width:0.26458332" /><tspan
         sodipodi:role="line"
         x="135.31548"
         y="10.860605"
         style="stroke-width:0.26458332"
         id="tspan5308" /></text>
    <g
       transform="matrix(0.01300482,0,0,0.01300482,-908.45166,-124.8345)"
       id="g961">
      <path
         inkscape:transform-center-y="-0.00057406744"
         inkscape:export-filename="/home/theo/Desktop/KF/Baechimattsteg5.3.2010.png"
         inkscape:export-ydpi="2.0010183"
         inkscape:export-xdpi="2.0010183"
         inkscape:transform-center-x="152.45416"
         sodipodi:open="true"
         sodipodi:end="6.0827977"
         sodipodi:start="6.0974863"
         d="m 79101.525,15272.7 a 419.86069,419.33624 0 0 1 -333.607,489.263 419.86069,419.33624 0 0 1 -491.097,-331.392 419.86069,419.33624 0 0 1 330,-491.697 419.86069,419.33624 0 0 1 493.521,327.781"
         sodipodi:ry="419.33624"
         sodipodi:rx="419.86069"
         sodipodi:cy="15350.123"
         sodipodi:cx="78688.883"
         id="path957"
         style="fill:#ffffff;fill-opacity:1;stroke:#6d6a6a;stroke-width:93.75;stroke-linecap:round;stroke-linejoin:round;stroke-miterlimit:4;stroke-dasharray:none;stroke-dashoffset:0;stroke-opacity:1"
         sodipodi:type="arc" />
      <path
         sodipodi:type="arc"
         style="fill:#ffffff;fill-opacity:1;stroke:#6d6a6a;stroke-width:93.75;stroke-linecap:round;stroke-linejoin:round;stroke-miterlimit:4;stroke-dasharray:none;stroke-dashoffset:0;stroke-opacity:1"
         id="path959"
         sodipodi:cx="78688.883"
         sodipodi:cy="15350.123"
         sodipodi:rx="104.96517"
         sodipodi:ry="104.83406"
         d="m 78792.043,15330.767 a 104.96517,104.83406 0 0 1 -83.401,122.316 104.96517,104.83406 0 0 1 -122.775,-82.848 104.96517,104.83406 0 0 1 82.5,-122.924 104.96517,104.83406 0 0 1 123.381,81.945"
         sodipodi:start="6.0974863"
         sodipodi:end="6.0827977"
         sodipodi:open="true"
         inkscape:transform-center-x="38.113619"
         inkscape:export-xdpi="2.0010183"
         inkscape:export-ydpi="2.0010183"
         inkscape:export-filename="/home/theo/Desktop/KF/Baechimattsteg5.3.2010.png"
         inkscape:transform-center-y="-0.00020283445" />
    </g>
    <rect
       transform="matrix(-0.07673274,-0.9970517,-0.98931535,0.14579141,0,0)"
       y="-16.891983"
       x="-74.486214"
       height="0.53864133"
       width="5.1158972"
       id="rect5030"
       style="fill:#6e6969;fill-opacity:1;stroke:#000000;stroke-width:0.01526166;stroke-linecap:butt;stroke-linejoin:miter;stroke-miterlimit:4;stroke-dasharray:none;stroke-opacity:1" />
    <rect
       style="fill:#6e6969;fill-opacity:1;stroke:#000000;stroke-width:0.01526166;stroke-linecap:butt;stroke-linejoin:miter;stroke-miterlimit:4;stroke-dasharray:none;stroke-opacity:1"
       id="rect965"
       width="5.1158972"
       height="0.53864133"
       x="-29.98671"
       y="197.61301"
       transform="matrix(0.14361204,-0.98963406,0.97727095,0.21199409,0,0)" />
  </g>
</svg>
