  0
SECTION
  2
HEADER
  9
$ACADVER
  1
AC1009
  9
$INSBASE
 10
0.0
 20
0.0
 30
0.0
  9
$EXTMIN
 10
-6268.7674644872177
 20
5557.7434313305876
 30
-0.0015258207003583
  9
$EXTMAX
 10
-5444.7171715184104
 20
6138.8181142217318
 30
0.0000000349246037
  9
$LIMMIN
 10
-5508.0905079483828
 20
5393.4913176953351
  9
$LIMMAX
 10
-5508.0905079315298
 20
5397.491317695336
  9
$ORTHOMODE
 70
     0
  9
$REGENMODE
 70
     1
  9
$FILLMODE
 70
     1
  9
$QTEXTMODE
 70
     0
  9
$MIRRTEXT
 70
     1
  9
$DRAGMODE
 70
     2
  9
$LTSCALE
 40
1.0
  9
$OSMODE
 70
   167
  9
$ATTMODE
 70
     1
  9
$TEXTSIZE
 40
2.5
  9
$TRACEWID
 40
1.0
  9
$TEXTSTYLE
  7
STANDARD
  9
$CLAYER
  8
DIM
  9
$CELTYPE
  6
BYLAYER
  9
$CECOLOR
 62
   256
  9
$DIMSCALE
 40
2.0
  9
$DIMASZ
 40
2.5
  9
$DIMEXO
 40
0.625
  9
$DIMDLI
 40
3.75
  9
$DIMRND
 40
0.0
  9
$DIMDLE
 40
0.0
  9
$DIMEXE
 40
1.25
  9
$DIMTP
 40
0.0
  9
$DIMTM
 40
0.0
  9
$DIMTXT
 40
2.5
  9
$DIMCEN
 40
2.5
  9
$DIMTSZ
 40
0.0
  9
$DIMTOL
 70
     0
  9
$DIMLIM
 70
     0
  9
$DIMTIH
 70
     0
  9
$DIMTOH
 70
     0
  9
$DIMSE1
 70
     0
  9
$DIMSE2
 70
     0
  9
$DIMTAD
 70
     1
  9
$DIMZIN
 70
     8
  9
$DIMBLK
  1

  9
$DIMASO
 70
     1
  9
$DIMSHO
 70
     1
  9
$DIMPOST
  1

  9
$DIMAPOST
  1

  9
$DIMALT
 70
     0
  9
$DIMALTD
 70
     4
  9
$DIMALTF
 40
0.0394
  9
$DIMLFAC
 40
1.0
  9
$DIMTOFL
 70
     1
  9
$DIMTVP
 40
0.0
  9
$DIMTIX
 70
     0
  9
$DIMSOXD
 70
     0
  9
$DIMSAH
 70
     0
  9
$DIMBLK1
  1

  9
$DIMBLK2
  1

  9
$DIMSTYLE
  2
STANDARD
  9
$DIMCLRD
 70
     0
  9
$DIMCLRE
 70
     0
  9
$DIMCLRT
 70
   256
  9
$DIMTFAC
 40
1.0
  9
$DIMGAP
 40
0.625
  9
$LUNITS
 70
     2
  9
$LUPREC
 70
     4
  9
$SKETCHINC
 40
1.0
  9
$FILLETRAD
 40
0.0
  9
$AUNITS
 70
     0
  9
$AUPREC
 70
     0
  9
$MENU
  1
acad
  9
$ELEVATION
 40
0.0
  9
$PELEVATION
 40
0.0
  9
$THICKNESS
 40
0.0
  9
$LIMCHECK
 70
     0
  9
$BLIPMODE
 70
     0
  9
$CHAMFERA
 40
1.0
  9
$CHAMFERB
 40
1.0
  9
$SKPOLY
 70
     0
  9
$TDCREATE
 40
2451604.8699858789
  9
$TDUPDATE
 40
2452854.9130734489
  9
$TDINDWG
 40
5.0999815972000002
  9
$TDUSRTIMER
 40
5.0999814815000004
  9
$USRTIMER
 70
     1
  9
$ANGBASE
 50
0.0
  9
$ANGDIR
 70
     0
  9
$PDMODE
 70
     0
  9
$PDSIZE
 40
0.0
  9
$PLINEWID
 40
0.0
  9
$COORDS
 70
     1
  9
$SPLFRAME
 70
     0
  9
$SPLINETYPE
 70
     6
  9
$SPLINESEGS
 70
     8
  9
$ATTDIA
 70
     0
  9
$ATTREQ
 70
     1
  9
$HANDLING
 70
 22529
  9
$HANDSEED
  5
E119
  9
$SURFTAB1
 70
     6
  9
$SURFTAB2
 70
     6
  9
$SURFTYPE
 70
     6
  9
$SURFU
 70
     6
  9
$SURFV
 70
     6
  9
$UCSNAME
  2

  9
$UCSORG
 10
0.0
 20
0.0
 30
0.0
  9
$UCSXDIR
 10
1.0
 20
0.0
 30
0.0
  9
$UCSYDIR
 10
0.0
 20
1.0
 30
0.0
  9
$PUCSNAME
  2

  9
$PUCSORG
 10
0.0
 20
0.0
 30
0.0
  9
$PUCSXDIR
 10
1.0
 20
0.0
 30
0.0
  9
$PUCSYDIR
 10
0.0
 20
1.0
 30
0.0
  9
$USERI1
 70
     0
  9
$USERI2
 70
     0
  9
$USERI3
 70
     0
  9
$USERI4
 70
     0
  9
$USERI5
 70
     0
  9
$USERR1
 40
0.0
  9
$USERR2
 40
0.0
  9
$USERR3
 40
0.0
  9
$USERR4
 40
0.0
  9
$USERR5
 40
0.0
  9
$WORLDVIEW
 70
     1
  9
$SHADEDGE
 70
     3
  9
$SHADEDIF
 70
    70
  9
$TILEMODE
 70
     1
  9
$MAXACTVP
 70
    48
  9
$PLIMCHECK
 70
     0
  9
$PEXTMIN
 10
1.0000000000000000E+020
 20
1.0000000000000000E+020
 30
1.0000000000000000E+020
  9
$PEXTMAX
 10
-1.0000000000000000E+020
 20
-1.0000000000000000E+020
 30
-1.0000000000000000E+020
  9
$PLIMMIN
 10
0.0
 20
0.0
  9
$PLIMMAX
 10
420.0
 20
297.0
  9
$UNITMODE
 70
     0
  9
$VISRETAIN
 70
     1
  9
$PLINEGEN
 70
     0
  9
$PSLTSCALE
 70
     1
  0
ENDSEC
  0
SECTION
  2
TABLES
  0
TABLE
  2
VPORT
 70
     3
  0
VPORT
  2
*ACTIVE
 70
     0
 10
0.0
 20
0.0
 11
1.0
 21
1.0
 12
-5856.7423180028136
 22
5848.2807727761601
 13
0.0
 23
0.0
 14
10.0
 24
10.0
 15
10.0
 25
10.0
 16
0.0
 26
0.0
 36
1.0
 17
0.0
 27
0.0
 37
0.0
 40
587.08580030036228
 41
1.7132987910189981
 42
50.0
 43
0.0
 44
0.0
 50
0.0
 51
0.0
 71
     0
 72
   100
 73
     1
 74
     0
 75
     0
 76
     0
 77
     0
 78
     0
  0
ENDTAB
  0
TABLE
  2
LTYPE
 70
     2
  0
LTYPE
  2
CONTINUOUS
 70
     0
  3
Solid line
 72
    65
 73
     0
 40
0.0
  0
LTYPE
  2
CENTER
 70
     0
  3
Center ____ _ ____ _ ____ _ ____ _ ____ _ ____
 72
    65
 73
     4
 40
50.799999999999997
 49
31.75
 49
-6.3499999999999979
 49
6.3499999999999979
 49
-6.3499999999999979
  0
ENDTAB
  0
TABLE
  2
LAYER
 70
     6
  0
LAYER
  2
0
 70
     0
 62
     7
  6
CONTINUOUS
  0
LAYER
  2
DIM
 70
     0
 62
     3
  6
CONTINUOUS
  0
LAYER
  2
DEFPOINTS
 70
     0
 62
     7
  6
CONTINUOUS
  0
LAYER
  2
025
 70
     0
 62
     1
  6
CONTINUOUS
  0
LAYER
  2
CL
 70
     0
 62
     4
  6
CENTER
  0
LAYER
  2
MET-A3$0$PLOT
 70
     0
 62
    -7
  6
CONTINUOUS
  0
ENDTAB
  0
TABLE
  2
STYLE
 70
     4
  0
STYLE
  2
STANDARD
 70
     0
 40
0.0
 41
1.0
 50
0.0
 71
     0
 42
2.5
  3
txt
  4

  0
STYLE
  2
MET-A3$0$STANDARD
 70
     0
 40
0.0
 41
1.0
 50
0.0
 71
     0
 42
3.5
  3
txt
  4

  0
STYLE
  2
MET-A3$0$MET-A3$0$STANDARD
 70
     0
 40
2.25
 41
1.0
 50
0.0
 71
     0
 42
2.5
  3
ISO3098B
  4

  0
STYLE
  2
MET-A3$0$MET-A3$0$SIMPLEX
 70
     0
 40
4.5
 41
0.55
 50
0.0
 71
     0
 42
0.08
  3
ROMANS
  4

  0
ENDTAB
  0
TABLE
  2
VIEW
 70
     0
  0
ENDTAB
  0
TABLE
  2
UCS
 70
     0
  0
ENDTAB
  0
TABLE
  2
APPID
 70
     5
  0
APPID
  2
ACAD
 70
     0
  0
APPID
  2
CONTENTBLOCKDESCRIPTION
 70
     0
  0
APPID
  2
CONTENTBLOCKICON
 70
     0
  0
APPID
  2
CONTENTTABDATA
 70
     0
  0
APPID
  2
CONTENTCURRENTTAB
 70
     0
  0
ENDTAB
  0
TABLE
  2
DIMSTYLE
 70
     2
  0
DIMSTYLE
  2
STANDARD
 70
     0
  3

  4

  5

  6

  7

 40
0.0
 41
2.5
 42
0.625
 43
3.75
 44
1.25
 45
0.0
 46
0.0
 47
0.0
 48
0.0
140
2.5
141
2.5
142
0.0
143
0.0394
144
1.0
145
0.0
146
1.0
147
0.625
 71
     0
 72
     0
 73
     0
 74
     0
 75
     0
 76
     0
 77
     1
 78
     8
170
     0
171
     4
172
     1
173
     0
174
     0
175
     0
176
     0
177
     0
178
   256
  0
DIMSTYLE
  2
MET-A3$0$STANDARD
 70
     0
  3

  4

  5

  6

  7

 40
1.0
 41
0.18
 42
0.0625
 43
0.38
 44
0.18
 45
0.0
 46
0.0
 47
0.0
 48
0.0
140
0.18
141
0.09
142
0.0
143
25.399999999999999
144
1.0
145
0.0
146
1.0
147
0.09
 71
     0
 72
     0
 73
     1
 74
     1
 75
     0
 76
     0
 77
     0
 78
     0
170
     0
171
     2
172
     0
173
     0
174
     0
175
     0
176
     0
177
     0
178
     0
  0
ENDTAB
  0
ENDSEC
  0
SECTION
  2
BLOCKS
  0
BLOCK
  8
0
  2
$MODEL_SPACE
 70
     0
 10
0.0
 20
0.0
 30
0.0
  3
$MODEL_SPACE
  1

  0
ENDBLK
  5
DCEB
  8
0
  0
BLOCK
 67
     1
  8
0
  2
$PAPER_SPACE
 70
     0
 10
0.0
 20
0.0
 30
0.0
  3
$PAPER_SPACE
  1

  0
ENDBLK
  5
DCE7
 67
     1
  8
0
  0
BLOCK
  8
0
  2
ISS2
 70
     2
 10
0.0
 20
0.0
 30
0.0
  3
ISS2
  1

  0
ATTDEF
  5
DD78
  8
DIM
 62
     1
 10
2.9677186891291032
 20
2.1788143387834111
 30
0.0
 40
2.5
  1
A
 72
     4
 11
3.9244035458821722
 21
3.4288143387834111
 31
0.0
  3
Issue?
  2
ISSUE
 70
     0
  0
ATTDEF
  5
DD79
  8
DIM
 62
     1
 10
22.8351648338591
 20
2.177961678483245
 30
0.0
 40
2.5
  1
ORIGINAL ISSUE
 72
     4
 11
34.373364015305221
 21
3.4288143387833809
 31
0.0
  3
Alteration?
  2
ALT
 70
     0
  0
ATTDEF
  5
DD7A
  8
DIM
 62
     1
 10
68.322785117263606
 20
3.4288143387834111
 30
0.0
 40
2.5
  1

 72
     4
 11
68.322785117263606
 21
3.4288143387834111
 31
0.0
  3
Date?
  2
DATE
 70
     0
  0
ATTDEF
  5
DD7B
  8
DIM
 62
     1
 10
101.5997418303392
 20
3.2744828244587181
 30
0.0
 40
2.5
  1
-
 72
     4
 11
102.0763789381154
 21
3.4288143387834111
 31
0.0
  3
CR No.?
  2
CR
 70
     0
  0
ATTDEF
  5
DD7C
  8
DIM
 62
     1
 10
78.293122623077522
 20
2.188543828091174
 30
0.0
 40
2.5
  1
AAK
  3
Altered by?
  2
DRN
 70
     0
  0
ATTDEF
  5
DD7D
  8
DIM
 62
     4
 10
87.842982188951495
 20
2.1885438280911762
 30
0.0
 40
2.5
  1

  3
Checked by?
  2
CHB
 70
     8
  0
ENDBLK
  5
DD7E
  8
0
  0
BLOCK
  8
0
  2
DRGNO
 70
     2
 10
0.0
 20
0.0
 30
0.0
  3
DRGNO
  1

  0
ATTDEF
  5
DD81
  8
0
 62
     7
 10
380.89287107497631
 20
11.78500815208667
 30
0.0
 40
5.0
  1

 72
     4
 11
380.89287107497631
 21
11.78500815208667
 31
0.0
  3
Drawing number?
  2
NUMBER
 70
     0
  0
ATTDEF
  5
DD82
  8
0
 62
     7
 10
22.358978515035691
 20
279.87898006589347
 30
0.0
 40
5.0
  1

 72
     4
 11
22.358978515035691
 21
279.87898006589347
 31
0.0
  3
Drawing number?
  2
NUMBER
 70
     0
  0
ENDBLK
  5
DD83
  8
0
  0
BLOCK
  8
0
  2
TITLE1
 70
     2
 10
0.0
 20
0.0
 30
0.0
  3
TITLE1
  1

  0
INSERT
  5
DD86
  8
0
  2
DRGNO
 10
0.0
 20
0.0
 30
0.0
  0
ATTDEF
  5
DD87
  8
0
 62
     2
 10
298.51690151397952
 20
26.828125875573932
 30
0.0
 40
3.5
  1

 72
     4
 11
298.51690151397952
 21
26.828125875573932
 31
0.0
  3
Title?
  2
TITLE
 70
     0
  0
ATTDEF
  5
DD88
  8
0
 62
     7
 10
380.89287107497631
 20
11.78500815208667
 30
0.0
 40
5.0
  1

 72
     4
 11
380.89287107497631
 21
11.78500815208667
 31
0.0
  3
Drawing number?
  2
NUMBER
 70
     0
  0
ATTDEF
  5
DD89
  8
0
 62
     7
 10
22.358978515035691
 20
279.87898006589347
 30
0.0
 40
5.0
  1

 72
     4
 11
22.358978515035691
 21
279.87898006589347
 31
0.0
  3
Drawing number?
  2
NUMBER
 70
     0
  0
ATTDEF
  5
DD8A
  8
0
 62
     2
 10
384.93972967988799
 20
279.66410967025922
 30
0.0
 40
3.5
  1
 -
 72
     4
 11
386.16449093500393
 21
279.87898006589347
 31
0.0
  3
Frame Type?
  2
FRAME
 70
     0
  0
ATTDEF
  5
DD8B
  8
0
 62
     8
 10
276.84795506260531
 20
6.556593048591111
 30
0.0
 40
2.5
  1
20/2/94
  3
Date?
  2
DATE
 70
     0
  0
ATTDEF
  5
DD8C
  8
0
 62
     8
 10
245.67057346781559
 20
6.556593048591111
 30
0.0
 40
2.5
  1
1 : 1
  3
Scale?
  2
SCALE
 70
     0
  0
ATTDEF
  5
DD8D
  8
0
 62
     8
 10
245.6417610744424
 20
14.143504903422381
 30
0.0
 40
2.5
  1
CMG
  3
Customer?
  2
CUST
 70
     0
  0
ATTDEF
  5
DD8E
  8
0
 62
     8
 10
302.81466058801141
 20
6.7191436443883559
 30
0.0
 40
2.5
  1
A.A.KOYA
 72
     4
 11
309.50207532198129
 21
7.9699963046884932
 31
0.0
  3
Drawn by?
  2
NAME
 70
     0
  0
ATTDEF
  5
DD8F
  8
0
 62
     4
 10
330.63509381568991
 20
7.9699963046884941
 30
0.0
 40
2.5
  1

 72
     4
 11
330.63509381568991
 21
7.9699963046884941
 31
0.0
  3
Checked by?
  2
CHECKER
 70
     0
  0
ATTDEF
  5
DD90
  8
0
 62
     4
 10
343.69139033087203
 20
6.556593048591111
 30
0.0
 40
2.5
  1

  3
Date Checked?
  2
CHK-DATE
 70
     0
  0
ATTDEF
  5
DD91
  8
0
 62
     8
 10
302.14718982720109
 20
14.143504903422381
 30
0.0
 40
2.5
  1
-
  3
Material?
  2
MATL
 70
     0
  0
ATTDEF
  5
DD92
  8
0
 62
     8
 10
344.083802117657
 20
14.143504903422381
 30
0.0
 40
2.5
  1
-
  3
Weight?
  2
WT
 70
     0
  0
ATTDEF
  5
DD93
  8
0
 62
     8
 10
364.86364273456712
 20
28.161778697676631
 30
0.0
 40
2.5
  1
-
  3
Group display code?
  2
GRP
 70
     0
  0
ATTDEF
  5
DD94
  8
0
 62
     8
 10
379.28417585437188
 20
28.025052568831839
 30
0.0
 40
2.5
  1
-
  3
Part no?
  2
PRT
 70
     0
  0
ATTDEF
  5
DD95
  8
0
 62
     8
 10
378.45973199801699
 20
22.98324689765143
 30
0.0
 40
2.5
  1
-
 72
     4
 11
378.93636910579318
 21
23.137578411976129
 31
0.0
  3
Family no?
  2
FAM
 70
     0
  0
ATTDEF
  5
DD96
  8
0
 62
     8
 10
222.93955181261481
 20
10.20644515387349
 30
0.0
 40
2.5
  1
0.3
  3
Linear Tolerance?
  2
LIN-TOL
 70
     0
  0
ATTDEF
  5
DD97
  8
0
 62
     8
 10
222.93955181261481
 20
6.807961602573771
 30
0.0
 40
2.5
  1
1
  3
Angular Tolerance?
  2
ANG-TOL
 70
     0
  0
ENDBLK
  5
DD98
  8
0
  0
BLOCK
  8
0
  2
*D3
 70
     1
 10
0.0
 20
0.0
 30
0.0
  3
*D3
  1

  0
LINE
  5
DD9B
  8
DIM
 62
     0
 10
-5648.689166489683
 20
5895.8752316615237
 30
0.0
 11
-5572.5176074175342
 21
5895.8752316615237
 31
0.0
  0
LINE
  5
DD9C
  8
DIM
 62
     0
 10
-5648.6891647902175
 20
5889.525231661526
 30
0.0
 11
-5572.5176074175342
 21
5889.525231661526
 31
0.0
  0
LINE
  5
DD9D
  8
DIM
 62
     0
 10
-5575.0176074175333
 20
5900.8752316615264
 30
0.0
 11
-5575.0176074175333
 21
5905.8752316615246
 31
0.0
  0
LINE
  5
DD9E
  8
DIM
 62
     0
 10
-5575.0176074175333
 20
5884.5252316615242
 30
0.0
 11
-5575.0176074175333
 21
5866.31922893301
 31
0.0
  0
LINE
  5
DD9F
  8
DIM
 62
     0
 10
-5575.0176074175333
 20
5895.8752316615237
 30
0.0
 11
-5575.0176074175333
 21
5889.525231661526
 31
0.0
  0
SOLID
  5
DDA0
  8
DIM
 62
     0
 10
-5575.8509407508654
 20
5900.8752316615264
 30
0.0
 11
-5574.1842740842003
 21
5900.8752316615264
 31
0.0
 12
-5575.0176074175333
 22
5895.8752316615237
 32
0.0
 13
-5575.0176074175333
 23
5895.8752316615237
 33
0.0
  0
SOLID
  5
DDA1
  8
DIM
 62
     0
 10
-5575.8509407508654
 20
5884.5252316615242
 30
0.0
 11
-5574.1842740842003
 21
5884.5252316615242
 31
0.0
 12
-5575.0176074175333
 22
5889.525231661526
 32
0.0
 13
-5575.0176074175333
 23
5889.525231661526
 33
0.0
  0
TEXT
  5
DDA2
  8
DIM
 10
-5576.3631053711497
 20
5867.3645904609793
 30
0.0
 40
5.0
  1
6.35
 50
90.0
  0
POINT
  5
DDA3
  8
DEFPOINTS
 62
     0
 10
-5649.9391664896839
 20
5895.8752316615237
 30
0.0
  0
POINT
  5
DDA4
  8
DEFPOINTS
 62
     0
 10
-5649.9391647902175
 20
5889.525231661526
 30
0.0
  0
POINT
  5
DDA5
  8
DEFPOINTS
 62
     0
 10
-5575.0176074175333
 20
5889.525231661526
 30
0.0
  0
ENDBLK
  5
DDA6
  8
0
  0
BLOCK
  8
0
  2
*D4
 70
     1
 10
0.0
 20
0.0
 30
0.0
  3
*D4
  1

  0
LINE
  5
DDA9
  8
DIM
 62
     0
 10
-5749.939166489683
 20
5891.4502316615262
 30
0.0
 11
-5749.939166489683
 21
5847.4702586217063
 31
0.0
  0
LINE
  5
DDAA
  8
DIM
 62
     0
 10
-5649.9391664896839
 20
5891.4502316615262
 30
0.0
 11
-5649.9391664896839
 21
5847.4702586217063
 31
0.0
  0
LINE
  5
DDAB
  8
DIM
 62
     0
 10
-5744.9391664896821
 20
5849.9702586217063
 30
0.0
 11
-5654.939166489683
 21
5849.9702586217063
 31
0.0
  0
SOLID
  5
DDAC
  8
DIM
 62
     0
 10
-5744.9391664896821
 20
5850.8035919550402
 30
0.0
 11
-5744.9391664896821
 21
5849.1369252883742
 31
0.0
 12
-5749.939166489683
 22
5849.9702586217063
 32
0.0
 13
-5749.939166489683
 23
5849.9702586217063
 33
0.0
  0
SOLID
  5
DDAD
  8
DIM
 62
     0
 10
-5654.939166489683
 20
5850.8035919550402
 30
0.0
 11
-5654.939166489683
 21
5849.1369252883742
 31
0.0
 12
-5649.9391664896839
 22
5849.9702586217063
 32
0.0
 13
-5649.9391664896839
 23
5849.9702586217063
 33
0.0
  0
TEXT
  5
DDAE
  8
DIM
 10
-5704.8828909098738
 20
5851.3157565753236
 30
0.0
 40
5.0
  1
100
  0
POINT
  5
DDAF
  8
DEFPOINTS
 62
     0
 10
-5749.939166489683
 20
5892.7002316615253
 30
0.0
  0
POINT
  5
DDB0
  8
DEFPOINTS
 62
     0
 10
-5649.9391664896839
 20
5892.7002316615253
 30
0.0
  0
POINT
  5
DDB1
  8
DEFPOINTS
 62
     0
 10
-5649.9391664896839
 20
5849.9702586217063
 30
0.0
  0
ENDBLK
  5
DDB2
  8
0
  0
BLOCK
  8
0
  2
*D5
 70
     1
 10
0.0
 20
0.0
 30
0.0
  3
*D5
  1

  0
LINE
  5
DDB5
  8
DIM
 62
     0
 10
-5589.939166489683
 20
5905.7002316615253
 30
0.0
 11
-5589.939166489683
 21
5829.1569466105493
 31
0.0
  0
LINE
  5
DDB6
  8
DIM
 62
     0
 10
-5809.939166489683
 20
5905.7002316615253
 30
0.0
 11
-5809.939166489683
 21
5829.1569466105493
 31
0.0
  0
LINE
  5
DDB7
  8
DIM
 62
     0
 10
-5594.939166489683
 20
5831.6569466105457
 30
0.0
 11
-5804.939166489683
 21
5831.6569466105457
 31
0.0
  0
SOLID
  5
DDB8
  8
DIM
 62
     0
 10
-5594.939166489683
 20
5832.4902799438787
 30
0.0
 11
-5594.939166489683
 21
5830.8236132772136
 31
0.0
 12
-5589.939166489683
 22
5831.6569466105457
 32
0.0
 13
-5589.939166489683
 23
5831.6569466105457
 33
0.0
  0
SOLID
  5
DDB9
  8
DIM
 62
     0
 10
-5804.939166489683
 20
5832.4902799438787
 30
0.0
 11
-5804.939166489683
 21
5830.8236132772136
 31
0.0
 12
-5809.939166489683
 22
5831.6569466105457
 32
0.0
 13
-5809.939166489683
 23
5831.6569466105457
 33
0.0
  0
TEXT
  5
DDBA
  8
DIM
 10
-5704.656083270037
 20
5833.0024445641639
 30
0.0
 40
5.0
  1
220
  0
POINT
  5
DDBB
  8
DEFPOINTS
 62
     0
 10
-5589.939166489683
 20
5906.9502316615244
 30
0.0
  0
POINT
  5
DDBC
  8
DEFPOINTS
 62
     0
 10
-5809.939166489683
 20
5906.9502316615244
 30
0.0
  0
POINT
  5
DDBD
  8
DEFPOINTS
 62
     0
 10
-5809.939166489683
 20
5831.6569466105457
 30
0.0
  0
ENDBLK
  5
DDBE
  8
0
  0
BLOCK
  8
0
  2
*D6
 70
     1
 10
0.0
 20
0.0
 30
0.0
  3
*D6
  1

  0
LINE
  5
DDC1
  8
DIM
 62
     0
 10
-5714.939166489683
 20
5941.2002316615244
 30
0.0
 11
-5714.939166489683
 21
5990.1856840722312
 31
0.0
  0
LINE
  5
DDC2
  8
DIM
 62
     0
 10
-5684.939166489683
 20
5941.2002316615244
 30
0.0
 11
-5684.939166489683
 21
5990.1856840722312
 31
0.0
  0
LINE
  5
DDC3
  8
DIM
 62
     0
 10
-5709.9391664896812
 20
5987.6856840722312
 30
0.0
 11
-5689.939166489683
 21
5987.6856840722312
 31
0.0
  0
SOLID
  5
DDC4
  8
DIM
 62
     0
 10
-5709.9391664896812
 20
5988.5190174055651
 30
0.0
 11
-5709.9391664896812
 21
5986.8523507388991
 31
0.0
 12
-5714.939166489683
 22
5987.6856840722312
 32
0.0
 13
-5714.939166489683
 23
5987.6856840722312
 33
0.0
  0
SOLID
  5
DDC5
  8
DIM
 62
     0
 10
-5689.939166489683
 20
5988.5190174055651
 30
0.0
 11
-5689.939166489683
 21
5986.8523507388991
 31
0.0
 12
-5684.939166489683
 22
5987.6856840722312
 32
0.0
 13
-5684.939166489683
 23
5987.6856840722312
 33
0.0
  0
INSERT
  5
DDC7
  8
DIM
  2
*U7
 10
0.0
 20
0.0
 30
0.0
  0
POINT
  5
DDC8
  8
DEFPOINTS
 62
     0
 10
-5714.939166489683
 20
5939.9502316615253
 30
0.0
  0
POINT
  5
DDC9
  8
DEFPOINTS
 62
     0
 10
-5684.939166489683
 20
5939.9502316615253
 30
0.0
  0
POINT
  5
DDCA
  8
DEFPOINTS
 62
     0
 10
-5684.939166489683
 20
5987.6856840722312
 30
0.0
  0
ENDBLK
  5
DDCB
  8
0
  0
BLOCK
  8
0
  2
*U7
 70
     1
 10
0.0
 20
0.0
 30
0.0
  3
*U7
  1

  0
TEXT
  5
DFB6
  8
DIM
 10
-5705.0892347025092
 20
5989.2289992154792
 30
0.0
 40
5.0
  1
\U+2205
  0
TEXT
  5
DFB7
  8
DIM
 10
-5700.6315266533938
 20
5989.2289992154792
 30
0.0
 40
5.0
  1
30
  0
ENDBLK
  5
DFB8
  8
0
  0
BLOCK
  8
0
  2
*D8
 70
     1
 10
0.0
 20
0.0
 30
0.0
  3
*D8
  1

  0
LINE
  5
DDCE
  8
DIM
 62
     0
 10
-5793.189166489683
 20
5914.9502316615244
 30
0.0
 11
-5845.8903719217651
 21
5914.9502316615244
 31
0.0
  0
LINE
  5
DDCF
  8
DIM
 62
     0
 10
-5793.189166489683
 20
5898.9502316615244
 30
0.0
 11
-5845.8903719217651
 21
5898.9502316615244
 31
0.0
  0
LINE
  5
DDD0
  8
DIM
 62
     0
 10
-5843.3903719217651
 20
5909.9502316615244
 30
0.0
 11
-5843.3903719217651
 21
5903.9502316615253
 31
0.0
  0
SOLID
  5
DDD1
  8
DIM
 62
     0
 10
-5844.2237052550972
 20
5909.9502316615244
 30
0.0
 11
-5842.5570385884312
 21
5909.9502316615244
 31
0.0
 12
-5843.3903719217651
 22
5914.9502316615244
 32
0.0
 13
-5843.3903719217651
 23
5914.9502316615244
 33
0.0
  0
SOLID
  5
DDD2
  8
DIM
 62
     0
 10
-5844.2237052550972
 20
5903.9502316615253
 30
0.0
 11
-5842.5570385884312
 21
5903.9502316615253
 31
0.0
 12
-5843.3903719217651
 22
5898.9502316615244
 32
0.0
 13
-5843.3903719217651
 23
5898.9502316615244
 33
0.0
  0
INSERT
  5
DDD4
  8
DIM
  2
*U9
 10
0.0
 20
0.0
 30
0.0
  0
POINT
  5
DDD5
  8
DEFPOINTS
 62
     0
 10
-5791.939166489683
 20
5914.9502316615244
 30
0.0
  0
POINT
  5
DDD6
  8
DEFPOINTS
 62
     0
 10
-5791.939166489683
 20
5898.9502316615244
 30
0.0
  0
POINT
  5
DDD7
  8
DEFPOINTS
 62
     0
 10
-5843.3903719217651
 20
5898.9502316615244
 30
0.0
  0
ENDBLK
  5
DDD8
  8
0
  0
BLOCK
  8
0
  2
*U9
 70
     1
 10
0.0
 20
0.0
 30
0.0
  3
*U9
  1

  0
TEXT
  5
DFBA
  8
DIM
 10
-5844.9336870650131
 20
5901.7950474868994
 30
0.0
 40
5.0
  1
\U+2205
 50
90.0
  0
TEXT
  5
DFBB
  8
DIM
 10
-5844.9336870650131
 20
5906.252755536012
 30
0.0
 40
5.0
  1
16
 50
90.0
  0
ENDBLK
  5
DFBC
  8
0
  0
BLOCK
  8
0
  2
*D10
 70
     1
 10
0.0
 20
0.0
 30
0.0
  3
*D10
  1

  0
LINE
  5
DDDB
  8
DIM
 62
     0
 10
-5701.189166489683
 20
5914.9502316615244
 30
0.0
 11
-5856.8618151712672
 21
5914.9502316615244
 31
0.0
  0
LINE
  5
DDDC
  8
DIM
 62
     0
 10
-5701.189166489683
 20
5870.4502316615253
 30
0.0
 11
-5856.8618151712672
 21
5870.4502316615253
 31
0.0
  0
LINE
  5
DDDD
  8
DIM
 62
     0
 10
-5854.3618151712672
 20
5909.9502316615244
 30
0.0
 11
-5854.3618151712672
 21
5875.4502316615244
 31
0.0
  0
TEXT
  5
DDDE
  8
0
 10
-5869.0100000000002
 20
5893.4700000000003
 30
0.0
 40
5.0
  1
%%c44.5
  0
SOLID
  5
DDDF
  8
DIM
 62
     0
 10
-5855.1951485045993
 20
5909.9502316615244
 30
0.0
 11
-5853.5284818379341
 21
5909.9502316615244
 31
0.0
 12
-5854.3618151712672
 22
5914.9502316615244
 32
0.0
 13
-5854.3618151712672
 23
5914.9502316615244
 33
0.0
  0
SOLID
  5
DDE0
  8
DIM
 62
     0
 10
-5855.1951485045993
 20
5875.4502316615244
 30
0.0
 11
-5853.5284818379341
 21
5875.4502316615244
 31
0.0
 12
-5854.3618151712672
 22
5870.4502316615253
 32
0.0
 13
-5854.3618151712672
 23
5870.4502316615253
 33
0.0
  0
POINT
  5
DDE1
  8
DEFPOINTS
 62
     0
 10
-5699.939166489683
 20
5914.9502316615244
 30
0.0
  0
POINT
  5
DDE2
  8
DEFPOINTS
 62
     0
 10
-5699.939166489683
 20
5870.4502316615253
 30
0.0
  0
POINT
  5
DDE3
  8
DEFPOINTS
 62
     0
 10
-5854.3618151712672
 20
5870.4502316615253
 30
0.0
  0
ENDBLK
  5
DDE4
  8
0
  0
BLOCK
  8
0
  2
*D11
 70
     1
 10
0.0
 20
0.0
 30
0.0
  3
*D11
  1

  0
LINE
  5
DDE7
  8
DIM
 62
     0
 10
-5701.189166489683
 20
5892.7002316615253
 30
0.0
 11
-5867.1340035855719
 21
5892.7002316615253
 31
0.0
  0
LINE
  5
DDE8
  8
DIM
 62
     0
 10
-5701.189166489683
 20
5939.9502316615253
 30
0.0
 11
-5867.1340035855719
 21
5939.9502316615253
 31
0.0
  0
LINE
  5
DDE9
  8
DIM
 62
     0
 10
-5864.6340035855737
 20
5897.7002316615253
 30
0.0
 11
-5864.6340035855737
 21
5934.9502316615244
 31
0.0
  0
SOLID
  5
DDEA
  8
DIM
 62
     0
 10
-5865.4673369189059
 20
5897.7002316615253
 30
0.0
 11
-5863.8006702522416
 21
5897.7002316615253
 31
0.0
 12
-5864.6340035855737
 22
5892.7002316615253
 32
0.0
 13
-5864.6340035855737
 23
5892.7002316615253
 33
0.0
  0
SOLID
  5
DDEB
  8
DIM
 62
     0
 10
-5865.4673369189059
 20
5934.9502316615244
 30
0.0
 11
-5863.8006702522416
 21
5934.9502316615244
 31
0.0
 12
-5864.6340035855737
 22
5939.9502316615253
 32
0.0
 13
-5864.6340035855737
 23
5939.9502316615253
 33
0.0
  0
TEXT
  5
DDEC
  8
DIM
 10
-5865.8942355091767
 20
5921.4111925628195
 30
0.0
 40
5.0
  1
47.2
 50
90.0
  0
POINT
  5
DDED
  8
DEFPOINTS
 62
     0
 10
-5699.939166489683
 20
5892.7002316615253
 30
0.0
  0
POINT
  5
DDEE
  8
DEFPOINTS
 62
     0
 10
-5699.939166489683
 20
5939.9502316615253
 30
0.0
  0
POINT
  5
DDEF
  8
DEFPOINTS
 62
     0
 10
-5864.6340035855737
 20
5939.9502316615253
 30
0.0
  0
ENDBLK
  5
DDF0
  8
0
  0
BLOCK
  8
0
  2
*D12
 70
     1
 10
0.0
 20
0.0
 30
0.0
  3
*D12
  1

  0
LINE
  5
DDF3
  8
DIM
 62
     0
 10
-5698.689166489683
 20
5969.9502316615244
 30
0.0
 11
-5529.1527576083654
 21
5969.9502316615244
 31
0.0
  0
LINE
  5
DDF4
  8
DIM
 62
     0
 10
-5698.689166489683
 20
5860.4502316615244
 30
0.0
 11
-5529.1527576083654
 21
5860.4502316615244
 31
0.0
  0
LINE
  5
DDF5
  8
DIM
 62
     0
 10
-5531.6527576083636
 20
5964.9502316615253
 30
0.0
 11
-5531.6527576083636
 21
5865.4502316615262
 31
0.0
  0
SOLID
  5
DDF6
  8
DIM
 62
     0
 10
-5532.4860909416993
 20
5964.9502316615253
 30
0.0
 11
-5530.8194242750324
 21
5964.9502316615253
 31
0.0
 12
-5531.6527576083636
 22
5969.9502316615244
 32
0.0
 13
-5531.6527576083636
 23
5969.9502316615244
 33
0.0
  0
SOLID
  5
DDF7
  8
DIM
 62
     0
 10
-5532.4860909416993
 20
5865.4502316615262
 30
0.0
 11
-5530.8194242750324
 21
5865.4502316615262
 31
0.0
 12
-5531.6527576083636
 22
5860.4502316615244
 32
0.0
 13
-5531.6527576083636
 23
5860.4502316615244
 33
0.0
  0
TEXT
  5
DDF8
  8
DIM
 10
-5532.9982555619827
 20
5907.8451839125464
 30
0.0
 40
5.0
  1
109.5
 50
90.0
  0
POINT
  5
DDF9
  8
DEFPOINTS
 62
     0
 10
-5699.939166489683
 20
5969.9502316615244
 30
0.0
  0
POINT
  5
DDFA
  8
DEFPOINTS
 62
     0
 10
-5699.939166489683
 20
5860.4502316615244
 30
0.0
  0
POINT
  5
DDFB
  8
DEFPOINTS
 62
     0
 10
-5531.6527576083636
 20
5860.4502316615244
 30
0.0
  0
ENDBLK
  5
DDFC
  8
0
  0
BLOCK
  8
0
  2
*D13
 70
     1
 10
0.0
 20
0.0
 30
0.0
  3
*D13
  1

  0
LINE
  5
DDFF
  8
DIM
 62
     0
 10
-5701.189166489683
 20
5870.4502316615253
 30
0.0
 11
-5856.8618151712672
 21
5870.4502316615253
 31
0.0
  0
LINE
  5
DE00
  8
DIM
 62
     0
 10
-5701.189166489683
 20
5860.4502316615244
 30
0.0
 11
-5856.8618151712672
 21
5860.4502316615244
 31
0.0
  0
LINE
  5
DE01
  8
DIM
 62
     0
 10
-5854.3618151712672
 20
5875.4502316615244
 30
0.0
 11
-5854.3618151712672
 21
5880.4502316615271
 31
0.0
  0
LINE
  5
DE02
  8
DIM
 62
     0
 10
-5854.3618151712672
 20
5855.4502316615244
 30
0.0
 11
-5854.3618151712672
 21
5850.4502316615253
 31
0.0
  0
LINE
  5
DE03
  8
DIM
 62
     0
 10
-5854.3618151712672
 20
5870.4502316615253
 30
0.0
 11
-5854.3618151712672
 21
5860.4502316615244
 31
0.0
  0
SOLID
  5
DE04
  8
DIM
 62
     0
 10
-5855.1951485045993
 20
5875.4502316615244
 30
0.0
 11
-5853.5284818379341
 21
5875.4502316615244
 31
0.0
 12
-5854.3618151712672
 22
5870.4502316615253
 32
0.0
 13
-5854.3618151712672
 23
5870.4502316615253
 33
0.0
  0
SOLID
  5
DE05
  8
DIM
 62
     0
 10
-5855.1951485045993
 20
5855.4502316615244
 30
0.0
 11
-5853.5284818379341
 21
5855.4502316615244
 31
0.0
 12
-5854.3618151712672
 22
5860.4502316615244
 32
0.0
 13
-5854.3618151712672
 23
5860.4502316615244
 33
0.0
  0
TEXT
  5
DE06
  8
DIM
 10
-5855.7073131248853
 20
5862.0992766819882
 30
0.0
 40
5.0
  1
10
 50
90.0
  0
POINT
  5
DE07
  8
DEFPOINTS
 62
     0
 10
-5699.939166489683
 20
5870.4502316615253
 30
0.0
  0
POINT
  5
DE08
  8
DEFPOINTS
 62
     0
 10
-5699.939166489683
 20
5860.4502316615244
 30
0.0
  0
POINT
  5
DE09
  8
DEFPOINTS
 62
     0
 10
-5854.3618151712672
 20
5860.4502316615244
 30
0.0
  0
ENDBLK
  5
DE0A
  8
0
  0
BLOCK
  8
0
  2
*D14
 70
     1
 10
0.0
 20
0.0
 30
0.0
  3
*D14
  1

  0
LINE
  5
DE0D
  8
DIM
 62
     0
 10
-5702.439166489683
 20
5914.9502316615244
 30
0.0
 11
-5856.8618151712672
 21
5914.9502316615244
 31
0.0
  0
LINE
  5
DE0E
  8
DIM
 62
     0
 10
-5793.189166489683
 20
5934.9502316615244
 30
0.0
 11
-5856.8618151712672
 21
5934.9502316615244
 31
0.0
  0
LINE
  5
DE0F
  8
DIM
 62
     0
 10
-5854.3618151712672
 20
5919.9502316615244
 30
0.0
 11
-5854.3618151712672
 21
5929.9502316615253
 31
0.0
  0
SOLID
  5
DE10
  8
DIM
 62
     0
 10
-5855.1951485045993
 20
5919.9502316615244
 30
0.0
 11
-5853.5284818379341
 21
5919.9502316615244
 31
0.0
 12
-5854.3618151712672
 22
5914.9502316615244
 32
0.0
 13
-5854.3618151712672
 23
5914.9502316615244
 33
0.0
  0
SOLID
  5
DE11
  8
DIM
 62
     0
 10
-5855.1951485045993
 20
5929.9502316615253
 30
0.0
 11
-5853.5284818379341
 21
5929.9502316615253
 31
0.0
 12
-5854.3618151712672
 22
5934.9502316615244
 32
0.0
 13
-5854.3618151712672
 23
5934.9502316615244
 33
0.0
  0
TEXT
  5
DE12
  8
DIM
 10
-5855.7073131248853
 20
5921.8260843218241
 30
0.0
 40
5.0
  1
20
 50
90.0
  0
POINT
  5
DE13
  8
DEFPOINTS
 62
     0
 10
-5701.189166489683
 20
5914.9502316615244
 30
0.0
  0
POINT
  5
DE14
  8
DEFPOINTS
 62
     0
 10
-5791.939166489683
 20
5934.9502316615244
 30
0.0
  0
POINT
  5
DE15
  8
DEFPOINTS
 62
     0
 10
-5854.3618151712672
 20
5934.9502316615244
 30
0.0
  0
ENDBLK
  5
DE16
  8
0
  0
BLOCK
  8
0
  2
*D15
 70
     1
 10
0.0
 20
0.0
 30
0.0
  3
*D15
  1

  0
LINE
  5
DE19
  8
DIM
 62
     0
 10
-5791.939166489683
 20
5905.7002316615253
 30
0.0
 11
-5791.939166489683
 21
5838.2196157224535
 31
0.0
  0
LINE
  5
DE1A
  8
DIM
 62
     0
 10
-5607.939166489683
 20
5905.7002316615253
 30
0.0
 11
-5607.939166489683
 21
5838.2196157224535
 31
0.0
  0
LINE
  5
DE1B
  8
DIM
 62
     0
 10
-5786.939166489683
 20
5840.7196157224562
 30
0.0
 11
-5612.939166489683
 21
5840.7196157224562
 31
0.0
  0
SOLID
  5
DE1C
  8
DIM
 62
     0
 10
-5786.939166489683
 20
5841.5529490557874
 30
0.0
 11
-5786.939166489683
 21
5839.8862823891213
 31
0.0
 12
-5791.939166489683
 22
5840.7196157224562
 32
0.0
 13
-5791.939166489683
 23
5840.7196157224562
 33
0.0
  0
SOLID
  5
DE1D
  8
DIM
 62
     0
 10
-5612.939166489683
 20
5841.5529490557874
 30
0.0
 11
-5612.939166489683
 21
5839.8862823891213
 31
0.0
 12
-5607.939166489683
 22
5840.7196157224562
 32
0.0
 13
-5607.939166489683
 23
5840.7196157224562
 33
0.0
  0
TEXT
  5
DE1E
  8
DIM
 10
-5704.8828909098738
 20
5842.0651136760707
 30
0.0
 40
5.0
  1
184
  0
POINT
  5
DE1F
  8
DEFPOINTS
 62
     0
 10
-5791.939166489683
 20
5906.9502316615244
 30
0.0
  0
POINT
  5
DE20
  8
DEFPOINTS
 62
     0
 10
-5607.939166489683
 20
5906.9502316615244
 30
0.0
  0
POINT
  5
DE21
  8
DEFPOINTS
 62
     0
 10
-5607.939166489683
 20
5840.7196157224562
 30
0.0
  0
ENDBLK
  5
DE22
  8
0
  0
BLOCK
  8
0
  2
*D16
 70
     1
 10
0.0
 20
0.0
 30
0.0
  3
*D16
  1

  0
LINE
  5
DE25
  8
DIM
 62
     0
 10
-6115.6182870061493
 20
5943.5788748194655
 30
0.0
 11
-6115.5939923964079
 21
5892.1569718424471
 31
0.0
  0
LINE
  5
DE26
  8
DIM
 62
     0
 10
-6006.1182992271752
 20
5943.6306087949852
 30
0.0
 11
-6006.0940046174328
 21
5892.2087058179668
 31
0.0
  0
LINE
  5
DE27
  8
DIM
 62
     0
 10
-6110.5951740954379
 20
5894.6593338454159
 30
0.0
 11
-6011.0951852003891
 21
5894.7063432569621
 31
0.0
  0
SOLID
  5
DE28
  8
DIM
 62
     0
 10
-6110.5955678091013
 20
5895.4926670857431
 30
0.0
 11
-6110.5947803817726
 21
5893.8260006050887
 31
0.0
 12
-6115.595173537401
 22
5894.6569715634287
 32
0.0
 13
-6115.595173537401
 23
5894.6569715634287
 33
0.0
  0
SOLID
  5
DE29
  8
DIM
 62
     0
 10
-6011.0955789140517
 20
5895.5396764972884
 30
0.0
 11
-6011.0947914867238
 21
5893.8730100166358
 31
0.0
 12
-6006.0951857584269
 22
5894.7087055389493
 32
0.0
 13
-6006.0951857584269
 23
5894.7087055389493
 33
0.0
  0
TEXT
  5
DE2A
  8
DIM
 10
-6075.0119280962454
 20
5896.055749899102
 30
0.0
 40
5.0
  1
109.5 CRS
 50
0.0270697585848215
  0
POINT
  5
DE2B
  8
DEFPOINTS
 62
     0
 10
-6115.6188775766459
 20
5944.8288746799553
 30
0.0
  0
POINT
  5
DE2C
  8
DEFPOINTS
 62
     0
 10
-6006.1188897976717
 20
5944.880608655476
 30
0.0
  0
POINT
  5
DE2D
  8
DEFPOINTS
 62
     0
 10
-6006.0951857584269
 20
5894.7087055389493
 30
0.0
  0
ENDBLK
  5
DE2E
  8
0
  0
BLOCK
  8
0
  2
*D17
 70
     1
 10
0.0
 20
0.0
 30
0.0
  3
*D17
  1

  0
LINE
  5
DE31
  8
DIM
 62
     0
 10
-6116.8688775766468
 20
5977.8288746799544
 30
0.0
 11
-6186.8013905825464
 21
5977.8288746799562
 31
0.0
  0
LINE
  5
DE32
  8
DIM
 62
     0
 10
-6116.8688775766468
 20
5911.8288746799544
 30
0.0
 11
-6186.8013905825464
 21
5911.8288746799562
 31
0.0
  0
LINE
  5
DE33
  8
DIM
 62
     0
 10
-6184.3013905825474
 20
5972.8288746799562
 30
0.0
 11
-6184.3013905825474
 21
5916.8288746799562
 31
0.0
  0
SOLID
  5
DE34
  8
DIM
 62
     0
 10
-6185.1347239158777
 20
5972.8288746799562
 30
0.0
 11
-6183.4680572492116
 21
5972.8288746799562
 31
0.0
 12
-6184.3013905825474
 22
5977.8288746799562
 32
0.0
 13
-6184.3013905825474
 23
5977.8288746799562
 33
0.0
  0
SOLID
  5
DE35
  8
DIM
 62
     0
 10
-6185.1347239158777
 20
5916.8288746799562
 30
0.0
 11
-6183.4680572492116
 21
5916.8288746799562
 31
0.0
 12
-6184.3013905825474
 22
5911.8288746799562
 32
0.0
 13
-6184.3013905825474
 23
5911.8288746799562
 33
0.0
  0
TEXT
  5
DE36
  8
DIM
 10
-6185.6468885361619
 20
5941.6774422106491
 30
0.0
 40
5.0
  1
66
 50
90.0
  0
POINT
  5
DE37
  8
DEFPOINTS
 62
     0
 10
-6115.6188775766477
 20
5977.8288746799544
 30
0.0
  0
POINT
  5
DE38
  8
DEFPOINTS
 62
     0
 10
-6115.6188775766477
 20
5911.8288746799544
 30
0.0
  0
POINT
  5
DE39
  8
DEFPOINTS
 62
     0
 10
-6184.3013905825474
 20
5911.8288746799562
 30
0.0
  0
ENDBLK
  5
DE3A
  8
0
  0
BLOCK
  8
0
  2
*D18
 70
     1
 10
0.0
 20
0.0
 30
0.0
  3
*D18
  1

  0
LINE
  5
DE3D
  8
DIM
 62
     0
 10
-6148.6188775766477
 20
5943.5788746799544
 30
0.0
 11
-6148.6188775766477
 21
5878.5556935468476
 31
0.0
  0
LINE
  5
DE3E
  8
DIM
 62
     0
 10
-5973.1188775766477
 20
5943.5788746799544
 30
0.0
 11
-5973.1188775766477
 21
5878.5556935468476
 31
0.0
  0
LINE
  5
DE3F
  8
DIM
 62
     0
 10
-6143.6188775766477
 20
5881.0556935468476
 30
0.0
 11
-5978.1188775766477
 21
5881.0556935468476
 31
0.0
  0
SOLID
  5
DE40
  8
DIM
 62
     0
 10
-6143.6188775766477
 20
5881.8890268801797
 30
0.0
 11
-6143.6188775766477
 21
5880.2223602135136
 31
0.0
 12
-6148.6188775766477
 22
5881.0556935468476
 32
0.0
 13
-6148.6188775766477
 23
5881.0556935468476
 33
0.0
  0
SOLID
  5
DE41
  8
DIM
 62
     0
 10
-5978.1188775766477
 20
5881.8890268801797
 30
0.0
 11
-5978.1188775766477
 21
5880.2223602135136
 31
0.0
 12
-5973.1188775766477
 22
5881.0556935468476
 32
0.0
 13
-5973.1188775766477
 23
5881.0556935468476
 33
0.0
  0
TEXT
  5
DE42
  8
DIM
 10
-6068.2239253256248
 20
5882.4011915004648
 30
0.0
 40
5.0
  1
175.5
  0
POINT
  5
DE43
  8
DEFPOINTS
 62
     0
 10
-6148.6188775766477
 20
5944.8288746799562
 30
0.0
  0
POINT
  5
DE44
  8
DEFPOINTS
 62
     0
 10
-5973.1188775766477
 20
5944.8288746799562
 30
0.0
  0
POINT
  5
DE45
  8
DEFPOINTS
 62
     0
 10
-5973.1188775766477
 20
5881.0556935468476
 30
0.0
  0
ENDBLK
  5
DE46
  8
0
  0
BLOCK
  8
0
  2
*D19
 70
     1
 10
0.0
 20
0.0
 30
0.0
  3
*D19
  1

  0
LINE
  5
DE49
  8
DIM
 62
     0
 10
-6116.8589559922993
 20
5923.828877023715
 30
0.0
 11
-6171.0242293443735
 21
5923.828877023715
 31
0.0
  0
LINE
  5
DE4A
  8
DIM
 62
     0
 10
-6116.8787991609961
 20
5965.8288723361984
 30
0.0
 11
-6171.0242293443735
 21
5965.8288723361984
 31
0.0
  0
LINE
  5
DE4B
  8
DIM
 62
     0
 10
-6168.5242293443744
 20
5928.828877023715
 30
0.0
 11
-6168.5242293443744
 21
5960.8288723361993
 31
0.0
  0
SOLID
  5
DE4C
  8
DIM
 62
     0
 10
-6169.3575626777056
 20
5928.828877023715
 30
0.0
 11
-6167.6908960110404
 21
5928.828877023715
 31
0.0
 12
-6168.5242293443744
 22
5923.828877023715
 32
0.0
 13
-6168.5242293443744
 23
5923.828877023715
 33
0.0
  0
SOLID
  5
DE4D
  8
DIM
 62
     0
 10
-6169.3575626777056
 20
5960.8288723361993
 30
0.0
 11
-6167.6908960110404
 21
5960.8288723361993
 31
0.0
 12
-6168.5242293443744
 22
5965.8288723361984
 32
0.0
 13
-6168.5242293443744
 23
5965.8288723361984
 33
0.0
  0
INSERT
  5
DE4F
  8
DIM
  2
*U20
 10
0.0
 20
0.0
 30
0.0
  0
POINT
  5
DE50
  8
DEFPOINTS
 62
     0
 10
-6115.6089559923003
 20
5923.828877023715
 30
0.0
  0
POINT
  5
DE51
  8
DEFPOINTS
 62
     0
 10
-6115.6287991609961
 20
5965.8288723361984
 30
0.0
  0
POINT
  5
DE52
  8
DEFPOINTS
 62
     0
 10
-6168.5242293443744
 20
5965.8288723361984
 30
0.0
  0
ENDBLK
  5
DE53
  8
0
  0
BLOCK
  8
0
  2
*U20
 70
     1
 10
0.0
 20
0.0
 30
0.0
  3
*U20
  1

  0
TEXT
  5
DF8F
  8
DIM
 10
-6170.0675444876224
 20
5937.289652306149
 30
0.0
 40
5.0
  1
\U+2205
 50
90.0
  0
TEXT
  5
DF90
  8
DIM
 10
-6170.0675444876224
 20
5941.7473603552626
 30
0.0
 40
5.0
  1
42.0
 50
90.0
  0
ENDBLK
  5
DF91
  8
0
  0
BLOCK
  8
0
  2
*D21
 70
     1
 10
0.0
 20
0.0
 30
0.0
  3
*D21
  1

  0
LINE
  5
DE56
  8
DIM
 62
     0
 10
-6149.859897222047
 20
6007.391068133642
 30
0.0
 11
-6170.9102693932136
 21
6007.391068133642
 31
0.0
  0
LINE
  5
DE57
  8
DIM
 62
     0
 10
-6144.2188775766481
 20
6017.4044954409064
 30
0.0
 11
-6170.9102693932136
 21
6017.4044954409064
 31
0.0
  0
LINE
  5
DE58
  8
DIM
 62
     0
 10
-6168.4102693932145
 20
6002.3910681336429
 30
0.0
 11
-6168.4102693932145
 21
5997.3910681336438
 31
0.0
  0
LINE
  5
DE59
  8
DIM
 62
     0
 10
-6168.4102693932145
 20
6022.4044954409046
 30
0.0
 11
-6168.4102693932145
 21
6027.4044954409046
 31
0.0
  0
LINE
  5
DE5A
  8
DIM
 62
     0
 10
-6168.4102693932145
 20
6007.391068133642
 30
0.0
 11
-6168.4102693932145
 21
6017.4044954409064
 31
0.0
  0
SOLID
  5
DE5B
  8
DIM
 62
     0
 10
-6169.2436027265476
 20
6002.3910681336429
 30
0.0
 11
-6167.5769360598806
 21
6002.3910681336429
 31
0.0
 12
-6168.4102693932145
 22
6007.391068133642
 32
0.0
 13
-6168.4102693932145
 23
6007.391068133642
 33
0.0
  0
SOLID
  5
DE5C
  8
DIM
 62
     0
 10
-6169.2436027265476
 20
6022.4044954409046
 30
0.0
 11
-6167.5769360598806
 21
6022.4044954409046
 31
0.0
 12
-6168.4102693932145
 22
6017.4044954409064
 32
0.0
 13
-6168.4102693932145
 23
6017.4044954409064
 33
0.0
  0
TEXT
  5
DE5D
  8
DIM
 10
-6169.7557673468309
 20
6009.0468268077357
 30
0.0
 40
5.0
  1
10
 50
90.0
  0
POINT
  5
DE5E
  8
DEFPOINTS
 62
     0
 10
-6148.6098972220479
 20
6007.391068133642
 30
0.0
  0
POINT
  5
DE5F
  8
DEFPOINTS
 62
     0
 10
-6142.9688775766481
 20
6017.4044954409064
 30
0.0
  0
POINT
  5
DE60
  8
DEFPOINTS
 62
     0
 10
-6168.4102693932145
 20
6017.4044954409064
 30
0.0
  0
ENDBLK
  5
DE61
  8
0
  0
BLOCK
  8
0
  2
*D22
 70
     1
 10
0.0
 20
0.0
 30
0.0
  3
*D22
  1

  0
LINE
  5
DE64
  8
DIM
 62
     0
 10
-6116.868878506968
 20
5923.8288746799553
 30
0.0
 11
-6171.0242293443735
 21
5923.8288746799562
 31
0.0
  0
LINE
  5
DE65
  8
DIM
 62
     0
 10
-6116.8559558941761
 20
5917.478877732422
 30
0.0
 11
-6171.0242293443735
 21
5917.4788777324229
 31
0.0
  0
LINE
  5
DE66
  8
DIM
 62
     0
 10
-6168.5242293443744
 20
5928.8288746799581
 30
0.0
 11
-6168.5242293443744
 21
5933.8288746799572
 31
0.0
  0
LINE
  5
DE67
  8
DIM
 62
     0
 10
-6168.5242293443744
 20
5912.4788777324211
 30
0.0
 11
-6168.5242293443744
 21
5893.8942938306491
 31
0.0
  0
LINE
  5
DE68
  8
DIM
 62
     0
 10
-6168.5242293443744
 20
5923.8288746799562
 30
0.0
 11
-6168.5242293443744
 21
5917.4788777324229
 31
0.0
  0
SOLID
  5
DE69
  8
DIM
 62
     0
 10
-6169.3575626777056
 20
5928.8288746799581
 30
0.0
 11
-6167.6908960110404
 21
5928.8288746799581
 31
0.0
 12
-6168.5242293443744
 22
5923.8288746799562
 32
0.0
 13
-6168.5242293443744
 23
5923.8288746799562
 33
0.0
  0
SOLID
  5
DE6A
  8
DIM
 62
     0
 10
-6169.3575626777056
 20
5912.4788777324211
 30
0.0
 11
-6167.6908960110404
 21
5912.4788777324211
 31
0.0
 12
-6168.5242293443744
 22
5917.4788777324229
 32
0.0
 13
-6168.5242293443744
 23
5917.4788777324229
 33
0.0
  0
TEXT
  5
DE6B
  8
DIM
 10
-6171.2868487168171
 20
5894.7998190693943
 30
0.0
 40
5.0
  1
(6.3)
 50
90.0
  0
POINT
  5
DE6C
  8
DEFPOINTS
 62
     0
 10
-6115.618878506968
 20
5923.8288746799553
 30
0.0
  0
POINT
  5
DE6D
  8
DEFPOINTS
 62
     0
 10
-6115.6059558941761
 20
5917.478877732422
 30
0.0
  0
POINT
  5
DE6E
  8
DEFPOINTS
 62
     0
 10
-6168.5242293443744
 20
5917.4788777324229
 30
0.0
  0
ENDBLK
  5
DE6F
  8
0
  0
BLOCK
  8
0
  2
*D23
 70
     1
 10
0.0
 20
0.0
 30
0.0
  3
*D23
  1

  0
LINE
  5
DE72
  8
DIM
 62
     0
 10
-6149.868873893598
 20
6026.3910660131014
 30
0.0
 11
-6188.1839227900127
 21
6026.3910660131014
 31
0.0
  0
LINE
  5
DE73
  8
DIM
 62
     0
 10
-6149.859897222047
 20
6007.391068133642
 30
0.0
 11
-6188.1839227900127
 21
6007.391068133642
 31
0.0
  0
LINE
  5
DE74
  8
DIM
 62
     0
 10
-6185.6839227900136
 20
6021.3910660131014
 30
0.0
 11
-6185.6839227900136
 21
6012.3910681336438
 31
0.0
  0
SOLID
  5
DE75
  8
DIM
 62
     0
 10
-6186.5172561233449
 20
6021.3910660131014
 30
0.0
 11
-6184.8505894566788
 21
6021.3910660131014
 31
0.0
 12
-6185.6839227900136
 22
6026.3910660131014
 32
0.0
 13
-6185.6839227900136
 23
6026.3910660131014
 33
0.0
  0
SOLID
  5
DE76
  8
DIM
 62
     0
 10
-6186.5172561233449
 20
6012.3910681336438
 30
0.0
 11
-6184.8505894566788
 21
6012.3910681336438
 31
0.0
 12
-6185.6839227900136
 22
6007.391068133642
 32
0.0
 13
-6185.6839227900136
 23
6007.391068133642
 33
0.0
  0
TEXT
  5
DE77
  8
DIM
 10
-6187.02942074363
 20
6013.5281748496318
 30
0.0
 40
5.0
  1
19
 50
90.0
  0
POINT
  5
DE78
  8
DEFPOINTS
 62
     0
 10
-6148.6188738935998
 20
6026.3910660131014
 30
0.0
  0
POINT
  5
DE79
  8
DEFPOINTS
 62
     0
 10
-6148.6098972220479
 20
6007.391068133642
 30
0.0
  0
POINT
  5
DE7A
  8
DEFPOINTS
 62
     0
 10
-6185.6839227900136
 20
6007.391068133642
 30
0.0
  0
ENDBLK
  5
DE7B
  8
0
  0
BLOCK
  8
0
  2
*D24
 70
     1
 10
0.0
 20
0.0
 30
0.0
  3
*D24
  1

  0
LINE
  5
DE7E
  8
DIM
 62
     0
 10
-6116.8688775766468
 20
5784.7309707242239
 30
0.0
 11
-6186.8013905825464
 21
5784.7309707242248
 31
0.0
  0
LINE
  5
DE7F
  8
DIM
 62
     0
 10
-6116.8688775766468
 20
5718.7309707242239
 30
0.0
 11
-6186.8013905825464
 21
5718.7309707242248
 31
0.0
  0
LINE
  5
DE80
  8
DIM
 62
     0
 10
-6184.3013905825474
 20
5779.7309707242248
 30
0.0
 11
-6184.3013905825474
 21
5723.7309707242248
 31
0.0
  0
SOLID
  5
DE81
  8
DIM
 62
     0
 10
-6185.1347239158777
 20
5779.7309707242248
 30
0.0
 11
-6183.4680572492116
 21
5779.7309707242248
 31
0.0
 12
-6184.3013905825474
 22
5784.7309707242248
 32
0.0
 13
-6184.3013905825474
 23
5784.7309707242248
 33
0.0
  0
SOLID
  5
DE82
  8
DIM
 62
     0
 10
-6185.1347239158777
 20
5723.7309707242248
 30
0.0
 11
-6183.4680572492116
 21
5723.7309707242248
 31
0.0
 12
-6184.3013905825474
 22
5718.7309707242248
 32
0.0
 13
-6184.3013905825474
 23
5718.7309707242248
 33
0.0
  0
TEXT
  5
DE83
  8
DIM
 10
-6185.6468885361619
 20
5748.5795382549204
 30
0.0
 40
5.0
  1
66
 50
90.0
  0
POINT
  5
DE84
  8
DEFPOINTS
 62
     0
 10
-6115.6188775766477
 20
5784.7309707242239
 30
0.0
  0
POINT
  5
DE85
  8
DEFPOINTS
 62
     0
 10
-6115.6188775766477
 20
5718.7309707242239
 30
0.0
  0
POINT
  5
DE86
  8
DEFPOINTS
 62
     0
 10
-6184.3013905825474
 20
5718.7309707242248
 30
0.0
  0
ENDBLK
  5
DE87
  8
0
  0
BLOCK
  8
0
  2
*D25
 70
     1
 10
0.0
 20
0.0
 30
0.0
  3
*D25
  1

  0
LINE
  5
DE8A
  8
DIM
 62
     0
 10
-6116.8589559922993
 20
5730.7309730679817
 30
0.0
 11
-6171.0242293443735
 21
5730.7309730679826
 31
0.0
  0
LINE
  5
DE8B
  8
DIM
 62
     0
 10
-6116.8787991609961
 20
5772.730968380466
 30
0.0
 11
-6171.0242293443735
 21
5772.730968380466
 31
0.0
  0
LINE
  5
DE8C
  8
DIM
 62
     0
 10
-6168.5242293443744
 20
5735.7309730679826
 30
0.0
 11
-6168.5242293443744
 21
5767.7309683804651
 31
0.0
  0
SOLID
  5
DE8D
  8
DIM
 62
     0
 10
-6169.3575626777056
 20
5735.7309730679826
 30
0.0
 11
-6167.6908960110404
 21
5735.7309730679826
 31
0.0
 12
-6168.5242293443744
 22
5730.7309730679826
 32
0.0
 13
-6168.5242293443744
 23
5730.7309730679826
 33
0.0
  0
SOLID
  5
DE8E
  8
DIM
 62
     0
 10
-6169.3575626777056
 20
5767.7309683804651
 30
0.0
 11
-6167.6908960110404
 21
5767.7309683804651
 31
0.0
 12
-6168.5242293443744
 22
5772.730968380466
 32
0.0
 13
-6168.5242293443744
 23
5772.730968380466
 33
0.0
  0
INSERT
  5
DE90
  8
DIM
  2
*U26
 10
0.0
 20
0.0
 30
0.0
  0
POINT
  5
DE91
  8
DEFPOINTS
 62
     0
 10
-6115.6089559923003
 20
5730.7309730679817
 30
0.0
  0
POINT
  5
DE92
  8
DEFPOINTS
 62
     0
 10
-6115.6287991609961
 20
5772.730968380466
 30
0.0
  0
POINT
  5
DE93
  8
DEFPOINTS
 62
     0
 10
-6168.5242293443744
 20
5772.730968380466
 30
0.0
  0
ENDBLK
  5
DE94
  8
0
  0
BLOCK
  8
0
  2
*U26
 70
     1
 10
0.0
 20
0.0
 30
0.0
  3
*U26
  1

  0
TEXT
  5
DF93
  8
DIM
 10
-6170.0675444876224
 20
5744.1917483504167
 30
0.0
 40
5.0
  1
\U+2205
 50
90.0
  0
TEXT
  5
DF94
  8
DIM
 10
-6170.0675444876224
 20
5748.6494563995311
 30
0.0
 40
5.0
  1
42.0
 50
90.0
  0
ENDBLK
  5
DF95
  8
0
  0
BLOCK
  8
0
  2
*D27
 70
     1
 10
0.0
 20
0.0
 30
0.0
  3
*D27
  1

  0
LINE
  5
DE97
  8
DIM
 62
     0
 10
-6149.859897222047
 20
5803.1807760476404
 30
0.0
 11
-6170.9102693932136
 21
5803.1807760476404
 31
0.0
  0
LINE
  5
DE98
  8
DIM
 62
     0
 10
-6144.2188775766481
 20
5813.194203354903
 30
0.0
 11
-6170.9102693932136
 21
5813.194203354903
 31
0.0
  0
LINE
  5
DE99
  8
DIM
 62
     0
 10
-6168.4102693932145
 20
5798.1807760476404
 30
0.0
 11
-6168.4102693932145
 21
5793.1807760476404
 31
0.0
  0
LINE
  5
DE9A
  8
DIM
 62
     0
 10
-6168.4102693932145
 20
5818.1942033549039
 30
0.0
 11
-6168.4102693932145
 21
5823.1942033549039
 31
0.0
  0
LINE
  5
DE9B
  8
DIM
 62
     0
 10
-6168.4102693932145
 20
5803.1807760476404
 30
0.0
 11
-6168.4102693932145
 21
5813.194203354903
 31
0.0
  0
SOLID
  5
DE9C
  8
DIM
 62
     0
 10
-6169.2436027265476
 20
5798.1807760476404
 30
0.0
 11
-6167.5769360598806
 21
5798.1807760476404
 31
0.0
 12
-6168.4102693932145
 22
5803.1807760476404
 32
0.0
 13
-6168.4102693932145
 23
5803.1807760476404
 33
0.0
  0
SOLID
  5
DE9D
  8
DIM
 62
     0
 10
-6169.2436027265476
 20
5818.1942033549039
 30
0.0
 11
-6167.5769360598806
 21
5818.1942033549039
 31
0.0
 12
-6168.4102693932145
 22
5813.194203354903
 32
0.0
 13
-6168.4102693932145
 23
5813.194203354903
 33
0.0
  0
TEXT
  5
DE9E
  8
DIM
 10
-6169.7557673468309
 20
5804.8365347217332
 30
0.0
 40
5.0
  1
10
 50
90.0
  0
POINT
  5
DE9F
  8
DEFPOINTS
 62
     0
 10
-6148.6098972220479
 20
5803.1807760476404
 30
0.0
  0
POINT
  5
DEA0
  8
DEFPOINTS
 62
     0
 10
-6142.9688775766481
 20
5813.1942033549021
 30
0.0
  0
POINT
  5
DEA1
  8
DEFPOINTS
 62
     0
 10
-6168.4102693932145
 20
5813.194203354903
 30
0.0
  0
ENDBLK
  5
DEA2
  8
0
  0
BLOCK
  8
0
  2
*D28
 70
     1
 10
0.0
 20
0.0
 30
0.0
  3
*D28
  1

  0
LINE
  5
DEA5
  8
DIM
 62
     0
 10
-6116.868878506968
 20
5730.7309707242221
 30
0.0
 11
-6171.0242293443735
 21
5730.730970724223
 31
0.0
  0
LINE
  5
DEA6
  8
DIM
 62
     0
 10
-6116.8559558941761
 20
5724.3809737766887
 30
0.0
 11
-6171.0242293443735
 21
5724.3809737766933
 31
0.0
  0
LINE
  5
DEA7
  8
DIM
 62
     0
 10
-6168.5242293443744
 20
5735.7309707242248
 30
0.0
 11
-6168.5242293443744
 21
5740.7309707242248
 31
0.0
  0
LINE
  5
DEA8
  8
DIM
 62
     0
 10
-6168.5242293443744
 20
5719.3809737766896
 30
0.0
 11
-6168.5242293443744
 21
5700.7963898749158
 31
0.0
  0
LINE
  5
DEA9
  8
DIM
 62
     0
 10
-6168.5242293443744
 20
5730.730970724223
 30
0.0
 11
-6168.5242293443744
 21
5724.3809737766933
 31
0.0
  0
SOLID
  5
DEAA
  8
DIM
 62
     0
 10
-6169.3575626777056
 20
5735.7309707242248
 30
0.0
 11
-6167.6908960110404
 21
5735.7309707242248
 31
0.0
 12
-6168.5242293443744
 22
5730.730970724223
 32
0.0
 13
-6168.5242293443744
 23
5730.730970724223
 33
0.0
  0
SOLID
  5
DEAB
  8
DIM
 62
     0
 10
-6169.3575626777056
 20
5719.3809737766896
 30
0.0
 11
-6167.6908960110404
 21
5719.3809737766896
 31
0.0
 12
-6168.5242293443744
 22
5724.3809737766933
 32
0.0
 13
-6168.5242293443744
 23
5724.3809737766933
 33
0.0
  0
TEXT
  5
DEAC
  8
DIM
 10
-6171.2868487168171
 20
5701.7019151136619
 30
0.0
 40
5.0
  1
(6.3)
 50
90.0
  0
POINT
  5
DEAD
  8
DEFPOINTS
 62
     0
 10
-6115.618878506968
 20
5730.7309707242221
 30
0.0
  0
POINT
  5
DEAE
  8
DEFPOINTS
 62
     0
 10
-6115.6059558941761
 20
5724.3809737766887
 30
0.0
  0
POINT
  5
DEAF
  8
DEFPOINTS
 62
     0
 10
-6168.5242293443744
 20
5724.3809737766933
 30
0.0
  0
ENDBLK
  5
DEB0
  8
0
  0
BLOCK
  8
0
  2
*D29
 70
     1
 10
0.0
 20
0.0
 30
0.0
  3
*D29
  1

  0
LINE
  5
DEB3
  8
DIM
 62
     0
 10
-6149.868873893598
 20
5822.1807739270971
 30
0.0
 11
-6188.1839227900127
 21
5822.1807739270971
 31
0.0
  0
LINE
  5
DEB4
  8
DIM
 62
     0
 10
-6149.859897222047
 20
5803.1807760476404
 30
0.0
 11
-6188.1839227900127
 21
5803.1807760476404
 31
0.0
  0
LINE
  5
DEB5
  8
DIM
 62
     0
 10
-6185.6839227900136
 20
5817.1807739270971
 30
0.0
 11
-6185.6839227900136
 21
5808.1807760476422
 31
0.0
  0
SOLID
  5
DEB6
  8
DIM
 62
     0
 10
-6186.5172561233449
 20
5817.1807739270971
 30
0.0
 11
-6184.8505894566788
 21
5817.1807739270971
 31
0.0
 12
-6185.6839227900136
 22
5822.1807739270971
 32
0.0
 13
-6185.6839227900136
 23
5822.1807739270971
 33
0.0
  0
SOLID
  5
DEB7
  8
DIM
 62
     0
 10
-6186.5172561233449
 20
5808.1807760476422
 30
0.0
 11
-6184.8505894566788
 21
5808.1807760476422
 31
0.0
 12
-6185.6839227900136
 22
5803.1807760476404
 32
0.0
 13
-6185.6839227900136
 23
5803.1807760476404
 33
0.0
  0
TEXT
  5
DEB8
  8
DIM
 10
-6187.02942074363
 20
5809.3178827636293
 30
0.0
 40
5.0
  1
19
 50
90.0
  0
POINT
  5
DEB9
  8
DEFPOINTS
 62
     0
 10
-6148.6188738935998
 20
5822.1807739270971
 30
0.0
  0
POINT
  5
DEBA
  8
DEFPOINTS
 62
     0
 10
-6148.6098972220479
 20
5803.1807760476404
 30
0.0
  0
POINT
  5
DEBB
  8
DEFPOINTS
 62
     0
 10
-6185.6839227900136
 20
5803.1807760476404
 30
0.0
  0
ENDBLK
  5
DEBC
  8
0
  0
BLOCK
  8
0
  2
*D30
 70
     1
 10
0.0
 20
0.0
 30
0.0
  3
*D30
  1

  0
LINE
  5
DEBF
  8
DIM
 62
     0
 10
-5721.692275857904
 20
5728.6075785089279
 30
0.0
 11
-5760.3411948726571
 21
5728.6075785089279
 31
0.0
  0
LINE
  5
DEC0
  8
DIM
 62
     0
 10
-5721.692275857904
 20
5685.4798612032328
 30
0.0
 11
-5760.3411948726571
 21
5685.4798612032328
 31
0.0
  0
LINE
  5
DEC1
  8
DIM
 62
     0
 10
-5757.8411948726571
 20
5723.6075785089288
 30
0.0
 11
-5757.8411948726571
 21
5690.4798612032328
 31
0.0
  0
SOLID
  5
DEC2
  8
DIM
 62
     0
 10
-5758.6745282059901
 20
5723.6075785089288
 30
0.0
 11
-5757.007861539324
 21
5723.6075785089288
 31
0.0
 12
-5757.8411948726571
 22
5728.6075785089279
 32
0.0
 13
-5757.8411948726571
 23
5728.6075785089279
 33
0.0
  0
SOLID
  5
DEC3
  8
DIM
 62
     0
 10
-5758.6745282059901
 20
5690.4798612032328
 30
0.0
 11
-5757.007861539324
 21
5690.4798612032328
 31
0.0
 12
-5757.8411948726571
 22
5685.4798612032328
 32
0.0
 13
-5757.8411948726571
 23
5685.4798612032328
 33
0.0
  0
TEXT
  5
DEC4
  8
DIM
 10
-5759.1866928262752
 20
5701.966980429067
 30
0.0
 40
5.0
  1
43.1
 50
90.0
  0
POINT
  5
DEC5
  8
DEFPOINTS
 62
     0
 10
-5720.442275857904
 20
5728.6075785089279
 30
0.0
  0
POINT
  5
DEC6
  8
DEFPOINTS
 62
     0
 10
-5720.442275857904
 20
5685.4798612032328
 30
0.0
  0
POINT
  5
DEC7
  8
DEFPOINTS
 62
     0
 10
-5757.8411948726571
 20
5685.4798612032328
 30
0.0
  0
ENDBLK
  5
DEC8
  8
0
  0
BLOCK
  8
0
  2
*D31
 70
     1
 10
0.0
 20
0.0
 30
0.0
  3
*D31
  1

  0
LINE
  5
DECB
  8
DIM
 62
     0
 10
-5720.442275857904
 20
5684.2298612032328
 30
0.0
 11
-5720.442275857904
 21
5663.162788799219
 31
0.0
  0
LINE
  5
DECC
  8
DIM
 62
     0
 10
-5694.4422758579049
 20
5705.7937198560821
 30
0.0
 11
-5694.4422758579049
 21
5663.162788799219
 31
0.0
  0
LINE
  5
DECD
  8
DIM
 62
     0
 10
-5715.442275857903
 20
5665.662788799219
 30
0.0
 11
-5699.442275857904
 21
5665.662788799219
 31
0.0
  0
SOLID
  5
DECE
  8
DIM
 62
     0
 10
-5715.442275857903
 20
5666.496122132552
 30
0.0
 11
-5715.442275857903
 21
5664.829455465886
 31
0.0
 12
-5720.442275857904
 22
5665.662788799219
 32
0.0
 13
-5720.442275857904
 23
5665.662788799219
 33
0.0
  0
SOLID
  5
DECF
  8
DIM
 62
     0
 10
-5699.442275857904
 20
5666.496122132552
 30
0.0
 11
-5699.442275857904
 21
5664.829455465886
 31
0.0
 12
-5694.4422758579049
 22
5665.662788799219
 32
0.0
 13
-5694.4422758579049
 23
5665.662788799219
 33
0.0
  0
TEXT
  5
DED0
  8
DIM
 10
-5710.5715391594058
 20
5667.0082867528336
 30
0.0
 40
5.0
  1
26
  0
POINT
  5
DED1
  8
DEFPOINTS
 62
     0
 10
-5720.442275857904
 20
5685.4798612032328
 30
0.0
  0
POINT
  5
DED2
  8
DEFPOINTS
 62
     0
 10
-5694.4422758579049
 20
5707.0437198560812
 30
0.0
  0
POINT
  5
DED3
  8
DEFPOINTS
 62
     0
 10
-5694.4422758579049
 20
5665.662788799219
 30
0.0
  0
ENDBLK
  5
DED4
  8
0
  0
BLOCK
  8
0
  2
*D32
 70
     1
 10
0.0
 20
0.0
 30
0.0
  3
*D32
  1

  0
LINE
  5
DED7
  8
DIM
 62
     0
 10
-5687.3656721552079
 20
5731.2249339954487
 30
0.0
 11
-5703.0843379490952
 21
5716.0675216100462
 31
0.0
  0
LINE
  5
DED8
  8
DIM
 62
     0
 10
-5721.8002137667163
 20
5698.0199181021189
 30
0.0
 11
-5725.3994206547213
 21
5694.5492251198239
 31
0.0
  0
TEXT
  5
DED9
  8
DIM
 10
-5696.7585782407286
 20
5724.3113782337432
 30
0.0
 40
5.0
  1
\U+220516
 50
43.95861416800674
  0
LINE
  5
DEDA
  8
DIM
 62
     0
 10
-5718.2010068787122
 20
5701.4906110844131
 30
0.0
 11
-5706.6835448370994
 21
5712.5968286277503
 31
0.0
  0
SOLID
  5
DEDB
  8
DIM
 62
     0
 10
-5722.3786625970979
 20
5698.6197859167851
 30
0.0
 11
-5721.2217649363338
 21
5697.420050287451
 31
0.0
 12
-5718.2010068787122
 22
5701.4906110844131
 32
0.0
 13
-5718.2010068787122
 23
5701.4906110844131
 33
0.0
  0
SOLID
  5
DEDC
  8
DIM
 62
     0
 10
-5703.6627867794778
 20
5716.6673894247124
 30
0.0
 11
-5702.5058891187145
 21
5715.4676537953792
 31
0.0
 12
-5706.6835448370994
 22
5712.5968286277503
 32
0.0
 13
-5706.6835448370994
 23
5712.5968286277503
 33
0.0
  0
POINT
  5
DEDD
  8
DEFPOINTS
 62
     0
 10
-5706.6835448370994
 20
5712.5968286277503
 30
0.0
  0
POINT
  5
DEDE
  8
DEFPOINTS
 62
     0
 10
-5718.2010068787122
 20
5701.4906110844131
 30
0.0
  0
ENDBLK
  5
DEDF
  8
0
  0
BLOCK
  8
0
  2
*D33
 70
     1
 10
0.0
 20
0.0
 30
0.0
  3
*D33
  1

  0
LINE
  5
DEE2
  8
DIM
 62
     0
 10
-5675.621813670723
 20
5724.6431439694898
 30
0.0
 11
-5691.6909162265047
 21
5716.9624432340306
 31
0.0
  0
LINE
  5
DEE3
  8
DIM
 62
     0
 10
-5733.1936354893051
 20
5697.1249964781327
 30
0.0
 11
-5737.7048006265659
 21
5694.9687522655331
 31
0.0
  0
TEXT
  5
DEE4
  8
DIM
 10
-5686.7175126740958
 20
5721.0501783937807
 30
0.0
 40
5.0
  1
\U+220536
 50
25.546840962303389
  0
LINE
  5
DEE5
  8
DIM
 62
     0
 10
-5728.6824703520451
 20
5699.2812406907296
 30
0.0
 11
-5696.2020813637646
 21
5714.8061990214328
 31
0.0
  0
SOLID
  5
DEE6
  8
DIM
 62
     0
 10
-5733.5530095247414
 20
5697.8768573343432
 30
0.0
 11
-5732.8342614538742
 21
5696.3731356219223
 31
0.0
 12
-5728.6824703520451
 22
5699.2812406907296
 32
0.0
 13
-5728.6824703520451
 23
5699.2812406907296
 33
0.0
  0
SOLID
  5
DEE7
  8
DIM
 62
     0
 10
-5692.0502902619382
 20
5717.7143040902401
 30
0.0
 11
-5691.331542191072
 21
5716.2105823778202
 31
0.0
 12
-5696.2020813637646
 22
5714.8061990214328
 32
0.0
 13
-5696.2020813637646
 23
5714.8061990214328
 33
0.0
  0
POINT
  5
DEE8
  8
DEFPOINTS
 62
     0
 10
-5696.2020813637646
 20
5714.8061990214328
 30
0.0
  0
POINT
  5
DEE9
  8
DEFPOINTS
 62
     0
 10
-5728.6824703520451
 20
5699.2812406907296
 30
0.0
  0
ENDBLK
  5
DEEA
  8
0
  0
BLOCK
  8
0
  2
*D34
 70
     1
 10
0.0
 20
0.0
 30
0.0
  3
*D34
  1

  0
LINE
  5
DEED
  8
DIM
 62
     0
 10
-5721.6922758579049
 20
5710.5437198560803
 30
0.0
 11
-5751.0257804343692
 21
5710.5437198560803
 31
0.0
  0
LINE
  5
DEEE
  8
DIM
 62
     0
 10
-5721.692275857913
 20
5703.5437198560821
 30
0.0
 11
-5751.0257804343692
 21
5703.5437198560821
 31
0.0
  0
LINE
  5
DEEF
  8
DIM
 62
     0
 10
-5748.5257804343692
 20
5715.5437198560803
 30
0.0
 11
-5748.5257804343692
 21
5720.5437198560803
 31
0.0
  0
LINE
  5
DEF0
  8
DIM
 62
     0
 10
-5748.5257804343692
 20
5698.5437198560821
 30
0.0
 11
-5748.5257804343692
 21
5693.5437198560812
 31
0.0
  0
LINE
  5
DEF1
  8
DIM
 62
     0
 10
-5748.5257804343692
 20
5710.5437198560803
 30
0.0
 11
-5748.5257804343692
 21
5703.5437198560821
 31
0.0
  0
SOLID
  5
DEF2
  8
DIM
 62
     0
 10
-5749.3591137677022
 20
5715.5437198560803
 30
0.0
 11
-5747.6924471010361
 21
5715.5437198560803
 31
0.0
 12
-5748.5257804343692
 22
5710.5437198560803
 32
0.0
 13
-5748.5257804343692
 23
5710.5437198560803
 33
0.0
  0
SOLID
  5
DEF3
  8
DIM
 62
     0
 10
-5749.3591137677022
 20
5698.5437198560821
 30
0.0
 11
-5747.6924471010361
 21
5698.5437198560821
 31
0.0
 12
-5748.5257804343692
 22
5703.5437198560821
 32
0.0
 13
-5748.5257804343692
 23
5703.5437198560821
 33
0.0
  0
TEXT
  5
DEF4
  8
DIM
 10
-5749.7757804343701
 20
5705.4560663772272
 30
0.0
 40
5.0
  1
7
 50
90.0
  0
POINT
  5
DEF5
  8
DEFPOINTS
 62
     0
 10
-5720.4422758579049
 20
5710.5437198560803
 30
0.0
  0
POINT
  5
DEF6
  8
DEFPOINTS
 62
     0
 10
-5720.442275857913
 20
5703.5437198560821
 30
0.0
  0
POINT
  5
DEF7
  8
DEFPOINTS
 62
     0
 10
-5748.5257804343692
 20
5703.5437198560821
 30
0.0
  0
ENDBLK
  5
DEF8
  8
0
  0
BLOCK
  8
0
  2
*D35
 70
     1
 10
0.0
 20
0.0
 30
0.0
  3
*D35
  1

  0
LINE
  5
DEFB
  8
DIM
 62
     0
 10
-5721.692275857904
 20
5748.5937646580433
 30
0.0
 11
-5759.6478103028512
 21
5748.5937646580433
 31
0.0
  0
LINE
  5
DEFC
  8
DIM
 62
     0
 10
-5721.692275857904
 20
5767.5937646580423
 30
0.0
 11
-5759.6478103028512
 21
5767.5937646580423
 31
0.0
  0
LINE
  5
DEFD
  8
DIM
 62
     0
 10
-5757.1478103028512
 20
5753.5937646580423
 30
0.0
 11
-5757.1478103028512
 21
5762.5937646580423
 31
0.0
  0
SOLID
  5
DEFE
  8
DIM
 62
     0
 10
-5757.9811436361842
 20
5753.5937646580423
 30
0.0
 11
-5756.3144769695182
 21
5753.5937646580423
 31
0.0
 12
-5757.1478103028512
 22
5748.5937646580433
 32
0.0
 13
-5757.1478103028512
 23
5748.5937646580433
 33
0.0
  0
SOLID
  5
DEFF
  8
DIM
 62
     0
 10
-5757.9811436361842
 20
5762.5937646580423
 30
0.0
 11
-5756.3144769695182
 21
5762.5937646580423
 31
0.0
 12
-5757.1478103028512
 22
5767.5937646580423
 32
0.0
 13
-5757.1478103028512
 23
5767.5937646580423
 33
0.0
  0
TEXT
  5
DF00
  8
DIM
 10
-5758.4933082564676
 20
5754.730872434302
 30
0.0
 40
5.0
  1
19
 50
90.0
  0
POINT
  5
DF01
  8
DEFPOINTS
 62
     0
 10
-5720.442275857904
 20
5748.5937646580433
 30
0.0
  0
POINT
  5
DF02
  8
DEFPOINTS
 62
     0
 10
-5720.442275857904
 20
5767.5937646580423
 30
0.0
  0
POINT
  5
DF03
  8
DEFPOINTS
 62
     0
 10
-5757.1478103028512
 20
5767.5937646580423
 30
0.0
  0
ENDBLK
  5
DF04
  8
0
  0
BLOCK
  8
0
  2
*D36
 70
     1
 10
0.0
 20
0.0
 30
0.0
  3
*D36
  1

  0
LINE
  5
DF07
  8
DIM
 62
     0
 10
-5721.692275857904
 20
5767.5937646580423
 30
0.0
 11
-5745.6639295245986
 21
5767.5937646580423
 31
0.0
  0
LINE
  5
DF08
  8
DIM
 62
     0
 10
-5721.692275857904
 20
5752.5937646580423
 30
0.0
 11
-5745.6639295245986
 21
5752.5937646580423
 31
0.0
  0
LINE
  5
DF09
  8
DIM
 62
     0
 10
-5743.1639295245977
 20
5762.5937646580423
 30
0.0
 11
-5743.1639295245977
 21
5757.5937646580433
 31
0.0
  0
SOLID
  5
DF0A
  8
DIM
 62
     0
 10
-5743.9972628579317
 20
5762.5937646580423
 30
0.0
 11
-5742.3305961912656
 21
5762.5937646580423
 31
0.0
 12
-5743.1639295245977
 22
5767.5937646580423
 32
0.0
 13
-5743.1639295245977
 23
5767.5937646580423
 33
0.0
  0
SOLID
  5
DF0B
  8
DIM
 62
     0
 10
-5743.9972628579317
 20
5757.5937646580433
 30
0.0
 11
-5742.3305961912656
 21
5757.5937646580433
 31
0.0
 12
-5743.1639295245977
 22
5752.5937646580423
 32
0.0
 13
-5743.1639295245977
 23
5752.5937646580423
 33
0.0
  0
TEXT
  5
DF0C
  8
DIM
 10
-5744.5094274782168
 20
5756.7206405106999
 30
0.0
 40
5.0
  1
15
 50
90.0
  0
POINT
  5
DF0D
  8
DEFPOINTS
 62
     0
 10
-5720.442275857904
 20
5767.5937646580423
 30
0.0
  0
POINT
  5
DF0E
  8
DEFPOINTS
 62
     0
 10
-5720.442275857904
 20
5752.5937646580423
 30
0.0
  0
POINT
  5
DF0F
  8
DEFPOINTS
 62
     0
 10
-5743.1639295245977
 20
5752.5937646580423
 30
0.0
  0
ENDBLK
  5
DF10
  8
0
  0
BLOCK
  8
0
  2
*D37
 70
     1
 10
0.0
 20
0.0
 30
0.0
  3
*D37
  1

  0
LINE
  5
DF13
  8
DIM
 62
     0
 10
-5720.442275857904
 20
5684.2298612032328
 30
0.0
 11
-5720.442275857904
 21
5674.2649337236853
 31
0.0
  0
LINE
  5
DF14
  8
DIM
 62
     0
 10
-5712.4422758579049
 20
5705.7937198560821
 30
0.0
 11
-5712.4422758579049
 21
5674.2649337236853
 31
0.0
  0
LINE
  5
DF15
  8
DIM
 62
     0
 10
-5725.442275857904
 20
5676.7649337236853
 30
0.0
 11
-5730.442275857904
 21
5676.7649337236853
 31
0.0
  0
LINE
  5
DF16
  8
DIM
 62
     0
 10
-5707.442275857903
 20
5676.7649337236853
 30
0.0
 11
-5702.442275857904
 21
5676.7649337236853
 31
0.0
  0
LINE
  5
DF17
  8
DIM
 62
     0
 10
-5720.442275857904
 20
5676.7649337236853
 30
0.0
 11
-5712.4422758579049
 21
5676.7649337236853
 31
0.0
  0
SOLID
  5
DF18
  8
DIM
 62
     0
 10
-5725.442275857904
 20
5677.5982670570174
 30
0.0
 11
-5725.442275857904
 21
5675.9316003903514
 31
0.0
 12
-5720.442275857904
 22
5676.7649337236853
 32
0.0
 13
-5720.442275857904
 23
5676.7649337236853
 33
0.0
  0
SOLID
  5
DF19
  8
DIM
 62
     0
 10
-5707.442275857903
 20
5677.5982670570174
 30
0.0
 11
-5707.442275857903
 21
5675.9316003903514
 31
0.0
 12
-5712.4422758579049
 22
5676.7649337236853
 32
0.0
 13
-5712.4422758579049
 23
5676.7649337236853
 33
0.0
  0
TEXT
  5
DF1A
  8
DIM
 10
-5718.0196974131568
 20
5678.1104316773008
 30
0.0
 40
5.0
  1
8
  0
POINT
  5
DF1B
  8
DEFPOINTS
 62
     0
 10
-5720.442275857904
 20
5685.4798612032328
 30
0.0
  0
POINT
  5
DF1C
  8
DEFPOINTS
 62
     0
 10
-5712.4422758579049
 20
5707.0437198560812
 30
0.0
  0
POINT
  5
DF1D
  8
DEFPOINTS
 62
     0
 10
-5712.4422758579049
 20
5676.7649337236853
 30
0.0
  0
ENDBLK
  5
DF1E
  8
0
  0
BLOCK
  8
0
  2
*X38
 70
     1
 10
0.0
 20
0.0
 30
0.0
  3
*X38
  1

  0
LINE
  5
DF21
  8
0
 62
     0
 10
-5593.8154510198528
 20
6010.1871904195859
 30
0.0
 11
-5589.9391664896848
 21
6014.0634749497531
 31
0.0
  0
LINE
  5
DF22
  8
0
 62
     0
 10
-5598.3055790803874
 20
6010.1871904195859
 30
0.0
 11
-5589.9391664896848
 21
6018.5536030102858
 31
0.0
  0
LINE
  5
DF23
  8
0
 62
     0
 10
-5599.939166489683
 20
6013.0437310708239
 30
0.0
 11
-5589.939166489683
 21
6023.0437310708239
 31
0.0
  0
LINE
  5
DF24
  8
0
 62
     0
 10
-5599.9391664896839
 20
6017.5338591313584
 30
0.0
 11
-5589.9391664896839
 21
6027.5338591313584
 31
0.0
  0
LINE
  5
DF25
  8
0
 62
     0
 10
-5601.7759632619909
 20
6020.187190419585
 30
0.0
 11
-5592.7759632619936
 21
6029.1871904195823
 31
0.0
  0
LINE
  5
DF26
  8
0
 62
     0
 10
-5606.2660913225263
 20
6020.187190419585
 30
0.0
 11
-5597.2660913225282
 21
6029.1871904195823
 31
0.0
  0
LINE
  5
DF27
  8
0
 62
     0
 10
-5616.2660913225254
 20
6010.1871904195859
 30
0.0
 11
-5615.9391664896839
 21
6010.5141152524247
 31
0.0
  0
LINE
  5
DF28
  8
0
 62
     0
 10
-5610.7562193830599
 20
6020.187190419585
 30
0.0
 11
-5601.7562193830618
 21
6029.1871904195823
 31
0.0
  0
LINE
  5
DF29
  8
0
 62
     0
 10
-5620.756219383059
 20
6010.1871904195859
 30
0.0
 11
-5615.939166489683
 21
6015.004243312962
 31
0.0
  0
LINE
  5
DF2A
  8
0
 62
     0
 10
-5615.2463474435954
 20
6020.1871904195841
 30
0.0
 11
-5606.2463474435972
 21
6029.1871904195823
 31
0.0
  0
LINE
  5
DF2B
  8
0
 62
     0
 10
-5625.2463474435963
 20
6010.1871904195859
 30
0.0
 11
-5615.939166489683
 21
6019.4943713734983
 31
0.0
  0
LINE
  5
DF2C
  8
0
 62
     0
 10
-5629.7364755041272
 20
6010.1871904195859
 30
0.0
 11
-5610.7364755041317
 21
6029.1871904195823
 31
0.0
  0
LINE
  5
DF2D
  8
0
 62
     0
 10
-5634.2266035646626
 20
6010.1871904195859
 30
0.0
 11
-5615.2266035646653
 21
6029.1871904195823
 31
0.0
  0
LINE
  5
DF2E
  8
0
 62
     0
 10
-5638.7167316251989
 20
6010.1871904195859
 30
0.0
 11
-5619.7167316251989
 21
6029.1871904195823
 31
0.0
  0
LINE
  5
DF2F
  8
0
 62
     0
 10
-5643.2068596857334
 20
6010.1871904195859
 30
0.0
 11
-5624.2068596857353
 21
6029.1871904195823
 31
0.0
  0
LINE
  5
DF30
  8
0
 62
     0
 10
-5646.7641664896846
 20
6011.1200116761693
 30
0.0
 11
-5628.6969877462698
 21
6029.1871904195823
 31
0.0
  0
LINE
  5
DF31
  8
0
 62
     0
 10
-5646.764166489681
 20
6015.6101397367038
 30
0.0
 11
-5633.1871158068034
 21
6029.1871904195841
 31
0.0
  0
LINE
  5
DF32
  8
0
 62
     0
 10
-5650.6772438673379
 20
6016.1871904195841
 30
0.0
 11
-5637.677243867337
 21
6029.1871904195841
 31
0.0
  0
LINE
  5
DF33
  8
0
 62
     0
 10
-5655.1673719278724
 20
6016.1871904195841
 30
0.0
 11
-5642.1673719278733
 21
6029.1871904195823
 31
0.0
  0
LINE
  5
DF34
  8
0
 62
     0
 10
-5659.6574999884069
 20
6016.1871904195841
 30
0.0
 11
-5646.6574999884069
 21
6029.1871904195841
 31
0.0
  0
LINE
  5
DF35
  8
0
 62
     0
 10
-5664.1476280489396
 20
6016.1871904195841
 30
0.0
 11
-5651.1476280489424
 21
6029.1871904195841
 31
0.0
  0
LINE
  5
DF36
  8
0
 62
     0
 10
-5668.6377561094778
 20
6016.1871904195823
 30
0.0
 11
-5655.637756109476
 21
6029.1871904195841
 31
0.0
  0
LINE
  5
DF37
  8
0
 62
     0
 10
-5673.1278841700114
 20
6016.1871904195823
 30
0.0
 11
-5660.1278841700123
 21
6029.1871904195823
 31
0.0
  0
LINE
  5
DF38
  8
0
 62
     0
 10
-5677.6180122305459
 20
6016.1871904195823
 30
0.0
 11
-5664.6180122305441
 21
6029.1871904195841
 31
0.0
  0
LINE
  5
DF39
  8
0
 62
     0
 10
-5677.6891664896839
 20
6020.6061642209779
 30
0.0
 11
-5669.1081402910786
 21
6029.1871904195841
 31
0.0
  0
LINE
  5
DF3A
  8
0
 62
     0
 10
-5677.6891664896848
 20
6025.0962922815143
 30
0.0
 11
-5673.598268351614
 21
6029.1871904195841
 31
0.0
  0
LINE
  5
DF3B
  8
0
 62
     0
 10
-5722.519292835892
 20
6016.1871904195823
 30
0.0
 11
-5722.189166489683
 21
6016.5173167657922
 31
0.0
  0
LINE
  5
DF3C
  8
0
 62
     0
 10
-5727.0094208964247
 20
6016.1871904195841
 30
0.0
 11
-5722.1891664896812
 21
6021.0074448263267
 31
0.0
  0
LINE
  5
DF3D
  8
0
 62
     0
 10
-5731.499548956961
 20
6016.1871904195841
 30
0.0
 11
-5722.1891664896812
 21
6025.4975728868621
 31
0.0
  0
LINE
  5
DF3E
  8
0
 62
     0
 10
-5735.9896770174964
 20
6016.1871904195841
 30
0.0
 11
-5722.9896770174946
 21
6029.1871904195823
 31
0.0
  0
LINE
  5
DF3F
  8
0
 62
     0
 10
-5740.4798050780282
 20
6016.1871904195841
 30
0.0
 11
-5727.4798050780309
 21
6029.1871904195823
 31
0.0
  0
LINE
  5
DF40
  8
0
 62
     0
 10
-5744.9699331385618
 20
6016.1871904195841
 30
0.0
 11
-5731.9699331385636
 21
6029.1871904195823
 31
0.0
  0
LINE
  5
DF41
  8
0
 62
     0
 10
-5749.4600611990982
 20
6016.187190419585
 30
0.0
 11
-5736.4600611991
 21
6029.1871904195823
 31
0.0
  0
LINE
  5
DF42
  8
0
 62
     0
 10
-5755.4600611990963
 20
6010.1871904195859
 30
0.0
 11
-5753.1141664896813
 21
6012.5330851290009
 31
0.0
  0
LINE
  5
DF43
  8
0
 62
     0
 10
-5759.9501892596327
 20
6010.1871904195859
 30
0.0
 11
-5740.9501892596336
 21
6029.1871904195823
 31
0.0
  0
LINE
  5
DF44
  8
0
 62
     0
 10
-5764.4403173201672
 20
6010.1871904195841
 30
0.0
 11
-5745.4403173201681
 21
6029.1871904195823
 31
0.0
  0
LINE
  5
DF45
  8
0
 62
     0
 10
-5768.9304453807008
 20
6010.1871904195859
 30
0.0
 11
-5749.9304453807017
 21
6029.1871904195823
 31
0.0
  0
LINE
  5
DF46
  8
0
 62
     0
 10
-5773.4205734412362
 20
6010.1871904195859
 30
0.0
 11
-5754.420573441238
 21
6029.1871904195823
 31
0.0
  0
LINE
  5
DF47
  8
0
 62
     0
 10
-5777.9107015017698
 20
6010.1871904195859
 30
0.0
 11
-5758.9107015017717
 21
6029.1871904195823
 31
0.0
  0
LINE
  5
DF48
  8
0
 62
     0
 10
-5782.4008295623053
 20
6010.1871904195841
 30
0.0
 11
-5763.4008295623071
 21
6029.1871904195823
 31
0.0
  0
LINE
  5
DF49
  8
0
 62
     0
 10
-5783.939166489683
 20
6013.1389815527409
 30
0.0
 11
-5767.8909576228398
 21
6029.1871904195823
 31
0.0
  0
LINE
  5
DF4A
  8
0
 62
     0
 10
-5783.939166489683
 20
6017.6291096132773
 30
0.0
 11
-5772.381085683377
 21
6029.1871904195823
 31
0.0
  0
LINE
  5
DF4B
  8
0
 62
     0
 10
-5785.8712137439088
 20
6020.187190419585
 30
0.0
 11
-5776.8712137439124
 21
6029.1871904195823
 31
0.0
  0
LINE
  5
DF4C
  8
0
 62
     0
 10
-5790.3613418044451
 20
6020.187190419585
 30
0.0
 11
-5781.3613418044442
 21
6029.1871904195823
 31
0.0
  0
LINE
  5
DF4D
  8
0
 62
     0
 10
-5800.3613418044433
 20
6010.1871904195859
 30
0.0
 11
-5799.939166489683
 21
6010.6093657343463
 31
0.0
  0
LINE
  5
DF4E
  8
0
 62
     0
 10
-5794.8514698649778
 20
6020.1871904195841
 30
0.0
 11
-5785.8514698649778
 21
6029.1871904195823
 31
0.0
  0
LINE
  5
DF4F
  8
0
 62
     0
 10
-5804.8514698649769
 20
6010.1871904195859
 30
0.0
 11
-5799.939166489683
 21
6015.0994937948808
 31
0.0
  0
LINE
  5
DF50
  8
0
 62
     0
 10
-5799.3415979255124
 20
6020.1871904195841
 30
0.0
 11
-5790.3415979255151
 21
6029.1871904195823
 31
0.0
  0
LINE
  5
DF51
  8
0
 62
     0
 10
-5809.3415979255133
 20
6010.1871904195859
 30
0.0
 11
-5799.9391664896848
 21
6019.5896218554126
 31
0.0
  0
LINE
  5
DF52
  8
0
 62
     0
 10
-5809.939166489683
 20
6014.0797499159489
 30
0.0
 11
-5794.8317259860496
 21
6029.1871904195823
 31
0.0
  0
LINE
  5
DF53
  8
0
 62
     0
 10
-5809.939166489683
 20
6018.5698779764834
 30
0.0
 11
-5799.3218540465832
 21
6029.1871904195823
 31
0.0
  0
LINE
  5
DF54
  8
0
 62
     0
 10
-5809.9391664896812
 20
6023.060006037018
 30
0.0
 11
-5803.8119821071168
 21
6029.1871904195823
 31
0.0
  0
LINE
  5
DF55
  8
0
 62
     0
 10
-5809.9391664896812
 20
6027.5501340975543
 30
0.0
 11
-5808.3021101676522
 21
6029.1871904195823
 31
0.0
  0
ENDBLK
  5
DF56
  8
0
  0
BLOCK
  8
0
  2
*X39
 70
     1
 10
0.0
 20
0.0
 30
0.0
  3
*X39
  1

  0
LINE
  5
DF59
  8
0
 62
     0
 10
-5976.6794958060036
 20
6007.472297760778
 30
0.0
 11
-5973.1116016869728
 21
6011.0401918798098
 31
0.0
  0
LINE
  5
DF5A
  8
0
 62
     0
 10
-5978.7688897976723
 20
6009.8730318296484
 30
0.0
 11
-5973.1137220751461
 21
6015.5281995521709
 31
0.0
  0
LINE
  5
DF5B
  8
0
 62
     0
 10
-5978.7688897976723
 20
6014.3631598901802
 30
0.0
 11
-5973.1158424633186
 21
6020.0162072245339
 31
0.0
  0
LINE
  5
DF5C
  8
0
 62
     0
 10
-5985.663996712482
 20
6007.4680529753723
 30
0.0
 11
-5985.1188897976708
 21
6008.0131598901808
 31
0.0
  0
LINE
  5
DF5D
  8
0
 62
     0
 10
-5980.2169981393554
 20
6017.4051796090307
 30
0.0
 11
-5973.1179628514919
 21
6024.5042148968969
 31
0.0
  0
LINE
  5
DF5E
  8
0
 62
     0
 10
-5990.1562471657171
 20
6007.4659305826699
 30
0.0
 11
-5985.1188897976708
 21
6012.5032879507153
 31
0.0
  0
LINE
  5
DF5F
  8
0
 62
     0
 10
-5984.7050058117184
 20
6017.4072999972059
 30
0.0
 11
-5975.6395145817642
 21
6026.4727912271583
 31
0.0
  0
LINE
  5
DF60
  8
0
 62
     0
 10
-5994.6484976189522
 20
6007.4638081899684
 30
0.0
 11
-5985.1188897976726
 21
6016.9934160112489
 31
0.0
  0
LINE
  5
DF61
  8
0
 62
     0
 10
-5999.1407480721909
 20
6007.4616857972669
 30
0.0
 11
-5980.1317650350002
 21
6026.4706688344559
 31
0.0
  0
LINE
  5
DF62
  8
0
 62
     0
 10
-6003.6329985254288
 20
6007.4595634045618
 30
0.0
 11
-5984.6240154882389
 21
6026.4685464417553
 31
0.0
  0
LINE
  5
DF63
  8
0
 62
     0
 10
-6008.1252489786648
 20
6007.4574410118603
 30
0.0
 11
-5989.1162659414758
 21
6026.4664240490511
 31
0.0
  0
LINE
  5
DF64
  8
0
 62
     0
 10
-6012.6174994319044
 20
6007.455318619157
 30
0.0
 11
-5993.6085163947109
 21
6026.4643016563459
 31
0.0
  0
LINE
  5
DF65
  8
0
 62
     0
 10
-6017.1097498851423
 20
6007.4531962264573
 30
0.0
 11
-5998.1007668479506
 21
6026.4621792636462
 31
0.0
  0
LINE
  5
DF66
  8
0
 62
     0
 10
-6021.6020003383774
 20
6007.4510738337522
 30
0.0
 11
-6002.5930173011866
 21
6026.4600568709438
 31
0.0
  0
LINE
  5
DF67
  8
0
 62
     0
 10
-6026.0942507916134
 20
6007.4489514410498
 30
0.0
 11
-6007.0852677544226
 21
6026.4579344782424
 31
0.0
  0
LINE
  5
DF68
  8
0
 62
     0
 10
-6027.1188897976717
 20
6010.9144404955287
 30
0.0
 11
-6011.5775182076623
 21
6026.4558120855399
 31
0.0
  0
LINE
  5
DF69
  8
0
 62
     0
 10
-6027.1188897976726
 20
6015.4045685560613
 30
0.0
 11
-6016.0697686608983
 21
6026.4536896928366
 31
0.0
  0
LINE
  5
DF6A
  8
0
 62
     0
 10
-6035.0787516980899
 20
6007.4447066556449
 30
0.0
 11
-6033.4688897976739
 21
6009.0545685560592
 31
0.0
  0
LINE
  5
DF6B
  8
0
 62
     0
 10
-6029.6064824456444
 20
6017.407103968626
 30
0.0
 11
-6020.5620191141343
 21
6026.4515673001342
 31
0.0
  0
LINE
  5
DF6C
  8
0
 62
     0
 10
-6039.5710021513241
 20
6007.4425842629444
 30
0.0
 11
-6033.468889797673
 21
6013.5446966165946
 31
0.0
  0
LINE
  5
DF6D
  8
0
 62
     0
 10
-6044.063252604562
 20
6007.4404618702401
 30
0.0
 11
-6025.0542695673721
 21
6026.44944490743
 31
0.0
  0
LINE
  5
DF6E
  8
0
 62
     0
 10
-6048.5555030577989
 20
6007.4383394775377
 30
0.0
 11
-6029.546520020609
 21
6026.4473225147267
 31
0.0
  0
LINE
  5
DF6F
  8
0
 62
     0
 10
-6053.0477535110367
 20
6007.4362170848353
 30
0.0
 11
-6034.0387704738469
 21
6026.4452001220261
 31
0.0
  0
LINE
  5
DF70
  8
0
 62
     0
 10
-6057.5400039642727
 20
6007.4340946921329
 30
0.0
 11
-6038.5310209270838
 21
6026.4430777293219
 31
0.0
  0
LINE
  5
DF71
  8
0
 62
     0
 10
-6062.0322544175133
 20
6007.4319722994278
 30
0.0
 11
-6043.0232713803198
 21
6026.4409553366213
 31
0.0
  0
LINE
  5
DF72
  8
0
 62
     0
 10
-6066.5245048707493
 20
6007.4298499067281
 30
0.0
 11
-6047.5155218335558
 21
6026.4388329439189
 31
0.0
  0
LINE
  5
DF73
  8
0
 62
     0
 10
-6071.0167553239853
 20
6007.427727514023
 30
0.0
 11
-6052.0077722867954
 21
6026.4367105512156
 31
0.0
  0
LINE
  5
DF74
  8
0
 62
     0
 10
-6075.5090057772213
 20
6007.4256051213233
 30
0.0
 11
-6056.5000227400315
 21
6026.4345881585141
 31
0.0
  0
LINE
  5
DF75
  8
0
 62
     0
 10
-6080.0012562304601
 20
6007.4234827286209
 30
0.0
 11
-6060.9922731932693
 21
6026.4324657658108
 31
0.0
  0
LINE
  5
DF76
  8
0
 62
     0
 10
-6084.4935066836961
 20
6007.4213603359176
 30
0.0
 11
-6065.4845236465071
 21
6026.4303433731093
 31
0.0
  0
LINE
  5
DF77
  8
0
 62
     0
 10
-6088.2688775766483
 20
6008.1361175035026
 30
0.0
 11
-6069.9767740997431
 21
6026.4282209804051
 31
0.0
  0
LINE
  5
DF78
  8
0
 62
     0
 10
-6088.2688775766483
 20
6012.6262455640353
 30
0.0
 11
-6074.46902455298
 21
6026.4260985877036
 31
0.0
  0
LINE
  5
DF79
  8
0
 62
     0
 10
-6088.2688775766483
 20
6017.1163736245699
 30
0.0
 11
-6078.9612750062161
 21
6026.4239761950021
 31
0.0
  0
LINE
  5
DF7A
  8
0
 62
     0
 10
-6097.9702580434068
 20
6007.4149931578113
 30
0.0
 11
-6094.6188775766468
 21
6010.7663736245713
 31
0.0
  0
LINE
  5
DF7B
  8
0
 62
     0
 10
-6092.4684345816549
 20
6017.4069446800968
 30
0.0
 11
-6083.4535254594548
 21
6026.4218538022988
 31
0.0
  0
LINE
  5
DF7C
  8
0
 62
     0
 10
-6102.4625084966428
 20
6007.4128707651089
 30
0.0
 11
-6094.6188775766468
 21
6015.256501685104
 31
0.0
  0
LINE
  5
DF7D
  8
0
 62
     0
 10
-6106.9547589498816
 20
6007.4107483724047
 30
0.0
 11
-6087.9457759126899
 21
6026.4197314095973
 31
0.0
  0
LINE
  5
DF7E
  8
0
 62
     0
 10
-6111.4470094031176
 20
6007.4086259797032
 30
0.0
 11
-6092.4380263659277
 21
6026.4176090168949
 31
0.0
  0
LINE
  5
DF7F
  8
0
 62
     0
 10
-6115.9392598563563
 20
6007.4065035870017
 30
0.0
 11
-6096.9302768191646
 21
6026.4154866241906
 31
0.0
  0
LINE
  5
DF80
  8
0
 62
     0
 10
-6120.4315103095923
 20
6007.4043811942984
 30
0.0
 11
-6101.4225272724016
 21
6026.4133642314882
 31
0.0
  0
LINE
  5
DF81
  8
0
 62
     0
 10
-6124.9237607628293
 20
6007.4022588015951
 30
0.0
 11
-6105.9147777256394
 21
6026.4112418387858
 31
0.0
  0
LINE
  5
DF82
  8
0
 62
     0
 10
-6129.416011216068
 20
6007.4001364088926
 30
0.0
 11
-6110.4070281788763
 21
6026.4091194460816
 31
0.0
  0
LINE
  5
DF83
  8
0
 62
     0
 10
-6133.9082616693031
 20
6007.3980140161921
 30
0.0
 11
-6114.8992786321123
 21
6026.406997053381
 31
0.0
  0
LINE
  5
DF84
  8
0
 62
     0
 10
-6136.6188775766477
 20
6009.1775261693811
 30
0.0
 11
-6119.3915290853502
 21
6026.4048746606786
 31
0.0
  0
LINE
  5
DF85
  8
0
 62
     0
 10
-6136.6188775766486
 20
6013.6676542299156
 30
0.0
 11
-6123.883779538588
 21
6026.4027522679762
 31
0.0
  0
LINE
  5
DF86
  8
0
 62
     0
 10
-6137.3695189731052
 20
6017.4071408939944
 30
0.0
 11
-6128.3760299918249
 21
6026.4006298752738
 31
0.0
  0
LINE
  5
DF87
  8
0
 62
     0
 10
-6147.3850130290166
 20
6007.3916468380803
 30
0.0
 11
-6142.9688775766481
 21
6011.8077822904506
 31
0.0
  0
LINE
  5
DF88
  8
0
 62
     0
 10
-6141.8617694263412
 20
6017.4050185012911
 30
0.0
 11
-6132.8682804450618
 21
6026.3985074825696
 31
0.0
  0
LINE
  5
DF89
  8
0
 62
     0
 10
-6148.6114394523502
 20
6010.6553484752831
 30
0.0
 11
-6142.9688775766481
 21
6016.2979103509851
 31
0.0
  0
LINE
  5
DF8A
  8
0
 62
     0
 10
-6148.6135598405226
 20
6015.1433561476433
 30
0.0
 11
-6137.3605308982978
 21
6026.3963850898672
 31
0.0
  0
LINE
  5
DF8B
  8
0
 62
     0
 10
-6148.6156802286969
 20
6019.6313638200036
 30
0.0
 11
-6141.8527813515357
 21
6026.3942626971657
 31
0.0
  0
LINE
  5
DF8C
  8
0
 62
     0
 10
-6148.617800616872
 20
6024.1193714923666
 30
0.0
 11
-6146.3450318047726
 21
6026.3921403044642
 31
0.0
  0
ENDBLK
  5
DF8D
  8
0
  0
BLOCK
  8
0
  2
*X40
 70
     1
 10
0.0
 20
0.0
 30
0.0
  3
*X40
  1

  0
LINE
  5
DF98
  8
0
 62
     0
 10
-6084.5159146232163
 20
5803.2110576631394
 30
0.0
 11
-6082.6269511715373
 21
5805.1000211148194
 31
0.0
  0
LINE
  5
DF99
  8
0
 62
     0
 10
-6088.2688775766483
 20
5803.9482227702438
 30
0.0
 11
-6082.624828778833
 21
5809.5922715680572
 31
0.0
  0
LINE
  5
DF9A
  8
0
 62
     0
 10
-6088.2688775766483
 20
5808.4383508307774
 30
0.0
 11
-6082.6227063861306
 21
5814.0845220212941
 31
0.0
  0
LINE
  5
DF9B
  8
0
 62
     0
 10
-6088.2688775766483
 20
5812.9284788913137
 30
0.0
 11
-6082.6205839934282
 21
5818.5767724745328
 31
0.0
  0
LINE
  5
DF9C
  8
0
 62
     0
 10
-6097.992665982928
 20
5803.2046904850304
 30
0.0
 11
-6094.6188775766213
 21
5806.5784788913388
 31
0.0
  0
LINE
  5
DF9D
  8
0
 62
     0
 10
-6092.4908425211761
 20
5813.1966420073177
 30
0.0
 11
-6083.475933398975
 21
5822.2115511295196
 31
0.0
  0
LINE
  5
DF9E
  8
0
 62
     0
 10
-6102.4849164361658
 20
5803.202568092328
 30
0.0
 11
-6094.6188775765859
 21
5811.068606951907
 31
0.0
  0
LINE
  5
DF9F
  8
0
 62
     0
 10
-6106.9771668894018
 20
5803.2004456996256
 30
0.0
 11
-6087.968183852211
 21
5822.2094287368163
 31
0.0
  0
LINE
  5
DFA0
  8
0
 62
     0
 10
-6111.4694173426396
 20
5803.1983233069222
 30
0.0
 11
-6092.4604343054489
 21
5822.2073063441148
 31
0.0
  0
LINE
  5
DFA1
  8
0
 62
     0
 10
-6115.6188775766468
 20
5803.5389911334496
 30
0.0
 11
-6096.9526847586867
 21
5822.2051839514097
 31
0.0
  0
LINE
  5
DFA2
  8
0
 62
     0
 10
-6115.9616677958757
 20
5803.1962009142208
 30
0.0
 11
-6115.6188775766468
 21
5803.5389911334496
 31
0.0
  0
LINE
  5
DFA3
  8
0
 62
     0
 10
-6115.6188775766468
 20
5808.0291191939859
 30
0.0
 11
-6101.4449352119218
 21
5822.2030615587082
 31
0.0
  0
LINE
  5
DFA4
  8
0
 62
     0
 10
-6120.4539182491153
 20
5803.1940785215174
 30
0.0
 11
-6115.6188775766468
 21
5808.0291191939859
 31
0.0
  0
LINE
  5
DFA5
  8
0
 62
     0
 10
-6115.6188775766468
 20
5812.5192472545186
 30
0.0
 11
-6105.9371856651578
 21
5822.2009391660049
 31
0.0
  0
LINE
  5
DFA6
  8
0
 62
     0
 10
-6124.9461687023513
 20
5803.1919561288159
 30
0.0
 11
-6115.6188775766468
 21
5812.5192472545186
 31
0.0
  0
LINE
  5
DFA7
  8
0
 62
     0
 10
-6115.6188775766468
 20
5817.0093753150541
 30
0.0
 11
-6110.4294361183984
 21
5822.1988167733007
 31
0.0
  0
LINE
  5
DFA8
  8
0
 62
     0
 10
-6129.4384191555882
 20
5803.1898337361117
 30
0.0
 11
-6115.6188775766468
 21
5817.0093753150541
 31
0.0
  0
LINE
  5
DFA9
  8
0
 62
     0
 10
-6115.6188775766477
 20
5821.4995033755877
 30
0.0
 11
-6114.9216865716344
 21
5822.1966943806001
 31
0.0
  0
LINE
  5
DFAA
  8
0
 62
     0
 10
-6133.9306696088261
 20
5803.1877113434111
 30
0.0
 11
-6115.6188775766477
 21
5821.4995033755877
 31
0.0
  0
LINE
  5
DFAB
  8
0
 62
     0
 10
-6136.6188775766468
 20
5804.9896314361231
 30
0.0
 11
-6119.4139370248722
 21
5822.1945719878977
 31
0.0
  0
LINE
  5
DFAC
  8
0
 62
     0
 10
-6136.6188775766477
 20
5809.4797594966576
 30
0.0
 11
-6123.90618747811
 21
5822.1924495951953
 31
0.0
  0
LINE
  5
DFAD
  8
0
 62
     0
 10
-6137.3919269126236
 20
5813.1968382212144
 30
0.0
 11
-6128.3984379313461
 21
5822.1903272024911
 31
0.0
  0
LINE
  5
DFAE
  8
0
 62
     0
 10
-6147.4074209685368
 20
5803.1813441653012
 30
0.0
 11
-6142.9688775766454
 21
5807.6198875571918
 31
0.0
  0
LINE
  5
DFAF
  8
0
 62
     0
 10
-6141.8841773658596
 20
5813.1947158285129
 30
0.0
 11
-6132.8906883845839
 21
5822.1882048097914
 31
0.0
  0
LINE
  5
DFB0
  8
0
 62
     0
 10
-6148.6114500291251
 20
5806.4674431652484
 30
0.0
 11
-6142.9688775766454
 21
5812.1100156177281
 31
0.0
  0
LINE
  5
DFB1
  8
0
 62
     0
 10
-6148.6135704172993
 20
5810.9554508376104
 30
0.0
 11
-6137.3829388378208
 21
5822.1860824170872
 31
0.0
  0
LINE
  5
DFB2
  8
0
 62
     0
 10
-6148.6156908054727
 20
5815.4434585099698
 30
0.0
 11
-6141.8751892910586
 21
5822.1839600243848
 31
0.0
  0
LINE
  5
DFB3
  8
0
 62
     0
 10
-6148.617811193646
 20
5819.9314661823319
 30
0.0
 11
-6146.3674397442946
 21
5822.1818376316833
 31
0.0
  0
ENDBLK
  5
DFB4
  8
0
  0
BLOCK
  8
0
  2
*X41
 70
     1
 10
0.0
 20
0.0
 30
0.0
  3
*X41
  1

  0
LINE
  5
DFBF
  8
0
 62
     0
 10
-5696.7426616445937
 20
5748.5937646580433
 30
0.0
 11
-5694.442275857903
 21
5750.8941504447312
 31
0.0
  0
LINE
  5
DFC0
  8
0
 62
     0
 10
-5701.2327897051282
 20
5748.5937646580433
 30
0.0
 11
-5694.442275857903
 21
5755.3842785052657
 31
0.0
  0
LINE
  5
DFC1
  8
0
 62
     0
 10
-5705.7229177656627
 20
5748.5937646580433
 30
0.0
 11
-5694.442275857904
 21
5759.8744065657993
 31
0.0
  0
LINE
  5
DFC2
  8
0
 62
     0
 10
-5704.4422758579067
 20
5754.3645346263329
 30
0.0
 11
-5694.442275857904
 21
5764.3645346263338
 31
0.0
  0
LINE
  5
DFC3
  8
0
 62
     0
 10
-5710.2130458261972
 20
5748.5937646580433
 30
0.0
 11
-5706.213045826199
 21
5752.5937646580396
 31
0.0
  0
LINE
  5
DFC4
  8
0
 62
     0
 10
-5704.4422758579067
 20
5758.8546626868683
 30
0.0
 11
-5695.7031738867336
 21
5767.5937646580423
 31
0.0
  0
LINE
  5
DFC5
  8
0
 62
     0
 10
-5714.7031738867317
 20
5748.5937646580387
 30
0.0
 11
-5710.7031738867327
 21
5752.5937646580396
 31
0.0
  0
LINE
  5
DFC6
  8
0
 62
     0
 10
-5704.4422758579067
 20
5763.3447907474019
 30
0.0
 11
-5700.1933019472654
 21
5767.5937646580423
 31
0.0
  0
LINE
  5
DFC7
  8
0
 62
     0
 10
-5719.1933019472672
 20
5748.5937646580433
 30
0.0
 11
-5715.1933019472681
 21
5752.5937646580396
 31
0.0
  0
LINE
  5
DFC8
  8
0
 62
     0
 10
-5720.4422758579021
 20
5751.8349188079392
 30
0.0
 11
-5719.6834300078008
 21
5752.5937646580396
 31
0.0
  0
ENDBLK
  5
DFC9
  8
0
  0
BLOCK
  8
0
  2
MET-A3
 70
     0
 10
0.0
 20
0.0
 30
0.0
  3
MET-A3
  1
C:\Documents and Settings\Steven Nurse\Documents\Steve\Bikes\Bike Chameleon\met-a3.dwg
  0
TEXT
  5
E09C
  8
0
 62
     8
 10
299.90371302646179
 20
18.38629972578271
 30
0.0
 40
2.0902052209223552
  1
MATL.
  7
MET-A3$0$STANDARD
  0
LINE
  5
E09E
  8
0
 62
     5
 10
5.0
 20
4.9999999999999698
 30
0.0
 11
405.0
 21
4.9999999999999707
 31
0.0
  0
LINE
  5
E09F
  8
0
 62
     8
 10
5.0
 20
33.573452823194877
 30
0.0
 11
113.694286106834
 21
33.573452823194877
 31
0.0
  0
LINE
  5
E0A0
  8
0
 62
     5
 10
5.0
 20
13.00056679049456
 30
0.0
 11
113.694286106834
 21
13.00056679049456
 31
0.0
  0
LINE
  5
E0A1
  8
0
 62
     8
 10
5.0
 20
19.858195468061322
 30
0.0
 11
113.694286106834
 21
19.858195468061322
 31
0.0
  0
LINE
  5
E0A2
  8
0
 62
     8
 10
5.0
 20
26.715824145628108
 30
0.0
 11
113.694286106834
 21
26.715824145628119
 31
0.0
  0
LINE
  5
E0A3
  8
0
 62
     8
 10
80.835523848278157
 20
4.9999999999999707
 30
0.0
 11
80.835523848278157
 21
33.573452823194877
 31
0.0
  0
LINE
  5
E0A4
  8
0
 62
     8
 10
13.14254240533479
 20
33.573452823194877
 30
0.0
 11
13.14254240533479
 21
4.9999999999999707
 31
0.0
  0
TEXT
  5
E0A5
  8
0
 62
     8
 10
6.321421553202196
 20
7.9423674653920378
 30
0.0
 40
2.8573452823194918
  1
ISS.
  7
MET-A3$0$STANDARD
  0
TEXT
  5
E0A6
  8
0
 62
     8
 10
28.24721022728124
 20
7.9423674653920378
 30
0.0
 40
2.8573452823194918
  1
ALTERATION
  7
MET-A3$0$STANDARD
  0
TEXT
  5
E0A7
  8
0
 62
     8
 10
68.954839485769625
 20
7.9423674653920378
 30
0.0
 40
2.8573452823194918
  1
DATE
  7
MET-A3$0$STANDARD
  0
TEXT
  5
E0A8
  8
0
 62
     8
 10
82.48949008392367
 20
7.9423674653920378
 30
0.0
 40
2.8573452823194918
  1
DRN.
  7
MET-A3$0$STANDARD
  0
TEXT
  5
E0A9
  8
0
 62
     8
 10
6.5230189830958798
 20
284.77809542177249
 30
0.0
 40
2.032
  1
DRG. No.
  7
MET-A3$0$STANDARD
  0
LINE
  5
E0AA
  8
0
 62
     5
 10
5.0
 20
274.0
 30
0.0
 11
40.0
 21
274.0
 31
0.0
  0
LINE
  5
E0AB
  8
0
 62
     5
 10
40.0
 20
274.0
 30
0.0
 11
40.0
 21
288.0
 31
0.0
  0
TEXT
  5
E0AC
  8
0
 62
     8
 10
268.75939940857131
 20
10.143038859715739
 30
0.0
 40
2.0902052209223552
  1
DATE.
  7
MET-A3$0$STANDARD
  0
TEXT
  5
E0AD
  8
0
 62
     8
 10
341.04948509186238
 20
10.286330427739941
 30
0.0
 40
2.0902052209223552
  1
CKD. DATE
  7
MET-A3$0$STANDARD
  0
TEXT
  5
E0AE
  8
0
 62
     8
 10
341.04948509186238
 20
18.38629972578271
 30
0.0
 40
2.0902052209223552
  1
WT.
  7
MET-A3$0$STANDARD
  0
LINE
  5
E0AF
  8
0
 62
     8
 10
340.42428001482671
 20
4.9999999999999707
 30
0.0
 11
340.42428001482671
 21
21.001133580989119
 31
0.0
  0
LINE
  5
E0B0
  8
0
 62
     8
 10
298.71837548841779
 20
4.9999999999999707
 30
0.0
 11
298.71837548841779
 21
21.001133580989119
 31
0.0
  0
LINE
  5
E0B1
  8
0
 62
     5
 10
186.73305078767689
 20
21.001133580989119
 30
0.0
 11
405.0
 21
21.001133580989119
 31
0.0
  0
TEXT
  5
E0B2
  8
0
 62
     8
 10
362.39820923591412
 20
25.084559833528122
 30
0.0
 40
1.6721641767378841
  1
FAM No.
  7
MET-A3$0$STANDARD
  0
LINE
  5
E0B3
  8
0
 62
     5
 10
405.0
 20
4.9999999999999707
 30
0.0
 11
405.0
 21
288.0
 31
0.0
  0
LINE
  5
E0B4
  8
0
 62
     5
 10
113.694286106834
 20
33.573452823194891
 30
0.0
 11
405.0
 21
33.573452823194877
 31
0.0
  0
LINE
  5
E0B5
  8
0
 62
     5
 10
186.73305078767689
 20
4.9999999999999707
 30
0.0
 11
186.73305078767689
 21
33.573452823194877
 31
0.0
  0
LINE
  5
E0B6
  8
0
 62
     5
 10
360.99716604752712
 20
4.9999999999999707
 30
0.0
 11
360.99716604752712
 21
33.573452823194877
 31
0.0
  0
LINE
  5
E0B7
  8
0
 62
     8
 10
236.4395849293085
 20
13.00056679049456
 30
0.0
 11
360.99716604752712
 21
13.00056679049456
 31
0.0
  0
CIRCLE
  5
E0B8
  8
0
 62
     7
 10
192.91967554260239
 20
27.357747342373301
 30
0.0
 40
2.1109508099565311
  0
CIRCLE
  5
E0B9
  8
0
 62
     7
 10
192.91967554260239
 20
27.357747342373301
 30
0.0
 40
3.3727862085424039
  0
LINE
  5
E0BA
  8
0
 62
     7
 10
200.5424754523429
 20
29.468698152329829
 30
0.0
 11
200.5424754523429
 21
25.24679653241677
 31
0.0
  0
LINE
  5
E0BB
  8
0
 62
     7
 10
207.28804786942769
 20
23.9849611338309
 30
0.0
 11
207.28804786942769
 21
30.73053355091572
 31
0.0
  0
LINE
  5
E0BC
  8
0
 62
     7
 10
207.28804786942769
 20
30.73053355091572
 30
0.0
 11
200.5424754523429
 21
29.468698152329829
 31
0.0
  0
LINE
  5
E0BD
  8
0
 62
     8
 10
192.91967554260239
 20
22.65296904303294
 30
0.0
 11
192.91967554260239
 21
26.00863285895532
 31
0.0
  0
LINE
  5
E0BE
  8
0
 62
     8
 10
188.21489724326199
 20
27.357747342373301
 30
0.0
 11
191.5705610591844
 21
27.357747342373301
 31
0.0
  0
LINE
  5
E0BF
  8
0
 62
     8
 10
198.6279034394544
 20
27.357747342373301
 30
0.0
 11
203.2349099365068
 21
27.357747342373301
 31
0.0
  0
LINE
  5
E0C0
  8
0
 62
     5
 10
236.4395849293085
 20
4.9999999999999698
 30
0.0
 11
236.4395849293085
 21
21.001133580989119
 31
0.0
  0
TEXT
  5
E0C1
  8
0
 62
     8
 10
362.7378824900199
 20
17.98961731420836
 30
0.0
 40
2.322450245469283
  1
DRG. No.
  7
MET-A3$0$STANDARD
  0
TEXT
  5
E0C2
  8
0
 62
     8
 10
237.55640492158241
 20
30.096681265019811
 30
0.0
 40
2.322450245469283
  1
TITLE
  7
MET-A3$0$STANDARD
  0
TEXT
  5
E0C3
  8
0
 62
     8
 10
237.42470075068869
 20
17.822507123050048
 30
0.0
 40
2.0902052209223552
  1
CUST.
  7
MET-A3$0$STANDARD
  0
LINE
  5
E0C4
  8
0
 62
     8
 10
267.57898020886307
 20
4.9999999999999707
 30
0.0
 11
267.57898020886307
 21
13.00056679049456
 31
0.0
  0
TEXT
  5
E0C5
  8
0
 62
     8
 10
237.58201781378159
 20
10.143038859715739
 30
0.0
 40
2.0902052209223552
  1
SCALE
  7
MET-A3$0$STANDARD
  0
TEXT
  5
E0C6
  8
0
 62
     8
 10
299.90371302646179
 20
10.18447092773641
 30
0.0
 40
2.0902052209223552
  1
DRN.
  7
MET-A3$0$STANDARD
  0
LINE
  5
E0C7
  8
0
 62
     5
 10
236.4395849293085
 20
21.001133580989119
 30
0.0
 11
236.4395849293085
 21
33.573452823194877
 31
0.0
  0
TEXT
  5
E0C8
  8
0
 62
     8
 10
220.031405934828
 20
10.64040505924611
 30
0.0
 40
3.2002267161978311
  1
+
  7
MET-A3$0$STANDARD
  0
TEXT
  5
E0C9
  8
0
 62
     8
 10
220.031405934828
 20
9.4540972795729914
 30
0.0
 40
3.2002267161978311
  1
-
  7
MET-A3$0$STANDARD
  0
LINE
  5
E0CA
  8
0
 62
     8
 10
192.38012712376229
 20
27.357747342373301
 30
0.0
 11
192.91967554260239
 21
27.357747342373301
 31
0.0
  0
LINE
  5
E0CB
  8
0
 62
     8
 10
192.91967554260239
 20
26.818198923533199
 30
0.0
 11
192.91967554260239
 21
27.357747342373301
 31
0.0
  0
LINE
  5
E0CC
  8
0
 62
     8
 10
192.91967554260239
 20
27.897295761213389
 30
0.0
 11
192.91967554260239
 21
27.357747342373301
 31
0.0
  0
LINE
  5
E0CD
  8
0
 62
     8
 10
192.91967554260239
 20
32.062525641713663
 30
0.0
 11
192.91967554260239
 21
28.706861825791272
 31
0.0
  0
LINE
  5
E0CE
  8
0
 62
     8
 10
193.45922396144249
 20
27.357747342373301
 30
0.0
 11
192.9196755426025
 21
27.357747342373301
 31
0.0
  0
LINE
  5
E0CF
  8
0
 62
     8
 10
197.62445384194271
 20
27.357747342373301
 30
0.0
 11
194.26879002602041
 21
27.357747342373301
 31
0.0
  0
LINE
  5
E0D0
  8
0
 62
     8
 10
203.85330007033929
 20
27.357747342373301
 30
0.0
 11
204.93548280454621
 21
27.357747342373301
 31
0.0
  0
LINE
  5
E0D1
  8
0
 62
     8
 10
205.53841318503291
 20
27.357747342373301
 30
0.0
 11
209.0477771945325
 21
27.357747342373301
 31
0.0
  0
TEXT
  5
E0D2
  8
0
 62
     8
 10
381.57658938206691
 20
31.558320461759219
 30
0.0
 40
1.6721641767378841
  1
PART No.
  7
MET-A3$0$STANDARD
  0
LINE
  5
E0D3
  8
0
 62
     5
 10
360.99716604752712
 20
27.28729320209203
 30
0.0
 11
405.0
 21
27.28729320209203
 31
0.0
  0
TEXT
  5
E0D4
  8
0
 62
     8
 10
362.26949527520168
 20
31.558320461759219
 30
0.0
 40
1.6721641767378841
  1
GRP.
  7
MET-A3$0$STANDARD
  0
LINE
  5
E0D5
  8
0
 62
     5
 10
5.0
 20
4.9999999999999698
 30
0.0
 11
5.0
 21
288.0
 31
0.0
  0
LINE
  5
E0D6
  8
0
 62
     5
 10
5.0
 20
288.0
 30
0.0
 11
405.0
 21
288.0
 31
0.0
  0
TEXT
  5
E0D7
  8
0
 62
     8
 10
189.06696753560621
 20
17.17510910045759
 30
0.0
 40
2.25
  1
UNLESS OTHERWISE STATED
  7
MET-A3$0$STANDARD
  0
TEXT
  5
E0D8
  8
0
 62
     8
 10
189.06696753560621
 20
13.781975050751679
 30
0.0
 40
2.25
  1
ALL DIMENSIONS IN MILLIMETRES.
  7
MET-A3$0$STANDARD
  0
TEXT
  5
E0D9
  8
0
 62
     8
 10
188.88145049545651
 20
10.228297798646571
 30
0.0
 40
2.25
  1
TOL.   - LINEAR:
  7
MET-A3$0$STANDARD
  0
TEXT
  5
E0DA
  8
0
 62
     8
 10
180.82691900228781
 20
6.8659791324289907
 30
0.0
 40
2.25
  1
            - ANGULAR:
  7
MET-A3$0$STANDARD
  0
TEXT
  5
E0DB
  8
0
 62
     8
 10
220.11613031461269
 20
7.068694008708504
 30
0.0
 40
3.2002267161978311
  1
+
  7
MET-A3$0$STANDARD
  0
TEXT
  5
E0DC
  8
0
 62
     8
 10
220.11613031461269
 20
5.8823862290353839
 30
0.0
 40
3.2002267161978311
  1
-
  7
MET-A3$0$STANDARD
  0
TEXT
  5
E0DD
  8
0
 62
     8
 10
223.5503334032191
 20
6.8659791324289907
 30
0.0
 40
2.25
  1
  %%D
  7
MET-A3$0$STANDARD
  0
LINE
  5
E0DE
  8
0
 62
     8
 10
210.32620750261469
 20
21.001133580989119
 30
0.0
 11
210.32620750261469
 21
33.573452823194877
 31
0.0
  0
LINE
  5
E0DF
  8
0
 62
     8
 10
227.64208287452129
 20
21.001133580989119
 30
0.0
 11
227.64208287452129
 21
33.573452823194877
 31
0.0
  0
TEXT
  5
E0E0
  8
0
 62
     8
 10
212.39139345740321
 20
30.4616061407892
 30
0.0
 40
2.25
  1
DRAFTING 
  7
MET-A3$0$STANDARD
  0
TEXT
  5
E0E1
  8
0
 62
     8
 10
211.92394860341861
 20
27.268562879810371
 30
0.0
 40
2.25
  1
STANDARD
  7
MET-A3$0$STANDARD
  0
TEXT
  5
E0E2
  8
0
 62
     7
 10
211.7625207634776
 20
22.696921441347069
 30
0.0
 40
3.1499999684999991
  1
AS 1100
  7
MET-A3$0$STANDARD
  0
TEXT
  5
E0E3
  8
0
 62
     8
 10
228.9941654708397
 20
29.624750856140128
 30
0.0
 40
2.25
  1
SIZE
  7
MET-A3$0$STANDARD
  0
TEXT
  5
E0E4
  8
0
 62
     7
 10
229.10242448538949
 20
23.900506226337779
 30
0.0
 40
3.4999999649999989
  1
A4
  7
MET-A3$0$STANDARD
  0
LINE
  5
E0E5
  8
0
 62
     8
 10
0.4571550110740077
 20
147.99999999999989
 30
0.0
 11
5.000000000000056
 21
147.99999999999989
 31
0.0
  0
LINE
  5
E0E6
  8
0
 62
     8
 10
-1.0
 20
146.49999999999989
 30
0.0
 11
0.4571550110740077
 21
147.99999999999989
 31
0.0
  0
LINE
  5
E0E7
  8
0
 62
     8
 10
-1.0
 20
146.5
 30
0.0
 11
0.4571550110740077
 21
145.0
 31
0.0
  0
LINE
  5
E0E8
  8
0
 62
     8
 10
0.4571550110740077
 20
145.0
 30
0.0
 11
5.000000000000056
 21
145.0
 31
0.0
  0
LINE
  5
E0E9
  8
0
 62
     8
 10
203.5
 20
3.95715501107395
 30
0.0
 11
203.5
 21
5.000000000000056
 31
0.0
  0
LINE
  5
E0EA
  8
0
 62
     8
 10
205.0
 20
2.5
 30
0.0
 11
203.5
 21
3.9571550110740068
 31
0.0
  0
LINE
  5
E0EB
  8
0
 62
     8
 10
205.0
 20
2.5
 30
0.0
 11
206.49999999999989
 21
3.9571550110740068
 31
0.0
  0
LINE
  5
E0EC
  8
0
 62
     8
 10
206.49999999999989
 20
3.95715501107395
 30
0.0
 11
206.49999999999989
 21
5.000000000000056
 31
0.0
  0
LINE
  5
E0ED
  8
0
 62
     5
 10
370.0
 20
274.0
 30
0.0
 11
370.0
 21
288.0
 31
0.0
  0
LINE
  5
E0EE
  8
0
 62
     5
 10
405.0
 20
274.0
 30
0.0
 11
370.0
 21
274.0
 31
0.0
  0
TEXT
  5
E0EF
  8
0
 62
     8
 10
392.37866028373998
 20
284.77809542177249
 30
0.0
 40
2.032
  1
FRAME
  7
MET-A3$0$STANDARD
  0
TEXT
  5
E0F0
  8
0
 62
     8
 10
320.47659905916191
 20
10.286330427739941
 30
0.0
 40
2.0902052209223552
  1
CKD.
  7
MET-A3$0$STANDARD
  0
LINE
  5
E0F1
  8
0
 62
     8
 10
319.8513939821263
 20
4.9999999999999707
 30
0.0
 11
319.8513939821263
 21
13.00056679049456
 31
0.0
  0
LINE
  5
E0F2
  8
MET-A3$0$PLOT
 62
     8
 10
206.5
 20
291.54284498892599
 30
0.0
 11
206.49999999999989
 21
288.0
 31
0.0
  0
LINE
  5
E0F3
  8
MET-A3$0$PLOT
 62
     8
 10
205.0
 20
292.99999999999989
 30
0.0
 11
206.5
 21
291.54284498892588
 31
0.0
  0
LINE
  5
E0F4
  8
MET-A3$0$PLOT
 62
     8
 10
205.0
 20
292.99999999999989
 30
0.0
 11
203.5
 21
291.54284498892588
 31
0.0
  0
LINE
  5
E0F5
  8
MET-A3$0$PLOT
 62
     8
 10
203.5
 20
291.54284498892599
 30
0.0
 11
203.5
 21
288.0
 31
0.0
  0
LINE
  5
E0F6
  8
0
 62
     8
 10
409.54284498892599
 20
145.0
 30
0.0
 11
404.99999999999989
 21
145.0
 31
0.0
  0
LINE
  5
E0F7
  8
0
 62
     8
 10
411.0
 20
146.5
 30
0.0
 11
409.54284498892599
 21
145.0
 31
0.0
  0
LINE
  5
E0F8
  8
0
 62
     8
 10
411.0
 20
146.49999999999989
 30
0.0
 11
409.54284498892599
 21
147.99999999999989
 31
0.0
  0
LINE
  5
E0F9
  8
0
 62
     8
 10
409.54284498892599
 20
147.99999999999989
 30
0.0
 11
404.99999999999989
 21
147.99999999999989
 31
0.0
  0
LINE
  5
E0FA
  8
0
 62
     8
 10
90.835523848278157
 20
4.9999999999999707
 30
0.0
 11
90.835523848278157
 21
33.573452823194877
 31
0.0
  0
LINE
  5
E0FB
  8
0
 62
     8
 10
100.8355238482781
 20
4.9999999999999707
 30
0.0
 11
100.8355238482781
 21
33.573452823194877
 31
0.0
  0
LINE
  5
E0FC
  8
0
 62
     5
 10
113.694286106834
 20
4.9999999999999707
 30
0.0
 11
113.694286106834
 21
33.573452823194891
 31
0.0
  0
TEXT
  5
E0FD
  8
0
 62
     8
 10
92.48949008392367
 20
7.9423674653920378
 30
0.0
 40
2.8573452823194918
  1
APP.
  7
MET-A3$0$STANDARD
  0
TEXT
  5
E0FE
  8
0
 62
     8
 10
101.76780250615271
 20
7.9423674653920378
 30
0.0
 40
2.8573452823194918
  1
NP/CR
  7
MET-A3$0$STANDARD
  0
LINE
  5
E0FF
  8
0
 62
     8
 10
65.604185625275647
 20
4.9999999999999707
 30
0.0
 11
65.604185625275647
 21
33.573452823194877
 31
0.0
  0
LINE
  5
E100
  8
0
 62
     7
 10
207.28804786942769
 20
23.984961133830879
 30
0.0
 11
200.5424754523429
 21
25.24679653241677
 31
0.0
  0
TEXT
  5
E101
  8
0
 62
     8
 10
115.6508358997561
 20
24.8401124851096
 30
0.0
 40
7.0
  1
BIKE CHAMELEON
 41
0.6
  7
MET-A3$0$STANDARD
  0
TEXT
  5
E102
  8
0
 62
     8
 10
115.4865462735181
 20
20.298020008503901
 30
0.0
 40
3.2999999999999998
  1
10 ABBOT GROVE CLIFTON HILL VIC 3068
 41
0.6
  7
MET-A3$0$STANDARD
  0
TEXT
  5
E103
  8
0
 62
     8
 10
115.9660671862402
 20
15.74299153233226
 30
0.0
 40
3.2999999999999998
  1
Ph: (03) 94818290 Fax: (03) 9489 6669
 41
0.6
  7
MET-A3$0$STANDARD
  0
TEXT
  5
E104
  8
0
 62
     8
 10
115.7263072674357
 20
11.411055950556261
 30
0.0
 40
3.2999999999999998
  1
EMAIL: cesnur@eisa.net.au 
 41
0.6
  7
MET-A3$0$STANDARD
  0
TEXT
  5
E105
  8
0
 62
     8
 10
115.8861464965632
 20
7.0224842274619661
 30
0.0
 40
3.2999999999999998
  1
WEBSITE: www.eisa.net.au/~cesnur/
 41
0.6
  7
MET-A3$0$STANDARD
  0
CIRCLE
  5
E106
  8
0
 62
     8
 10
167.93093895964051
 20
25.734086840791289
 30
0.0
 40
5.3143736866325284
  0
CIRCLE
  5
E107
  8
0
 62
     8
 10
180.40081622360731
 20
25.734086840791289
 30
0.0
 40
5.3143736866325284
  0
LINE
  5
E108
  8
0
 62
     8
 10
180.40081622360731
 20
25.734086840791289
 30
0.0
 11
167.93093895964051
 21
25.734086840791289
 31
0.0
  0
ENDBLK
  5
E08E
  8
0
  0
ENDSEC
  0
SECTION
  2
ENTITIES
  0
CIRCLE
  5
DFCA
  8
0
 10
-5699.939166489683
 20
5892.7002316615253
 30
0.0
 40
22.249999999999542
  0
CIRCLE
  5
DFCB
  8
0
 10
-5791.939166489683
 20
5906.9502316615244
 30
0.0
 40
8.0
  0
CIRCLE
  5
DFCC
  8
0
 10
-5607.939166489683
 20
5906.9502316615244
 30
0.0
 40
8.0
  0
ARC
  5
DFCD
  8
0
 10
-5607.939166489683
 20
5906.9502316615244
 30
0.0
 40
18.0
 50
287.60930239283232
 51
0.0
  0
ARC
  5
DFCE
  8
0
 10
-5791.939166489683
 20
5906.9502316615244
 30
0.0
 40
18.0
 50
180.0
 51
252.3906976071676
  0
LINE
  5
DFCF
  8
0
 10
-5607.939166489683
 20
5934.9502316615244
 30
0.0
 11
-5653.7331062810927
 21
5934.9502316615271
 31
0.0
  0
LINE
  5
DFD0
  8
0
 10
-5709.6955862685872
 20
5861.9614162468442
 30
0.0
 11
-5797.3846100872097
 21
5889.7936835230976
 31
0.0
  0
LINE
  5
DFD1
  8
0
 10
-5690.1827467107796
 20
5861.9614162468442
 30
0.0
 11
-5602.4937228921544
 21
5889.7936835230976
 31
0.0
  0
ARC
  5
DFD2
  8
0
 10
-5699.939166489683
 20
5892.7002316615253
 30
0.0
 40
32.249999999999531
 50
252.39069760716731
 51
287.60930239283289
  0
CIRCLE
  5
DFD3
  8
0
 10
-5699.939166489683
 20
5939.9502316615253
 30
0.0
 40
15.0
  0
LINE
  5
DFD4
  8
0
 10
-5746.1452266982751
 20
5934.9502316615271
 30
0.0
 11
-5791.939166489683
 21
5934.9502316615244
 31
0.0
  0
LINE
  5
DFD5
  8
0
 10
-5677.9168624549093
 20
5895.8752316615228
 30
0.0
 11
-5649.9391664896839
 21
5895.8752316615228
 31
0.0
  0
LINE
  5
DFD6
  8
0
 10
-5677.9168624549093
 20
5889.5252316615233
 30
0.0
 11
-5649.9391664896839
 21
5889.5252316615233
 31
0.0
  0
ARC
  5
DFD7
  8
0
 10
-5649.9391664896839
 20
5892.7002316615253
 30
0.0
 40
3.175000000000181
 50
270.0
 51
90.0
  0
LINE
  5
DFD8
  8
0
 10
-5721.9614705244558
 20
5889.5252316615233
 30
0.0
 11
-5749.939166489683
 21
5889.5252316615233
 31
0.0
  0
LINE
  5
DFD9
  8
0
 10
-5721.9614705244558
 20
5895.8752316615228
 30
0.0
 11
-5749.939166489683
 21
5895.8752316615228
 31
0.0
  0
ARC
  5
DFDA
  8
0
 10
-5749.939166489683
 20
5892.7002316615253
 30
0.0
 40
3.175000000000181
 50
90.0
 51
270.0
  0
TEXT
  5
DFDB
  8
DIM
 10
-5746.6062551465448
 20
5885.6213735694619
 30
0.0
 40
5.0
  1
6 DEEP
  0
DIMENSION
  5
DFDC
  8
DIM
  2
*D3
 10
-5575.0176074175333
 20
5889.525231661526
 30
0.0
 11
-5578.8204723561421
 21
5872.9222302972694
 31
0.0
 13
-5649.9391664896839
 23
5895.8752316615237
 33
0.0
 14
-5649.9391647902175
 24
5889.525231661526
 34
0.0
 50
90.0
1001
ACAD
1000
DSTYLE
1002
{
1070
    40
1040
2.0
1070
   271
1070
     2
1002
}
  0
DIMENSION
  5
DFDD
  8
DIM
  2
*D4
 10
-5649.9391664896839
 20
5849.9702586217063
 30
0.0
 11
-5699.939166489683
 21
5853.773123560316
 31
0.0
 13
-5749.939166489683
 23
5892.7002316615253
 33
0.0
 14
-5649.9391664896839
 24
5892.7002316615253
 34
0.0
1001
ACAD
1000
DSTYLE
1002
{
1070
    40
1040
2.0
1002
}
  0
TEXT
  5
DFDE
  8
DIM
 10
-5790.7297813211253
 20
5907.4967323787987
 30
0.0
 40
5.0
  1
10 DEEP
  0
TEXT
  5
DFDF
  8
DIM
 10
-5634.991486231871
 20
5904.3289509398364
 30
0.0
 40
5.0
  1
10 DEEP
  0
TEXT
  5
DFE0
  8
DIM
 10
-5686.0472544354179
 20
5904.3494147870397
 30
0.0
 40
5.0
  1
THRU
  0
TEXT
  5
DFE1
  8
DIM
 10
-5702.6841048216738
 20
5922.3430868726082
 30
0.0
 40
5.0
  1
THRU
  0
LINE
  5
DFE2
  8
0
 10
-5809.939166489683
 20
5906.9502316615244
 30
0.0
 11
-5809.939166489683
 21
5916.9502316615226
 31
0.0
  0
LINE
  5
DFE3
  8
0
 10
-5589.939166489683
 20
5906.9502316615244
 30
0.0
 11
-5589.939166489683
 21
5916.9502316615226
 31
0.0
  0
ARC
  5
DFE4
  8
0
 10
-5607.939166489683
 20
5916.9502316615226
 30
0.0
 40
18.0
 50
0.0
 51
89.999999999999503
  0
ARC
  5
DFE5
  8
0
 10
-5791.939166489683
 20
5916.9502316615226
 30
0.0
 40
18.0
 50
90.000000000000469
 51
180.0
  0
ARC
  5
DFE6
  8
0
 10
-5699.939166489683
 20
5939.9502316615253
 30
0.0
 40
30.0
 50
15.7138610480092
 51
164.2861389519918
  0
ARC
  5
DFE7
  8
0
 10
-5746.1452266982742
 20
5952.9502316615253
 30
0.0
 40
18.0
 50
269.99999999999841
 51
344.28613895199157
  0
ARC
  5
DFE8
  8
0
 10
-5653.7331062810927
 20
5952.9502316615253
 30
0.0
 40
18.0
 50
195.7138610480078
 51
270.0
  0
DIMENSION
  5
DFE9
  8
DIM
  2
*D5
 10
-5809.939166489683
 20
5831.6569466105457
 30
0.0
 11
-5699.939166489683
 21
5835.4598115491563
 31
0.0
 13
-5589.939166489683
 23
5906.9502316615244
 33
0.0
 14
-5809.939166489683
 24
5906.9502316615244
 34
0.0
1001
ACAD
1000
DSTYLE
1002
{
1070
    40
1040
2.0
1002
}
  0
DIMENSION
  5
DFEA
  8
DIM
  2
*D6
 10
-5684.939166489683
 20
5987.6856840722312
 30
0.0
 11
-5699.939166489683
 21
5991.6283853000623
 31
0.0
  1
%%c<>
 13
-5714.939166489683
 23
5939.9502316615253
 33
0.0
 14
-5684.939166489683
 24
5939.9502316615253
 34
0.0
1001
ACAD
1000
DSTYLE
1002
{
1070
    40
1040
2.0
1002
}
  0
DIMENSION
  5
DFEB
  8
DIM
  2
*D8
 10
-5843.3903719217651
 20
5898.9502316615244
 30
0.0
 11
-5847.3330731495971
 21
5906.9502316615217
 31
0.0
  1
%%c<>
 13
-5791.939166489683
 23
5914.9502316615244
 33
0.0
 14
-5791.939166489683
 24
5898.9502316615244
 34
0.0
 50
90.0
1001
ACAD
1000
DSTYLE
1002
{
1070
    40
1040
2.0
1002
}
  0
DIMENSION
  5
DFEC
  8
DIM
  2
*D10
 10
-5854.3618151712672
 20
5870.4502316615253
 30
0.0
 11
-5859.0129003946877
 21
5902.3204813616849
 31
0.0
 70
   128
  1
%%c<>
 13
-5699.939166489683
 23
5914.9502316615244
 33
0.0
 14
-5699.939166489683
 24
5870.4502316615253
 34
0.0
 50
90.0
1001
ACAD
1000
DSTYLE
1002
{
1070
   287
1070
     5
1070
    40
1040
2.0
1070
   279
1070
     2
1002
}
  0
DIMENSION
  5
DFED
  8
DIM
  2
*D11
 10
-5864.6340035855737
 20
5939.9502316615253
 30
0.0
 11
-5864.6340035855746
 21
5926.8665131630914
 31
0.0
 70
   128
 13
-5699.939166489683
 23
5892.7002316615253
 33
0.0
 14
-5699.939166489683
 24
5939.9502316615253
 34
0.0
 50
90.0
1001
ACAD
1000
DSTYLE
1002
{
1070
    40
1040
2.0
1002
}
  0
DIMENSION
  5
DFEE
  8
DIM
  2
*D12
 10
-5531.6527576083636
 20
5860.4502316615244
 30
0.0
 11
-5535.4556225469742
 21
5915.2002316615253
 31
0.0
 13
-5699.939166489683
 23
5969.9502316615244
 33
0.0
 14
-5699.939166489683
 24
5860.4502316615244
 34
0.0
 50
90.0
1001
ACAD
1000
DSTYLE
1002
{
1070
    40
1040
2.0
1002
}
  0
DIMENSION
  5
DFEF
  8
DIM
  2
*D13
 10
-5854.3618151712672
 20
5860.4502316615244
 30
0.0
 11
-5858.1646801098768
 21
5865.4502316615244
 31
0.0
 13
-5699.939166489683
 23
5870.4502316615253
 33
0.0
 14
-5699.939166489683
 24
5860.4502316615244
 34
0.0
 50
90.0
1001
ACAD
1000
DSTYLE
1002
{
1070
    40
1040
2.0
1002
}
  0
DIMENSION
  5
DFF0
  8
DIM
  2
*D14
 10
-5854.3618151712672
 20
5934.9502316615244
 30
0.0
 11
-5858.1646801098768
 21
5924.9502316615217
 31
0.0
 13
-5701.189166489683
 23
5914.9502316615244
 33
0.0
 14
-5791.939166489683
 24
5934.9502316615244
 34
0.0
 50
90.0
1001
ACAD
1000
DSTYLE
1002
{
1070
    40
1040
2.0
1002
}
  0
DIMENSION
  5
DFF1
  8
DIM
  2
*D15
 10
-5607.939166489683
 20
5840.7196157224562
 30
0.0
 11
-5699.939166489683
 21
5844.5224806610631
 31
0.0
 13
-5791.939166489683
 23
5906.9502316615244
 33
0.0
 14
-5607.939166489683
 24
5906.9502316615244
 34
0.0
1001
ACAD
1000
DSTYLE
1002
{
1070
    40
1040
2.0
1002
}
  0
LINE
  5
DFF2
  8
CL
 10
-5699.939166489683
 20
5979.1768445503103
 30
0.0
 11
-5699.939166489683
 21
5858.3893303056566
 31
0.0
  0
LINE
  5
DFF3
  8
CL
 10
-5718.6236866936997
 20
5939.9502316615253
 30
0.0
 11
-5681.2546462856662
 21
5939.9502316615253
 31
0.0
  0
LINE
  5
DFF4
  8
0
 10
-5809.939166489683
 20
6010.1871904195859
 30
0.0
 11
-5809.939166489683
 21
6029.1871904195823
 31
0.0
  0
LINE
  5
DFF5
  8
0
 10
-5699.939166489683
 20
6029.1871904195823
 30
0.0
 11
-5809.939166489683
 21
6029.1871904195823
 31
0.0
  0
LINE
  5
DFF6
  8
0
 10
-5699.939166489683
 20
6010.1871904195823
 30
0.0
 11
-5809.939166489683
 21
6010.1871904195859
 31
0.0
  0
LINE
  5
DFF7
  8
0
 10
-5753.1141664896813
 20
6010.1871904195823
 30
0.0
 11
-5753.1141664896813
 21
6016.187190419585
 31
0.0
  0
LINE
  5
DFF8
  8
0
 10
-5799.9391664896848
 20
6010.1871904195841
 30
0.0
 11
-5799.939166489683
 21
6020.187190419585
 31
0.0
  0
LINE
  5
DFF9
  8
0
 10
-5722.189166489683
 20
6016.187190419585
 30
0.0
 11
-5722.1891664896812
 21
6029.1871904195823
 31
0.0
  0
LINE
  5
DFFA
  8
CL
 10
-5699.939166489683
 20
6000.9350275519073
 30
0.0
 11
-5699.939166489683
 21
6035.9843822754983
 31
0.0
  0
LINE
  5
DFFB
  8
0
 10
-5721.9614705244558
 20
6016.1871904195841
 30
0.0
 11
-5753.1141664896813
 21
6016.187190419585
 31
0.0
  0
LINE
  5
DFFC
  8
0
 10
-5783.939166489683
 20
6010.1871904195841
 30
0.0
 11
-5783.939166489683
 21
6020.187190419585
 31
0.0
  0
LINE
  5
DFFD
  8
0
 10
-5783.939166489683
 20
6020.187190419585
 30
0.0
 11
-5799.939166489683
 21
6020.187190419585
 31
0.0
  0
LINE
  5
DFFE
  8
0
 10
-5721.9614705244558
 20
6010.1871904195841
 30
0.0
 11
-5721.9614705244558
 21
6016.1871904195841
 31
0.0
  0
LINE
  5
DFFF
  8
0
 10
-5699.9391664896839
 20
6010.1871904195823
 30
0.0
 11
-5589.9391664896848
 21
6010.1871904195859
 31
0.0
  0
LINE
  5
E000
  8
0
 10
-5699.9391664896839
 20
6029.1871904195823
 30
0.0
 11
-5589.9391664896839
 21
6029.1871904195823
 31
0.0
  0
LINE
  5
E001
  8
0
 10
-5589.9391664896848
 20
6010.1871904195859
 30
0.0
 11
-5589.9391664896839
 21
6029.1871904195823
 31
0.0
  0
LINE
  5
E002
  8
0
 10
-5599.939166489683
 20
6010.1871904195841
 30
0.0
 11
-5599.939166489683
 21
6020.187190419585
 31
0.0
  0
LINE
  5
E003
  8
0
 10
-5615.939166489683
 20
6010.1871904195841
 30
0.0
 11
-5615.9391664896839
 21
6020.187190419585
 31
0.0
  0
LINE
  5
E004
  8
0
 10
-5615.9391664896839
 20
6020.187190419585
 30
0.0
 11
-5599.939166489683
 21
6020.187190419585
 31
0.0
  0
LINE
  5
E005
  8
0
 10
-5677.9168624549111
 20
6010.1871904195841
 30
0.0
 11
-5677.9168624549111
 21
6016.1871904195841
 31
0.0
  0
LINE
  5
E006
  8
0
 10
-5677.9168624549111
 20
6016.1871904195841
 30
0.0
 11
-5646.7641664896837
 21
6016.187190419585
 31
0.0
  0
LINE
  5
E007
  8
0
 10
-5677.6891664896848
 20
6016.187190419585
 30
0.0
 11
-5677.6891664896848
 21
6029.1871904195823
 31
0.0
  0
LINE
  5
E008
  8
0
 10
-5646.7641664896846
 20
6010.1871904195823
 30
0.0
 11
-5646.7641664896837
 21
6016.187190419585
 31
0.0
  0
INSERT
  5
E009
  8
025
  6
CONTINUOUS
  2
*X38
 10
0.0
 20
0.0
 30
0.0
1001
ACAD
1000
HATCH
1002
{
1070
    19
1000
ANSI31
1040
1.0
1040
0.0
1000
R14_HATCH_DATA
1000
CCE5
1011
1.0
1021
2.5673651826636406E+151
1031
2.5673651826636406E+151
1021
0.0
1031
0.0
1011
0.0
1021
2.5673651826636406E+151
1031
2.5673651826636406E+151
1021
1.0
1031
0.0
1011
0.0
1021
2.5673651826636406E+151
1031
2.5673651826636406E+151
1021
0.0
1031
1.0
1040
0.0
1010
0.0
1020
0.0
1030
1.0
1000
ANSI31
1070
     0
1070
     0
1071
        2
1071
        7
1070
     0
1070
     1
1071
       10
1040
-5722.1891664896812
1040
6029.1871904195823
1040
-5809.939166489683
1040
6029.1871904195823
1040
-5809.939166489683
1040
6010.1871904195859
1040
-5799.9391664896839
1040
6010.1871904195859
1040
-5799.9391664896848
1040
6020.1871904195841
1040
-5783.939166489683
1040
6020.187190419585
1040
-5783.939166489683
1040
6010.1871904195859
1040
-5753.1141664896813
1040
6010.1871904195859
1040
-5753.1141664896813
1040
6016.1871904195841
1040
-5722.1891664896812
1040
6016.1871904195823
1071
        0
1071
        7
1070
     0
1070
     1
1071
       10
1040
-5589.9391664896839
1040
6029.1871904195823
1040
-5677.6891664896848
1040
6029.1871904195823
1040
-5677.6891664896848
1040
6016.1871904195823
1040
-5646.7641664896837
1040
6016.1871904195841
1040
-5646.7641664896873
1040
6010.1871904195859
1040
-5615.9391664896839
1040
6010.1871904195859
1040
-5615.939166489683
1040
6020.187190419585
1040
-5599.939166489683
1040
6020.187190419585
1040
-5599.939166489683
1040
6010.1871904195859
1040
-5589.9391664896848
1040
6010.1871904195859
1071
        0
1070
     0
1070
     1
1040
0.0
1040
1.0
1070
     0
1070
     1
1040
0.7853981633974483
1040
-2048.634493189285
1040
2209.5186412155849
1040
-2.2450640302672871
1040
2.2450640302672871
1070
     0
1040
0.2469267802879793
1071
        2
1040
-5751.9191029133872
1040
6025.8647081475747
1040
0.0
1040
-5661.2436687200816
1040
6024.6300768666097
1040
0.0
1002
}
  0
DIMENSION
  5
E00A
  8
DIM
  2
*D16
 10
-6006.0951857584269
 20
5894.7087055389493
 30
0.0
 11
-6060.8469924495748
 21
5898.5198094735679
 31
0.0
 70
     1
  1
<> CRS
 13
-6115.6188775766459
 23
5944.8288746799562
 33
0.0
 14
-6006.1188897976717
 24
5944.880608655476
 34
0.0
1001
ACAD
1000
DSTYLE
1002
{
1070
    40
1040
2.0
1070
   271
1070
     2
1002
}
  0
CIRCLE
  5
E00B
  8
0
 10
-6115.6188775766477
 20
5944.8288746799562
 30
0.0
 40
20.99999999999989
  0
CIRCLE
  5
E00C
  8
0
 10
-6115.6188775766477
 20
5944.8288746799562
 30
0.0
 40
27.349999999999891
  0
LINE
  5
E00D
  8
0
 10
-5973.1099168091678
 20
6007.4739842314002
 30
0.0
 11
-6148.6098972220479
 21
6007.391068133642
 31
0.0
1001
ACAD
1000
ASC_BOUNDS
1002
{
1070
    19
1005
D52B
1002
}
  0
LINE
  5
E00E
  8
0
 10
-5973.1099168091678
 20
6007.4739842314002
 30
0.0
 11
-5973.1188934807196
 21
6026.4739821108569
 31
0.0
1001
ACAD
1000
ASC_BOUNDS
1002
{
1070
    19
1005
D52B
1002
}
  0
LINE
  5
E00F
  8
0
 10
-6148.6098972220479
 20
6007.391068133642
 30
0.0
 11
-6148.6188738935998
 21
6026.3910660131014
 31
0.0
1001
ACAD
1000
ASC_BOUNDS
1002
{
1070
    19
1005
D52B
1002
}
  0
LINE
  5
E010
  8
0
 10
-6136.6188775766477
 20
6007.3967333682212
 30
0.0
 11
-6136.6188775766477
 21
6017.4074955393662
 31
0.0
1001
ACAD
1000
ASC_BOUNDS
1002
{
1070
    19
1005
D52B
1002
}
  0
LINE
  5
E011
  8
0
 10
-6094.6188775766477
 20
6007.4165765391281
 30
0.0
 11
-6094.6188775766477
 21
6017.4059286894326
 31
0.0
1001
ACAD
1000
ASC_BOUNDS
1002
{
1070
    19
1005
D52B
1002
}
  0
LINE
  5
E012
  8
0
 10
-6136.6188775766477
 20
6017.4074955393662
 30
0.0
 11
-6142.9688775766481
 21
6017.4044954409064
 31
0.0
1001
ACAD
1000
ASC_BOUNDS
1002
{
1070
    19
1005
D52B
1002
}
  0
LINE
  5
E013
  8
0
 10
-6088.2688775766483
 20
6007.4195766375851
 30
0.0
 11
-6088.2688775766483
 21
6017.4089287878942
 31
0.0
1001
ACAD
1000
ASC_BOUNDS
1002
{
1070
    19
1005
D52B
1002
}
  0
LINE
  5
E014
  8
0
 10
-6142.9688775766481
 20
6007.3937332697597
 30
0.0
 11
-6142.9688775766481
 21
6017.4044954409064
 31
0.0
1001
ACAD
1000
ASC_BOUNDS
1002
{
1070
    19
1005
D52B
1002
}
  0
LINE
  5
E015
  8
0
 10
-6088.2688775766483
 20
6017.4089287878942
 30
0.0
 11
-6094.6188775766477
 21
6017.4059286894326
 31
0.0
1001
ACAD
1000
ASC_BOUNDS
1002
{
1070
    19
1005
D52B
1002
}
  0
LINE
  5
E016
  8
0
 10
-5978.768889797675
 20
6007.3937332697597
 30
0.0
 11
-5978.768889797675
 21
6017.4044954409064
 31
0.0
1001
ACAD
1000
ASC_BOUNDS
1002
{
1070
    19
1005
D52B
1002
}
  0
LINE
  5
E017
  8
0
 10
-5985.1188897976726
 20
6007.3967333682212
 30
0.0
 11
-5985.1188897976726
 21
6017.4074955393662
 31
0.0
1001
ACAD
1000
ASC_BOUNDS
1002
{
1070
    19
1005
D52B
1002
}
  0
LINE
  5
E018
  8
0
 10
-5985.1188897976726
 20
6017.4074955393662
 30
0.0
 11
-5978.768889797675
 21
6017.4044954409064
 31
0.0
1001
ACAD
1000
ASC_BOUNDS
1002
{
1070
    19
1005
D52B
1002
}
  0
LINE
  5
E019
  8
0
 10
-6033.4688897976739
 20
6007.4195766375851
 30
0.0
 11
-6033.4688897976739
 21
6017.4089287878942
 31
0.0
1001
ACAD
1000
ASC_BOUNDS
1002
{
1070
    19
1005
D52B
1002
}
  0
LINE
  5
E01A
  8
0
 10
-6027.1188897976726
 20
6007.4165765391281
 30
0.0
 11
-6027.1188897976726
 21
6017.4059286894326
 31
0.0
1001
ACAD
1000
ASC_BOUNDS
1002
{
1070
    19
1005
D52B
1002
}
  0
LINE
  5
E01B
  8
0
 10
-6033.4688897976739
 20
6017.4089287878942
 30
0.0
 11
-6027.1188897976726
 21
6017.4059286894326
 31
0.0
1001
ACAD
1000
ASC_BOUNDS
1002
{
1070
    19
1005
D52B
1002
}
  0
ARC
  5
E01C
  8
0
 10
-6115.6188775766477
 20
5944.8288746799562
 30
0.0
 40
32.999999999999901
 50
90.0
 51
270.0
  0
ARC
  5
E01D
  8
0
 10
-6006.1188775766477
 20
5944.8288746799562
 30
0.0
 40
32.999999999999901
 50
270.0
 51
90.0
  0
CIRCLE
  5
E01E
  8
0
 10
-6006.1188775766477
 20
5944.8288746799562
 30
0.0
 40
27.349999999999891
  0
CIRCLE
  5
E01F
  8
0
 10
-6006.1188775766477
 20
5944.8288746799562
 30
0.0
 40
20.99999999999989
  0
LINE
  5
E020
  8
0
 10
-6006.1188775766477
 20
5977.8288746799544
 30
0.0
 11
-6115.6188775766477
 21
5977.8288746799544
 31
0.0
  0
LINE
  5
E021
  8
0
 10
-6115.6188775766477
 20
5911.8288746799544
 30
0.0
 11
-6006.1188775766477
 21
5911.8288746799544
 31
0.0
  0
DIMENSION
  5
E022
  8
DIM
  2
*D17
 10
-6184.3013905825474
 20
5911.8288746799562
 30
0.0
 11
-6188.104255521157
 21
5944.8288746799553
 31
0.0
 13
-6115.6188775766477
 23
5977.8288746799544
 33
0.0
 14
-6115.6188775766477
 24
5911.8288746799544
 34
0.0
 50
90.0
1001
ACAD
1000
DSTYLE
1002
{
1070
    40
1040
2.0
1070
   271
1070
     3
1002
}
  0
DIMENSION
  5
E023
  8
DIM
  2
*D18
 10
-5973.1188775766477
 20
5881.0556935468476
 30
0.0
 11
-6060.8688775766477
 21
5884.8585584854582
 31
0.0
 13
-6148.6188775766477
 23
5944.8288746799562
 33
0.0
 14
-5973.1188775766477
 24
5944.8288746799562
 34
0.0
1001
ACAD
1000
DSTYLE
1002
{
1070
    40
1040
2.0
1002
}
  0
LINE
  5
E024
  8
0
 10
-5973.1188934807196
 20
6026.4739821108569
 30
0.0
 11
-6148.6188738935998
 21
6026.3910660131014
 31
0.0
1001
ACAD
1000
ASC_BOUNDS
1002
{
1070
    19
1005
D52B
1002
}
  0
INSERT
  5
E025
  8
025
  6
CONTINUOUS
  2
*X39
 10
0.0
 20
0.0
 30
0.0
1001
ACAD
1000
HATCH
1002
{
1070
    19
1000
ANSI31
1040
1.0
1040
0.0
1000
ASC_BOUNDS
1070
     1
1070
     1
1070
    16
1005
D4C5
1005
D4BD
1005
D4C1
1005
D4B8
1005
D4B7
1005
D4BB
1005
D4BE
1005
D4B4
1005
D511
1005
D4B3
1005
D4C2
1005
D4C4
1005
D4C3
1005
D4B2
1005
D4C6
1005
D4C7
1000
ASC_SEEDPOINT
1011
-6061.3257024878812
1021
2.5673651826636406E+151
1031
2.5673651826636406E+151
1021
6015.7246746513883
1031
0.0
1000
R14_HATCH_DATA
1000
D52B
1011
1.0
1021
2.5673651826636406E+151
1031
2.5673651826636406E+151
1021
0.0
1031
0.0
1011
0.0
1021
2.5673651826636406E+151
1031
2.5673651826636406E+151
1021
1.0
1031
0.0
1011
0.0
1021
2.5673651826636406E+151
1031
2.5673651826636406E+151
1021
0.0
1031
1.0
1040
0.0
1010
0.0
1020
0.0
1030
1.0
1000
ANSI31
1070
     0
1070
     1
1071
        1
1071
        7
1070
     0
1070
     1
1071
       20
1040
-6033.4688897976739
1040
6007.445467245283
1040
-6033.468889797673
1040
6017.4089287878942
1040
-6027.1188897976726
1040
6017.4059286894326
1040
-6027.1188897976726
1040
6007.4484673437437
1040
-5985.1188897976708
1040
6007.4683105146496
1040
-5985.1188897976726
1040
6017.4074955393662
1040
-5978.7688897976723
1040
6017.4044954409064
1040
-5978.768889797675
1040
6007.4713106131112
1040
-5973.1099168091678
1040
6007.4739842313993
1040
-5973.1188934807187
1040
6026.4739821108569
1040
-6148.6188738935998
1040
6026.3910660131014
1040
-6148.6098972220479
1040
6007.391068133642
1040
-6142.968877576649
1040
6007.3937332697597
1040
-6142.9688775766481
1040
6017.4044954409046
1040
-6136.6188775766477
1040
6017.4074955393662
1040
-6136.6188775766477
1040
6007.3967333682212
1040
-6094.6188775766477
1040
6007.4165765391299
1040
-6094.6188775766477
1040
6017.4059286894326
1040
-6088.2688775766483
1040
6017.4089287878942
1040
-6088.2688775766483
1040
6007.4195766375851
1071
       16
1005
D4C7
1005
D4C6
1005
D4B2
1005
D4C3
1005
D4C4
1005
D4C2
1005
D4B3
1005
D511
1005
D4B4
1005
D4BE
1005
D4BB
1005
D4B7
1005
D4B8
1005
D4C1
1005
D4BD
1005
D4C5
1070
     0
1070
     1
1040
0.0
1040
1.0
1070
     0
1070
     1
1040
0.7853981633974483
1040
0.0
1040
0.0
1040
-2.2450640302672871
1040
2.2450640302672871
1070
     0
1040
0.3547533400866765
1071
        1
1040
-6061.3257024878812
1040
6015.7246746513883
1040
0.0
1002
}
  0
LINE
  5
E026
  8
CL
 10
-6115.6188775766477
 20
6001.1797847422285
 30
0.0
 11
-6115.6188775766477
 21
6032.752833531973
 31
0.0
  0
LINE
  5
E027
  8
CL
 10
-6006.1188775766477
 20
6001.1797847422285
 30
0.0
 11
-6006.1188775766477
 21
6032.752833531973
 31
0.0
  0
LINE
  5
E028
  8
CL
 10
-6060.9188775766479
 20
6001.1797847422285
 30
0.0
 11
-6060.9188775766479
 21
6032.752833531973
 31
0.0
  0
LINE
  5
E029
  8
CL
 10
-6060.9188775766479
 20
5907.8796507291154
 30
0.0
 11
-6060.9188775766479
 21
5981.3136011494007
 31
0.0
  0
DIMENSION
  5
E02A
  8
DIM
  2
*D19
 10
-6168.5242293443744
 20
5965.8288723361984
 30
0.0
 11
-6172.4669305722045
 21
5944.8288746799562
 31
0.0
  1
%%c<>.0
 13
-6115.6089559923003
 23
5923.828877023715
 33
0.0
 14
-6115.6287991609961
 24
5965.8288723361984
 34
0.0
 50
90.0
1001
ACAD
1000
DSTYLE
1002
{
1070
    40
1040
2.0
1002
}
  0
DIMENSION
  5
E02B
  8
DIM
  2
*D21
 10
-6168.4102693932145
 20
6017.4044954409064
 30
0.0
 11
-6172.2131343318233
 21
6012.3977817872728
 31
0.0
 13
-6148.6098972220479
 23
6007.391068133642
 33
0.0
 14
-6142.9688775766481
 24
6017.4044954409064
 34
0.0
 50
90.0
1001
ACAD
1000
DSTYLE
1002
{
1070
    40
1040
2.0
1002
}
  0
DIMENSION
  5
E02C
  8
DIM
  2
*D22
 10
-6168.5242293443744
 20
5917.4788777324229
 30
0.0
 11
-6173.0518555380977
 21
5900.6865857815346
 31
0.0
  1
(<>)
 13
-6115.618878506968
 23
5923.8288746799553
 33
0.0
 14
-6115.6059558941761
 24
5917.478877732422
 34
0.0
 50
90.0
1001
ACAD
1000
DSTYLE
1002
{
1070
    40
1040
2.0
1002
}
  0
DIMENSION
  5
E02D
  8
DIM
  2
*D23
 10
-6185.6839227900136
 20
6007.391068133642
 30
0.0
 11
-6189.4867877286224
 21
6016.8910670733703
 31
0.0
 13
-6148.6188738935998
 23
6026.3910660131014
 33
0.0
 14
-6148.6098972220479
 24
6007.391068133642
 34
0.0
 50
90.0
1001
ACAD
1000
DSTYLE
1002
{
1070
    40
1040
2.0
1002
}
  0
TEXT
  5
E02E
  8
DIM
 10
-6011.6502230996521
 20
5966.6770286939436
 30
0.0
 40
3.5
  1
10 DEEP
  0
INSERT
  5
E030
  8
DIM
 66
     1
  2
TITLE1
 10
-6266.2911239006853
 20
5551.2759704418386
 30
0.0
 41
2.0
 42
2.0
 43
2.0
  0
ATTRIB
  5
E031
  8
0
 62
     2
 10
-5711.1355609818647
 20
5601.4298347441454
 30
0.0
 40
7.0
  1
BC3 UNIMOLD PARTS
 72
     4
 11
-5669.2573208727244
 21
5604.932222192986
 31
0.0
  2
TITLE
 70
     0
  0
ATTRIB
  5
E032
  8
0
 62
     7
 10
-5514.0619983946608
 20
5569.9107889288198
 30
0.0
 40
10.0
  1
106
 72
     4
 11
-5504.5053817507323
 21
5574.8459867460097
 31
0.0
  2
NUMBER
 70
     0
  0
ATTRIB
  5
E033
  8
0
 62
     7
 10
-6231.1297835145406
 20
6106.0987327564362
 30
0.0
 40
10.0
  1
106
 72
     4
 11
-6221.5731668706112
 21
6111.0339305736261
 31
0.0
  2
NUMBER
 70
     0
  0
ATTRIB
  5
E034
  8
0
 62
     2
 10
-5496.4116645409058
 20
6110.6041897823561
 30
0.0
 40
7.0
  1
 -
 72
     4
 11
-5493.9621420306748
 21
6111.0339305736261
 31
0.0
  2
FRAME
 70
     0
  0
ATTRIB
  5
E035
  8
0
 62
     8
 10
-5712.5952137754721
 20
5564.3891565390213
 30
0.0
 40
5.0
  1
3/4/03
  2
DATE
 70
     0
  0
ATTRIB
  5
E036
  8
0
 62
     8
 10
-5774.9499769650529
 20
5564.3891565390213
 30
0.0
 40
5.0
  1
1 : 2
  2
SCALE
 70
     0
  0
ATTRIB
  5
E037
  8
0
 62
     8
 10
-5775.0076017517986
 20
5579.5629802486819
 30
0.0
 40
5.0
  1
BIKE CHAMELEON
  2
CUST
 70
     0
  0
ATTRIB
  5
E038
  8
0
 62
     8
 10
-5662.7201246891891
 20
5564.714257730614
 30
0.0
 40
5.0
  1
S.S.NURSE
 72
     4
 11
-5647.2869732567187
 21
5567.2159630512142
 31
0.0
  2
NAME
 70
     0
  0
ATTRIB
  5
E039
  8
0
 62
     4
 10
-5605.020936269304
 20
5567.2159630512142
 30
0.0
 40
5.0
  1

 72
     4
 11
-5605.020936269304
 21
5567.2159630512142
 31
0.0
  2
CHECKER
 70
     0
  0
ATTRIB
  5
E03A
  8
0
 62
     4
 10
-5578.908343238938
 20
5564.3891565390213
 30
0.0
 40
5.0
  1

  2
CHK-DATE
 70
     0
  0
ATTRIB
  5
E03B
  8
0
 62
     8
 10
-5661.9967442462803
 20
5579.5629802486819
 30
0.0
 40
5.0
  1
19mm WHITE UNIMOLD
  2
MATL
 70
     0
  0
ATTRIB
  5
E03C
  8
0
 62
     8
 10
-5578.1235196653697
 20
5579.5629802486819
 30
0.0
 40
5.0
  1
-
  2
WT
 70
     0
  0
ATTRIB
  5
E03D
  8
0
 62
     8
 10
-5536.5638384315489
 20
5607.5995278371911
 30
0.0
 40
5.0
  1
-
  2
GRP
 70
     0
  0
ATTRIB
  5
E03E
  8
0
 62
     8
 10
-5507.7227721919389
 20
5607.3260755795018
 30
0.0
 40
5.0
  1
-
  2
PRT
 70
     0
  0
ATTRIB
  5
E03F
  8
0
 62
     8
 10
-5509.3716599046493
 20
5597.2424642371398
 30
0.0
 40
5.0
  1
-
 72
     4
 11
-5508.4183856890968
 21
5597.5511272657895
 31
0.0
  2
FAM
 70
     0
  0
ATTRIB
  5
E040
  8
0
 62
     8
 10
-5820.412020275453
 20
5571.6888607495848
 30
0.0
 40
5.0
  1
0.3
  2
LIN-TOL
 70
     0
  0
ATTRIB
  5
E041
  8
0
 62
     8
 10
-5820.412020275453
 20
5564.8918936469863
 30
0.0
 40
5.0
  1
1
  2
ANG-TOL
 70
     0
  0
SEQEND
  5
E042
  8
DIM
  0
INSERT
  5
E043
  8
DIM
 66
     1
  2
ISS2
 10
-6256.0434256549852
 20
5578.6804066308396
 30
0.0
 41
2.0
 42
2.0
 43
2.0
  0
ATTRIB
  5
E044
  8
DIM
 62
     1
 10
-6250.1079882767244
 20
5583.0380353084056
 30
0.0
 40
5.0
  1
A
 72
     4
 11
-6248.1946185632178
 21
5585.5380353084056
 31
0.0
  2
ISSUE
 70
     0
  0
ATTRIB
  5
E045
  8
DIM
 62
     1
 10
-6210.3730959872637
 20
5583.0363299878054
 30
0.0
 40
5.0
  1
ORIGINAL ISSUE
 72
     4
 11
-6187.2966976243724
 21
5585.5380353084056
 31
0.0
  2
ALT
 70
     0
  0
ATTRIB
  5
E046
  8
DIM
 62
     1
 10
-6128.9544720643853
 20
5583.0380353084056
 30
0.0
 40
5.0
  1
27/3/02
 72
     4
 11
-6119.397855420455
 21
5585.5380353084056
 31
0.0
  2
DATE
 70
     0
  0
ATTRIB
  5
E047
  8
DIM
 62
     1
 10
-6052.8439419943043
 20
5585.2293722797558
 30
0.0
 40
5.0
  1
-
 72
     4
 11
-6051.8906677787509
 21
5585.5380353084056
 31
0.0
  2
CR
 70
     0
  0
ATTRIB
  5
E048
  8
DIM
 62
     1
 10
-6099.4571804088273
 20
5583.0574942870217
 30
0.0
 40
5.0
  1
SSN
  2
DRN
 70
     0
  0
ATTRIB
  5
E049
  8
DIM
 62
     4
 10
-6080.3574612770781
 20
5583.0574942870217
 30
0.0
 40
5.0
  1

  2
CHB
 70
     8
  0
SEQEND
  5
E04A
  8
DIM
  0
LINE
  5
E04B
  8
0
 10
-6082.6278432030576
 20
5803.211949694658
 30
0.0
 11
-6148.6098972220479
 21
5803.1807760476404
 31
0.0
1001
ACAD
1000
ASC_BOUNDS
1002
{
1070
    19
1005
D80E
1005
D80E
1002
}
  0
LINE
  5
E04C
  8
0
 10
-6082.6188665274958
 20
5822.2119560562933
 30
0.0
 11
-6148.6188738935998
 21
5822.1807739270971
 31
0.0
1001
ACAD
1000
ASC_BOUNDS
1002
{
1070
    19
1005
D80E
1005
D80E
1002
}
  0
DIMENSION
  5
E04D
  8
DIM
  2
*D27
 10
-6168.4102693932145
 20
5813.194203354903
 30
0.0
 11
-6172.2131343318233
 21
5808.1874897012694
 31
0.0
 13
-6148.6098972220479
 23
5803.1807760476404
 33
0.0
 14
-6142.9688775766481
 24
5813.1942033549021
 34
0.0
 50
90.0
1001
ACAD
1000
DSTYLE
1002
{
1070
    40
1040
2.0
1002
}
  0
LINE
  5
E04E
  8
CL
 10
-6115.6188775766477
 20
5796.9694926562252
 30
0.0
 11
-6115.6188775766477
 21
5828.5425414459687
 31
0.0
1001
ACAD
1000
ASC_BOUNDS
1002
{
1070
    19
1005
D80E
1005
D80E
1002
}
  0
DIMENSION
  5
E04F
  8
DIM
  2
*D24
 10
-6184.3013905825474
 20
5718.7309707242248
 30
0.0
 11
-6188.104255521157
 21
5751.7309707242221
 31
0.0
 13
-6115.6188775766477
 23
5784.7309707242239
 33
0.0
 14
-6115.6188775766477
 24
5718.7309707242239
 34
0.0
 50
90.0
1001
ACAD
1000
DSTYLE
1002
{
1070
    40
1040
2.0
1070
   271
1070
     3
1002
}
  0
ARC
  5
E050
  8
0
 10
-6115.6188775766477
 20
5751.7309707242239
 30
0.0
 40
32.999999999999901
 50
90.0
 51
270.0
  0
CIRCLE
  5
E051
  8
0
 10
-6115.6188775766477
 20
5751.7309707242239
 30
0.0
 40
27.349999999999891
  0
DIMENSION
  5
E052
  8
DIM
  2
*D28
 10
-6168.5242293443744
 20
5724.3809737766933
 30
0.0
 11
-6173.0518555380977
 21
5707.5886818258041
 31
0.0
  1
(<>)
 13
-6115.618878506968
 23
5730.7309707242221
 33
0.0
 14
-6115.6059558941761
 24
5724.3809737766887
 34
0.0
 50
90.0
1001
ACAD
1000
DSTYLE
1002
{
1070
    40
1040
2.0
1002
}
  0
DIMENSION
  5
E053
  8
DIM
  2
*D25
 10
-6168.5242293443744
 20
5772.730968380466
 30
0.0
 11
-6172.4669305722045
 21
5751.7309707242239
 31
0.0
  1
%%c<>.0
 13
-6115.6089559923003
 23
5730.7309730679817
 33
0.0
 14
-6115.6287991609961
 24
5772.730968380466
 34
0.0
 50
90.0
1001
ACAD
1000
DSTYLE
1002
{
1070
    40
1040
2.0
1002
}
  0
CIRCLE
  5
E054
  8
0
 10
-6115.6188775766477
 20
5751.7309707242239
 30
0.0
 40
20.99999999999989
  0
DIMENSION
  5
E055
  8
DIM
  2
*D29
 10
-6185.6839227900136
 20
5803.1807760476404
 30
0.0
 11
-6189.4867877286224
 21
5812.6807749873669
 31
0.0
 13
-6148.6188738935998
 23
5822.1807739270971
 33
0.0
 14
-6148.6098972220479
 24
5803.1807760476404
 34
0.0
 50
90.0
1001
ACAD
1000
DSTYLE
1002
{
1070
    40
1040
2.0
1002
}
  0
LINE
  5
E056
  8
0
 10
-6088.2688775766483
 20
5813.1986367018881
 30
0.0
 11
-6094.6188775766477
 21
5813.1956366034301
 31
0.0
1001
ACAD
1000
ASC_BOUNDS
1002
{
1070
    19
1005
D80E
1002
}
  0
LINE
  5
E057
  8
0
 10
-6136.6188775766477
 20
5813.197203453361
 30
0.0
 11
-6142.9688775766481
 21
5813.1942033549021
 31
0.0
1001
ACAD
1000
ASC_BOUNDS
1002
{
1070
    19
1005
D80E
1002
}
  0
LINE
  5
E058
  8
0
 10
-6148.6098972220479
 20
5803.1807760476404
 30
0.0
 11
-6148.6188738935998
 21
5822.1807739270971
 31
0.0
1001
ACAD
1000
ASC_BOUNDS
1002
{
1070
    19
1005
D80E
1002
}
  0
LINE
  5
E059
  8
0
 10
-6142.9688775766481
 20
5803.1834411837572
 30
0.0
 11
-6142.9688775766481
 21
5813.1942033549021
 31
0.0
1001
ACAD
1000
ASC_BOUNDS
1002
{
1070
    19
1005
D80E
1002
}
  0
LINE
  5
E05A
  8
0
 10
-6136.6188775766477
 20
5803.1864412822151
 30
0.0
 11
-6136.6188775766477
 21
5813.197203453361
 31
0.0
1001
ACAD
1000
ASC_BOUNDS
1002
{
1070
    19
1005
D80E
1002
}
  0
LINE
  5
E05B
  8
0
 10
-6094.6188775766477
 20
5803.2062844531247
 30
0.0
 11
-6094.6188775766477
 21
5813.1956366034301
 31
0.0
1001
ACAD
1000
ASC_BOUNDS
1002
{
1070
    19
1005
D80E
1002
}
  0
LINE
  5
E05C
  8
0
 10
-6088.2688775766483
 20
5803.2092845515826
 30
0.0
 11
-6088.2688775766483
 21
5813.1986367018881
 31
0.0
1001
ACAD
1000
ASC_BOUNDS
1002
{
1070
    19
1005
D80E
1002
}
  0
ARC
  5
E05D
  8
0
 10
-6115.6188775766477
 20
5751.7309707242239
 30
0.0
 40
32.999999999999901
 50
270.0
 51
90.0
  0
LINE
  5
E05E
  8
0
 10
-6082.6278432030576
 20
5803.211949694658
 30
0.0
 11
-6082.6188665274958
 21
5822.2119560562933
 31
0.0
1001
ACAD
1000
ASC_BOUNDS
1002
{
1070
    19
1005
D80E
1002
}
  0
INSERT
  5
E05F
  8
025
  6
CONTINUOUS
  2
*X40
 10
0.0
 20
0.0
 30
0.0
1001
ACAD
1000
HATCH
1002
{
1070
    19
1000
ANSI31
1040
1.0
1040
0.0
1000
ASC_BOUNDS
1070
     2
1070
     1
1070
     7
1005
D73F
1005
D74B
1005
D748
1005
D74A
1005
D739
1005
D749
1005
D73A
1070
     1
1070
     7
1005
D74C
1005
D73F
1005
D73A
1005
D7F8
1005
D739
1005
D74D
1005
D747
1000
ASC_SEEDPOINT
1011
-6102.2389793531283
1021
2.5673651826636406E+151
1031
2.5673651826636406E+151
1021
5813.0186020635574
1031
0.0
1000
R14_HATCH_DATA
1000
D80E
1011
1.0
1021
2.5673651826636406E+151
1031
2.5673651826636406E+151
1021
0.0
1031
0.0
1011
0.0
1021
2.5673651826636406E+151
1031
2.5673651826636406E+151
1021
1.0
1031
0.0
1011
0.0
1021
2.5673651826636406E+151
1031
2.5673651826636406E+151
1021
0.0
1031
1.0
1040
0.0
1010
0.0
1020
0.0
1030
1.0
1000
ANSI31
1070
     0
1070
     1
1071
        2
1071
        7
1070
     0
1070
     1
1071
        8
1040
-6094.6188775765713
1040
5813.1956366034301
1040
-6088.2688775766483
1040
5813.1986367018881
1040
-6088.2688775766483
1040
5803.2092845515826
1040
-6082.6278432030576
1040
5803.2119496946589
1040
-6082.6188665274958
1040
5822.2119560562933
1040
-6115.6188775766477
1040
5822.1963649882118
1040
-6115.6188775766477
1040
5803.1963628676713
1040
-6094.6188775766504
1040
5803.2062844531247
1071
        7
1005
D747
1005
D74D
1005
D739
1005
D7F8
1005
D73A
1005
D73F
1005
D74C
1071
        7
1070
     0
1070
     1
1071
        8
1040
-6115.6188775766477
1040
5822.1963649882118
1040
-6148.6188738935998
1040
5822.1807739270962
1040
-6148.6098972220479
1040
5803.1807760476386
1040
-6142.9688775766481
1040
5803.1834411837563
1040
-6142.9688775766472
1040
5813.1942033549021
1040
-6136.6188775766486
1040
5813.197203453361
1040
-6136.6188775766477
1040
5803.1864412822179
1040
-6115.6188775766477
1040
5803.1963628676713
1071
        7
1005
D73A
1005
D749
1005
D739
1005
D74A
1005
D748
1005
D74B
1005
D73F
1070
     0
1070
     1
1040
0.0
1040
1.0
1070
     0
1070
     1
1040
0.7853981633974483
1040
0.0
1040
-11.112388130271921
1040
-2.2450640302672871
1040
2.2450640302672871
1070
     0
1040
0.2503590145832077
1071
        2
1040
-6102.2389793531283
1040
5813.0186020635574
1040
0.0
1040
-6122.0289740714688
1040
5812.5178814924438
1040
0.0
1002
}
  0
LINE
  5
E060
  8
0
 10
-5720.442275857904
 20
5728.6075785089279
 30
0.0
 11
-5720.442275857904
 21
5707.0437198560812
 31
0.0
  0
ARC
  5
E061
  8
0
 10
-5712.4422758579049
 20
5707.0437198560812
 30
0.0
 40
8.0
 50
205.94447977237149
 51
154.05552022763121
  0
ARC
  5
E062
  8
0
 10
-5712.4422758579049
 20
5707.0437198560812
 30
0.0
 40
18.0
 50
288.14554401101452
 51
71.854455988986402
  0
LINE
  5
E063
  8
0
 10
-5720.442275857904
 20
5728.6075785089279
 30
0.0
 11
-5706.83650184419
 21
5724.1485524395102
 31
0.0
  0
LINE
  5
E064
  8
0
 10
-5720.442275857904
 20
5685.4798612032328
 30
0.0
 11
-5706.83650184419
 21
5689.9388872726504
 31
0.0
  0
LINE
  5
E065
  8
025
 62
     5
 10
-5791.939166489683
 20
5906.9502316615244
 30
0.0
 11
-5816.9096804611863
 21
5906.9502316615244
 31
0.0
  0
LINE
  5
E066
  8
025
 62
     5
 10
-5791.939166489683
 20
5906.9502316615244
 30
0.0
 11
-5753.1141664896841
 21
5892.7002316615253
 31
0.0
  0
LINE
  5
E067
  8
025
 62
     5
 10
-5753.1141664896841
 20
5892.7002316615253
 30
0.0
 11
-5646.764166489681
 21
5892.7002316615253
 31
0.0
  0
LINE
  5
E068
  8
025
 62
     5
 10
-5646.764166489681
 20
5892.7002316615253
 30
0.0
 11
-5607.939166489683
 21
5906.9502316615244
 31
0.0
  0
LINE
  5
E069
  8
025
 62
     5
 10
-5607.939166489683
 20
5906.9502316615244
 30
0.0
 11
-5583.527438559011
 21
5906.9502316615244
 31
0.0
  0
TEXT
  5
E06A
  8
DIM
 10
-5816.7829178440788
 20
5908.8332771822597
 30
0.0
 40
5.0
  1
A
  0
TEXT
  5
E06B
  8
DIM
 10
-5587.6485501745101
 20
5908.8332771822597
 30
0.0
 40
5.0
  1
A
  0
TEXT
  5
E06C
  8
DIM
 10
-5771.313162511733
 20
6000.6091089121983
 30
0.0
 40
5.0
  1
SECTION AA
  0
LINE
  5
E06D
  8
0
 10
-5694.442275857904
 20
5748.5937646580433
 30
0.0
 11
-5720.442275857904
 21
5748.5937646580433
 31
0.0
1001
ACAD
1000
ASC_BOUNDS
1002
{
1070
    19
1005
DA3C
1002
}
  0
LINE
  5
E06E
  8
0
 10
-5694.4422758579049
 20
5767.5937646580423
 30
0.0
 11
-5720.442275857904
 21
5767.5937646580423
 31
0.0
1001
ACAD
1000
ASC_BOUNDS
1002
{
1070
    19
1005
DA3C
1002
}
  0
LINE
  5
E06F
  8
0
 10
-5704.4422758579067
 20
5752.5937646580396
 30
0.0
 11
-5720.442275857904
 21
5752.5937646580423
 31
0.0
1001
ACAD
1000
ASC_BOUNDS
1002
{
1070
    19
1005
DA3C
1002
}
  0
LINE
  5
E070
  8
025
 62
     5
 10
-5685.9735534831552
 20
5707.0437198560812
 30
0.0
 11
-5733.6662087115474
 21
5707.0437198560812
 31
0.0
  0
LINE
  5
E071
  8
0
 10
-5719.6360231428725
 20
5710.5437198560803
 30
0.0
 11
-5720.4422758579049
 21
5710.5437198560803
 31
0.0
  0
LINE
  5
E072
  8
0
 10
-5719.6360231428725
 20
5703.5437198560821
 30
0.0
 11
-5720.442275857904
 21
5703.5437198560821
 31
0.0
  0
LINE
  5
E073
  8
0
 10
-5720.442275857904
 20
5707.0437198560812
 30
0.0
 11
-5720.442275857904
 21
5685.4798612032328
 31
0.0
  0
LINE
  5
E074
  8
0
 10
-5720.442275857904
 20
5748.5937646580433
 30
0.0
 11
-5720.442275857904
 21
5767.5937646580423
 31
0.0
1001
ACAD
1000
ASC_BOUNDS
1002
{
1070
    19
1005
DA3C
1002
}
  0
LINE
  5
E075
  8
0
 10
-5694.442275857904
 20
5748.5937646580433
 30
0.0
 11
-5694.4422758579049
 21
5767.5937646580423
 31
0.0
1001
ACAD
1000
ASC_BOUNDS
1002
{
1070
    19
1005
DA3C
1002
}
  0
LINE
  5
E076
  8
0
 10
-5704.4422758579067
 20
5752.5937646580396
 30
0.0
 11
-5704.4422758579067
 21
5767.5937646580423
 31
0.0
1001
ACAD
1000
ASC_BOUNDS
1002
{
1070
    19
1005
DA3C
1002
}
  0
INSERT
  5
E077
  8
025
  6
CONTINUOUS
  2
*X41
 10
0.0
 20
0.0
 30
0.0
1001
ACAD
1000
HATCH
1002
{
1070
    19
1000
ANSI31
1040
1.0
1040
0.0
1000
ASC_BOUNDS
1070
     1
1070
     1
1070
     6
1005
DA33
1005
DA2B
1005
DA32
1005
DA2D
1005
DA34
1005
DA2C
1000
ASC_SEEDPOINT
1011
-5698.3462786289529
1021
2.5673651826636406E+151
1031
2.5673651826636406E+151
1021
5758.6134761730509
1031
0.0
1000
R14_HATCH_DATA
1000
DA3C
1011
1.0
1021
2.5673651826636406E+151
1031
2.5673651826636406E+151
1021
0.0
1031
0.0
1011
0.0
1021
2.5673651826636406E+151
1031
2.5673651826636406E+151
1021
1.0
1031
0.0
1011
0.0
1021
2.5673651826636406E+151
1031
2.5673651826636406E+151
1021
0.0
1031
1.0
1040
0.0
1010
0.0
1020
0.0
1030
1.0
1000
ANSI31
1070
     0
1070
     1
1071
        1
1071
        7
1070
     0
1070
     1
1071
        6
1040
-5694.4422758579049
1040
5767.5937646580423
1040
-5704.4422758579067
1040
5767.5937646580423
1040
-5704.4422758579067
1040
5752.5937646580396
1040
-5720.4422758579021
1040
5752.5937646580396
1040
-5720.4422758579021
1040
5748.5937646580387
1040
-5694.442275857904
1040
5748.5937646580433
1071
        6
1005
DA2C
1005
DA34
1005
DA2D
1005
DA32
1005
DA2B
1005
DA33
1070
     0
1070
     1
1040
0.0
1040
1.0
1070
     0
1070
     1
1040
0.7853981633974483
1040
0.0
1040
0.0
1040
-2.2450640302672871
1040
2.2450640302672871
1070
     0
1040
0.196831309691466
1071
        1
1040
-5698.3462786289529
1040
5758.6134761730509
1040
0.0
1002
}
  0
TEXT
  5
E078
  8
DIM
 10
-5723.0834619937696
 20
5740.722840202995
 30
0.0
 40
5.0
  1
SECTION BB
  0
DIMENSION
  5
E079
  8
DIM
  2
*D30
 10
-5757.8411948726571
 20
5685.4798612032328
 30
0.0
 11
-5761.6440598112658
 21
5707.0437198560812
 31
0.0
 13
-5720.442275857904
 23
5728.6075785089279
 33
0.0
 14
-5720.442275857904
 24
5685.4798612032328
 34
0.0
 50
90.0
1001
ACAD
1000
DSTYLE
1002
{
1070
    40
1040
2.0
1002
}
  0
DIMENSION
  5
E07A
  8
DIM
  2
*D31
 10
-5694.4422758579049
 20
5665.662788799219
 30
0.0
 11
-5707.442275857903
 21
5669.4656537378278
 31
0.0
 13
-5720.442275857904
 23
5685.4798612032328
 33
0.0
 14
-5694.4422758579049
 24
5707.0437198560812
 34
0.0
1001
ACAD
1000
DSTYLE
1002
{
1070
    40
1040
2.0
1002
}
  0
DIMENSION
  5
E07B
  8
DIM
  2
*D32
 10
-5718.2010068787122
 20
5701.4906110844131
 30
0.0
 11
-5691.9763887552563
 21
5726.7788484424163
 31
0.0
 70
   131
 15
-5706.6835448370994
 25
5712.5968286277503
 35
0.0
 40
0.0
1001
ACAD
1000
DSTYLE
1002
{
1070
    40
1040
2.0
1070
   288
1070
     1
1002
}
  0
DIMENSION
  5
E07C
  8
DIM
  2
*D33
 10
-5728.6824703520451
 20
5699.2812406907296
 30
0.0
 11
-5681.400782379983
 21
5721.8809157080614
 31
0.0
 70
     3
 15
-5696.2020813637646
 25
5714.8061990214328
 35
0.0
 40
0.0
1001
ACAD
1000
DSTYLE
1002
{
1070
    40
1040
2.0
1070
   288
1070
     1
1002
}
  0
DIMENSION
  5
E07D
  8
DIM
  2
*D34
 10
-5748.5257804343692
 20
5703.5437198560821
 30
0.0
 11
-5752.2757804343701
 21
5707.0437198560812
 31
0.0
 13
-5720.4422758579049
 23
5710.5437198560803
 33
0.0
 14
-5720.442275857913
 24
5703.5437198560821
 34
0.0
 50
90.0
1001
ACAD
1000
DSTYLE
1002
{
1070
    40
1040
2.0
1002
}
  0
DIMENSION
  5
E07E
  8
DIM
  2
*D35
 10
-5757.1478103028512
 20
5767.5937646580423
 30
0.0
 11
-5760.9506752414609
 21
5758.0937646580423
 31
0.0
 13
-5720.442275857904
 23
5748.5937646580433
 33
0.0
 14
-5720.442275857904
 24
5767.5937646580423
 34
0.0
 50
90.0
1001
ACAD
1000
DSTYLE
1002
{
1070
    40
1040
2.0
1002
}
  0
DIMENSION
  5
E07F
  8
DIM
  2
*D36
 10
-5743.1639295245977
 20
5752.5937646580423
 30
0.0
 11
-5746.9667944632083
 21
5760.0937646580433
 31
0.0
 13
-5720.442275857904
 23
5767.5937646580423
 33
0.0
 14
-5720.442275857904
 24
5752.5937646580423
 34
0.0
 50
90.0
1001
ACAD
1000
DSTYLE
1002
{
1070
    40
1040
2.0
1002
}
  0
DIMENSION
  5
E080
  8
DIM
  2
*D37
 10
-5712.4422758579049
 20
5676.7649337236853
 30
0.0
 11
-5716.442275857904
 21
5680.5677986622923
 31
0.0
 13
-5720.442275857904
 23
5685.4798612032328
 33
0.0
 14
-5712.4422758579049
 24
5707.0437198560812
 34
0.0
1001
ACAD
1000
DSTYLE
1002
{
1070
    40
1040
2.0
1002
}
  0
TEXT
  5
E081
  8
DIM
 10
-5689.232454613657
 20
5708.9294819965353
 30
0.0
 40
5.0
  1
B
  0
TEXT
  5
E082
  8
DIM
 10
-5735.5462561930872
 20
5712.3865750011391
 30
0.0
 40
5.0
  1
B
  0
TEXT
  5
E083
  8
DIM
 10
-6115.9078279213472
 20
5860.9048052303588
 30
0.0
 40
10.0
  1
BAR END 1, 12 REQ
  0
TEXT
  5
E084
  8
DIM
 10
-6137.1118028882547
 20
5692.3358971697553
 30
0.0
 40
10.0
  1
BAR END 2, 12 REQ
  0
TEXT
  5
E085
  8
DIM
 10
-5755.4742344583374
 20
5811.7790082244546
 30
0.0
 40
10.0
  1
RACK END , 24 REQ
  0
TEXT
  5
E086
  8
DIM
 10
-5774.0391118506632
 20
5644.0934345518954
 30
0.0
 40
10.0
  1
SEAT SUPPORT , 24 REQ
  0
TEXT
  5
E087
  8
DIM
 10
-6119.8348194438113
 20
5773.6502445851038
 30
0.0
 40
3.5
  1
10 DEEP
  0
INSERT
  5
E090
  8
DIM
  2
MET-A3
 10
-6266.742319921339
 20
5552.7953676118386
 30
0.0
 41
2.0
 42
2.0
 43
2.0
  0
ENDSEC
  0
EOF
