<?xml version="1.0" encoding="UTF-8" standalone="no"?>
<!-- Created with Inkscape (http://www.inkscape.org/) -->

<svg
   xmlns:dc="http://purl.org/dc/elements/1.1/"
   xmlns:cc="http://creativecommons.org/ns#"
   xmlns:rdf="http://www.w3.org/1999/02/22-rdf-syntax-ns#"
   xmlns:svg="http://www.w3.org/2000/svg"
   xmlns="http://www.w3.org/2000/svg"
   xmlns:sodipodi="http://sodipodi.sourceforge.net/DTD/sodipodi-0.dtd"
   xmlns:inkscape="http://www.inkscape.org/namespaces/inkscape"
   id="svg2"
   version="1.1"
   inkscape:version="0.48.4 r9939"
   width="385.54125"
   height="252.15"
   xml:space="preserve"
   sodipodi:docname="Wilson_008_fig_010.svg"
   inkscape:export-filename="/home/theo/HPV/BicyclingScience/BS4-chapter8/Wilson_008_fig_010.png"
   inkscape:export-xdpi="600.30963"
   inkscape:export-ydpi="600.30963"><metadata
     id="metadata8"><rdf:RDF><cc:Work
         rdf:about=""><dc:format>image/svg+xml</dc:format><dc:type
           rdf:resource="http://purl.org/dc/dcmitype/StillImage" /><dc:title></dc:title></cc:Work></rdf:RDF></metadata><defs
     id="defs6"><clipPath
       clipPathUnits="userSpaceOnUse"
       id="clipPath94"><path
         d="m 0,201.72 308.4,0 L 308.4,0 0,0 0,201.72 z"
         id="path96" /></clipPath></defs><sodipodi:namedview
     pagecolor="#ffffff"
     bordercolor="#666666"
     borderopacity="1"
     objecttolerance="10"
     gridtolerance="10"
     guidetolerance="10"
     inkscape:pageopacity="0"
     inkscape:pageshadow="2"
     inkscape:window-width="1920"
     inkscape:window-height="1139"
     id="namedview4"
     showgrid="false"
     showborder="false"
     inkscape:zoom="1.8719017"
     inkscape:cx="181.22911"
     inkscape:cy="69.678871"
     inkscape:window-x="-4"
     inkscape:window-y="-4"
     inkscape:window-maximized="1"
     inkscape:current-layer="g10" /><g
     id="g10"
     inkscape:groupmode="layer"
     inkscape:label="131_bs3_11660_TO_art"
     transform="matrix(1.25,0,0,-1.25,0,252.15)"><g
       id="g12"
       transform="translate(233.332,110.444)"><path
         d="M 0,0 -15.666,-7.333"
         style="fill:none;stroke:#231f20;stroke-opacity:1;stroke-width:1;stroke-linecap:butt;stroke-linejoin:miter;stroke-miterlimit:4;stroke-dasharray:none"
         id="path14" /></g><g
       id="g32"
       transform="translate(238.409,110.794)"><path
         d="m 0,0 c 0,-2.897 -2.348,-5.243 -5.243,-5.243 -2.896,0 -5.244,2.346 -5.244,5.243 0,2.896 2.348,5.242 5.244,5.242 C -2.348,5.242 0,2.896 0,0"
         style="fill:#ffffff;fill-opacity:1;fill-rule:nonzero;stroke:none"
         id="path34" /></g><g
       id="g36"
       transform="translate(238.409,110.794)"><path
         d="m 0,0 c 0,-2.897 -2.348,-5.243 -5.243,-5.243 -2.896,0 -5.244,2.346 -5.244,5.243 0,2.896 2.348,5.242 5.244,5.242 C -2.348,5.242 0,2.896 0,0 z"
         style="fill:none;stroke:#231f20;stroke-opacity:1;stroke-width:0.5;stroke-linecap:butt;stroke-linejoin:miter;stroke-miterlimit:4;stroke-dasharray:none"
         id="path38" /><g
         id="g40"
         transform="translate(-1.535,3.708)"><path
           d="M 0,0 -7.414,-7.416"
           style="fill:none;stroke:#231f20;stroke-opacity:1;stroke-width:0.5;stroke-linecap:butt;stroke-linejoin:miter;stroke-miterlimit:4;stroke-dasharray:none"
           id="path42" /><g
           id="g44"
           transform="translate(-7.415,-0.001)"><path
             d="M 0,0 7.415,-7.415"
             style="fill:none;stroke:#231f20;stroke-opacity:1;stroke-width:0.5;stroke-linecap:butt;stroke-linejoin:miter;stroke-miterlimit:4;stroke-dasharray:none"
             id="path46" /></g></g></g><g
       id="g48"
       transform="translate(229.577,114.445)"><path
         d="m 0,0 3.65,-3.558 3.465,3.651 c 0,0 -0.655,0.843 -1.779,1.218 C 4.213,1.686 3.464,1.779 2.996,1.686 2.527,1.591 1.498,1.124 1.498,1.124 L 0.654,0.749 0,0"
         style="fill:#231f20;fill-opacity:1;fill-rule:nonzero;stroke:none"
         id="path50" /></g><g
       id="g52"
       transform="translate(236.692,107.236)"><path
         d="m 0,0 -3.651,3.558 -3.464,-3.652 c 0,0 0.654,-0.843 1.778,-1.217 1.124,-0.374 1.872,-0.468 2.341,-0.374 0.469,0.093 1.498,0.561 1.498,0.561 L -0.655,-0.749 0,0"
         style="fill:#231f20;fill-opacity:1;fill-rule:nonzero;stroke:none"
         id="path54" /></g><text
       transform="scale(1,-1)"
       id="text76"
       x="58.8335"
       y="-196.8781"><tspan
         style="font-size:7.5px;font-variant:normal;font-weight:normal;writing-mode:lr-tb;fill:#231f20;fill-opacity:1;fill-rule:nonzero;stroke:none;font-family:Helvetica;-inkscape-font-specification:Helvetica"
         x="58.8335"
         y="-196.8781"
         sodipodi:role="line"
         id="tspan78" /><tspan
         style="font-size:7.5px;font-variant:normal;font-weight:normal;writing-mode:lr-tb;fill:#231f20;fill-opacity:1;fill-rule:nonzero;stroke:none;font-family:Helvetica;-inkscape-font-specification:Helvetica"
         x="58.8335"
         sodipodi:role="line"
         id="tspan80"
         y="-187.5031">Rear assembly</tspan><tspan
         style="font-size:7.5px;font-variant:normal;font-weight:normal;writing-mode:lr-tb;fill:#231f20;fill-opacity:1;fill-rule:nonzero;stroke:none;font-family:Helvetica;-inkscape-font-specification:Helvetica"
         x="58.8335"
         sodipodi:role="line"
         y="-178.1281"
         id="tspan3119">Center of mass</tspan><tspan
         style="font-size:7.5px;font-variant:normal;font-weight:normal;writing-mode:lr-tb;fill:#231f20;fill-opacity:1;fill-rule:nonzero;stroke:none;font-family:Helvetica;-inkscape-font-specification:Helvetica"
         x="58.8335"
         sodipodi:role="line"
         y="-168.7531"
         id="tspan3117" /><tspan
         style="font-size:7.5px;font-variant:normal;font-weight:normal;writing-mode:lr-tb;fill:#231f20;fill-opacity:1;fill-rule:nonzero;stroke:none;font-family:Helvetica;-inkscape-font-specification:Helvetica"
         x="235.83275 240.07849 242.57524 246.74524 250.91525 253.00024 255.08525 259.25525 263.00525 266.75525 270.92526 277.17276 281.20099 282.866"
         y="-136.8781"
         sodipodi:role="line"
         id="tspan82">Front assembly</tspan><tspan
         style="font-size:7.5px;font-variant:normal;font-weight:normal;writing-mode:lr-tb;fill:#231f20;fill-opacity:1;fill-rule:nonzero;stroke:none;font-family:Helvetica;-inkscape-font-specification:Helvetica"
         sodipodi:role="line"
         id="tspan84"
         y="-127.8781"
         x="235.83275 235.83275">CCenter of mass</tspan></text>
<text
       transform="matrix(1,0,0,-1,186.9995,184.27785)"
       id="text86"><tspan
         style="fill:#231f20;fill-opacity:1;fill-rule:nonzero;stroke:none;font-family:Symbol;font-variant:normal;font-weight:normal;font-size:7.5;writing-mode:lr;-inkscape-font-specification:Symbol"
         x="0"
         y="0"
         id="tspan88">λ</tspan></text>
<g
       id="g90"><g
         id="g92"
         clip-path="url(#clipPath94)"><g
           id="g98"
           transform="translate(0,23.778)"><path
             d="M 0,0 291.998,0"
             style="fill:none;stroke:#231f20;stroke-opacity:1;stroke-width:1;stroke-linecap:butt;stroke-linejoin:miter;stroke-miterlimit:4;stroke-dasharray:none"
             id="path100" /></g></g></g><g
       id="g102"
       transform="translate(31.5,24.278)"><path
         d="m 0,0 0,101.5 170.749,0"
         style="fill:none;stroke:#231f20;stroke-opacity:1;stroke-width:1;stroke-linecap:butt;stroke-linejoin:miter;stroke-miterlimit:4;stroke-dasharray:none"
         id="path104" /><g
         id="g106"
         transform="translate(52.499,135.499)"><path
           d="M 0,0 0,-33.499"
           style="fill:none;stroke:#231f20;stroke-opacity:1;stroke-width:1;stroke-linecap:butt;stroke-linejoin:miter;stroke-miterlimit:4;stroke-dasharray:none"
           id="path108" /></g></g><g
       id="g110"
       transform="translate(88.91,162.294)"><path
         d="m 0,0 c 0,-2.897 -2.348,-5.244 -5.244,-5.244 -2.896,0 -5.243,2.347 -5.243,5.244 0,2.896 2.347,5.242 5.243,5.242 C -2.348,5.242 0,2.896 0,0"
         style="fill:#ffffff;fill-opacity:1;fill-rule:nonzero;stroke:none"
         id="path112" /></g><g
       id="g114"
       transform="translate(88.91,162.294)"><path
         d="m 0,0 c 0,-2.897 -2.348,-5.244 -5.244,-5.244 -2.896,0 -5.243,2.347 -5.243,5.244 0,2.896 2.347,5.242 5.243,5.242 C -2.348,5.242 0,2.896 0,0 z"
         style="fill:none;stroke:#231f20;stroke-opacity:1;stroke-width:0.5;stroke-linecap:butt;stroke-linejoin:miter;stroke-miterlimit:4;stroke-dasharray:none"
         id="path116" /><g
         id="g118"
         transform="translate(-1.536,3.708)"><path
           d="M 0,0 -7.414,-7.416"
           style="fill:none;stroke:#231f20;stroke-opacity:1;stroke-width:0.5;stroke-linecap:butt;stroke-linejoin:miter;stroke-miterlimit:4;stroke-dasharray:none"
           id="path120" /><g
           id="g122"
           transform="translate(-7.415,-0.001)"><path
             d="M 0,0 7.415,-7.415"
             style="fill:none;stroke:#231f20;stroke-opacity:1;stroke-width:0.5;stroke-linecap:butt;stroke-linejoin:miter;stroke-miterlimit:4;stroke-dasharray:none"
             id="path124" /></g></g></g><g
       id="g126"
       transform="translate(80.077,165.945)"><path
         d="m 0,0 3.651,-3.558 3.465,3.651 c 0,0 -0.655,0.843 -1.779,1.217 C 4.213,1.685 3.464,1.779 2.996,1.685 2.528,1.591 1.498,1.123 1.498,1.123 L 0.655,0.749 0,0"
         style="fill:#231f20;fill-opacity:1;fill-rule:nonzero;stroke:none"
         id="path128" /></g><g
       id="g130"
       transform="translate(87.193,158.735)"><path
         d="m 0,0 -3.652,3.559 -3.464,-3.652 c 0,0 0.655,-0.843 1.779,-1.218 1.123,-0.374 1.872,-0.467 2.341,-0.374 0.468,0.094 1.498,0.562 1.498,0.562 L -0.655,-0.749 0,0"
         style="fill:#231f20;fill-opacity:1;fill-rule:nonzero;stroke:none"
         id="path132" /></g><g
       id="g142"
       transform="matrix(0.67006983,-0.74229807,0.74229807,0.67006983,286.47763,41.083863)"
       inkscape:transform-center-x="-5.0750528"
       inkscape:transform-center-y="-2.1368644"><path
         d="M 0,0 0.347,2.079 0.42,2.07 1.883,-0.732 C 2.511,-1.57 3.139,-2.409 3.767,-3.248 2.845,-2.75 1.923,-2.252 1.001,-1.755 L -1.986,-0.721 -2.013,-0.657 0,0"
         style="fill:#231f20;fill-opacity:1;fill-rule:nonzero;stroke:none"
         id="path144"
         inkscape:connector-curvature="0" /></g><text
       transform="matrix(1,0,0,-1,256.583,56.362)"
       id="text146"><tspan
         style="fill:#231f20;fill-opacity:1;fill-rule:nonzero;stroke:none;font-family:Helvetica;font-variant:normal;font-weight:normal;font-size:7.5;writing-mode:lr;-inkscape-font-specification:Helvetica"
         x="0"
         y="0"
         id="tspan148">L</tspan></text>
<text
       transform="matrix(1,0,0,-1,260.753,54.362)"
       id="text150"><tspan
         style="fill:#231f20;fill-opacity:1;fill-rule:nonzero;stroke:none;font-family:Helvetica;font-variant:normal;font-weight:normal;font-size:5.5;writing-mode:lr;-inkscape-font-specification:Helvetica"
         x="0 4.58095"
         y="0"
         sodipodi:role="line"
         id="tspan152">MT</tspan></text>
<text
       transform="matrix(1,0,0,-1,117.084,9.946)"
       id="text154"><tspan
         style="fill:#231f20;fill-opacity:1;fill-rule:nonzero;stroke:none;font-family:Helvetica;font-variant:normal;font-weight:normal;font-size:7.5;writing-mode:lr;-inkscape-font-specification:Helvetica"
         x="0"
         y="0"
         id="tspan156">L</tspan></text>
<text
       transform="matrix(1,0,0,-1,122.004,7.946)"
       id="text158"><tspan
         style="fill:#231f20;fill-opacity:1;fill-rule:nonzero;stroke:none;font-family:Helvetica;font-variant:normal;font-weight:normal;font-size:5.5;writing-mode:lr;-inkscape-font-specification:Helvetica"
         x="0"
         y="0"
         id="tspan160">w</tspan></text>
<text
       transform="matrix(1,0,0,-1,54.9995,45.112)"
       id="text162"><tspan
         style="fill:#231f20;fill-opacity:1;fill-rule:nonzero;stroke:none;font-family:Helvetica;font-variant:normal;font-weight:normal;font-size:7.5;writing-mode:lr;-inkscape-font-specification:Helvetica"
         x="0 4.635 8.80575 10.47075 14.64075 16.72575 18.81075 24.22575 28.39575 32.56575 36.73575 38.40075"
         y="0"
         sodipodi:role="line"
         id="tspan164">Point wheels</tspan><tspan
         style="fill:#231f20;fill-opacity:1;fill-rule:nonzero;stroke:none;font-family:Helvetica;font-variant:normal;font-weight:normal;font-size:7.5;writing-mode:lr;-inkscape-font-specification:Helvetica"
         x="0 3.75 5.415 11.6625 15.8325 17.4975 19.1625 21.2475 24.9975 27.0825 31.2525 35.4225 39.5925 45.84 50.01 52.095 54.81"
         y="9"
         sodipodi:role="line"
         id="tspan166">simplify geometry</tspan></text>
<g
       id="g168"
       transform="translate(33.666,23.695)"><path
         d="m 0,0 c 0,-1.289 -1.044,-2.333 -2.333,-2.333 -1.288,0 -2.333,1.044 -2.333,2.333 0,1.288 1.045,2.333 2.333,2.333 C -1.044,2.333 0,1.288 0,0"
         style="fill:#231f20;fill-opacity:1;fill-rule:nonzero;stroke:none"
         id="path170" /></g><g
       id="g172"
       transform="translate(227.332,23.695)"><path
         d="m 0,0 c 0,-1.289 -1.044,-2.333 -2.333,-2.333 -1.289,0 -2.333,1.044 -2.333,2.333 0,1.288 1.044,2.333 2.333,2.333 C -1.044,2.333 0,1.288 0,0"
         style="fill:#231f20;fill-opacity:1;fill-rule:nonzero;stroke:none"
         id="path174" /></g><path
       inkscape:connector-curvature="0"
       id="path178"
       style="fill:none;stroke:#231f20;stroke-width:0.5;stroke-linecap:butt;stroke-linejoin:miter;stroke-miterlimit:4;stroke-opacity:1;stroke-dasharray:none"
       d="m 31.333,20.112 0,-16" /><path
       d="m 224.999,20.112 0,-16"
       style="fill:none;stroke:#231f20;stroke-width:0.5;stroke-linecap:butt;stroke-linejoin:miter;stroke-miterlimit:4;stroke-opacity:1;stroke-dasharray:none"
       id="path182"
       inkscape:connector-curvature="0" /><g
       id="g184"
       transform="translate(213.66,118.718)"><path
         d="m 0,0 -6.271,-3.11 -7.552,15.23 6.27,3.11 L 0,0 z"
         style="fill:none;stroke:#231f20;stroke-width:0.5;stroke-linecap:butt;stroke-linejoin:miter;stroke-miterlimit:4;stroke-opacity:1;stroke-dasharray:none"
         id="path186"
         inkscape:connector-curvature="0" /></g><g
       id="g188"
       transform="translate(203.166,132.361)"><path
         d="M 0,0 46.416,-96.583 21.833,-108.666"
         style="fill:none;stroke:#231f20;stroke-opacity:1;stroke-width:1;stroke-linecap:butt;stroke-linejoin:miter;stroke-miterlimit:4;stroke-dasharray:none"
         id="path190" /></g><path
       d="m 204.332,129.611 -32,66.5 m 95.333,-195.99899 -24,47.99999"
       style="fill:none;stroke:#231f20;stroke-opacity:1;stroke-width:0.5;stroke-linecap:butt;stroke-linejoin:miter;stroke-miterlimit:4;stroke-dasharray:5,2;stroke-dashoffset:0"
       id="path192" /><g
       id="g194"
       transform="translate(196.749,152.528)"><path
         d="M 0,0 0,39.749"
         style="fill:none;stroke:#231f20;stroke-opacity:1;stroke-width:0.5;stroke-linecap:butt;stroke-linejoin:miter;stroke-miterlimit:4;stroke-dasharray:none"
         id="path196" /><g
         id="g198"
         transform="translate(-11.986,26.967)"><path
           d="m 0,0 c 3.324,1.312 6.946,2.032 10.736,2.032 0.419,0 0.836,-0.008 1.25,-0.026"
           style="fill:none;stroke:#231f20;stroke-opacity:1;stroke-width:0.5;stroke-linecap:butt;stroke-linejoin:miter;stroke-miterlimit:4;stroke-dasharray:none"
           id="path200" /></g></g><g
       id="g202"
       transform="translate(185.237,179.682)"><path
         d="m 0,0 1.68,-1.274 -0.042,-0.06 -3.16,0.006 c -1.035,-0.166 -2.07,-0.332 -3.105,-0.498 0.869,0.585 1.74,1.17 2.609,1.755 L 0.285,2.093 0.354,2.087 0,0"
         style="fill:#231f20;fill-opacity:1;fill-rule:nonzero;stroke:none"
         id="path204" /></g><g
       id="g206"
       transform="translate(222.666,27.778)"><path
         d="M 0,0 -7.667,14.667"
         style="fill:none;stroke:#231f20;stroke-opacity:1;stroke-width:0.5;stroke-linecap:butt;stroke-linejoin:miter;stroke-miterlimit:4;stroke-dasharray:none"
         id="path208" /><g
         id="g210"
         transform="translate(-17.417,2.667)"><path
           d="M 0,0 8.333,4.333"
           style="fill:none;stroke:#231f20;stroke-opacity:1;stroke-width:0.5;stroke-linecap:butt;stroke-linejoin:miter;stroke-miterlimit:4;stroke-dasharray:none"
           id="path212" /></g></g><g
       id="g214"
       transform="translate(213.129,34.543)"><path
         d="m 0,0 -1.803,1.093 0.036,0.064 3.145,0.32 C 2.389,1.75 3.401,2.022 4.413,2.295 3.609,1.623 2.805,0.951 2.001,0.279 L -0.067,-2.112 -0.136,-2.113 0,0"
         style="fill:#231f20;fill-opacity:1;fill-rule:nonzero;stroke:none"
         id="path216" /></g><g
       id="g218"
       transform="translate(247.332,52.861)"><path
         d="M 0,0 8.333,4.333"
         style="fill:none;stroke:#231f20;stroke-opacity:1;stroke-width:0.5;stroke-linecap:butt;stroke-linejoin:miter;stroke-miterlimit:4;stroke-dasharray:none"
         id="path220" /></g><g
       id="g222"
       transform="translate(247.785,53.096)"><path
         d="m 0,0 1.802,-1.092 -0.036,-0.065 -3.144,-0.32 c -1.012,-0.273 -2.024,-0.545 -3.035,-0.818 0.803,0.672 1.607,1.344 2.412,2.017 L 0.066,2.112 0.135,2.113 0,0"
         style="fill:#231f20;fill-opacity:1;fill-rule:nonzero;stroke:none"
         id="path224" /></g><g
       id="g226"
       transform="translate(129.333,12.112)"><path
         d="M 0,0 91.333,0"
         style="fill:none;stroke:#231f20;stroke-opacity:1;stroke-width:0.5;stroke-linecap:butt;stroke-linejoin:miter;stroke-miterlimit:4;stroke-dasharray:none"
         id="path228" /></g><g
       id="g230"
       transform="translate(220.155,12.112)"><path
         d="M 0,0 -1.095,1.801 -1.033,1.842 1.904,0.675 C 2.928,0.45 3.951,0.225 4.975,0 3.951,-0.225 2.928,-0.45 1.904,-0.676 L -1.033,-1.843 -1.095,-1.812 0,0"
         style="fill:#231f20;fill-opacity:1;fill-rule:nonzero;stroke:none"
         id="path232" /></g><g
       id="g234"
       transform="translate(112.333,12.112)"><path
         d="M 0,0 -76.202,0"
         style="fill:none;stroke:#231f20;stroke-opacity:1;stroke-width:0.5;stroke-linecap:butt;stroke-linejoin:miter;stroke-miterlimit:4;stroke-dasharray:none"
         id="path236" /></g><g
       id="g238"
       transform="translate(36.392,12.112)"><path
         d="m 0,0 1.094,-1.802 -0.061,-0.041 -2.938,1.167 c -1.023,0.225 -2.046,0.451 -3.07,0.676 1.024,0.225 2.047,0.45 3.07,0.675 L 1.033,1.842 1.094,1.811 0,0"
         style="fill:#231f20;fill-opacity:1;fill-rule:nonzero;stroke:none"
         id="path240" /></g><g
       id="g242"
       transform="translate(53.083,42.362)"><path
         d="M 0,0 -16.667,-14"
         style="fill:none;stroke:#231f20;stroke-opacity:1;stroke-width:0.5;stroke-linecap:butt;stroke-linejoin:miter;stroke-miterlimit:4;stroke-dasharray:none"
         id="path244" /></g><g
       id="g246"
       transform="translate(36.807,28.69)"><path
         d="M 0,0 1.997,-0.675 1.976,-0.746 -1.023,-1.742 c -0.929,-0.486 -1.857,-0.972 -2.786,-1.457 0.639,0.83 1.278,1.661 1.917,2.492 L -0.394,2.075 -0.327,2.092 0,0"
         style="fill:#231f20;fill-opacity:1;fill-rule:nonzero;stroke:none"
         id="path248" /></g><g
       transform="matrix(0.51946579,0,0,-0.08173548,292.11838,35.850549)"
       id="g3225"
       style="fill:#000000;stroke-width:2.49695802;stroke-miterlimit:4;stroke-dasharray:none"><path
         id="path3227"
         style="fill:#000000;stroke:#231f20;stroke-width:2.49695802;stroke-linecap:butt;stroke-linejoin:miter;stroke-miterlimit:4;stroke-opacity:1;stroke-dasharray:none"
         d="M 0,0 -76.202,0"
         inkscape:connector-curvature="0" /></g><g
       transform="translate(222.666,27.778)"
       id="g3997"><path
         id="path3999"
         style="fill:none;stroke:#231f20;stroke-opacity:1;stroke-width:0.5;stroke-linecap:butt;stroke-linejoin:miter;stroke-miterlimit:4;stroke-dasharray:none"
         d="M 0,0 -7.667,14.667" /><g
         transform="translate(-17.417,2.667)"
         id="g4001"><path
           id="path4003"
           style="fill:none;stroke:#231f20;stroke-opacity:1;stroke-width:0.5;stroke-linecap:butt;stroke-linejoin:miter;stroke-miterlimit:4;stroke-dasharray:none"
           d="M 0,0 8.333,4.333" /></g></g><g
       transform="translate(213.129,34.543)"
       id="g4005"><path
         id="path4007"
         style="fill:#231f20;fill-opacity:1;fill-rule:nonzero;stroke:none"
         d="m 0,0 -1.803,1.093 0.036,0.064 3.145,0.32 C 2.389,1.75 3.401,2.022 4.413,2.295 3.609,1.623 2.805,0.951 2.001,0.279 L -0.067,-2.112 -0.136,-2.113 0,0" /></g><g
       transform="matrix(1.0134327,0.52905056,-0.60171534,0.89104779,286.36733,41.298888)"
       id="g4025"><path
         inkscape:connector-curvature="0"
         id="path4027"
         style="fill:none;stroke:#231f20;stroke-width:0.5;stroke-linecap:butt;stroke-linejoin:miter;stroke-miterlimit:4;stroke-opacity:1;stroke-dasharray:none"
         d="M 0,0 12,20.333" /></g><g
       id="g4029"
       transform="matrix(1.0134327,0.3069137,-0.60171534,0.51691614,286.36733,4.346579)"><path
         d="M 0,0 12,20.333"
         style="fill:none;stroke:#231f20;stroke-width:0.5;stroke-linecap:butt;stroke-linejoin:miter;stroke-miterlimit:4;stroke-opacity:1;stroke-dasharray:none"
         id="path4031"
         inkscape:connector-curvature="0" /></g><g
       inkscape:transform-center-y="1.8706306"
       inkscape:transform-center-x="-5.3752345"
       transform="matrix(0.6299945,0.77659959,0.77659959,-0.6299945,286.34272,18.480831)"
       id="g4033"><path
         inkscape:connector-curvature="0"
         id="path4035"
         style="fill:#231f20;fill-opacity:1;fill-rule:nonzero;stroke:none"
         d="M 0,0 0.347,2.079 0.42,2.07 1.883,-0.732 C 2.511,-1.57 3.139,-2.409 3.767,-3.248 2.845,-2.75 1.923,-2.252 1.001,-1.755 L -1.986,-0.721 -2.013,-0.657 0,0" /></g><text
       id="text4037"
       transform="scale(1,-1)"
       x="268.76312"
       y="-67.79422"><tspan
         id="tspan4039"
         y="-67.79422"
         x="268.76312"
         style="font-size:7.5px;font-variant:normal;font-weight:normal;writing-mode:lr-tb;fill:#231f20;fill-opacity:1;fill-rule:nonzero;stroke:none;font-family:Helvetica;-inkscape-font-specification:Helvetica">Wheel flop</tspan><tspan
         y="-67.79422"
         x="268.76312"
         style="font-size:7.5px;font-variant:normal;font-weight:normal;writing-mode:lr-tb;fill:#231f20;fill-opacity:1;fill-rule:nonzero;stroke:none;font-family:Helvetica;-inkscape-font-specification:Helvetica"
         id="tspan4041" /><tspan
         y="-67.79422"
         x="268.76312"
         style="font-size:7.5px;font-variant:normal;font-weight:normal;writing-mode:lr-tb;fill:#231f20;fill-opacity:1;fill-rule:nonzero;stroke:none;font-family:Helvetica;-inkscape-font-specification:Helvetica"
         id="tspan4043" /></text>
</g></svg>