<?xml version="1.0" encoding="UTF-8" standalone="no"?>
<!-- Created with Inkscape (http://www.inkscape.org/) -->

<svg
   xmlns:dc="http://purl.org/dc/elements/1.1/"
   xmlns:cc="http://creativecommons.org/ns#"
   xmlns:rdf="http://www.w3.org/1999/02/22-rdf-syntax-ns#"
   xmlns:svg="http://www.w3.org/2000/svg"
   xmlns="http://www.w3.org/2000/svg"
   xmlns:sodipodi="http://sodipodi.sourceforge.net/DTD/sodipodi-0.dtd"
   xmlns:inkscape="http://www.inkscape.org/namespaces/inkscape"
   id="svg2"
   version="1.1"
   inkscape:version="0.48.4 r9939"
   width="381.52069"
   height="258.19641"
   xml:space="preserve"
   sodipodi:docname="Wilson_006_fig_009.svg"
   inkscape:export-filename="/home/theo/HPV/BicyclingScience/BS4-chapter6/Wilson_006_fig_009.png"
   inkscape:export-xdpi="599.95044"
   inkscape:export-ydpi="599.95044"><metadata
     id="metadata8"><rdf:RDF><cc:Work
         rdf:about=""><dc:format>image/svg+xml</dc:format><dc:type
           rdf:resource="http://purl.org/dc/dcmitype/StillImage" /><dc:title></dc:title></cc:Work></rdf:RDF></metadata><defs
     id="defs6"><clipPath
       clipPathUnits="userSpaceOnUse"
       id="clipPath258"><path
         d="m 0,0 1133.858,0 0,841.89 L 0,841.89 0,0 z"
         id="path260"
         inkscape:connector-curvature="0" /></clipPath><clipPath
       clipPathUnits="userSpaceOnUse"
       id="clipPath266"><path
         d="m 557.929,842.891 18.2,0 0,-843.891 -18.2,0 0,843.891 z"
         id="path268"
         inkscape:connector-curvature="0" /></clipPath><clipPath
       clipPathUnits="userSpaceOnUse"
       id="clipPath316"><path
         d="m 686.93,238.087 266.424,0 0,129 -266.424,0 0,-129 z"
         id="path318"
         inkscape:connector-curvature="0" /></clipPath><clipPath
       clipPathUnits="userSpaceOnUse"
       id="clipPath348"><path
         d="m 686.93,238.087 266.424,0 0,129 -266.424,0 0,-129 z"
         id="path350"
         inkscape:connector-curvature="0" /></clipPath><clipPath
       clipPathUnits="userSpaceOnUse"
       id="clipPath424"><path
         d="m 686.93,238.087 266.424,0 0,129 -266.424,0 0,-129 z"
         id="path426"
         inkscape:connector-curvature="0" /></clipPath></defs><sodipodi:namedview
     pagecolor="#ffffff"
     bordercolor="#666666"
     borderopacity="1"
     objecttolerance="10"
     gridtolerance="10"
     guidetolerance="10"
     inkscape:pageopacity="0"
     inkscape:pageshadow="2"
     inkscape:window-width="1920"
     inkscape:window-height="1139"
     id="namedview4"
     showgrid="false"
     inkscape:zoom="4.0594376"
     inkscape:cx="223.34632"
     inkscape:cy="78.126699"
     inkscape:window-x="-4"
     inkscape:window-y="-4"
     inkscape:window-maximized="1"
     inkscape:current-layer="g10"
     fit-margin-top="20"
     fit-margin-bottom="20"
     fit-margin-left="20"
     fit-margin-right="20" /><g
     id="g10"
     inkscape:groupmode="layer"
     inkscape:label="RZ21a_LEICHT_12.12.2013"
     transform="matrix(1.25,0,0,-1.25,-181.53272,1031.6437)"><g
       id="g254"><g
         id="g256"
         clip-path="url(#clipPath258)"><g
           id="g262"><g
             id="g264" /><g
             id="g270"><g
               clip-path="url(#clipPath266)"
               id="g272"
               style="opacity:0.5"><g
                 id="g274"><g
                   transform="translate(567.0291,841.8906)"
                   id="g276" /></g></g></g></g></g></g><g
       id="g308"
       transform="matrix(-1,0,0,1,261.97953,757.47726)"><path
         inkscape:connector-curvature="0"
         d="M -43.114828,-89.331172 100.14886,-89.07638"
         style="fill:none;stroke:#000000;stroke-width:0.25746366;stroke-linecap:butt;stroke-linejoin:miter;stroke-miterlimit:10;stroke-opacity:1;stroke-dasharray:none"
         id="path310"
         sodipodi:nodetypes="cc" /></g><g
       id="g324"
       transform="matrix(-1,0,0,1,307.55773,663.33756)"><path
         inkscape:connector-curvature="0"
         d="M 145.93155,-1.4780373 C 107.87373,-1.5881265 69.326122,-1.2150144 33.609488,-1.7482075 31.766872,-1.7336838 15.204517,-1.2629106 0.78961404,6.0368546 -8.413273,10.146137 -17.816539,18.252863 -20.870212,15.868586 -23.453183,15.323397 -21.855315,13.570932 -45.75685,9.6516451 -63.065957,6.8133609 -126.485,4.735 -126.485,4.735"
         style="fill:none;stroke:#000000;stroke-width:0.80000001;stroke-linecap:butt;stroke-linejoin:miter;stroke-miterlimit:10;stroke-opacity:1;stroke-dasharray:0.8, 1.6;stroke-dashoffset:0"
         id="path326"
         sodipodi:nodetypes="ccccsc" /></g><path
       id="path330"
       style="fill:none;stroke:#000000;stroke-width:0.2;stroke-linecap:butt;stroke-linejoin:miter;stroke-miterlimit:10;stroke-opacity:1;stroke-dasharray:none"
       d="m 397.23343,668.07296 c 0,0 -29.827,-17.507 -38.141,-22.391 -8.314,-4.883 -18.475,-10.69 -30.749,-10.822 -12.274,-0.132 -24.37221,5.8364 -28.06721,8.8724 -3.695,3.035 -15.13572,11.9355 -22.13172,18.1385"
       inkscape:connector-curvature="0"
       sodipodi:nodetypes="ccscc" /><g
       id="g332"
       transform="matrix(-1,0,0,1,284.26473,668.29946)"><path
         inkscape:connector-curvature="0"
         d="m -5.643703,-4.8772742 c 0,0 -1.2854532,-0.9516355 -5.904453,-4.9296355 C -16.167156,-13.78591 -27.048,-21.298 -36.391,-21.3 c -11.78,-0.002 -18.51,3.697 -24.581,7.261 -6.071,3.563 -20.632,13.812 -20.632,13.812 l -15.307,-9.425"
         style="fill:none;stroke:#000000;stroke-width:0.2;stroke-linecap:butt;stroke-linejoin:miter;stroke-miterlimit:10;stroke-opacity:1;stroke-dasharray:none"
         id="path334"
         sodipodi:nodetypes="cccccc" /></g><g
       id="g336"
       transform="matrix(-1,0,0,1,294.55863,668.29946)"><path
         inkscape:connector-curvature="0"
         d="m -4.4592222,-2.2296111 c 0,0 -9.1347778,-6.1343889 -14.2807778,-7.1903889 -5.147,-1.056 -10.162,1.715 -13.99,3.827 -3.828,2.113 -9.634,5.366 -9.634,5.366 l -29.723,-17.955"
         style="fill:none;stroke:#000000;stroke-width:0.2;stroke-linecap:butt;stroke-linejoin:miter;stroke-miterlimit:10;stroke-opacity:1;stroke-dasharray:none"
         id="path338"
         sodipodi:nodetypes="ccccc" /></g><g
       id="g340"
       transform="matrix(-1,0,0,1,351.10073,641.21546)"><path
         inkscape:connector-curvature="0"
         d="M 0,0 45.51426,26.996351 -82.942,26.857"
         style="fill:none;stroke:#000000;stroke-width:0.2;stroke-linecap:butt;stroke-linejoin:miter;stroke-miterlimit:10;stroke-opacity:1;stroke-dasharray:none"
         id="path342"
         sodipodi:nodetypes="ccc" /></g><g
       id="g344"
       transform="matrix(-1,0,0,1,1122.9719,394.64116)"><g
         id="g346"
         clip-path="url(#clipPath348)"><g
           id="g352"
           transform="translate(791.9772,240.338)"><path
             inkscape:connector-curvature="0"
             d="m 0,0 c 0,0 8.661,10.174 14.132,16.867 6.56,8.025 12.092013,16.453 12.092013,16.453"
             style="fill:none;stroke:#000000;stroke-width:0.2;stroke-linecap:butt;stroke-linejoin:miter;stroke-miterlimit:10;stroke-opacity:1;stroke-dasharray:none"
             id="path354"
             sodipodi:nodetypes="ccc" /></g><g
           id="g356"
           transform="translate(817.3273,273.6583)"><path
             inkscape:connector-curvature="0"
             d="m 0.83610415,-0.27870138 c 0,0 -1.14410415,-9.29529862 -2.33210415,-15.22229862 -1.189,-5.927 -5.64,-15.273 -5.64,-15.273"
             style="fill:none;stroke:#000000;stroke-width:0.2;stroke-linecap:butt;stroke-linejoin:miter;stroke-miterlimit:10;stroke-opacity:1;stroke-dasharray:none"
             id="path358"
             sodipodi:nodetypes="ccc" /></g></g></g><g
       id="g360"
       transform="matrix(-1,0,0,1,304.72093,668.29946)"><path
         inkscape:connector-curvature="0"
         d="M 0,0 10.580052,-19.666806"
         style="fill:none;stroke:#000000;stroke-width:0.2;stroke-linecap:butt;stroke-linejoin:miter;stroke-miterlimit:10;stroke-opacity:1;stroke-dasharray:none"
         id="path362"
         sodipodi:nodetypes="cc" /></g><g
       id="g420"
       transform="matrix(-1,0,0,1,1122.9719,394.64116)"><g
         id="g422"
         clip-path="url(#clipPath424)"><g
           id="g428"
           transform="translate(742.4952,273.4318)"><path
             inkscape:connector-curvature="0"
             d="M 0,0 C 0,0 0.181,-2.144 -0.561,-4.339 -1.332,-6.622 -3.143,-7.991 -3.143,-7.991"
             style="fill:#ffffff;fill-opacity:1;fill-rule:nonzero;stroke:none"
             id="path430" /></g><g
           id="g432"
           transform="translate(742.4747,271.8214)"><path
             inkscape:connector-curvature="0"
             d="M 0,0 C -0.061,-0.774 -0.208,-1.746 -0.54,-2.729 -0.892,-3.77 -1.459,-4.62 -1.973,-5.237"
             style="fill:none;stroke:#000000;stroke-width:0.5;stroke-linecap:butt;stroke-linejoin:miter;stroke-miterlimit:10;stroke-opacity:1;stroke-dasharray:none"
             id="path434" /></g><g
           id="g436"
           transform="translate(741.3176,271.5265)"><path
             inkscape:connector-curvature="0"
             d="M 0,0 1.184,1.905 2.242,-0.073 0,0 z"
             style="fill:#000000;fill-opacity:1;fill-rule:nonzero;stroke:none"
             id="path438" /></g><g
           id="g440"
           transform="translate(739.8834,267.6173)"><path
             inkscape:connector-curvature="0"
             d="M 0,0 -0.526,-2.181 1.625,-1.547 0,0 z"
             style="fill:#000000;fill-opacity:1;fill-rule:nonzero;stroke:none"
             id="path442" /></g></g></g><path
       sodipodi:type="arc"
       style="opacity:0.42857145;fill:none;stroke:#000000;stroke-width:10;stroke-linecap:round;stroke-linejoin:round;stroke-miterlimit:4;stroke-opacity:1;stroke-dasharray:none;stroke-dashoffset:0"
       id="path3196"
       sodipodi:cx="404.81375"
       sodipodi:cy="195.87836"
       sodipodi:rx="92.668213"
       sodipodi:ry="90.403763"
       d="m 468.77994,130.46664 a 92.668213,90.403763 0 1 1 -0.0411,-0.0382"
       transform="matrix(-0.773784,0,0,-0.773784,586.44982,887.06045)"
       sodipodi:start="5.4742527"
       sodipodi:end="11.756825"
       sodipodi:open="true" /><g
       id="g3081"
       transform="translate(2.3648596,-50.056195)"><text
         transform="matrix(0.8,0,0,-0.8,145.22618,825.31496)"
         sodipodi:linespacing="125%"
         id="text3042"
         y="150.29968"
         x="305.70737"
         style="font-size:40px;font-style:normal;font-weight:normal;line-height:125%;letter-spacing:0px;word-spacing:0px;fill:#000000;fill-opacity:1;stroke:none;font-family:Sans"
         xml:space="preserve"><tspan
           style="font-size:9px"
           y="150.29968"
           x="305.70737"
           id="tspan3044"
           sodipodi:role="line">45°– </tspan></text>
<text
         transform="scale(1,-1)"
         sodipodi:linespacing="125%"
         id="text3069"
         y="-699.55725"
         x="409.69632"
         style="font-size:32px;font-style:normal;font-weight:normal;line-height:125%;letter-spacing:0px;word-spacing:0px;fill:#000000;fill-opacity:1;stroke:none;font-family:Sans"
         xml:space="preserve"><tspan
           style="font-size:7.19999981px"
           y="-699.55725"
           x="409.69632"
           id="tspan3071"
           sodipodi:role="line">2</tspan></text>
<text
         xml:space="preserve"
         style="font-size:32px;font-style:normal;font-weight:normal;line-height:125%;letter-spacing:0px;word-spacing:0px;fill:#000000;fill-opacity:1;stroke:none;font-family:Sans"
         x="408.3168"
         y="-705.07526"
         id="text3073"
         sodipodi:linespacing="125%"
         transform="scale(1,-1)"><tspan
           sodipodi:role="line"
           id="tspan3075"
           x="408.3168"
           y="-705.07526"
           style="font-size:7.19999981px">―</tspan></text>
<text
         xml:space="preserve"
         style="font-size:32px;font-style:normal;font-weight:normal;line-height:125%;letter-spacing:0px;word-spacing:0px;fill:#000000;fill-opacity:1;stroke:none;font-family:Sans"
         x="409.49924"
         y="-710.5932"
         id="text3077"
         sodipodi:linespacing="125%"
         transform="scale(1,-1)"><tspan
           sodipodi:role="line"
           id="tspan3079"
           x="409.49924"
           y="-710.5932"
           style="font-size:7.19999981px">φ</tspan></text>
</g></g></svg>