<?xml version="1.0" encoding="UTF-8" standalone="no"?>
<!-- Created with Inkscape (http://www.inkscape.org/) -->

<svg
   xmlns:dc="http://purl.org/dc/elements/1.1/"
   xmlns:cc="http://creativecommons.org/ns#"
   xmlns:rdf="http://www.w3.org/1999/02/22-rdf-syntax-ns#"
   xmlns:svg="http://www.w3.org/2000/svg"
   xmlns="http://www.w3.org/2000/svg"
   xmlns:sodipodi="http://sodipodi.sourceforge.net/DTD/sodipodi-0.dtd"
   xmlns:inkscape="http://www.inkscape.org/namespaces/inkscape"
   id="svg2"
   version="1.1"
   inkscape:version="0.48.4 r9939"
   width="411.71704"
   height="300.09677"
   xml:space="preserve"
   sodipodi:docname="Wilson_006_fig_006.svg"><metadata
     id="metadata8"><rdf:RDF><cc:Work
         rdf:about=""><dc:format>image/svg+xml</dc:format><dc:type
           rdf:resource="http://purl.org/dc/dcmitype/StillImage" /><dc:title></dc:title></cc:Work></rdf:RDF></metadata><defs
     id="defs6"><clipPath
       clipPathUnits="userSpaceOnUse"
       id="clipPath18"><path
         d="m 1111.66,5.48047 c 0,0 216.67,104.14853 316.67,130.82053 100,26.668 230,43.34 299.99,3.34 70,-40.0004 86.68,-56.6722 103.34,-83.3402 16.66,-26.6602 30,-49.99221 30,-49.99221 l -750,-0.82812"
         id="path20"
         inkscape:connector-curvature="0" /></clipPath><clipPath
       clipPathUnits="userSpaceOnUse"
       id="clipPath24"><path
         d="M 1697.95,-293.07 1960.41,-30.6094 1697.96,231.84 1435.5,-30.6211"
         id="path26"
         inkscape:connector-curvature="0" /></clipPath><clipPath
       clipPathUnits="userSpaceOnUse"
       id="clipPath34"><path
         d="m 1111.66,5.48047 c 0,0 216.67,104.14853 316.67,130.82053 100,26.668 230,43.34 299.99,3.34 70,-40.0004 86.68,-56.6722 103.34,-83.3402 16.66,-26.6602 30,-49.99221 30,-49.99221 l -750,-0.82812"
         id="path36"
         inkscape:connector-curvature="0" /></clipPath><clipPath
       clipPathUnits="userSpaceOnUse"
       id="clipPath40"><path
         d="M 1173.46,-293.078 1435.92,-30.6211 1173.47,231.832 911.012,-30.6289"
         id="path42"
         inkscape:connector-curvature="0" /></clipPath><clipPath
       clipPathUnits="userSpaceOnUse"
       id="clipPath50"><path
         d="m 1111.66,5.48047 c 0,0 216.67,104.14853 316.67,130.82053 100,26.668 230,43.34 299.99,3.34 70,-40.0004 86.68,-56.6722 103.34,-83.3402 16.66,-26.6602 30,-49.99221 30,-49.99221 l -750,-0.82812"
         id="path52"
         inkscape:connector-curvature="0" /></clipPath><clipPath
       clipPathUnits="userSpaceOnUse"
       id="clipPath56"><path
         d="M 1435.71,-30.8281 1698.17,231.629 1435.72,494.082 1173.26,231.621"
         id="path58"
         inkscape:connector-curvature="0" /></clipPath><clipPath
       clipPathUnits="userSpaceOnUse"
       id="clipPath66"><path
         d="m 1111.66,5.48047 c 0,0 216.67,104.14853 316.67,130.82053 100,26.668 230,43.34 299.99,3.34 70,-40.0004 86.68,-56.6722 103.34,-83.3402 16.66,-26.6602 30,-49.99221 30,-49.99221 l -750,-0.82812"
         id="path68"
         inkscape:connector-curvature="0" /></clipPath><clipPath
       clipPathUnits="userSpaceOnUse"
       id="clipPath72"><path
         d="M 1697.95,-293.07 1960.41,-30.6094 1697.96,231.84 1435.5,-30.6211"
         id="path74"
         inkscape:connector-curvature="0" /></clipPath><clipPath
       clipPathUnits="userSpaceOnUse"
       id="clipPath118"><path
         d="m 1111.66,5.48047 c 0,0 216.67,104.14853 316.67,130.82053 100,26.668 230,43.34 299.99,3.34 70,-40.0004 86.68,-56.6722 103.34,-83.3402 16.66,-26.6602 30,-49.99221 30,-49.99221 l -750,-0.82812"
         id="path120"
         inkscape:connector-curvature="0" /></clipPath><clipPath
       clipPathUnits="userSpaceOnUse"
       id="clipPath124"><path
         d="M 1173.46,-293.078 1435.92,-30.6211 1173.47,231.832 911.012,-30.6289"
         id="path126"
         inkscape:connector-curvature="0" /></clipPath><clipPath
       clipPathUnits="userSpaceOnUse"
       id="clipPath160"><path
         d="m 1111.66,5.48047 c 0,0 216.67,104.14853 316.67,130.82053 100,26.668 230,43.34 299.99,3.34 70,-40.0004 86.68,-56.6722 103.34,-83.3402 16.66,-26.6602 30,-49.99221 30,-49.99221 l -750,-0.82812"
         id="path162"
         inkscape:connector-curvature="0" /></clipPath><clipPath
       clipPathUnits="userSpaceOnUse"
       id="clipPath166"><path
         d="M 1435.71,-30.8281 1698.17,231.629 1435.72,494.082 1173.26,231.621"
         id="path168"
         inkscape:connector-curvature="0" /></clipPath></defs><sodipodi:namedview
     pagecolor="#ffffff"
     bordercolor="#666666"
     borderopacity="1"
     objecttolerance="10"
     gridtolerance="10"
     guidetolerance="10"
     inkscape:pageopacity="0"
     inkscape:pageshadow="2"
     inkscape:window-width="1920"
     inkscape:window-height="1139"
     id="namedview4"
     showgrid="false"
     inkscape:zoom="2.5114378"
     inkscape:cx="218.19264"
     inkscape:cy="138.23421"
     inkscape:window-x="-4"
     inkscape:window-y="-4"
     inkscape:window-maximized="1"
     inkscape:current-layer="g10"
     showguides="true"
     inkscape:guide-bbox="true"
     units="mm"
     fit-margin-top="5"
     fit-margin-left="5"
     fit-margin-right="5"
     fit-margin-bottom="5" /><g
     id="g10"
     inkscape:groupmode="layer"
     inkscape:label="ink_ext_XXXXXX"
     transform="matrix(1.25,0,0,-1.25,17.229035,282.12779)"><g
       id="g14"
       transform="scale(0.1,0.1)"><g
         clip-path="url(#clipPath18)"
         id="g16"><g
           clip-path="url(#clipPath24)"
           id="g22"><path
             inkscape:connector-curvature="0"
             id="path28"
             style="fill:#ffffff;fill-opacity:1;fill-rule:nonzero;stroke:none"
             d="M 1960.41,-30.6094 1697.96,231.84 1435.5,-30.6211 1697.95,-293.07 1960.41,-30.6094" /></g></g></g><g
       id="g30"
       transform="scale(0.1,0.1)"><g
         clip-path="url(#clipPath34)"
         id="g32"><g
           clip-path="url(#clipPath40)"
           id="g38"><path
             inkscape:connector-curvature="0"
             id="path44"
             style="fill:#ffffff;fill-opacity:1;fill-rule:nonzero;stroke:none"
             d="M 1435.92,-30.6211 1173.47,231.832 911.012,-30.6289 1173.46,-293.078 1435.92,-30.6211" /></g></g></g><g
       id="g46"
       transform="scale(0.1,0.1)"><g
         clip-path="url(#clipPath50)"
         id="g48"><g
           clip-path="url(#clipPath56)"
           id="g54"><path
             inkscape:connector-curvature="0"
             id="path60"
             style="fill:#ffffff;fill-opacity:1;fill-rule:nonzero;stroke:none"
             d="M 1698.17,231.629 1435.72,494.082 1173.26,231.621 1435.71,-30.8281 1698.17,231.629" /></g></g></g><g
       id="g62"
       transform="scale(0.1,0.1)"><g
         clip-path="url(#clipPath66)"
         id="g64"><g
           clip-path="url(#clipPath72)"
           id="g70"><path
             inkscape:connector-curvature="0"
             id="path76"
             style="fill:none;stroke:#231f20;stroke-width:5;stroke-linecap:butt;stroke-linejoin:round;stroke-miterlimit:4;stroke-opacity:1;stroke-dasharray:none"
             d="m 1468.41,-118.102 0,174.9614" /><path
             inkscape:connector-curvature="0"
             id="path78"
             style="fill:none;stroke:#231f20;stroke-width:5;stroke-linecap:butt;stroke-linejoin:round;stroke-miterlimit:4;stroke-opacity:1;stroke-dasharray:none"
             d="m 1490.29,-139.98 0,218.7183" /><path
             inkscape:connector-curvature="0"
             id="path80"
             style="fill:none;stroke:#231f20;stroke-width:5;stroke-linecap:butt;stroke-linejoin:round;stroke-miterlimit:4;stroke-opacity:1;stroke-dasharray:none"
             d="m 1512.16,-161.852 0,262.461" /><path
             inkscape:connector-curvature="0"
             id="path82"
             style="fill:none;stroke:#231f20;stroke-width:5;stroke-linecap:butt;stroke-linejoin:round;stroke-miterlimit:4;stroke-opacity:1;stroke-dasharray:none"
             d="m 1534.03,-183.719 -0.01,306.199" /><path
             inkscape:connector-curvature="0"
             id="path84"
             style="fill:none;stroke:#231f20;stroke-width:5;stroke-linecap:butt;stroke-linejoin:round;stroke-miterlimit:4;stroke-opacity:1;stroke-dasharray:none"
             d="m 1555.9,-205.602 0,349.954" /><path
             inkscape:connector-curvature="0"
             id="path86"
             style="fill:none;stroke:#231f20;stroke-width:5;stroke-linecap:butt;stroke-linejoin:round;stroke-miterlimit:4;stroke-opacity:1;stroke-dasharray:none"
             d="m 1577.77,-227.461 0,393.68" /><path
             inkscape:connector-curvature="0"
             id="path88"
             style="fill:none;stroke:#231f20;stroke-width:5;stroke-linecap:butt;stroke-linejoin:round;stroke-miterlimit:4;stroke-opacity:1;stroke-dasharray:none"
             d="m 1599.64,-249.328 0,437.418" /><path
             inkscape:connector-curvature="0"
             id="path90"
             style="fill:none;stroke:#231f20;stroke-width:5;stroke-linecap:butt;stroke-linejoin:round;stroke-miterlimit:4;stroke-opacity:1;stroke-dasharray:none"
             d="m 1621.52,-271.211 0,481.18" /><path
             inkscape:connector-curvature="0"
             id="path92"
             style="fill:none;stroke:#231f20;stroke-width:5;stroke-linecap:butt;stroke-linejoin:round;stroke-miterlimit:4;stroke-opacity:1;stroke-dasharray:none"
             d="m 1643.39,-293.078 -0.01,444.38539"
             sodipodi:nodetypes="cc" /><path
             inkscape:connector-curvature="0"
             id="path94"
             style="fill:none;stroke:#231f20;stroke-width:5;stroke-linecap:butt;stroke-linejoin:round;stroke-miterlimit:4;stroke-opacity:1;stroke-dasharray:none"
             d="m 1665.26,-314.949 -0.01,461.66926"
             sodipodi:nodetypes="cc" /><path
             inkscape:connector-curvature="0"
             id="path96"
             style="fill:none;stroke:#231f20;stroke-width:5;stroke-linecap:butt;stroke-linejoin:round;stroke-miterlimit:4;stroke-opacity:1;stroke-dasharray:none"
             d="m 1687.13,-336.82 0,477.81892"
             sodipodi:nodetypes="cc" /><path
             inkscape:connector-curvature="0"
             id="path98"
             style="fill:none;stroke:#231f20;stroke-width:5;stroke-linecap:butt;stroke-linejoin:round;stroke-miterlimit:4;stroke-opacity:1;stroke-dasharray:none"
             d="m 1709,-314.949 0,447.41731"
             sodipodi:nodetypes="cc" /><path
             inkscape:connector-curvature="0"
             id="path100"
             style="fill:none;stroke:#231f20;stroke-width:5;stroke-linecap:butt;stroke-linejoin:round;stroke-miterlimit:4;stroke-opacity:1;stroke-dasharray:none"
             d="m 1730.87,-293.078 0,414.54061"
             sodipodi:nodetypes="cc" /><path
             inkscape:connector-curvature="0"
             id="path102"
             style="fill:none;stroke:#231f20;stroke-width:5;stroke-linecap:butt;stroke-linejoin:round;stroke-miterlimit:4;stroke-opacity:1;stroke-dasharray:none"
             d="m 1752.74,-271.211 0.01,379.81236"
             sodipodi:nodetypes="cc" /><path
             inkscape:connector-curvature="0"
             id="path104"
             style="fill:none;stroke:#231f20;stroke-width:5;stroke-linecap:butt;stroke-linejoin:round;stroke-miterlimit:4;stroke-opacity:1;stroke-dasharray:none"
             d="m 1774.61,-249.328 1.1262,340.563229"
             sodipodi:nodetypes="cc" /><path
             inkscape:connector-curvature="0"
             id="path106"
             style="fill:none;stroke:#231f20;stroke-width:5;stroke-linecap:butt;stroke-linejoin:round;stroke-miterlimit:4;stroke-opacity:1;stroke-dasharray:none"
             d="m 1796.48,-227.461 0,300.203884"
             sodipodi:nodetypes="cc" /><path
             inkscape:connector-curvature="0"
             id="path108"
             style="fill:none;stroke:#231f20;stroke-width:5;stroke-linecap:butt;stroke-linejoin:round;stroke-miterlimit:4;stroke-opacity:1;stroke-dasharray:none"
             d="m 1818.36,-205.59 0,259.844539"
             sodipodi:nodetypes="cc" /><path
             inkscape:connector-curvature="0"
             id="path110"
             style="fill:none;stroke:#231f20;stroke-width:5;stroke-linecap:butt;stroke-linejoin:round;stroke-miterlimit:4;stroke-opacity:1;stroke-dasharray:none"
             d="m 1840.22,-183.719 0.01,213.285993"
             sodipodi:nodetypes="cc" /><path
             inkscape:connector-curvature="0"
             id="path112"
             style="fill:none;stroke:#231f20;stroke-width:5;stroke-linecap:butt;stroke-linejoin:round;stroke-miterlimit:4;stroke-opacity:1;stroke-dasharray:none"
             d="m 1862.1,-161.852 0,262.454" /></g></g></g><g
       id="g114"
       transform="scale(0.1,0.1)"><g
         clip-path="url(#clipPath118)"
         id="g116"><g
           clip-path="url(#clipPath124)"
           id="g122"><path
             inkscape:connector-curvature="0"
             id="path128"
             style="fill:none;stroke:#231f20;stroke-width:5;stroke-linecap:butt;stroke-linejoin:round;stroke-miterlimit:4;stroke-opacity:1;stroke-dasharray:none"
             d="m 1118.9,-293.09 -0.01,524.922" /><path
             inkscape:connector-curvature="0"
             id="path130"
             style="fill:none;stroke:#231f20;stroke-width:5;stroke-linecap:butt;stroke-linejoin:round;stroke-miterlimit:4;stroke-opacity:1;stroke-dasharray:none"
             d="m 1140.77,-314.961 0,568.66" /><path
             inkscape:connector-curvature="0"
             id="path132"
             style="fill:none;stroke:#231f20;stroke-width:5;stroke-linecap:butt;stroke-linejoin:round;stroke-miterlimit:4;stroke-opacity:1;stroke-dasharray:none"
             d="m 1162.64,-336.82 0,612.39" /><path
             inkscape:connector-curvature="0"
             id="path134"
             style="fill:none;stroke:#231f20;stroke-width:5;stroke-linecap:butt;stroke-linejoin:round;stroke-miterlimit:4;stroke-opacity:1;stroke-dasharray:none"
             d="m 1184.51,-314.949 0,568.648" /><path
             inkscape:connector-curvature="0"
             id="path136"
             style="fill:none;stroke:#231f20;stroke-width:5;stroke-linecap:butt;stroke-linejoin:round;stroke-miterlimit:4;stroke-opacity:1;stroke-dasharray:none"
             d="m 1206.38,-293.09 0.01,524.922" /><path
             inkscape:connector-curvature="0"
             id="path138"
             style="fill:none;stroke:#231f20;stroke-width:5;stroke-linecap:butt;stroke-linejoin:round;stroke-miterlimit:4;stroke-opacity:1;stroke-dasharray:none"
             d="m 1228.25,-271.211 0.01,481.16" /><path
             inkscape:connector-curvature="0"
             id="path140"
             style="fill:none;stroke:#231f20;stroke-width:5;stroke-linecap:butt;stroke-linejoin:round;stroke-miterlimit:4;stroke-opacity:1;stroke-dasharray:none"
             d="m 1250.12,-249.34 0,437.43" /><path
             inkscape:connector-curvature="0"
             id="path142"
             style="fill:none;stroke:#231f20;stroke-width:5;stroke-linecap:butt;stroke-linejoin:round;stroke-miterlimit:4;stroke-opacity:1;stroke-dasharray:none"
             d="m 1272,-227.469 0,393.68" /><path
             inkscape:connector-curvature="0"
             id="path144"
             style="fill:none;stroke:#231f20;stroke-width:5;stroke-linecap:butt;stroke-linejoin:round;stroke-miterlimit:4;stroke-opacity:1;stroke-dasharray:none"
             d="m 1293.87,-205.602 0,349.942" /><path
             inkscape:connector-curvature="0"
             id="path146"
             style="fill:none;stroke:#231f20;stroke-width:5;stroke-linecap:butt;stroke-linejoin:round;stroke-miterlimit:4;stroke-opacity:1;stroke-dasharray:none"
             d="m 1315.74,-183.73 0,306.199" /><path
             inkscape:connector-curvature="0"
             id="path148"
             style="fill:none;stroke:#231f20;stroke-width:5;stroke-linecap:butt;stroke-linejoin:round;stroke-miterlimit:4;stroke-opacity:1;stroke-dasharray:none"
             d="m 1337.61,-161.859 0.01,262.461" /><path
             inkscape:connector-curvature="0"
             id="path150"
             style="fill:none;stroke:#231f20;stroke-width:5;stroke-linecap:butt;stroke-linejoin:round;stroke-miterlimit:4;stroke-opacity:1;stroke-dasharray:none"
             d="m 1359.48,-139.98 0,218.7105" /><path
             inkscape:connector-curvature="0"
             id="path152"
             style="fill:none;stroke:#231f20;stroke-width:5;stroke-linecap:butt;stroke-linejoin:round;stroke-miterlimit:4;stroke-opacity:1;stroke-dasharray:none"
             d="m 1381.35,-118.109 0,174.9684" /><path
             inkscape:connector-curvature="0"
             id="path154"
             style="fill:none;stroke:#231f20;stroke-width:5;stroke-linecap:butt;stroke-linejoin:round;stroke-miterlimit:4;stroke-opacity:1;stroke-dasharray:none"
             d="m 1403.23,-96.2383 0,131.2188" /></g></g></g><g
       id="g156"
       transform="scale(0.1,0.1)"><g
         clip-path="url(#clipPath160)"
         id="g158"><g
           clip-path="url(#clipPath166)"
           id="g164"><path
             inkscape:connector-curvature="0"
             id="path170"
             style="fill:none;stroke:#231f20;stroke-width:5;stroke-linecap:butt;stroke-linejoin:round;stroke-miterlimit:4;stroke-opacity:1;stroke-dasharray:none"
             d="m 1315.53,34.7812 0,393.6798" /><path
             inkscape:connector-curvature="0"
             id="path172"
             style="fill:none;stroke:#231f20;stroke-width:5;stroke-linecap:butt;stroke-linejoin:round;stroke-miterlimit:4;stroke-opacity:1;stroke-dasharray:none"
             d="m 1337.4,12.9102 0,437.4218" /><path
             inkscape:connector-curvature="0"
             id="path174"
             style="fill:none;stroke:#231f20;stroke-width:5;stroke-linecap:butt;stroke-linejoin:round;stroke-miterlimit:4;stroke-opacity:1;stroke-dasharray:none"
             d="m 1359.28,-8.96875 0,481.17975" /><path
             inkscape:connector-curvature="0"
             id="path176"
             style="fill:none;stroke:#231f20;stroke-width:5;stroke-linecap:butt;stroke-linejoin:round;stroke-miterlimit:4;stroke-opacity:1;stroke-dasharray:none"
             d="M 1381.15,-30.8398 1381.14,494.07" /><path
             inkscape:connector-curvature="0"
             id="path178"
             style="fill:none;stroke:#231f20;stroke-width:5;stroke-linecap:butt;stroke-linejoin:round;stroke-miterlimit:4;stroke-opacity:1;stroke-dasharray:none"
             d="m 1403.02,-52.7109 -0.01,568.6599" /><path
             inkscape:connector-curvature="0"
             id="path180"
             style="fill:none;stroke:#231f20;stroke-width:5;stroke-linecap:butt;stroke-linejoin:round;stroke-miterlimit:4;stroke-opacity:1;stroke-dasharray:none"
             d="m 1424.89,-74.5781 0,612.3981" /><path
             inkscape:connector-curvature="0"
             id="path182"
             style="fill:none;stroke:#231f20;stroke-width:5;stroke-linecap:butt;stroke-linejoin:round;stroke-miterlimit:4;stroke-opacity:1;stroke-dasharray:none"
             d="m 1446.76,-52.7109 0,568.6599" /><path
             inkscape:connector-curvature="0"
             id="path184"
             style="fill:none;stroke:#231f20;stroke-width:5;stroke-linecap:butt;stroke-linejoin:round;stroke-miterlimit:4;stroke-opacity:1;stroke-dasharray:none"
             d="m 1468.63,-30.8398 0,524.9098" /><path
             inkscape:connector-curvature="0"
             id="path186"
             style="fill:none;stroke:#231f20;stroke-width:5;stroke-linecap:butt;stroke-linejoin:round;stroke-miterlimit:4;stroke-opacity:1;stroke-dasharray:none"
             d="m 1490.5,-8.96875 0.01,481.16775" /><path
             inkscape:connector-curvature="0"
             id="path188"
             style="fill:none;stroke:#231f20;stroke-width:5;stroke-linecap:butt;stroke-linejoin:round;stroke-miterlimit:4;stroke-opacity:1;stroke-dasharray:none"
             d="m 1512.37,12.9102 0,437.4218" /><path
             inkscape:connector-curvature="0"
             id="path190"
             style="fill:none;stroke:#231f20;stroke-width:5;stroke-linecap:butt;stroke-linejoin:round;stroke-miterlimit:4;stroke-opacity:1;stroke-dasharray:none"
             d="m 1534.24,34.7812 0,393.6798" /><path
             inkscape:connector-curvature="0"
             id="path192"
             style="fill:none;stroke:#231f20;stroke-width:5;stroke-linecap:butt;stroke-linejoin:round;stroke-miterlimit:4;stroke-opacity:1;stroke-dasharray:none"
             d="m 1556.12,56.6484 0,349.9416" /><path
             inkscape:connector-curvature="0"
             id="path194"
             style="fill:none;stroke:#231f20;stroke-width:5;stroke-linecap:butt;stroke-linejoin:round;stroke-miterlimit:4;stroke-opacity:1;stroke-dasharray:none"
             d="m 1577.98,78.5195 0.01,306.1995" /><path
             inkscape:connector-curvature="0"
             id="path196"
             style="fill:none;stroke:#231f20;stroke-width:5;stroke-linecap:butt;stroke-linejoin:round;stroke-miterlimit:4;stroke-opacity:1;stroke-dasharray:none"
             d="m 1599.86,100.391 0,262.449" /><path
             inkscape:connector-curvature="0"
             id="path198"
             style="fill:none;stroke:#231f20;stroke-width:5;stroke-linecap:butt;stroke-linejoin:round;stroke-miterlimit:4;stroke-opacity:1;stroke-dasharray:none"
             d="m 1621.73,122.262 -0.5631,35.14442"
             sodipodi:nodetypes="cc" /></g></g></g><text
       transform="scale(1,-1)"
       id="text202"
       y="-84.764801"><tspan
         style="font-size:7.5px;font-variant:normal;font-weight:normal;writing-mode:lr-tb;fill:#231f20;fill-opacity:1;fill-rule:nonzero;stroke:none;font-family:Helvetica;-inkscape-font-specification:Helvetica"
         x="0 5.415 9.5847254 11.444882 15.614882 18.299648 24.547148 28.717148 30.802147 32.467148 36.637146 40.807148 42.892147 47.062149"
         y="-84.764801"
         sodipodi:role="line"
         id="tspan204"
         dy="2.1099999">Deformation or</tspan><tspan
         style="font-size:7.5px;font-variant:normal;font-weight:normal;writing-mode:lr-tb;fill:#231f20;fill-opacity:1;fill-rule:nonzero;stroke:none;font-family:Helvetica;-inkscape-font-specification:Helvetica"
         x="2.6624999 6.4124999 8.0775003 12.2475 15.9975 20.1675 24.3375"
         sodipodi:role="line"
         id="tspan206">sinkage</tspan><tspan
         style="font-size:7.5px;font-variant:normal;font-weight:normal;writing-mode:lr-tb;fill:#231f20;fill-opacity:1;fill-rule:nonzero;stroke:none;font-family:Helvetica;-inkscape-font-specification:Helvetica"
         x="0 2.4974999 6.4420314 10.192031 14.362031 18.532032 22.702032 26.87225 29.294514 33.464516 35.549515 39.719513 43.889515"
         y="-68.763245"
         sodipodi:role="line"
         id="tspan208">(exaggerated)</tspan><tspan
         style="font-size:7.5px;font-variant:normal;font-weight:normal;writing-mode:lr-tb;fill:#231f20;fill-opacity:1;fill-rule:nonzero;stroke:none;font-family:Helvetica;-inkscape-font-specification:Helvetica"
         x="122.567"
         y="-54.763245"
         id="tspan210">L</tspan></text>
<text
       transform="scale(1,-1)"
       id="text212"
       x="126.736"
       y="-52.764805"><tspan
         style="font-size:5.5px;font-variant:normal;font-weight:normal;writing-mode:lr-tb;fill:#231f20;fill-opacity:1;fill-rule:nonzero;stroke:none;font-family:Helvetica;-inkscape-font-specification:Helvetica"
         x="126.736 130.707"
         y="-52.764805"
         sodipodi:role="line"
         id="tspan214">CL</tspan></text>
<text
       transform="scale(1,-1)"
       id="text216"
       x="147.748"
       y="-39.964802"><tspan
         style="font-size:7.5px;font-variant:normal;font-weight:normal;writing-mode:lr-tb;fill:#231f20;fill-opacity:1;fill-rule:nonzero;stroke:none;font-family:Helvetica;-inkscape-font-specification:Helvetica"
         x="147.748"
         y="-39.964802"
         id="tspan218">L</tspan><tspan
         style="font-size:7.5px;font-variant:normal;font-weight:normal;writing-mode:lr-tb;fill:#231f20;fill-opacity:1;fill-rule:nonzero;stroke:none;font-family:Helvetica;-inkscape-font-specification:Helvetica"
         x="160.5"
         y="-52.298"
         id="tspan220">L</tspan></text>
<text
       transform="scale(1,-1)"
       id="text222"
       x="164.66901"
       y="-50.298"><tspan
         style="font-size:5.5px;font-variant:normal;font-weight:normal;writing-mode:lr-tb;fill:#231f20;fill-opacity:1;fill-rule:nonzero;stroke:none;font-family:Helvetica;-inkscape-font-specification:Helvetica"
         x="164.66901 168.64"
         y="-50.298"
         sodipodi:role="line"
         id="tspan224">CL</tspan></text>
<text
       transform="scale(1,-1)"
       id="text226"
       x="171.7"
       y="-51.098091"><tspan
         style="font-size:7.5px;font-variant:normal;font-weight:normal;writing-mode:lr-tb;fill:#231f20;fill-opacity:1;fill-rule:nonzero;stroke:none;font-family:Helvetica;-inkscape-font-specification:Helvetica"
         x="171.7 173.785"
         y="-51.098091"
         sodipodi:role="line"
         id="tspan228">/4</tspan><tspan
         style="font-size:7.5px;font-variant:normal;font-weight:normal;writing-mode:lr-tb;fill:#231f20;fill-opacity:1;fill-rule:nonzero;stroke:none;font-family:Helvetica;-inkscape-font-specification:Helvetica"
         sodipodi:role="line"
         id="tspan230"
         x="171.7"
         y="-32.348091" /><tspan
         style="font-size:7.5px;font-variant:normal;font-weight:normal;writing-mode:lr-tb;fill:#231f20;fill-opacity:1;fill-rule:nonzero;stroke:none;font-family:Helvetica;-inkscape-font-specification:Helvetica"
         x="171.7"
         sodipodi:role="line"
         id="tspan3924"
         y="-22.973091" /><tspan
         style="font-size:7.5px;font-variant:normal;font-weight:normal;writing-mode:lr-tb;fill:#231f20;fill-opacity:1;fill-rule:nonzero;stroke:none;font-family:Helvetica;-inkscape-font-specification:Helvetica"
         x="21.832996 27.248005 31.418003 33.082996 37.252995 39.338001 41.002659 44.565151 48.735149 50.820148 53.317654 57.487652 61.65765 65.407646 67.492645 69.157646 73.327652 77.49765 79.582619 81.449806 85.619804 88.117302 91.867302"
         y="-8.0980949"
         sodipodi:role="line"
         id="tspan3920" /><tspan
         style="font-size:7.5px;font-variant:normal;font-weight:normal;writing-mode:lr-tb;fill:#231f20;fill-opacity:1;fill-rule:nonzero;stroke:none;font-family:Helvetica;-inkscape-font-specification:Helvetica"
         x="232.5 234.58499 238.755 242.505 244.59 248.75999 252.93001 255.015 259.185 263.35501 267.52594 271.69592 275.86591"
         y="-87.76487"
         sodipodi:role="line"
         id="tspan232">Instantaneous</tspan><tspan
         style="font-size:7.5px;font-variant:normal;font-weight:normal;writing-mode:lr-tb;fill:#231f20;fill-opacity:1;fill-rule:nonzero;stroke:none;font-family:Helvetica;-inkscape-font-specification:Helvetica"
         x="232.5 236.25 240.42 244.59 246.675 250.845 253.34303 255.42804 259.59805 261.68304 263.76804 267.51804 271.68805 275.85803 280.02805 284.19876 286.9968"
         y="-79.76487"
         sodipodi:role="line"
         id="tspan234">center of support</tspan><tspan
         style="font-size:7.5px;font-variant:normal;font-weight:normal;writing-mode:lr-tb;fill:#231f20;fill-opacity:1;fill-rule:nonzero;stroke:none;font-family:Helvetica;-inkscape-font-specification:Helvetica"
         x="232.5 236.67 239.1675 243.33841 247.08841 250.83841 255.00841 257.50589"
         y="-71.76487"
         sodipodi:role="line"
         id="tspan236">pressure</tspan><tspan
         style="font-size:7.5px;font-variant:normal;font-weight:normal;writing-mode:lr-tb;fill:#231f20;fill-opacity:1;fill-rule:nonzero;stroke:none;font-family:Helvetica;-inkscape-font-specification:Helvetica"
         x="219.83279 224.83476 227.33279 231.50279 235.67281 239.8428 241.5078 245.2578 246.92323 250.48613 254.65613 256.74127 258.60141 262.77142 265.26892 269.01892"
         y="-127.43047"
         sodipodi:role="line"
         id="tspan238">Propulsive force</tspan><tspan
         style="font-size:7.5px;font-variant:normal;font-weight:normal;writing-mode:lr-tb;fill:#231f20;fill-opacity:1;fill-rule:nonzero;stroke:none;font-family:Helvetica;-inkscape-font-specification:Helvetica"
         x="213.16718 218.58218 222.63922 228.05421 232.22394 237.5341 241.70412 244.20161 248.37161 250.45773 252.31671 256.48669 258.98474 262.73474 266.90475 268.98975 273.15976 277.32974 279.41473 284.82974 288.99976 293.16974 297.33975"
         y="-162.68047"
         sodipodi:role="line"
         id="tspan240">Downward force on wheel</tspan></text>
<text
       transform="scale(1,-1)"
       id="text248"
       x="163.6066"
       y="-127.59119"><tspan
         style="font-size:7.5px;font-variant:normal;font-weight:normal;writing-mode:lr-tb;fill:#231f20;fill-opacity:1;fill-rule:nonzero;stroke:none;font-family:Helvetica;-inkscape-font-specification:Helvetica"
         x="163.6066"
         y="-127.59119"
         id="tspan250">F</tspan></text>
<text
       transform="scale(1,-1)"
       id="text252"
       x="166.6685"
       y="-125.031"><tspan
         style="font-size:5.5px;font-variant:normal;font-weight:normal;writing-mode:lr-tb;fill:#231f20;fill-opacity:1;fill-rule:nonzero;stroke:none;font-family:Helvetica;-inkscape-font-specification:Helvetica"
         x="166.6685"
         y="-125.031"
         id="tspan254">R</tspan></text>
<text
       transform="scale(1,-1)"
       id="text256"
       x="152.23299"
       y="-165.297"><tspan
         style="font-size:7.5px;font-variant:normal;font-weight:normal;writing-mode:lr-tb;fill:#231f20;fill-opacity:1;fill-rule:nonzero;stroke:none;font-family:Helvetica;-inkscape-font-specification:Helvetica"
         x="152.23299"
         y="-165.297"
         id="tspan258">F</tspan></text>
<text
       transform="scale(1,-1)"
       id="text260"
       x="156.81599"
       y="-163.297"><tspan
         style="font-size:5.5px;font-variant:normal;font-weight:normal;writing-mode:lr-tb;fill:#231f20;fill-opacity:1;fill-rule:nonzero;stroke:none;font-family:Helvetica;-inkscape-font-specification:Helvetica"
         x="156.81599"
         y="-163.297"
         id="tspan262">V</tspan></text>
<path
       inkscape:connector-curvature="0"
       id="path264"
       style="fill:none;stroke:#231f20;stroke-width:1;stroke-linecap:butt;stroke-linejoin:miter;stroke-miterlimit:4;stroke-opacity:1;stroke-dasharray:none"
       d="m 205.165,130.363 c 0,-31.48 -25.52,-56.9989 -56.999,-56.9989 -31.48,0 -57,25.5189 -57,56.9989 0,31.481 25.52,57 57,57 31.479,0 56.999,-25.519 56.999,-57 z" /><path
       inkscape:connector-curvature="0"
       id="path266"
       style="fill:none;stroke:#231f20;stroke-width:0.5;stroke-linecap:round;stroke-linejoin:round;stroke-miterlimit:4;stroke-opacity:1;stroke-dasharray:none"
       d="m 186.058,1.4443951 0,84.3410379 42.108,0" /><path
       inkscape:connector-curvature="0"
       id="path268"
       style="fill:none;stroke:#231f20;stroke-width:1;stroke-linecap:round;stroke-linejoin:round;stroke-miterlimit:4;stroke-opacity:1;stroke-dasharray:none"
       d="m 110.9584,85.429735 c 10.16782,-8.433162 23.00332,-13.46563 36.95708,-13.46563 14.23256,0 27.80096,5.236676 38.06338,13.978087" /><path
       inkscape:connector-curvature="0"
       id="path270"
       style="fill:none;stroke:#231f20;stroke-width:0.5;stroke-linecap:round;stroke-linejoin:round;stroke-miterlimit:4;stroke-opacity:1;stroke-dasharray:none"
       d="m 110.719,0.85799512 0,84.51795288 -57.553,0" /><path
       inkscape:connector-curvature="0"
       id="path272"
       style="fill:none;stroke:#231f20;stroke-width:0.5;stroke-linecap:round;stroke-linejoin:round;stroke-miterlimit:4;stroke-opacity:1;stroke-dasharray:none"
       d="m 140.166,72.0969 -87.666,0" /><path
       inkscape:connector-curvature="0"
       id="path274"
       style="fill:none;stroke:#231f20;stroke-width:0.5;stroke-linecap:round;stroke-linejoin:round;stroke-miterlimit:4;stroke-opacity:1;stroke-dasharray:none"
       d="m 217.499,0.380859 -128.6658,0" /><path
       inkscape:connector-curvature="0"
       id="path276"
       style="fill:none;stroke:#231f20;stroke-width:0.5;stroke-linecap:round;stroke-linejoin:round;stroke-miterlimit:4;stroke-opacity:1;stroke-dasharray:none"
       d="m 148.166,58.2969 0,76.3331" /><path
       inkscape:connector-curvature="0"
       id="path278"
       style="fill:none;stroke:#231f20;stroke-width:1;stroke-linecap:butt;stroke-linejoin:miter;stroke-miterlimit:4;stroke-opacity:1;stroke-dasharray:none"
       d="m 148.166,137.613 0,73.416" /><path
       inkscape:connector-curvature="0"
       id="path280"
       style="fill:#231f20;fill-opacity:1;fill-rule:nonzero;stroke:none"
       d="m 148.166,138.48 3.062,1.863 0.069,-0.105 -1.983,-4.994 c -0.383,-1.74 -0.765,-3.479 -1.148,-5.219 -0.383,1.74 -0.766,3.479 -1.149,5.219 l -1.983,4.994 0.052,0.105 3.08,-1.863" /><path
       inkscape:connector-curvature="0"
       id="path282"
       style="fill:none;stroke:#231f20;stroke-width:1;stroke-linecap:butt;stroke-linejoin:miter;stroke-miterlimit:4;stroke-opacity:1;stroke-dasharray:none"
       d="m 159.22075,130.025 -11.48128,0" /><path
       inkscape:connector-curvature="0"
       id="path284"
       style="fill:#231f20;fill-opacity:1;fill-rule:nonzero;stroke:none"
       d="m 154.98829,130.02301 -1.51709,-2.59571 0.0855,-0.0585 4.06894,1.68132 c 1.41687,0.32372 2.83456,0.64829 4.25225,0.97286 -1.41769,0.32457 -2.83538,0.6483 -4.25225,0.97287 l -4.06894,1.68132 -0.0855,-0.0449 1.51709,-2.60928" /><path
       inkscape:connector-curvature="0"
       id="path286"
       style="fill:none;stroke:#231f20;stroke-width:0.5;stroke-linecap:round;stroke-linejoin:round;stroke-miterlimit:4;stroke-opacity:1;stroke-dasharray:none"
       d="m 148.166,128.425 8.083,-50.8281" /><path
       inkscape:connector-curvature="0"
       id="path288"
       style="fill:#231f20;fill-opacity:1;fill-rule:nonzero;stroke:none"
       d="m 156.164,78.1 1.594,1.3801 0.051,-0.0539 -0.662,-3.091 c -0.051,-1.0461 -0.103,-2.093 -0.154,-3.1391 -0.393,0.9711 -0.785,1.943 -1.178,2.9141 l -1.64,2.7019 0.02,0.066 1.969,-0.7781" /><path
       inkscape:connector-curvature="0"
       id="path290"
       style="fill:none;stroke:#231f20;stroke-width:0.5;stroke-linecap:round;stroke-linejoin:round;stroke-miterlimit:4;stroke-opacity:1;stroke-dasharray:none"
       d="m 157.4732,74.7961 21.29637,14.234 52.11933,0" /><path
       inkscape:connector-curvature="0"
       id="path292"
       style="fill:none;stroke:#231f20;stroke-width:0.5;stroke-linecap:round;stroke-linejoin:round;stroke-miterlimit:4;stroke-opacity:1;stroke-dasharray:none"
       d="m 173.11048,129.697 43.21503,0" /><path
       inkscape:connector-curvature="0"
       id="path294"
       style="fill:none;stroke:#231f20;stroke-width:0.49999997;stroke-linecap:round;stroke-linejoin:round;stroke-miterlimit:4;stroke-opacity:1;stroke-dasharray:none"
       d="m 163.1767,165.63 47.86584,0" /><path
       inkscape:connector-curvature="0"
       id="path296"
       style="fill:none;stroke:#231f20;stroke-width:0.5;stroke-linecap:round;stroke-linejoin:round;stroke-miterlimit:4;stroke-opacity:1;stroke-dasharray:none"
       d="m 64.5,103.963 0,-14.6661" /><path
       inkscape:connector-curvature="0"
       id="path298"
       style="fill:#231f20;fill-opacity:1;fill-rule:nonzero;stroke:none"
       d="m 64.5,90.447395 1.8012,1.0961 0.041,-0.0621 -1.1672,-2.9379 c -0.225,-1.023 -0.45,-2.0461 -0.675,-3.0699 -0.2258,1.0238 -0.4508,2.0469 -0.6758,3.0699 l -1.1672,2.9379 0.0313,0.0621 1.8117,-1.0961" /><path
       inkscape:connector-curvature="0"
       id="path300"
       style="fill:none;stroke:#231f20;stroke-width:0.5;stroke-linecap:round;stroke-linejoin:round;stroke-miterlimit:4;stroke-opacity:1;stroke-dasharray:none"
       d="m 64.5,54.6488 0,14.6672" /><path
       inkscape:connector-curvature="0"
       id="path302"
       style="fill:#231f20;fill-opacity:1;fill-rule:nonzero;stroke:none"
       d="m 64.5,67.2059 1.8012,-1.0957 0.041,0.0617 -1.1672,2.9371 C 64.95,70.1328 64.725,71.1559 64.5,72.1801 64.2742,71.1559 64.0492,70.1328 63.8242,69.109 L 62.657,66.1719 62.6883,66.1102 64.5,67.2059" /><path
       inkscape:connector-curvature="0"
       id="path304"
       style="fill:none;stroke:#231f20;stroke-width:0.5;stroke-linecap:round;stroke-linejoin:round;stroke-miterlimit:4;stroke-opacity:1;stroke-dasharray:none"
       d="m 156.5916,0.26337913 0,21.42093987" /><path
       inkscape:connector-curvature="0"
       id="path306"
       style="fill:#231f20;fill-opacity:1;fill-rule:nonzero;stroke:none"
       d="m 156.5922,21.6719 1.802,-1.0949 0.041,0.0621 -1.1668,2.9371 c -0.225,1.0226 -0.45,2.0468 -0.6762,3.0699 -0.225,-1.0231 -0.45,-2.0473 -0.675,-3.0699 l -1.1668,-2.9371 0.0309,-0.0621 1.8109,1.0949" /><path
       inkscape:connector-curvature="0"
       id="path308"
       style="fill:none;stroke:#231f20;stroke-width:0.99999994;stroke-linecap:butt;stroke-linejoin:miter;stroke-miterlimit:4;stroke-opacity:1;stroke-dasharray:none"
       d="M 110.916,0.66553331 C 131.41819,9.9683207 164.85398,29.976363 186.166,0.298047"
       sodipodi:nodetypes="cc" /><path
       inkscape:connector-curvature="0"
       id="path310"
       style="fill:none;stroke:#231f20;stroke-width:0.5;stroke-linecap:round;stroke-linejoin:round;stroke-miterlimit:4;stroke-opacity:1;stroke-dasharray:none"
       d="m 156.999,71.9641 0,-13.5" /><path
       inkscape:connector-curvature="0"
       id="path312"
       style="fill:none;stroke:#231f20;stroke-width:0.5;stroke-linecap:round;stroke-linejoin:round;stroke-miterlimit:4;stroke-opacity:1;stroke-dasharray:none"
       d="m 115.249,65.9641 28.25,0" /><path
       inkscape:connector-curvature="0"
       id="path314"
       style="fill:#231f20;fill-opacity:1;fill-rule:nonzero;stroke:none"
       d="m 142.989,65.9641 -1.095,1.8007 0.061,0.0411 2.938,-1.1668 c 1.023,-0.225 2.046,-0.45 3.07,-0.675 -1.024,-0.225 -2.047,-0.4512 -3.07,-0.6762 l -2.938,-1.1668 -0.061,0.0309 1.095,1.8121" /><path
       inkscape:connector-curvature="0"
       id="path316"
       style="fill:#231f20;fill-opacity:1;fill-rule:nonzero;stroke:none"
       d="m 115.76,65.9641 1.095,-1.802 -0.062,-0.041 -2.937,1.1668 c -1.024,0.225 -2.047,0.45 -3.071,0.6762 1.024,0.225 2.047,0.45 3.071,0.675 l 2.937,1.1668 0.062,-0.0309 -1.095,-1.8109" /><path
       inkscape:connector-curvature="0"
       id="path318"
       style="fill:none;stroke:#231f20;stroke-width:0.5;stroke-linecap:round;stroke-linejoin:round;stroke-miterlimit:4;stroke-opacity:1;stroke-dasharray:none"
       d="m 161.499,65.9641 14.75,0" /><path
       inkscape:connector-curvature="0"
       id="path320"
       style="fill:#231f20;fill-opacity:1;fill-rule:nonzero;stroke:none"
       d="m 162.009,65.9641 1.095,-1.802 -0.061,-0.041 -2.938,1.1668 c -1.023,0.225 -2.046,0.45 -3.07,0.6762 1.024,0.225 2.047,0.45 3.07,0.675 l 2.938,1.1668 0.061,-0.0309 -1.095,-1.8109" /><path
       inkscape:connector-curvature="0"
       id="path322"
       style="fill:none;stroke:#231f20;stroke-width:0.5;stroke-linecap:round;stroke-linejoin:round;stroke-miterlimit:4;stroke-opacity:1;stroke-dasharray:none"
       d="m 115.499,42.4641 29,0" /><path
       inkscape:connector-curvature="0"
       id="path324"
       style="fill:#231f20;fill-opacity:1;fill-rule:nonzero;stroke:none"
       d="m 116.01,42.4641 1.095,-1.802 -0.062,-0.041 -2.937,1.1668 c -1.024,0.2262 -2.047,0.45 -3.071,0.6762 1.024,0.225 2.047,0.45 3.071,0.6757 l 2.937,1.1661 0.062,-0.0309 -1.095,-1.8109" /><path
       inkscape:connector-curvature="0"
       id="path326"
       style="fill:none;stroke:#231f20;stroke-width:0.5;stroke-linecap:round;stroke-linejoin:round;stroke-miterlimit:4;stroke-opacity:1;stroke-dasharray:none"
       d="m 181.535,42.4641 -29,0" /><path
       inkscape:connector-curvature="0"
       id="path328"
       style="fill:#231f20;fill-opacity:1;fill-rule:nonzero;stroke:none"
       d="m 181.024,42.4641 -1.094,-1.802 0.061,-0.041 2.938,1.1668 c 1.023,0.2262 2.046,0.45 3.07,0.6762 -1.024,0.225 -2.047,0.45 -3.07,0.6757 l -2.938,1.1661 -0.061,-0.0309 1.094,-1.8109" /><text
       y="-77.936958"
       x="59.204964"
       id="text3470"
       transform="scale(1,-1)"><tspan
         id="tspan3472"
         sodipodi:role="line"
         style="font-size:5.5px;font-variant:normal;font-weight:normal;writing-mode:lr-tb;fill:#231f20;fill-opacity:1;fill-rule:nonzero;stroke:none;font-family:Helvetica;-inkscape-font-specification:Helvetica"
         x="59.204964"
         y="-77.936958"><tspan
           style="font-size:6.4000001px"
           id="tspan3476">y</tspan><tspan
           style="font-size:4.80000019px;baseline-shift:sub"
           id="tspan3474">WS</tspan></tspan></text>
<text
       y="-33.674103"
       x="132.15123"
       id="text3478"
       transform="scale(1,-1)"><tspan
         id="tspan3480"
         sodipodi:role="line"
         style="font-size:5.5px;font-variant:normal;font-weight:normal;writing-mode:lr-tb;fill:#231f20;fill-opacity:1;fill-rule:nonzero;stroke:none;font-family:Helvetica;-inkscape-font-specification:Helvetica"
         x="132.15123"
         y="-33.674103"><tspan
   style="font-size:6.4000001px"
   id="tspan3482">(exaggerated</tspan>)</tspan></text>
<path
       d="m 110.92705,85.43631 -57.702045,0"
       style="fill:none;stroke:#231f20;stroke-width:1.0006299;stroke-linecap:round;stroke-linejoin:round;stroke-miterlimit:4;stroke-opacity:1;stroke-dasharray:none"
       id="path3916"
       inkscape:connector-curvature="0" /><path
       inkscape:connector-curvature="0"
       id="path3918"
       style="fill:none;stroke:#231f20;stroke-width:1.0006299;stroke-linecap:round;stroke-linejoin:round;stroke-miterlimit:4;stroke-opacity:1;stroke-dasharray:none"
       d="m 228.05047,85.803692 -41.76623,0" /><text
       transform="scale(1,-1)"
       id="text3928"
       x="200.95149"
       y="-19.274101"><tspan
         y="-19.274101"
         x="200.95149"
         style="font-size:7.19999981px;font-variant:normal;font-weight:normal;writing-mode:lr-tb;fill:#231f20;fill-opacity:1;fill-rule:nonzero;stroke:none;font-family:Helvetica;-inkscape-font-specification:Helvetica"
         sodipodi:role="line"
         id="tspan3930">Relative reaction force</tspan><tspan
         y="-10.274101"
         x="200.95149"
         style="font-size:7.19999981px;font-variant:normal;font-weight:normal;writing-mode:lr-tb;fill:#231f20;fill-opacity:1;fill-rule:nonzero;stroke:none;font-family:Helvetica;-inkscape-font-specification:Helvetica"
         sodipodi:role="line"
         id="tspan3938">(not to scale)</tspan></text>
<path
       d="m 162.20668,20.897 35.10412,0"
       style="fill:none;stroke:#231f20;stroke-width:0.5;stroke-linecap:round;stroke-linejoin:round;stroke-miterlimit:4;stroke-opacity:1;stroke-dasharray:none"
       id="path3942"
       inkscape:connector-curvature="0" /></g></svg>