<?xml version="1.0" encoding="UTF-8" standalone="no"?>
<!-- Created with Inkscape (http://www.inkscape.org/) -->

<svg
   xmlns:dc="http://purl.org/dc/elements/1.1/"
   xmlns:cc="http://creativecommons.org/ns#"
   xmlns:rdf="http://www.w3.org/1999/02/22-rdf-syntax-ns#"
   xmlns:svg="http://www.w3.org/2000/svg"
   xmlns="http://www.w3.org/2000/svg"
   xmlns:sodipodi="http://sodipodi.sourceforge.net/DTD/sodipodi-0.dtd"
   xmlns:inkscape="http://www.inkscape.org/namespaces/inkscape"
   id="svg2"
   version="1.1"
   inkscape:version="0.48.4 r9939"
   width="317.2"
   height="313.675"
   xml:space="preserve"
   sodipodi:docname="Wilson_005_fig_003_ex004.eps"><metadata
     id="metadata8"><rdf:RDF><cc:Work
         rdf:about=""><dc:format>image/svg+xml</dc:format><dc:type
           rdf:resource="http://purl.org/dc/dcmitype/StillImage" /><dc:title></dc:title></cc:Work></rdf:RDF></metadata><defs
     id="defs6"><clipPath
       clipPathUnits="userSpaceOnUse"
       id="clipPath18"><path
         d="m 0,0 2537.57,0 0,2509 L 0,2509 0,0 z"
         id="path20" /></clipPath></defs><sodipodi:namedview
     pagecolor="#ffffff"
     bordercolor="#666666"
     borderopacity="1"
     objecttolerance="10"
     gridtolerance="10"
     guidetolerance="10"
     inkscape:pageopacity="0"
     inkscape:pageshadow="2"
     inkscape:window-width="1920"
     inkscape:window-height="1139"
     id="namedview4"
     showgrid="false"
     inkscape:zoom="2.1280269"
     inkscape:cx="158.60001"
     inkscape:cy="156.83749"
     inkscape:window-x="-4"
     inkscape:window-y="-4"
     inkscape:window-maximized="1"
     inkscape:current-layer="g10" /><g
     id="g10"
     inkscape:groupmode="layer"
     inkscape:label="ink_ext_XXXXXX"
     transform="matrix(1.25,0,0,-1.25,0,313.675)"><g
       id="g22"><text
         id="text24"
         transform="matrix(1,0,0,-1,34.1508,102.937)"><tspan
           id="tspan26"
           sodipodi:role="line"
           y="0"
           x="0 4.1700001 6.2550001"
           style="font-size:7.5px;font-variant:normal;font-weight:normal;writing-mode:lr-tb;fill:#231f20;fill-opacity:1;fill-rule:nonzero;stroke:none;font-family:Helvetica;-inkscape-font-specification:Helvetica">0.5</tspan><tspan
           id="tspan28"
           y="87.75"
           x="6.2550802"
           style="font-size:7.5px;font-variant:normal;font-weight:normal;writing-mode:lr-tb;fill:#231f20;fill-opacity:1;fill-rule:nonzero;stroke:none;font-family:Helvetica;-inkscape-font-specification:Helvetica">0</tspan><tspan
           id="tspan30"
           sodipodi:role="line"
           y="93.249222"
           x="10.58985 51.705074 55.875076 57.960232 94.702431 98.872429 100.9571 137.19695 141.36694 143.45195"
           style="font-size:7.5px;font-variant:normal;font-weight:normal;writing-mode:lr-tb;fill:#231f20;fill-opacity:1;fill-rule:nonzero;stroke:none;font-family:Helvetica;-inkscape-font-specification:Helvetica">00.51.01.5</tspan></text>
</g><path
       inkscape:connector-curvature="0"
       id="path32"
       style="fill:none;stroke:#231f20;stroke-width:0.5;stroke-linecap:butt;stroke-linejoin:miter;stroke-miterlimit:4;stroke-opacity:1;stroke-dasharray:none"
       d="m 46.8262,114.936 0,-97.4989 157.2488,0" /><path
       inkscape:connector-curvature="0"
       id="path34"
       style="fill:none;stroke:#231f20;stroke-width:0.5;stroke-linecap:butt;stroke-linejoin:miter;stroke-miterlimit:4;stroke-opacity:1;stroke-dasharray:none"
       d="m 46.8262,105.186 3.25,0" /><path
       inkscape:connector-curvature="0"
       id="path36"
       style="fill:none;stroke:#231f20;stroke-width:0.5;stroke-linecap:butt;stroke-linejoin:miter;stroke-miterlimit:4;stroke-opacity:1;stroke-dasharray:none"
       d="m 46.8262,87.4359 3.25,0" /><path
       inkscape:connector-curvature="0"
       id="path38"
       style="fill:none;stroke:#231f20;stroke-width:0.5;stroke-linecap:butt;stroke-linejoin:miter;stroke-miterlimit:4;stroke-opacity:1;stroke-dasharray:none"
       d="m 46.8262,69.6859 3.25,0" /><path
       inkscape:connector-curvature="0"
       id="path40"
       style="fill:none;stroke:#231f20;stroke-width:0.5;stroke-linecap:butt;stroke-linejoin:miter;stroke-miterlimit:4;stroke-opacity:1;stroke-dasharray:none"
       d="m 46.8262,51.9371 3.25,0" /><path
       inkscape:connector-curvature="0"
       id="path42"
       style="fill:none;stroke:#231f20;stroke-width:0.5;stroke-linecap:butt;stroke-linejoin:miter;stroke-miterlimit:4;stroke-opacity:1;stroke-dasharray:none"
       d="m 46.8262,34.1871 3.25,0" /><path
       inkscape:connector-curvature="0"
       id="path44"
       style="fill:none;stroke:#231f20;stroke-width:0.5;stroke-linecap:butt;stroke-linejoin:miter;stroke-miterlimit:4;stroke-opacity:1;stroke-dasharray:none"
       d="m 91.2012,17.8121 0,3.25" /><path
       inkscape:connector-curvature="0"
       id="path46"
       style="fill:none;stroke:#231f20;stroke-width:0.5;stroke-linecap:butt;stroke-linejoin:miter;stroke-miterlimit:4;stroke-opacity:1;stroke-dasharray:none"
       d="m 133.95,17.8121 0,3.25" /><path
       inkscape:connector-curvature="0"
       id="path48"
       style="fill:none;stroke:#231f20;stroke-width:0.5;stroke-linecap:butt;stroke-linejoin:miter;stroke-miterlimit:4;stroke-opacity:1;stroke-dasharray:none"
       d="m 176.7,17.8121 0,219.1239" /><path
       inkscape:connector-curvature="0"
       id="path50"
       style="fill:none;stroke:#231f20;stroke-width:1;stroke-linecap:butt;stroke-linejoin:miter;stroke-miterlimit:4;stroke-opacity:1;stroke-dasharray:none"
       d="M 47.0762,98.1859 176.325,117.186" /><path
       inkscape:connector-curvature="0"
       id="path52"
       style="fill:none;stroke:#231f20;stroke-width:1;stroke-linecap:butt;stroke-linejoin:miter;stroke-miterlimit:4;stroke-opacity:1;stroke-dasharray:none"
       d="m 47.0762,40.6871 129.7488,-13.5" /><text
       transform="scale(1,-1)"
       id="text56"
       x="94.189796"
       y="-90.687103"><tspan
         style="font-size:7.5px;font-variant:normal;font-weight:normal;writing-mode:lr-tb;fill:#231f20;fill-opacity:1;fill-rule:nonzero;stroke:none;font-family:Helvetica;-inkscape-font-specification:Helvetica"
         x="94.189796"
         y="-90.687103"
         id="tspan58">C</tspan></text>
<text
       transform="scale(1,-1)"
       id="text60"
       x="99.605103"
       y="-88.687103"><tspan
         style="font-size:5.5px;font-variant:normal;font-weight:normal;writing-mode:lr-tb;fill:#231f20;fill-opacity:1;fill-rule:nonzero;stroke:none;font-family:Helvetica;-inkscape-font-specification:Helvetica"
         x="99.605103"
         y="-88.687103"
         id="tspan62">D</tspan></text>
<text
       transform="scale(1,-1)"
       id="text64"
       x="77.678497"
       y="-44.187901"><tspan
         style="font-size:7.5px;font-variant:normal;font-weight:normal;writing-mode:lr-tb;fill:#231f20;fill-opacity:1;fill-rule:nonzero;stroke:none;font-family:Helvetica;-inkscape-font-specification:Helvetica"
         x="77.678497"
         y="-44.187901"
         id="tspan66">C</tspan></text>
<text
       transform="matrix(0,1,1,0,0,0)"
       id="text76"
       x="36.173"
       y="30.325399"><tspan
         style="font-size:7.5px;font-variant:normal;font-weight:normal;writing-mode:lr-tb;fill:#231f20;fill-opacity:1;fill-rule:nonzero;stroke:none;font-family:Helvetica;-inkscape-font-specification:Helvetica"
         x="36.173 41.588001 44.010265 48.180264 52.350266 54.435265 58.185265 62.355263 66.525261 68.61026 70.695267 72.36026 76.11026 77.775261 81.945267 86.115265"
         y="30.325399"
         sodipodi:role="line"
         id="tspan78">Drag coefficient</tspan></text>
<text
       transform="scale(1,-1)"
       id="text80"
       x="109.24"
       y="-243.187"><tspan
         style="font-size:7.5px;font-variant:normal;font-weight:normal;writing-mode:lr-tb;fill:#231f20;fill-opacity:1;fill-rule:nonzero;stroke:none;font-family:Helvetica;-inkscape-font-specification:Helvetica"
         x="239.86801"
         y="-190.687"
         id="tspan84">d</tspan></text>
<path
       inkscape:connector-curvature="0"
       id="path86"
       style="fill:none;stroke:#231f20;stroke-width:1;stroke-linecap:butt;stroke-linejoin:miter;stroke-miterlimit:4;stroke-opacity:1;stroke-dasharray:none"
       d="m 176.825,147.436 c 24.577,0 44.5,19.923 44.5,44.5 0,24.576 -19.923,44.5 -44.5,44.5 l -130.4988,0 c -24.5774,0 -44.50003,-19.924 -44.50003,-44.5 0,-24.577 19.92263,-44.5 44.50003,-44.5 l 130.4988,0 z" /><path
       inkscape:connector-curvature="0"
       id="path88"
       style="fill:none;stroke:#231f20;stroke-width:0.5;stroke-linecap:butt;stroke-linejoin:miter;stroke-miterlimit:4;stroke-opacity:1;stroke-dasharray:none"
       d="m 46.3262,236.436 0,-89" /><path
       inkscape:connector-curvature="0"
       id="path90"
       style="fill:none;stroke:#231f20;stroke-width:0.5;stroke-linecap:butt;stroke-linejoin:miter;stroke-miterlimit:4;stroke-opacity:1;stroke-dasharray:none"
       d="m 46.0762,238.936 0,11.749" /><path
       inkscape:connector-curvature="0"
       id="path92"
       style="fill:none;stroke:#231f20;stroke-width:0.5;stroke-linecap:butt;stroke-linejoin:miter;stroke-miterlimit:4;stroke-opacity:1;stroke-dasharray:none"
       d="m 176.325,238.936 0,11.749" /><path
       inkscape:connector-curvature="0"
       id="path94"
       style="fill:none;stroke:#231f20;stroke-width:0.5;stroke-linecap:butt;stroke-linejoin:miter;stroke-miterlimit:4;stroke-opacity:1;stroke-dasharray:none"
       d="m 105.825,244.935 -55.2488,0" /><path
       inkscape:connector-curvature="0"
       id="path96"
       style="fill:#231f20;fill-opacity:1;fill-rule:nonzero;stroke:none"
       d="m 51.0859,244.935 1.095,-1.801 -0.061,-0.041 -2.9379,1.167 c -1.023,0.225 -2.0468,0.45 -3.0699,0.675 1.0231,0.226 2.0469,0.451 3.0699,0.676 l 2.9379,1.167 0.061,-0.031 -1.095,-1.812" /><path
       inkscape:connector-curvature="0"
       id="path98"
       style="fill:none;stroke:#231f20;stroke-width:0.5;stroke-linecap:butt;stroke-linejoin:miter;stroke-miterlimit:4;stroke-opacity:1;stroke-dasharray:none"
       d="m 115.825,244.935 56.036,0" /><path
       inkscape:connector-curvature="0"
       id="path100"
       style="fill:#231f20;fill-opacity:1;fill-rule:nonzero;stroke:none"
       d="m 171.351,244.935 -1.095,-1.801 0.061,-0.041 2.938,1.167 c 1.023,0.225 2.047,0.45 3.07,0.675 -1.023,0.226 -2.047,0.451 -3.07,0.676 l -2.938,1.167 -0.061,-0.031 1.095,-1.812" /><path
       inkscape:connector-curvature="0"
       id="path102"
       style="fill:none;stroke:#231f20;stroke-width:0.30000001;stroke-linecap:butt;stroke-linejoin:miter;stroke-miterlimit:4;stroke-opacity:1;stroke-dasharray:12, 2, 4, 2;stroke-dashoffset:0"
       d="m -0.423828,192.186 228.498828,0" /><path
       inkscape:connector-curvature="0"
       id="path104"
       style="fill:none;stroke:#231f20;stroke-width:0.5;stroke-linecap:butt;stroke-linejoin:miter;stroke-miterlimit:4;stroke-opacity:1;stroke-dasharray:none"
       d="m 191.075,236.686 62.25,0" /><path
       inkscape:connector-curvature="0"
       id="path106"
       style="fill:none;stroke:#231f20;stroke-width:0.5;stroke-linecap:butt;stroke-linejoin:miter;stroke-miterlimit:4;stroke-opacity:1;stroke-dasharray:none"
       d="m 191.075,147.686 62.25,0" /><path
       inkscape:connector-curvature="0"
       id="path108"
       style="fill:none;stroke:#231f20;stroke-width:0.5;stroke-linecap:butt;stroke-linejoin:miter;stroke-miterlimit:4;stroke-opacity:1;stroke-dasharray:none"
       d="m 242.325,188.436 0,-36.5" /><path
       inkscape:connector-curvature="0"
       id="path110"
       style="fill:#231f20;fill-opacity:1;fill-rule:nonzero;stroke:none"
       d="m 242.325,152.446 1.802,1.095 0.04,-0.061 -1.166,-2.938 c -0.226,-1.023 -0.451,-2.046 -0.676,-3.07 -0.225,1.024 -0.45,2.047 -0.676,3.07 l -1.166,2.938 0.03,0.061 1.812,-1.095" /><path
       inkscape:connector-curvature="0"
       id="path112"
       style="fill:none;stroke:#231f20;stroke-width:0.5;stroke-linecap:butt;stroke-linejoin:miter;stroke-miterlimit:4;stroke-opacity:1;stroke-dasharray:none"
       d="m 242.325,197.186 0,35.036" /><path
       inkscape:connector-curvature="0"
       id="path114"
       style="fill:#231f20;fill-opacity:1;fill-rule:nonzero;stroke:none"
       d="m 242.325,231.711 1.802,-1.095 0.04,0.062 -1.166,2.937 c -0.226,1.024 -0.451,2.047 -0.676,3.071 -0.225,-1.024 -0.45,-2.047 -0.676,-3.071 l -1.166,-2.937 0.03,-0.062 1.812,1.095" /><path
       inkscape:connector-curvature="0"
       id="path116"
       style="fill:none;stroke:#231f20;stroke-width:0.5;stroke-linecap:butt;stroke-linejoin:miter;stroke-miterlimit:4;stroke-opacity:1;stroke-dasharray:none"
       d="m 101.492,95.1859 4.667,8.0001" /><path
       inkscape:connector-curvature="0"
       id="path118"
       style="fill:#231f20;fill-opacity:1;fill-rule:nonzero;stroke:none"
       d="m 105.902,102.745 -2.108,-0.038 -0.004,0.074 2.488,1.949 c 0.71,0.771 1.42,1.542 2.13,2.312 -0.321,-0.997 -0.642,-1.995 -0.963,-2.992 l -0.473,-3.125 -0.057,-0.039 -1.013,1.859" /><path
       inkscape:connector-curvature="0"
       id="path120"
       style="fill:none;stroke:#231f20;stroke-width:0.5;stroke-linecap:butt;stroke-linejoin:miter;stroke-miterlimit:4;stroke-opacity:1;stroke-dasharray:none"
       d="m 98.4922,42.4371 4.9998,-4.334" /><path
       inkscape:connector-curvature="0"
       id="path122"
       style="fill:#231f20;fill-opacity:1;fill-rule:nonzero;stroke:none"
       d="m 103.106,38.4371 0.353,2.0789 0.073,-0.0101 1.456,-2.8047 c 0.626,-0.841 1.252,-1.6813 1.877,-2.5211 -0.92,0.5 -1.841,1 -2.762,1.5 l -2.985,1.0418 -0.026,0.064 2.014,0.6512" /><text
       y="-295.44196"
       x="-20.457613"
       id="text3270"
       transform="scale(1,-1)"><tspan
         id="tspan3272"
         y="-242.94199"
         x="110.1704"
         style="font-size:7.5px;font-variant:normal;font-weight:normal;writing-mode:lr-tb;fill:#231f20;fill-opacity:1;fill-rule:nonzero;stroke:none;font-family:Helvetica;-inkscape-font-specification:Helvetica">l</tspan></text>
<text
       y="-54.467575"
       x="22.398989"
       id="text3282"
       transform="scale(1,-1)"><tspan
         id="tspan3284"
         y="-1.9675742"
         x="153.02701"
         style="font-size:7.5px;font-variant:normal;font-weight:normal;writing-mode:lr-tb;fill:#231f20;fill-opacity:1;fill-rule:nonzero;stroke:none;font-family:Helvetica;-inkscape-font-specification:Helvetica">(above shape)</tspan></text>
<text
       transform="scale(1,-1)"
       id="text3286"
       x="-98.276184"
       y="-54.84351"><tspan
         style="font-size:7.5px;font-variant:normal;font-weight:normal;writing-mode:lr-tb;fill:#231f20;fill-opacity:1;fill-rule:nonzero;stroke:none;font-family:Helvetica;-inkscape-font-specification:Helvetica"
         x="32.351841"
         y="-2.3435094"
         id="tspan3288">(sphere)</tspan></text>
<text
       y="-55.219448"
       x="-24.96884"
       id="text3290"
       transform="scale(1,-1)"><tspan
         id="tspan3292"
         y="-2.7194445"
         x="105.65919"
         style="font-size:7.5px;font-variant:normal;font-weight:normal;writing-mode:lr-tb;fill:#231f20;fill-opacity:1;fill-rule:nonzero;stroke:none;font-family:Helvetica;-inkscape-font-specification:Helvetica">(l/d)</tspan></text>
<text
       y="-42.447086"
       x="83.439896"
       id="text3294"
       transform="scale(1,-1)"><tspan
         id="tspan3296"
         y="-42.447086"
         x="83.439896"
         style="font-size:5.5px;font-variant:normal;font-weight:normal;writing-mode:lr-tb;fill:#231f20;fill-opacity:1;fill-rule:nonzero;stroke:none;font-family:Helvetica;-inkscape-font-specification:Helvetica">D,SA</tspan></text>
</g></svg>