<?xml version="1.0" encoding="UTF-8" standalone="no"?>
<!-- Created with Inkscape (http://www.inkscape.org/) -->

<svg
   xmlns:dc="http://purl.org/dc/elements/1.1/"
   xmlns:cc="http://creativecommons.org/ns#"
   xmlns:rdf="http://www.w3.org/1999/02/22-rdf-syntax-ns#"
   xmlns:svg="http://www.w3.org/2000/svg"
   xmlns="http://www.w3.org/2000/svg"
   xmlns:sodipodi="http://sodipodi.sourceforge.net/DTD/sodipodi-0.dtd"
   xmlns:inkscape="http://www.inkscape.org/namespaces/inkscape"
   id="svg2"
   version="1.1"
   inkscape:version="0.48.4 r9939"
   width="307.46024"
   height="159.00681"
   xml:space="preserve"
   sodipodi:docname="Wilson_007_fig_009_ex12.8.eps"><metadata
     id="metadata8"><rdf:RDF><cc:Work
         rdf:about=""><dc:format>image/svg+xml</dc:format><dc:type
           rdf:resource="http://purl.org/dc/dcmitype/StillImage" /><dc:title></dc:title></cc:Work></rdf:RDF></metadata><defs
     id="defs6"><clipPath
       clipPathUnits="userSpaceOnUse"
       id="clipPath18"><path
         d="m 0,0 2135,0 0,2459.74 -2135,0 L 0,0 z"
         id="path20"
         inkscape:connector-curvature="0" /></clipPath></defs><sodipodi:namedview
     pagecolor="#ffffff"
     bordercolor="#666666"
     borderopacity="1"
     objecttolerance="10"
     gridtolerance="10"
     guidetolerance="10"
     inkscape:pageopacity="0"
     inkscape:pageshadow="2"
     inkscape:window-width="1920"
     inkscape:window-height="1139"
     id="namedview4"
     showgrid="false"
     showguides="true"
     inkscape:guide-bbox="true"
     fit-margin-top="5"
     fit-margin-left="5"
     fit-margin-bottom="5"
     fit-margin-right="5"
     inkscape:zoom="3.0702932"
     inkscape:cx="135.94435"
     inkscape:cy="14.256499"
     inkscape:window-x="-4"
     inkscape:window-y="-4"
     inkscape:window-maximized="1"
     inkscape:current-layer="g10" /><g
     id="g10"
     inkscape:groupmode="layer"
     inkscape:label="ink_ext_XXXXXX"
     transform="matrix(1.25,0,0,-1.25,23.161034,292.44969)"><path
       inkscape:connector-curvature="0"
       id="path22"
       style="fill:none;stroke:#231f20;stroke-width:2;stroke-linecap:butt;stroke-linejoin:miter;stroke-miterlimit:4;stroke-opacity:1;stroke-dasharray:none"
       d="m 185.01825,142.60907 c 18.578,0 32.866,12.75 32.866,34.85 0,24.366 -19.411,43.74807 -42.5,47.03322 -6.19,0.87969 -49.784,9.51602 -84.999002,-28.90002 -6.234,-6.8 -32.2999,-20.9672 -46.4659,-1.1332 -7.682,10.7551 -17.5672,16.9992 -26.634,16.9992" /><path
       inkscape:connector-curvature="0"
       id="path24"
       style="fill:none;stroke:#231f20;stroke-width:0.5;stroke-linecap:butt;stroke-linejoin:miter;stroke-miterlimit:4;stroke-opacity:1;stroke-dasharray:none"
       d="m 175.92325,228.27901 -0.896,0.13594 c -33.727,5.2332 -64.79,-5.50586 -87.462002,-30.23788 -3.39,-3.6981 -14.7279,-10.6617 -25.574,-10.0008 -6.1629,0.375 -11.1961,3.2367 -14.9602,8.5059 -8.4429,11.8211 -19.2859,18.6011 -29.7457,18.6011 l 0,-7.65 c 7.841,0 16.6348,-5.7562 23.5207,-15.398 5.0973,-7.1359 12.2614,-11.1801 20.7203,-11.6949 13.0829,-0.7981 26.6369,6.9679 31.6779,12.4668 20.889002,22.7871 49.530002,32.67692 80.649002,27.84801 l 0.993,-0.15 c 22.356,-3.18081 39.213,-21.77191 39.213,-43.24611 0,-18.8469 -11.398,-31.025 -29.041,-31.025 l 0,-7.65 c 21.946,0 36.691,15.5422 36.691,38.675 0,25.2582 -19.682,47.10627 -45.786,50.81994 z" /><path
       inkscape:connector-curvature="0"
       id="path26"
       style="fill:none;stroke:#231f20;stroke-width:2;stroke-linecap:butt;stroke-linejoin:miter;stroke-miterlimit:4;stroke-opacity:1;stroke-dasharray:none"
       d="m 185.15925,142.60907 -8.2,0" /><path
       inkscape:connector-curvature="0"
       id="path28"
       style="fill:none;stroke:#231f20;stroke-width:2;stroke-linecap:butt;stroke-linejoin:miter;stroke-miterlimit:4;stroke-opacity:1;stroke-dasharray:none"
       d="m 17.285348,211.45827 -11.05,0" /><path
       inkscape:connector-curvature="0"
       id="path30"
       style="fill:#231f20;fill-opacity:1;fill-rule:nonzero;stroke:none"
       d="m 175.25925,140.05907 c -1.407,0 -2.55,1.1422 -2.55,2.55 0,1.4082 1.143,2.5492 2.55,2.5492 1.409,0 2.55,-1.141 2.55,-2.5492 0,-1.4078 -1.141,-2.55 -2.55,-2.55" /><path
       inkscape:connector-curvature="0"
       id="path32"
       style="fill:none;stroke:#231f20;stroke-width:1;stroke-linecap:butt;stroke-linejoin:miter;stroke-miterlimit:4;stroke-opacity:1;stroke-dasharray:none"
       d="m 175.25925,140.05907 c -1.407,0 -2.55,1.1422 -2.55,2.55 0,1.4082 1.143,2.5492 2.55,2.5492 1.409,0 2.55,-1.141 2.55,-2.5492 0,-1.4078 -1.141,-2.55 -2.55,-2.55 z" /><path
       inkscape:connector-curvature="0"
       id="path34"
       style="fill:#231f20;fill-opacity:1;fill-rule:nonzero;stroke:none"
       d="m 4.535348,209.12117 c -1.4082,0 -2.55,1.1418 -2.55,2.55 0,1.4078 1.1418,2.55 2.55,2.55 1.4078,0 2.55,-1.1422 2.55,-2.55 0,-1.4082 -1.1422,-2.55 -2.55,-2.55" /><path
       inkscape:connector-curvature="0"
       id="path36"
       style="fill:none;stroke:#231f20;stroke-width:1;stroke-linecap:butt;stroke-linejoin:miter;stroke-miterlimit:4;stroke-opacity:1;stroke-dasharray:none"
       d="m 4.535348,209.12117 c -1.4082,0 -2.55,1.1418 -2.55,2.55 0,1.4078 1.1418,2.55 2.55,2.55 1.4078,0 2.55,-1.1422 2.55,-2.55 0,-1.4082 -1.1422,-2.55 -2.55,-2.55 z" /><path
       inkscape:connector-curvature="0"
       id="path38"
       style="fill:none;stroke:#231f20;stroke-width:1;stroke-linecap:butt;stroke-linejoin:miter;stroke-miterlimit:4;stroke-opacity:1;stroke-dasharray:none"
       d="m 172.70925,142.60907 -13.457,0" /><path
       inkscape:connector-curvature="0"
       id="path40"
       style="fill:#231f20;fill-opacity:1;fill-rule:nonzero;stroke:none"
       d="m 159.90225,142.60907 1.396,-2.2969 -0.078,-0.0519 -3.745,1.4867 c -1.305,0.2871 -2.611,0.575 -3.914,0.8621 1.303,0.2871 2.609,0.5742 3.914,0.861 l 3.745,1.4882 0.078,-0.0402 -1.396,-2.309" /><path
       inkscape:connector-curvature="0"
       id="path44"
       style="fill:#231f20;fill-opacity:1;fill-rule:nonzero;stroke:none"
       d="m -13.131827,211.83194 -1.397,-2.297 0.079,-0.052 3.745,1.487 c 1.3050001,0.288 2.6100001,0.575 3.9150001,0.862 -1.305,0.287 -2.61,0.574 -3.9150001,0.861 l -3.745,1.4882 -0.079,-0.0398 1.397,-2.3094" /><path
       inkscape:connector-curvature="0"
       id="path46"
       style="fill:none;stroke:#231f20;stroke-width:1.12708735;stroke-linecap:butt;stroke-linejoin:miter;stroke-miterlimit:4;stroke-opacity:1;stroke-dasharray:none"
       d="m 3.975185,211.74227 -17.096276,0" /><text
       transform="scale(1,-1)"
       id="text52"
       x="161.47978"
       y="-149.20746"><tspan
         style="font-size:7.5px;font-variant:normal;font-weight:normal;writing-mode:lr-tb;fill:#231f20;fill-opacity:1;fill-rule:nonzero;stroke:none;font-family:Helvetica;-inkscape-font-specification:Helvetica"
         x="161.47978"
         y="-149.20746"
         id="tspan54">F</tspan></text>
<text
       transform="scale(1,-1)"
       id="text56"
       x="-6.1689148"
       y="-214.17175"><tspan
         style="font-size:5.5px;font-variant:normal;font-weight:normal;writing-mode:lr-tb;fill:#231f20;fill-opacity:1;fill-rule:nonzero;stroke:none;font-family:Helvetica;-inkscape-font-specification:Helvetica"
         x="-6.1689148"
         y="-214.17175"
         id="tspan58">2</tspan></text>
<text
       transform="scale(1,-1)"
       id="text60"
       x="-9.4515934"
       y="-217.09641"><tspan
         style="font-size:7.5px;font-variant:normal;font-weight:normal;writing-mode:lr-tb;fill:#231f20;fill-opacity:1;fill-rule:nonzero;stroke:none;font-family:Helvetica;-inkscape-font-specification:Helvetica"
         x="-9.4515934"
         y="-217.09641"
         id="tspan62">F</tspan></text>
<text
       transform="scale(1,-1)"
       id="text64"
       x="164.75711"
       y="-146.56874"><tspan
         style="font-size:5.5px;font-variant:normal;font-weight:normal;writing-mode:lr-tb;fill:#231f20;fill-opacity:1;fill-rule:nonzero;stroke:none;font-family:Helvetica;-inkscape-font-specification:Helvetica"
         x="164.75711"
         y="-146.56874"
         id="tspan66">1</tspan></text>
<text
       transform="scale(1,-1)"
       id="text68"
       x="36.583691"
       y="-144.84888"><tspan
         style="font-size:7.5px;font-variant:normal;font-weight:normal;writing-mode:lr-tb;fill:#231f20;fill-opacity:1;fill-rule:nonzero;stroke:none;font-family:Helvetica;-inkscape-font-specification:Helvetica"
         x="36.583691"
         y="-144.84888"
         id="tspan70">F</tspan></text>
<text
       transform="scale(1,-1)"
       id="text72"
       x="41.165691"
       y="-142.84888"><tspan
         style="font-size:5.5px;font-variant:normal;font-weight:normal;writing-mode:lr-tb;fill:#231f20;fill-opacity:1;fill-rule:nonzero;stroke:none;font-family:Helvetica;-inkscape-font-specification:Helvetica"
         x="41.165691"
         y="-142.84888"
         id="tspan74">1</tspan></text>
<text
       transform="scale(1,-1)"
       id="text76"
       x="36.583691"
       y="-131.84888"><tspan
         style="font-size:7.5px;font-variant:normal;font-weight:normal;writing-mode:lr-tb;fill:#231f20;fill-opacity:1;fill-rule:nonzero;stroke:none;font-family:Helvetica;-inkscape-font-specification:Helvetica"
         x="36.583691"
         y="-131.84888"
         id="tspan78">F</tspan></text>
<text
       transform="scale(1,-1)"
       id="text80"
       x="41.165691"
       y="-129.84888"><tspan
         style="font-size:5.5px;font-variant:normal;font-weight:normal;writing-mode:lr-tb;fill:#231f20;fill-opacity:1;fill-rule:nonzero;stroke:none;font-family:Helvetica;-inkscape-font-specification:Helvetica"
         x="41.165691"
         y="-129.84888"
         id="tspan82">2</tspan></text>
<text
       transform="scale(1,-1)"
       id="text84"
       x="64.380363"
       y="-195.15956"><tspan
         style="font-size:7.5px;font-variant:normal;font-weight:normal;writing-mode:lr-tb;fill:#231f20;fill-opacity:1;fill-rule:nonzero;stroke:none;font-family:Symbol;-inkscape-font-specification:Symbol"
         x="64.380363"
         y="-195.15956"
         id="tspan86">θ</tspan></text>
<text
       transform="scale(1,-1)"
       id="text88"
       x="68.548317"
       y="-193.02928"><tspan
         style="font-size:5.5px;font-variant:normal;font-weight:normal;writing-mode:lr-tb;fill:#231f20;fill-opacity:1;fill-rule:nonzero;stroke:none;font-family:Helvetica;-inkscape-font-specification:Helvetica"
         x="68.548317"
         y="-193.02928"
         id="tspan90">2</tspan></text>
<text
       transform="scale(1,-1)"
       id="text92"
       x="196.93735"
       y="-180.57387"><tspan
         style="font-size:7.5px;font-variant:normal;font-weight:normal;writing-mode:lr-tb;fill:#231f20;fill-opacity:1;fill-rule:nonzero;stroke:none;font-family:Symbol;-inkscape-font-specification:Symbol"
         x="196.93735"
         y="-180.57387"
         id="tspan94">θ</tspan></text>
<text
       transform="scale(1,-1)"
       id="text96"
       x="200.84476"
       y="-178.57387"><tspan
         style="font-size:5.5px;font-variant:normal;font-weight:normal;writing-mode:lr-tb;fill:#231f20;fill-opacity:1;fill-rule:nonzero;stroke:none;font-family:Helvetica;-inkscape-font-specification:Helvetica"
         x="200.84476"
         y="-178.57387"
         id="tspan98">4</tspan></text>
<text
       transform="scale(1,-1)"
       id="text100"
       x="138.4048"
       y="-190.00813"><tspan
         style="font-size:7.5px;font-variant:normal;font-weight:normal;writing-mode:lr-tb;fill:#231f20;fill-opacity:1;fill-rule:nonzero;stroke:none;font-family:Symbol;-inkscape-font-specification:Symbol"
         x="138.4048"
         y="-190.00813"
         id="tspan102">θ</tspan></text>
<text
       transform="scale(1,-1)"
       id="text104"
       x="142.31219"
       y="-188.00813"><tspan
         style="font-size:5.5px;font-variant:normal;font-weight:normal;writing-mode:lr-tb;fill:#231f20;fill-opacity:1;fill-rule:nonzero;stroke:none;font-family:Helvetica;-inkscape-font-specification:Helvetica"
         x="142.31219"
         y="-188.00813"
         id="tspan106">3</tspan></text>
<text
       transform="scale(1,-1)"
       id="text108"
       x="29.434772"
       y="-168.74979"><tspan
         style="font-size:7.5px;font-variant:normal;font-weight:normal;writing-mode:lr-tb;fill:#231f20;fill-opacity:1;fill-rule:nonzero;stroke:none;font-family:Symbol;-inkscape-font-specification:Symbol"
         x="29.434772"
         y="-168.74979"
         id="tspan110">θ</tspan></text>
<text
       transform="scale(1,-1)"
       id="text112"
       x="33.342167"
       y="-166.74979"><tspan
         style="font-size:5.5px;font-variant:normal;font-weight:normal;writing-mode:lr-tb;fill:#231f20;fill-opacity:1;fill-rule:nonzero;stroke:none;font-family:Helvetica;-inkscape-font-specification:Helvetica"
         x="33.342167"
         y="-166.74979"
         id="tspan114">1</tspan></text>
<path
       inkscape:connector-curvature="0"
       id="path116"
       style="fill:none;stroke:#231f20;stroke-width:0.5;stroke-linecap:butt;stroke-linejoin:miter;stroke-miterlimit:4;stroke-opacity:1;stroke-dasharray:none"
       d="m 180.84725,147.26727 0,68" /><path
       inkscape:connector-curvature="0"
       id="path118"
       style="fill:none;stroke:#231f20;stroke-width:0.5;stroke-linecap:butt;stroke-linejoin:miter;stroke-miterlimit:4;stroke-opacity:1;stroke-dasharray:none"
       d="m 176.68025,198.60007 c -6,2.334 -45.667,8.8332 -72.333,-19.5" /><path
       inkscape:connector-curvature="0"
       id="path120"
       style="fill:#231f20;fill-opacity:1;fill-rule:nonzero;stroke:none"
       d="m 104.69725,179.47197 2.062,-0.4367 -0.012,-0.0731 -2.863,-1.3402 c -0.866,-0.5906 -1.731,-1.1809 -2.597,-1.7719 0.538,0.8993 1.076,1.7981 1.613,2.6981 l 1.164,2.939 0.064,0.0239 0.569,-2.0391" /><path
       inkscape:connector-curvature="0"
       id="path122"
       style="fill:#231f20;fill-opacity:1;fill-rule:nonzero;stroke:none"
       d="m 176.20525,198.78527 -0.368,2.0758 0.072,0.016 2.316,-2.152 c 0.871,-0.5808 1.743,-1.1621 2.615,-1.7429 -1.035,0.1609 -2.07,0.3218 -3.106,0.4832 l -3.161,-0.0223 -0.046,0.0512 1.678,1.291" /><path
       inkscape:connector-curvature="0"
       id="path124"
       style="fill:none;stroke:#231f20;stroke-width:0.33181086;stroke-linecap:butt;stroke-linejoin:miter;stroke-miterlimit:4;stroke-opacity:1;stroke-dasharray:none"
       d="M 90.804188,189.96956 109.28232,164.94625" /><path
       inkscape:connector-curvature="0"
       id="path126"
       style="fill:none;stroke:#231f20;stroke-width:0.5;stroke-linecap:butt;stroke-linejoin:miter;stroke-miterlimit:4;stroke-opacity:1;stroke-dasharray:none"
       d="m 70.093013,221.76078 16.0222,-23.87114" /><path
       inkscape:connector-curvature="0"
       id="path128"
       style="fill:none;stroke:#231f20;stroke-width:0.5;stroke-linecap:butt;stroke-linejoin:miter;stroke-miterlimit:4;stroke-opacity:1;stroke-dasharray:none"
       d="m 38.381048,193.31607 -18.8668,-13.382 0,40.33322" /><path
       inkscape:connector-curvature="0"
       id="path130"
       style="fill:none;stroke:#231f20;stroke-width:0.5;stroke-linecap:butt;stroke-linejoin:miter;stroke-miterlimit:4;stroke-opacity:1;stroke-dasharray:none"
       d="m 76.847048,220.6001 -29.6418,-21.02503" /><path
       inkscape:connector-curvature="0"
       id="path132"
       style="fill:none;stroke:#231f20;stroke-width:0.5;stroke-linecap:butt;stroke-linejoin:miter;stroke-miterlimit:4;stroke-opacity:1;stroke-dasharray:none"
       d="m 23.450248,199.26607 c 3.6461,-0.6871 6.932,-2.3988 9.5449,-4.825" /><path
       inkscape:connector-curvature="0"
       id="path134"
       style="fill:#231f20;fill-opacity:1;fill-rule:nonzero;stroke:none"
       d="m 32.621348,194.78797 0.423,2.066 0.0719,-0.0129 1.3601,-2.8531 c 0.5969,-0.8609 1.1938,-1.7219 1.7899,-2.584 -0.9031,0.5321 -1.8059,1.0633 -2.709,1.5942 l -2.9469,1.1429 -0.0242,0.0653 2.0352,0.5816" /><path
       inkscape:connector-curvature="0"
       id="path136"
       style="fill:#231f20;fill-opacity:1;fill-rule:nonzero;stroke:none"
       d="m 23.951348,199.17117 0.743,-1.973 -0.068,-0.0289 -2.6711,1.691 c -0.964,0.4109 -1.9281,0.8219 -2.8921,1.2328 1.048,0.0313 2.0953,0.0633 3.1429,0.0949 l 3.1024,0.6024 0.0547,-0.041 -1.4118,-1.5782" /><path
       inkscape:connector-curvature="0"
       id="path138"
       style="fill:none;stroke:#231f20;stroke-width:0.5;stroke-linecap:butt;stroke-linejoin:miter;stroke-miterlimit:4;stroke-opacity:1;stroke-dasharray:none"
       d="m 28.181048,197.60007 c 0,0 -0.6668,-4.666 2.666,-21.666" /><path
       inkscape:connector-curvature="0"
       id="path140"
       style="fill:none;stroke:#231f20;stroke-width:0.5;stroke-linecap:butt;stroke-linejoin:miter;stroke-miterlimit:4;stroke-opacity:1;stroke-dasharray:none"
       d="m 77.841248,201.73327 c -1.584,-0.466 -3.259,-0.716 -4.9942,-0.716 -4.0257,0 -7.7367,1.3457 -10.7066,3.6141" /><path
       inkscape:connector-curvature="0"
       id="path142"
       style="fill:#231f20;fill-opacity:1;fill-rule:nonzero;stroke:none"
       d="m 62.545148,204.32117 -0.2219,-2.0961 -0.0738,0.004 -1.6274,2.7102 c -0.6769,0.8 -1.3539,1.6 -2.0308,2.4 0.9512,-0.4422 1.9012,-0.884 2.8512,-1.3262 l 3.0429,-0.8539 0.0301,-0.0621 -1.9703,-0.7758" /><path
       inkscape:connector-curvature="0"
       id="path144"
       style="fill:#231f20;fill-opacity:1;fill-rule:nonzero;stroke:none"
       d="m 77.351348,201.58917 -1.5589,1.4191 0.048,0.0559 3.1469,-0.2898 c 1.0449,0.0726 2.091,0.1457 3.1359,0.2187 -0.918,-0.5051 -1.8359,-1.0098 -2.7551,-1.5148 l -2.489,-1.9481 -0.0668,0.0121 0.539,2.0469" /><path
       inkscape:connector-curvature="0"
       id="path146"
       style="fill:none;stroke:#231f20;stroke-width:0.5;stroke-linecap:butt;stroke-linejoin:miter;stroke-miterlimit:4;stroke-opacity:1;stroke-dasharray:none"
       d="m 185.49125,195.36927 c 5.061,-1.7789 8.689,-6.6 8.689,-12.2692 0,-5.63 -3.578,-10.4238 -8.586,-12.2308" /><path
       inkscape:connector-curvature="0"
       id="path148"
       style="fill:#231f20;fill-opacity:1;fill-rule:nonzero;stroke:none"
       d="m 186.07525,171.04227 1.641,-1.323 -0.045,-0.059 -3.159,0.1 c -1.039,-0.1352 -2.078,-0.2711 -3.117,-0.4063 0.886,0.559 1.773,1.118 2.659,1.6774 l 2.366,2.0949 0.069,-0.008 -0.414,-2.0758" /><path
       inkscape:connector-curvature="0"
       id="path150"
       style="fill:#231f20;fill-opacity:1;fill-rule:nonzero;stroke:none"
       d="m 185.97225,195.20007 0.437,-2.0629 -0.073,-0.0179 -2.384,2.0738 c -0.891,0.552 -1.782,1.1039 -2.673,1.6563 1.041,-0.1274 2.082,-0.2543 3.121,-0.3813 l 3.159,0.127 0.047,-0.05 -1.634,-1.345" /><path
       inkscape:connector-curvature="0"
       id="path152"
       style="fill:none;stroke:#231f20;stroke-width:0.5;stroke-linecap:butt;stroke-linejoin:miter;stroke-miterlimit:4;stroke-opacity:1;stroke-dasharray:none"
       d="m 172.69309,119.89784 6.96358,17.70088"
       sodipodi:nodetypes="cc" /><path
       inkscape:connector-curvature="0"
       id="path154"
       style="fill:#231f20;fill-opacity:1;fill-rule:nonzero;stroke:none"
       d="m 179.59043,137.33224 -2.07659,-0.35776 -0.0154,0.072 2.16185,2.30468 c 0.58481,0.87005 1.16966,1.7396 1.75557,2.60855 -0.16673,-1.03465 -0.33346,-2.06931 -0.49719,-3.1038 l 0.007,-3.16162 -0.0522,-0.0458 -1.28291,1.68369" /><path
       inkscape:connector-curvature="0"
       id="path156"
       style="fill:none;stroke:#231f20;stroke-width:0.5;stroke-linecap:butt;stroke-linejoin:miter;stroke-miterlimit:4;stroke-opacity:1;stroke-dasharray:none"
       d="m 211.79855,119.71517 -8.28245,19.25247"
       sodipodi:nodetypes="cc" /><path
       inkscape:connector-curvature="0"
       id="path158"
       style="fill:#231f20;fill-opacity:1;fill-rule:nonzero;stroke:none"
       d="m 203.80065,138.35033 -1.122,-1.7848 -0.064,0.0367 -0.269,3.1493 c -0.257,1.016 -0.514,2.032 -0.77,3.0488 0.659,-0.8149 1.318,-1.6301 1.977,-2.4449 l 2.359,-2.1051 0,-0.0688 -2.111,0.1688" /><g
       id="g3881"
       transform="matrix(0,1,-1,0,141.18793,34.936337)"><path
         d="m 104.68125,107.26787 0,-13.001"
         style="fill:none;stroke:#231f20;stroke-width:0.5;stroke-linecap:butt;stroke-linejoin:miter;stroke-miterlimit:4;stroke-opacity:1;stroke-dasharray:none"
         id="path170"
         inkscape:connector-curvature="0" /><g
         transform="matrix(0,-1,1,0,-17.017752,229.95987)"
         id="g172"><text
           transform="matrix(1,0,0,-1,139.027,120.032)"
           id="text174"><tspan
             style="font-size:7.5px;font-variant:normal;font-weight:normal;writing-mode:lr-tb;fill:#231f20;fill-opacity:1;fill-rule:nonzero;stroke:none;font-family:Helvetica;-inkscape-font-specification:Helvetica"
             x="0 4.3800001 6.4650002"
             y="0"
             sodipodi:role="line"
             id="tspan176">= e</tspan></text>
<text
           transform="matrix(1,0,0,-1,150.693,124.032)"
           id="text178"><tspan
             style="font-size:7.5px;font-variant:normal;font-weight:normal;writing-mode:lr-tb;fill:#231f20;fill-opacity:1;fill-rule:nonzero;stroke:none;font-family:Symbol;-inkscape-font-specification:Symbol"
             x="0"
             y="0"
             id="tspan180">µ</tspan></text>
<text
           transform="matrix(1,0,0,-1,155.01409,124.032)"
           id="text182"><tspan
             style="font-size:7.5px;font-variant:normal;font-weight:normal;writing-mode:lr-tb;fill:#231f20;fill-opacity:1;fill-rule:nonzero;stroke:none;font-family:Helvetica;-inkscape-font-specification:Helvetica"
             x="0"
             y="0"
             id="tspan184">(</tspan></text>
<text
           transform="matrix(1,0,0,-1,157.51214,124.032)"
           id="text186"><tspan
             style="font-size:7.5px;font-variant:normal;font-weight:normal;writing-mode:lr-tb;fill:#231f20;fill-opacity:1;fill-rule:nonzero;stroke:none;font-family:Symbol;-inkscape-font-specification:Symbol"
             x="0"
             y="0"
             id="tspan188">θ</tspan></text>
<text
           transform="matrix(1,0,0,-1,161.418,122.033)"
           id="text190"><tspan
             style="font-size:5.5px;font-variant:normal;font-weight:normal;writing-mode:lr-tb;fill:#231f20;fill-opacity:1;fill-rule:nonzero;stroke:none;font-family:Helvetica;-inkscape-font-specification:Helvetica"
             x="0"
             y="0"
             id="tspan192">1</tspan></text>
<text
           transform="matrix(1,0,0,-1,166.562,124.033)"
           id="text194"><tspan
             style="font-size:7.5px;font-variant:normal;font-weight:normal;writing-mode:lr-tb;fill:#231f20;fill-opacity:1;fill-rule:nonzero;stroke:none;font-family:Helvetica;-inkscape-font-specification:Helvetica"
             x="0 4.3800001"
             y="0"
             sodipodi:role="line"
             id="tspan196">+ </tspan></text>
<text
           transform="matrix(1,0,0,-1,173.02622,124.033)"
           id="text198"><tspan
             style="font-size:7.5px;font-variant:normal;font-weight:normal;writing-mode:lr-tb;fill:#231f20;fill-opacity:1;fill-rule:nonzero;stroke:none;font-family:Symbol;-inkscape-font-specification:Symbol"
             x="0"
             y="0"
             id="tspan200">θ</tspan></text>
<text
           transform="matrix(1,0,0,-1,176.934,122.033)"
           id="text202"><tspan
             style="font-size:5.5px;font-variant:normal;font-weight:normal;writing-mode:lr-tb;fill:#231f20;fill-opacity:1;fill-rule:nonzero;stroke:none;font-family:Helvetica;-inkscape-font-specification:Helvetica"
             x="0"
             y="0"
             id="tspan204">2</tspan></text>
<text
           transform="matrix(1,0,0,-1,182.076,124.033)"
           id="text206"><tspan
             style="font-size:7.5px;font-variant:normal;font-weight:normal;writing-mode:lr-tb;fill:#231f20;fill-opacity:1;fill-rule:nonzero;stroke:none;font-family:Helvetica;-inkscape-font-specification:Helvetica"
             x="0 4.3800001"
             y="0"
             sodipodi:role="line"
             id="tspan208">+ </tspan></text>
<text
           transform="matrix(1,0,0,-1,188.541,124.033)"
           id="text210"><tspan
             style="font-size:7.5px;font-variant:normal;font-weight:normal;writing-mode:lr-tb;fill:#231f20;fill-opacity:1;fill-rule:nonzero;stroke:none;font-family:Symbol;-inkscape-font-specification:Symbol"
             x="0"
             y="0"
             id="tspan212">θ</tspan></text>
<text
           transform="matrix(1,0,0,-1,192.449,122.033)"
           id="text214"><tspan
             style="font-size:5.5px;font-variant:normal;font-weight:normal;writing-mode:lr-tb;fill:#231f20;fill-opacity:1;fill-rule:nonzero;stroke:none;font-family:Helvetica;-inkscape-font-specification:Helvetica"
             x="0"
             y="0"
             id="tspan216">3</tspan></text>
<text
           transform="matrix(1,0,0,-1,197.592,124.033)"
           id="text218"><tspan
             style="font-size:7.5px;font-variant:normal;font-weight:normal;writing-mode:lr-tb;fill:#231f20;fill-opacity:1;fill-rule:nonzero;stroke:none;font-family:Helvetica;-inkscape-font-specification:Helvetica"
             x="0 4.3800001"
             y="0"
             sodipodi:role="line"
             id="tspan220">+ </tspan></text>
<text
           transform="matrix(1,0,0,-1,204.05778,124.033)"
           id="text222"><tspan
             style="font-size:7.5px;font-variant:normal;font-weight:normal;writing-mode:lr-tb;fill:#231f20;fill-opacity:1;fill-rule:nonzero;stroke:none;font-family:Symbol;-inkscape-font-specification:Symbol"
             x="0"
             y="0"
             id="tspan224">θ</tspan></text>
<text
           transform="matrix(1,0,0,-1,207.964,122.033)"
           id="text226"><tspan
             style="font-size:5.5px;font-variant:normal;font-weight:normal;writing-mode:lr-tb;fill:#231f20;fill-opacity:1;fill-rule:nonzero;stroke:none;font-family:Helvetica;-inkscape-font-specification:Helvetica"
             x="0"
             y="0"
             id="tspan228">4</tspan></text>
<text
           transform="matrix(1,0,0,-1,211.022,124.033)"
           id="text230"><tspan
             style="font-size:7.5px;font-variant:normal;font-weight:normal;writing-mode:lr-tb;fill:#231f20;fill-opacity:1;fill-rule:nonzero;stroke:none;font-family:Helvetica;-inkscape-font-specification:Helvetica"
             x="0"
             y="0"
             id="tspan232">)</tspan></text>
<text
           transform="matrix(1,0,0,-1,99.027,46.8674)"
           id="text234"><tspan
             style="font-size:7.5px;font-variant:normal;font-weight:normal;writing-mode:lr-tb;fill:#231f20;fill-opacity:1;fill-rule:nonzero;stroke:none;font-family:Symbol;-inkscape-font-specification:Symbol"
             x="0"
             y="0"
             sodipodi:role="line"
             id="tspan236" /></text>
<text
           transform="matrix(1,0,0,-1,112.027,46.200212)"
           id="text238"><tspan
             style="font-size:7.5px;font-variant:normal;font-weight:normal;writing-mode:lr-tb;fill:#231f20;fill-opacity:1;fill-rule:nonzero;stroke:none;font-family:Helvetica;-inkscape-font-specification:Helvetica"
             sodipodi:role="line"
             id="tspan242"
             x="0"
             y="0" /></text>
<text
           transform="matrix(1,0,0,-1,99.027,21.532212)"
           id="text244"><tspan
             style="font-size:7.5px;font-variant:normal;font-weight:normal;writing-mode:lr-tb;fill:#231f20;fill-opacity:1;fill-rule:nonzero;stroke:none;font-family:Symbol;-inkscape-font-specification:Symbol"
             x="0"
             y="0"
             sodipodi:role="line"
             id="tspan246" /></text>
<text
           transform="matrix(1,0,0,-1,112.027,20.866196)"
           id="text248"><tspan
             style="font-size:7.5px;font-variant:normal;font-weight:normal;writing-mode:lr-tb;fill:#231f20;fill-opacity:1;fill-rule:nonzero;stroke:none;font-family:Helvetica;-inkscape-font-specification:Helvetica"
             sodipodi:role="line"
             id="tspan250"
             x="0"
             y="0" /><tspan
             style="font-size:7.5px;font-variant:normal;font-weight:normal;writing-mode:lr-tb;fill:#231f20;fill-opacity:1;fill-rule:nonzero;stroke:none;font-family:Helvetica;-inkscape-font-specification:Helvetica"
             x="0"
             y="9.375"
             sodipodi:role="line"
             id="tspan252" /><tspan
             style="font-size:7.5px;font-variant:normal;font-weight:normal;writing-mode:lr-tb;fill:#231f20;fill-opacity:1;fill-rule:nonzero;stroke:none;font-family:Helvetica;-inkscape-font-specification:Helvetica"
             x="0"
             y="18.75"
             sodipodi:role="line"
             id="tspan254" /></text>
<text
           transform="matrix(1,0,0,-1,154.44893,2.198226)"
           id="text256"><tspan
             style="font-size:7.5px;font-variant:normal;font-weight:normal;writing-mode:lr-tb;fill:#231f20;fill-opacity:1;fill-rule:nonzero;stroke:none;font-family:Symbol;-inkscape-font-specification:Symbol"
             x="0"
             y="0"
             id="tspan258" /></text>
<text
           transform="matrix(1,0,0,-1,98.61923,9.864246)"
           id="text260"><tspan
             style="font-size:7.5px;font-variant:normal;font-weight:normal;writing-mode:lr-tb;fill:#231f20;fill-opacity:1;fill-rule:nonzero;stroke:none;font-family:Helvetica;-inkscape-font-specification:Helvetica"
             x="0"
             sodipodi:role="line"
             id="tspan262"
             y="0" /></text>
<text
           transform="matrix(1,0,0,-1,169.79693,9.864246)"
           id="text264"><tspan
             style="font-size:7.5px;font-variant:normal;font-weight:normal;writing-mode:lr-tb;fill:#231f20;fill-opacity:1;fill-rule:nonzero;stroke:none;font-family:Symbol;-inkscape-font-specification:Symbol"
             x="0"
             y="0"
             sodipodi:role="line"
             id="tspan266" /></text>
<text
           transform="matrix(1,0,0,-1,181.76103,9.864246)"
           id="text268"><tspan
             style="font-size:7.5px;font-variant:normal;font-weight:normal;writing-mode:lr-tb;fill:#231f20;fill-opacity:1;fill-rule:nonzero;stroke:none;font-family:Helvetica;-inkscape-font-specification:Helvetica"
             x="0"
             y="0"
             id="tspan270" /></text>
</g></g><text
       y="-112.38931"
       x="196.40759"
       id="text3969"
       transform="scale(1,-1)"><tspan
         id="tspan3971"
         y="-112.38931"
         x="196.40759"
         style="font-size:7.5px;font-variant:normal;font-weight:normal;writing-mode:lr-tb;fill:#231f20;fill-opacity:1;fill-rule:nonzero;stroke:none;font-family:Helvetica;-inkscape-font-specification:Helvetica">Housing</tspan></text>
<text
       transform="scale(1,-1)"
       id="text3973"
       x="164.71481"
       y="-112.38931"><tspan
         style="font-size:7.5px;font-variant:normal;font-weight:normal;writing-mode:lr-tb;fill:#231f20;fill-opacity:1;fill-rule:nonzero;stroke:none;font-family:Helvetica;-inkscape-font-specification:Helvetica"
         x="164.71481"
         y="-112.38931"
         id="tspan3975">Cable</tspan></text>
<text
       y="-112.38931"
       x="95.98111"
       id="text3977"
       transform="scale(1,-1)"><tspan
         id="tspan3979"
         y="-112.38931"
         x="95.98111"
         style="font-size:7.5px;font-variant:normal;font-weight:normal;writing-mode:lr-tb;fill:#231f20;fill-opacity:1;fill-rule:nonzero;stroke:none;font-family:Helvetica;-inkscape-font-specification:Helvetica">Cable movement</tspan></text>
<path
       sodipodi:nodetypes="cc"
       d="m 138.55955,119.89783 24.9423,18.74313"
       style="fill:none;stroke:#231f20;stroke-width:0.5;stroke-linecap:butt;stroke-linejoin:miter;stroke-miterlimit:4;stroke-opacity:1;stroke-dasharray:none"
       id="path3983"
       inkscape:connector-curvature="0" /><path
       d="m 163.46987,138.50212 -1.98069,0.7191 0.0223,0.0702 3.02019,0.92929 c 0.93929,0.46553 1.87837,0.93061 2.81807,1.39464 -0.65786,-0.81579 -1.31573,-1.63159 -1.97091,-2.44873 l -1.56175,-2.74897 -0.068,-0.0139 -0.27913,2.09827"
       style="fill:#231f20;fill-opacity:1;fill-rule:nonzero;stroke:none"
       id="path3985"
       inkscape:connector-curvature="0"
       inkscape:transform-center-y="3.25725" /></g></svg>