<?xml version="1.0" encoding="UTF-8" standalone="no"?>
<!-- Created with Inkscape (http://www.inkscape.org/) -->

<svg
   xmlns:dc="http://purl.org/dc/elements/1.1/"
   xmlns:cc="http://creativecommons.org/ns#"
   xmlns:rdf="http://www.w3.org/1999/02/22-rdf-syntax-ns#"
   xmlns:svg="http://www.w3.org/2000/svg"
   xmlns="http://www.w3.org/2000/svg"
   xmlns:sodipodi="http://sodipodi.sourceforge.net/DTD/sodipodi-0.dtd"
   xmlns:inkscape="http://www.inkscape.org/namespaces/inkscape"
   id="svg2"
   version="1.1"
   inkscape:version="0.48.4 r9939"
   width="337.29706"
   height="280.00253"
   xml:space="preserve"
   sodipodi:docname="Wilson_007_fig_005.svg"
   inkscape:export-filename="/home/theo/HPV/BicyclingScience/BS4-chapter7/Wilson_007_fig_005.preview.png"
   inkscape:export-xdpi="300"
   inkscape:export-ydpi="300"><metadata
     id="metadata8"><rdf:RDF><cc:Work
         rdf:about=""><dc:format>image/svg+xml</dc:format><dc:type
           rdf:resource="http://purl.org/dc/dcmitype/StillImage" /><dc:title></dc:title></cc:Work></rdf:RDF></metadata><defs
     id="defs6"><clipPath
       clipPathUnits="userSpaceOnUse"
       id="clipPath18"><path
         d="m 0,0 2616.78,0 0,2673 L 0,2673 0,0 z"
         id="path20"
         inkscape:connector-curvature="0" /></clipPath></defs><sodipodi:namedview
     pagecolor="#ffffff"
     bordercolor="#666666"
     borderopacity="1"
     objecttolerance="10"
     gridtolerance="10"
     guidetolerance="10"
     inkscape:pageopacity="0"
     inkscape:pageshadow="2"
     inkscape:window-width="1920"
     inkscape:window-height="1139"
     id="namedview4"
     showgrid="false"
     inkscape:zoom="2.8249728"
     inkscape:cx="171.70416"
     inkscape:cy="131.86137"
     inkscape:window-x="-4"
     inkscape:window-y="-4"
     inkscape:window-maximized="1"
     inkscape:current-layer="g10"
     showguides="true"
     inkscape:guide-bbox="true"
     fit-margin-top="5"
     fit-margin-left="5"
     fit-margin-right="5"
     fit-margin-bottom="5"><sodipodi:guide
       orientation="0,1"
       position="155.05822,3.1002792"
       id="guide3088" /></sodipodi:namedview><g
     id="g10"
     inkscape:groupmode="layer"
     inkscape:label="ink_ext_XXXXXX"
     transform="matrix(1.25,0,0,-1.25,5.3222656,335.30988)"><text
       transform="matrix(0,1,1,0,0,0)"
       id="text32"
       x="164.63699"
       y="250.991"><tspan
         style="font-size:7.5px;font-variant:normal;font-weight:normal;writing-mode:lr-tb;fill:#231f20;fill-opacity:1;fill-rule:nonzero;stroke:none;font-family:Helvetica;-inkscape-font-specification:Helvetica"
         x="164.63699 164.63699 164.63699 164.63699 168.80701 172.97701 175.062 176.72701"
         y="250.991 250.991 250.991 250.991"
         sodipodi:role="line"
         id="tspan34">   45 in</tspan><tspan
         style="font-size:7.5px;font-variant:normal;font-weight:normal;writing-mode:lr-tb;fill:#231f20;fill-opacity:1;fill-rule:nonzero;stroke:none;font-family:Helvetica;-inkscape-font-specification:Helvetica"
         x="161.51785 164.01537 168.18536 170.27036 174.44127 178.61127 182.78127 184.86626 191.11377 197.36127"
         y="259.98984"
         sodipodi:role="line"
         id="tspan36">(1,143 mm)</tspan></text>
<text
       transform="scale(1,-1)"
       id="text54"
       x="31.832399"
       y="-91.021896"><tspan
         style="font-size:5.5px;font-variant:normal;font-weight:normal;writing-mode:lr-tb;fill:#231f20;fill-opacity:1;fill-rule:nonzero;stroke:none;font-family:Helvetica;-inkscape-font-specification:Helvetica"
         x="31.832399 34.818729 36.347729 37.876728"
         y="-91.021896"
         sodipodi:role="line"
         id="tspan56">V, f</tspan></text>
<path
       inkscape:connector-curvature="0"
       id="path70"
       style="fill:none;stroke:#231f20;stroke-width:0.5;stroke-linecap:butt;stroke-linejoin:miter;stroke-miterlimit:4;stroke-opacity:1;stroke-dasharray:none"
       d="m 226.324,103.687 26.5,0" /><path
       inkscape:connector-curvature="0"
       id="path72"
       style="fill:none;stroke:#231f20;stroke-width:0.5;stroke-linecap:butt;stroke-linejoin:miter;stroke-miterlimit:4;stroke-opacity:1;stroke-dasharray:none"
       d="m -0.0078125,103.687 226.3318125,0" /><path
       inkscape:connector-curvature="0"
       id="path76"
       style="fill:#231f20;fill-opacity:1;fill-rule:nonzero;stroke:none"
       d="m 225.815,103.687 -1.096,1.801 0.062,0.041 2.937,-1.167 c 1.023,-0.224 2.047,-0.45 3.07,-0.675 -1.023,-0.225 -2.047,-0.45 -3.07,-0.675 l -2.937,-1.167 -0.062,0.031 1.096,1.811" /><path
       inkscape:connector-curvature="0"
       id="path78"
       style="fill:none;stroke:#231f20;stroke-width:0.5;stroke-linecap:butt;stroke-linejoin:miter;stroke-miterlimit:4;stroke-opacity:1;stroke-dasharray:none"
       d="m 248.824,162.02 0,-53.749" /><path
       inkscape:connector-curvature="0"
       id="path80"
       style="fill:#231f20;fill-opacity:1;fill-rule:nonzero;stroke:none"
       d="m 248.824,108.781 1.802,1.095 0.04,-0.061 -1.166,-2.938 c -0.225,-1.023 -0.45,-2.047 -0.676,-3.07 -0.224,1.023 -0.45,2.047 -0.675,3.07 l -1.166,2.938 0.03,0.061 1.811,-1.095" /><path
       inkscape:connector-curvature="0"
       id="path82"
       style="fill:none;stroke:#231f20;stroke-width:0.47514468;stroke-linecap:butt;stroke-linejoin:miter;stroke-miterlimit:4;stroke-opacity:1;stroke-dasharray:none"
       d="m 126.825,126.16641 0,-47.028594" /><path
       inkscape:connector-curvature="0"
       id="path84"
       style="fill:none;stroke:#231f20;stroke-width:0.5;stroke-linecap:butt;stroke-linejoin:miter;stroke-miterlimit:4;stroke-opacity:1;stroke-dasharray:none"
       d="m 126.825,254.41495 0,-95.21773" /><path
       inkscape:connector-curvature="0"
       id="path88"
       style="fill:none;stroke:#231f20;stroke-width:0.56517154;stroke-linecap:butt;stroke-linejoin:miter;stroke-miterlimit:4;stroke-opacity:1;stroke-dasharray:none"
       d="m 248.824,184.82937 0,61.90721" /><path
       inkscape:connector-curvature="0"
       id="path90"
       style="fill:#231f20;fill-opacity:1;fill-rule:nonzero;stroke:none"
       d="m 248.824,246.295 1.802,-1.095 0.04,0.062 -1.166,2.937 c -0.225,1.024 -0.45,2.047 -0.676,3.071 -0.224,-1.024 -0.45,-2.047 -0.675,-3.071 l -1.166,-2.937 0.03,-0.062 1.811,1.095" /><path
       inkscape:connector-curvature="0"
       id="path92"
       style="fill:none;stroke:#231f20;stroke-width:0.60446101;stroke-linecap:butt;stroke-linejoin:miter;stroke-miterlimit:4;stroke-opacity:1;stroke-dasharray:none"
       d="m 140.6577,85.8871 -9.13433,0" /><path
       inkscape:connector-curvature="0"
       id="path96"
       style="fill:#231f20;fill-opacity:1;fill-rule:nonzero;stroke:none"
       d="m 131.918,85.8871 1.095,-1.8012 -0.061,-0.041 -2.938,1.1672 c -1.023,0.2238 -2.046,0.45 -3.07,0.675 1.024,0.225 2.047,0.45 3.07,0.675 l 2.938,1.1668 0.061,-0.0301 -1.095,-1.8117" /><path
       inkscape:connector-curvature="0"
       id="path100"
       style="fill:#231f20;fill-opacity:1;fill-rule:nonzero;stroke:none"
       d="m 176.6,85.8871 -1.095,-1.8012 0.062,-0.041 2.937,1.1672 c 1.024,0.2238 2.047,0.45 3.07,0.675 -1.023,0.225 -2.046,0.45 -3.07,0.675 l -2.937,1.1668 -0.062,-0.0301 1.095,-1.8117" /><path
       inkscape:connector-curvature="0"
       id="path102"
       style="fill:none;stroke:#231f20;stroke-width:0.51650602;stroke-linecap:butt;stroke-linejoin:miter;stroke-miterlimit:4;stroke-opacity:1;stroke-dasharray:none"
       d="m 99.089296,55.2211 -48.996318,0" /><path
       inkscape:connector-curvature="0"
       id="path104"
       style="fill:#231f20;fill-opacity:1;fill-rule:nonzero;stroke:none"
       d="m 50.3359,55.2211 1.095,-1.802 -0.061,-0.041 -2.9379,1.1668 c -1.023,0.225 -2.0468,0.45 -3.0699,0.6762 1.0231,0.225 2.0469,0.45 3.0699,0.675 l 2.9379,1.1668 0.061,-0.0309 -1.095,-1.8109" /><path
       inkscape:connector-curvature="0"
       id="path106"
       style="fill:none;stroke:#231f20;stroke-width:0.48850936;stroke-linecap:butt;stroke-linejoin:miter;stroke-miterlimit:4;stroke-opacity:1;stroke-dasharray:none"
       d="m 135.6363,55.2211 41.47874,0" /><path
       inkscape:connector-curvature="0"
       id="path108"
       style="fill:#231f20;fill-opacity:1;fill-rule:nonzero;stroke:none"
       d="m 176.6,55.2211 -1.095,-1.802 0.062,-0.041 2.937,1.1668 c 1.024,0.225 2.047,0.45 3.07,0.6762 -1.023,0.225 -2.046,0.45 -3.07,0.675 l -2.937,1.1668 -0.062,-0.0309 1.095,-1.8109" /><path
       inkscape:connector-curvature="0"
       id="path110"
       style="fill:none;stroke:#231f20;stroke-width:0.5;stroke-linecap:butt;stroke-linejoin:miter;stroke-miterlimit:4;stroke-opacity:1;stroke-dasharray:none"
       d="m 45.2422,98.0211 0,46.6659" /><path
       inkscape:connector-curvature="0"
       id="path112"
       style="fill:none;stroke:#231f20;stroke-width:0.41116115;stroke-linecap:butt;stroke-linejoin:miter;stroke-miterlimit:4;stroke-opacity:1;stroke-dasharray:none"
       d="m 45.2422,50.584123 0,47.567539" /><path
       inkscape:connector-curvature="0"
       id="path114"
       style="fill:#231f20;fill-opacity:1;fill-rule:nonzero;stroke:none"
       d="m 45.2422,98.2602 -1.8024,-1.0954 -0.041,0.0622 1.1672,2.937 c 0.225,1.024 0.4512,2.047 0.6762,3.07 0.225,-1.023 0.45,-2.046 0.675,-3.07 l 1.1668,-2.937 -0.0309,-0.0622 -1.8109,1.0954" /><path
       inkscape:connector-curvature="0"
       id="path116"
       style="fill:none;stroke:#231f20;stroke-width:0.5;stroke-linecap:butt;stroke-linejoin:miter;stroke-miterlimit:4;stroke-opacity:1;stroke-dasharray:none"
       d="m 181.908,97.0211 0,47.6659" /><path
       inkscape:connector-curvature="0"
       id="path122"
       style="fill:none;stroke:#231f20;stroke-width:0.41482943;stroke-linecap:butt;stroke-linejoin:miter;stroke-miterlimit:4;stroke-opacity:1;stroke-dasharray:none"
       d="m 181.908,49.96753 0,47.18576" /><path
       inkscape:connector-curvature="0"
       id="path124"
       style="fill:#231f20;fill-opacity:1;fill-rule:nonzero;stroke:none"
       d="m 181.908,98.8602 -1.801,-1.0954 -0.04,0.0622 1.166,2.9371 c 0.225,1.0239 0.45,2.0469 0.675,3.0699 0.225,-1.023 0.451,-2.046 0.676,-3.0699 l 1.166,-2.9371 -0.03,-0.0622 -1.812,1.0954" /><path
       inkscape:connector-curvature="0"
       id="path134"
       style="fill:none;stroke:#231f20;stroke-width:0.5;stroke-linecap:butt;stroke-linejoin:miter;stroke-miterlimit:4;stroke-opacity:1;stroke-dasharray:none"
       d="m 130.44124,250.70251 c 0,-2.025 -1.641,-3.667 -3.667,-3.667 -2.025,0 -3.666,1.642 -3.666,3.667 0,2.026 1.641,3.667 3.666,3.667 2.026,0 3.667,-1.641 3.667,-3.667 z" /><path
       inkscape:connector-curvature="0"
       id="path136"
       style="fill:none;stroke:#231f20;stroke-width:1;stroke-linecap:butt;stroke-linejoin:miter;stroke-miterlimit:4;stroke-opacity:1;stroke-dasharray:none"
       d="m 49.659,149.021 c 0,-2.394 -1.9399,-4.334 -4.334,-4.334 -2.393,0 -4.3328,1.94 -4.3328,4.334 0,2.393 1.9398,4.333 4.3328,4.333 2.3941,0 4.334,-1.94 4.334,-4.333 z" /><path
       inkscape:connector-curvature="0"
       id="path138"
       style="fill:none;stroke:#231f20;stroke-width:1;stroke-linecap:butt;stroke-linejoin:miter;stroke-miterlimit:4;stroke-opacity:1;stroke-dasharray:none"
       d="m 185.991,148.521 c 0,-2.394 -1.94,-4.334 -4.333,-4.334 -2.394,0 -4.334,1.94 -4.334,4.334 0,2.393 1.94,4.333 4.334,4.333 2.393,0 4.333,-1.94 4.333,-4.333 z" /><path
       inkscape:connector-curvature="0"
       id="path140"
       style="fill:none;stroke:#231f20;stroke-width:1;stroke-linecap:butt;stroke-linejoin:miter;stroke-miterlimit:4;stroke-opacity:1;stroke-dasharray:none"
       d="m 130.991,142.854 c 0,-2.393 -1.94,-4.333 -4.333,-4.333 -2.394,0 -4.334,1.94 -4.334,4.333 0,2.394 1.94,4.334 4.334,4.334 2.393,0 4.333,-1.94 4.333,-4.334 z" /><path
       inkscape:connector-curvature="0"
       id="path142"
       style="fill:none;stroke:#231f20;stroke-width:1;stroke-linecap:butt;stroke-linejoin:miter;stroke-miterlimit:4;stroke-opacity:1;stroke-dasharray:none"
       d="m 67.4629,186.589 c 13.0293,-7.64 21.7781,-21.791 21.7781,-37.985 0,-24.3 -19.6988,-44 -43.9988,-44 -24.3012,0 -44.0004,19.7 -44.0004,44 0,24.3 19.6992,43.999 44.0004,43.999 6.4008,0 12.484,-1.366 17.9699,-3.824" /><path
       inkscape:connector-curvature="0"
       id="path144"
       style="fill:none;stroke:#231f20;stroke-width:1;stroke-linecap:butt;stroke-linejoin:miter;stroke-miterlimit:4;stroke-opacity:1;stroke-dasharray:none"
       d="m 166.826,190.012 c 4.658,1.677 9.679,2.591 14.915,2.591 24.3,0 44,-19.699 44,-43.999 0,-24.3 -19.7,-44 -44,-44 -22.411,0 -40.908,16.754 -43.65,38.419" /><path
       inkscape:connector-curvature="0"
       id="path146"
       style="fill:none;stroke:#231f20;stroke-width:1;stroke-linecap:butt;stroke-linejoin:miter;stroke-miterlimit:4;stroke-opacity:1;stroke-dasharray:none"
       d="m 137.789,146.521 c -0.032,0.69 -0.048,1.385 -0.048,2.083 0,17.834 10.61,33.19 25.864,40.1" /><path
       inkscape:connector-curvature="0"
       id="path148"
       style="fill:none;stroke:#231f20;stroke-width:1;stroke-linecap:butt;stroke-linejoin:miter;stroke-miterlimit:4;stroke-opacity:1;stroke-dasharray:none"
       d="m 177.074,147.521 -46.083,-4.917" /><path
       inkscape:connector-curvature="0"
       id="path150"
       style="fill:none;stroke:#231f20;stroke-width:1;stroke-linecap:butt;stroke-linejoin:miter;stroke-miterlimit:4;stroke-opacity:1;stroke-dasharray:none"
       d="m 177.324,149.771 -47.25,-3.75" /><path
       inkscape:connector-curvature="0"
       id="path152"
       style="fill:none;stroke:#231f20;stroke-width:1;stroke-linecap:butt;stroke-linejoin:miter;stroke-miterlimit:4;stroke-opacity:1;stroke-dasharray:none"
       d="m 75.325,208.77 49.749,-61.499" /><path
       inkscape:connector-curvature="0"
       id="path154"
       style="fill:none;stroke:#231f20;stroke-width:1;stroke-linecap:butt;stroke-linejoin:miter;stroke-miterlimit:4;stroke-opacity:1;stroke-dasharray:none"
       d="m 74.325,205.27 48.249,-59.999" /><path
       inkscape:connector-curvature="0"
       id="path156"
       style="fill:none;stroke:#231f20;stroke-width:1;stroke-linecap:butt;stroke-linejoin:miter;stroke-miterlimit:4;stroke-opacity:1;stroke-dasharray:none"
       d="M 70.7609,211.784 C 66.1422,194.569 57.768,169 45.325,153.354" /><path
       inkscape:connector-curvature="0"
       id="path158"
       style="fill:none;stroke:#231f20;stroke-width:1;stroke-linecap:butt;stroke-linejoin:miter;stroke-miterlimit:4;stroke-opacity:1;stroke-dasharray:none"
       d="m 72.325,218.02 c 1.7672,7.078 2.602,11.231 2.75,11.75 0.5,1.75 -0.75,2 -0.75,2 l -9.9941,-0.306 c -3.9489,-0.443 -7.0059,-3.496 -7.0059,-7.194 0,-3.533 2.7621,-6.639 6.4789,-7.118 1.0211,-0.132 5.9883,0.34 8.3789,0.604 0.8922,0.098 1.7363,-1.004 1.8832,-2.446 0.1481,-1.443 -0.4609,-2.654 -1.3488,-2.777 -5.3594,-0.736 -8.9063,-0.191 -8.9063,-0.191 -6.8808,0.665 -12.2359,5.808 -12.2359,12.053 0,6.325 5.493,11.519 12.502,12.075 0,0 16.248,0.3 17.248,0.3 1,0 1,-0.5 0.5,-2 -0.5,-1.5 -10,-54.25 -33,-82.249" /><path
       inkscape:connector-curvature="0"
       id="path160"
       style="fill:none;stroke:#231f20;stroke-width:1;stroke-linecap:butt;stroke-linejoin:miter;stroke-miterlimit:4;stroke-opacity:1;stroke-dasharray:none"
       d="m 67.825,202.52 c 1.25,-0.75 2.5,-1.75 5,-1.25" /><path
       inkscape:connector-curvature="0"
       id="path162"
       style="fill:none;stroke:#231f20;stroke-width:1;stroke-linecap:butt;stroke-linejoin:miter;stroke-miterlimit:4;stroke-opacity:1;stroke-dasharray:none"
       d="m 73.075,220.77 c 1.25,-0.5 2.5,-1.5 5,-1.25" /><path
       inkscape:connector-curvature="0"
       id="path164"
       style="fill:none;stroke:#231f20;stroke-width:1;stroke-linecap:butt;stroke-linejoin:miter;stroke-miterlimit:4;stroke-opacity:1;stroke-dasharray:none"
       d="m 74.825,227.52 c 1.25,-0.5 2.5,-1.5 5,-1.25" /><path
       inkscape:connector-curvature="0"
       id="path166"
       style="fill:none;stroke:#231f20;stroke-width:1;stroke-linecap:butt;stroke-linejoin:miter;stroke-miterlimit:4;stroke-opacity:1;stroke-dasharray:none"
       d="m 132.823,157.504 c 1.906,-0.809 3.623,-1.977 5.065,-3.419" /><path
       inkscape:connector-curvature="0"
       id="path168"
       style="fill:none;stroke:#231f20;stroke-width:1;stroke-linecap:butt;stroke-linejoin:miter;stroke-miterlimit:4;stroke-opacity:1;stroke-dasharray:none"
       d="m 117.629,156.038 c 2.553,1.724 5.632,2.732 8.945,2.732 1.297,0 2.558,-0.154 3.765,-0.445" /><path
       inkscape:connector-curvature="0"
       id="path170"
       style="fill:none;stroke:#231f20;stroke-width:1;stroke-linecap:butt;stroke-linejoin:miter;stroke-miterlimit:4;stroke-opacity:1;stroke-dasharray:none"
       d="m 140.118,134.249 c -2.833,-4.494 -7.84,-7.478 -13.544,-7.478 -8.836,0 -16,7.163 -16,16 0,4.481 1.843,8.531 4.811,11.435" /><path
       inkscape:connector-curvature="0"
       id="path172"
       style="fill:none;stroke:#231f20;stroke-width:1;stroke-linecap:butt;stroke-linejoin:miter;stroke-miterlimit:4;stroke-opacity:1;stroke-dasharray:none"
       d="m 124.574,147.771 39.25,79.749" /><path
       inkscape:connector-curvature="0"
       id="path174"
       style="fill:none;stroke:#231f20;stroke-width:1;stroke-linecap:butt;stroke-linejoin:miter;stroke-miterlimit:4;stroke-opacity:1;stroke-dasharray:none"
       d="m 127.574,147.021 39.25,79.749" /><path
       inkscape:connector-curvature="0"
       id="path176"
       style="fill:none;stroke:#231f20;stroke-width:1;stroke-linecap:butt;stroke-linejoin:miter;stroke-miterlimit:4;stroke-opacity:1;stroke-dasharray:none"
       d="m 158.574,210.02 23,-56.499" /><path
       inkscape:connector-curvature="0"
       id="path178"
       style="fill:none;stroke:#231f20;stroke-width:1;stroke-linecap:butt;stroke-linejoin:miter;stroke-miterlimit:4;stroke-opacity:1;stroke-dasharray:none"
       d="m 156.824,206.02 22.25,-53.499" /><path
       inkscape:connector-curvature="0"
       id="path194"
       style="fill:#ffffff;fill-opacity:1;fill-rule:nonzero;stroke:none"
       d="m 77.575,216.52 81.999,0 c 0,0 1.5,0.25 1.25,-1 -0.25,-1.25 -0.5,-2 -2,-2 -1.5,0 -81.999,0 -81.999,0" /><path
       inkscape:connector-curvature="0"
       id="path196"
       style="fill:none;stroke:#231f20;stroke-width:1;stroke-linecap:butt;stroke-linejoin:miter;stroke-miterlimit:4;stroke-opacity:1;stroke-dasharray:none"
       d="m 77.575,216.52 81.999,0 c 0,0 1.5,0.25 1.25,-1 -0.25,-1.25 -0.5,-2 -2,-2 -1.5,0 -81.999,0 -81.999,0" /><path
       inkscape:connector-curvature="0"
       id="path198"
       style="fill:#ffffff;fill-opacity:1;fill-rule:nonzero;stroke:none"
       d="m 145.324,237.27 c -0.559,-0.559 -0.25,-1.25 0.25,-2.25 0.5,-1 1.5,-3.75 3.75,-4.25 2.25,-0.5 23.75,-5 25.5,-5.5 1.75,-0.5 3.25,-0.75 3.25,1.25 0,2 0,6.75 0,7.75 0,1 -0.25,3.5 -3.5,3.5 -3.25,0 -27.75,0 -27.75,0 0,0 -1.25,-0.25 -1.5,-0.5" /><path
       inkscape:connector-curvature="0"
       id="path200"
       style="fill:none;stroke:#231f20;stroke-width:1;stroke-linecap:butt;stroke-linejoin:miter;stroke-miterlimit:4;stroke-opacity:1;stroke-dasharray:none"
       d="m 145.324,237.27 c -0.559,-0.559 -0.25,-1.25 0.25,-2.25 0.5,-1 1.5,-3.75 3.75,-4.25 2.25,-0.5 23.75,-5 25.5,-5.5 1.75,-0.5 3.25,-0.75 3.25,1.25 0,2 0,6.75 0,7.75 0,1 -0.25,3.5 -3.5,3.5 -3.25,0 -27.75,0 -27.75,0 0,0 -1.25,-0.25 -1.5,-0.5 z" /><text
       xml:space="preserve"
       style="font-size:16px;font-style:normal;font-variant:normal;font-weight:normal;font-stretch:normal;text-align:start;line-height:100%;letter-spacing:0px;word-spacing:0px;writing-mode:lr-tb;text-anchor:start;fill:#000000;fill-opacity:1;stroke:none;font-family:Serif;-inkscape-font-specification:Serif"
       x="101.9814"
       y="-259.38541"
       id="text3498"
       sodipodi:linespacing="100%"
       transform="scale(1,-1)"><tspan
         sodipodi:role="line"
         id="tspan3500"
         x="101.9814"
         y="-259.38541"
         style="font-size:6.4000001px;font-style:normal;font-variant:normal;font-weight:normal;font-stretch:normal;font-family:Sans;-inkscape-font-specification:Sans">Center of mass</tspan></text>
<path
       inkscape:connector-curvature="0"
       id="path92-9"
       style="fill:none;stroke:#231f20;stroke-width:0.5;stroke-linecap:butt;stroke-linejoin:miter;stroke-miterlimit:4;stroke-opacity:1;stroke-dasharray:none"
       d="m 130.35446,250.70617 -6.89894,0" /><path
       style="opacity:0.46349206;fill:#000000;fill-opacity:1;fill-rule:nonzero;stroke:none"
       d="m 158.84769,18.511623 0,-1.949813 0.40674,0.08521 c 1.26591,0.265199 2.42726,1.187387 2.99115,2.375158 0.19607,0.413005 0.35654,0.905794 0.35659,1.095088 l 1e-4,0.34417 -1.87729,0 -1.87729,0 0,-1.949813 z"
       id="path3520"
       inkscape:connector-curvature="0"
       transform="matrix(0.8,0,0,-0.8,0,267.33)" /><path
       style="opacity:0.46349206;fill:#000000;fill-opacity:1;fill-rule:nonzero;stroke:none"
       d="m 158.84769,18.528313 0,-1.933124 0.65354,0.19408 c 1.47245,0.437271 2.73596,1.795594 3.03749,3.26542 l 0.0834,0.406747 -1.88724,0 -1.88723,0 0,-1.933123 z"
       id="path4290"
       inkscape:connector-curvature="0"
       transform="matrix(0.8,0,0,-0.8,0,267.33)" /><path
       style="opacity:0.46349206;fill:#000000;fill-opacity:1;fill-rule:nonzero;stroke:none"
       d="m 156.92439,24.659075 c -1.34888,-0.554584 -2.37726,-1.798172 -2.54962,-3.083181 l -0.0664,-0.495396 1.92551,0.03464 1.92551,0.03464 0.0345,1.908581 0.0345,1.90858 -0.28485,-0.003 c -0.15667,-0.0016 -0.61531,-0.138835 -1.0192,-0.304893 l 0,0 z"
       id="path4292"
       inkscape:connector-curvature="0"
       transform="matrix(0.8,0,0,-0.8,0,267.33)" /><path
       style="opacity:0.46349206;fill:#000000;fill-opacity:1;fill-rule:nonzero;stroke:none"
       d="m 157.32094,24.725419 c -1.14046,-0.364655 -2.19753,-1.281924 -2.60166,-2.257575 -0.0864,-0.208682 -0.19256,-0.37974 -0.23584,-0.380129 -0.0433,-3.89e-4 -0.0871,-0.225609 -0.0975,-0.500487 l -0.0188,-0.499779 1.83349,0.07983 c 1.00842,0.04391 1.83975,0.08609 1.8474,0.09374 0.0722,0.0722 0.15114,3.704238 0.0804,3.699189 -0.0519,-0.0037 -0.41527,-0.109357 -0.80756,-0.234789 l 0,0 z"
       id="path4294"
       inkscape:connector-curvature="0"
       transform="matrix(0.8,0,0,-0.8,0,267.33)" /><path
       style="opacity:0.46349206;fill:#000000;fill-opacity:1;fill-rule:nonzero;stroke:none"
       d="m 156.99964,24.532492 c -0.96972,-0.451461 -1.4711,-0.880432 -2.0315,-1.738108 -0.34662,-0.530487 -0.5008,-0.903407 -0.5008,-1.211313 l 0,-0.444863 1.22024,0.04059 c 2.07483,0.06902 2.24281,0.109021 2.33207,0.555295 0.0424,0.212088 0.0771,0.998082 0.0771,1.746652 0,1.569049 0.005,1.564657 -1.09713,1.051744 z"
       id="path4296"
       inkscape:connector-curvature="0"
       transform="matrix(0.8,0,0,-0.8,0,267.33)" /><path
       style="opacity:0.46349206;fill:#000000;fill-opacity:1;fill-rule:nonzero;stroke:none"
       d="m 157.02424,24.482211 c -0.4178,-0.197657 -0.96204,-0.537082 -1.20941,-0.754276 -0.59377,-0.521337 -1.18143,-1.459082 -1.29215,-2.061929 l -0.0891,-0.484993 1.56838,0.05221 c 1.00337,0.0334 1.63661,0.108841 1.75778,0.209404 0.33913,0.281455 0.44217,3.399425 0.11232,3.399056 -0.0485,-5.4e-5 -0.43003,-0.161818 -0.84784,-0.359476 l 0,0 z"
       id="path4298"
       inkscape:connector-curvature="0"
       transform="matrix(0.8,0,0,-0.8,0,267.33)" /><path
       style="opacity:0.46349206;fill:#000000;fill-opacity:1;fill-rule:nonzero;stroke:none"
       d="m 158.84769,18.584143 c 0,-2.149812 -0.0374,-2.096179 1.09351,-1.569674 1.2283,0.571862 2.28498,1.840573 2.58424,3.102797 l 0.0816,0.34417 -1.87968,0 -1.87967,0 0,-1.877293 z"
       id="path4300"
       inkscape:connector-curvature="0"
       transform="matrix(0.8,0,0,-0.8,0,267.33)" /><path
       style="opacity:0.46349206;fill:#000000;fill-opacity:1;fill-rule:nonzero;stroke:none"
       d="m 156.97405,24.429067 c -1.2733,-0.630587 -2.21399,-1.718796 -2.44616,-2.829793 l -0.0892,-0.426572 1.48585,0.07471 c 0.81721,0.04109 1.58242,0.111767 1.70045,0.157062 0.12077,0.04634 0.25199,0.281559 0.30008,0.537904 0.13396,0.714073 0.12265,2.622838 -0.0164,2.761945 -0.0839,0.08391 -0.3937,-0.0073 -0.93471,-0.275254 l 0,0 z"
       id="path4302"
       inkscape:connector-curvature="0"
       transform="matrix(0.8,0,0,-0.8,0,267.33)" /><path
       d="m 130.71263,250.66187 124.32609,0"
       style="fill:none;stroke:#231f20;stroke-width:0.5;stroke-linecap:butt;stroke-linejoin:miter;stroke-miterlimit:4;stroke-opacity:1;stroke-dasharray:none"
       id="path4304"
       inkscape:connector-curvature="0" /><text
       transform="scale(1,-1)"
       sodipodi:linespacing="100%"
       id="text3066"
       y="-55.489635"
       x="99.149521"
       style="font-size:16px;font-style:normal;font-variant:normal;font-weight:normal;font-stretch:normal;text-align:start;line-height:100%;letter-spacing:0px;word-spacing:0px;writing-mode:lr-tb;text-anchor:start;fill:#000000;fill-opacity:1;stroke:none;font-family:Serif;-inkscape-font-specification:Serif"
       xml:space="preserve"><tspan
         style="font-size:6.4000001px;font-style:normal;font-variant:normal;font-weight:normal;font-stretch:normal;font-family:Sans;-inkscape-font-specification:Sans"
         y="-55.489635"
         x="99.149521"
         id="tspan3068"
         sodipodi:role="line">     42 in</tspan><tspan
         style="font-size:6.4000001px;font-style:normal;font-variant:normal;font-weight:normal;font-stretch:normal;font-family:Sans;-inkscape-font-specification:Sans"
         y="-49.089634"
         x="99.149521"
         sodipodi:role="line"
         id="tspan3080">(1,067 mm)</tspan></text>
<text
       xml:space="preserve"
       style="font-size:16px;font-style:normal;font-variant:normal;font-weight:normal;font-stretch:normal;text-align:start;line-height:100%;letter-spacing:0px;word-spacing:0px;writing-mode:lr-tb;text-anchor:start;fill:#000000;fill-opacity:1;stroke:none;font-family:Serif;-inkscape-font-specification:Serif"
       x="69.981087"
       y="-83.525299"
       id="text3070"
       sodipodi:linespacing="100%"
       transform="scale(1,-1)"><tspan
         sodipodi:role="line"
         id="tspan3072"
         x="69.981087"
         y="-83.525299"
         style="font-size:6.4000001px;font-style:normal;font-variant:normal;font-weight:normal;font-stretch:normal;font-family:Sans;-inkscape-font-specification:Sans"
         dx="0 1.1800001">mg = 873 N</tspan></text>
<text
       xml:space="preserve"
       style="font-size:16px;font-style:normal;font-variant:normal;font-weight:normal;font-stretch:normal;text-align:start;line-height:100%;letter-spacing:0px;word-spacing:0px;writing-mode:lr-tb;text-anchor:start;fill:#000000;fill-opacity:1;stroke:none;font-family:Serif;-inkscape-font-specification:Serif"
       x="188.6371"
       y="-91.737762"
       id="text3076"
       sodipodi:linespacing="100%"
       transform="scale(1,-1)"><tspan
         sodipodi:role="line"
         id="tspan3078"
         x="188.6371"
         y="-91.737762"
         style="font-size:6.4000001px;font-style:normal;font-variant:normal;font-weight:normal;font-stretch:normal;font-family:Sans;-inkscape-font-specification:Sans">F</tspan></text>
<text
       xml:space="preserve"
       style="font-size:16px;font-style:normal;font-variant:normal;font-weight:normal;font-stretch:normal;text-align:start;line-height:100%;letter-spacing:0px;word-spacing:0px;writing-mode:lr-tb;text-anchor:start;fill:#000000;fill-opacity:1;stroke:none;font-family:Serif;-inkscape-font-specification:Serif"
       x="139.64549"
       y="-85.507629"
       id="text3082"
       sodipodi:linespacing="100%"
       transform="scale(1,-1)"><tspan
         sodipodi:role="line"
         id="tspan3084"
         x="139.64549"
         y="-85.507629"
         style="font-size:6.4000001px;font-style:normal;font-variant:normal;font-weight:normal;font-stretch:normal;font-family:Sans;-inkscape-font-specification:Sans">    17 in</tspan><tspan
         id="tspan3086"
         sodipodi:role="line"
         x="139.64549"
         y="-79.107628"
         style="font-size:6.4000001px;font-style:normal;font-variant:normal;font-weight:normal;font-stretch:normal;font-family:Sans;-inkscape-font-specification:Sans">(432 mm)</tspan></text>
<path
       d="m 177.58876,85.8871 -7.81064,0"
       style="fill:none;stroke:#231f20;stroke-width:0.5589503;stroke-linecap:butt;stroke-linejoin:miter;stroke-miterlimit:4;stroke-opacity:1;stroke-dasharray:none"
       id="path3092"
       inkscape:connector-curvature="0" /><text
       transform="scale(1,-1)"
       sodipodi:linespacing="100%"
       id="text3094"
       y="-92.870529"
       x="28.069185"
       style="font-size:16px;font-style:normal;font-variant:normal;font-weight:normal;font-stretch:normal;text-align:start;line-height:100%;letter-spacing:0px;word-spacing:0px;writing-mode:lr-tb;text-anchor:start;fill:#000000;fill-opacity:1;stroke:none;font-family:Serif;-inkscape-font-specification:Serif"
       xml:space="preserve"><tspan
         style="font-size:6.4000001px;font-style:normal;font-variant:normal;font-weight:normal;font-stretch:normal;font-family:Sans;-inkscape-font-specification:Sans"
         y="-92.870529"
         x="28.069185"
         id="tspan3096"
         sodipodi:role="line">F</tspan></text>
<text
       y="-89.889145"
       x="192.11713"
       id="text3098"
       transform="scale(1,-1)"><tspan
         id="tspan3100"
         sodipodi:role="line"
         y="-89.889145"
         x="192.11713 195.10345 196.63246"
         style="font-size:5.5px;font-variant:normal;font-weight:normal;writing-mode:lr-tb;fill:#231f20;fill-opacity:1;fill-rule:nonzero;stroke:none;font-family:Helvetica;-inkscape-font-specification:Helvetica">V, r</tspan></text>
</g></svg>