<?xml version="1.0" encoding="UTF-8" standalone="no"?>
<!-- Created with Inkscape (http://www.inkscape.org/) -->

<svg
   xmlns:dc="http://purl.org/dc/elements/1.1/"
   xmlns:cc="http://creativecommons.org/ns#"
   xmlns:rdf="http://www.w3.org/1999/02/22-rdf-syntax-ns#"
   xmlns:svg="http://www.w3.org/2000/svg"
   xmlns="http://www.w3.org/2000/svg"
   xmlns:sodipodi="http://sodipodi.sourceforge.net/DTD/sodipodi-0.dtd"
   xmlns:inkscape="http://www.inkscape.org/namespaces/inkscape"
   id="svg2"
   version="1.1"
   inkscape:version="0.48.4 r9939"
   width="490.96179"
   height="333.62289"
   xml:space="preserve"
   sodipodi:docname="Wilson_006_fig_002.svg"
   inkscape:export-filename="/home/theo/HPV/BicyclingScience/BS4-chapter6/Wilson_006_fig_002.png"
   inkscape:export-xdpi="500.05624"
   inkscape:export-ydpi="500.05624"><metadata
     id="metadata8"><rdf:RDF><cc:Work
         rdf:about=""><dc:format>image/svg+xml</dc:format><dc:type
           rdf:resource="http://purl.org/dc/dcmitype/StillImage" /><dc:title></dc:title></cc:Work></rdf:RDF></metadata><defs
     id="defs6"><clipPath
       clipPathUnits="userSpaceOnUse"
       id="clipPath16"><path
         d="m 0,0.1 595.2,0 0,841.8 L 0,841.9 0,0.1 z"
         clip-rule="evenodd"
         id="path18"
         inkscape:connector-curvature="0" /></clipPath><clipPath
       clipPathUnits="userSpaceOnUse"
       id="clipPath24"><path
         d="m 56.7,771.2 481.8,0 0,14.1 -481.8,0 0,-14.1 z"
         clip-rule="evenodd"
         id="path26"
         inkscape:connector-curvature="0" /></clipPath><clipPath
       clipPathUnits="userSpaceOnUse"
       id="clipPath42"><path
         d="m 56.7,56.8 481.8,0 0,14.1 -481.8,0 0,-14.1 z"
         clip-rule="evenodd"
         id="path44"
         inkscape:connector-curvature="0" /></clipPath><clipPath
       clipPathUnits="userSpaceOnUse"
       id="clipPath66"><path
         d="m 56.6,425.2 426.2,0 0,338.7 -426.2,0 0,-338.7 z"
         clip-rule="evenodd"
         id="path68"
         inkscape:connector-curvature="0" /></clipPath><clipPath
       clipPathUnits="userSpaceOnUse"
       id="clipPath384"><path
         d="m -177,420 949,0 0,0.1 -949,0 0,-0.1 z"
         id="path386"
         inkscape:connector-curvature="0" /></clipPath></defs><sodipodi:namedview
     pagecolor="#ffffff"
     bordercolor="#666666"
     borderopacity="1"
     objecttolerance="10"
     gridtolerance="10"
     guidetolerance="10"
     inkscape:pageopacity="0"
     inkscape:pageshadow="2"
     inkscape:window-width="1920"
     inkscape:window-height="1139"
     id="namedview4"
     showgrid="false"
     showguides="true"
     inkscape:guide-bbox="true"
     units="mm"
     fit-margin-top="5"
     fit-margin-left="5"
     fit-margin-bottom="5"
     fit-margin-right="5"
     inkscape:zoom="1.7938242"
     inkscape:cx="243.65421"
     inkscape:cy="111.06271"
     inkscape:window-x="-4"
     inkscape:window-y="-4"
     inkscape:window-maximized="1"
     inkscape:current-layer="g10" /><g
     id="g10"
     inkscape:groupmode="layer"
     inkscape:label="Wilson_006_fig_002b"
     transform="matrix(1.25,0,0,-1.25,-111.42824,911.32176)"><g
       id="g12"><g
         id="g14"
         clip-path="url(#clipPath16)" /></g><g
       id="g72"
       transform="matrix(0.9375459,0,0,1,28.786623,0)"><path
         d="m 294.9,513.2 -165.6,0 0,198.3 331.2,0 0,-198.3 -165.6,0 z"
         style="fill:none;stroke:#000000;stroke-width:0.87676001;stroke-linecap:butt;stroke-linejoin:round;stroke-miterlimit:10;stroke-opacity:1;stroke-dasharray:none"
         id="path74"
         inkscape:connector-curvature="0" /></g><g
       id="g76"
       transform="translate(20.8,0)"><path
         d="m 129.3,509 0,4.3"
         style="fill:none;stroke:#000000;stroke-width:0.84894001;stroke-linecap:butt;stroke-linejoin:round;stroke-miterlimit:10;stroke-opacity:1;stroke-dasharray:none"
         id="path78"
         inkscape:connector-curvature="0" /></g><g
       id="g80"
       transform="translate(20.8,0)"><path
         d="m 129.3,509 0,4.3"
         style="fill:none;stroke:#000000;stroke-width:0.84894001;stroke-linecap:butt;stroke-linejoin:round;stroke-miterlimit:10;stroke-opacity:1;stroke-dasharray:none"
         id="path82"
         inkscape:connector-curvature="0" /></g><g
       id="g84"><path
         d="m 170.7,509 0,4.3"
         style="fill:none;stroke:#000000;stroke-width:0.84894001;stroke-linecap:butt;stroke-linejoin:round;stroke-miterlimit:10;stroke-opacity:1;stroke-dasharray:none"
         id="path86"
         inkscape:connector-curvature="0" /></g><g
       id="g88"><path
         d="m 170.7,509 0,4.3"
         style="fill:none;stroke:#000000;stroke-width:0.84894001;stroke-linecap:butt;stroke-linejoin:round;stroke-miterlimit:10;stroke-opacity:1;stroke-dasharray:none"
         id="path90"
         inkscape:connector-curvature="0" /></g><g
       id="g92"><path
         d="m 212.1,509 0,4.3"
         style="fill:none;stroke:#000000;stroke-width:0.84894001;stroke-linecap:butt;stroke-linejoin:round;stroke-miterlimit:10;stroke-opacity:1;stroke-dasharray:none"
         id="path94"
         inkscape:connector-curvature="0" /></g><g
       id="g96"><path
         d="m 212.1,509 0,4.3"
         style="fill:none;stroke:#000000;stroke-width:0.84894001;stroke-linecap:butt;stroke-linejoin:round;stroke-miterlimit:10;stroke-opacity:1;stroke-dasharray:none"
         id="path98"
         inkscape:connector-curvature="0" /></g><g
       id="g100"><path
         d="m 253.5,509 0,4.3"
         style="fill:none;stroke:#000000;stroke-width:0.84894001;stroke-linecap:butt;stroke-linejoin:round;stroke-miterlimit:10;stroke-opacity:1;stroke-dasharray:none"
         id="path102"
         inkscape:connector-curvature="0" /></g><g
       id="g104"><path
         d="m 253.5,509 0,4.3"
         style="fill:none;stroke:#000000;stroke-width:0.84894001;stroke-linecap:butt;stroke-linejoin:round;stroke-miterlimit:10;stroke-opacity:1;stroke-dasharray:none"
         id="path106"
         inkscape:connector-curvature="0" /></g><g
       id="g108"><path
         d="m 294.9,509 0,4.3"
         style="fill:none;stroke:#000000;stroke-width:0.84894001;stroke-linecap:butt;stroke-linejoin:round;stroke-miterlimit:10;stroke-opacity:1;stroke-dasharray:none"
         id="path110"
         inkscape:connector-curvature="0" /></g><g
       id="g112"><path
         d="m 294.9,509 0,4.3"
         style="fill:none;stroke:#000000;stroke-width:0.84894001;stroke-linecap:butt;stroke-linejoin:round;stroke-miterlimit:10;stroke-opacity:1;stroke-dasharray:none"
         id="path114"
         inkscape:connector-curvature="0" /></g><g
       id="g116"><path
         d="m 336.2,509 0,4.3"
         style="fill:none;stroke:#000000;stroke-width:0.84894001;stroke-linecap:butt;stroke-linejoin:round;stroke-miterlimit:10;stroke-opacity:1;stroke-dasharray:none"
         id="path118"
         inkscape:connector-curvature="0" /></g><g
       id="g120"><path
         d="m 336.2,509 0,4.3"
         style="fill:none;stroke:#000000;stroke-width:0.84894001;stroke-linecap:butt;stroke-linejoin:round;stroke-miterlimit:10;stroke-opacity:1;stroke-dasharray:none"
         id="path122"
         inkscape:connector-curvature="0" /></g><g
       id="g124"><path
         d="m 377.7,509 0,4.3"
         style="fill:none;stroke:#000000;stroke-width:0.84894001;stroke-linecap:butt;stroke-linejoin:round;stroke-miterlimit:10;stroke-opacity:1;stroke-dasharray:none"
         id="path126"
         inkscape:connector-curvature="0" /></g><g
       id="g128"><path
         d="m 377.7,509 0,4.3"
         style="fill:none;stroke:#000000;stroke-width:0.84894001;stroke-linecap:butt;stroke-linejoin:round;stroke-miterlimit:10;stroke-opacity:1;stroke-dasharray:none"
         id="path130"
         inkscape:connector-curvature="0" /></g><g
       id="g132"><path
         d="m 419,509 0,4.3"
         style="fill:none;stroke:#000000;stroke-width:0.84894001;stroke-linecap:butt;stroke-linejoin:round;stroke-miterlimit:10;stroke-opacity:1;stroke-dasharray:none"
         id="path134"
         inkscape:connector-curvature="0" /></g><g
       id="g136"><path
         d="m 419,509 0,4.3"
         style="fill:none;stroke:#000000;stroke-width:0.84894001;stroke-linecap:butt;stroke-linejoin:round;stroke-miterlimit:10;stroke-opacity:1;stroke-dasharray:none"
         id="path138"
         inkscape:connector-curvature="0" /></g><g
       id="g140"><path
         d="m 460.4,509 0,4.3"
         style="fill:none;stroke:#000000;stroke-width:0.84894001;stroke-linecap:butt;stroke-linejoin:round;stroke-miterlimit:10;stroke-opacity:1;stroke-dasharray:none"
         id="path142"
         inkscape:connector-curvature="0" /></g><g
       id="g144"><path
         d="m 460.4,509 0,4.3"
         style="fill:none;stroke:#000000;stroke-width:0.84894001;stroke-linecap:butt;stroke-linejoin:round;stroke-miterlimit:10;stroke-opacity:1;stroke-dasharray:none"
         id="path146"
         inkscape:connector-curvature="0" /></g><g
       id="g148" /><g
       id="g152"
       transform="translate(20.8,0)"><path
         d="m 125,513.3 4.3,0"
         style="fill:none;stroke:#000000;stroke-width:0.84894001;stroke-linecap:butt;stroke-linejoin:round;stroke-miterlimit:10;stroke-opacity:1;stroke-dasharray:none"
         id="path154"
         inkscape:connector-curvature="0" /></g><g
       id="g156"
       transform="translate(20.8,0)"><path
         d="m 125,513.3 4.3,0"
         style="fill:none;stroke:#000000;stroke-width:0.84894001;stroke-linecap:butt;stroke-linejoin:round;stroke-miterlimit:10;stroke-opacity:1;stroke-dasharray:none"
         id="path158"
         inkscape:connector-curvature="0" /></g><g
       id="g160"
       transform="translate(20.8,0)"><path
         d="m 125,541.6 4.3,0"
         style="fill:none;stroke:#000000;stroke-width:0.84894001;stroke-linecap:butt;stroke-linejoin:round;stroke-miterlimit:10;stroke-opacity:1;stroke-dasharray:none"
         id="path162"
         inkscape:connector-curvature="0" /></g><g
       id="g164"
       transform="translate(20.8,0)"><path
         d="m 125,541.6 4.3,0"
         style="fill:none;stroke:#000000;stroke-width:0.84894001;stroke-linecap:butt;stroke-linejoin:round;stroke-miterlimit:10;stroke-opacity:1;stroke-dasharray:none"
         id="path166"
         inkscape:connector-curvature="0" /></g><g
       id="g168"
       transform="translate(20.8,0)"><path
         d="m 125,570 4.3,0"
         style="fill:none;stroke:#000000;stroke-width:0.84894001;stroke-linecap:butt;stroke-linejoin:round;stroke-miterlimit:10;stroke-opacity:1;stroke-dasharray:none"
         id="path170"
         inkscape:connector-curvature="0" /></g><g
       id="g172"
       transform="translate(20.8,0)"><path
         d="m 125,570 4.3,0"
         style="fill:none;stroke:#000000;stroke-width:0.84894001;stroke-linecap:butt;stroke-linejoin:round;stroke-miterlimit:10;stroke-opacity:1;stroke-dasharray:none"
         id="path174"
         inkscape:connector-curvature="0" /></g><g
       id="g176"
       transform="translate(20.8,0)"><path
         d="m 125,598.3 4.3,0"
         style="fill:none;stroke:#000000;stroke-width:0.84894001;stroke-linecap:butt;stroke-linejoin:round;stroke-miterlimit:10;stroke-opacity:1;stroke-dasharray:none"
         id="path178"
         inkscape:connector-curvature="0" /></g><g
       id="g180"
       transform="translate(20.8,0)"><path
         d="m 125,598.3 4.3,0"
         style="fill:none;stroke:#000000;stroke-width:0.84894001;stroke-linecap:butt;stroke-linejoin:round;stroke-miterlimit:10;stroke-opacity:1;stroke-dasharray:none"
         id="path182"
         inkscape:connector-curvature="0" /></g><g
       id="g184"
       transform="translate(20.8,0)"><path
         d="m 125,626.6 4.3,0"
         style="fill:none;stroke:#000000;stroke-width:0.84894001;stroke-linecap:butt;stroke-linejoin:round;stroke-miterlimit:10;stroke-opacity:1;stroke-dasharray:none"
         id="path186"
         inkscape:connector-curvature="0" /></g><g
       id="g188"
       transform="translate(20.8,0)"><path
         d="m 125,626.6 4.3,0"
         style="fill:none;stroke:#000000;stroke-width:0.84894001;stroke-linecap:butt;stroke-linejoin:round;stroke-miterlimit:10;stroke-opacity:1;stroke-dasharray:none"
         id="path190"
         inkscape:connector-curvature="0" /></g><g
       id="g192"
       transform="translate(20.8,0)"><path
         d="m 125,654.9 4.3,0"
         style="fill:none;stroke:#000000;stroke-width:0.84894001;stroke-linecap:butt;stroke-linejoin:round;stroke-miterlimit:10;stroke-opacity:1;stroke-dasharray:none"
         id="path194"
         inkscape:connector-curvature="0" /></g><g
       id="g196"
       transform="translate(20.8,0)"><path
         d="m 125,654.9 4.3,0"
         style="fill:none;stroke:#000000;stroke-width:0.84894001;stroke-linecap:butt;stroke-linejoin:round;stroke-miterlimit:10;stroke-opacity:1;stroke-dasharray:none"
         id="path198"
         inkscape:connector-curvature="0" /></g><g
       id="g200"
       transform="translate(20.8,0)"><path
         d="m 125,683.3 4.3,0"
         style="fill:none;stroke:#000000;stroke-width:0.84894001;stroke-linecap:butt;stroke-linejoin:round;stroke-miterlimit:10;stroke-opacity:1;stroke-dasharray:none"
         id="path202"
         inkscape:connector-curvature="0" /></g><g
       id="g204"
       transform="translate(20.8,0)"><path
         d="m 125,683.3 4.3,0"
         style="fill:none;stroke:#000000;stroke-width:0.84894001;stroke-linecap:butt;stroke-linejoin:round;stroke-miterlimit:10;stroke-opacity:1;stroke-dasharray:none"
         id="path206"
         inkscape:connector-curvature="0" /></g><g
       id="g208"
       transform="translate(20.8,0)"><path
         d="m 125,711.6 4.3,0"
         style="fill:none;stroke:#000000;stroke-width:0.84894001;stroke-linecap:butt;stroke-linejoin:round;stroke-miterlimit:10;stroke-opacity:1;stroke-dasharray:none"
         id="path210"
         inkscape:connector-curvature="0" /></g><g
       id="g212"
       transform="translate(20.8,0)"><path
         d="m 125,711.6 4.3,0"
         style="fill:none;stroke:#000000;stroke-width:0.84894001;stroke-linecap:butt;stroke-linejoin:round;stroke-miterlimit:10;stroke-opacity:1;stroke-dasharray:none"
         id="path214"
         inkscape:connector-curvature="0" /></g><g
       id="g216"
       transform="translate(20.8,0)"><path
         d="m 129.3,513.3 0,198.3"
         style="fill:none;stroke:#000000;stroke-width:0.84894001;stroke-linecap:butt;stroke-linejoin:round;stroke-miterlimit:10;stroke-opacity:1;stroke-dasharray:none"
         id="path218"
         inkscape:connector-curvature="0" /></g><g
       id="g220"><path
         sodipodi:nodetypes="ccccccccccccccccccccccccccccccccccccccccccccccccccccccccccccccccccccccccccccccccccccccccccccccccccccccccccccc"
         d="m 150.7,694.5 2.2,-1.4 2.3,-1.4 2.4,-1.5 2.5,-1.5 2.7,-1.5 2.7,-1.6 3,-1.6 3,-1.6 3.2,-1.7 3.4,-1.8 3.5,-1.7 3.6,-1.8 3.8,-1.9 3.8,-1.8 4,-1.9 4.1,-1.8 4.2,-1.9 4.2,-1.9 4.4,-1.9 4.4,-1.9 4.5,-1.8 4.5,-1.9 4.6,-1.8 4.6,-1.8 4.7,-1.8 4.7,-1.7 4.7,-1.7 4.7,-1.6 4.8,-1.6 4.7,-1.6 4.7,-1.5 4.7,-1.4 4.7,-1.4 4.7,-1.4 4.5,-1.3 4.6,-1.3 4.4,-1.2 4.4,-1.1 4.3,-1.1 4.2,-1.1 4.1,-1 3.9,-1 3.9,-0.9 3.7,-0.9 3.6,-0.9 3.4,-0.8 3.3,-0.7 3,-0.7 3,-0.7 2.7,-0.6 2.6,-0.6 2.4,-0.5 2.4,-0.5 2.2,-0.5 2.1,-0.5 2,-0.4 2,-0.4 1.9,-0.4 1.9,-0.4 1.9,-0.4 1.9,-0.3 1.9,-0.4 1.9,-0.4 1.9,-0.3 2,-0.4 2,-0.4 2.2,-0.3 2.2,-0.4 2.3,-0.4 2.5,-0.5 2.5,-0.4 2.6,-0.5 2.7,-0.4 2.7,-0.5 2.7,-0.5 2.8,-0.5 2.8,-0.4 2.8,-0.5 2.8,-0.5 2.8,-0.4 2.7,-0.5 2.7,-0.5 2.7,-0.4 2.6,-0.4 2.5,-0.4 2.4,-0.4 2.3,-0.4 2.3,-0.4 2.1,-0.3 1.9,-0.3 1.9,-0.3 1.7,-0.3 1.7,-0.2 1.5,-0.3 1.5,-0.2 1.4,-0.2 1.3,-0.2 1.3,-0.2 1.2,-0.1 1.1,-0.2 1.1,-0.1 1.1,-0.2 1,-0.1 0.9,-0.2 1,-0.1 0.9,-0.1 0.9,-0.1 0.9,-0.2"
         style="fill:none;stroke:#000000;stroke-width:1.41489995;stroke-linecap:butt;stroke-linejoin:round;stroke-miterlimit:10;stroke-opacity:1;stroke-dasharray:none"
         id="path222"
         inkscape:connector-curvature="0" /></g><path
       d="m 169.4,689.4 0,-4.3 4.3,0 0,4.3 -4.3,0 z"
       style="fill:#000000;fill-opacity:1;fill-rule:evenodd;stroke:none"
       id="path224"
       inkscape:connector-curvature="0" /><g
       id="g226"><path
         d="m 169.4,689.4 0,-4.3 4.3,0 0,4.3 -4.3,0 z"
         style="fill:none;stroke:none"
         id="path228"
         inkscape:connector-curvature="0" /></g><path
       d="m 253,644.3 0,-4.2 4.3,0 0,4.2 -4.3,0 z"
       style="fill:#000000;fill-opacity:1;fill-rule:evenodd;stroke:none"
       id="path230"
       inkscape:connector-curvature="0" /><g
       id="g232"><path
         d="m 253,644.3 0,-4.2 4.3,0 0,4.2 -4.3,0 z"
         style="fill:none;stroke:none"
         id="path234"
         inkscape:connector-curvature="0" /></g><path
       d="m 336.6,631 0,-4.3 4.3,0 0,4.3 -4.3,0 z"
       style="fill:#000000;fill-opacity:1;fill-rule:evenodd;stroke:none"
       id="path236"
       inkscape:connector-curvature="0" /><g
       id="g238"><path
         d="m 336.6,631 0,-4.3 4.3,0 0,4.3 -4.3,0 z"
         style="fill:none;stroke:none"
         id="path240"
         inkscape:connector-curvature="0" /></g><path
       d="m 379.7,609.4 0,-4.2 4.2,0 0,4.2 -4.2,0 z"
       style="fill:#000000;fill-opacity:1;fill-rule:evenodd;stroke:none"
       id="path242"
       inkscape:connector-curvature="0" /><g
       id="g244"><path
         d="m 379.7,609.4 0,-4.2 4.2,0 0,4.2 -4.2,0 z"
         style="fill:none;stroke:none"
         id="path246"
         inkscape:connector-curvature="0" /></g><path
       d="m 431.8,610.6 0,-4.3 4.3,0 0,4.3 -4.3,0 z"
       style="fill:#000000;fill-opacity:1;fill-rule:evenodd;stroke:none"
       id="path248"
       inkscape:connector-curvature="0" /><g
       id="g250"><path
         d="m 431.8,610.6 0,-4.3 4.3,0 0,4.3 -4.3,0 z"
         style="fill:none;stroke:none"
         id="path252"
         inkscape:connector-curvature="0" /></g><g
       id="g254"><text
         transform="matrix(1,0,0,-1,121.4,497.9)"
         id="text256"><tspan
           style="font-size:9px;font-variant:normal;font-weight:normal;writing-mode:lr-tb;fill:#000000;fill-opacity:1;fill-rule:nonzero;stroke:none;font-family:Liberation Sans;-inkscape-font-specification:LiberationSans"
           x="0"
           y="0"
           sodipodi:role="line"
           id="tspan258" /></text>
</g><g
       id="g260"><text
         transform="matrix(1,0,0,-1,162.8,497.9)"
         id="text262"><tspan
           style="font-size:9px;font-variant:normal;font-weight:normal;writing-mode:lr-tb;fill:#000000;fill-opacity:1;fill-rule:nonzero;stroke:none;font-family:Liberation Sans;-inkscape-font-specification:LiberationSans"
           x="0 5.2919998 10.485"
           y="0"
           sodipodi:role="line"
           id="tspan264">350</tspan></text>
</g><g
       id="g266"><text
         transform="matrix(1,0,0,-1,204.2,497.9)"
         id="text268"><tspan
           style="font-size:9px;font-variant:normal;font-weight:normal;writing-mode:lr-tb;fill:#000000;fill-opacity:1;fill-rule:nonzero;stroke:none;font-family:Liberation Sans;-inkscape-font-specification:LiberationSans"
           x="0 5.1929998 10.485"
           y="0"
           sodipodi:role="line"
           id="tspan270">400</tspan></text>
</g><g
       id="g272"><text
         transform="matrix(1,0,0,-1,245.6,497.9)"
         id="text274"><tspan
           style="font-size:9px;font-variant:normal;font-weight:normal;writing-mode:lr-tb;fill:#000000;fill-opacity:1;fill-rule:nonzero;stroke:none;font-family:Liberation Sans;-inkscape-font-specification:LiberationSans"
           x="0 5.2919998 10.485"
           y="0"
           sodipodi:role="line"
           id="tspan276">450</tspan></text>
</g><g
       id="g278"><text
         transform="matrix(1,0,0,-1,287,497.9)"
         id="text280"><tspan
           style="font-size:9px;font-variant:normal;font-weight:normal;writing-mode:lr-tb;fill:#000000;fill-opacity:1;fill-rule:nonzero;stroke:none;font-family:Liberation Sans;-inkscape-font-specification:LiberationSans"
           x="0 5.1929998 10.485"
           y="0"
           sodipodi:role="line"
           id="tspan282">500</tspan></text>
</g><g
       id="g284"><text
         transform="matrix(1,0,0,-1,328.4,497.9)"
         id="text286"><tspan
           style="font-size:9px;font-variant:normal;font-weight:normal;writing-mode:lr-tb;fill:#000000;fill-opacity:1;fill-rule:nonzero;stroke:none;font-family:Liberation Sans;-inkscape-font-specification:LiberationSans"
           x="0 5.1929998 10.485"
           y="0"
           sodipodi:role="line"
           id="tspan288">550</tspan></text>
</g><g
       id="g290"><text
         transform="matrix(1,0,0,-1,369.8,497.9)"
         id="text292"><tspan
           style="font-size:9px;font-variant:normal;font-weight:normal;writing-mode:lr-tb;fill:#000000;fill-opacity:1;fill-rule:nonzero;stroke:none;font-family:Liberation Sans;-inkscape-font-specification:LiberationSans"
           x="0 5.1929998 10.485"
           y="0"
           sodipodi:role="line"
           id="tspan294">600</tspan></text>
</g><g
       id="g296"><text
         transform="matrix(1,0,0,-1,411.2,497.9)"
         id="text298"><tspan
           style="font-size:9px;font-variant:normal;font-weight:normal;writing-mode:lr-tb;fill:#000000;fill-opacity:1;fill-rule:nonzero;stroke:none;font-family:Liberation Sans;-inkscape-font-specification:LiberationSans"
           x="0 5.1929998 10.485"
           y="0"
           sodipodi:role="line"
           id="tspan300">650</tspan></text>
</g><g
       id="g302"><text
         transform="matrix(1,0,0,-1,452.6,497.9)"
         id="text304"><tspan
           style="font-size:9px;font-variant:normal;font-weight:normal;writing-mode:lr-tb;fill:#000000;fill-opacity:1;fill-rule:nonzero;stroke:none;font-family:Liberation Sans;-inkscape-font-specification:LiberationSans"
           x="0 5.1929998 10.485"
           y="0"
           sodipodi:role="line"
           id="tspan306">700</tspan></text>
</g><g
       id="g308"
       transform="translate(20.8,0)"><text
         transform="matrix(1,0,0,-1,99,510.2)"
         id="text310"><tspan
           style="font-size:9px;font-variant:normal;font-weight:normal;writing-mode:lr-tb;fill:#000000;fill-opacity:1;fill-rule:nonzero;stroke:none;font-family:Liberation Sans;-inkscape-font-specification:LiberationSans"
           x="0 5.2919998 7.5960002 12.789 17.982"
           y="0"
           sodipodi:role="line"
           id="tspan312">0.000</tspan></text>
</g><g
       id="g314"
       transform="translate(20.8,0)"><text
         transform="matrix(1,0,0,-1,99,538.6)"
         id="text316"><tspan
           style="font-size:9px;font-variant:normal;font-weight:normal;writing-mode:lr-tb;fill:#000000;fill-opacity:1;fill-rule:nonzero;stroke:none;font-family:Liberation Sans;-inkscape-font-specification:LiberationSans"
           x="0 5.2919998 7.5960002 12.789 17.982"
           y="0"
           sodipodi:role="line"
           id="tspan318">0.001</tspan></text>
</g><g
       id="g320"
       transform="translate(20.8,0)"><text
         transform="matrix(1,0,0,-1,99,566.9)"
         id="text322"><tspan
           style="font-size:9px;font-variant:normal;font-weight:normal;writing-mode:lr-tb;fill:#000000;fill-opacity:1;fill-rule:nonzero;stroke:none;font-family:Liberation Sans;-inkscape-font-specification:LiberationSans"
           x="0 5.2919998 7.5960002 12.789 17.982"
           y="0"
           sodipodi:role="line"
           id="tspan324">0.002</tspan></text>
</g><g
       id="g326"
       transform="translate(20.8,0)"><text
         transform="matrix(1,0,0,-1,99,595.2)"
         id="text328"><tspan
           style="font-size:9px;font-variant:normal;font-weight:normal;writing-mode:lr-tb;fill:#000000;fill-opacity:1;fill-rule:nonzero;stroke:none;font-family:Liberation Sans;-inkscape-font-specification:LiberationSans"
           x="0 5.2919998 7.5960002 12.789 17.982"
           y="0"
           sodipodi:role="line"
           id="tspan330">0.003</tspan></text>
</g><g
       id="g332"
       transform="translate(20.8,0)"><text
         transform="matrix(1,0,0,-1,99,623.6)"
         id="text334"><tspan
           style="font-size:9px;font-variant:normal;font-weight:normal;writing-mode:lr-tb;fill:#000000;fill-opacity:1;fill-rule:nonzero;stroke:none;font-family:Liberation Sans;-inkscape-font-specification:LiberationSans"
           x="0 5.2919998 7.5960002 12.789 17.982"
           y="0"
           sodipodi:role="line"
           id="tspan336">0.004</tspan></text>
</g><g
       id="g338"
       transform="translate(20.8,0)"><text
         transform="matrix(1,0,0,-1,99,651.9)"
         id="text340"><tspan
           style="font-size:9px;font-variant:normal;font-weight:normal;writing-mode:lr-tb;fill:#000000;fill-opacity:1;fill-rule:nonzero;stroke:none;font-family:Liberation Sans;-inkscape-font-specification:LiberationSans"
           x="0 5.2919998 7.5960002 12.789 17.982"
           y="0"
           sodipodi:role="line"
           id="tspan342">0.005</tspan></text>
</g><g
       id="g344"
       transform="translate(20.8,0)"><text
         transform="matrix(1,0,0,-1,99,680.3)"
         id="text346"><tspan
           style="font-size:9px;font-variant:normal;font-weight:normal;writing-mode:lr-tb;fill:#000000;fill-opacity:1;fill-rule:nonzero;stroke:none;font-family:Liberation Sans;-inkscape-font-specification:LiberationSans"
           x="0 5.2919998 7.5960002 12.789 17.982"
           y="0"
           sodipodi:role="line"
           id="tspan348">0.006</tspan></text>
</g><g
       id="g350"
       transform="translate(20.8,0)"><text
         transform="matrix(1,0,0,-1,99,708.6)"
         id="text352"><tspan
           style="font-size:9px;font-variant:normal;font-weight:normal;writing-mode:lr-tb;fill:#000000;fill-opacity:1;fill-rule:nonzero;stroke:none;font-family:Liberation Sans;-inkscape-font-specification:LiberationSans"
           x="0 5.2919998 7.5960002 12.789 17.982"
           y="0"
           sodipodi:role="line"
           id="tspan354">0.007</tspan></text>
</g><g
       id="g356"><text
         transform="matrix(1,0,0,-1,214,598.9)"
         id="text358"><tspan
           style="font-size:9px;font-variant:normal;font-weight:normal;writing-mode:lr-tb;fill:#000000;fill-opacity:1;fill-rule:nonzero;stroke:none;font-family:Liberation Sans;-inkscape-font-specification:LiberationSans"
           x="0 6.7950001 13.482 15.786 20.988001 23.292 28.485001 30.789 35.981998 41.273998 46.466999 51.758999 56.952 59.256001 64.458 66.762001 71.955002 74.259003 76.563004 78.759003 81.755997"
           y="0"
           sodipodi:role="line"
           id="tspan360">C<tspan
   style="font-size:6.4px;baseline-shift:sub"
   id="tspan3149">R</tspan> = 0.00027 + 1 / r<tspan
   style="font-size:6.4px;baseline-shift:sub"
   id="tspan3153">W</tspan></tspan></text>
</g><g
       id="g362"><text
         transform="scale(1,-1)"
         id="text364"
         x="260.6091"
         y="-480.87585"><tspan
           style="font-size:9px;font-variant:normal;font-weight:normal;writing-mode:lr-tb;fill:#000000;fill-opacity:1;fill-rule:nonzero;stroke:none;font-family:Liberation Sans;-inkscape-font-specification:LiberationSans"
           x="260.6091 265.1091 267.40411 270.40112 275.59412 277.8981 283.09113 285.38611 290.5791 298.8681 304.0611 306.36511"
           y="-480.87585"
           sodipodi:role="line"
           id="tspan366">Tire diameter, mm</tspan></text>
</g><g
       id="g368"
       transform="translate(25.337924,-47.273306)"><text
         transform="matrix(0,1,1,0,85.6,599.5)"
         id="text370"><tspan
           style="font-size:9px;font-variant:normal;font-weight:normal;writing-mode:lr-tb;fill:#000000;fill-opacity:1;fill-rule:nonzero;stroke:none;font-family:Liberation Sans;-inkscape-font-specification:LiberationSans"
           x="0"
           y="0"
           id="tspan372">C</tspan></text>
<text
         transform="matrix(0,1,1,0,85.6,606.2)"
         id="text374"><tspan
           style="font-size:9px;font-variant:normal;font-weight:normal;writing-mode:lr-tb;fill:#000000;fill-opacity:1;fill-rule:nonzero;stroke:none;font-family:Liberation Sans;-inkscape-font-specification:LiberationSans"
           x="0"
           y="0"
           id="tspan376">oefficient of rolling resistance</tspan></text>
</g><g
       id="g378"><g
         id="g380"><g
           id="g382"
           clip-path="url(#clipPath384)" /></g></g></g></svg>