<?xml version="1.0" encoding="UTF-8" standalone="no"?>
<!-- Created with Inkscape (http://www.inkscape.org/) -->

<svg
   xmlns:dc="http://purl.org/dc/elements/1.1/"
   xmlns:cc="http://creativecommons.org/ns#"
   xmlns:rdf="http://www.w3.org/1999/02/22-rdf-syntax-ns#"
   xmlns:svg="http://www.w3.org/2000/svg"
   xmlns="http://www.w3.org/2000/svg"
   xmlns:sodipodi="http://sodipodi.sourceforge.net/DTD/sodipodi-0.dtd"
   xmlns:inkscape="http://www.inkscape.org/namespaces/inkscape"
   id="svg2"
   version="1.1"
   inkscape:version="0.48.4 r9939"
   width="358.651"
   height="212.17529"
   xml:space="preserve"
   sodipodi:docname="Wilson_005_fig_017.svg"
   inkscape:export-filename="/home/theo/Desktop/BSreview/Wilson_005_fig_017.png"
   inkscape:export-xdpi="400.0061"
   inkscape:export-ydpi="400.0061"><metadata
     id="metadata8"><rdf:RDF><cc:Work
         rdf:about=""><dc:format>image/svg+xml</dc:format><dc:type
           rdf:resource="http://purl.org/dc/dcmitype/StillImage" /><dc:title></dc:title></cc:Work></rdf:RDF></metadata><defs
     id="defs6"><clipPath
       clipPathUnits="userSpaceOnUse"
       id="clipPath18"><path
         d="m 2186.91,3299.37 c 0,-149.12 -120.87,-270 -269.99,-270 -149.12,0 -270,120.88 -270,270 0,149.11 120.88,269.99 270,269.99 149.12,0 269.99,-120.88 269.99,-269.99"
         id="path20"
         inkscape:connector-curvature="0" /></clipPath><clipPath
       clipPathUnits="userSpaceOnUse"
       id="clipPath24"><path
         d="m 1422.75,2885.2 720.3,0 0,720.3 -720.3,0 0,-720.3 z"
         id="path26"
         inkscape:connector-curvature="0" /></clipPath><clipPath
       clipPathUnits="userSpaceOnUse"
       id="clipPath72"><path
         d="m 2186.91,3299.37 c 0,-149.12 -120.87,-270 -269.99,-270 -149.12,0 -270,120.88 -270,270 0,149.11 120.88,269.99 270,269.99 149.12,0 269.99,-120.88 269.99,-269.99"
         id="path74"
         inkscape:connector-curvature="0" /></clipPath><clipPath
       clipPathUnits="userSpaceOnUse"
       id="clipPath78"><path
         d="m 2142.74,2885.2 720.3,0 0,720.3 -720.3,0 0,-720.3 z"
         id="path80"
         inkscape:connector-curvature="0" /></clipPath><clipPath
       clipPathUnits="userSpaceOnUse"
       id="clipPath112"><path
         d="m 0,0 3106.9,0 0,3611 L 0,3611 0,0 z"
         id="path114"
         inkscape:connector-curvature="0" /></clipPath><clipPath
       clipPathUnits="userSpaceOnUse"
       id="clipPath276"><path
         d="m 2186.91,2484.37 c 0,-149.12 -120.87,-270 -269.99,-270 -149.12,0 -270,120.88 -270,270 0,149.12 120.88,270 270,270 149.12,0 269.99,-120.88 269.99,-270"
         id="path278"
         inkscape:connector-curvature="0" /></clipPath><clipPath
       clipPathUnits="userSpaceOnUse"
       id="clipPath282"><path
         d="m 1422.75,2165.21 720.3,0 0,720.3 -720.3,0 0,-720.3 z"
         id="path284"
         inkscape:connector-curvature="0" /></clipPath><clipPath
       clipPathUnits="userSpaceOnUse"
       id="clipPath334"><path
         d="m 2186.91,2484.37 c 0,-149.12 -120.87,-270 -269.99,-270 -149.12,0 -270,120.88 -270,270 0,149.12 120.88,270 270,270 149.12,0 269.99,-120.88 269.99,-270"
         id="path336"
         inkscape:connector-curvature="0" /></clipPath><clipPath
       clipPathUnits="userSpaceOnUse"
       id="clipPath340"><path
         d="m 2142.74,2165.21 720.3,0 0,720.3 -720.3,0 0,-720.3 z"
         id="path342"
         inkscape:connector-curvature="0" /></clipPath><clipPath
       clipPathUnits="userSpaceOnUse"
       id="clipPath370"><path
         d="m 0,0 0,3611 3107,0 L 3107,0 0,0 z"
         id="path372"
         inkscape:connector-curvature="0" /></clipPath></defs><sodipodi:namedview
     pagecolor="#ffffff"
     bordercolor="#666666"
     borderopacity="1"
     objecttolerance="10"
     gridtolerance="10"
     guidetolerance="10"
     inkscape:pageopacity="0"
     inkscape:pageshadow="2"
     inkscape:window-width="1920"
     inkscape:window-height="1139"
     id="namedview4"
     showgrid="false"
     fit-margin-top="8"
     fit-margin-left="8"
     fit-margin-bottom="8"
     fit-margin-right="8"
     inkscape:zoom="2"
     inkscape:cx="225.08888"
     inkscape:cy="193.84598"
     inkscape:window-x="-4"
     inkscape:window-y="-4"
     inkscape:window-maximized="1"
     inkscape:current-layer="g10" /><g
     id="g10"
     inkscape:groupmode="layer"
     inkscape:label="ink_ext_XXXXXX"
     transform="matrix(1.25,0,0,-1.25,2.5504382,208.71076)"><g
       id="g120"><text
         id="text122"
         transform="matrix(1,0,0,-1,16.6,143.023)"><tspan
           id="tspan124"
           sodipodi:role="line"
           y="0"
           x="0 4.1700001 6.2550001"
           style="font-size:7.5px;font-variant:normal;font-weight:normal;writing-mode:lr-tb;fill:#231f20;fill-opacity:1;fill-rule:nonzero;stroke:none;font-family:Helvetica;-inkscape-font-specification:Helvetica">1.5</tspan><tspan
           id="tspan126"
           y="123.167"
           x="6.0054698"
           style="font-size:7.5px;font-variant:normal;font-weight:normal;writing-mode:lr-tb;fill:#231f20;fill-opacity:1;fill-rule:nonzero;stroke:none;font-family:Helvetica;-inkscape-font-specification:Helvetica">0</tspan><tspan
           id="tspan128"
           sodipodi:role="line"
           y="129.16701"
           x="10.42344 77.751167 145.74609 213.41093"
           style="font-size:7.5px;font-variant:normal;font-weight:normal;writing-mode:lr-tb;fill:#231f20;fill-opacity:1;fill-rule:nonzero;stroke:none;font-family:Helvetica;-inkscape-font-specification:Helvetica">0123</tspan></text>
</g><path
       inkscape:connector-curvature="0"
       id="path130"
       style="fill:none;stroke:#231f20;stroke-width:0.38728976;stroke-linecap:butt;stroke-linejoin:miter;stroke-miterlimit:4;stroke-opacity:1;stroke-dasharray:none"
       d="m 29.219045,160.35912 0,-138.143575 248.911325,0" /><path
       inkscape:connector-curvature="0"
       id="path154"
       style="fill:none;stroke:#231f20;stroke-width:0.5;stroke-linecap:butt;stroke-linejoin:miter;stroke-miterlimit:4;stroke-opacity:1;stroke-dasharray:none"
       d="m 29.2754,145.438 4,0" /><g
       id="g156"><text
         id="text158"
         transform="matrix(1,0,0,-1,16.6,60.023)"><tspan
           id="tspan160"
           sodipodi:role="line"
           y="0"
           x="0 4.1700001 6.2550001"
           style="font-size:7.5px;font-variant:normal;font-weight:normal;writing-mode:lr-tb;fill:#231f20;fill-opacity:1;fill-rule:nonzero;stroke:none;font-family:Helvetica;-inkscape-font-specification:Helvetica">0.5</tspan></text>
</g><path
       inkscape:connector-curvature="0"
       id="path162"
       style="fill:none;stroke:#231f20;stroke-width:0.5;stroke-linecap:butt;stroke-linejoin:miter;stroke-miterlimit:4;stroke-opacity:1;stroke-dasharray:none"
       d="m 29.2754,62.4379 4,0" /><g
       id="g164"><text
         id="text166"
         transform="matrix(1,0,0,-1,16.6,101.023)"><tspan
           id="tspan168"
           sodipodi:role="line"
           style="font-size:7.5px;font-variant:normal;font-weight:normal;writing-mode:lr-tb;fill:#231f20;fill-opacity:1;fill-rule:nonzero;stroke:none;font-family:Helvetica;-inkscape-font-specification:Helvetica"
           x="0"
           y="0">1.0</tspan></text>
</g><path
       inkscape:connector-curvature="0"
       id="path170"
       style="fill:none;stroke:#231f20;stroke-width:0.5;stroke-linecap:butt;stroke-linejoin:miter;stroke-miterlimit:4;stroke-opacity:1;stroke-dasharray:none"
       d="m 29.2754,103.438 4,0" /><path
       inkscape:connector-curvature="0"
       id="path172"
       style="fill:none;stroke:#231f20;stroke-width:0.5;stroke-linecap:butt;stroke-linejoin:miter;stroke-miterlimit:4;stroke-opacity:1;stroke-dasharray:none"
       d="m 96.4004,22.3141 0,4" /><path
       inkscape:connector-curvature="0"
       id="path174"
       style="fill:none;stroke:#231f20;stroke-width:0.5;stroke-linecap:butt;stroke-linejoin:miter;stroke-miterlimit:4;stroke-opacity:1;stroke-dasharray:none"
       d="m 164.4,22.3141 0,4" /><path
       inkscape:connector-curvature="0"
       id="path176"
       style="fill:none;stroke:#231f20;stroke-width:0.5;stroke-linecap:butt;stroke-linejoin:miter;stroke-miterlimit:4;stroke-opacity:1;stroke-dasharray:none"
       d="m 232.399,22.3141 0,4" /><g
       id="g178"
       transform="translate(-2.906358,-91.51089)"><text
         id="text180"
         transform="matrix(1,0,0,-1,16.0258,246.522)"><tspan
           id="tspan182"
           y="0"
           x="0"
           style="font-size:7.5px;font-variant:normal;font-weight:normal;writing-mode:lr-tb;fill:#231f20;fill-opacity:1;fill-rule:nonzero;stroke:none;font-family:Helvetica;-inkscape-font-specification:Helvetica">C</tspan></text>
<text
         id="text184"
         transform="matrix(1,0,0,-1,21.441,244.522)"><tspan
           id="tspan186"
           y="0"
           x="0"
           style="font-size:5.5px;font-variant:normal;font-weight:normal;writing-mode:lr-tb;fill:#231f20;fill-opacity:1;fill-rule:nonzero;stroke:none;font-family:Helvetica;-inkscape-font-specification:Helvetica">D</tspan></text>
<text
         id="text188"
         transform="matrix(1,0,0,-1,79.1891,291.855)"><tspan
           id="tspan190"
           y="0"
           x="0"
           style="font-size:7.5px;font-variant:normal;font-weight:normal;writing-mode:lr-tb;fill:#231f20;fill-opacity:1;fill-rule:nonzero;stroke:none;font-family:Helvetica;-inkscape-font-specification:Helvetica" /></text>
</g><path
       inkscape:connector-curvature="0"
       id="path192"
       style="fill:none;stroke:#231f20;stroke-width:0.69833732;stroke-linecap:butt;stroke-linejoin:miter;stroke-miterlimit:4;stroke-opacity:1;stroke-dasharray:none"
       d="m 120.15345,74.037134 33.81041,0" /><path
       inkscape:connector-curvature="0"
       id="path194"
       style="fill:#231f20;fill-opacity:1;fill-rule:nonzero;stroke:none"
       d="m 153.89866,74.037134 -1.18622,1.95146 0.0665,0.0441 3.18256,-1.26359 c 1.10806,-0.24373 2.21688,-0.48748 3.32571,-0.73199 -1.10883,-0.24375 -2.21765,-0.48748 -3.32571,-0.732 l -3.18256,-1.26358 -0.0665,0.0333 1.18622,1.96231" /><text
       transform="scale(1,-1)"
       id="text208"
       x="193.9877"
       y="-198.35606"><tspan
         style="font-size:7.5px;font-variant:normal;font-weight:normal;writing-mode:lr-tb;fill:#231f20;fill-opacity:1;fill-rule:nonzero;stroke:none;font-family:Symbol;-inkscape-font-specification:Symbol"
         x="193.9877"
         y="-198.35606"
         id="tspan210" /></text>
<text
       transform="scale(1,-1)"
       id="text238"
       x="109.5"
       y="-110.705"><tspan
         style="font-size:7.5px;font-variant:normal;font-weight:normal;writing-mode:lr-tb;fill:#231f20;fill-opacity:1;fill-rule:nonzero;stroke:none;font-family:Helvetica;-inkscape-font-specification:Helvetica"
         x="109.5 114.915"
         y="-110.705"
         sodipodi:role="line"
         id="tspan240">Re</tspan></text>
<text
       transform="scale(1,-1)"
       id="text242"
       x="119.085"
       y="-108.705"><tspan
         style="font-size:5.5px;font-variant:normal;font-weight:normal;writing-mode:lr-tb;fill:#231f20;fill-opacity:1;fill-rule:nonzero;stroke:none;font-family:Helvetica;-inkscape-font-specification:Helvetica"
         x="119.085"
         y="-108.705"
         id="tspan244">d</tspan></text>
<text
       transform="scale(1,-1)"
       id="text246"
       x="124.228"
       y="-110.705"><tspan
         style="font-size:7.5px;font-variant:normal;font-weight:normal;writing-mode:lr-tb;fill:#231f20;fill-opacity:1;fill-rule:nonzero;stroke:none;font-family:Helvetica;-inkscape-font-specification:Helvetica"
         x="124.228 128.608 130.69299 134.86299"
         y="-110.705"
         sodipodi:role="line"
         id="tspan248">= 10</tspan></text>
<text
       transform="scale(1,-1)"
       id="text250"
       x="139.78299"
       y="-113.705"><tspan
         style="font-size:5.5px;font-variant:normal;font-weight:normal;writing-mode:lr-tb;fill:#231f20;fill-opacity:1;fill-rule:nonzero;stroke:none;font-family:Helvetica;-inkscape-font-specification:Helvetica"
         x="139.78299"
         y="-113.705"
         id="tspan252">5</tspan></text>
<text
       transform="matrix(0,1,1,0,0,0)"
       id="text262"
       x="58.757114"
       y="9.8496494"><tspan
         style="font-size:7.5px;font-variant:normal;font-weight:normal;writing-mode:lr-tb;fill:#231f20;fill-opacity:1;fill-rule:nonzero;stroke:none;font-family:Helvetica;-inkscape-font-specification:Helvetica"
         x="58.757114"
         y="9.8496494"
         sodipodi:role="line"
         id="tspan266">Drag coefficient </tspan></text>
<path
       inkscape:connector-curvature="0"
       id="path268"
       style="fill:none;stroke:#231f20;stroke-width:1;stroke-linecap:butt;stroke-linejoin:miter;stroke-miterlimit:4;stroke-opacity:1;stroke-dasharray:none"
       d="m 29.5254,145.188 c 3.25,-7.75 9.5512,-28.848 36.75,-22.667 5.5,1.25 12.5,4.25 13,-5.25 0.5,-9.5 2.5289,-14.753 6.75,-15.25 4.25,-0.5 8.75,1 9.5,10.25 0.75,9.25 0.75,19 29.2496,18.25 28.5,-0.75 102.999,-7.5 137.749,-9.75" /><g
       id="g3969"><g
         transform="matrix(0.057475,0,0,0.057475,83.468753,-91.983881)"
         id="g14"><g
           id="g16"
           clip-path="url(#clipPath18)"><g
             id="g22"
             clip-path="url(#clipPath24)"><path
               d="m 1347.87,3380.25 300.12,300.12"
               style="fill:none;stroke:#231f20;stroke-width:5;stroke-linecap:butt;stroke-linejoin:round;stroke-miterlimit:4;stroke-opacity:1;stroke-dasharray:none"
               id="path28"
               inkscape:connector-curvature="0" /><path
               d="m 1347.87,3320.23 360.14,360.14"
               style="fill:none;stroke:#231f20;stroke-width:5;stroke-linecap:butt;stroke-linejoin:round;stroke-miterlimit:4;stroke-opacity:1;stroke-dasharray:none"
               id="path30"
               inkscape:connector-curvature="0" /><path
               d="m 1347.87,3260.2 420.17,420.17"
               style="fill:none;stroke:#231f20;stroke-width:5;stroke-linecap:butt;stroke-linejoin:round;stroke-miterlimit:4;stroke-opacity:1;stroke-dasharray:none"
               id="path32"
               inkscape:connector-curvature="0" /><path
               d="m 1347.87,3200.18 480.19,480.19"
               style="fill:none;stroke:#231f20;stroke-width:5;stroke-linecap:butt;stroke-linejoin:round;stroke-miterlimit:4;stroke-opacity:1;stroke-dasharray:none"
               id="path34"
               inkscape:connector-curvature="0" /><path
               d="m 1347.87,3140.15 540.22,540.22"
               style="fill:none;stroke:#231f20;stroke-width:5;stroke-linecap:butt;stroke-linejoin:round;stroke-miterlimit:4;stroke-opacity:1;stroke-dasharray:none"
               id="path36"
               inkscape:connector-curvature="0" /><path
               d="m 1347.87,3080.13 600.24,600.24"
               style="fill:none;stroke:#231f20;stroke-width:5;stroke-linecap:butt;stroke-linejoin:round;stroke-miterlimit:4;stroke-opacity:1;stroke-dasharray:none"
               id="path38"
               inkscape:connector-curvature="0" /><path
               d="m 1347.87,3020.1 660.26,660.27"
               style="fill:none;stroke:#231f20;stroke-width:5;stroke-linecap:butt;stroke-linejoin:round;stroke-miterlimit:4;stroke-opacity:1;stroke-dasharray:none"
               id="path40"
               inkscape:connector-curvature="0" /><path
               d="m 1347.87,2960.08 720.29,720.29"
               style="fill:none;stroke:#231f20;stroke-width:5;stroke-linecap:butt;stroke-linejoin:round;stroke-miterlimit:4;stroke-opacity:1;stroke-dasharray:none"
               id="path42"
               inkscape:connector-curvature="0" /><path
               d="m 1347.87,2900.05 780.31,780.32"
               style="fill:none;stroke:#231f20;stroke-width:5;stroke-linecap:butt;stroke-linejoin:round;stroke-miterlimit:4;stroke-opacity:1;stroke-dasharray:none"
               id="path44"
               inkscape:connector-curvature="0" /><path
               d="m 1347.87,2840.04 840.34,840.33"
               style="fill:none;stroke:#231f20;stroke-width:5;stroke-linecap:butt;stroke-linejoin:round;stroke-miterlimit:4;stroke-opacity:1;stroke-dasharray:none"
               id="path46"
               inkscape:connector-curvature="0" /><path
               d="m 1407.9,2840.04 780.31,780.31"
               style="fill:none;stroke:#231f20;stroke-width:5;stroke-linecap:butt;stroke-linejoin:round;stroke-miterlimit:4;stroke-opacity:1;stroke-dasharray:none"
               id="path48"
               inkscape:connector-curvature="0" /><path
               d="m 1467.91,2840.04 720.3,720.28"
               style="fill:none;stroke:#231f20;stroke-width:5;stroke-linecap:butt;stroke-linejoin:round;stroke-miterlimit:4;stroke-opacity:1;stroke-dasharray:none"
               id="path50"
               inkscape:connector-curvature="0" /><path
               d="m 1527.94,2840.04 660.27,660.26"
               style="fill:none;stroke:#231f20;stroke-width:5;stroke-linecap:butt;stroke-linejoin:round;stroke-miterlimit:4;stroke-opacity:1;stroke-dasharray:none"
               id="path52"
               inkscape:connector-curvature="0" /><path
               d="m 1587.96,2840.04 600.25,600.23"
               style="fill:none;stroke:#231f20;stroke-width:5;stroke-linecap:butt;stroke-linejoin:round;stroke-miterlimit:4;stroke-opacity:1;stroke-dasharray:none"
               id="path54"
               inkscape:connector-curvature="0" /><path
               d="m 1647.99,2840.04 540.22,540.21"
               style="fill:none;stroke:#231f20;stroke-width:5;stroke-linecap:butt;stroke-linejoin:round;stroke-miterlimit:4;stroke-opacity:1;stroke-dasharray:none"
               id="path56"
               inkscape:connector-curvature="0" /><path
               d="m 1708.01,2840.04 480.2,480.19"
               style="fill:none;stroke:#231f20;stroke-width:5;stroke-linecap:butt;stroke-linejoin:round;stroke-miterlimit:4;stroke-opacity:1;stroke-dasharray:none"
               id="path58"
               inkscape:connector-curvature="0" /><path
               d="m 1768.04,2840.04 420.17,420.16"
               style="fill:none;stroke:#231f20;stroke-width:5;stroke-linecap:butt;stroke-linejoin:round;stroke-miterlimit:4;stroke-opacity:1;stroke-dasharray:none"
               id="path60"
               inkscape:connector-curvature="0" /><path
               d="m 1828.06,2840.04 360.15,360.14"
               style="fill:none;stroke:#231f20;stroke-width:5;stroke-linecap:butt;stroke-linejoin:round;stroke-miterlimit:4;stroke-opacity:1;stroke-dasharray:none"
               id="path62"
               inkscape:connector-curvature="0" /><path
               d="m 1888.09,2840.04 300.12,300.11"
               style="fill:none;stroke:#231f20;stroke-width:5;stroke-linecap:butt;stroke-linejoin:round;stroke-miterlimit:4;stroke-opacity:1;stroke-dasharray:none"
               id="path64"
               inkscape:connector-curvature="0" /><path
               d="m 1948.11,2840.04 240.1,240.09"
               style="fill:none;stroke:#231f20;stroke-width:5;stroke-linecap:butt;stroke-linejoin:round;stroke-miterlimit:4;stroke-opacity:1;stroke-dasharray:none"
               id="path66"
               inkscape:connector-curvature="0" /></g></g></g><g
         transform="matrix(0.057475,0,0,0.057475,83.468753,-91.983881)"
         id="g68"><g
           id="g70"
           clip-path="url(#clipPath72)"><g
             id="g76"
             clip-path="url(#clipPath78)"><path
               d="m 2067.87,3440.27 240.09,240.1"
               style="fill:none;stroke:#231f20;stroke-width:5;stroke-linecap:butt;stroke-linejoin:round;stroke-miterlimit:4;stroke-opacity:1;stroke-dasharray:none"
               id="path82"
               inkscape:connector-curvature="0" /><path
               d="m 2067.87,3380.25 300.11,300.12"
               style="fill:none;stroke:#231f20;stroke-width:5;stroke-linecap:butt;stroke-linejoin:round;stroke-miterlimit:4;stroke-opacity:1;stroke-dasharray:none"
               id="path84"
               inkscape:connector-curvature="0" /><path
               d="m 2067.87,3320.23 360.14,360.14"
               style="fill:none;stroke:#231f20;stroke-width:5;stroke-linecap:butt;stroke-linejoin:round;stroke-miterlimit:4;stroke-opacity:1;stroke-dasharray:none"
               id="path86"
               inkscape:connector-curvature="0" /><path
               d="m 2067.87,3260.2 420.16,420.17"
               style="fill:none;stroke:#231f20;stroke-width:5;stroke-linecap:butt;stroke-linejoin:round;stroke-miterlimit:4;stroke-opacity:1;stroke-dasharray:none"
               id="path88"
               inkscape:connector-curvature="0" /><path
               d="m 2067.87,3200.18 480.19,480.19"
               style="fill:none;stroke:#231f20;stroke-width:5;stroke-linecap:butt;stroke-linejoin:round;stroke-miterlimit:4;stroke-opacity:1;stroke-dasharray:none"
               id="path90"
               inkscape:connector-curvature="0" /><path
               d="m 2067.87,3140.15 540.21,540.22"
               style="fill:none;stroke:#231f20;stroke-width:5;stroke-linecap:butt;stroke-linejoin:round;stroke-miterlimit:4;stroke-opacity:1;stroke-dasharray:none"
               id="path92"
               inkscape:connector-curvature="0" /><path
               d="m 2067.87,3080.13 600.24,600.24"
               style="fill:none;stroke:#231f20;stroke-width:5;stroke-linecap:butt;stroke-linejoin:round;stroke-miterlimit:4;stroke-opacity:1;stroke-dasharray:none"
               id="path94"
               inkscape:connector-curvature="0" /><path
               d="m 2067.87,3020.1 660.26,660.27"
               style="fill:none;stroke:#231f20;stroke-width:5;stroke-linecap:butt;stroke-linejoin:round;stroke-miterlimit:4;stroke-opacity:1;stroke-dasharray:none"
               id="path96"
               inkscape:connector-curvature="0" /><path
               d="m 2067.87,2960.08 720.29,720.29"
               style="fill:none;stroke:#231f20;stroke-width:5;stroke-linecap:butt;stroke-linejoin:round;stroke-miterlimit:4;stroke-opacity:1;stroke-dasharray:none"
               id="path98"
               inkscape:connector-curvature="0" /><path
               d="m 2067.87,2900.05 780.31,780.32"
               style="fill:none;stroke:#231f20;stroke-width:5;stroke-linecap:butt;stroke-linejoin:round;stroke-miterlimit:4;stroke-opacity:1;stroke-dasharray:none"
               id="path100"
               inkscape:connector-curvature="0" /><path
               d="m 2067.87,2840.04 840.33,840.33"
               style="fill:none;stroke:#231f20;stroke-width:5;stroke-linecap:butt;stroke-linejoin:round;stroke-miterlimit:4;stroke-opacity:1;stroke-dasharray:none"
               id="path102"
               inkscape:connector-curvature="0" /><path
               d="m 2127.89,2840.04 780.31,780.31"
               style="fill:none;stroke:#231f20;stroke-width:5;stroke-linecap:butt;stroke-linejoin:round;stroke-miterlimit:4;stroke-opacity:1;stroke-dasharray:none"
               id="path104"
               inkscape:connector-curvature="0" /><path
               d="m 2187.91,2840.04 720.29,720.28"
               style="fill:none;stroke:#231f20;stroke-width:5;stroke-linecap:butt;stroke-linejoin:round;stroke-miterlimit:4;stroke-opacity:1;stroke-dasharray:none"
               id="path106"
               inkscape:connector-curvature="0" /></g></g></g><path
         d="m 209.16141,97.336479 c 0,-8.570672 -6.94701,-15.51825 -15.51768,-15.51825 -8.57067,0 -15.51825,6.947578 -15.51825,15.51825 0,8.570101 6.94758,15.517671 15.51825,15.517671 8.57067,0 15.51768,-6.94757 15.51768,-15.517671 z"
         style="fill:none;stroke:#231f20;stroke-width:0.287375;stroke-linecap:butt;stroke-linejoin:miter;stroke-miterlimit:4;stroke-opacity:1;stroke-dasharray:none"
         id="path116"
         inkscape:connector-curvature="0" /><path
         d="m 204.44387,88.786486 -2.58637,0.431063 -19.10986,15.374561 -1.1495,2.44269 0.71843,0.71844 3.59219,-1.58057 18.24774,-14.081371 1.58056,-2.011625 -1.29319,-1.293188"
         style="fill:#ffffff;fill-opacity:1;fill-rule:nonzero;stroke:none"
         id="path118"
         inkscape:connector-curvature="0" /><g
         transform="matrix(0.057475,0,0,0.057475,83.468753,-91.983881)"
         id="g272"><g
           id="g274"
           clip-path="url(#clipPath276)"><g
             id="g280"
             clip-path="url(#clipPath282)"><path
               d="m 1347.87,2660.25 300.12,300.13"
               style="fill:none;stroke:#231f20;stroke-width:5;stroke-linecap:butt;stroke-linejoin:round;stroke-miterlimit:4;stroke-opacity:1;stroke-dasharray:none"
               id="path286"
               inkscape:connector-curvature="0" /><path
               d="m 1347.87,2600.23 360.14,360.15"
               style="fill:none;stroke:#231f20;stroke-width:5;stroke-linecap:butt;stroke-linejoin:round;stroke-miterlimit:4;stroke-opacity:1;stroke-dasharray:none"
               id="path288"
               inkscape:connector-curvature="0" /><path
               d="m 1347.87,2540.2 420.17,420.18"
               style="fill:none;stroke:#231f20;stroke-width:5;stroke-linecap:butt;stroke-linejoin:round;stroke-miterlimit:4;stroke-opacity:1;stroke-dasharray:none"
               id="path290"
               inkscape:connector-curvature="0" /><path
               d="m 1347.87,2480.18 480.19,480.2"
               style="fill:none;stroke:#231f20;stroke-width:5;stroke-linecap:butt;stroke-linejoin:round;stroke-miterlimit:4;stroke-opacity:1;stroke-dasharray:none"
               id="path292"
               inkscape:connector-curvature="0" /><path
               d="m 1347.87,2420.16 540.22,540.22"
               style="fill:none;stroke:#231f20;stroke-width:5;stroke-linecap:butt;stroke-linejoin:round;stroke-miterlimit:4;stroke-opacity:1;stroke-dasharray:none"
               id="path294"
               inkscape:connector-curvature="0" /><path
               d="m 1347.87,2360.13 600.24,600.25"
               style="fill:none;stroke:#231f20;stroke-width:5;stroke-linecap:butt;stroke-linejoin:round;stroke-miterlimit:4;stroke-opacity:1;stroke-dasharray:none"
               id="path296"
               inkscape:connector-curvature="0" /><path
               d="m 1347.87,2300.11 660.26,660.27"
               style="fill:none;stroke:#231f20;stroke-width:5;stroke-linecap:butt;stroke-linejoin:round;stroke-miterlimit:4;stroke-opacity:1;stroke-dasharray:none"
               id="path298"
               inkscape:connector-curvature="0" /><path
               d="m 1347.87,2240.08 720.29,720.3"
               style="fill:none;stroke:#231f20;stroke-width:5;stroke-linecap:butt;stroke-linejoin:round;stroke-miterlimit:4;stroke-opacity:1;stroke-dasharray:none"
               id="path300"
               inkscape:connector-curvature="0" /><path
               d="m 1347.87,2180.06 780.31,780.32"
               style="fill:none;stroke:#231f20;stroke-width:5;stroke-linecap:butt;stroke-linejoin:round;stroke-miterlimit:4;stroke-opacity:1;stroke-dasharray:none"
               id="path302"
               inkscape:connector-curvature="0" /><path
               d="m 1347.87,2120.04 840.34,840.34"
               style="fill:none;stroke:#231f20;stroke-width:5;stroke-linecap:butt;stroke-linejoin:round;stroke-miterlimit:4;stroke-opacity:1;stroke-dasharray:none"
               id="path304"
               inkscape:connector-curvature="0" /><path
               d="m 1407.9,2120.04 780.31,780.31"
               style="fill:none;stroke:#231f20;stroke-width:5;stroke-linecap:butt;stroke-linejoin:round;stroke-miterlimit:4;stroke-opacity:1;stroke-dasharray:none"
               id="path306"
               inkscape:connector-curvature="0" /><path
               d="m 1467.91,2120.04 720.3,720.29"
               style="fill:none;stroke:#231f20;stroke-width:5;stroke-linecap:butt;stroke-linejoin:round;stroke-miterlimit:4;stroke-opacity:1;stroke-dasharray:none"
               id="path308"
               inkscape:connector-curvature="0" /><path
               d="m 1527.94,2120.04 660.27,660.26"
               style="fill:none;stroke:#231f20;stroke-width:5;stroke-linecap:butt;stroke-linejoin:round;stroke-miterlimit:4;stroke-opacity:1;stroke-dasharray:none"
               id="path310"
               inkscape:connector-curvature="0" /><path
               d="m 1587.96,2120.04 600.25,600.24"
               style="fill:none;stroke:#231f20;stroke-width:5;stroke-linecap:butt;stroke-linejoin:round;stroke-miterlimit:4;stroke-opacity:1;stroke-dasharray:none"
               id="path312"
               inkscape:connector-curvature="0" /><path
               d="m 1647.99,2120.04 540.22,540.21"
               style="fill:none;stroke:#231f20;stroke-width:5;stroke-linecap:butt;stroke-linejoin:round;stroke-miterlimit:4;stroke-opacity:1;stroke-dasharray:none"
               id="path314"
               inkscape:connector-curvature="0" /><path
               d="m 1708.01,2120.04 480.2,480.19"
               style="fill:none;stroke:#231f20;stroke-width:5;stroke-linecap:butt;stroke-linejoin:round;stroke-miterlimit:4;stroke-opacity:1;stroke-dasharray:none"
               id="path316"
               inkscape:connector-curvature="0" /><path
               d="m 1768.04,2120.04 420.17,420.16"
               style="fill:none;stroke:#231f20;stroke-width:5;stroke-linecap:butt;stroke-linejoin:round;stroke-miterlimit:4;stroke-opacity:1;stroke-dasharray:none"
               id="path318"
               inkscape:connector-curvature="0" /><path
               d="m 1828.06,2120.04 360.15,360.14"
               style="fill:none;stroke:#231f20;stroke-width:5;stroke-linecap:butt;stroke-linejoin:round;stroke-miterlimit:4;stroke-opacity:1;stroke-dasharray:none"
               id="path320"
               inkscape:connector-curvature="0" /><path
               d="m 1888.09,2120.04 300.12,300.12"
               style="fill:none;stroke:#231f20;stroke-width:5;stroke-linecap:butt;stroke-linejoin:round;stroke-miterlimit:4;stroke-opacity:1;stroke-dasharray:none"
               id="path322"
               inkscape:connector-curvature="0" /><path
               d="m 1948.11,2120.04 240.1,240.09"
               style="fill:none;stroke:#231f20;stroke-width:5;stroke-linecap:butt;stroke-linejoin:round;stroke-miterlimit:4;stroke-opacity:1;stroke-dasharray:none"
               id="path324"
               inkscape:connector-curvature="0" /><path
               d="m 2008.13,2120.04 180.08,180.07"
               style="fill:none;stroke:#231f20;stroke-width:5;stroke-linecap:butt;stroke-linejoin:round;stroke-miterlimit:4;stroke-opacity:1;stroke-dasharray:none"
               id="path326"
               inkscape:connector-curvature="0" /><path
               d="m 2068.16,2120.04 120.05,120.04"
               style="fill:none;stroke:#231f20;stroke-width:5;stroke-linecap:butt;stroke-linejoin:round;stroke-miterlimit:4;stroke-opacity:1;stroke-dasharray:none"
               id="path328"
               inkscape:connector-curvature="0" /></g></g></g><g
         transform="matrix(0.057475,0,0,0.057475,83.468753,-91.983881)"
         id="g330"><g
           id="g332"
           clip-path="url(#clipPath334)"><g
             id="g338"
             clip-path="url(#clipPath340)"><path
               d="m 2067.87,2600.23 360.14,360.15"
               style="fill:none;stroke:#231f20;stroke-width:5;stroke-linecap:butt;stroke-linejoin:round;stroke-miterlimit:4;stroke-opacity:1;stroke-dasharray:none"
               id="path344"
               inkscape:connector-curvature="0" /><path
               d="m 2067.87,2540.2 420.16,420.18"
               style="fill:none;stroke:#231f20;stroke-width:5;stroke-linecap:butt;stroke-linejoin:round;stroke-miterlimit:4;stroke-opacity:1;stroke-dasharray:none"
               id="path346"
               inkscape:connector-curvature="0" /><path
               d="m 2067.87,2480.18 480.19,480.2"
               style="fill:none;stroke:#231f20;stroke-width:5;stroke-linecap:butt;stroke-linejoin:round;stroke-miterlimit:4;stroke-opacity:1;stroke-dasharray:none"
               id="path348"
               inkscape:connector-curvature="0" /><path
               d="m 2067.87,2420.16 540.21,540.22"
               style="fill:none;stroke:#231f20;stroke-width:5;stroke-linecap:butt;stroke-linejoin:round;stroke-miterlimit:4;stroke-opacity:1;stroke-dasharray:none"
               id="path350"
               inkscape:connector-curvature="0" /><path
               d="m 2067.87,2360.13 600.24,600.25"
               style="fill:none;stroke:#231f20;stroke-width:5;stroke-linecap:butt;stroke-linejoin:round;stroke-miterlimit:4;stroke-opacity:1;stroke-dasharray:none"
               id="path352"
               inkscape:connector-curvature="0" /><path
               d="m 2067.87,2300.11 660.26,660.27"
               style="fill:none;stroke:#231f20;stroke-width:5;stroke-linecap:butt;stroke-linejoin:round;stroke-miterlimit:4;stroke-opacity:1;stroke-dasharray:none"
               id="path354"
               inkscape:connector-curvature="0" /><path
               d="m 2067.87,2240.08 720.29,720.3"
               style="fill:none;stroke:#231f20;stroke-width:5;stroke-linecap:butt;stroke-linejoin:round;stroke-miterlimit:4;stroke-opacity:1;stroke-dasharray:none"
               id="path356"
               inkscape:connector-curvature="0" /><path
               d="m 2067.87,2180.06 780.31,780.32"
               style="fill:none;stroke:#231f20;stroke-width:5;stroke-linecap:butt;stroke-linejoin:round;stroke-miterlimit:4;stroke-opacity:1;stroke-dasharray:none"
               id="path358"
               inkscape:connector-curvature="0" /><path
               d="m 2067.87,2120.04 840.33,840.34"
               style="fill:none;stroke:#231f20;stroke-width:5;stroke-linecap:butt;stroke-linejoin:round;stroke-miterlimit:4;stroke-opacity:1;stroke-dasharray:none"
               id="path360"
               inkscape:connector-curvature="0" /><path
               d="m 2127.89,2120.04 780.31,780.31"
               style="fill:none;stroke:#231f20;stroke-width:5;stroke-linecap:butt;stroke-linejoin:round;stroke-miterlimit:4;stroke-opacity:1;stroke-dasharray:none"
               id="path362"
               inkscape:connector-curvature="0" /><path
               d="m 2187.91,2120.04 720.29,720.29"
               style="fill:none;stroke:#231f20;stroke-width:5;stroke-linecap:butt;stroke-linejoin:round;stroke-miterlimit:4;stroke-opacity:1;stroke-dasharray:none"
               id="path364"
               inkscape:connector-curvature="0" /></g></g></g><g
         transform="matrix(0.057475,0,0,0.057475,83.468753,-91.983881)"
         id="g366"><g
           id="g368"
           clip-path="url(#clipPath370)"><path
             d="m 2186.91,2484.37 c 0,-149.12 -120.87,-270 -269.99,-270 -149.12,0 -270,120.88 -270,270 0,149.12 120.88,270 270,270 149.12,0 269.99,-120.88 269.99,-270 z"
             style="fill:none;stroke:#231f20;stroke-width:5;stroke-linecap:butt;stroke-linejoin:miter;stroke-miterlimit:4;stroke-opacity:1;stroke-dasharray:none"
             id="path374"
             inkscape:connector-curvature="0" /><path
             d="M 1950.31,3284.63 2097.74,3170.2"
             style="fill:none;stroke:#231f20;stroke-width:5;stroke-linecap:butt;stroke-linejoin:miter;stroke-miterlimit:4;stroke-opacity:1;stroke-dasharray:none"
             id="path376"
             inkscape:connector-curvature="0" /><path
             d="m 1747.75,3441.87 139.58,-108.35"
             style="fill:none;stroke:#231f20;stroke-width:5;stroke-linecap:butt;stroke-linejoin:miter;stroke-miterlimit:4;stroke-opacity:1;stroke-dasharray:none"
             id="path378"
             inkscape:connector-curvature="0" /><path
             d="m 2093.72,3173.33 2.41,20.94 0.74,-0.05 16.02,-27.25 c 6.7,-8.06 13.4,-16.12 20.09,-24.18 -9.46,4.51 -18.92,9.01 -28.38,13.52 l -30.35,8.82 -0.3,0.62 19.77,7.58"
             style="fill:#231f20;fill-opacity:1;fill-rule:nonzero;stroke:none"
             id="path380"
             inkscape:connector-curvature="0" /><path
             d="m 1751.77,3438.73 -2.41,-20.94 -0.73,0.06 -16.03,27.24 c -6.7,8.06 -13.39,16.13 -20.09,24.19 9.46,-4.51 18.92,-9.02 28.39,-13.52 l 30.34,-8.83 0.3,-0.62 -19.77,-7.58"
             style="fill:#231f20;fill-opacity:1;fill-rule:nonzero;stroke:none"
             id="path382"
             inkscape:connector-curvature="0" /><path
             d="m 1835.25,3027.7 -352.5,0"
             style="fill:none;stroke:#231f20;stroke-width:5;stroke-linecap:butt;stroke-linejoin:miter;stroke-miterlimit:4;stroke-opacity:1;stroke-dasharray:none"
             id="path384"
             inkscape:connector-curvature="0" /><path
             d="m 1835.25,2755.2 -352.5,0"
             style="fill:none;stroke:#231f20;stroke-width:5;stroke-linecap:butt;stroke-linejoin:miter;stroke-miterlimit:4;stroke-opacity:1;stroke-dasharray:none"
             id="path386"
             inkscape:connector-curvature="0" /><path
             d="m 1570.25,2602.7 0,107.5"
             style="fill:none;stroke:#231f20;stroke-width:5;stroke-linecap:butt;stroke-linejoin:miter;stroke-miterlimit:4;stroke-opacity:1;stroke-dasharray:none"
             id="path388"
             inkscape:connector-curvature="0" /><path
             d="m 1570.25,2705.1 -18.02,-10.95 -0.41,0.61 11.67,29.38 c 2.26,10.23 4.5,20.47 6.76,30.7 2.25,-10.23 4.5,-20.47 6.76,-30.7 l 11.66,-29.38 -0.31,-0.61 -18.11,10.95"
             style="fill:#231f20;fill-opacity:1;fill-rule:nonzero;stroke:none"
             id="path390"
             inkscape:connector-curvature="0" /><path
             d="m 1570.25,3179.84 0,-107.5"
             style="fill:none;stroke:#231f20;stroke-width:5;stroke-linecap:butt;stroke-linejoin:miter;stroke-miterlimit:4;stroke-opacity:1;stroke-dasharray:none"
             id="path392"
             inkscape:connector-curvature="0" /><path
             d="m 1570.25,3077.44 -18.02,10.96 -0.41,-0.62 11.67,-29.38 c 2.26,-10.23 4.5,-20.46 6.76,-30.7 2.25,10.24 4.5,20.47 6.76,30.7 l 11.66,29.38 -0.31,0.62 -18.11,-10.96"
             style="fill:#231f20;fill-opacity:1;fill-rule:nonzero;stroke:none"
             id="path394"
             inkscape:connector-curvature="0" /><path
             d="m 1912.75,3590.2 c 686.66,83.33 663.58,-184.08 643.33,-246.67 -16.21,-50.07 -69.93,-77.53 -120.01,-61.33 -40.06,12.96 -62.02,55.94 -49.06,96 10.37,32.05 44.76,49.62 76.8,39.26 25.64,-8.3 39.69,-35.81 31.4,-61.45 -1.66,-5.12 -4.26,-9.66 -7.57,-13.49"
             style="fill:none;stroke:#231f20;stroke-width:10;stroke-linecap:butt;stroke-linejoin:miter;stroke-miterlimit:4;stroke-opacity:1;stroke-dasharray:none"
             id="path396"
             inkscape:connector-curvature="0" /><path
             d="m 1976.07,2773.54 c 813.34,80 856.91,-194.08 836.67,-256.68 -16.21,-50.07 -69.93,-77.53 -120.01,-61.33 -40.06,12.97 -62.02,55.94 -49.06,96.01 10.37,32.04 44.76,49.62 76.8,39.25 25.64,-8.3 39.69,-35.81 31.4,-61.44 -1.66,-5.12 -4.27,-9.66 -7.57,-13.5"
             style="fill:none;stroke:#231f20;stroke-width:10;stroke-linecap:butt;stroke-linejoin:miter;stroke-miterlimit:4;stroke-opacity:1;stroke-dasharray:none"
             id="path398"
             inkscape:connector-curvature="0" /><path
             d="m 3040.1,2639.26 c 15.56,-4.87 30.07,-13.79 41.86,-26.69 28.39,-31.08 26.2,-79.29 -4.88,-107.7 -24.87,-22.71 -63.46,-20.96 -86.16,3.92 -18.18,19.88 -16.79,50.74 3.11,68.91 3.98,3.63 8.49,6.29 13.26,7.98"
             style="fill:none;stroke:#231f20;stroke-width:10;stroke-linecap:butt;stroke-linejoin:miter;stroke-miterlimit:4;stroke-opacity:1;stroke-dasharray:none"
             id="path400"
             inkscape:connector-curvature="0" /><path
             d="m 3023.48,3391.94 c -14.79,-6.84 -28.02,-17.57 -38.04,-31.89 -24.11,-34.51 -15.69,-82.02 18.82,-106.16 27.6,-19.29 65.65,-12.54 84.92,15.08 15.45,22.06 10.06,52.48 -12.03,67.92 -4.41,3.07 -9.23,5.12 -14.18,6.19"
             style="fill:none;stroke:#231f20;stroke-width:10;stroke-linecap:butt;stroke-linejoin:miter;stroke-miterlimit:4;stroke-opacity:1;stroke-dasharray:none"
             id="path402"
             inkscape:connector-curvature="0" /><path
             d="m 1946.08,3003.54 c 906.66,0 913.5,295.26 887.34,360.07 -20.93,51.82 -77.05,75.62 -125.34,53.16 -38.63,-17.98 -56.37,-66.16 -39.62,-107.63 13.4,-33.19 49.31,-48.42 80.2,-34.04 24.74,11.51 36.07,42.36 25.37,68.9 -2.15,5.28 -5.18,9.87 -8.83,13.63"
             style="fill:none;stroke:#231f20;stroke-width:10;stroke-linecap:butt;stroke-linejoin:miter;stroke-miterlimit:4;stroke-opacity:1;stroke-dasharray:none"
             id="path404"
             inkscape:connector-curvature="0" /><path
             d="m 1949.62,2168.76 c 554.44,65.73 555.99,286.54 533.81,341.52 -20.94,51.82 -77.05,75.63 -125.34,53.16 -38.64,-17.98 -56.38,-66.16 -39.62,-107.63 13.39,-33.19 49.3,-48.42 80.19,-34.04"
             style="fill:none;stroke:#231f20;stroke-width:10;stroke-linecap:butt;stroke-linejoin:miter;stroke-miterlimit:4;stroke-opacity:1;stroke-dasharray:none"
             id="path406"
             inkscape:connector-curvature="0" /></g></g><text
         y="-73.023132"
         x="172.1393"
         id="text3765"
         transform="scale(1,-1)"><tspan
           id="tspan3767"
           sodipodi:role="line"
           x="172.1393"
           style="font-size:7.5px;font-variant:normal;font-weight:normal;writing-mode:lr-tb;fill:#231f20;fill-opacity:1;fill-rule:nonzero;stroke:none;font-family:Helvetica;-inkscape-font-specification:Helvetica"
           y="-73.023132">y</tspan></text>
</g><text
       transform="scale(1,-1)"
       id="text3761"
       x="192.1525"
       y="-96.138954"
       style="font-size:6.4000001px"><tspan
         y="-96.138954"
         style="font-size:6.4000001px;font-variant:normal;font-weight:normal;writing-mode:lr-tb;fill:#231f20;fill-opacity:1;fill-rule:nonzero;stroke:none;font-family:Helvetica;-inkscape-font-specification:Helvetica"
         x="192.1525"
         sodipodi:role="line"
         id="tspan3763">d</tspan></text>
<text
       transform="scale(1,-1)"
       id="text4072"
       x="135.57436"
       y="-78.326958"><tspan
         y="-78.326958"
         style="font-size:7.5px;font-variant:normal;font-weight:normal;writing-mode:lr-tb;fill:#231f20;fill-opacity:1;fill-rule:nonzero;stroke:none;font-family:Helvetica;-inkscape-font-specification:Helvetica"
         x="135.57436"
         sodipodi:role="line"
         id="tspan4074">V</tspan></text>
<text
       transform="scale(1,-1)"
       id="text4076"
       x="117.97789"
       y="-5.2633791"><tspan
         y="-5.2633791"
         style="font-size:7.5px;font-variant:normal;font-weight:normal;writing-mode:lr-tb;fill:#231f20;fill-opacity:1;fill-rule:nonzero;stroke:none;font-family:Helvetica;-inkscape-font-specification:Helvetica"
         x="117.97789"
         sodipodi:role="line"
         id="tspan4078">Relative spacing (y/d)</tspan></text>
<text
       y="-118.32695"
       x="264.77435"
       id="text4877"
       transform="scale(1,-1)"><tspan
         id="tspan4879"
         sodipodi:role="line"
         x="264.77435"
         style="font-size:7.19999981px;font-variant:normal;font-weight:normal;writing-mode:lr-tb;fill:#231f20;fill-opacity:1;fill-rule:nonzero;stroke:none;font-family:Helvetica;-inkscape-font-specification:Helvetica"
         y="-118.32695">1.18</tspan></text>
</g></svg>