<?xml version="1.0" encoding="UTF-8" standalone="no"?>
<!-- Created with Inkscape (http://www.inkscape.org/) -->

<svg
   xmlns:dc="http://purl.org/dc/elements/1.1/"
   xmlns:cc="http://creativecommons.org/ns#"
   xmlns:rdf="http://www.w3.org/1999/02/22-rdf-syntax-ns#"
   xmlns:svg="http://www.w3.org/2000/svg"
   xmlns="http://www.w3.org/2000/svg"
   xmlns:sodipodi="http://sodipodi.sourceforge.net/DTD/sodipodi-0.dtd"
   xmlns:inkscape="http://www.inkscape.org/namespaces/inkscape"
   id="svg2"
   version="1.1"
   inkscape:version="0.48.4 r9939"
   width="382.05643"
   height="267.31146"
   sodipodi:docname="Wilson_003_fig_003.svg"
   inkscape:export-filename="/home/theo/Desktop/Data/BS/BS4-chapter3/fig3.2.alternative.png"
   inkscape:export-xdpi="200"
   inkscape:export-ydpi="200">
  <metadata
     id="metadata8">
    <rdf:RDF>
      <cc:Work
         rdf:about="">
        <dc:format>image/svg+xml</dc:format>
        <dc:type
           rdf:resource="http://purl.org/dc/dcmitype/StillImage" />
        <dc:title></dc:title>
      </cc:Work>
    </rdf:RDF>
  </metadata>
  <defs
     id="defs6" />
  <sodipodi:namedview
     pagecolor="#ffffff"
     bordercolor="#666666"
     borderopacity="1"
     objecttolerance="10"
     gridtolerance="10"
     guidetolerance="10"
     inkscape:pageopacity="0"
     inkscape:pageshadow="2"
     inkscape:window-width="1600"
     inkscape:window-height="1127"
     id="namedview4"
     showgrid="false"
     fit-margin-top="5"
     fit-margin-right="5"
     fit-margin-left="5"
     fit-margin-bottom="5"
     inkscape:zoom="2.8284271"
     inkscape:cx="191.15169"
     inkscape:cy="129.48712"
     inkscape:window-x="-3"
     inkscape:window-y="-3"
     inkscape:window-maximized="1"
     inkscape:current-layer="svg2"
     units="mm" />
  <rect
     style="opacity:0.38888891;color:#000000;fill:#ececec;fill-opacity:1;fill-rule:nonzero;stroke:#000000;stroke-width:1;stroke-linecap:butt;stroke-linejoin:miter;stroke-miterlimit:4;stroke-opacity:1;stroke-dasharray:none;stroke-dashoffset:0;marker:none;visibility:visible;display:inline;overflow:visible;enable-background:accumulate"
     id="rect3028"
     width="57.802597"
     height="223.11613"
     x="306.03732"
     y="25.757879"
     ry="0.11585867" />
  <rect
     style="opacity:0.38888891;color:#000000;fill:#ececec;fill-opacity:1;fill-rule:nonzero;stroke:#000000;stroke-width:1;stroke-linecap:butt;stroke-linejoin:miter;stroke-miterlimit:4;stroke-opacity:1;stroke-dasharray:none;stroke-dashoffset:0;marker:none;visibility:visible;display:inline;overflow:visible;enable-background:accumulate"
     id="rect3049-3"
     width="107.27715"
     height="222.67439"
     x="198.25339"
     y="26.199652"
     ry="0.11585867" />
  <path
     style="font-size:medium;font-style:normal;font-variant:normal;font-weight:normal;font-stretch:normal;text-indent:0;text-align:start;text-decoration:none;line-height:normal;letter-spacing:normal;word-spacing:normal;text-transform:none;direction:ltr;block-progression:tb;writing-mode:lr-tb;text-anchor:start;baseline-shift:baseline;opacity:0.38888891;color:#000000;fill:#000000;fill-opacity:1;fill-rule:nonzero;stroke:none;stroke-width:1;marker:none;visibility:visible;display:inline;overflow:visible;enable-background:accumulate;font-family:Sans;-inkscape-font-specification:Sans"
     d="m 164.62954,34.329057 0.35356,-0.20711 -0.70711,214.971853 0,0.5 0.5,0 33.40625,0 0.5,0 0,-0.5 0,-222.750023 0,-0.5 -0.5,0 -33.09799,7.32786 z m 0.11732,0.005 32.93538,-7.49047 0,221.750023 -32.40625,0 z"
     id="rect3049-2"
     inkscape:connector-curvature="0"
     sodipodi:nodetypes="cccccccccccccccccc" />
  <path
     style="opacity:0.38888891;color:#000000;fill:#ececec;fill-opacity:1;fill-rule:nonzero;stroke:#000000;stroke-width:1;stroke-linecap:butt;stroke-linejoin:miter;stroke-miterlimit:4;stroke-opacity:1;stroke-dashoffset:0;marker:none;visibility:visible;display:inline;overflow:visible;enable-background:accumulate"
     d="m 130.75235,25.972927 34.26763,8.1795 0,214.807283 -34.26763,0 z"
     id="rect3049"
     inkscape:connector-curvature="0"
     sodipodi:nodetypes="ccccc" />
  <rect
     ry="0.11585867"
     y="26.199652"
     x="18.466309"
     height="222.89526"
     width="112.57801"
     id="rect3026"
     style="opacity:0.38888891;color:#000000;fill:#ececec;fill-opacity:1;fill-rule:nonzero;stroke:#000000;stroke-width:1;stroke-linecap:butt;stroke-linejoin:miter;stroke-miterlimit:4;stroke-opacity:1;stroke-dasharray:none;stroke-dashoffset:0;marker:none;visibility:visible;display:inline;overflow:visible;enable-background:accumulate" />
  <flowRoot
     xml:space="preserve"
     id="flowRoot2987"
     style="font-size:12px;font-style:normal;font-variant:normal;font-weight:normal;font-stretch:normal;text-align:start;line-height:100%;letter-spacing:0px;word-spacing:0px;writing-mode:lr-tb;text-anchor:start;fill:#000000;fill-opacity:1;stroke:none;font-family:Serif;-inkscape-font-specification:Serif"
     transform="translate(41.872476,-27.855653)"><flowRegion
       id="flowRegion2989"><rect
         id="rect2991"
         width="63.720509"
         height="16.242483"
         x="9.3706627"
         y="157.12029" /></flowRegion><flowPara
       id="flowPara2993"
       style="font-size:10px;font-style:normal;font-variant:normal;font-weight:normal;font-stretch:normal;font-family:Sans;-inkscape-font-specification:Sans">31 km/h</flowPara></flowRoot>  <flowRoot
     xml:space="preserve"
     id="flowRoot2987-8"
     style="font-size:12px;font-style:normal;font-variant:normal;font-weight:normal;font-stretch:normal;text-align:start;line-height:100%;letter-spacing:0px;word-spacing:0px;writing-mode:lr-tb;text-anchor:start;fill:#000000;fill-opacity:1;stroke:none;font-family:Serif;-inkscape-font-specification:Serif"
     transform="translate(305.16939,-27.156743)"><flowRegion
       id="flowRegion2989-4"><rect
         id="rect2991-2"
         width="63.720509"
         height="16.242483"
         x="9.3706627"
         y="157.12029" /></flowRegion><flowPara
       id="flowPara2993-6"
       style="font-size:10px;font-style:normal;font-variant:normal;font-weight:normal;font-stretch:normal;font-family:Sans;-inkscape-font-specification:Sans">31 km/h</flowPara></flowRoot>  <rect
     style="opacity:0.02999998;color:#000000;fill:#00ffff;fill-opacity:1;fill-rule:nonzero;stroke:#000000;stroke-width:2;stroke-linecap:butt;stroke-linejoin:miter;stroke-miterlimit:4;stroke-opacity:1;stroke-dasharray:8, 4;stroke-dashoffset:0;marker:none;visibility:visible;display:inline;overflow:visible;enable-background:accumulate"
     id="rect3819"
     width="2.1864882"
     height="19.678392"
     x="148.46512"
     y="36.375008"
     ry="1.0932441" />
  <flowRoot
     transform="translate(62.602736,-77.021673)"
     style="font-size:12px;font-style:normal;font-variant:normal;font-weight:normal;font-stretch:normal;text-align:start;line-height:100%;letter-spacing:0px;word-spacing:0px;writing-mode:lr-tb;text-anchor:start;fill:#000000;fill-opacity:1;stroke:none;font-family:Serif;-inkscape-font-specification:Serif"
     id="flowRoot3002"
     xml:space="preserve"><flowRegion
       id="flowRegion3004"><rect
         y="157.12029"
         x="9.3706627"
         height="14.475528"
         width="14.687668"
         id="rect3006" /></flowRegion><flowPara
       id="flowPara3008"
       style="font-size:10px;font-style:normal;font-variant:normal;font-weight:normal;font-stretch:normal;font-family:Sans;-inkscape-font-specification:Sans">1</flowPara></flowRoot>  <flowRoot
     xml:space="preserve"
     id="flowRoot3010"
     style="font-size:12px;font-style:normal;font-variant:normal;font-weight:normal;font-stretch:normal;text-align:start;line-height:100%;letter-spacing:0px;word-spacing:0px;writing-mode:lr-tb;text-anchor:start;fill:#000000;fill-opacity:1;stroke:none;font-family:Serif;-inkscape-font-specification:Serif"
     transform="translate(137.7312,-76.704643)"><flowRegion
       id="flowRegion3012"><rect
         id="rect3014"
         width="14.687668"
         height="14.475528"
         x="9.3706627"
         y="157.12029" /></flowRegion><flowPara
       id="flowPara3016"
       style="font-size:10px;font-style:normal;font-variant:normal;font-weight:normal;font-stretch:normal;font-family:Sans;-inkscape-font-specification:Sans">2</flowPara></flowRoot>  <flowRoot
     transform="translate(168.39406,-77.021093)"
     style="font-size:12px;font-style:normal;font-variant:normal;font-weight:normal;font-stretch:normal;text-align:start;line-height:100%;letter-spacing:0px;word-spacing:0px;writing-mode:lr-tb;text-anchor:start;fill:#000000;fill-opacity:1;stroke:none;font-family:Serif;-inkscape-font-specification:Serif"
     id="flowRoot3018"
     xml:space="preserve"><flowRegion
       id="flowRegion3020"><rect
         y="157.12029"
         x="9.3706627"
         height="14.475528"
         width="14.687668"
         id="rect3022" /></flowRegion><flowPara
       id="flowPara3024"
       style="font-size:10px;font-style:normal;font-variant:normal;font-weight:normal;font-stretch:normal;font-family:Sans;-inkscape-font-specification:Sans">3</flowPara></flowRoot>  <flowRoot
     xml:space="preserve"
     id="flowRoot3030"
     style="font-size:12px;font-style:normal;font-variant:normal;font-weight:normal;font-stretch:normal;text-align:start;line-height:100%;letter-spacing:0px;word-spacing:0px;writing-mode:lr-tb;text-anchor:start;fill:#000000;fill-opacity:1;stroke:none;font-family:Serif;-inkscape-font-specification:Serif"
     transform="translate(238.3384,-79.002993)"><flowRegion
       id="flowRegion3032"><rect
         id="rect3034"
         width="14.687668"
         height="14.475528"
         x="9.3706627"
         y="157.12029" /></flowRegion><flowPara
       id="flowPara3036"
       style="font-size:10px;font-style:normal;font-variant:normal;font-weight:normal;font-stretch:normal;font-family:Sans;-inkscape-font-specification:Sans">4</flowPara></flowRoot>  <flowRoot
     transform="translate(319.54228,-78.378283)"
     style="font-size:12px;font-style:normal;font-variant:normal;font-weight:normal;font-stretch:normal;text-align:start;line-height:100%;letter-spacing:0px;word-spacing:0px;writing-mode:lr-tb;text-anchor:start;fill:#000000;fill-opacity:1;stroke:none;font-family:Serif;-inkscape-font-specification:Serif"
     id="flowRoot3038"
     xml:space="preserve"><flowRegion
       id="flowRegion3040"><rect
         y="157.12029"
         x="9.3706627"
         height="14.475528"
         width="14.687668"
         id="rect3042" /></flowRegion><flowPara
       id="flowPara3044"
       style="font-size:10px;font-style:normal;font-variant:normal;font-weight:normal;font-stretch:normal;font-family:Sans;-inkscape-font-specification:Sans">5</flowPara></flowRoot>  <flowRoot
     transform="translate(-14.159946,13.726917)"
     style="font-size:12px;font-style:normal;font-variant:normal;font-weight:normal;font-stretch:normal;text-align:start;line-height:100%;letter-spacing:0px;word-spacing:0px;writing-mode:lr-tb;text-anchor:start;fill:#000000;fill-opacity:1;stroke:none;font-family:Serif;-inkscape-font-specification:Serif"
     id="flowRoot3051"
     xml:space="preserve"><flowRegion
       id="flowRegion3053"><rect
         y="3.4414077"
         x="187.41325"
         height="16.867195"
         width="37.482677"
         id="rect3055" /></flowRegion><flowPara
       id="flowPara3057"><flowSpan
         style="font-size:10px"
         id="flowSpan3153"><flowSpan
           style="font-style:normal;font-variant:normal;font-weight:normal;font-stretch:normal;font-family:Sans;-inkscape-font-specification:Sans"
           id="flowSpan3155">3% </flowSpan></flowSpan></flowPara></flowRoot>  <flowRoot
     xml:space="preserve"
     id="flowRoot3059"
     style="font-size:12px;font-style:normal;font-variant:normal;font-weight:normal;font-stretch:normal;text-align:start;line-height:100%;letter-spacing:0px;word-spacing:0px;writing-mode:lr-tb;text-anchor:start;fill:#000000;fill-opacity:1;stroke:none;font-family:Serif;-inkscape-font-specification:Serif"
     transform="translate(-47.549692,13.976917)"><flowRegion
       id="flowRegion3061"><rect
         id="rect3063"
         width="37.482677"
         height="16.867195"
         x="187.41325"
         y="3.4414077" /></flowRegion><flowPara
       id="flowPara3065"><flowSpan
         style="font-size:10px"
         id="flowSpan3149"><flowSpan
           style="font-style:normal;font-variant:normal;font-weight:normal;font-stretch:normal;font-family:Sans;-inkscape-font-specification:Sans"
           id="flowSpan3151">-3% </flowSpan></flowSpan></flowPara></flowRoot>  <path
     style="fill:none;stroke:#000000;stroke-width:1px;stroke-linecap:butt;stroke-linejoin:miter;stroke-opacity:1"
     d="m 18.216535,143.19825 112.429985,0.7071 c 0,0 3.90117,-24.28207 8.13173,-42.77996 2.66821,-11.666613 6.23195,-23.966653 9.23528,-30.616403 3.00333,-6.64974 5.12749,-12.14106 7.06558,-14.55814 1.93809,-2.41708 2.91173,-3.32471 4.75371,-4.49008 1.4465,-0.91517 4.78515,-1.8632 4.78515,-1.8632 0,0 2.37531,56.689273 6.02298,84.761843 3.39793,26.15059 6.19609,52.18442 14.72424,76.82464 3.08068,8.90094 12.97424,25.10229 12.97424,25.10229 0,0 7.16721,-38.99342 16.45279,-56.14177 5.3532,-9.88613 12.40299,-19.64823 21.92031,-25.63262 10.11544,-6.36048 22.84329,-7.34278 34.64824,-9.19238 11.30877,-1.77185 34.29468,-1.76777 34.29468,-1.76777 l 57.98275,0.35355"
     id="path3129"
     inkscape:connector-curvature="0"
     sodipodi:nodetypes="ccszzacsacaaacc" />
  <flowRoot
     transform="translate(164.61438,-109.77267)"
     style="font-size:12px;font-style:normal;font-variant:normal;font-weight:normal;font-stretch:normal;text-align:start;line-height:100%;letter-spacing:0px;word-spacing:0px;writing-mode:lr-tb;text-anchor:start;fill:#000000;fill-opacity:1;stroke:none;font-family:Serif;-inkscape-font-specification:Serif"
     id="flowRoot3131"
     xml:space="preserve"><flowRegion
       id="flowRegion3133"><rect
         y="157.12029"
         x="9.3706627"
         height="16.242483"
         width="63.720509"
         id="rect3135" /></flowRegion><flowPara
       id="flowPara3137"
       style="font-size:10px;font-style:normal;font-variant:normal;font-weight:normal;font-stretch:normal;font-family:Sans;-inkscape-font-specification:Sans">39.3 km/h</flowPara></flowRoot>  <flowRoot
     xml:space="preserve"
     id="flowRoot3139"
     style="font-size:12px;font-style:normal;font-variant:normal;font-weight:normal;font-stretch:normal;text-align:start;line-height:100%;letter-spacing:0px;word-spacing:0px;writing-mode:lr-tb;text-anchor:start;fill:#000000;fill-opacity:1;stroke:none;font-family:Serif;-inkscape-font-specification:Serif"
     transform="translate(194.32506,74.157067)"><flowRegion
       id="flowRegion3141"><rect
         id="rect3143"
         width="63.720509"
         height="16.242483"
         x="9.3706627"
         y="157.12029" /></flowRegion><flowPara
       id="flowPara3145"
       style="font-size:10px;font-style:normal;font-variant:normal;font-weight:normal;font-stretch:normal;font-family:Sans;-inkscape-font-specification:Sans">22.8 km/h</flowPara></flowRoot>  <path
     style="opacity:0.25079364;fill:#b3b3b3;fill-opacity:1;fill-rule:nonzero;stroke:none"
     d="m 19.25403,196.05143 0,-52.36433 12.462757,0.21493 c 6.854517,0.11821 31.833064,0.31408 55.507883,0.43527 l 43.04513,0.22035 0,51.92906 0,51.92906 -55.507887,0 -55.507883,0 0,-52.36434 z"
     id="path3929"
     inkscape:connector-curvature="0" />
  <path
     style="opacity:0.25079364;fill:#b3b3b3;fill-opacity:1;fill-rule:nonzero;stroke:none"
     d="m 96.328669,143.04494 c -17.403665,-0.1325 -41.86514,-0.26357 -54.358833,-0.29127 l -22.715806,-0.0504 0,-57.982783 0,-57.98276 55.508933,0 55.508927,0 -0.0894,58.24792 -0.0894,58.247953 -1.06066,0.0261 c -0.58336,0.0144 -15.30002,-0.0823 -32.703691,-0.2148 l 0,10e-6 z m -11.624994,-7.94303 c 1.450654,-4.64005 1.533184,-5.12653 0.869709,-5.12653 -0.307135,0 -0.558423,0.06 -0.558423,0.1333 0,0.10719 -1.164591,3.97002 -2.341277,7.76576 -0.150087,0.48416 -0.0432,0.62021 0.416656,0.53033 0.436844,-0.0854 0.910739,-1.05555 1.613335,-3.30286 l 0,0 z m -29.101782,2.11912 c 1.162801,-0.3351 1.625345,-1.75952 0.986923,-3.03927 -0.289384,-0.58008 -0.36812,-1.10449 -0.18301,-1.21889 0.479574,-0.29639 0.394728,-2.13879 -0.117058,-2.54189 -1.201343,-0.94624 -4.154252,-0.85876 -4.154252,0.12306 0,0.34852 0.471147,0.492 1.61558,0.492 1.473189,0 1.605623,0.0701 1.502601,0.7955 -0.08089,0.56958 -0.389099,0.82726 -1.085249,0.90736 -1.074175,0.1236 -1.370377,1.12557 -0.33274,1.12557 1.13894,0 1.949553,0.85094 1.664918,1.74775 -0.232398,0.73222 -0.423256,0.79402 -1.987871,0.64368 -1.488297,-0.14301 -1.730793,-0.0778 -1.730793,0.46541 0,0.90488 1.661151,1.12213 3.820951,0.49972 z m 7.492758,-0.35136 c 0,-0.29462 -0.31427,-0.53033 -0.707107,-0.53033 -0.65506,0 -0.707107,-0.2357 -0.707107,-3.20231 l 0,-3.20231 -1.499551,0.10872 c -1.13847,0.0825 -1.530037,0.26925 -1.626147,0.77538 -0.103934,0.54732 0.03792,0.6352 0.792444,0.49097 l 0.919041,-0.17569 0,2.60262 c 0,2.36692 -0.06404,2.60262 -0.707107,2.60262 -0.392837,0 -0.707107,0.23571 -0.707107,0.53033 0,0.41248 0.471403,0.53033 2.12132,0.53033 1.649917,0 2.121321,-0.11785 2.121321,-0.53033 z m 6.010407,-0.56695 0,-1.09729 1.249741,1.09729 c 0.687354,0.6035 1.595526,1.09728 2.018153,1.09728 0.675743,0 0.587069,-0.18478 -0.735253,-1.53212 l -1.503669,-1.53213 1.518448,-1.28041 c 1.410048,-1.18901 1.456548,-1.28155 0.651394,-1.2963 -0.511829,-0.009 -1.344709,0.44707 -2.032932,1.11413 l -1.165882,1.13001 0,-2.19067 c 0,-1.71157 -0.115986,-2.19068 -0.53033,-2.19068 -0.439262,0 -0.53033,0.66782 -0.53033,3.88909 0,3.22126 0.09107,3.88908 0.53033,3.88908 0.357489,0 0.53033,-0.35762 0.53033,-1.09728 z m 6.010408,-1.20392 c 0.164957,-1.97658 0.235877,-2.11821 1.06066,-2.11821 0.838304,0 0.889343,0.11511 0.989727,2.23227 0.08908,1.87867 0.201087,2.2142 0.707107,2.11821 0.461327,-0.0875 0.642406,-0.60705 0.77804,-2.23227 0.164957,-1.97658 0.235877,-2.11821 1.06066,-2.11821 0.837299,0 0.889431,0.11645 0.989143,2.20971 0.09393,1.97186 0.184764,2.2097 0.843901,2.2097 0.692427,0 0.727082,-0.14399 0.553894,-2.30153 -0.101608,-1.26585 -0.381519,-2.53864 -0.622024,-2.82843 -0.499207,-0.6015 -2.668243,-0.71393 -3.012961,-0.15617 -0.158035,0.25571 -0.365818,0.25727 -0.669725,0.005 -0.242333,-0.20112 -1.26231,-0.34716 -2.266621,-0.32453 l -1.826015,0.0411 0,2.80816 c 0,2.48347 0.07154,2.79459 0.618719,2.69074 0.482243,-0.0915 0.657712,-0.58464 0.795495,-2.23563 l 0,0 z m 13.152992,0.0915 c 0.09953,-2.0893 0.155723,-2.21557 1.031323,-2.31713 1.060713,-0.12303 1.359218,0.53726 1.367208,3.02423 0.0035,1.0978 0.147697,1.5026 0.535156,1.5026 0.415365,0 0.53033,-0.48353 0.53033,-2.23052 0,-2.84001 -0.485927,-3.57079 -2.23835,-3.3662 -1.262355,0.14737 -1.297184,0.12012 -1.297184,-1.01501 0,-0.93074 -0.142885,-1.16644 -0.707106,-1.16644 -0.664253,0 -0.707107,0.2357 -0.707107,3.88909 0,3.6217 0.04746,3.88908 0.690235,3.88908 0.599761,0 0.704035,-0.28964 0.795495,-2.2097 z M 77.59034,87.725727 c 0,-0.32998 -0.33391,-0.53033 -0.883884,-0.53033 -0.881536,0 -0.883883,-0.009 -0.883883,-3.39999 0,-3.35338 -0.01089,-3.39707 -0.795495,-3.18681 -0.437523,0.11725 -1.073919,0.21536 -1.414214,0.21802 -0.383368,0.003 -0.618718,0.27635 -0.618718,0.71866 0,0.58489 0.159671,0.67377 0.883883,0.492 l 0.883884,-0.22184 0,2.68998 c 0,2.63361 -0.01853,2.68998 -0.883884,2.68998 -0.549973,0 -0.883883,0.20035 -0.883883,0.53033 0,0.41702 0.491046,0.53033 2.298097,0.53033 1.80705,0 2.298097,-0.11331 2.298097,-0.53033 z"
     id="path3957"
     inkscape:connector-curvature="0" />
  <path
     style="opacity:0.25079364;fill:#b3b3b3;fill-opacity:1;fill-rule:nonzero;stroke:none"
     d="m 131.71296,79.887667 -0.029,-53.0929 1.14905,0.30975 c 1.72975,0.46628 30.94516,7.41143 31.17688,7.41143 0.11054,0 0.20098,3.26652 0.20098,7.25894 0,6.60167 -0.056,7.27698 -0.61871,7.45819 -4.1249,1.32836 -7.01294,3.45335 -9.39377,6.91187 -1.4451,2.09922 -5.26157,10.26412 -7.81339,16.71585 -4.26187,10.77522 -8.25485,26.5607 -12.92694,51.104183 l -1.71621,9.01561 -0.0289,-53.092923 z"
     id="path3959"
     inkscape:connector-curvature="0" />
  <path
     style="opacity:0.25079364;fill:#b3b3b3;fill-opacity:1;fill-rule:nonzero;stroke:none"
     d="m 131.68401,195.04292 0,-53.37284 1.42743,-8.23383 c 4.11795,-23.75365 8.79311,-43.963573 12.89855,-55.758173 2.7332,-7.85231 7.62015,-18.50421 9.84655,-21.46221 1.90477,-2.53067 3.39553,-3.74442 6.02998,-4.9095 1.64434,-0.72721 1.9379,-0.76925 2.11675,-0.30316 0.11421,0.29762 0.20765,44.8372 0.20765,98.976863 l 0,98.4357 -16.26345,0 -16.26346,0 0,-53.37285 z M 152.54366,88.079287 c 0,-0.39516 -0.41785,-0.53033 -1.63937,-0.53033 l -1.63937,0 1.63937,-1.75262 c 1.81955,-1.94526 2.07556,-3.11449 0.93226,-4.25779 -1.09603,-1.09604 -4.24264,-0.7092 -4.24264,0.52158 0,0.63759 -0.106,0.62152 1.34842,0.2044 2.71873,-0.77973 2.89406,0.70447 0.41935,3.54971 -0.97227,1.11784 -1.76777,2.2041 -1.76777,2.41391 0,0.23659 0.93993,0.38147 2.47488,0.38147 1.96418,0 2.47487,-0.10944 2.47487,-0.53033 z"
     id="path3961"
     inkscape:connector-curvature="0" />
  <path
     style="opacity:0.25079364;fill:#b3b3b3;fill-opacity:1;fill-rule:nonzero;stroke:none"
     d="m 165.66801,166.30299 0.0429,-82.112793 0.81046,11.49048 c 1.74011,24.670853 3.21967,38.623193 6.72983,63.462863 3.29686,23.3302 7.78816,42.98525 12.55255,54.93313 1.29234,3.24085 5.78144,11.93101 9.17643,17.76404 l 2.4648,4.23484 0,6.17011 0,6.17011 -15.9099,0 -15.9099,0 0.0429,-82.11278 z"
     id="path3963"
     inkscape:connector-curvature="0" />
  <path
     style="opacity:0.25079364;fill:#b3b3b3;fill-opacity:1;fill-rule:nonzero;stroke:none"
     d="m 194.72987,228.66626 c -2.91053,-5.12424 -6.77551,-12.75708 -7.9022,-15.60583 -3.02076,-7.63774 -6.65799,-21.48218 -9.19572,-35.00179 -2.71529,-14.46551 -6.71426,-44.82868 -8.2885,-62.9325 -0.78182,-8.99098 -2.1794,-29.700103 -3.00292,-44.497063 -0.71259,-12.80363 -1.00392,-36.46669 -0.44896,-36.46669 0.14654,0 7.25237,-1.59158 15.79074,-3.53685 8.53836,-1.94526 15.57819,-3.48295 15.64407,-3.41708 0.0659,0.0659 0.0797,46.42632 0.0308,103.023253 l -0.089,102.90345 -2.5383,-4.4689 z M 182.51703,87.705687 c 0.83062,-0.5818 1.12416,-2.7343 0.43127,-3.16253 -0.23698,-0.14646 -0.23698,-0.43871 0,-0.88151 0.57127,-1.06742 0.41148,-2.0431 -0.43127,-2.63339 -1.30329,-0.91285 -3.81042,-0.64264 -3.81042,0.41069 0,0.40747 0.26873,0.48267 1.14905,0.32157 1.38379,-0.25324 2.1476,0.15559 1.97631,1.05783 -0.0799,0.42087 -0.48178,0.70578 -1.09545,0.77661 -1.24053,0.14319 -1.26521,1.04325 -0.0326,1.19047 1.25204,0.14955 1.83936,1.09084 1.17792,1.88783 -0.38322,0.46175 -0.84117,0.55049 -2.01243,0.38995 -1.12228,-0.15383 -1.51631,-0.0871 -1.51631,0.25681 0,0.25555 0.10607,0.57071 0.2357,0.70034 0.44918,0.44917 3.14617,0.23313 3.92827,-0.31467 l 0,0 z m -4.35942,-32.32299 c 1.38181,-0.52537 1.90159,-1.95029 1.17392,-3.21819 -0.33541,-0.58442 -0.44174,-1.10303 -0.25039,-1.2213 0.18292,-0.11304 0.33258,-0.66785 0.33258,-1.23289 0,-1.27653 -0.81834,-1.75934 -2.98196,-1.75934 -1.36107,0 -1.61423,0.10741 -1.61423,0.68487 0,0.58495 0.18011,0.65565 1.23444,0.48456 1.36315,-0.22121 2.37611,0.345 2.06547,1.15451 -0.10647,0.27747 -0.65386,0.50448 -1.21642,0.50448 -0.77598,0 -1.02283,0.16525 -1.02283,0.68471 0,0.51406 0.28637,0.71232 1.14904,0.79549 0.88041,0.0849 1.17545,0.29664 1.26196,0.90572 0.14574,1.02617 -1.27712,1.64793 -2.6108,1.14087 -1.19992,-0.45621 -1.21442,-0.4522 -1.21442,0.33638 0,0.99297 1.98332,1.39039 3.69364,0.74013 l 0,0 z m 6.80486,-0.50682 c 0.89715,-0.7717 0.99199,-1.07235 0.99199,-3.14486 0,-2.75918 -0.68318,-3.78004 -2.52967,-3.78004 -2.23043,0 -3.34447,2.31083 -2.02335,4.19699 0.46752,0.66748 0.82687,0.79463 1.94454,0.68804 0.87582,-0.0835 1.37104,0.0166 1.37104,0.27724 0,0.73112 -1.06658,1.31604 -2.31423,1.26913 -0.82743,-0.0311 -1.2213,0.11215 -1.2213,0.44419 0,1.14742 2.46695,1.17959 3.78098,0.0493 l 0,0 z m 9.10504,0.50682 c 1.38182,-0.52537 1.9016,-1.95029 1.17392,-3.21819 -0.33541,-0.58442 -0.44173,-1.10303 -0.25038,-1.2213 0.18291,-0.11304 0.33257,-0.66785 0.33257,-1.23289 0,-1.27653 -0.81834,-1.75934 -2.98196,-1.75934 -1.36107,0 -1.61423,0.10741 -1.61423,0.68487 0,0.58495 0.18011,0.65565 1.23444,0.48456 1.36315,-0.22121 2.37611,0.345 2.06547,1.15451 -0.10647,0.27747 -0.65386,0.50448 -1.21642,0.50448 -0.77598,0 -1.02283,0.16525 -1.02283,0.68471 0,0.51406 0.28637,0.71232 1.14905,0.79549 0.88041,0.0849 1.17544,0.29664 1.26195,0.90572 0.14575,1.02617 -1.27711,1.64793 -2.6108,1.14087 -1.19991,-0.45621 -1.21442,-0.4522 -1.21442,0.33638 0,0.99297 1.98332,1.39039 3.69364,0.74013 z m -5.10785,-0.71421 c 0,-0.4714 -0.2357,-0.70711 -0.70711,-0.70711 -0.4714,0 -0.7071,0.23571 -0.7071,0.70711 0,0.4714 0.2357,0.70711 0.7071,0.70711 0.47141,0 0.70711,-0.23571 0.70711,-0.70711 z"
     id="path3965"
     inkscape:connector-curvature="0" />
  <path
     style="opacity:0.25079364;fill:#b3b3b3;fill-opacity:1;fill-rule:nonzero;stroke:none"
     d="m 182.38938,51.360237 c -0.42886,-1.11759 -0.004,-2.17183 0.87489,-2.17183 1.09948,0 1.77075,1.00639 1.23806,1.85616 -0.50291,0.80226 -1.84905,1.00338 -2.11295,0.31567 z"
     id="path3967"
     inkscape:connector-curvature="0" />
  <path
     style="opacity:0.25079364;fill:#b3b3b3;fill-opacity:1;fill-rule:nonzero;stroke:none"
     d="m 198.90049,128.11923 -0.0413,-101.381463 53.033,0 53.03301,0 0,58.10396 0,58.103993 -10.16466,0.2194 c -14.74317,0.31822 -22.25309,1.05126 -36.86612,3.5985 -13.8461,2.41356 -21.21982,5.75667 -28.97503,13.13676 -7.85901,7.47886 -15.06738,18.88687 -19.29263,30.53263 -3.07172,8.46639 -7.01225,22.71507 -10.16877,36.76956 -0.45694,2.03454 -0.52087,-9.32866 -0.55747,-99.08334 z m 53.69878,-42.691593 c 0,-0.39284 0.2357,-0.70711 0.53033,-0.70711 0.29463,0 0.53033,-0.31427 0.53033,-0.70711 0,-0.39283 -0.2357,-0.7071 -0.53033,-0.7071 -0.41701,0 -0.53033,-0.49105 -0.53033,-2.2981 0,-2.15179 -0.0507,-2.29718 -0.79549,-2.28367 -0.59399,0.0108 -1.17612,0.62616 -2.2981,2.42943 -1.96273,3.15452 -1.95252,3.56655 0.0884,3.56655 1.35528,0 1.59099,0.10476 1.59099,0.70711 0,0.4714 0.2357,0.7071 0.7071,0.7071 0.47141,0 0.70711,-0.2357 0.70711,-0.7071 z m -35.31056,-33.23716 c 1.13457,-3.75131 1.21209,-4.2395 0.67322,-4.2395 -0.45068,0 -0.80585,0.66637 -1.36617,2.56326 -0.41643,1.40979 -0.99019,3.31898 -1.27502,4.24264 -0.47755,1.54867 -0.47102,1.67913 0.084,1.67624 0.46125,-0.002 0.90128,-0.99331 1.88402,-4.24264 z m -15.95468,2.0551 0,-1.13001 1.16588,1.13001 c 0.65479,0.63465 1.53868,1.13002 2.0163,1.13002 0.80976,0 0.7844,-0.0676 -0.53053,-1.41422 l -1.38094,-1.41421 1.38094,-1.41421 c 1.15015,-1.17786 1.26424,-1.41422 0.68264,-1.41422 -0.38407,0 -1.2914,0.48888 -2.0163,1.0864 l -1.31799,1.0864 0,-2.14706 c 0,-1.67279 -0.11715,-2.14706 -0.53033,-2.14706 -0.43926,0 -0.53033,0.66783 -0.53033,3.88909 0,3.22126 0.0911,3.88909 0.53033,3.88909 0.36079,0 0.53033,-0.36126 0.53033,-1.13002 z m 6.08193,-1.07969 c 0.0997,-2.09325 0.15184,-2.20971 0.98914,-2.20971 0.8373,0 0.88943,0.11646 0.98914,2.20971 0.0905,1.90025 0.19956,2.20971 0.77862,2.20971 0.57907,0 0.68811,-0.30946 0.77863,-2.20971 0.0997,-2.09325 0.15184,-2.20971 0.98914,-2.20971 0.8373,0 0.88943,0.11646 0.98914,2.20971 0.0915,1.92006 0.19574,2.20971 0.7955,2.20971 0.59762,0 0.68954,-0.24905 0.68502,-1.85616 -0.007,-2.39722 -0.60714,-3.59063 -1.88051,-3.73786 -0.54201,-0.0627 -1.21449,0.0761 -1.49441,0.30846 -0.36346,0.30164 -0.63888,0.31456 -0.96343,0.0452 -0.24997,-0.20745 -1.28411,-0.37076 -2.2981,-0.36291 l -1.84362,0.0143 0,2.79449 c 0,2.53602 0.0638,2.79449 0.69024,2.79449 0.59976,0 0.70403,-0.28965 0.7955,-2.20971 z m 13.00995,0.33587 c 0,-1.93912 0.41634,-2.72236 1.4471,-2.72236 0.77281,0 1.02778,0.70883 1.02778,2.85735 0,1.30994 0.13081,1.73885 0.53033,1.73885 0.4164,0 0.53033,-0.48824 0.53033,-2.27285 0,-2.73413 -0.55913,-3.51992 -2.35535,-3.31022 -1.12724,0.1316 -1.18019,0.0855 -1.18019,-1.02866 0,-0.93075 -0.14288,-1.16645 -0.7071,-1.16645 -0.66426,0 -0.70711,0.2357 -0.70711,3.88909 0,3.65338 0.0428,3.88909 0.70711,3.88909 0.61816,0 0.7071,-0.23571 0.7071,-1.87384 z"
     id="path3969"
     inkscape:connector-curvature="0" />
  <path
     style="opacity:0.25079364;fill:#b3b3b3;fill-opacity:1;fill-rule:nonzero;stroke:none"
     d="m 251.53861,85.250857 c 0,-0.81186 -0.12964,-0.88388 -1.59099,-0.88388 -1.72796,0 -1.99758,-0.41691 -1.04235,-1.61181 0.53319,-0.66697 0.54247,-0.6639 0.32973,0.1092 -0.19737,0.71721 -0.0948,0.7955 1.04235,0.7955 l 1.26126,0 0,-1.96541 c 0,-1.37071 -0.12086,-1.89072 -0.39942,-1.71855 -0.24242,0.14982 -0.33513,0.0538 -0.23587,-0.2443 0.09,-0.27014 0.4288,-0.5426 0.75298,-0.60547 0.502,-0.0974 0.58942,0.23035 0.58942,2.20971 0,1.83009 0.11271,2.32402 0.53033,2.32402 0.29168,0 0.53033,0.1591 0.53033,0.35355 0,0.19446 -0.23865,0.35356 -0.53033,0.35356 -0.32999,0 -0.53033,0.33391 -0.53033,0.88388 0,0.48613 -0.1591,0.88388 -0.35356,0.88388 -0.19445,0 -0.35355,-0.39775 -0.35355,-0.88388 z"
     id="path3971"
     inkscape:connector-curvature="0" />
  <path
     style="opacity:0.25079364;fill:#b3b3b3;fill-opacity:1;fill-rule:nonzero;stroke:none"
     d="m 198.85916,242.36858 c 0,-5.49473 0.0614,-5.97953 1.75748,-13.87697 4.16788,-19.40685 9.03118,-35.91124 13.24612,-44.95289 3.39168,-7.27566 9.4297,-16.07948 14.6886,-21.41693 7.94776,-8.06647 15.40405,-11.59247 29.77947,-14.0824 13.34304,-2.31111 20.26196,-3.06887 30.86122,-3.37991 3.69463,-0.10842 8.74602,-0.28516 11.22532,-0.39277 l 4.5078,-0.19564 0,51.99557 0,51.99558 -53.03301,0 -53.033,0 0,-5.69364 z m 47.67077,-4.6478 c 0.41643,-1.4098 0.99019,-3.31898 1.27502,-4.24264 0.48094,-1.55966 0.47388,-1.67938 -0.099,-1.67938 -0.42418,0 -0.74798,0.46936 -1.03661,1.5026 -0.23086,0.82643 -0.80839,2.73562 -1.28339,4.24264 -0.79763,2.53057 -0.81586,2.74004 -0.23841,2.74004 0.47083,0 0.81222,-0.63301 1.3824,-2.56326 z m -37.41773,1.14905 c 0,-0.59289 -0.2357,-0.70711 -1.45924,-0.70711 l -1.45924,0 1.45924,-1.58309 c 1.70576,-1.85053 1.94307,-3.34123 0.67347,-4.23049 -0.9664,-0.6769 -2.74562,-0.71311 -3.62008,-0.0737 -0.98527,0.72044 -0.41232,1.31344 0.81971,0.84839 2.67255,-1.00877 2.90609,0.98357 0.40416,3.44788 -0.97227,0.95765 -1.76776,2.02559 -1.76776,2.3732 0,0.54678 0.33372,0.632 2.47487,0.632 2.23917,0 2.47487,-0.0673 2.47487,-0.7071 l 0,0 z m 6.36397,0 c 0,-0.59289 -0.23571,-0.70711 -1.45925,-0.70711 l -1.45924,0 1.45924,-1.58309 c 1.70576,-1.85053 1.94307,-3.34123 0.67347,-4.23049 -0.9664,-0.6769 -2.74561,-0.71311 -3.62008,-0.0737 -0.98527,0.72044 -0.41232,1.31344 0.81971,0.84839 2.67255,-1.00877 2.90609,0.98357 0.40416,3.44788 -0.97227,0.95765 -1.76776,2.02559 -1.76776,2.3732 0,0.54678 0.33372,0.632 2.47487,0.632 2.23917,0 2.47488,-0.0673 2.47488,-0.7071 l 0,0 z m 3.18198,-0.17678 c 0,-0.64818 -0.18857,-0.88388 -0.70711,-0.88388 -0.51855,0 -0.70711,0.2357 -0.70711,0.88388 0,0.64818 0.18856,0.88388 0.70711,0.88388 0.51854,0 0.70711,-0.2357 0.70711,-0.88388 z m 5.93174,0.33351 c 0.90072,-0.63089 1.06347,-2.3034 0.29857,-3.0683 -0.4139,-0.4139 -0.4139,-0.58745 0,-1.15349 0.6656,-0.91026 0.61238,-1.46661 -0.21991,-2.2989 -0.85766,-0.85766 -2.8971,-0.94148 -3.68705,-0.15153 -0.61912,0.61912 -0.71771,1.82256 -0.21451,2.61833 0.22478,0.35545 0.15596,0.71485 -0.21549,1.1253 -0.66779,0.73789 -0.35609,2.6009 0.52076,3.11255 0.89702,0.52343 2.63765,0.43239 3.51763,-0.18396 l 0,0 z m 6.44262,-0.75882 0,-1.30919 1.34074,1.30919 c 1.19774,1.16957 2.54835,1.7308 2.54835,1.05894 0,-0.13765 -0.59662,-0.86366 -1.32582,-1.61337 l -1.32583,-1.3631 1.32583,-1.21982 c 0.7292,-0.67091 1.32582,-1.29723 1.32582,-1.39185 0,-0.52144 -1.40204,-0.002 -2.47487,0.91636 l -1.23744,1.05963 -0.10526,-2.13466 c -0.078,-1.58229 -0.23812,-2.13466 -0.61872,-2.13466 -0.41914,0 -0.51346,0.74684 -0.51346,4.06586 0,3.3784 0.0897,4.06586 0.53033,4.06586 0.37593,0 0.53033,-0.38117 0.53033,-1.30919 z m 6.01041,-0.76884 c 0,-2.18129 0.55483,-3.14147 1.58649,-2.74559 0.40187,0.15422 0.53483,0.77932 0.53483,2.51443 0,2.07349 0.0722,2.30919 0.70711,2.30919 0.6269,0 0.70711,-0.2357 0.70711,-2.07803 0,-2.18129 0.55482,-3.14147 1.58649,-2.74559 0.40186,0.15422 0.53483,0.77932 0.53483,2.51443 0,2.07349 0.0722,2.30919 0.7071,2.30919 0.62037,0 0.70711,-0.2357 0.70711,-1.92152 0,-3.43155 -0.88631,-4.57662 -2.94185,-3.80074 -0.62222,0.23486 -1.22908,0.27446 -1.45047,0.0946 -0.20936,-0.17005 -1.21592,-0.30738 -2.23681,-0.30519 l -1.85615,0.004 0,2.96441 c 0,2.7287 0.0562,2.96441 0.70711,2.96441 0.6269,0 0.7071,-0.23571 0.7071,-2.07803 l 0,-1e-5 z m 13.08148,0 c 0,-2.3251 0.63811,-3.30996 1.70901,-2.63767 0.4233,0.26573 0.61871,0.98134 0.69434,2.54276 0.0783,1.61575 0.23692,2.17294 0.61872,2.17294 0.3989,0 0.51346,-0.53994 0.51346,-2.42007 0,-2.88919 -0.66733,-3.8281 -2.46528,-3.46851 -1.02704,0.20541 -1.07025,0.16445 -1.07025,-1.01455 0,-0.99289 -0.13566,-1.22859 -0.70711,-1.22859 -0.66612,0 -0.70711,0.2357 -0.70711,4.06586 0,3.83016 0.041,4.06586 0.70711,4.06586 0.6269,0 0.70711,-0.2357 0.70711,-2.07803 l 0,0 z"
     id="path3973"
     inkscape:connector-curvature="0" />
  <path
     style="opacity:0.25079364;fill:#b3b3b3;fill-opacity:1;fill-rule:nonzero;stroke:none"
     d="m 221.84013,234.45041 c -0.35177,-0.42386 -0.34893,-0.64023 0.0142,-1.07772 0.59811,-0.72068 1.88931,-0.51393 2.04994,0.32825 0.21972,1.15197 -1.27856,1.69599 -2.0641,0.74947 z"
     id="path3975"
     inkscape:connector-curvature="0" />
  <path
     style="opacity:0.25079364;fill:#b3b3b3;fill-opacity:1;fill-rule:nonzero;stroke:none"
     d="m 220.94655,238.50557 c -0.50804,-0.56138 -0.57777,-0.92107 -0.31996,-1.65049 0.18131,-0.51297 0.5683,-1.00534 0.85998,-1.09415 0.42801,-0.13032 0.44506,-0.0711 0.0884,0.30699 -0.76257,0.80832 -0.52789,2.0708 0.4694,2.52519 1.5872,0.72318 3.00558,-1.06338 1.90094,-2.39439 -0.51014,-0.61468 0.0501,-0.68904 0.65254,-0.0866 0.59494,0.59494 0.52808,1.89629 -0.13132,2.55569 -0.79538,0.79538 -2.73421,0.70602 -3.51997,-0.16223 z"
     id="path3977"
     inkscape:connector-curvature="0" />
  <path
     style="opacity:0.25079364;fill:#b3b3b3;fill-opacity:1;fill-rule:nonzero;stroke:none"
     d="m 306.69294,196.03313 0,-52.02909 9.28078,0.23279 c 5.10442,0.12804 17.83235,0.23312 28.28427,0.23352 l 19.00349,7.2e-4 0,51.79557 0,51.79558 -28.28427,0 -28.28427,0 0,-52.02909 z"
     id="path3979"
     inkscape:connector-curvature="0" />
  <path
     style="opacity:0.25079364;fill:#b3b3b3;fill-opacity:1;fill-rule:nonzero;stroke:none"
     d="m 334.00494,143.14528 -27.312,-0.0928 0,-58.334153 0,-58.33413 28.28427,0 28.28427,0 0,58.51309 0,58.513103 -0.97227,-0.0862 c -0.53475,-0.0474 -13.26267,-0.12793 -28.28427,-0.17896 z m 14.04732,-7.60143 c 0.61002,-1.99316 1.19459,-3.91697 1.29903,-4.27514 0.1394,-0.47807 0.0281,-0.61908 -0.41843,-0.53033 -0.43611,0.0867 -0.94576,1.22183 -1.80034,4.00997 -1.36789,4.46288 -1.36108,4.41942 -0.69228,4.41942 0.32995,0 0.88428,-1.24615 1.61202,-3.62392 z m -28.54301,1.93065 c 0.75379,-0.65501 0.80976,-2.30424 0.0983,-2.89474 -0.45827,-0.38033 -0.45827,-0.49417 0,-0.95243 1.4955,-1.4955 -0.75608,-3.70136 -3.16177,-3.09757 -1.47545,0.37031 -1.11348,1.1583 0.58865,1.28145 1.22801,0.0889 1.5026,0.2373 1.5026,0.81235 0,0.50051 -0.29778,0.75567 -1.03149,0.88389 -1.31461,0.22972 -1.65761,1.06413 -0.43744,1.06413 0.85239,0 1.99926,0.80091 1.99926,1.39617 0,0.70842 -1.14223,1.16086 -2.47826,0.98166 -1.20241,-0.16127 -1.41083,-0.0932 -1.41083,0.46075 0,1.12397 3.05931,1.16941 4.33103,0.0643 z m 6.98268,0.10228 c 0,-0.32998 -0.33391,-0.53033 -0.88388,-0.53033 -0.87778,0 -0.88389,-0.0221 -0.88389,-3.20332 l 0,-3.20332 -1.32288,0.10972 c -0.96369,0.0799 -1.35719,0.29053 -1.44921,0.77557 -0.1057,0.55709 0.0237,0.62816 0.79255,0.4352 l 0.91888,-0.23062 0,2.65839 c 0,2.5999 -0.0194,2.65838 -0.88388,2.65838 -0.54997,0 -0.88388,0.20035 -0.88388,0.53033 0,0.41701 0.49104,0.53033 2.29809,0.53033 1.80705,0 2.2981,-0.11332 2.2981,-0.53033 z m 6.01041,-0.59969 0,-1.13001 1.16588,1.13001 c 0.65623,0.63605 1.53844,1.13002 2.01815,1.13002 0.80008,0 0.75991,-0.0941 -0.65578,-1.5366 l -1.50806,-1.5366 1.25767,-1.10425 c 0.69172,-0.60734 1.25767,-1.18866 1.25767,-1.29183 0,-0.50472 -1.25682,-0.0851 -2.24706,0.75022 l -1.1117,0.9378 -0.10603,-1.99846 c -0.0907,-1.70946 -0.20573,-1.99845 -0.79549,-1.99845 -0.6418,0 -0.68947,0.26887 -0.68947,3.88908 0,3.65339 0.0429,3.88909 0.70711,3.88909 0.55962,0 0.70711,-0.2357 0.70711,-1.13002 z m 5.65685,-0.74381 c 0,-1.93912 0.41634,-2.72236 1.4471,-2.72236 0.77281,0 1.02778,0.70882 1.02778,2.85734 0,1.30994 0.13081,1.73885 0.53033,1.73885 0.40469,0 0.53033,-0.44391 0.53033,-1.87383 0,-1.93912 0.41634,-2.72236 1.44709,-2.72236 0.77282,0 1.02778,0.70882 1.02778,2.85734 0,1.30994 0.13081,1.73885 0.53033,1.73885 0.70003,0 0.74962,-4.16115 0.0608,-5.10314 -0.50765,-0.69426 -2.18858,-0.86547 -2.77173,-0.28231 -0.24402,0.24401 -0.65395,0.20717 -1.27396,-0.11449 -0.50279,-0.26085 -1.06783,-0.37931 -1.25563,-0.26324 -0.18781,0.11607 -0.79584,0.19812 -1.35118,0.18233 l -1.00971,-0.0287 0,2.80478 c 0,2.25744 0.10349,2.80478 0.53033,2.80478 0.4047,0 0.53033,-0.44391 0.53033,-1.87383 z m 13.08148,0.17364 c 0,-1.94171 0.61936,-3.03225 1.61436,-2.84251 0.57465,0.10958 0.70053,0.48235 0.78899,2.33654 0.0914,1.91654 0.19588,2.20616 0.7955,2.20616 0.60193,0 0.69023,-0.25173 0.69023,-1.96779 0,-1.08228 -0.1695,-2.28449 -0.37666,-2.67159 -0.49024,-0.91603 -1.71532,-1.35841 -2.71693,-0.98109 -0.72984,0.27494 -0.79549,0.19827 -0.79549,-0.92902 0,-0.85646 -0.16066,-1.22868 -0.53033,-1.22868 -0.43926,0 -0.53033,0.66782 -0.53033,3.88908 0,3.22127 0.0911,3.88909 0.53033,3.88909 0.39788,0 0.53033,-0.42461 0.53033,-1.70019 z M 333.0674,86.686327 c 0.72236,-0.20607 1.55626,-1.52695 1.55626,-2.46509 0,-0.9796 -1.44885,-2.32914 -2.50054,-2.32914 -0.79929,0 -1.035,-0.16103 -1.035,-0.70711 0,-0.58925 0.23571,-0.7071 1.41422,-0.7071 1.02137,0 1.41421,-0.14732 1.41421,-0.53033 0,-0.41299 -0.47346,-0.53033 -2.1398,-0.53033 l -2.13979,0 0.10686,1.83479 0.10687,1.83478 1.37356,0.0213 c 1.61529,0.0251 2.4073,0.86798 1.76426,1.87752 -0.27124,0.42583 -0.84949,0.61872 -1.85481,0.61872 -1.13259,0 -1.4606,0.13346 -1.46025,0.59413 6.8e-4,0.86378 1.38069,1.06212 3.39395,0.48779 l 0,2e-5 z"
     id="path3981"
     inkscape:connector-curvature="0" />
</svg>
