<?xml version="1.0" encoding="UTF-8" standalone="no"?>
<!-- Created with Inkscape (http://www.inkscape.org/) -->

<svg
   xmlns:dc="http://purl.org/dc/elements/1.1/"
   xmlns:cc="http://creativecommons.org/ns#"
   xmlns:rdf="http://www.w3.org/1999/02/22-rdf-syntax-ns#"
   xmlns:svg="http://www.w3.org/2000/svg"
   xmlns="http://www.w3.org/2000/svg"
   xmlns:sodipodi="http://sodipodi.sourceforge.net/DTD/sodipodi-0.dtd"
   xmlns:inkscape="http://www.inkscape.org/namespaces/inkscape"
   id="svg2"
   version="1.1"
   inkscape:version="0.48.4 r9939"
   width="370.5125"
   height="258.1"
   xml:space="preserve"
   sodipodi:docname="Wilson_002_fig_012.svg"
   inkscape:export-filename="/home/theo/HPV/BicyclingScience/BicyclingScienceArtFiles/chapter 2/Wilson_002_fig_012.png"
   inkscape:export-xdpi="150"
   inkscape:export-ydpi="150"><metadata
     id="metadata8"><rdf:RDF><cc:Work
         rdf:about=""><dc:format>image/svg+xml</dc:format><dc:type
           rdf:resource="http://purl.org/dc/dcmitype/StillImage" /><dc:title></dc:title></cc:Work></rdf:RDF></metadata><defs
     id="defs6"><clipPath
       clipPathUnits="userSpaceOnUse"
       id="clipPath18"><path
         d="m 0,0 2964,0 0,2064.76 -2964,0 L 0,0 z"
         id="path20" /></clipPath><clipPath
       clipPathUnits="userSpaceOnUse"
       id="clipPath50"><path
         d="m 9.31641,0 2954.67999,0 0,2064.76 -2954.67999,0 0,-2064.76 z"
         id="path52" /></clipPath><clipPath
       clipPathUnits="userSpaceOnUse"
       id="clipPath64"><path
         d="m 0,0 0,2065 2964,0 L 2964,0 0,0 z"
         id="path66" /></clipPath><clipPath
       clipPathUnits="userSpaceOnUse"
       id="clipPath82"><path
         d="m 9.31641,0 2954.67999,0 0,2064.76 -2954.67999,0 0,-2064.76 z"
         id="path84" /></clipPath><clipPath
       clipPathUnits="userSpaceOnUse"
       id="clipPath96"><path
         d="m 0,0 0,2065 2964,0 L 2964,0 0,0 z"
         id="path98" /></clipPath></defs><sodipodi:namedview
     pagecolor="#ffffff"
     bordercolor="#666666"
     borderopacity="1"
     objecttolerance="10"
     gridtolerance="10"
     guidetolerance="10"
     inkscape:pageopacity="0"
     inkscape:pageshadow="2"
     inkscape:window-width="1600"
     inkscape:window-height="1127"
     id="namedview4"
     showgrid="false"
     inkscape:zoom="2.5862409"
     inkscape:cx="219.69062"
     inkscape:cy="170.25596"
     inkscape:window-x="-3"
     inkscape:window-y="-3"
     inkscape:window-maximized="1"
     inkscape:current-layer="g10" /><g
     id="g10"
     inkscape:groupmode="layer"
     inkscape:label="ink_ext_XXXXXX"
     transform="matrix(1.25,0,0,-1.25,0,258.1)"><path
       style="fill:none;stroke:#000000;stroke-width:0.56;stroke-linecap:butt;stroke-linejoin:miter;stroke-miterlimit:4;stroke-opacity:1;stroke-dasharray:none"
       d="m 260.22873,188.43735 4.44225,0.13082 -2.16644,-0.1852 -0.0386,-22.11861 2.3465,0 -4.49304,0"
       id="path4294"
       inkscape:connector-curvature="0"
       sodipodi:nodetypes="cccccc" /><path
       sodipodi:nodetypes="cccccc"
       inkscape:connector-curvature="0"
       id="path4286"
       d="m 219.7066,164.51786 4.44225,0.0773 -2.16644,-0.10943 -0.0386,-13.06917 2.3465,0 -4.49304,0"
       style="fill:none;stroke:#000000;stroke-width:0.56;stroke-linecap:butt;stroke-linejoin:miter;stroke-miterlimit:4;stroke-opacity:1;stroke-dasharray:none" /><path
       style="fill:none;stroke:#000000;stroke-width:0.56;stroke-linecap:butt;stroke-linejoin:miter;stroke-miterlimit:4;stroke-opacity:1;stroke-dasharray:none"
       d="m 173.07522,151.03844 4.44225,0.10092 -2.16644,-0.14282 -0.0386,-17.05706 2.3465,0 -4.49304,0"
       id="path4288"
       inkscape:connector-curvature="0"
       sodipodi:nodetypes="cccccc" /><path
       style="fill:none;stroke:#000000;stroke-width:0.56;stroke-linecap:butt;stroke-linejoin:miter;stroke-miterlimit:4;stroke-opacity:1;stroke-dasharray:none"
       d="m 133.17174,125.3503 4.44225,0.0373 -2.16644,-0.0529 -0.0386,-6.32044 2.3465,0 -4.49304,0"
       id="path4290"
       inkscape:connector-curvature="0"
       sodipodi:nodetypes="cccccc" /><path
       style="fill:none;stroke:#000000;stroke-width:0.56;stroke-linecap:butt;stroke-linejoin:miter;stroke-miterlimit:4;stroke-opacity:1;stroke-dasharray:none"
       d="m 78.188464,84.603415 4.44225,0.03012 -2.16644,-0.04265 -0.0386,-5.093391 2.3465,0 -4.49304,0"
       id="path4292"
       inkscape:connector-curvature="0"
       sodipodi:nodetypes="cccccc" /><g
       id="g12"
       transform="scale(0.1,0.1)"><g
         id="g14"><g
           id="g16"
           clip-path="url(#clipPath18)"><g
             id="g22"
             transform="scale(10,10)"><text
               transform="matrix(1,0,0,-1,16.7852,199.428)"
               id="text24"><tspan
                 style="fill:#231f20;fill-opacity:1;fill-rule:nonzero;stroke:none;font-family:Helvetica;font-variant:normal;font-weight:normal;font-size:7.5;writing-mode:lr;-inkscape-font-specification:Helvetica"
                 x="0 4.17"
                 y="0"
                 sodipodi:role="line"
                 id="tspan26">70</tspan><tspan
                 style="fill:#231f20;fill-opacity:1;fill-rule:nonzero;stroke:none;font-family:Helvetica;font-variant:normal;font-weight:normal;font-size:7.5;writing-mode:lr;-inkscape-font-specification:Helvetica"
                 x="0 4.17"
                 y="36"
                 sodipodi:role="line"
                 id="tspan28">60</tspan><tspan
                 style="fill:#231f20;fill-opacity:1;fill-rule:nonzero;stroke:none;font-family:Helvetica;font-variant:normal;font-weight:normal;font-size:7.5;writing-mode:lr;-inkscape-font-specification:Helvetica"
                 x="0 4.17"
                 y="72"
                 sodipodi:role="line"
                 id="tspan30">50</tspan><tspan
                 style="fill:#231f20;fill-opacity:1;fill-rule:nonzero;stroke:none;font-family:Helvetica;font-variant:normal;font-weight:normal;font-size:7.5;writing-mode:lr;-inkscape-font-specification:Helvetica"
                 x="0 4.17"
                 y="108"
                 sodipodi:role="line"
                 id="tspan32">40</tspan><tspan
                 style="fill:#231f20;fill-opacity:1;fill-rule:nonzero;stroke:none;font-family:Helvetica;font-variant:normal;font-weight:normal;font-size:7.5;writing-mode:lr;-inkscape-font-specification:Helvetica"
                 x="0 4.17"
                 y="143.202"
                 sodipodi:role="line"
                 id="tspan34">30</tspan><tspan
                 style="fill:#231f20;fill-opacity:1;fill-rule:nonzero;stroke:none;font-family:Helvetica;font-variant:normal;font-weight:normal;font-size:7.5;writing-mode:lr;-inkscape-font-specification:Helvetica"
                 x="0 4.17"
                 y="179.202"
                 sodipodi:role="line"
                 id="tspan36">20</tspan></text>
<text
               transform="matrix(0,1,1,0,7.12461,63.391)"
               id="text38"><tspan
                 style="fill:#231f20;fill-opacity:1;fill-rule:nonzero;stroke:none;font-family:Helvetica;font-variant:normal;font-weight:normal;font-size:7.5;writing-mode:lr;-inkscape-font-specification:Helvetica"
                 x="0 5.835 9.585 13.335 17.505 21.675 25.845 27.93 32.1 36.27 38.355 42.52385987 46.13206337 50.30206337 52.38706337 54.88456337 61.13212196 64.29715946 68.42196446 74.66946446 76.33446446"
                 y="0"
                 sodipodi:role="line"
                 id="tspan40">Oxygen uptake (ml•min</tspan></text>
<text
               transform="matrix(0,1,1,0,4.72461,143.889)"
               id="text42"><tspan
                 style="fill:#231f20;fill-opacity:1;fill-rule:nonzero;stroke:none;font-family:Helvetica;font-variant:normal;font-weight:normal;font-size:5.5;writing-mode:lr;-inkscape-font-specification:Helvetica"
                 x="0"
                 y="0"
                 id="tspan44">–</tspan></text>
</g></g></g><g
         id="g46"><g
           id="g48"
           clip-path="url(#clipPath50)"><g
             id="g54"
             transform="scale(10,10)"><text
               transform="matrix(0,1,1,0,4.72461,146.947)"
               id="text56"><tspan
                 style="fill:#231f20;fill-opacity:1;fill-rule:nonzero;stroke:none;font-family:Helvetica;font-variant:normal;font-weight:normal;font-size:5.5;writing-mode:lr;-inkscape-font-specification:Helvetica"
                 x="0"
                 y="0"
                 id="tspan58">1</tspan></text>
</g></g></g><g
         id="g60"><g
           id="g62"
           clip-path="url(#clipPath64)"><g
             id="g68"
             transform="scale(10,10)"><text
               transform="matrix(0,1,1,0,7.12461,150.005)"
               id="text70"><tspan
                 style="fill:#231f20;fill-opacity:1;fill-rule:nonzero;stroke:none;font-family:Helvetica;font-variant:normal;font-weight:normal;font-size:7.5;writing-mode:lr;-inkscape-font-specification:Helvetica"
                 x="0 4.125 7.875"
                 y="0"
                 sodipodi:role="line"
                 id="tspan72">•kg</tspan></text>
<text
               transform="matrix(0,1,1,0,4.72422,162.05)"
               id="text74"><tspan
                 style="fill:#231f20;fill-opacity:1;fill-rule:nonzero;stroke:none;font-family:Helvetica;font-variant:normal;font-weight:normal;font-size:5.5;writing-mode:lr;-inkscape-font-specification:Helvetica"
                 x="0"
                 y="0"
                 id="tspan76">–</tspan></text>
</g></g></g><g
         id="g78"><g
           id="g80"
           clip-path="url(#clipPath82)"><g
             id="g86"
             transform="scale(10,10)"><text
               transform="matrix(0,1,1,0,4.72461,165.108)"
               id="text88"><tspan
                 style="fill:#231f20;fill-opacity:1;fill-rule:nonzero;stroke:none;font-family:Helvetica;font-variant:normal;font-weight:normal;font-size:5.5;writing-mode:lr;-inkscape-font-specification:Helvetica"
                 x="0"
                 y="0"
                 id="tspan90">1</tspan></text>
</g></g></g><g
         id="g92"><g
           id="g94"
           clip-path="url(#clipPath96)"><g
             id="g100"
             transform="scale(10,10)"><text
               transform="matrix(0,1,1,0,7.12461,168.166)"
               id="text102"><tspan
                 style="fill:#231f20;fill-opacity:1;fill-rule:nonzero;stroke:none;font-family:Helvetica;font-variant:normal;font-weight:normal;font-size:7.5;writing-mode:lr;-inkscape-font-specification:Helvetica"
                 x="0"
                 y="0"
                 id="tspan104">)</tspan></text>
<text
               transform="matrix(1,0,0,-1,291.339,14.5289)"
               id="text106"><tspan
                 style="fill:#231f20;fill-opacity:1;fill-rule:nonzero;stroke:none;font-family:Helvetica;font-variant:normal;font-weight:normal;font-size:7.5;writing-mode:lr;-inkscape-font-specification:Helvetica"
                 x="0 -88 -176.4 -264.4"
                 y="0"
                 sodipodi:role="line"
                 id="tspan108">5432</tspan><tspan
                 style="fill:#231f20;fill-opacity:1;fill-rule:nonzero;stroke:none;font-family:Helvetica;font-variant:normal;font-weight:normal;font-size:7.5;writing-mode:lr;-inkscape-font-specification:Helvetica"
                 x="-180.2926 -174.0451 -169.8751 -166.1251 -161.9551 -157.7851 -153.6151 -151.9501 -148.2001 -144.0301 -142.3651 -140.2801 -136.11026357 -132.05205557 -126.70518302 -122.53518302 -120.03713371 -117.95213371 -115.4550634 -110.14490965 -105.97490965 -103.88990965 -101.80490965 -98.05490965 -95.9689697 -93.34494626 -91.25994626 -87.50994626"
                 y="12.4"
                 sodipodi:role="line"
                 id="tspan110">Mechanical power (watts • kg</tspan></text>
<text
               transform="matrix(1,0,0,-1,207.985,4.52891)"
               id="text112"><tspan
                 style="fill:#231f20;fill-opacity:1;fill-rule:nonzero;stroke:none;font-family:Helvetica;font-variant:normal;font-weight:normal;font-size:5.5;writing-mode:lr;-inkscape-font-specification:Helvetica"
                 x="0 3.058"
                 y="0"
                 sodipodi:role="line"
                 id="tspan114">–1</tspan></text>
<text
               transform="matrix(1,0,0,-1,214.1,2.12891)"
               id="text116"><tspan
                 style="fill:#231f20;fill-opacity:1;fill-rule:nonzero;stroke:none;font-family:Helvetica;font-variant:normal;font-weight:normal;font-size:7.5;writing-mode:lr;-inkscape-font-specification:Helvetica"
                 x="0"
                 y="0"
                 id="tspan118">)</tspan></text>
</g><path
             d="m 281.238,2025.26 2652.002,0 0,-1795.99 -2652.002,0 0,1795.99 z m 43.008,-368.99 -42,0 m 42,-357 -42,0 m 42,-360 -42,0 m 42,-354 -42,0 m 2653.984,1071 -42,0 m 42,-357 -42,0 m 42,-360 -42,0 m 42,-354 -42,0 M 465.246,261.281 l 0,-33.011 m 175.492,33.011 0,-33.011 m 180,33.011 0,-33.011 m 168.008,33.011 0,-33.011 m 178.494,48.011 0,-48.011 m 182.01,33.011 0,-33.011 m 175.49,33.011 0,-33.011 m 180,33.011 0,-33.011 m 168,33.011 0,-33.011 m 178.49,48.011 0,-48.011 m 182.01,33.011 0,-33.011 m 175.49,33.011 0,-33.011 m 180,33.011 0,-33.011 m 168,33.011 0,-33.011 m 0,1762.99 0,33.01 m -175.5,-33.01 0,33.01 m -180,-33.01 0,33.01 m -173.99,-33.01 0,33.01 m -178.51,-48.01 0,48.01 m -175.99,-33.01 0,33.01 m -175.5,-33.01 0,33.01 m -177,-33.01 0,33.01 m -170.99,-33.01 0,33.01 m -181.51,-48.01 0,48.01 m -178.994,-33.01 0,33.01 m -175.508,-33.01 0,33.01 m -180,-33.01 0,33.01 m -173.992,-33.01 0,33.01 M 877.738,787.77 c 0,-9.938 -8.05,-18 -17.992,-18 -9.949,0 -18,8.062 -18,18 0,9.941 8.051,18 18,18 9.942,0 17.992,-8.059 17.992,-18 z m 468.002,384 c 0,-9.94 -8.06,-18 -18,-18 -9.94,0 -18,8.06 -18,18 0,9.94 8.06,18 18,18 9.94,0 18,-8.06 18,-18 z m 234,202.5 c 0,-9.94 -8.05,-18 -18,-18 -9.94,0 -17.99,8.06 -17.99,18 0,9.94 8.05,18 17.99,18 9.95,0 18,-8.06 18,-18 z m 232.5,35.99 c 0,-9.94 -8.06,-17.99 -18,-17.99 -9.94,0 -17.99,8.05 -17.99,17.99 0,9.95 8.05,18 17.99,18 9.94,0 18,-8.05 18,-18 z m 228,195 c 0,-9.94 -8.06,-17.99 -18,-17.99 -9.94,0 -18,8.05 -18,17.99 0,9.94 8.06,18 18,18 9.94,0 18,-8.06 18,-18 z m 236,-97.99 c 0,-9.95 -8.04,-18 -18,-18 -9.95,0 -17.99,8.05 -17.99,18 0,9.94 8.04,17.99 17.99,17.99 9.96,0 18,-8.05 18,-17.99 z m -1034,-379.01 c 0,-9.94 -8.05,-17.99 -17.99,-17.99 -9.95,0 -18,8.05 -18,17.99 0,9.95 8.05,18.01 18,18.01 9.94,0 17.99,-8.06 17.99,-18.01 z M 738.238,889.77 c 0,-9.938 -8.05,-18 -17.992,-18 -9.949,0 -18,8.062 -18,18 0,9.941 8.051,18 18,18 9.942,0 17.992,-8.059 17.992,-18 z m 13.508,-115.5 c 0,-9.938 -8.058,-18 -18,-18 -9.949,0 -18.008,8.062 -18.008,18 0,9.941 8.059,18 18.008,18 9.942,0 18,-8.059 18,-18 z m -345,-153 c 0,-9.95 -8.058,-18 -18,-18 -9.949,0 -18.008,8.05 -18.008,18 0,9.949 8.059,18 18.008,18 9.942,0 18,-8.051 18,-18 z m 163.5,184.5 c 0,-9.95 -8.058,-18 -18,-18 -9.937,0 -18,8.05 -18,18 0,9.949 8.063,18 18,18 9.942,0 18,-8.051 18,-18 z"
             style="fill:none;stroke:#231f20;stroke-opacity:1;stroke-width:5;stroke-linecap:butt;stroke-linejoin:miter;stroke-miterlimit:4;stroke-dasharray:none"
             id="path120" /><path
             d="m 684.246,811.77 c 0,-9.938 -8.058,-18 -18,-18 -9.949,0 -18.008,8.062 -18.008,18 0,9.941 8.059,18 18.008,18 9.942,0 18,-8.059 18,-18"
             style="fill:#231f20;fill-opacity:1;fill-rule:nonzero;stroke:none"
             id="path122" /><path
             d="m 684.246,811.77 c 0,-9.938 -8.058,-18 -18,-18 -9.949,0 -18.008,8.062 -18.008,18 0,9.941 8.059,18 18.008,18 9.942,0 18,-8.059 18,-18 z"
             style="fill:none;stroke:#231f20;stroke-opacity:1;stroke-width:5;stroke-linecap:butt;stroke-linejoin:miter;stroke-miterlimit:4;stroke-dasharray:none"
             id="path124" /><path
             d="m 1032.25,1164.27 c 0,-9.94 -8.06,-18 -18,-18 -9.94,0 -18.004,8.06 -18.004,18 0,9.94 8.064,18 18.004,18 9.94,0 18,-8.06 18,-18"
             style="fill:#231f20;fill-opacity:1;fill-rule:nonzero;stroke:none"
             id="path126" /><path
             d="m 1032.25,1164.27 c 0,-9.94 -8.06,-18 -18,-18 -9.94,0 -18.004,8.06 -18.004,18 0,9.94 8.064,18 18.004,18 9.94,0 18,-8.06 18,-18 z"
             style="fill:none;stroke:#231f20;stroke-opacity:1;stroke-width:5;stroke-linecap:butt;stroke-linejoin:miter;stroke-miterlimit:4;stroke-dasharray:none"
             id="path128" /><path
             d="m 1393.75,1158.26 c 0,-9.94 -8.06,-17.99 -18.01,-17.99 -9.94,0 -18,8.05 -18,17.99 0,9.95 8.06,18.01 18,18.01 9.95,0 18.01,-8.06 18.01,-18.01"
             style="fill:#231f20;fill-opacity:1;fill-rule:nonzero;stroke:none"
             id="path130" /><path
             d="m 1393.75,1158.26 c 0,-9.94 -8.06,-17.99 -18.01,-17.99 -9.94,0 -18,8.05 -18,17.99 0,9.95 8.06,18.01 18,18.01 9.95,0 18.01,-8.06 18.01,-18.01 z"
             style="fill:none;stroke:#231f20;stroke-opacity:1;stroke-width:5;stroke-linecap:butt;stroke-linejoin:miter;stroke-miterlimit:4;stroke-dasharray:none"
             id="path132" /><path
             d="m 1747.74,1494.27 c 0,-9.94 -8.06,-18 -18,-18 -9.94,0 -18,8.06 -18,18 0,9.94 8.06,18 18,18 9.94,0 18,-8.06 18,-18"
             style="fill:#231f20;fill-opacity:1;fill-rule:nonzero;stroke:none"
             id="path134" /><path
             d="m 1747.74,1494.27 c 0,-9.94 -8.06,-18 -18,-18 -9.94,0 -18,8.06 -18,18 0,9.94 8.06,18 18,18 9.94,0 18,-8.06 18,-18 z"
             style="fill:none;stroke:#231f20;stroke-opacity:1;stroke-width:5;stroke-linecap:butt;stroke-linejoin:miter;stroke-miterlimit:4;stroke-dasharray:none"
             id="path136" /><path
             d="m 2099.75,1740.26 c 0,-9.94 -8.07,-18 -18.01,-18 -9.94,0 -18,8.06 -18,18 0,9.94 8.06,18 18,18 9.94,0 18.01,-8.06 18.01,-18"
             style="fill:#231f20;fill-opacity:1;fill-rule:nonzero;stroke:none"
             id="path138" /><path
             d="m 2099.75,1740.26 c 0,-9.94 -8.07,-18 -18.01,-18 -9.94,0 -18,8.06 -18,18 0,9.94 8.06,18 18,18 9.94,0 18.01,-8.06 18.01,-18 z"
             style="fill:none;stroke:#231f20;stroke-opacity:1;stroke-width:5;stroke-linecap:butt;stroke-linejoin:miter;stroke-miterlimit:4;stroke-dasharray:none"
             id="path140" /><path
             d="m 2275.73,1790.26 c 0,-9.94 -8.05,-18 -17.99,-18 -9.93,0 -18,8.06 -18,18 0,9.94 8.07,18 18,18 9.94,0 17.99,-8.06 17.99,-18"
             style="fill:#231f20;fill-opacity:1;fill-rule:nonzero;stroke:none"
             id="path142" /><path
             d="m 2275.73,1790.26 c 0,-9.94 -8.05,-18 -17.99,-18 -9.93,0 -18,8.06 -18,18 0,9.94 8.07,18 18,18 9.94,0 17.99,-8.06 17.99,-18 z"
             style="fill:none;stroke:#231f20;stroke-opacity:1;stroke-width:5;stroke-linecap:butt;stroke-linejoin:miter;stroke-miterlimit:4;stroke-dasharray:none"
             id="path144" /><path
             d="m 2455.73,1882.26 c 0,-9.95 -8.05,-18 -17.99,-18 -9.94,0 -18,8.05 -18,18 0,9.94 8.06,18 18,18 9.94,0 17.99,-8.06 17.99,-18"
             style="fill:#231f20;fill-opacity:1;fill-rule:nonzero;stroke:none"
             id="path146" /><path
             d="m 2455.73,1882.26 c 0,-9.95 -8.05,-18 -17.99,-18 -9.94,0 -18,8.05 -18,18 0,9.94 8.06,18 18,18 9.94,0 17.99,-8.06 17.99,-18 z"
             style="fill:none;stroke:#231f20;stroke-opacity:1;stroke-width:5;stroke-linecap:butt;stroke-linejoin:miter;stroke-miterlimit:4;stroke-dasharray:none"
             id="path148" /><path
             d="m 319.746,541.77 c 0,-9.938 -8.058,-18 -18,-18 -9.937,0 -18,8.062 -18,18 0,9.941 8.063,18 18,18 9.942,0 18,-8.059 18,-18"
             style="fill:#231f20;fill-opacity:1;fill-rule:nonzero;stroke:none"
             id="path150" /><path
             d="m 319.746,541.77 c 0,-9.938 -8.058,-18 -18,-18 -9.937,0 -18,8.062 -18,18 0,9.941 8.063,18 18,18 9.942,0 18,-8.059 18,-18 z"
             style="fill:none;stroke:#231f20;stroke-opacity:1;stroke-width:5;stroke-linecap:butt;stroke-linejoin:miter;stroke-miterlimit:4;stroke-dasharray:none"
             id="path152" /><path
             d="m 706.746,879.27 23.992,21"
             style="fill:none;stroke:#231f20;stroke-opacity:1;stroke-width:5;stroke-linecap:butt;stroke-linejoin:miter;stroke-miterlimit:4;stroke-dasharray:none"
             id="path154" /><path
             d="m 1053.24,1104.27 c 0,-9.94 -8.06,-18 -18,-18 -9.94,0 -17.99,8.06 -17.99,18 0,9.94 8.05,18 17.99,18 9.94,0 18,-8.06 18,-18 z"
             style="fill:none;stroke:#231f20;stroke-opacity:1;stroke-width:5;stroke-linecap:butt;stroke-linejoin:miter;stroke-miterlimit:4;stroke-dasharray:none"
             id="path156" /><path
             d="m 1021.75,1093.77 23.99,21"
             style="fill:none;stroke:#231f20;stroke-opacity:1;stroke-width:5;stroke-linecap:butt;stroke-linejoin:miter;stroke-miterlimit:4;stroke-dasharray:none"
             id="path158" /><path
             d="m 1372.74,1113.26 c 0,-9.94 -8.06,-17.99 -18,-17.99 -9.94,0 -17.99,8.05 -17.99,17.99 0,9.95 8.05,18.01 17.99,18.01 9.94,0 18,-8.06 18,-18.01 z"
             style="fill:none;stroke:#231f20;stroke-opacity:1;stroke-width:5;stroke-linecap:butt;stroke-linejoin:miter;stroke-miterlimit:4;stroke-dasharray:none"
             id="path160" /><path
             d="m 1341.25,1102.77 23.99,21"
             style="fill:none;stroke:#231f20;stroke-opacity:1;stroke-width:5;stroke-linecap:butt;stroke-linejoin:miter;stroke-miterlimit:4;stroke-dasharray:none"
             id="path162" /><path
             d="m 1525.74,1216.77 c 0,-9.94 -8.06,-18 -18,-18 -9.94,0 -18,8.06 -18,18 0,9.94 8.06,18 18,18 9.94,0 18,-8.06 18,-18 z"
             style="fill:none;stroke:#231f20;stroke-opacity:1;stroke-width:5;stroke-linecap:butt;stroke-linejoin:miter;stroke-miterlimit:4;stroke-dasharray:none"
             id="path164" /><path
             d="m 1494.25,1206.27 23.99,21"
             style="fill:none;stroke:#231f20;stroke-opacity:1;stroke-width:5;stroke-linecap:butt;stroke-linejoin:miter;stroke-miterlimit:4;stroke-dasharray:none"
             id="path166" /><path
             d="m 424.746,654.27 c 0,-9.938 -8.058,-18 -18,-18 -9.937,0 -18,8.062 -18,18 0,9.941 8.063,18 18,18 9.942,0 18,-8.059 18,-18 z"
             style="fill:none;stroke:#231f20;stroke-opacity:1;stroke-width:5;stroke-linecap:butt;stroke-linejoin:miter;stroke-miterlimit:4;stroke-dasharray:none"
             id="path168" /><path
             d="m 393.238,643.77 24.008,21"
             style="fill:none;stroke:#231f20;stroke-opacity:1;stroke-width:5;stroke-linecap:butt;stroke-linejoin:miter;stroke-miterlimit:4;stroke-dasharray:none"
             id="path170" /><path
             d="m 544.746,819.27 7.5,-31.5"
             style="fill:none;stroke:#231f20;stroke-opacity:1;stroke-width:5;stroke-linecap:butt;stroke-linejoin:miter;stroke-miterlimit:4;stroke-dasharray:none"
             id="path172" /><path
             d="m 1077.25,991.77 c 0,-9.938 -8.06,-18 -18,-18 -9.94,0 -18,8.062 -18,18 0,9.94 8.06,18 18,18 9.94,0 18,-8.06 18,-18 z"
             style="fill:none;stroke:#231f20;stroke-opacity:1;stroke-width:5;stroke-linecap:butt;stroke-linejoin:miter;stroke-miterlimit:4;stroke-dasharray:none"
             id="path174" /><path
             d="m 1051.75,1005.27 7.5,-31.5"
             style="fill:none;stroke:#231f20;stroke-opacity:1;stroke-width:5;stroke-linecap:butt;stroke-linejoin:miter;stroke-miterlimit:4;stroke-dasharray:none"
             id="path176" /><path
             d="m 1589.42,1167.9 c -2.97,-9.49 -13.07,-14.77 -22.56,-11.82 -9.49,2.97 -14.76,13.08 -11.8,22.57 2.96,9.5 13.07,14.77 22.55,11.8 9.5,-2.96 14.78,-13.06 11.81,-22.55 z"
             style="fill:none;stroke:#231f20;stroke-opacity:1;stroke-width:5;stroke-linecap:butt;stroke-linejoin:miter;stroke-miterlimit:4;stroke-dasharray:none"
             id="path178" /><path
             d="m 1566.86,1156.08 2.26,32.32 c 0,0 -13.24,-2.85 -14.06,-9.75 -0.82,-6.88 7.92,-18.77 11.8,-22.57"
             style="fill:#231f20;fill-opacity:1;fill-rule:nonzero;stroke:none"
             id="path180" /><path
             d="m 1566.86,1156.08 2.26,32.32 c 0,0 -13.24,-2.85 -14.06,-9.75 -0.82,-6.88 7.92,-18.77 11.8,-22.57 z"
             style="fill:none;stroke:#231f20;stroke-opacity:1;stroke-width:5;stroke-linecap:round;stroke-linejoin:round;stroke-miterlimit:4;stroke-dasharray:none"
             id="path182" /><path
             d="m 2093.42,1451.9 c -2.98,-9.49 -13.08,-14.77 -22.56,-11.82 -9.49,2.98 -14.77,13.08 -11.8,22.58 2.97,9.49 13.06,14.76 22.56,11.79 9.48,-2.96 14.76,-13.05 11.8,-22.55 z"
             style="fill:none;stroke:#231f20;stroke-opacity:1;stroke-width:5;stroke-linecap:butt;stroke-linejoin:miter;stroke-miterlimit:4;stroke-dasharray:none"
             id="path184" /><path
             d="m 2070.86,1440.08 2.25,32.32 c 0,0 -13.23,-2.85 -14.05,-9.74 -0.82,-6.89 7.93,-18.77 11.8,-22.58"
             style="fill:#231f20;fill-opacity:1;fill-rule:nonzero;stroke:none"
             id="path186" /><path
             d="m 2070.86,1440.08 2.25,32.32 c 0,0 -13.23,-2.85 -14.05,-9.74 -0.82,-6.89 7.93,-18.77 11.8,-22.58 z"
             style="fill:none;stroke:#231f20;stroke-opacity:1;stroke-width:5;stroke-linecap:round;stroke-linejoin:round;stroke-miterlimit:4;stroke-dasharray:none"
             id="path188" /><path
             d="m 747.246,769.77 c 0,-4.969 -4.039,-9 -9.008,-9 -4.961,0 -8.992,4.031 -8.992,9 0,4.968 4.031,9 8.992,9 4.969,0 9.008,-4.032 9.008,-9"
             style="fill:#231f20;fill-opacity:1;fill-rule:nonzero;stroke:none"
             id="path190" /><path
             d="m 747.246,769.77 c 0,-4.969 -4.039,-9 -9.008,-9 -4.961,0 -8.992,4.031 -8.992,9 0,4.968 4.031,9 8.992,9 4.969,0 9.008,-4.032 9.008,-9 z"
             style="fill:none;stroke:#231f20;stroke-opacity:1;stroke-width:2.5;stroke-linecap:butt;stroke-linejoin:miter;stroke-miterlimit:4;stroke-dasharray:none"
             id="path192" /><path
             d="m 1237.74,1128.26 c 0,-4.96 -4.03,-8.99 -8.99,-8.99 -4.97,0 -9.01,4.03 -9.01,8.99 0,4.97 4.04,9.01 9.01,9.01 4.96,0 8.99,-4.04 8.99,-9.01"
             style="fill:#231f20;fill-opacity:1;fill-rule:nonzero;stroke:none"
             id="path194" /><path
             d="m 1237.74,1128.26 c 0,-4.96 -4.03,-8.99 -8.99,-8.99 -4.97,0 -9.01,4.03 -9.01,8.99 0,4.97 4.04,9.01 9.01,9.01 4.96,0 8.99,-4.04 8.99,-9.01 z"
             style="fill:none;stroke:#231f20;stroke-opacity:1;stroke-width:2.5;stroke-linecap:butt;stroke-linejoin:miter;stroke-miterlimit:4;stroke-dasharray:none"
             id="path196" /><path
             d="m 1729.92,1592.03 c 3.74,-9.21 -0.7,-19.72 -9.91,-23.45 -9.2,-3.75 -19.72,0.7 -23.45,9.92 -3.74,9.2 0.7,19.69 9.91,23.43 9.21,3.74 19.71,-0.68 23.45,-9.9 z"
             style="fill:none;stroke:#231f20;stroke-opacity:1;stroke-width:5;stroke-linecap:butt;stroke-linejoin:miter;stroke-miterlimit:4;stroke-dasharray:none"
             id="path198" /><path
             d="m 1725.76,1590.33 c 1.86,-4.6 -0.36,-9.85 -4.97,-11.72 -4.6,-1.86 -9.86,0.35 -11.72,4.96 -1.88,4.59 0.35,9.86 4.95,11.72 4.61,1.88 9.86,-0.36 11.74,-4.96"
             style="fill:#231f20;fill-opacity:1;fill-rule:nonzero;stroke:none"
             id="path200" /><path
             d="m 1725.76,1590.33 c 1.86,-4.6 -0.36,-9.85 -4.97,-11.72 -4.6,-1.86 -9.86,0.35 -11.72,4.96 -1.88,4.59 0.35,9.86 4.95,11.72 4.61,1.88 9.86,-0.36 11.74,-4.96 z"
             style="fill:none;stroke:#231f20;stroke-opacity:1;stroke-width:2.5;stroke-linecap:butt;stroke-linejoin:miter;stroke-miterlimit:4;stroke-dasharray:none"
             id="path202" /><path
             d="m 1973.92,1666.02 c 3.74,-9.2 -0.69,-19.7 -9.9,-23.44 -9.21,-3.74 -19.73,0.69 -23.47,9.91 -3.73,9.21 0.7,19.7 9.92,23.45 9.21,3.74 19.71,-0.7 23.45,-9.92 z"
             style="fill:none;stroke:#231f20;stroke-opacity:1;stroke-width:5;stroke-linecap:butt;stroke-linejoin:miter;stroke-miterlimit:4;stroke-dasharray:none"
             id="path204" /><path
             d="m 1966.76,1661.34 c 1.86,-4.61 -0.37,-9.87 -4.97,-11.72 -4.61,-1.88 -9.85,0.34 -11.72,4.95 -1.87,4.6 0.35,9.85 4.94,11.72 4.62,1.87 9.88,-0.35 11.75,-4.95"
             style="fill:#231f20;fill-opacity:1;fill-rule:nonzero;stroke:none"
             id="path206" /><path
             d="m 1966.76,1661.34 c 1.86,-4.61 -0.37,-9.87 -4.97,-11.72 -4.61,-1.88 -9.85,0.34 -11.72,4.95 -1.87,4.6 0.35,9.85 4.94,11.72 4.62,1.87 9.88,-0.35 11.75,-4.95 z"
             style="fill:none;stroke:#231f20;stroke-opacity:1;stroke-width:2.5;stroke-linecap:butt;stroke-linejoin:miter;stroke-miterlimit:4;stroke-dasharray:none"
             id="path208" /></g></g></g><rect
       style="fill:#000000;fill-opacity:1;fill-rule:evenodd;stroke:#000000;stroke-width:0.80000001px;stroke-linecap:butt;stroke-linejoin:miter;stroke-opacity:1"
       id="rect3185"
       width="3.2809322"
       height="3.2809322"
       x="78.742386"
       y="-79.836014"
       transform="scale(1,-1)" /><rect
       transform="scale(1,-1)"
       y="-112.86406"
       x="133.86205"
       height="3.2809322"
       width="3.2809322"
       id="rect3955"
       style="fill:#000000;fill-opacity:1;fill-rule:evenodd;stroke:#000000;stroke-width:0.80000001px;stroke-linecap:butt;stroke-linejoin:miter;stroke-opacity:1" /><rect
       style="fill:#000000;fill-opacity:1;fill-rule:evenodd;stroke:#000000;stroke-width:0.80000001px;stroke-linecap:butt;stroke-linejoin:miter;stroke-opacity:1"
       id="rect3957"
       width="3.2809322"
       height="3.2809322"
       x="173.67068"
       y="-139.98645"
       transform="scale(1,-1)" /><rect
       transform="scale(1,-1)"
       y="-155.73492"
       x="220.25993"
       height="3.2809322"
       width="3.2809322"
       id="rect3959"
       style="fill:#000000;fill-opacity:1;fill-rule:evenodd;stroke:#000000;stroke-width:0.80000001px;stroke-linecap:butt;stroke-linejoin:miter;stroke-opacity:1" /><rect
       transform="scale(1,-1)"
       y="-83.458076"
       x="78.523659"
       height="3.8408"
       width="3.8408"
       id="rect3977"
       style="fill:#ffffff;fill-opacity:1;fill-rule:evenodd;stroke:#000000;stroke-width:0.56;stroke-linecap:butt;stroke-linejoin:miter;stroke-miterlimit:4;stroke-opacity:1;stroke-dasharray:none" /><rect
       style="fill:#ffffff;fill-opacity:1;fill-rule:evenodd;stroke:#000000;stroke-width:0.56;stroke-linecap:butt;stroke-linejoin:miter;stroke-miterlimit:4;stroke-opacity:1;stroke-dasharray:none"
       id="rect3979"
       width="3.8408"
       height="3.8408"
       x="133.64333"
       y="-123.92291"
       transform="scale(1,-1)" /><rect
       transform="scale(1,-1)"
       y="-177.07402"
       x="260.72476"
       height="3.8408"
       width="3.8408"
       id="rect3981"
       style="fill:#ffffff;fill-opacity:1;fill-rule:evenodd;stroke:#000000;stroke-width:0.56;stroke-linecap:butt;stroke-linejoin:miter;stroke-miterlimit:4;stroke-opacity:1;stroke-dasharray:none" /><rect
       transform="scale(1,-1)"
       y="-160.01318"
       x="220.0412"
       height="3.8408"
       width="3.8408"
       id="rect3985"
       style="fill:#ffffff;fill-opacity:1;fill-rule:evenodd;stroke:#000000;stroke-width:0.56;stroke-linecap:butt;stroke-linejoin:miter;stroke-miterlimit:4;stroke-opacity:1;stroke-dasharray:none" /><rect
       style="fill:#ffffff;fill-opacity:1;fill-rule:evenodd;stroke:#000000;stroke-width:0.56;stroke-linecap:butt;stroke-linejoin:miter;stroke-miterlimit:4;stroke-opacity:1;stroke-dasharray:none"
       id="rect3987"
       width="3.8408"
       height="3.8408"
       x="173.45193"
       y="-144.48341"
       transform="scale(1,-1)" /><rect
       transform="scale(1,-1)"
       y="-180.67001"
       x="260.94348"
       height="3.2809322"
       width="3.2809322"
       id="rect3989"
       style="fill:#000000;fill-opacity:1;fill-rule:evenodd;stroke:#000000;stroke-width:0.80000001px;stroke-linecap:butt;stroke-linejoin:miter;stroke-opacity:1" /></g></svg>