<?xml version="1.0" encoding="UTF-8" standalone="no"?>
<!-- Created with Inkscape (http://www.inkscape.org/) -->

<svg
   xmlns:dc="http://purl.org/dc/elements/1.1/"
   xmlns:cc="http://creativecommons.org/ns#"
   xmlns:rdf="http://www.w3.org/1999/02/22-rdf-syntax-ns#"
   xmlns:svg="http://www.w3.org/2000/svg"
   xmlns="http://www.w3.org/2000/svg"
   xmlns:sodipodi="http://sodipodi.sourceforge.net/DTD/sodipodi-0.dtd"
   xmlns:inkscape="http://www.inkscape.org/namespaces/inkscape"
   id="svg2"
   version="1.1"
   inkscape:version="0.48.4 r9939"
   width="166.36755"
   height="168.63686"
   xml:space="preserve"
   sodipodi:docname="Wilson_008_fig_006.svg"
   inkscape:export-filename="/home/theo/HPV/BicyclingScience/BicyclingScienceArtFiles/chapter 8/fig8.7.png"
   inkscape:export-xdpi="100"
   inkscape:export-ydpi="100"><metadata
     id="metadata8"><rdf:RDF><cc:Work
         rdf:about=""><dc:format>image/svg+xml</dc:format><dc:type
           rdf:resource="http://purl.org/dc/dcmitype/StillImage" /><dc:title /></cc:Work></rdf:RDF></metadata><defs
     id="defs6"><clipPath
       clipPathUnits="userSpaceOnUse"
       id="clipPath18"><path
         d="M 0,1426.64 0,0 l 3082.54,0 0,1426.64 -3082.54,0 z"
         id="path20"
         inkscape:connector-curvature="0" /></clipPath></defs><sodipodi:namedview
     pagecolor="#ffffff"
     bordercolor="#666666"
     borderopacity="1"
     objecttolerance="10"
     gridtolerance="10"
     guidetolerance="10"
     inkscape:pageopacity="0"
     inkscape:pageshadow="2"
     inkscape:window-width="1600"
     inkscape:window-height="1127"
     id="namedview4"
     showgrid="false"
     inkscape:zoom="6.0780214"
     inkscape:cx="79.133544"
     inkscape:cy="85.426995"
     inkscape:window-x="-3"
     inkscape:window-y="-3"
     inkscape:window-maximized="1"
     inkscape:current-layer="g10"
     fit-margin-left="0.5"
     units="cm"
     fit-margin-right="0.5"
     fit-margin-top="0.5"
     fit-margin-bottom="0.5" /><g
     id="g10"
     inkscape:groupmode="layer"
     inkscape:label="ink_ext_XXXXXX"
     transform="matrix(1.25,0,0,-1.25,0.34535918,188.45795)"><path
       style="opacity:0.55;fill:#ffffff;fill-opacity:0.50853242;fill-rule:nonzero;stroke:none"
       d="m 71.666529,50.675003 c -0.21845,0.202636 -0.283518,0.325204 -0.322049,0.60665 -0.08293,0.605751 -0.462216,1.301605 -1.052271,1.930559 l -0.546625,0.58266 1.409569,0.952271 c 1.049446,0.708978 1.437597,0.934487 1.519267,0.882667 1.904604,-0.468896 1.076166,-1.931629 2.419531,-2.446955 0.356533,-0.107582 0.637221,-0.225254 0.623752,-0.261491 -0.03182,-0.08568 -3.262154,-2.265793 -3.554214,-2.398735 -0.17732,-0.08071 -0.27944,-0.04941 -0.496948,0.152354 z"
       id="path4328"
       inkscape:connector-curvature="0"
       sodipodi:nodetypes="csscscccccc" /><path
       inkscape:connector-curvature="0"
       id="path22"
       style="fill:#bdbcbc;fill-opacity:1;fill-rule:nonzero;stroke:none"
       d="m 70.896317,115.6549 c 0.209629,0.16463 -0.07272,-5.31469 -0.07272,-5.31469 0,0 0.212058,-2.09322 0.340375,-2.3073 0.127492,-0.21226 1.051823,-1.86371 1.051823,-1.86371 l 2.985432,-5.64215 c 0,0 -3.697263,3.29758 -4.711807,5.91769 -1.015546,2.61966 -1.515986,7.69431 0.4069,9.21016" /><path
       inkscape:connector-curvature="0"
       id="path24"
       style="fill:#7b7979;fill-opacity:1;fill-rule:nonzero;stroke:none"
       d="m 40.928088,113.22507 c 0,0 0.986122,1.34323 2.045704,1.79587 1.063173,0.45537 2.059673,0.31015 2.059673,0.31015 l 0.71773,-0.54899 0.337057,-7.51786 0.244215,-0.0286 -0.764578,-2.38347 c -1.225448,-3.06453 -1.734039,-7.023589 -0.896317,-9.530781 -0.934519,-2.557335 -0.307355,-4.563101 -0.06873,-5.027022 0.211563,-0.189368 8.574514,-1.597768 8.574514,-1.597768 1.992072,-0.63332 4.210902,1.523341 4.73433,2.587495 -0.546851,0.09827 -3.16329,0.334096 -3.169107,1.324695 -0.0084,0.990517 0.05858,2.374641 1.131411,3.244232 1.07346,0.872093 3.153731,1.491593 4.175712,1.686493 1.020561,0.1954 2.207233,0.26527 2.207233,0.26527 0,0 1.412913,-1.14667 1.752115,-1.551522 0.339468,-0.402529 0.293991,-0.01781 -0.162382,-0.885875 -0.455962,-0.86898 -0.863227,-0.573123 -0.863227,-0.573123 l 1.472756,-2.569518 1.524019,-1.43738 c 0,0 5.498207,1.283029 6.837825,2.143422 1.340072,0.860605 3.007647,2.801686 3.007647,2.801686 l 0.857867,1.55788 -0.533598,1.9227 -1.95213,2.447136 c 0,0 -2.715612,3.2335 -3.355366,4.30032 -0.638621,1.06842 -1.313649,3.28493 -1.364381,4.50889 -0.05171,1.229 0.350373,3.81935 0.350373,3.81935 l 0.648242,1.24985 0.569976,0.7363 c 0,0 0.719154,1.35357 1.248082,1.82835 0.528661,0.47248 1.477455,1.06037 1.9949,1.12011 0.519176,0.0598 1.530332,-0.16371 1.530332,-0.16371 0,0 0.02571,1.33314 -0.174383,1.93975 -0.199454,0.60689 -2.183894,3.35605 -2.942824,3.64676 -0.759293,0.29054 -2.618532,2.03947 -2.618532,2.03947 0,0 -1.784633,0.58963 -3.371634,1.06925 -1.587364,0.47945 -6.880347,1.17318 -6.880347,1.17318 l -3.766594,-0.34245 c -2.135564,0.113 -4.108169,-0.32705 -5.763917,-1.29579 -1.337681,-0.83433 -3.018943,-1.2251 -4.453277,-1.86706 -1.13542,-0.83514 -2.708782,-1.80813 -2.432386,-3.74547 l -1.3877,-3.93444 -1.1003,-4.51777"
       sodipodi:nodetypes="cccccccccccccccccccccccccccccccccccccccccccc" /><path
       inkscape:connector-curvature="0"
       id="path26"
       style="fill:#bdbcbc;fill-opacity:1;fill-rule:nonzero;stroke:none"
       d="m 46.312779,107.05401 c -0.580231,-6.04272 -0.98562,-10.304924 -1.331789,-10.80558 -0.936545,-6.435376 -0.278518,-3.647035 -0.421649,-5.978526 -1.473248,1.725052 0.163299,6.108956 -0.325231,8.440016 0.222956,4.32153 1.216928,7.51612 1.137049,7.51612 l 0.470143,7.15057 0.339855,-4.41407"
       sodipodi:nodetypes="ccccccc" /><path
       inkscape:connector-curvature="0"
       id="path32"
       style="fill:none;stroke:#231f20;stroke-width:0.5;stroke-linecap:round;stroke-linejoin:round;stroke-miterlimit:4;stroke-opacity:1;stroke-dasharray:none"
       d="m 51.958714,95.777195 c 1.161774,-1.140729 7.518387,0.691299 6.044613,4.025878 0,0 -0.818227,0.591097 0.17071,-0.05307 1.664978,-1.08469 4.03206,-3.431695 9.723071,0.447647"
       sodipodi:nodetypes="cccc" /><path
       inkscape:connector-curvature="0"
       id="path36"
       style="fill:#7b7979;fill-opacity:1;fill-rule:nonzero;stroke:none"
       d="m 64.553352,61.170409 -0.443022,-1.899943 0.84453,-2.338574 1.370277,-1.459808 c 0,0 -0.936915,2.130709 0.359581,2.918686 1.296691,0.7854 1.478824,1.198814 2.090294,1.05508 0.610011,-0.142286 1.738352,-0.637099 1.738352,-0.637099 l 1.235969,-1.157072 2.341013,-2.007711 2.207084,-1.704627 c 0,0 0.184147,0.412417 -0.601646,1.371233 -0.786968,0.959971 -2.249927,2.214664 -2.249927,2.214664 0,0 -1.143882,1.361824 -2.113402,1.909064 -0.970512,0.548861 -4.029762,3.36403 -6.779113,1.736105" /><path
       inkscape:connector-curvature="0"
       id="path38"
       style="fill:#7b7979;fill-opacity:1;fill-rule:nonzero;stroke:none"
       d="m 94.280535,56.538159 1.089639,-1.297238 0.07928,2.048186 c 0,0 0.05744,1.536894 0.927408,1.549218 0.868838,0.01093 1.736313,0.02125 2.210179,-0.387132 0.471044,-0.409662 1.677159,-1.512143 1.677159,-1.512143 l 1.59045,-2.378626 c 0,0 -1.33332,-0.785895 -1.82538,-0.88715 -0.492538,-0.103117 -2.084154,-0.604454 -2.084154,-0.604454 l -0.222921,-1.56849 0.103872,-1.502911 -0.771949,-0.329516 c 0,0 -2.660388,4.186066 -2.773588,6.870256" /><path
       inkscape:connector-curvature="0"
       id="path40"
       style="fill:#ffffff;fill-opacity:1;fill-rule:nonzero;stroke:none"
       d="m 83.406265,50.8743 0.701427,-1.28244 1.675978,-2.328047 -1.189519,-0.635947 -1.783544,2.643532 -0.64842,1.642228 1.244078,-0.03933" /><path
       inkscape:connector-curvature="0"
       id="path42"
       style="fill:none;stroke:#231f20;stroke-width:0.5;stroke-linecap:butt;stroke-linejoin:miter;stroke-miterlimit:4;stroke-opacity:1;stroke-dasharray:none"
       d="m 74.719139,50.8826 -3.156266,-1.864367 c 0,0 -0.667258,0.200587 -1.08588,0.779911"
       sodipodi:nodetypes="ccc" /><path
       inkscape:connector-curvature="0"
       id="path44"
       style="fill:none;stroke:#231f20;stroke-width:0.5;stroke-linecap:butt;stroke-linejoin:miter;stroke-miterlimit:4;stroke-opacity:1;stroke-dasharray:none"
       d="m 85.943723,68.368429 c 0,0 2.774987,-2.428543 4.288089,-4.796559 1.510966,-2.368878 3.673083,-5.602712 3.673083,-5.602712 l 0.699935,-2.56643"
       sodipodi:nodetypes="cccc" /><path
       inkscape:connector-curvature="0"
       id="path46"
       style="fill:none;stroke:#231f20;stroke-width:0.5;stroke-linecap:butt;stroke-linejoin:miter;stroke-miterlimit:4;stroke-opacity:1;stroke-dasharray:none"
       d="m 94.011959,56.626028 c 0,0 0.214512,-2.173204 0.753202,-3.237897 0.541768,-1.067579 1.02752,-3.515163 2.756122,-3.945489" /><path
       inkscape:connector-curvature="0"
       id="path48"
       style="fill:none;stroke:#231f20;stroke-width:0.5;stroke-linecap:butt;stroke-linejoin:miter;stroke-miterlimit:4;stroke-opacity:1;stroke-dasharray:none"
       d="m 97.877142,50.06143 c 0,0 -0.484662,2.448081 0.704492,3.083862 1.18966,0.633703 2.921256,1.231828 2.921256,1.231828 l 1.46803,-1.844662" /><path
       inkscape:connector-curvature="0"
       id="path50"
       style="fill:none;stroke:#231f20;stroke-width:0.5;stroke-linecap:butt;stroke-linejoin:miter;stroke-miterlimit:4;stroke-opacity:1;stroke-dasharray:none"
       d="m 98.480518,50.136112 c 0,0 -0.116699,1.585947 0.586719,2.099742 1.406943,1.031352 3.353703,0.995555 3.353703,0.995555" /><path
       inkscape:connector-curvature="0"
       id="path52"
       style="fill:none;stroke:#231f20;stroke-width:0.5;stroke-linecap:butt;stroke-linejoin:miter;stroke-miterlimit:4;stroke-opacity:1;stroke-dasharray:none"
       d="m 102.96167,52.680967 c 0,0 -1.2406,3.11866 -2.91445,4.932706 -1.676535,1.812489 -3.138093,1.453637 -3.785785,1.295277 -0.649255,-0.159508 -0.757266,-0.358874 -0.866808,-1.583383 -0.107986,-1.226 -0.272712,-3.832335 -0.650764,-2.72759" /><path
       inkscape:connector-curvature="0"
       id="path54"
       style="fill:none;stroke:#231f20;stroke-width:0.5;stroke-linecap:butt;stroke-linejoin:miter;stroke-miterlimit:4;stroke-opacity:1;stroke-dasharray:none"
       d="m 99.746104,57.861865 c 0,0 -1.567831,2.524942 -3.187912,4.696154 -1.619584,2.170121 -4.27076,6.882344 -5.838378,9.920708 -1.276838,2.478968 -1.020429,2.158267 -3.66742,5.787007 -2.646643,3.629668 -3.906412,6.445295 -4.553684,7.828417 -0.649174,1.380059 -6.299708,12.889493 -7.919888,15.059229"
       sodipodi:nodetypes="cccccc" /><path
       inkscape:connector-curvature="0"
       id="path56"
       style="fill:none;stroke:#231f20;stroke-width:0.5;stroke-linecap:butt;stroke-linejoin:miter;stroke-miterlimit:4;stroke-opacity:1;stroke-dasharray:none"
       d="m 44.222913,90.334914 c 2.480515,-0.443566 13.704625,-3.872958 12.957519,1.359935"
       sodipodi:nodetypes="cc" /><path
       inkscape:connector-curvature="0"
       id="path58"
       style="fill:none;stroke:#231f20;stroke-width:0.5;stroke-linecap:butt;stroke-linejoin:miter;stroke-miterlimit:4;stroke-opacity:1;stroke-dasharray:none"
       d="m 76.790771,82.919516 c 0,0 0.809082,-1.856634 1.349431,-1.895243 0.540669,-0.03835 -0.863603,-0.0403 0.650726,0.673067 1.515421,0.713866 4.056216,-1.058792 2.163771,1.389257" /><path
       inkscape:connector-curvature="0"
       id="path60"
       style="fill:#ffffff;fill-opacity:1;fill-rule:nonzero;stroke:none"
       d="m 96.472367,53.140078 c 0,0 0.380152,0.94863 0.759691,1.383988 0.377254,0.436515 -0.864679,1.496984 -0.864679,1.496984 l -0.759734,-1.893927 0.864722,-0.987045" /><path
       inkscape:connector-curvature="0"
       id="path62"
       style="fill:none;stroke:#231f20;stroke-width:0.30000001;stroke-linecap:butt;stroke-linejoin:miter;stroke-miterlimit:4;stroke-opacity:1;stroke-dasharray:none"
       d="m 96.472367,53.140078 c 0,0 0.380152,0.948631 0.759691,1.383988 0.377255,0.436515 -0.864679,1.496984 -0.864679,1.496984 l -0.759733,-1.893926 0.864721,-0.987046 z" /><path
       inkscape:connector-curvature="0"
       id="path64"
       style="fill:#ffffff;fill-opacity:1;fill-rule:nonzero;stroke:none"
       d="m 92.20642,60.479965 c 0,0 -2.432136,1.456464 -1.56621,2.525241 0.865825,1.06972 4.164105,2.222987 4.705909,2.185041 0.540845,-0.0397 1.62114,-2.171608 2.052218,-3.434604" /><path
       inkscape:connector-curvature="0"
       id="path66"
       style="fill:none;stroke:#231f20;stroke-width:0.5;stroke-linecap:butt;stroke-linejoin:miter;stroke-miterlimit:4;stroke-opacity:1;stroke-dasharray:none"
       d="m 92.20642,60.479965 c 0,0 -2.432136,1.456464 -1.56621,2.525242 0.865825,1.06972 4.164105,2.222987 4.705909,2.18504 0.540845,-0.0397 1.62114,-2.171608 2.052219,-3.434603" /><path
       inkscape:connector-curvature="0"
       id="path68"
       style="fill:#ffffff;fill-opacity:1;fill-rule:nonzero;stroke:none"
       d="m 91.722919,65.497615 c 0,0 2.378179,-3.353912 2.593644,-3.986816 0.215158,-0.62909 1.131352,-3.315067 1.944064,-3.630514" /><path
       inkscape:connector-curvature="0"
       id="path70"
       style="fill:none;stroke:#231f20;stroke-width:0.30000001;stroke-linecap:butt;stroke-linejoin:miter;stroke-miterlimit:4;stroke-opacity:1;stroke-dasharray:none"
       d="m 92.314024,63.914644 c 0,0 1.540543,-1.67864 1.756009,-2.311545 0.215156,-0.62909 0.572928,-2.477431 1.385641,-2.792879"
       sodipodi:nodetypes="ccc" /><path
       inkscape:connector-curvature="0"
       id="path72"
       style="fill:#ffffff;fill-opacity:1;fill-rule:nonzero;stroke:none"
       d="m 92.860057,66.289909 2.591525,-4.498468 c 0,0 1.836833,-1.773365 1.999953,-2.762681" /><path
       inkscape:connector-curvature="0"
       id="path74"
       style="fill:none;stroke:#231f20;stroke-width:0.30000001;stroke-linecap:butt;stroke-linejoin:miter;stroke-miterlimit:4;stroke-opacity:1;stroke-dasharray:none"
       d="m 93.697693,64.800779 1.753889,-3.009337 c 0,0 1.836833,-1.773366 1.999953,-2.762682"
       sodipodi:nodetypes="ccc" /><path
       inkscape:connector-curvature="0"
       id="path76"
       style="fill:none;stroke:#231f20;stroke-width:0.5;stroke-linecap:round;stroke-linejoin:round;stroke-miterlimit:4;stroke-opacity:1;stroke-dasharray:none"
       d="m 44.016513,90.366073 c 0,0 -1.4727,-6.026319 0.170395,-9.15258 0.213228,-0.347539 6.069612,-8.838383 10.287792,-11.943843 1.916565,-1.845239 5.751745,-6.391288 5.751745,-6.391288 0,0 0.128627,-0.525379 0.976223,-1.328374 0.849035,-0.801745 1.335962,-1.259469 1.977205,-2.325181 0.642206,-1.066338 2.547938,-3.555383 2.547938,-3.555383"
       sodipodi:nodetypes="ccccccc" /><path
       inkscape:connector-curvature="0"
       id="path78"
       style="fill:none;stroke:#231f20;stroke-width:0.5;stroke-linecap:round;stroke-linejoin:round;stroke-miterlimit:4;stroke-opacity:1;stroke-dasharray:none"
       d="m 60.448858,62.161621 c 0.488139,2.229099 2.930428,3.665058 3.370781,3.421116 0.44188,-0.246324 1.223164,-1.008061 1.770463,-1.524598 0.545706,-0.515146 1.71621,-1.448465 1.71621,-1.448465"
       sodipodi:nodetypes="cccc" /><path
       inkscape:connector-curvature="0"
       id="path80"
       style="fill:none;stroke:#231f20;stroke-width:0.5;stroke-linecap:round;stroke-linejoin:round;stroke-miterlimit:4;stroke-opacity:1;stroke-dasharray:none"
       d="m 76.621384,53.491863 c 0,0 0.330089,1.324226 -2.670649,3.522736 -1.547326,1.133345 -2.074094,1.42709 -3.445226,2.831448 -2.189574,2.237283 -5.093387,1.940369 -5.625592,1.606697 -0.530709,-0.335338 -1.486314,-1.229378 -0.180177,-3.934798 1.303968,-2.704397 2.17127,-2.77768 3.292536,-3.952911 1.120921,-1.175438 1.346806,-1.356178 1.999146,-2.710679 l 0.441186,-1.188874"
       sodipodi:nodetypes="cccccccc" /><path
       inkscape:connector-curvature="0"
       id="path82"
       style="fill:none;stroke:#231f20;stroke-width:0.5;stroke-linecap:round;stroke-linejoin:round;stroke-miterlimit:4;stroke-opacity:1;stroke-dasharray:none"
       d="m 72.294073,56.36087 c -0.568165,0.317465 -0.329009,0.170707 -1.911346,1.440465 -1.582119,1.267663 -3.058639,0.309052 -3.273189,-0.970509 -0.26532,-1.588193 1.069402,-1.687137 1.965177,-2.681503"
       sodipodi:nodetypes="cccc" /><path
       inkscape:connector-curvature="0"
       id="path84"
       style="fill:none;stroke:#231f20;stroke-width:0.5;stroke-linecap:round;stroke-linejoin:round;stroke-miterlimit:4;stroke-opacity:1;stroke-dasharray:none"
       d="m 63.688286,58.710257 c 0,0 -0.948226,1.105975 -0.03142,2.65118 0.220041,0.37293 2.549799,1.897447 4.13181,0.628432 1.580993,-1.266008 2.476834,-2.261271 3.100647,-2.692495 0.62352,-0.43152 1.989621,-1.248923 2.594459,-2.21791" /><path
       inkscape:connector-curvature="0"
       id="path86"
       style="fill:#ffffff;fill-opacity:1;fill-rule:nonzero;stroke:none"
       d="m 66.651685,59.789831 c 0.134957,-0.279591 0.06084,-0.576476 -0.166006,-0.662173 -0.225112,-0.08546 -0.519351,0.07235 -0.655513,0.351237 -0.133187,0.280536 -0.06105,0.578926 0.166658,0.662452 0.225925,0.08643 0.519437,-0.0723 0.654861,-0.351516" /><path
       inkscape:connector-curvature="0"
       id="path92"
       style="fill:none;stroke:#231f20;stroke-width:0.5;stroke-linecap:butt;stroke-linejoin:miter;stroke-miterlimit:4;stroke-opacity:1;stroke-dasharray:none"
       d="m 58.01379,91.35844 c 0,0 -3.437273,-5.532132 -4.222877,-6.829792 -0.786376,-1.296648 -1.024212,-1.404031 -2.002523,-1.663734 -0.976191,-0.262592 -1.734842,-1.058022 -2.494123,-1.197245 -0.759718,-0.140106 -2.685955,0.161566 -2.105501,1.914404"
       sodipodi:nodetypes="ccccc" /><path
       inkscape:connector-curvature="0"
       id="path94"
       style="fill:none;stroke:#231f20;stroke-width:0.5;stroke-linecap:butt;stroke-linejoin:miter;stroke-miterlimit:4;stroke-opacity:1;stroke-dasharray:none"
       d="m 52.96156,83.173872 c 0.08352,0.250544 5.488887,-4.681986 5.604437,-5.774131 0.362148,-0.343461 2.455922,-4.970311 2.806122,-6.673532 0.349386,-1.703527 2.511266,-4.755785 3.234952,-5.781898"
       sodipodi:nodetypes="cccc" /><path
       inkscape:connector-curvature="0"
       id="path96"
       style="fill:none;stroke:#231f20;stroke-width:0.5;stroke-linecap:butt;stroke-linejoin:miter;stroke-miterlimit:4;stroke-opacity:1;stroke-dasharray:none"
       d="m 63.437918,93.956362 c 4.488177,-6.345832 11.316766,-11.539531 12.397034,-13.668145 1.081248,-2.14519 5.25868,-9.628647 8.447506,-11.0901 3.190109,-2.125237 4.499338,1.008433 4.662849,2.075999"
       sodipodi:nodetypes="cccc" /><path
       inkscape:connector-curvature="0"
       id="path104"
       style="fill:#bdbcbc;fill-opacity:1;fill-rule:nonzero;stroke:none"
       d="m 65.590819,128.08789 -3.699753,1.00001 c 0,0 -1.254296,2.0682 -2.443008,1.67455 -1.19146,-0.39482 -2.447873,-1.74322 -2.447873,-1.74322 l -2.948527,-0.1563 -1.54695,-0.38829 c 0,0 0.830498,5.43915 3.532979,6.74518 2.702079,1.30141 4.997747,1.44021 6.180554,0.79636 1.182572,-0.64691 5.15469,-2.3234 3.372578,-7.92829"
       sodipodi:nodetypes="ccccccccc" /><path
       inkscape:connector-curvature="0"
       id="path106"
       style="fill:none;stroke:#231f20;stroke-width:0.5;stroke-linecap:round;stroke-linejoin:round;stroke-miterlimit:4;stroke-opacity:1;stroke-dasharray:none"
       d="m 61.903352,128.89826 c -1.526606,2.24238 -3.380403,2.12831 -5.192877,0.20675"
       sodipodi:nodetypes="cc" /><path
       inkscape:connector-curvature="0"
       id="path108"
       style="fill:none;stroke:#231f20;stroke-width:0.5;stroke-linecap:butt;stroke-linejoin:miter;stroke-miterlimit:4;stroke-opacity:1;stroke-dasharray:none"
       d="m 71.388089,118.27726 c 0,0 -1.4467,-7.67168 0.267706,-10.97967 0.954063,-1.84228 2.918367,-6.41605 4.055513,-7.668471"
       sodipodi:nodetypes="ccc" /><path
       inkscape:connector-curvature="0"
       id="path110"
       style="fill:none;stroke:#231f20;stroke-width:0.5;stroke-linecap:butt;stroke-linejoin:miter;stroke-miterlimit:4;stroke-opacity:1;stroke-dasharray:none"
       d="m 43.738913,89.987703 c 0.378353,8.988206 0.234397,7.096704 1.060742,12.563167 0.08393,0.43595 0.427695,5.08266 0.456585,5.39356 0.117102,1.24652 0.107573,7.19204 0.707691,8.52108 0.597434,1.32673 2.874155,4.13311 6.345021,4.53189 3.717688,1.8757 7.268457,1.0472 9.028359,0.96798 1.843824,0.44596 8.237056,-2.20436 10.131825,-4.01618"
       sodipodi:nodetypes="ccccccc" /><path
       inkscape:connector-curvature="0"
       id="path112"
       style="fill:none;stroke:#231f20;stroke-width:0.5;stroke-linecap:butt;stroke-linejoin:miter;stroke-miterlimit:4;stroke-opacity:1;stroke-dasharray:none"
       d="m 71.028203,116.93122 c 0,0 3.727266,3.83628 5.406791,1.84078 0.187398,-0.22125 -0.446973,0.80231 -0.635522,1.62954 -0.187722,0.82539 -1.249308,2.6682 -2.262779,3.22869 -0.866025,1.37036 -3.337583,3.44245 -5.999617,3.69089 -2.169938,0.51863 -5.995943,1.73454 -7.693814,1.61652 -1.699335,-0.11647 -5.865697,0.20692 -7.936174,-0.73778 -2.07571,-0.94814 -2.701995,-1.39928 -4.546005,-2.12 -1.844779,-0.72216 -3.838511,-3.06542 -3.838511,-3.06542 0,0 -2.849544,-9.30338 -2.842733,-9.84744 0.0083,-0.54229 1.958473,3.50095 4.843122,1.75736"
       sodipodi:nodetypes="ccccccccccc" /><path
       inkscape:connector-curvature="0"
       id="path114"
       style="fill:none;stroke:#231f20;stroke-width:0.5;stroke-linecap:butt;stroke-linejoin:miter;stroke-miterlimit:4;stroke-opacity:1;stroke-dasharray:none"
       d="m 40.679839,113.167 c 0,0 -1.032145,-4.87462 -1.244818,-5.70867 -0.386472,-0.89267 0.03186,-6.71249 1.462513,-9.802639 0.18031,-1.878129 1.209945,-2.534577 3.075779,-7.295478"
       sodipodi:nodetypes="cccc" /><path
       inkscape:connector-curvature="0"
       id="path116"
       style="fill:none;stroke:#231f20;stroke-width:0.5;stroke-linecap:butt;stroke-linejoin:miter;stroke-miterlimit:4;stroke-opacity:1;stroke-dasharray:none"
       d="m 42.519691,103.40947 c 0,0 -0.363151,1.35973 -0.929264,1.58987 -0.565893,0.23135 -0.701907,-0.42497 -0.91208,-1.25678" /><path
       inkscape:connector-curvature="0"
       id="path118"
       style="fill:none;stroke:#231f20;stroke-width:0.5;stroke-linecap:round;stroke-linejoin:round;stroke-miterlimit:4;stroke-opacity:1;stroke-dasharray:none"
       d="m 69.394881,110.16023 c 0,0 -1.640373,1.45955 -6.064105,2.58278 -2.770777,0.7022 -9.07822,-0.1791 -11.815567,-1.70198 -2.739541,-1.5217 -3.211314,-3.56033 -5.027469,-4.25847"
       sodipodi:nodetypes="cccc" /><path
       inkscape:connector-curvature="0"
       id="path120"
       style="fill:none;stroke:#231f20;stroke-width:0.5;stroke-linecap:round;stroke-linejoin:round;stroke-miterlimit:4;stroke-opacity:1;stroke-dasharray:none"
       d="m 69.289895,109.02338 c 0,0 -0.897123,1.27171 -5.322674,2.39411 -2.769373,0.70393 -8.930771,0.10886 -11.667754,-1.41386 -2.740371,-1.51987 -4.211299,-4.32015 -6.036039,-4.5816"
       sodipodi:nodetypes="cccc" /><path
       inkscape:connector-curvature="0"
       id="path122"
       style="fill:none;stroke:#231f20;stroke-width:0.5;stroke-linecap:round;stroke-linejoin:round;stroke-miterlimit:4;stroke-opacity:1;stroke-dasharray:none"
       d="m 75.973274,119.00746 c 0,0 1.240059,-1.31655 1.984752,-3.83865 0.742469,-2.52423 1.030044,-5.56204 1.198596,-6.27751 0.17376,-0.71748 -0.332261,-3.34523 -1.299886,-4.57896 -0.962103,-1.23452 -2.101019,-3.31862 -2.467867,-4.11737" /><path
       inkscape:connector-curvature="0"
       id="path124"
       style="fill:none;stroke:#231f20;stroke-width:0.5;stroke-linecap:round;stroke-linejoin:round;stroke-miterlimit:4;stroke-opacity:1;stroke-dasharray:none"
       d="m 77.727869,108.82438 c 0,0 0.73491,-0.14453 -0.06275,-0.43181 -0.796354,-0.28338 -1.589285,-0.26968 -1.589285,-0.26968 l -0.628805,0.66307" /><path
       inkscape:connector-curvature="0"
       id="path126"
       style="fill:none;stroke:#231f20;stroke-width:0.5;stroke-linecap:round;stroke-linejoin:round;stroke-miterlimit:4;stroke-opacity:1;stroke-dasharray:none"
       d="m 41.523359,107.07288 -1.129401,-2.09077 c 0,0 0.219087,-1.71646 0.500301,-2.95747" /><path
       inkscape:connector-curvature="0"
       id="path128"
       style="fill:none;stroke:#231f20;stroke-width:0.5;stroke-linecap:round;stroke-linejoin:round;stroke-miterlimit:4;stroke-opacity:1;stroke-dasharray:none"
       d="m 70.932898,114.66925 c 0,0 0.780037,-4.16593 2.007342,-5.96185"
       sodipodi:nodetypes="cc" /><path
       inkscape:connector-curvature="0"
       id="path130"
       style="fill:none;stroke:#231f20;stroke-width:0.5;stroke-linecap:round;stroke-linejoin:round;stroke-miterlimit:4;stroke-opacity:1;stroke-dasharray:none"
       d="m 72.470445,109.70546 c -0.746483,-1.2858 -0.582042,-1.12086 -0.815064,-2.40696" /><path
       inkscape:connector-curvature="0"
       id="path132"
       style="fill:none;stroke:#231f20;stroke-width:0.5;stroke-linecap:round;stroke-linejoin:round;stroke-miterlimit:4;stroke-opacity:1;stroke-dasharray:none"
       d="m 45.474731,113.60604 c 2.388584,-8.9464 -1.273285,-16.51479 -1.065393,-23.010921"
       sodipodi:nodetypes="cc" /><path
       inkscape:connector-curvature="0"
       id="path134"
       style="fill:none;stroke:#231f20;stroke-width:0.5;stroke-linecap:round;stroke-linejoin:round;stroke-miterlimit:4;stroke-opacity:1;stroke-dasharray:none"
       d="m 53.273085,129.48375 c 4.542073,4.80075 13.045716,0.81873 12.578113,-0.34912"
       sodipodi:nodetypes="cc" /><path
       inkscape:connector-curvature="0"
       id="path136"
       style="fill:none;stroke:#231f20;stroke-width:0.5;stroke-linecap:round;stroke-linejoin:round;stroke-miterlimit:4;stroke-opacity:1;stroke-dasharray:none"
       d="m 65.72437,128.25551 c 0.24338,0.75278 0.451302,3.22512 0.211732,4.01079 -0.778098,2.57867 -4.173117,4.68948 -7.464418,3.91423 -3.683403,-0.87621 -5.880917,-4.95669 -5.341371,-7.24332"
       sodipodi:nodetypes="cccc" /><path
       inkscape:connector-curvature="0"
       id="path138"
       style="fill:none;stroke:#231f20;stroke-width:0.5;stroke-linecap:round;stroke-linejoin:round;stroke-miterlimit:4;stroke-opacity:1;stroke-dasharray:none"
       d="m 65.836105,130.81407 c -1.126367,1.19027 -8.855887,4.4801 -12.400594,-0.21316"
       sodipodi:nodetypes="cc" /><path
       inkscape:connector-curvature="0"
       id="path140"
       style="fill:none;stroke:#231f20;stroke-width:0.30000001;stroke-linecap:round;stroke-linejoin:round;stroke-miterlimit:4;stroke-opacity:1;stroke-dasharray:none"
       d="m 60.101194,136.22443 c 0,0 -0.02662,-2.34881 -0.229477,-3.04289"
       sodipodi:nodetypes="cc" /><path
       inkscape:connector-curvature="0"
       id="path142"
       style="fill:none;stroke:#231f20;stroke-width:0.30000001;stroke-linecap:round;stroke-linejoin:round;stroke-miterlimit:4;stroke-opacity:1;stroke-dasharray:none"
       d="m 58.635461,136.17887 c -0.305815,-1.04571 -0.139191,-1.82872 -1.272096,-2.3201 -1.137219,-0.49387 -2.432223,-0.0428 -2.229811,0.65242"
       sodipodi:nodetypes="ccc" /><path
       inkscape:connector-curvature="0"
       id="path144"
       style="fill:none;stroke:#231f20;stroke-width:0.30000001;stroke-linecap:round;stroke-linejoin:round;stroke-miterlimit:4;stroke-opacity:1;stroke-dasharray:none"
       d="m 61.454528,135.77129 c 0,0 -0.224018,-2.20789 1.33594,-2.34345 1.558616,-0.13194 1.06312,0.24194 1.94901,0.83049"
       sodipodi:nodetypes="ccc" /><path
       inkscape:connector-curvature="0"
       id="path150"
       style="fill:none;stroke:#231f20;stroke-width:0.5;stroke-linecap:butt;stroke-linejoin:miter;stroke-miterlimit:4;stroke-opacity:1;stroke-dasharray:none"
       d="m 71.23851,116.00624 c 0,0 -1.453797,0.0315 -1.657488,-4.26381 -0.234531,-5.00048 1.248728,-5.97559 5.807433,-11.54656 1.140349,-1.392696 1.319691,-2.803136 1.319691,-2.803136 -1.955242,-5.185143 -10.064862,-6.498697 -10.308842,-6.37111"
       sodipodi:nodetypes="ccccc" /><path
       inkscape:connector-curvature="0"
       id="path404"
       style="fill:none;stroke:#231f20;stroke-width:0.5;stroke-linecap:butt;stroke-linejoin:miter;stroke-miterlimit:4;stroke-opacity:1;stroke-dasharray:none"
       d="m 14.146941,30.2801 104.247589,0" /><path
       inkscape:connector-curvature="0"
       id="path474"
       style="fill:none;stroke:#231f20;stroke-width:0.5;stroke-linecap:butt;stroke-linejoin:miter;stroke-miterlimit:4;stroke-opacity:1;stroke-dasharray:none"
       d="m 97.383489,48.259185 -1.298078,0.34808 -6.613402,4.693252" /><path
       inkscape:connector-curvature="0"
       id="path476"
       style="fill:none;stroke:#231f20;stroke-width:0.5;stroke-linecap:butt;stroke-linejoin:miter;stroke-miterlimit:4;stroke-opacity:1;stroke-dasharray:none"
       d="m 89.140803,52.091487 6.589735,-4.64751 c -7.68e-4,-7.28e-4 0.872552,-1.020602 1.445002,-0.640783 0.572298,0.381311 2.053663,1.511741 2.053663,1.511741" /><path
       inkscape:connector-curvature="0"
       id="path478"
       style="fill:#ffffff;fill-opacity:1;fill-rule:nonzero;stroke:none"
       d="m 85.762826,58.530764 3.302552,-4.307872 0.603386,-1.200053 0.858145,0.570041 -2.173485,3.120984 -2.680668,3.554518 -0.0445,-1.607805" /><path
       inkscape:connector-curvature="0"
       id="path480"
       style="fill:#ffffff;fill-opacity:1;fill-rule:nonzero;stroke:none"
       d="m 82.861678,50.777155 0.708801,-1.250846 1.680189,-2.233508 -1.144794,-0.76051 -1.790602,2.545828 -0.665764,1.621918 1.212171,0.07711" /><path
       inkscape:connector-curvature="0"
       id="path484"
       style="fill:none;stroke:#231f20;stroke-width:0.5;stroke-linecap:butt;stroke-linejoin:miter;stroke-miterlimit:4;stroke-opacity:1;stroke-dasharray:none"
       d="m 62.512749,92.538576 c -0.125315,0.352776 0.0085,1.460769 0.707139,2.110603 0.699637,0.644788 1.28236,1.269327 0.542202,2.579405 -1.436202,2.54135 -5.810752,-0.0784 -5.810752,-0.0784 -4.028071,-2.099437 -3.552418,-4.182558 -3.25942,-5.007272 0.294506,-0.82513 1.09175,-1.203869 2.86627,-0.969669 0,0 2.078496,0.872503 2.52383,0.366518" /><path
       inkscape:connector-curvature="0"
       id="path486"
       style="fill:none;stroke:#231f20;stroke-width:0.5;stroke-linecap:butt;stroke-linejoin:miter;stroke-miterlimit:4;stroke-opacity:1;stroke-dasharray:none"
       d="m 59.064905,92.902906 c 0,0 -1.8503,-0.392852 -2.066425,0.591013 -0.09838,0.43866 1.077012,1.445029 1.977785,1.896808 0.898895,0.454215 2.388544,1.118017 2.985521,0.931577 0.596473,-0.185564 0.638976,-0.30356 0.260044,-1.102313 -0.380034,-0.797063 -0.683092,-1.437131 -0.272911,-2.219497 0.410911,-0.782037 6.288749,-9.835839 6.288749,-9.835839 0,0 0.368407,-0.66404 -0.530942,-1.117254 -0.900756,-0.453743 -1.060408,-0.378417 -1.471691,0.404435 -0.412408,0.782671 -6.211601,9.996315 -6.211601,9.996315 0,0 -0.209775,0.589026 -0.958529,0.454755 z" /><path
       inkscape:connector-curvature="0"
       id="path488"
       style="fill:none;stroke:#231f20;stroke-width:0.5;stroke-linecap:butt;stroke-linejoin:miter;stroke-miterlimit:4;stroke-opacity:1;stroke-dasharray:none"
       d="m 55.254847,91.678422 c -0.829637,1.960441 3.791311,6.127252 8.189289,5.700982" /><path
       inkscape:connector-curvature="0"
       id="path490"
       style="fill:none;stroke:#231f20;stroke-width:0.5;stroke-linecap:butt;stroke-linejoin:miter;stroke-miterlimit:4;stroke-opacity:1;stroke-dasharray:none"
       d="m 58.190424,93.122334 c 0.497529,0.840665 2.056014,2.058772 4.031406,2.097657" /><path
       inkscape:connector-curvature="0"
       id="path492"
       style="fill:none;stroke:#231f20;stroke-width:0.5;stroke-linecap:butt;stroke-linejoin:miter;stroke-miterlimit:4;stroke-opacity:1;stroke-dasharray:none"
       d="m 60.425798,92.062165 c 0.540537,0.7218 0.657771,0.763077 1.523121,0.938329" /><path
       inkscape:connector-curvature="0"
       id="path494"
       style="fill:#ffffff;fill-opacity:1;fill-rule:nonzero;stroke:none"
       d="m 85.549638,55.887756 c -0.30524,-0.195966 -0.390497,-0.621524 -0.191869,-0.949507 l 4.983073,-8.358958 c 0.199852,-0.328742 0.607679,-0.437562 0.913971,-0.241008 0.304744,0.197059 0.389737,0.620301 0.193434,0.950659 l -4.985532,8.357839 c -0.198727,0.330134 -0.606876,0.437489 -0.913077,0.240975" /><path
       inkscape:connector-curvature="0"
       id="path498"
       style="fill:#ffffff;fill-opacity:1;fill-rule:nonzero;stroke:none"
       d="m 83.368388,54.315077 c -0.305773,-0.19456 -0.391102,-0.620922 -0.192707,-0.950328 l 4.983546,-8.358304 c 0.199215,-0.329033 0.607439,-0.436792 0.91268,-0.240826 0.305531,0.195329 0.39192,0.621294 0.192664,0.950417 l -4.982412,8.358712 c -0.199529,0.328998 -0.608862,0.437023 -0.913771,0.240329" /><path
       inkscape:connector-curvature="0"
       id="path500"
       style="fill:none;stroke:#231f20;stroke-width:0.30000001;stroke-linecap:butt;stroke-linejoin:miter;stroke-miterlimit:4;stroke-opacity:1;stroke-dasharray:none"
       d="m 83.368388,54.315077 c -0.305773,-0.19456 -0.391102,-0.620922 -0.192707,-0.950328 l 4.983546,-8.358304 c 0.199215,-0.329032 0.607439,-0.436792 0.91268,-0.240826 0.305531,0.195329 0.391921,0.621294 0.192664,0.950418 l -4.982412,8.358711 c -0.199528,0.328999 -0.608862,0.437023 -0.913771,0.240329 z" /><path
       inkscape:connector-curvature="0"
       id="path502"
       style="fill:none;stroke:#231f20;stroke-width:0.5;stroke-linecap:butt;stroke-linejoin:miter;stroke-miterlimit:4;stroke-opacity:1;stroke-dasharray:none"
       d="m 68.114399,82.866054 c 0,0 2.185673,-2.291831 2.992501,-3.137454 0.803394,-0.842902 19.310943,-25.800043 19.310943,-25.800043 l 1.347437,-2.858304 -1.008159,-0.599651 -1.742666,3.644509 c 0,0 -19.993744,26.578846 -21.201972,27.611367 C 66.926011,82.483 82.558639,51.294934 83.106662,50.335021" /><path
       inkscape:connector-curvature="0"
       id="path506"
       style="fill:#ffffff;fill-opacity:1;fill-rule:nonzero;stroke:none"
       d="m 115.74907,47.342952 c 0.0793,-0.4993 -0.2598,-0.97 -0.7598,-1.052 l -5.3851,-0.9691 c -0.4989,-0.0801 -0.97,0.259 -1.052,0.7582 -0.0789,0.5 0.2621,0.9707 0.7602,1.0527 l 5.3859,0.9699 c 0.4988,0.0801 0.9699,-0.2597 1.0508,-0.7597" /><path
       inkscape:connector-curvature="0"
       id="path510"
       style="fill:none;stroke:#231f20;stroke-width:0.5;stroke-linecap:butt;stroke-linejoin:miter;stroke-miterlimit:4;stroke-opacity:1;stroke-dasharray:none"
       d="m 66.520963,82.021857 c 0,0 1.06211,-2.983125 1.452542,-4.082235 0.391356,-1.098247 14.341767,-28.861503 14.341767,-28.861503 l 1.949085,-2.491378 0.987848,0.632926 -2.117405,3.036639" /><path
       inkscape:connector-curvature="0"
       id="path512"
       style="fill:#ffffff;fill-opacity:1;fill-rule:nonzero;stroke:none"
       d="m 81.856648,48.159471 0.803661,-1.265899 9.621161,5.96744 -0.802991,1.267084 -9.621831,-5.968625" /><path
       inkscape:connector-curvature="0"
       id="path514"
       style="fill:none;stroke:#231f20;stroke-width:0.5;stroke-linecap:butt;stroke-linejoin:miter;stroke-miterlimit:4;stroke-opacity:1;stroke-dasharray:none"
       d="m 81.856648,48.159471 0.803661,-1.265899 9.621161,5.96744 -0.80299,1.267084 -9.621832,-5.968625 z" /><path
       inkscape:connector-curvature="0"
       id="path516"
       style="fill:none;stroke:#231f20;stroke-width:1.5;stroke-linecap:round;stroke-linejoin:round;stroke-miterlimit:4;stroke-opacity:1;stroke-dasharray:none"
       d="M 99.751866,30.992092 72.056388,74.937567" /><path
       inkscape:connector-curvature="0"
       id="path520"
       style="fill:none;stroke:#231f20;stroke-width:0.5;stroke-linecap:butt;stroke-linejoin:miter;stroke-miterlimit:4;stroke-opacity:1;stroke-dasharray:none"
       d="m 75.200254,54.806736 c 0.253507,-0.494461 1.074378,-1.639645 0.712879,-1.871098 l -3.680947,-2.48114 c -0.362728,-0.230693 -1.77054,0.542254 -2.023079,1.034523 l -1.001288,1.403777 c -0.252406,0.48936 -0.166464,1.075341 0.195194,1.306429 L 73.08515,56.6797 c 0.361995,0.230358 0.860712,0.01975 1.115561,-0.472785 l 0.999543,-1.400179 z" /><path
       inkscape:connector-curvature="0"
       id="path540"
       style="fill:#231f20;fill-opacity:1;fill-rule:nonzero;stroke:none"
       d="m 62.432339,93.221634 0.551099,1.57262 1.02561,1.458998 -0.247498,1.058582 -1.849248,-0.23419 c 0,0 -0.777136,0.80212 -2.057773,-0.12584 -1.279083,-0.929415 -3.461459,-2.318346 -3.461459,-2.318346 l -0.652734,-1.255204 -0.384562,-0.994698 0.197299,-0.899055 1.68522,-0.07892 1.112183,0.351326 1.739712,0.02609 -0.509644,1.061222 -0.945644,0.226586 -1.372459,-0.08414 -0.142449,1.003108 1.54808,1.188117 1.379625,0.611501 1.797499,0.392998 0.51946,-0.534853 -0.651592,-1.255779 0.719309,-1.170147" /><path
       inkscape:connector-curvature="0"
       id="path542"
       style="fill:none;stroke:#231f20;stroke-width:0.30000001;stroke-linecap:butt;stroke-linejoin:miter;stroke-miterlimit:4;stroke-opacity:1;stroke-dasharray:none"
       d="m 54.711394,93.31646 c 0,0 1.889665,4.528784 8.16348,4.589424" /><path
       d="m 103.54131,52.40854 c 0.27902,-0.421583 0.16543,-0.990471 -0.2557,-1.272249 l -4.499742,-3.113009 c -0.420886,-0.279591 -0.99014,-0.166137 -1.271586,0.25424 -0.278955,0.422386 -0.163593,0.992065 0.255771,1.273053 l 4.500137,3.114068 c 0.4208,0.279549 0.99034,0.16546 1.27112,-0.256103 z"
       style="fill:none;stroke:#231f20;stroke-width:0.5;stroke-linecap:butt;stroke-linejoin:miter;stroke-miterlimit:4;stroke-opacity:1;stroke-dasharray:none"
       id="path4320"
       inkscape:connector-curvature="0" /><path
       d="m 74.015586,50.496571 2.892385,1.916163 c 0,0 0.114356,0.687306 -0.22087,1.318565"
       style="fill:none;stroke:#231f20;stroke-width:0.5;stroke-linecap:butt;stroke-linejoin:miter;stroke-miterlimit:4;stroke-opacity:1;stroke-dasharray:none"
       id="path4322"
       inkscape:connector-curvature="0"
       inkscape:transform-center-x="6.2227088"
       inkscape:transform-center-y="-6.2155414"
       sodipodi:nodetypes="ccc" /><path
       d="m 83.375246,49.446538 -7.247844,5.30562 c 7.68e-4,7.28e-4 -0.205083,0.741391 -0.777538,0.361571"
       style="fill:none;stroke:#231f20;stroke-width:0.5;stroke-linecap:butt;stroke-linejoin:miter;stroke-miterlimit:4;stroke-opacity:1;stroke-dasharray:none"
       id="path4324"
       inkscape:connector-curvature="0"
       sodipodi:nodetypes="ccc" /><path
       d="m 75.68367,53.36849 6.79019,-4.776967"
       style="fill:none;stroke:#231f20;stroke-width:0.5;stroke-linecap:butt;stroke-linejoin:miter;stroke-miterlimit:4;stroke-opacity:1;stroke-dasharray:none"
       id="path4326"
       inkscape:connector-curvature="0"
       sodipodi:nodetypes="cc" /><path
       sodipodi:nodetypes="ccc"
       d="m 61.414568,64.193856 c 0,0 1.230539,-0.995033 1.402647,-1.370194 0.17186,-0.3729 0.345266,-0.941266 0.994437,-1.128252"
       style="fill:none;stroke:#231f20;stroke-width:0.30000001;stroke-linecap:butt;stroke-linejoin:miter;stroke-miterlimit:4;stroke-opacity:1;stroke-dasharray:none"
       id="path4540"
       inkscape:connector-curvature="0" /><path
       sodipodi:nodetypes="ccc"
       d="m 62.612095,65.173062 1.188585,-2.038858 c 0,0 0.965583,-0.177698 1.076127,-0.84797"
       style="fill:none;stroke:#231f20;stroke-width:0.30000001;stroke-linecap:butt;stroke-linejoin:miter;stroke-miterlimit:4;stroke-opacity:1;stroke-dasharray:none"
       id="path4542"
       inkscape:connector-curvature="0" /><g
       id="g5320"
       transform="translate(47.120597,24.876516)"><path
         d="m 8.3105687,79.936475 c 0.3391395,-0.935649 1.3478433,-1.468639 2.2442103,-1.185456 0.897034,0.276054 1.350679,1.262694 1.006496,2.197385 -0.34251,0.936997 -1.348771,1.468193 -2.2453913,1.190844 -0.8995578,-0.283242 -1.3490988,-1.266394 -1.005315,-2.202773 z"
         style="fill:none;stroke:#231f20;stroke-width:0.5;stroke-linecap:butt;stroke-linejoin:miter;stroke-miterlimit:4;stroke-opacity:1;stroke-dasharray:none"
         id="path30"
         inkscape:connector-curvature="0" /><path
         inkscape:transform-center-y="0.58169158"
         inkscape:transform-center-x="-1.5123981"
         d="m 9.8814427,82.353191 -0.01233,-3.893353"
         style="fill:none;stroke:#231f20;stroke-width:0.5;stroke-linecap:butt;stroke-linejoin:miter;stroke-miterlimit:4;stroke-opacity:1;stroke-dasharray:none"
         id="path472"
         inkscape:connector-curvature="0" /><path
         inkscape:connector-curvature="0"
         id="path4546"
         style="fill:none;stroke:#231f20;stroke-width:0.5;stroke-linecap:butt;stroke-linejoin:miter;stroke-miterlimit:4;stroke-opacity:1;stroke-dasharray:none"
         d="m 11.887765,80.400349 -3.8933529,0.01233"
         inkscape:transform-center-x="0.58169184"
         inkscape:transform-center-y="1.5123985" /><path
         transform="matrix(0.8,0,0,-0.8,0,142.66)"
         inkscape:connector-curvature="0"
         id="path4548"
         d="m 10.622017,77.316551 c 0,-0.324779 0.360208,-0.871989 0.727202,-1.10473 0.62381,-0.395609 0.67128,-0.360045 0.67128,0.502912 l 0,0.740372 -0.699241,0 c -0.600706,0 -0.699241,-0.01952 -0.699241,-0.138554 z"
         style="fill:#000000;fill-opacity:1;fill-rule:nonzero;stroke:none" /><path
         transform="matrix(0.8,0,0,-0.8,0,142.66)"
         inkscape:connector-curvature="0"
         id="path5318"
         d="m 12.678608,78.894718 0,-0.69924 0.775762,0 0.775762,0 -0.0732,0.25524 c -0.157393,0.548795 -0.838817,1.143241 -1.310518,1.143241 -0.155735,0 -0.167804,-0.05029 -0.167804,-0.699241 z"
         style="fill:#000000;fill-opacity:1;fill-rule:nonzero;stroke:none" /></g></g></svg>