<?xml version="1.0" encoding="UTF-8" standalone="no"?>
<!-- Created with Inkscape (http://www.inkscape.org/) -->

<svg
   xmlns:dc="http://purl.org/dc/elements/1.1/"
   xmlns:cc="http://creativecommons.org/ns#"
   xmlns:rdf="http://www.w3.org/1999/02/22-rdf-syntax-ns#"
   xmlns:svg="http://www.w3.org/2000/svg"
   xmlns="http://www.w3.org/2000/svg"
   xmlns:sodipodi="http://sodipodi.sourceforge.net/DTD/sodipodi-0.dtd"
   xmlns:inkscape="http://www.inkscape.org/namespaces/inkscape"
   id="svg2"
   version="1.1"
   inkscape:version="0.48.4 r9939"
   width="389.2125"
   height="292.8875"
   xml:space="preserve"
   sodipodi:docname="11660_002_fig_016.eps"><metadata
     id="metadata8"><rdf:RDF><cc:Work
         rdf:about=""><dc:format>image/svg+xml</dc:format><dc:type
           rdf:resource="http://purl.org/dc/dcmitype/StillImage" /><dc:title></dc:title></cc:Work></rdf:RDF></metadata><defs
     id="defs6"><clipPath
       clipPathUnits="userSpaceOnUse"
       id="clipPath18"><path
         d="m 0,0 3113.73,0 0,2343 L 0,2343 0,0 z"
         id="path20" /></clipPath></defs><sodipodi:namedview
     pagecolor="#ffffff"
     bordercolor="#666666"
     borderopacity="1"
     objecttolerance="10"
     gridtolerance="10"
     guidetolerance="10"
     inkscape:pageopacity="0"
     inkscape:pageshadow="2"
     inkscape:window-width="1348"
     inkscape:window-height="939"
     id="namedview4"
     showgrid="false"
     inkscape:zoom="1.6115402"
     inkscape:cx="27.036804"
     inkscape:cy="136.45712"
     inkscape:window-x="0"
     inkscape:window-y="0"
     inkscape:window-maximized="0"
     inkscape:current-layer="g10" /><g
     id="g10"
     inkscape:groupmode="layer"
     inkscape:label="ink_ext_XXXXXX"
     transform="matrix(1.25,0,0,-1.25,0,292.8875)"><path
       inkscape:connector-curvature="0"
       id="path22"
       style="fill:none;stroke:#231f20;stroke-width:0.75;stroke-linecap:butt;stroke-linejoin:miter;stroke-miterlimit:4;stroke-opacity:1;stroke-dasharray:none"
       d="m 25.1926,233.936 285.7484,0 0,-214.2489 -285.7484,0 z m 0,-43.25 5.032139,0 M 25.1926,105.187 30.430362,105.0416 M 25.1926,62.6871 l 5.691596,0"
       sodipodi:nodetypes="ccccccccccc" /><path
       inkscape:connector-curvature="0"
       id="path114"
       style="fill:none;stroke:#231f20;stroke-width:0.75;stroke-linecap:butt;stroke-linejoin:miter;stroke-miterlimit:4;stroke-opacity:1;stroke-dasharray:none"
       d="m 25.1926,148.186 5.032139,0.10281"
       sodipodi:nodetypes="cc" /><path
       inkscape:connector-curvature="0"
       id="path116"
       style="fill:none;stroke:#231f20;stroke-width:0.74999994;stroke-linecap:butt;stroke-linejoin:miter;stroke-miterlimit:4;stroke-opacity:1;stroke-dasharray:none"
       d="m 56.9426,19.818894 0,3.872349" /><path
       inkscape:connector-curvature="0"
       id="path190"
       style="fill:none;stroke:#231f20;stroke-width:0.75000006;stroke-linecap:butt;stroke-linejoin:miter;stroke-miterlimit:4;stroke-opacity:1;stroke-dasharray:none"
       d="m 88.9426,19.819507 0,4.222146" /><path
       inkscape:connector-curvature="0"
       id="path192"
       style="fill:none;stroke:#231f20;stroke-width:0.74999994;stroke-linecap:butt;stroke-linejoin:miter;stroke-miterlimit:4;stroke-opacity:1;stroke-dasharray:none"
       d="m 120.942,20.097451 0,4.017279" /><path
       inkscape:connector-curvature="0"
       id="path194"
       style="fill:none;stroke:#231f20;stroke-width:0.75;stroke-linecap:butt;stroke-linejoin:miter;stroke-miterlimit:4;stroke-opacity:1;stroke-dasharray:none"
       d="m 152.942,19.941515 0,4.680171" /><path
       inkscape:connector-curvature="0"
       id="path196"
       style="fill:none;stroke:#231f20;stroke-width:0.74999988;stroke-linecap:butt;stroke-linejoin:miter;stroke-miterlimit:4;stroke-opacity:1;stroke-dasharray:none"
       d="m 185.442,20.104982 0,5.406301" /><path
       inkscape:connector-curvature="0"
       id="path198"
       style="fill:none;stroke:#231f20;stroke-width:0.75000006;stroke-linecap:butt;stroke-linejoin:miter;stroke-miterlimit:4;stroke-opacity:1;stroke-dasharray:none"
       d="m 217.942,19.819507 0,4.222146" /><path
       inkscape:connector-curvature="0"
       id="path200"
       style="fill:none;stroke:#231f20;stroke-width:0.75;stroke-linecap:butt;stroke-linejoin:miter;stroke-miterlimit:4;stroke-opacity:1;stroke-dasharray:none"
       d="m 249.942,19.818455 0,4.224251" /><path
       inkscape:connector-curvature="0"
       id="path202"
       style="fill:none;stroke:#231f20;stroke-width:0.75;stroke-linecap:butt;stroke-linejoin:miter;stroke-miterlimit:4;stroke-opacity:1;stroke-dasharray:none"
       d="m 280.442,19.941515 0,4.680171" /><g
       id="g204"><text
         id="text206"
         transform="matrix(1,0,0,-1,10.3496,188.688)"><tspan
           id="tspan208"
           sodipodi:role="line"
           y="0"
           x="0 4.1700001 8.3400002"
           style="font-size:7.5px;font-variant:normal;font-weight:normal;writing-mode:lr-tb;fill:#231f20;fill-opacity:1;fill-rule:nonzero;stroke:none;font-family:Helvetica;-inkscape-font-specification:Helvetica">200</tspan><tspan
           id="tspan210"
           sodipodi:role="line"
           y="42.666401"
           x="0 4.1700001 8.3400002"
           style="font-size:7.5px;font-variant:normal;font-weight:normal;writing-mode:lr-tb;fill:#231f20;fill-opacity:1;fill-rule:nonzero;stroke:none;font-family:Helvetica;-inkscape-font-specification:Helvetica">150</tspan><tspan
           id="tspan212"
           sodipodi:role="line"
           y="85.666397"
           x="0 4.1700001 8.3400002"
           style="font-size:7.5px;font-variant:normal;font-weight:normal;writing-mode:lr-tb;fill:#231f20;fill-opacity:1;fill-rule:nonzero;stroke:none;font-family:Helvetica;-inkscape-font-specification:Helvetica">100</tspan><tspan
           id="tspan214"
           sodipodi:role="line"
           y="127.6664"
           x="4.16992 8.33992"
           style="font-size:7.5px;font-variant:normal;font-weight:normal;writing-mode:lr-tb;fill:#231f20;fill-opacity:1;fill-rule:nonzero;stroke:none;font-family:Helvetica;-inkscape-font-specification:Helvetica">50</tspan><tspan
           id="tspan216"
           y="171.1656"
           x="8.3398399"
           style="font-size:7.5px;font-variant:normal;font-weight:normal;writing-mode:lr-tb;fill:#231f20;fill-opacity:1;fill-rule:nonzero;stroke:none;font-family:Helvetica;-inkscape-font-specification:Helvetica">0</tspan></text>
<text
         id="text218"
         transform="matrix(0,1,1,0,6.4418,111.635)"><tspan
           id="tspan220"
           sodipodi:role="line"
           y="0"
           x="0 4.6339822 8.6917992 14.039844 18.209845 20.332111 22.417112 24.202271"
           style="font-size:7.5px;font-variant:normal;font-weight:normal;writing-mode:lr-tb;fill:#231f20;fill-opacity:1;fill-rule:nonzero;stroke:none;font-family:Helvetica;-inkscape-font-specification:Helvetica">Power, W</tspan></text>
</g><path
       inkscape:connector-curvature="0"
       id="path222"
       style="fill:none;stroke:#231f20;stroke-width:0.75;stroke-linecap:butt;stroke-linejoin:miter;stroke-miterlimit:4;stroke-opacity:1;stroke-dasharray:none"
       d="m 140.483,202.936 c 0,-1.542 -1.249,-2.791 -2.791,-2.791 -1.541,0 -2.791,1.249 -2.791,2.791 0,1.542 1.25,2.791 2.791,2.791 1.542,0 2.791,-1.249 2.791,-2.791 z" /><path
       inkscape:connector-curvature="0"
       id="path224"
       style="fill:#231f20;fill-opacity:1;fill-rule:nonzero;stroke:none"
       d="m 138.359,202.853 c 0,-0.369 -0.299,-0.667 -0.667,-0.667 -0.368,0 -0.666,0.298 -0.666,0.667 0,0.368 0.298,0.666 0.666,0.666 0.368,0 0.667,-0.298 0.667,-0.666" /><path
       inkscape:connector-curvature="0"
       id="path226"
       style="fill:none;stroke:#231f20;stroke-width:0.25;stroke-linecap:butt;stroke-linejoin:miter;stroke-miterlimit:4;stroke-opacity:1;stroke-dasharray:none"
       d="m 138.359,202.853 c 0,-0.369 -0.299,-0.667 -0.667,-0.667 -0.368,0 -0.666,0.298 -0.666,0.667 0,0.368 0.298,0.666 0.666,0.666 0.368,0 0.667,-0.298 0.667,-0.666 z" /><path
       inkscape:connector-curvature="0"
       id="path228"
       style="fill:none;stroke:#231f20;stroke-width:0.75;stroke-linecap:butt;stroke-linejoin:miter;stroke-miterlimit:4;stroke-opacity:1;stroke-dasharray:none"
       d="m 95.4824,177.936 c 0,-1.542 -1.2488,-2.791 -2.791,-2.791 -1.5398,0 -2.7898,1.249 -2.7898,2.791 0,1.542 1.25,2.791 2.7898,2.791 1.5422,0 2.791,-1.249 2.791,-2.791 z" /><path
       inkscape:connector-curvature="0"
       id="path230"
       style="fill:#231f20;fill-opacity:1;fill-rule:nonzero;stroke:none"
       d="m 93.3586,177.853 c 0,-0.368 -0.2981,-0.667 -0.6672,-0.667 -0.368,0 -0.666,0.299 -0.666,0.667 0,0.368 0.298,0.666 0.666,0.666 0.3691,0 0.6672,-0.298 0.6672,-0.666" /><path
       inkscape:connector-curvature="0"
       id="path232"
       style="fill:none;stroke:#231f20;stroke-width:0.25;stroke-linecap:butt;stroke-linejoin:miter;stroke-miterlimit:4;stroke-opacity:1;stroke-dasharray:none"
       d="m 93.3586,177.853 c 0,-0.368 -0.2981,-0.667 -0.6672,-0.667 -0.368,0 -0.666,0.299 -0.666,0.667 0,0.368 0.298,0.666 0.666,0.666 0.3691,0 0.6672,-0.298 0.6672,-0.666 z" /><path
       inkscape:connector-curvature="0"
       id="path234"
       style="fill:none;stroke:#231f20;stroke-width:0.75;stroke-linecap:butt;stroke-linejoin:miter;stroke-miterlimit:4;stroke-opacity:1;stroke-dasharray:none"
       d="m 94.6496,146.603 c 0,-1.542 -1.2492,-2.791 -2.791,-2.791 -1.541,0 -2.791,1.249 -2.791,2.791 0,1.542 1.25,2.791 2.791,2.791 1.5418,0 2.791,-1.249 2.791,-2.791 z" /><path
       inkscape:connector-curvature="0"
       id="path236"
       style="fill:#231f20;fill-opacity:1;fill-rule:nonzero;stroke:none"
       d="m 92.5246,146.519 c 0,-0.368 -0.298,-0.666 -0.666,-0.666 -0.368,0 -0.6672,0.298 -0.6672,0.666 0,0.369 0.2992,0.667 0.6672,0.667 0.368,0 0.666,-0.298 0.666,-0.667" /><path
       inkscape:connector-curvature="0"
       id="path238"
       style="fill:none;stroke:#231f20;stroke-width:0.25;stroke-linecap:butt;stroke-linejoin:miter;stroke-miterlimit:4;stroke-opacity:1;stroke-dasharray:none"
       d="m 92.5246,146.519 c 0,-0.368 -0.298,-0.666 -0.666,-0.666 -0.368,0 -0.6672,0.298 -0.6672,0.666 0,0.369 0.2992,0.667 0.6672,0.667 0.368,0 0.666,-0.298 0.666,-0.667 z" /><path
       inkscape:connector-curvature="0"
       id="path240"
       style="fill:none;stroke:#231f20;stroke-width:0.75;stroke-linecap:butt;stroke-linejoin:miter;stroke-miterlimit:4;stroke-opacity:1;stroke-dasharray:none"
       d="m 59.8164,153.27 c 0,-1.542 -1.2488,-2.791 -2.791,-2.791 -1.541,0 -2.791,1.249 -2.791,2.791 0,1.542 1.25,2.791 2.791,2.791 1.5422,0 2.791,-1.249 2.791,-2.791 z" /><path
       inkscape:connector-curvature="0"
       id="path242"
       style="fill:#231f20;fill-opacity:1;fill-rule:nonzero;stroke:none"
       d="m 57.6914,153.186 c 0,-0.368 -0.298,-0.666 -0.666,-0.666 -0.3688,0 -0.6668,0.298 -0.6668,0.666 0,0.368 0.298,0.667 0.6668,0.667 0.368,0 0.666,-0.299 0.666,-0.667" /><path
       inkscape:connector-curvature="0"
       id="path244"
       style="fill:none;stroke:#231f20;stroke-width:0.25;stroke-linecap:butt;stroke-linejoin:miter;stroke-miterlimit:4;stroke-opacity:1;stroke-dasharray:none"
       d="m 57.6914,153.186 c 0,-0.368 -0.298,-0.666 -0.666,-0.666 -0.3688,0 -0.6668,0.298 -0.6668,0.666 0,0.368 0.298,0.667 0.6668,0.667 0.368,0 0.666,-0.299 0.666,-0.667 z" /><path
       inkscape:connector-curvature="0"
       id="path246"
       style="fill:none;stroke:#231f20;stroke-width:0.75;stroke-linecap:butt;stroke-linejoin:miter;stroke-miterlimit:4;stroke-opacity:1;stroke-dasharray:none"
       d="m 59.8164,136.77 c 0,-1.542 -1.2488,-2.791 -2.791,-2.791 -1.541,0 -2.791,1.249 -2.791,2.791 0,1.542 1.25,2.791 2.791,2.791 1.5422,0 2.791,-1.249 2.791,-2.791 z" /><path
       inkscape:connector-curvature="0"
       id="path248"
       style="fill:#231f20;fill-opacity:1;fill-rule:nonzero;stroke:none"
       d="m 57.6914,136.686 c 0,-0.368 -0.298,-0.666 -0.666,-0.666 -0.3688,0 -0.6668,0.298 -0.6668,0.666 0,0.369 0.298,0.667 0.6668,0.667 0.368,0 0.666,-0.298 0.666,-0.667" /><path
       inkscape:connector-curvature="0"
       id="path250"
       style="fill:none;stroke:#231f20;stroke-width:0.25;stroke-linecap:butt;stroke-linejoin:miter;stroke-miterlimit:4;stroke-opacity:1;stroke-dasharray:none"
       d="m 57.6914,136.686 c 0,-0.368 -0.298,-0.666 -0.666,-0.666 -0.3688,0 -0.6668,0.298 -0.6668,0.666 0,0.369 0.298,0.667 0.6668,0.667 0.368,0 0.666,-0.298 0.666,-0.667 z" /><path
       inkscape:connector-curvature="0"
       id="path252"
       style="fill:none;stroke:#231f20;stroke-width:0.75;stroke-linecap:butt;stroke-linejoin:miter;stroke-miterlimit:4;stroke-opacity:1;stroke-dasharray:none"
       d="m 27.9824,134.936 c 0,-1.542 -1.2488,-2.791 -2.791,-2.791 -1.541,0 -2.791,1.249 -2.791,2.791 0,1.542 1.25,2.791 2.791,2.791 1.5422,0 2.791,-1.249 2.791,-2.791 z" /><path
       inkscape:connector-curvature="0"
       id="path254"
       style="fill:#231f20;fill-opacity:1;fill-rule:nonzero;stroke:none"
       d="m 25.8586,134.853 c 0,-0.368 -0.2981,-0.667 -0.6672,-0.667 -0.368,0 -0.666,0.299 -0.666,0.667 0,0.368 0.298,0.666 0.666,0.666 0.3691,0 0.6672,-0.298 0.6672,-0.666" /><path
       inkscape:connector-curvature="0"
       id="path256"
       style="fill:none;stroke:#231f20;stroke-width:0.25;stroke-linecap:butt;stroke-linejoin:miter;stroke-miterlimit:4;stroke-opacity:1;stroke-dasharray:none"
       d="m 25.8586,134.853 c 0,-0.368 -0.2981,-0.667 -0.6672,-0.667 -0.368,0 -0.666,0.299 -0.666,0.667 0,0.368 0.298,0.666 0.666,0.666 0.3691,0 0.6672,-0.298 0.6672,-0.666 z" /><path
       inkscape:connector-curvature="0"
       id="path258"
       style="fill:none;stroke:#231f20;stroke-width:0.75;stroke-linecap:butt;stroke-linejoin:miter;stroke-miterlimit:4;stroke-opacity:1;stroke-dasharray:none"
       d="m 27.9824,123.603 c 0,-1.541 -1.2488,-2.791 -2.791,-2.791 -1.541,0 -2.791,1.25 -2.791,2.791 0,1.542 1.25,2.792 2.791,2.792 1.5422,0 2.791,-1.25 2.791,-2.792 z" /><path
       inkscape:connector-curvature="0"
       id="path260"
       style="fill:#231f20;fill-opacity:1;fill-rule:nonzero;stroke:none"
       d="m 25.8586,123.52 c 0,-0.368 -0.2981,-0.667 -0.6672,-0.667 -0.368,0 -0.666,0.299 -0.666,0.667 0,0.368 0.298,0.667 0.666,0.667 0.3691,0 0.6672,-0.299 0.6672,-0.667" /><path
       inkscape:connector-curvature="0"
       id="path262"
       style="fill:none;stroke:#231f20;stroke-width:0.25;stroke-linecap:butt;stroke-linejoin:miter;stroke-miterlimit:4;stroke-opacity:1;stroke-dasharray:none"
       d="m 25.8586,123.52 c 0,-0.368 -0.2981,-0.667 -0.6672,-0.667 -0.368,0 -0.666,0.299 -0.666,0.667 0,0.368 0.298,0.667 0.666,0.667 0.3691,0 0.6672,-0.299 0.6672,-0.667 z" /><path
       inkscape:connector-curvature="0"
       id="path264"
       style="fill:none;stroke:#231f20;stroke-width:0.75;stroke-linecap:butt;stroke-linejoin:miter;stroke-miterlimit:4;stroke-opacity:1;stroke-dasharray:none"
       d="m 185.483,184.77 c 0,-1.542 -1.249,-2.791 -2.791,-2.791 -1.541,0 -2.791,1.249 -2.791,2.791 0,1.542 1.25,2.791 2.791,2.791 1.542,0 2.791,-1.249 2.791,-2.791 z" /><path
       inkscape:connector-curvature="0"
       id="path266"
       style="fill:#231f20;fill-opacity:1;fill-rule:nonzero;stroke:none"
       d="m 183.359,184.686 c 0,-0.368 -0.299,-0.666 -0.667,-0.666 -0.368,0 -0.666,0.298 -0.666,0.666 0,0.368 0.298,0.667 0.666,0.667 0.368,0 0.667,-0.299 0.667,-0.667" /><path
       inkscape:connector-curvature="0"
       id="path268"
       style="fill:none;stroke:#231f20;stroke-width:0.25;stroke-linecap:butt;stroke-linejoin:miter;stroke-miterlimit:4;stroke-opacity:1;stroke-dasharray:none"
       d="m 183.359,184.686 c 0,-0.368 -0.299,-0.666 -0.667,-0.666 -0.368,0 -0.666,0.298 -0.666,0.666 0,0.368 0.298,0.667 0.666,0.667 0.368,0 0.667,-0.299 0.667,-0.667 z" /><path
       inkscape:connector-curvature="0"
       id="path270"
       style="fill:none;stroke:#231f20;stroke-width:0.75;stroke-linecap:butt;stroke-linejoin:miter;stroke-miterlimit:4;stroke-opacity:1;stroke-dasharray:none"
       d="m 185.316,151.27 c 0,-1.542 -1.248,-2.791 -2.79,-2.791 -1.541,0 -2.791,1.249 -2.791,2.791 0,1.542 1.25,2.791 2.791,2.791 1.542,0 2.79,-1.249 2.79,-2.791 z" /><path
       inkscape:connector-curvature="0"
       id="path272"
       style="fill:#231f20;fill-opacity:1;fill-rule:nonzero;stroke:none"
       d="m 183.192,151.186 c 0,-0.368 -0.298,-0.666 -0.666,-0.666 -0.369,0 -0.667,0.298 -0.667,0.666 0,0.369 0.298,0.667 0.667,0.667 0.368,0 0.666,-0.298 0.666,-0.667" /><path
       inkscape:connector-curvature="0"
       id="path274"
       style="fill:none;stroke:#231f20;stroke-width:0.25;stroke-linecap:butt;stroke-linejoin:miter;stroke-miterlimit:4;stroke-opacity:1;stroke-dasharray:none"
       d="m 183.192,151.186 c 0,-0.368 -0.298,-0.666 -0.666,-0.666 -0.369,0 -0.667,0.298 -0.667,0.666 0,0.369 0.298,0.667 0.667,0.667 0.368,0 0.666,-0.298 0.666,-0.667 z" /><path
       inkscape:connector-curvature="0"
       id="path276"
       style="fill:none;stroke:#231f20;stroke-width:0.75;stroke-linecap:butt;stroke-linejoin:miter;stroke-miterlimit:4;stroke-opacity:1;stroke-dasharray:none"
       d="m 139.983,172.436 c 0,-1.542 -1.249,-2.791 -2.791,-2.791 -1.541,0 -2.791,1.249 -2.791,2.791 0,1.542 1.25,2.791 2.791,2.791 1.542,0 2.791,-1.249 2.791,-2.791 z" /><path
       inkscape:connector-curvature="0"
       id="path278"
       style="fill:#231f20;fill-opacity:1;fill-rule:nonzero;stroke:none"
       d="m 137.859,172.353 c 0,-0.368 -0.299,-0.667 -0.667,-0.667 -0.368,0 -0.666,0.299 -0.666,0.667 0,0.368 0.298,0.666 0.666,0.666 0.368,0 0.667,-0.298 0.667,-0.666" /><path
       inkscape:connector-curvature="0"
       id="path280"
       style="fill:none;stroke:#231f20;stroke-width:0.25;stroke-linecap:butt;stroke-linejoin:miter;stroke-miterlimit:4;stroke-opacity:1;stroke-dasharray:none"
       d="m 137.859,172.353 c 0,-0.368 -0.299,-0.667 -0.667,-0.667 -0.368,0 -0.666,0.299 -0.666,0.667 0,0.368 0.298,0.666 0.666,0.666 0.368,0 0.667,-0.298 0.667,-0.666 z" /><path
       inkscape:connector-curvature="0"
       id="path282"
       style="fill:none;stroke:#231f20;stroke-width:0.75;stroke-linecap:butt;stroke-linejoin:miter;stroke-miterlimit:4;stroke-opacity:1;stroke-dasharray:none"
       d="m 255.649,152.103 c 0,-1.542 -1.248,-2.791 -2.791,-2.791 -1.541,0 -2.791,1.249 -2.791,2.791 0,1.542 1.25,2.791 2.791,2.791 1.543,0 2.791,-1.249 2.791,-2.791 z" /><path
       inkscape:connector-curvature="0"
       id="path284"
       style="fill:#231f20;fill-opacity:1;fill-rule:nonzero;stroke:none"
       d="m 253.525,152.019 c 0,-0.368 -0.298,-0.666 -0.667,-0.666 -0.368,0 -0.666,0.298 -0.666,0.666 0,0.368 0.298,0.667 0.666,0.667 0.369,0 0.667,-0.299 0.667,-0.667" /><path
       inkscape:connector-curvature="0"
       id="path286"
       style="fill:none;stroke:#231f20;stroke-width:0.25;stroke-linecap:butt;stroke-linejoin:miter;stroke-miterlimit:4;stroke-opacity:1;stroke-dasharray:none"
       d="m 253.525,152.019 c 0,-0.368 -0.298,-0.666 -0.667,-0.666 -0.368,0 -0.666,0.298 -0.666,0.666 0,0.368 0.298,0.667 0.666,0.667 0.369,0 0.667,-0.299 0.667,-0.667 z" /><path
       inkscape:connector-curvature="0"
       id="path288"
       style="fill:none;stroke:#231f20;stroke-width:0.75;stroke-linecap:butt;stroke-linejoin:miter;stroke-miterlimit:4;stroke-opacity:1;stroke-dasharray:none"
       d="m 255.649,109.77 c 0,-1.542 -1.248,-2.791 -2.791,-2.791 -1.541,0 -2.791,1.249 -2.791,2.791 0,1.542 1.25,2.791 2.791,2.791 1.543,0 2.791,-1.249 2.791,-2.791 z" /><path
       inkscape:connector-curvature="0"
       id="path290"
       style="fill:#231f20;fill-opacity:1;fill-rule:nonzero;stroke:none"
       d="m 253.525,109.686 c 0,-0.368 -0.298,-0.666 -0.667,-0.666 -0.368,0 -0.666,0.298 -0.666,0.666 0,0.368 0.298,0.667 0.666,0.667 0.369,0 0.667,-0.299 0.667,-0.667" /><path
       inkscape:connector-curvature="0"
       id="path292"
       style="fill:none;stroke:#231f20;stroke-width:0.25;stroke-linecap:butt;stroke-linejoin:miter;stroke-miterlimit:4;stroke-opacity:1;stroke-dasharray:none"
       d="m 253.525,109.686 c 0,-0.368 -0.298,-0.666 -0.667,-0.666 -0.368,0 -0.666,0.298 -0.666,0.666 0,0.368 0.298,0.667 0.666,0.667 0.369,0 0.667,-0.299 0.667,-0.667 z" /><path
       inkscape:connector-curvature="0"
       id="path294"
       style="fill:none;stroke:#231f20;stroke-width:1;stroke-linecap:butt;stroke-linejoin:miter;stroke-miterlimit:4;stroke-opacity:1;stroke-dasharray:4, 2;stroke-dashoffset:0"
       d="m 25.6926,135.186 c 6,3 26.25,14.75 35,20.5 8.75,5.75 25.5,17.25 32.4988,22.75 7.0006,5.5 33.0006,23.5 44.7506,24.5 11.75,1 26.5,1 47.5,-11.5 21,-12.5 51.75,-32.5 61,-39 9.25,-6.5 49.999,-41.249 64.499,-66.2489 M 25.5254,123.353 c 13,4.334 30.666,9 45.3332,17 14.6668,8 31.0004,17.666 37.6674,22 6.666,4.333 30.999,19 58.666,3.333 27.667,-15.666 74.667,-47.666 142.999,-106.9989" /><g
       id="g296"><text
         id="text298"
         transform="matrix(1,0,0,-1,21.023,11.0219)"><tspan
           id="tspan300"
           sodipodi:role="line"
           y="0"
           x="0 4.1700001 31.664925 35.834927 63.660301 67.830299 95.655296 99.825302 127.98743 132.15813 158.56519 162.73518 166.9055 190.89027 195.06027 199.23058 222.72043 226.89043 231.06035 253.55255 257.72256 261.89255"
           style="font-size:7.5px;font-variant:normal;font-weight:normal;writing-mode:lr-tb;fill:#231f20;fill-opacity:1;fill-rule:nonzero;stroke:none;font-family:Helvetica;-inkscape-font-specification:Helvetica">5060708090100110120130</tspan><tspan
           id="tspan302"
           sodipodi:role="line"
           y="9.3339796"
           x="95.555099 100.9701 105.1401 109.3101 113.4801 117.6501 121.4001 125.5701 127.6551 130.15189 134.09799 137.65971 141.82971 143.49471 147.6647 149.74971 151.4147 155.5847 159.7547 163.5047 165.58971 169.7597 173.9306 176.42812 178.51311 184.7606 186.42508 190.5282 194.6982 196.7832"
           style="font-size:7.5px;font-variant:normal;font-weight:normal;writing-mode:lr-tb;fill:#231f20;fill-opacity:1;fill-rule:nonzero;stroke:none;font-family:Helvetica;-inkscape-font-specification:Helvetica">Cadence revolutions per minute</tspan></text>
</g><path
       inkscape:connector-curvature="0"
       id="path304"
       style="fill:#ffffff;fill-opacity:1;fill-rule:nonzero;stroke:none"
       d="m 33.6094,154.436 19.5,0 0,8 -19.5,0 0,-8 z" /><g
       id="g306"><text
         id="text308"
         transform="matrix(1,0,0,-1,33.5645,155.937)"><tspan
           id="tspan310"
           sodipodi:role="line"
           y="0"
           x="0 4.1700001 8.3400002 12.51"
           style="font-size:7.5px;font-variant:normal;font-weight:normal;writing-mode:lr-tb;fill:#231f20;fill-opacity:1;fill-rule:nonzero;stroke:none;font-family:Helvetica;-inkscape-font-specification:Helvetica">156W</tspan></text>
</g><path
       inkscape:connector-curvature="0"
       id="path312"
       style="fill:#ffffff;fill-opacity:1;fill-rule:nonzero;stroke:none"
       d="m 73.6094,181.436 19.5,0 0,8 -19.5,0 0,-8 z" /><g
       id="g314"><text
         id="text316"
         transform="matrix(1,0,0,-1,73.5648,182.937)"><tspan
           id="tspan318"
           sodipodi:role="line"
           y="0"
           x="0 4.1700001 8.3400002 12.51"
           style="font-size:7.5px;font-variant:normal;font-weight:normal;writing-mode:lr-tb;fill:#231f20;fill-opacity:1;fill-rule:nonzero;stroke:none;font-family:Helvetica;-inkscape-font-specification:Helvetica">186W</tspan></text>
</g><path
       inkscape:connector-curvature="0"
       id="path320"
       style="fill:#ffffff;fill-opacity:1;fill-rule:nonzero;stroke:none"
       d="m 29.1094,115.103 19.5,0 0,8 -19.5,0 0,-8 z" /><g
       id="g322"><text
         id="text324"
         transform="matrix(1,0,0,-1,29.0645,116.604)"><tspan
           id="tspan326"
           sodipodi:role="line"
           y="0"
           x="0 4.1700001 8.3400002 12.51"
           style="font-size:7.5px;font-variant:normal;font-weight:normal;writing-mode:lr-tb;fill:#231f20;fill-opacity:1;fill-rule:nonzero;stroke:none;font-family:Helvetica;-inkscape-font-specification:Helvetica">121W</tspan></text>
</g><path
       inkscape:connector-curvature="0"
       id="path328"
       style="fill:#ffffff;fill-opacity:1;fill-rule:nonzero;stroke:none"
       d="m 58.6094,125.437 19.5,0 0,8 -19.5,0 0,-8 z" /><g
       id="g330"><text
         id="text332"
         transform="matrix(1,0,0,-1,58.5648,126.938)"><tspan
           id="tspan334"
           sodipodi:role="line"
           y="0"
           x="0 4.1700001 8.3400002 12.51"
           style="font-size:7.5px;font-variant:normal;font-weight:normal;writing-mode:lr-tb;fill:#231f20;fill-opacity:1;fill-rule:nonzero;stroke:none;font-family:Helvetica;-inkscape-font-specification:Helvetica">137W</tspan></text>
</g><path
       inkscape:connector-curvature="0"
       id="path336"
       style="fill:#ffffff;fill-opacity:1;fill-rule:nonzero;stroke:none"
       d="m 94.7754,136.27 19.5008,0 0,8 -19.5008,0 0,-8 z" /><g
       id="g338"><text
         id="text340"
         transform="matrix(1,0,0,-1,94.7309,137.771)"><tspan
           id="tspan342"
           sodipodi:role="line"
           y="0"
           x="0 4.1700001 8.3400002 12.51"
           style="font-size:7.5px;font-variant:normal;font-weight:normal;writing-mode:lr-tb;fill:#231f20;fill-opacity:1;fill-rule:nonzero;stroke:none;font-family:Helvetica;-inkscape-font-specification:Helvetica">148W</tspan></text>
</g><path
       inkscape:connector-curvature="0"
       id="path344"
       style="fill:#ffffff;fill-opacity:1;fill-rule:nonzero;stroke:none"
       d="m 170.526,138.52 19.5,0 0,8 -19.5,0 0,-8 z" /><g
       id="g346"><text
         id="text348"
         transform="matrix(1,0,0,-1,170.48,140.021)"><tspan
           id="tspan350"
           sodipodi:role="line"
           y="0"
           x="0 4.1700001 8.3400002 12.51"
           style="font-size:7.5px;font-variant:normal;font-weight:normal;writing-mode:lr-tb;fill:#231f20;fill-opacity:1;fill-rule:nonzero;stroke:none;font-family:Helvetica;-inkscape-font-specification:Helvetica">155W</tspan></text>
</g><path
       inkscape:connector-curvature="0"
       id="path352"
       style="fill:#ffffff;fill-opacity:1;fill-rule:nonzero;stroke:none"
       d="m 180.026,172.77 19.4988,0 0,8 -19.4988,0 0,-8 z" /><g
       id="g354"><text
         id="text356"
         transform="matrix(1,0,0,-1,179.98,174.271)"><tspan
           id="tspan358"
           sodipodi:role="line"
           y="0"
           x="0 4.1700001 8.3400002 12.51"
           style="font-size:7.5px;font-variant:normal;font-weight:normal;writing-mode:lr-tb;fill:#231f20;fill-opacity:1;fill-rule:nonzero;stroke:none;font-family:Helvetica;-inkscape-font-specification:Helvetica">194W</tspan></text>
</g><path
       inkscape:connector-curvature="0"
       id="path360"
       style="fill:#ffffff;fill-opacity:1;fill-rule:nonzero;stroke:none"
       d="m 254.025,155.52 19.5,0 0,8 -19.5,0 0,-8 z" /><g
       id="g362"><text
         id="text364"
         transform="matrix(1,0,0,-1,253.979,157.021)"><tspan
           id="tspan366"
           sodipodi:role="line"
           y="0"
           x="0 4.1700001 8.3400002 12.51"
           style="font-size:7.5px;font-variant:normal;font-weight:normal;writing-mode:lr-tb;fill:#231f20;fill-opacity:1;fill-rule:nonzero;stroke:none;font-family:Helvetica;-inkscape-font-specification:Helvetica">155W</tspan></text>
</g><path
       inkscape:connector-curvature="0"
       id="path368"
       style="fill:#ffffff;fill-opacity:1;fill-rule:nonzero;stroke:none"
       d="m 292.024,83.0211 15.25,0 0,8 -15.25,0 0,-8 z" /><g
       id="g370"><text
         id="text372"
         transform="matrix(1,0,0,-1,292.064,84.5219)"><tspan
           id="tspan374"
           sodipodi:role="line"
           y="0"
           x="0 4.1700001 8.3400002"
           style="font-size:7.5px;font-variant:normal;font-weight:normal;writing-mode:lr-tb;fill:#231f20;fill-opacity:1;fill-rule:nonzero;stroke:none;font-family:Helvetica;-inkscape-font-specification:Helvetica">80W</tspan></text>
</g><path
       inkscape:connector-curvature="0"
       id="path376"
       style="fill:#ffffff;fill-opacity:1;fill-rule:nonzero;stroke:none"
       d="m 292.274,51.2711 15.25,0 0,8 -15.25,0 0,-8 z" /><g
       id="g378"><text
         id="text380"
         transform="matrix(1,0,0,-1,292.064,53.0219)"><tspan
           id="tspan382"
           sodipodi:role="line"
           y="0"
           x="0 4.1700001 8.3400002"
           style="font-size:7.5px;font-variant:normal;font-weight:normal;writing-mode:lr-tb;fill:#231f20;fill-opacity:1;fill-rule:nonzero;stroke:none;font-family:Helvetica;-inkscape-font-specification:Helvetica">41W</tspan></text>
</g><path
       inkscape:connector-curvature="0"
       id="path384"
       style="fill:#ffffff;fill-opacity:1;fill-rule:nonzero;stroke:none"
       d="m 227.275,102.021 19.5,0 0,8 -19.5,0 0,-8 z" /><g
       id="g386"><text
         id="text388"
         transform="matrix(1,0,0,-1,227.229,103.522)"><tspan
           id="tspan390"
           sodipodi:role="line"
           y="0"
           x="0 4.1700001 8.3400002 12.51"
           style="font-size:7.5px;font-variant:normal;font-weight:normal;writing-mode:lr-tb;fill:#231f20;fill-opacity:1;fill-rule:nonzero;stroke:none;font-family:Helvetica;-inkscape-font-specification:Helvetica">107W</tspan></text>
</g><path
       inkscape:connector-curvature="0"
       id="path392"
       style="fill:#ffffff;fill-opacity:1;fill-rule:nonzero;stroke:none"
       d="m 128.442,206.603 19.5,0 0,8 -19.5,0 0,-8 z" /><g
       id="g394"><text
         id="text396"
         transform="matrix(1,0,0,-1,128.396,208.104)"><tspan
           id="tspan398"
           sodipodi:role="line"
           y="0"
           x="0 4.1700001 8.3400002 12.51"
           style="font-size:7.5px;font-variant:normal;font-weight:normal;writing-mode:lr-tb;fill:#231f20;fill-opacity:1;fill-rule:nonzero;stroke:none;font-family:Helvetica;-inkscape-font-specification:Helvetica">215W</tspan></text>
</g><path
       inkscape:connector-curvature="0"
       id="path400"
       style="fill:#ffffff;fill-opacity:1;fill-rule:nonzero;stroke:none"
       d="m 129.109,159.937 19.5,0 0,8 -19.5,0 0,-8 z" /><g
       id="g402"><text
         id="text404"
         transform="matrix(1,0,0,-1,129.064,161.438)"><tspan
           id="tspan406"
           sodipodi:role="line"
           y="0"
           x="0 4.1700001 8.3400002 12.51"
           style="font-size:7.5px;font-variant:normal;font-weight:normal;writing-mode:lr-tb;fill:#231f20;fill-opacity:1;fill-rule:nonzero;stroke:none;font-family:Helvetica;-inkscape-font-specification:Helvetica">179W</tspan></text>
</g><path
       inkscape:connector-curvature="0"
       id="path408"
       style="fill:#ffffff;fill-opacity:1;fill-rule:nonzero;stroke:none"
       d="m 27.2754,138.103 19.5,0 0,8 -19.5,0 0,-8 z" /><g
       id="g410"><text
         id="text412"
         transform="matrix(1,0,0,-1,27.2309,139.604)"><tspan
           id="tspan414"
           sodipodi:role="line"
           y="0"
           x="0 4.1700001 8.3400002 12.51"
           style="font-size:7.5px;font-variant:normal;font-weight:normal;writing-mode:lr-tb;fill:#231f20;fill-opacity:1;fill-rule:nonzero;stroke:none;font-family:Helvetica;-inkscape-font-specification:Helvetica">134W</tspan></text>
</g><path
       inkscape:connector-curvature="0"
       id="path416"
       style="fill:#ffffff;fill-opacity:1;fill-rule:nonzero;stroke:none"
       d="m 121.859,149.187 30,0 0,8.66602 -30,0 0,-8.66602 z" /><g
       id="g418"><text
         id="text420"
         transform="matrix(1,0,0,-1,123.609,150.854)"><tspan
           id="tspan422"
           sodipodi:role="line"
           y="0"
           x="0 4.3648486 8.5348482 11.031626 16.34178 20.51178 23.009279"
           style="font-size:7.5px;font-variant:normal;font-weight:normal;writing-mode:lr-tb;fill:#231f20;fill-opacity:1;fill-rule:nonzero;stroke:none;font-family:Helvetica;-inkscape-font-specification:Helvetica">Forward</tspan></text>
</g><path
       inkscape:connector-curvature="0"
       id="path424"
       style="fill:#ffffff;fill-opacity:1;fill-rule:nonzero;stroke:none"
       d="m 119.776,217.353 34.25,0 0,8.66602 -34.25,0 0,-8.66602 z" /><g
       id="g426"><text
         id="text428"
         transform="matrix(1,0,0,-1,120.527,219.02)"><tspan
           id="tspan430"
           sodipodi:role="line"
           y="0"
           x="0 5.0025001 9.1719332 12.780137 16.530138 21.84029 26.01029 28.507792"
           style="font-size:7.5px;font-variant:normal;font-weight:normal;writing-mode:lr-tb;fill:#231f20;fill-opacity:1;fill-rule:nonzero;stroke:none;font-family:Helvetica;-inkscape-font-specification:Helvetica">Backward</tspan></text>
</g><rect
       style="fill:#ffffff;fill-opacity:1;fill-rule:evenodd;stroke:none"
       id="rect4025"
       width="265.0213"
       height="10.179626"
       x="32.996029"
       y="-33.698067"
       transform="scale(1,-1)" /></g></svg>