<?xml version="1.0" encoding="UTF-8" standalone="no"?>
<!-- Created with Inkscape (http://www.inkscape.org/) -->

<svg
   xmlns:dc="http://purl.org/dc/elements/1.1/"
   xmlns:cc="http://creativecommons.org/ns#"
   xmlns:rdf="http://www.w3.org/1999/02/22-rdf-syntax-ns#"
   xmlns:svg="http://www.w3.org/2000/svg"
   xmlns="http://www.w3.org/2000/svg"
   xmlns:sodipodi="http://sodipodi.sourceforge.net/DTD/sodipodi-0.dtd"
   xmlns:inkscape="http://www.inkscape.org/namespaces/inkscape"
   id="svg2"
   version="1.1"
   inkscape:version="0.48.4 r9939"
   width="821.81348"
   height="539.36633"
   xml:space="preserve"
   sodipodi:docname="Wilson_005_fig_020b.svg"
   inkscape:export-filename="/home/theo/HPV/BicyclingScience/BS4-chapter5/Wilson_005_fig_020b.png"
   inkscape:export-xdpi="400.01001"
   inkscape:export-ydpi="400.01001"><metadata
     id="metadata8"><rdf:RDF><cc:Work
         rdf:about=""><dc:format>image/svg+xml</dc:format><dc:type
           rdf:resource="http://purl.org/dc/dcmitype/StillImage" /><dc:title></dc:title></cc:Work></rdf:RDF></metadata><defs
     id="defs6"><marker
       inkscape:stockid="Arrow1Mend"
       orient="auto"
       refY="0"
       refX="0"
       id="Arrow1Mend"
       style="overflow:visible"><path
         id="path3778"
         d="M 0,0 5,-5 -12.5,0 5,5 0,0 z"
         style="fill-rule:evenodd;stroke:#000000;stroke-width:1pt"
         transform="matrix(-0.4,0,0,-0.4,-4,0)"
         inkscape:connector-curvature="0" /></marker><marker
       style="overflow:visible"
       id="DistanceStart"
       refX="0"
       refY="0"
       orient="auto"
       inkscape:stockid="DistanceStart"><g
         id="g2300"><path
           style="fill:none;stroke:#ffffff;stroke-width:1.14999998;stroke-linecap:square"
           d="M 0,0 2,0"
           id="path2306"
           inkscape:connector-curvature="0" /><path
           style="fill:#000000;fill-rule:evenodd;stroke:none"
           d="M 0,0 13,4 9,0 13,-4 0,0 z"
           id="path2302"
           inkscape:connector-curvature="0" /><path
           style="fill:none;stroke:#000000;stroke-width:1;stroke-linecap:square"
           d="M 0,-4 0,40"
           id="path2304"
           inkscape:connector-curvature="0" /></g></marker><marker
       inkscape:stockid="Arrow2Sstart"
       orient="auto"
       refY="0"
       refX="0"
       id="Arrow2Sstart"
       style="overflow:visible"><path
         id="path3799"
         style="fill-rule:evenodd;stroke-width:0.625;stroke-linejoin:round"
         d="M 8.7185878,4.0337352 -2.2072895,0.01601326 8.7185884,-4.0017078 c -1.7454984,2.3720609 -1.7354408,5.6174519 -6e-7,8.035443 z"
         transform="matrix(0.3,0,0,0.3,-0.69,0)"
         inkscape:connector-curvature="0" /></marker><marker
       inkscape:stockid="Arrow2Mend"
       orient="auto"
       refY="0"
       refX="0"
       id="Arrow2Mend"
       style="overflow:visible"><path
         id="path3796"
         style="fill-rule:evenodd;stroke-width:0.625;stroke-linejoin:round"
         d="M 8.7185878,4.0337352 -2.2072895,0.01601326 8.7185884,-4.0017078 c -1.7454984,2.3720609 -1.7354408,5.6174519 -6e-7,8.035443 z"
         transform="scale(-0.6,-0.6)"
         inkscape:connector-curvature="0" /></marker><marker
       inkscape:stockid="Arrow2Mstart"
       orient="auto"
       refY="0"
       refX="0"
       id="Arrow2Mstart"
       style="overflow:visible"><path
         id="path3793"
         style="fill-rule:evenodd;stroke-width:0.625;stroke-linejoin:round"
         d="M 8.7185878,4.0337352 -2.2072895,0.01601326 8.7185884,-4.0017078 c -1.7454984,2.3720609 -1.7354408,5.6174519 -6e-7,8.035443 z"
         transform="scale(0.6,0.6)"
         inkscape:connector-curvature="0" /></marker><marker
       inkscape:stockid="Arrow2Lend"
       orient="auto"
       refY="0"
       refX="0"
       id="Arrow2Lend"
       style="overflow:visible"><path
         id="path3790"
         style="fill-rule:evenodd;stroke-width:0.625;stroke-linejoin:round"
         d="M 8.7185878,4.0337352 -2.2072895,0.01601326 8.7185884,-4.0017078 c -1.7454984,2.3720609 -1.7354408,5.6174519 -6e-7,8.035443 z"
         transform="matrix(-1.1,0,0,-1.1,-1.1,0)"
         inkscape:connector-curvature="0" /></marker></defs><sodipodi:namedview
     pagecolor="#ffffff"
     bordercolor="#666666"
     borderopacity="1"
     objecttolerance="10"
     gridtolerance="10"
     guidetolerance="10"
     inkscape:pageopacity="0"
     inkscape:pageshadow="2"
     inkscape:window-width="1600"
     inkscape:window-height="1127"
     id="namedview4"
     showgrid="false"
     inkscape:zoom="1.4142136"
     inkscape:cx="484.08463"
     inkscape:cy="262.32758"
     inkscape:window-x="-3"
     inkscape:window-y="-3"
     inkscape:window-maximized="1"
     inkscape:current-layer="g10"
     units="mm"
     fit-margin-top="5"
     fit-margin-right="5"
     fit-margin-bottom="5"
     fit-margin-left="5"
     showguides="true"
     inkscape:guide-bbox="true" /><g
     id="g10"
     inkscape:groupmode="layer"
     inkscape:label="SCAN0000"
     transform="matrix(1.25,0,0,-1.25,105.06813,767.80022)"><path
       style="fill:none;stroke:#000000;stroke-width:1.77165353;stroke-linecap:butt;stroke-linejoin:miter;stroke-miterlimit:4;stroke-opacity:1;stroke-dasharray:none;marker-start:url(#Arrow2Mstart);marker-end:url(#Arrow2Mend)"
       d="m 316.01987,333.37149 c 0,0 -7.96016,-8.41848 -12.60927,-11.82119 -6.07392,-4.44554 -12.51829,-8.78593 -19.70199,-11.03311 -9.39293,-2.93826 -19.73132,-4.71665 -29.38976,-2.82589 -13.59283,2.66097 -25.96465,10.66323 -36.80891,19.27994 -15.76851,12.52946 -28.27452,29.01826 -39.40398,45.80422 -20.36846,30.72063 -38.82531,67.24326 -57.5298,104.0265 -47.586221,93.5805 0,0 -137.913909,278.19205 303.739969,-298.6945 199.011799,-197.4053 298.682119,-293.16556 10.92803,-10.49932 23.85639,-19.34855 37.82782,-25.21855 9.4048,-3.95136 19.75134,-6.63872 29.94702,-6.30463 6.81625,0.22335 13.5637,2.54458 19.70199,5.51655 3.21591,1.55704 6.10283,3.8183 8.66887,6.30464 3.07888,2.98325 7.889,10.15762 7.889,10.15762"
       id="path2991"
       inkscape:connector-curvature="0"
       sodipodi:nodetypes="caaaasscsaaaac"
       transform="matrix(0.8,0,0,-0.8,0,841.68)" /><path
       style="fill:none;stroke:#000000;stroke-width:1.77165353;stroke-linecap:butt;stroke-linejoin:miter;stroke-miterlimit:4;stroke-opacity:1;stroke-dasharray:none;marker-start:url(#Arrow2Mstart)"
       d="m 551.98207,411.94862 c 0,0 -0.4102,-7.9708 -1.90259,-11.59037 -1.03482,-2.5098 -2.61875,-4.92256 -4.72848,-6.63107 -3.11642,-2.52375 -7.03696,-4.46131 -11.03311,-4.79609 -15.23764,-1.27655 -30.55543,4.81823 -44.52649,11.03312 -26.79441,11.91922 -49.54386,31.51736 -72.89736,49.25496 -36.80389,27.95353 -69.71804,60.71683 -105.60265,89.84106 -29.66047,24.07267 -59.7667,47.62804 -90.62914,70.13908 -29.99367,21.87736 -59.41847,41.9946 -91.81125,63.04636 -46.196765,30.02284 -144.590427,83.04058 -145.400669,81.96026 0,0 70.514817,-15.08172 104.814571,-26.00662 39.787968,-12.67296 79.223408,-27.16131 116.635758,-45.70861 42.98818,-21.31154 84.19789,-46.56236 122.9404,-74.86755 83.0915,-60.70646 158.10451,-123.65132 241.15232,-179.68212 18.37504,-12.39729 36.21257,-26.31557 56.74173,-34.6755 17.92019,-7.2975 39.88028,-6.54279 37.82781,-5.51656"
       id="path2993"
       inkscape:connector-curvature="0"
       transform="matrix(0.8,0,0,-0.8,0,841.68)"
       sodipodi:nodetypes="caaaaaaascaasssc" /><path
       style="fill:none;stroke:#000000;stroke-width:1.77165353;stroke-linecap:butt;stroke-linejoin:miter;stroke-miterlimit:4;stroke-opacity:1;stroke-dasharray:none;marker-end:url(#Arrow1Mend)"
       d="m 677.74835,392.08341 c 0,0 6.98559,4.02367 9.45696,7.09272 3.79632,4.71443 5.70348,13.97832 5.51655,13.79139 l 1.57616,5.71358"
       id="path2995"
       inkscape:connector-curvature="0"
       transform="matrix(0.8,0,0,-0.8,0,841.68)"
       sodipodi:nodetypes="cscc" /><path
       style="fill:none;stroke:#000000;stroke-width:0.99212599;stroke-linecap:butt;stroke-linejoin:miter;stroke-miterlimit:4;stroke-opacity:1;stroke-dasharray:none"
       d="m -14.185431,238.07883 566.786761,0"
       id="path6134"
       inkscape:connector-curvature="0" /><path
       style="fill:none;stroke:#000000;stroke-width:0.99237221;stroke-linecap:butt;stroke-linejoin:miter;stroke-miterlimit:4;stroke-opacity:1;stroke-dasharray:none"
       d="m -14.024196,237.60501 c -0.634719,361.72931 -0.0059,361.73154 -0.0059,361.73154"
       id="path6136"
       inkscape:connector-curvature="0"
       sodipodi:nodetypes="cc" /><path
       style="fill:none;stroke:#000000;stroke-width:1.24015749;stroke-linecap:butt;stroke-linejoin:miter;stroke-miterlimit:4;stroke-opacity:1;stroke-dasharray:none"
       d="m -17.731788,302.63639 c 10.6390727,0 10.6390727,0 10.6390727,0"
       id="path6138"
       inkscape:connector-curvature="0"
       transform="matrix(0.8,0,0,-0.8,0,841.68)" /><path
       inkscape:connector-curvature="0"
       id="path6230"
       d="m -13.872792,577.17089 c 13.87538555,0 13.87538555,0 13.87538555,0"
       style="fill:none;stroke:#000000;stroke-width:1.26675451;stroke-linecap:butt;stroke-linejoin:miter;stroke-miterlimit:4;stroke-opacity:1;stroke-dasharray:none" /><path
       style="fill:none;stroke:#000000;stroke-width:0.99212599;stroke-linecap:butt;stroke-linejoin:miter;stroke-miterlimit:4;stroke-opacity:1;stroke-dasharray:none"
       d="m -14.18543,554.77089 c 8.5112578,0 8.5112578,0 8.5112578,0"
       id="path6232"
       inkscape:connector-curvature="0" /><path
       inkscape:connector-curvature="0"
       id="path6234"
       d="m -14.18543,532.37089 c 8.5112578,0 8.5112578,0 8.5112578,0"
       style="fill:none;stroke:#000000;stroke-width:0.99212599;stroke-linecap:butt;stroke-linejoin:miter;stroke-miterlimit:4;stroke-opacity:1;stroke-dasharray:none" /><path
       style="fill:none;stroke:#000000;stroke-width:0.99212599;stroke-linecap:butt;stroke-linejoin:miter;stroke-miterlimit:4;stroke-opacity:1;stroke-dasharray:none"
       d="m -14.18543,509.97089 c 8.5112578,0 8.5112578,0 8.5112578,0"
       id="path6236"
       inkscape:connector-curvature="0" /><path
       inkscape:connector-curvature="0"
       id="path6238"
       d="m -14.18543,485.97089 c 8.5112578,0 8.5112578,0 8.5112578,0"
       style="fill:none;stroke:#000000;stroke-width:0.99212599;stroke-linecap:butt;stroke-linejoin:miter;stroke-miterlimit:4;stroke-opacity:1;stroke-dasharray:none" /><path
       style="fill:none;stroke:#000000;stroke-width:0.99212599;stroke-linecap:butt;stroke-linejoin:miter;stroke-miterlimit:4;stroke-opacity:1;stroke-dasharray:none"
       d="m -14.18543,441.17089 c 8.5112578,0 8.5112578,0 8.5112578,0"
       id="path6240"
       inkscape:connector-curvature="0" /><path
       inkscape:connector-curvature="0"
       id="path6242"
       d="m -14.18543,418.77089 c 8.5112578,0 8.5112578,0 8.5112578,0"
       style="fill:none;stroke:#000000;stroke-width:0.99212599;stroke-linecap:butt;stroke-linejoin:miter;stroke-miterlimit:4;stroke-opacity:1;stroke-dasharray:none" /><path
       style="fill:none;stroke:#000000;stroke-width:0.99212599;stroke-linecap:butt;stroke-linejoin:miter;stroke-miterlimit:4;stroke-opacity:1;stroke-dasharray:none"
       d="m -14.18543,394.77089 c 8.5112578,0 8.5112578,0 8.5112578,0"
       id="path6244"
       inkscape:connector-curvature="0" /><path
       inkscape:connector-curvature="0"
       id="path6246"
       d="m -14.18543,372.37089 c 8.5112578,0 8.5112578,0 8.5112578,0"
       style="fill:none;stroke:#000000;stroke-width:0.99212599;stroke-linecap:butt;stroke-linejoin:miter;stroke-miterlimit:4;stroke-opacity:1;stroke-dasharray:none" /><path
       style="fill:none;stroke:#000000;stroke-width:0.99212599;stroke-linecap:butt;stroke-linejoin:miter;stroke-miterlimit:4;stroke-opacity:1;stroke-dasharray:none"
       d="m -14.18543,327.57089 c 8.5112578,0 8.5112578,0 8.5112578,0"
       id="path6248"
       inkscape:connector-curvature="0" /><path
       inkscape:connector-curvature="0"
       id="path6250"
       d="m -14.18543,305.17089 c 8.5112578,0 8.5112578,0 8.5112578,0"
       style="fill:none;stroke:#000000;stroke-width:0.99212599;stroke-linecap:butt;stroke-linejoin:miter;stroke-miterlimit:4;stroke-opacity:1;stroke-dasharray:none" /><path
       style="fill:none;stroke:#000000;stroke-width:0.99212599;stroke-linecap:butt;stroke-linejoin:miter;stroke-miterlimit:4;stroke-opacity:1;stroke-dasharray:none"
       d="m -14.18543,282.77089 c 8.5112578,0 8.5112578,0 8.5112578,0"
       id="path6252"
       inkscape:connector-curvature="0" /><path
       inkscape:connector-curvature="0"
       id="path6254"
       d="m -14.18543,260.37089 c 8.5112578,0 8.5112578,0 8.5112578,0"
       style="fill:none;stroke:#000000;stroke-width:0.99212599;stroke-linecap:butt;stroke-linejoin:miter;stroke-miterlimit:4;stroke-opacity:1;stroke-dasharray:none" /><path
       style="fill:none;stroke:#000000;stroke-width:1.26675451;stroke-linecap:butt;stroke-linejoin:miter;stroke-miterlimit:4;stroke-opacity:1;stroke-dasharray:none"
       d="m -13.872792,463.57089 c 13.87538555,0 13.87538555,0 13.87538555,0"
       id="path6256"
       inkscape:connector-curvature="0" /><path
       inkscape:connector-curvature="0"
       id="path6258"
       d="m -13.872792,349.97089 c 13.87538555,0 13.87538555,0 13.87538555,0"
       style="fill:none;stroke:#000000;stroke-width:1.26675451;stroke-linecap:butt;stroke-linejoin:miter;stroke-miterlimit:4;stroke-opacity:1;stroke-dasharray:none" /><path
       inkscape:connector-curvature="0"
       id="path6429"
       d="m 42.778729,246.98834 c 0,-8.51126 0,-8.51126 0,-8.51126"
       style="fill:none;stroke:#000000;stroke-width:0.99212599;stroke-linecap:butt;stroke-linejoin:miter;stroke-miterlimit:4;stroke-opacity:1;stroke-dasharray:none" /><path
       style="fill:none;stroke:#000000;stroke-width:0.99212599;stroke-linecap:butt;stroke-linejoin:miter;stroke-miterlimit:4;stroke-opacity:1;stroke-dasharray:none"
       d="m 156.37873,246.98834 c 0,-8.51126 0,-8.51126 0,-8.51126"
       id="path6431"
       inkscape:connector-curvature="0" /><path
       inkscape:connector-curvature="0"
       id="path6433"
       d="m 98.77873,250.57367 c 0,-11.89913 0,-11.89913 0,-11.89913"
       style="fill:none;stroke:#000000;stroke-width:1.17307961;stroke-linecap:butt;stroke-linejoin:miter;stroke-miterlimit:4;stroke-opacity:1;stroke-dasharray:none" /><path
       style="fill:none;stroke:#000000;stroke-width:1.17307961;stroke-linecap:butt;stroke-linejoin:miter;stroke-miterlimit:4;stroke-opacity:1;stroke-dasharray:none"
       d="m 212.37873,250.57367 c 0,-11.89913 0,-11.89913 0,-11.89913"
       id="path6435"
       inkscape:connector-curvature="0" /><path
       inkscape:connector-curvature="0"
       id="path6437"
       d="m 269.17846,246.98834 c 0,-8.51126 0,-8.51126 0,-8.51126"
       style="fill:none;stroke:#000000;stroke-width:0.99212599;stroke-linecap:butt;stroke-linejoin:miter;stroke-miterlimit:4;stroke-opacity:1;stroke-dasharray:none" /><path
       inkscape:connector-curvature="0"
       id="path6439"
       d="m 325.97873,250.57367 c 0,-11.89913 0,-11.89913 0,-11.89913"
       style="fill:none;stroke:#000000;stroke-width:1.17307961;stroke-linecap:butt;stroke-linejoin:miter;stroke-miterlimit:4;stroke-opacity:1;stroke-dasharray:none" /><path
       style="fill:none;stroke:#000000;stroke-width:0.99212599;stroke-linecap:butt;stroke-linejoin:miter;stroke-miterlimit:4;stroke-opacity:1;stroke-dasharray:none"
       d="m 382.77846,246.98834 c 0,-8.51126 0,-8.51126 0,-8.51126"
       id="path6441"
       inkscape:connector-curvature="0" /><path
       style="fill:none;stroke:#000000;stroke-width:1.17307961;stroke-linecap:butt;stroke-linejoin:miter;stroke-miterlimit:4;stroke-opacity:1;stroke-dasharray:none"
       d="m 439.57873,250.57367 c 0,-11.89913 0,-11.89913 0,-11.89913"
       id="path6443"
       inkscape:connector-curvature="0" /><path
       inkscape:connector-curvature="0"
       id="path6445"
       d="m 496.37846,246.98834 c 0,-8.51126 0,-8.51126 0,-8.51126"
       style="fill:none;stroke:#000000;stroke-width:0.99212599;stroke-linecap:butt;stroke-linejoin:miter;stroke-miterlimit:4;stroke-opacity:1;stroke-dasharray:none" /><path
       inkscape:connector-curvature="0"
       id="path6447"
       d="m 553.17873,250.59974 c 0,-12.99145 0,-12.99145 0,-12.99145"
       style="fill:none;stroke:#000000;stroke-width:1.22574067;stroke-linecap:butt;stroke-linejoin:miter;stroke-miterlimit:4;stroke-opacity:1;stroke-dasharray:none" /><text
       xml:space="preserve"
       style="font-size:12.80000019px;font-style:normal;font-weight:normal;line-height:125%;letter-spacing:0px;word-spacing:0px;fill:#000000;fill-opacity:1;stroke:none;font-family:Sans"
       x="89.378296"
       y="-221.18303"
       id="text6449"
       sodipodi:linespacing="125%"
       transform="scale(1,-1)"><tspan
         sodipodi:role="line"
         id="tspan6451"
         x="89.378296"
         y="-221.18303">10</tspan></text>
<text
       transform="scale(1,-1)"
       sodipodi:linespacing="125%"
       id="text6453"
       y="-221.18303"
       x="202.97858"
       style="font-size:12.80000019px;font-style:normal;font-weight:normal;line-height:125%;letter-spacing:0px;word-spacing:0px;fill:#000000;fill-opacity:1;stroke:none;font-family:Sans"
       xml:space="preserve"><tspan
         y="-221.18303"
         x="202.97858"
         id="tspan6455"
         sodipodi:role="line">20</tspan></text>
<text
       xml:space="preserve"
       style="font-size:12.80000019px;font-style:normal;font-weight:normal;line-height:125%;letter-spacing:0px;word-spacing:0px;fill:#000000;fill-opacity:1;stroke:none;font-family:Sans"
       x="316.57901"
       y="-221.18303"
       id="text6457"
       sodipodi:linespacing="125%"
       transform="scale(1,-1)"><tspan
         sodipodi:role="line"
         id="tspan6459"
         x="316.57901"
         y="-221.18303">30</tspan></text>
<text
       transform="scale(1,-1)"
       sodipodi:linespacing="125%"
       id="text6461"
       y="-221.18303"
       x="430.17944"
       style="font-size:12.80000019px;font-style:normal;font-weight:normal;line-height:125%;letter-spacing:0px;word-spacing:0px;fill:#000000;fill-opacity:1;stroke:none;font-family:Sans"
       xml:space="preserve"><tspan
         y="-221.18303"
         x="430.17944"
         id="tspan6463"
         sodipodi:role="line">40</tspan></text>
<text
       xml:space="preserve"
       style="font-size:12.80000019px;font-style:normal;font-weight:normal;line-height:125%;letter-spacing:0px;word-spacing:0px;fill:#000000;fill-opacity:1;stroke:none;font-family:Sans"
       x="543.7793"
       y="-221.18303"
       id="text6465"
       sodipodi:linespacing="125%"
       transform="scale(1,-1)"><tspan
         sodipodi:role="line"
         id="tspan6467"
         x="543.7793"
         y="-221.18303">50</tspan></text>
<text
       transform="scale(1,-1)"
       sodipodi:linespacing="125%"
       id="text6469"
       y="-345.63382"
       x="-40.729351"
       style="font-size:12.80000019px;font-style:normal;font-weight:normal;line-height:125%;letter-spacing:0px;word-spacing:0px;fill:#000000;fill-opacity:1;stroke:none;font-family:Sans"
       xml:space="preserve"><tspan
         y="-345.63382"
         x="-40.729351"
         id="tspan6471"
         sodipodi:role="line">0.5</tspan></text>
<text
       xml:space="preserve"
       style="font-size:12.80000019px;font-style:normal;font-weight:normal;line-height:125%;letter-spacing:0px;word-spacing:0px;fill:#000000;fill-opacity:1;stroke:none;font-family:Sans"
       x="-40.729351"
       y="-459.23425"
       id="text6473"
       sodipodi:linespacing="125%"
       transform="scale(1,-1)"><tspan
         sodipodi:role="line"
         id="tspan6475"
         x="-40.729351"
         y="-459.23425">1.0</tspan></text>
<text
       transform="scale(1,-1)"
       sodipodi:linespacing="125%"
       id="text6477"
       y="-572.8335"
       x="-40.729351"
       style="font-size:12.80000019px;font-style:normal;font-weight:normal;line-height:125%;letter-spacing:0px;word-spacing:0px;fill:#000000;fill-opacity:1;stroke:none;font-family:Sans"
       xml:space="preserve"><tspan
         y="-572.8335"
         x="-40.729351"
         id="tspan6479"
         sodipodi:role="line">1.5</tspan></text>
<text
       xml:space="preserve"
       style="font-size:12.80000019px;font-style:normal;font-weight:normal;line-height:125%;letter-spacing:0px;word-spacing:0px;fill:#000000;fill-opacity:1;stroke:none;font-family:Sans"
       x="-32.729359"
       y="-233.63339"
       id="text6481"
       sodipodi:linespacing="125%"
       transform="scale(1,-1)"><tspan
         sodipodi:role="line"
         id="tspan6483"
         x="-32.729359"
         y="-233.63339">0</tspan></text>
<text
       transform="scale(1,-1)"
       sodipodi:linespacing="125%"
       id="text6485"
       y="-221.18303"
       x="-17.821657"
       style="font-size:12.80000019px;font-style:normal;font-weight:normal;line-height:125%;letter-spacing:0px;word-spacing:0px;fill:#000000;fill-opacity:1;stroke:none;font-family:Sans"
       xml:space="preserve"><tspan
         y="-221.18303"
         x="-17.821657"
         id="tspan6487"
         sodipodi:role="line">0</tspan></text>
<text
       transform="matrix(0.47265994,0.8812449,0.8812449,-0.47265994,0,0)"
       sodipodi:linespacing="125%"
       id="text6489"
       y="-113.25195"
       x="444.76834"
       style="font-size:12.80000019px;font-style:normal;font-weight:normal;line-height:125%;letter-spacing:0px;word-spacing:0px;fill:#000000;fill-opacity:1;stroke:none;font-family:Sans"
       xml:space="preserve"><tspan
         y="-113.25195"
         x="444.76834"
         id="tspan6491"
         sodipodi:role="line">AR = ∞ </tspan></text>
<text
       xml:space="preserve"
       style="font-size:12.80000019px;font-style:normal;font-weight:normal;line-height:125%;letter-spacing:0px;word-spacing:0px;fill:#000000;fill-opacity:1;stroke:none;font-family:Sans"
       x="463.17642"
       y="-179.41133"
       id="text6493"
       sodipodi:linespacing="125%"
       transform="matrix(0.73740116,0.67545506,0.67545506,-0.73740116,0,0)"><tspan
         sodipodi:role="line"
         id="tspan6495"
         x="463.17642"
         y="-179.41133">AR = 2 </tspan></text>
<text
       transform="matrix(0.81247816,0.58299163,0.58299163,-0.81247816,0,0)"
       sodipodi:linespacing="125%"
       id="text6497"
       y="-177.68996"
       x="520.34418"
       style="font-size:12.80000019px;font-style:normal;font-weight:normal;line-height:125%;letter-spacing:0px;word-spacing:0px;fill:#000000;fill-opacity:1;stroke:none;font-family:Sans"
       xml:space="preserve"><tspan
         y="-177.68996"
         x="520.34418"
         id="tspan6499"
         sodipodi:role="line">AR = 1 </tspan></text>
<text
       xml:space="preserve"
       style="font-size:12.80000019px;font-style:normal;font-weight:normal;line-height:125%;letter-spacing:0px;word-spacing:0px;fill:#000000;fill-opacity:1;stroke:none;font-family:Sans"
       x="592.00714"
       y="-132.92342"
       id="text6501"
       sodipodi:linespacing="125%"
       transform="matrix(0.82077507,0.57125151,0.57125151,-0.82077507,0,0)"><tspan
         sodipodi:role="line"
         id="tspan6503"
         x="592.00714"
         y="-132.92342">AR = 0.5 </tspan></text>
<text
       xml:space="preserve"
       style="font-size:12.80000019px;font-style:normal;font-weight:normal;line-height:125%;letter-spacing:0px;word-spacing:0px;fill:#000000;fill-opacity:1;stroke:none;font-family:Sans"
       x="248.23341"
       y="-544.18939"
       id="text6505"
       sodipodi:linespacing="125%"
       transform="scale(1,-1)"><tspan
         sodipodi:role="line"
         id="tspan6507"
         x="248.23341"
         y="-544.18939">12% thick airfoil sections</tspan></text>
<path
       style="fill:none;stroke:#000000;stroke-width:1.77165353;stroke-linecap:butt;stroke-linejoin:miter;stroke-miterlimit:4;stroke-opacity:1;stroke-dasharray:none"
       d="m -17.67767,754.40802 c 0,0 85.469935,-43.82267 126.57211,-68.58936 31.29988,-18.86018 62.12385,-38.69806 91.21678,-60.81118 25.27911,-19.21429 48.34653,-41.18231 72.12489,-62.2254 15.49466,-13.71228 31.1055,-27.318 45.96194,-41.7193 13.88378,-13.45844 40.30509,-41.7193 40.30509,-41.7193 0,0 2.17146,-2.28924 3.53553,-2.12132 1.98501,0.24437 4.24264,4.24264 4.24264,4.24264 0,0 10.95156,17.61482 17.67767,25.45585 8.46686,9.87032 17.85621,19.10045 28.28427,26.87005 13.29255,9.90383 27.85782,18.31207 43.13352,24.74874 18.28931,7.7065 37.74537,12.73403 57.27565,16.26346 25.83041,4.66796 52.27683,4.97475 78.48885,6.36396 18.83564,0.99827 37.70665,1.33058 56.56854,1.41421 14.6153,0.0648 43.84062,-0.7071 43.84062,-0.7071"
       id="path6509"
       inkscape:connector-curvature="0"
       transform="matrix(0.8,0,0,-0.8,0,841.68)"
       sodipodi:nodetypes="caaaacacaaaaaac" /><text
       transform="matrix(0.83532869,0.54975084,0.54975084,-0.83532869,0,0)"
       sodipodi:linespacing="125%"
       id="text6511"
       y="-203.65118"
       x="233.21518"
       style="font-size:12.80000019px;font-style:normal;font-weight:normal;line-height:125%;letter-spacing:0px;word-spacing:0px;fill:#000000;fill-opacity:1;stroke:none;font-family:Sans"
       xml:space="preserve"><tspan
         y="-203.65118"
         x="233.21518"
         id="tspan6513"
         sodipodi:role="line">2.5</tspan></text>
<text
       xml:space="preserve"
       style="font-size:12.80000019px;font-style:normal;font-weight:normal;line-height:125%;letter-spacing:0px;word-spacing:0px;fill:#000000;fill-opacity:1;stroke:none;font-family:Sans"
       x="272.84152"
       y="-218.37903"
       id="text6515"
       sodipodi:linespacing="125%"
       transform="matrix(0.86384457,0.50375844,0.50375844,-0.86384457,0,0)"><tspan
         sodipodi:role="line"
         id="tspan6517"
         x="272.84152"
         y="-218.37903">3</tspan></text>
<text
       transform="matrix(0.71417153,0.69997073,0.69997073,-0.71417153,0,0)"
       sodipodi:linespacing="125%"
       id="text6519"
       y="-133.79587"
       x="404.90445"
       style="font-size:12.80000019px;font-style:normal;font-weight:normal;line-height:125%;letter-spacing:0px;word-spacing:0px;fill:#000000;fill-opacity:1;stroke:none;font-family:Sans"
       xml:space="preserve"><tspan
         y="-133.79587"
         x="404.90445"
         id="tspan6521"
         sodipodi:role="line">2.5</tspan></text>
<text
       xml:space="preserve"
       style="font-size:12.80000019px;font-style:normal;font-weight:normal;line-height:125%;letter-spacing:0px;word-spacing:0px;fill:#000000;fill-opacity:1;stroke:none;font-family:Sans"
       x="521.4613"
       y="-107.76043"
       id="text6523"
       sodipodi:linespacing="125%"
       transform="matrix(0.68149056,0.7318269,0.7318269,-0.68149056,0,0)"><tspan
         sodipodi:role="line"
         id="tspan6525"
         x="521.4613"
         y="-107.76043">2</tspan></text>
<text
       transform="matrix(0.84927121,-0.52795683,-0.52795683,-0.84927121,0,0)"
       sodipodi:linespacing="125%"
       id="text6527"
       y="-533.58643"
       x="86.739723"
       style="font-size:12.80000019px;font-style:normal;font-weight:normal;line-height:125%;letter-spacing:0px;word-spacing:0px;fill:#000000;fill-opacity:1;stroke:none;font-family:Sans"
       xml:space="preserve"><tspan
         y="-533.58643"
         x="86.739723"
         id="tspan6529"
         sodipodi:role="line">1</tspan></text>
<text
       xml:space="preserve"
       style="font-size:12.80000019px;font-style:normal;font-weight:normal;line-height:125%;letter-spacing:0px;word-spacing:0px;fill:#000000;fill-opacity:1;stroke:none;font-family:Sans"
       x="178.95438"
       y="-213.99477"
       id="text6531"
       sodipodi:linespacing="125%"
       transform="matrix(0.86175999,0.5073162,0.5073162,-0.86175999,0,0)"><tspan
         sodipodi:role="line"
         id="tspan6533"
         x="178.95438"
         y="-213.99477">2</tspan></text>
<text
       transform="matrix(0.84493191,0.53487388,0.53487388,-0.84493191,0,0)"
       sodipodi:linespacing="125%"
       id="text6535"
       y="-208.16994"
       x="155.91754"
       style="font-size:12.80000019px;font-style:normal;font-weight:normal;line-height:125%;letter-spacing:0px;word-spacing:0px;fill:#000000;fill-opacity:1;stroke:none;font-family:Sans"
       xml:space="preserve"><tspan
         y="-208.16994"
         x="155.91754"
         id="tspan6537"
         sodipodi:role="line"
         style="font-size:7.19999981px;font-weight:bold;-inkscape-font-specification:Sans Bold">1</tspan></text>
<text
       transform="matrix(0.77236378,0.63518044,0.63518044,-0.77236378,0,0)"
       sodipodi:linespacing="125%"
       id="text6539"
       y="-179.22812"
       x="341.72394"
       style="font-size:12.80000019px;font-style:normal;font-weight:normal;line-height:125%;letter-spacing:0px;word-spacing:0px;fill:#000000;fill-opacity:1;stroke:none;font-family:Sans"
       xml:space="preserve"><tspan
         y="-179.22812"
         x="341.72394"
         id="tspan6541"
         sodipodi:role="line">L/D</tspan></text>
<text
       transform="scale(1,-1)"
       sodipodi:linespacing="125%"
       id="text6543"
       y="-199.58286"
       x="179.77829"
       style="font-size:12.80000019px;font-style:normal;font-weight:normal;line-height:125%;letter-spacing:0px;word-spacing:0px;fill:#000000;fill-opacity:1;stroke:none;font-family:Sans"
       xml:space="preserve"><tspan
         y="-199.58286"
         x="179.77829"
         id="tspan6545"
         sodipodi:role="line">Angle of incidence, degrees</tspan></text>
<text
       xml:space="preserve"
       style="font-size:12.80000019px;font-style:normal;font-weight:normal;line-height:125%;letter-spacing:0px;word-spacing:0px;fill:#000000;fill-opacity:1;stroke:none;font-family:Sans"
       x="343.46082"
       y="-60.156277"
       id="text6547"
       sodipodi:linespacing="125%"
       transform="matrix(0,1,1,0,0,0)"><tspan
         sodipodi:role="line"
         id="tspan6549"
         x="343.46082"
         y="-60.156277">Coefficient of lift C</tspan></text>
<text
       transform="matrix(0,1,1,0,0,0)"
       sodipodi:linespacing="125%"
       id="text6551"
       y="-58.002949"
       x="462.76328"
       style="font-size:12.80000019px;font-style:normal;font-weight:normal;line-height:125%;letter-spacing:0px;word-spacing:0px;fill:#000000;fill-opacity:1;stroke:none;font-family:Sans"
       xml:space="preserve"><tspan
         y="-58.002949"
         x="462.76328"
         id="tspan6553"
         sodipodi:role="line"
         style="font-size:9.60000038px">L</tspan></text>
<text
       xml:space="preserve"
       style="font-size:12.80000019px;font-style:normal;font-weight:normal;line-height:125%;letter-spacing:0px;word-spacing:0px;fill:#000000;fill-opacity:1;stroke:none;font-family:Sans"
       x="405.3783"
       y="-421.98288"
       id="text6555"
       sodipodi:linespacing="125%"
       transform="scale(1,-1)"><tspan
         sodipodi:role="line"
         id="tspan6557"
         x="405.3783"
         y="-421.98288" /><tspan
         sodipodi:role="line"
         x="405.3783"
         y="-405.98288"
         id="tspan6596">Discus (20% thickness) </tspan><tspan
         sodipodi:role="line"
         x="405.3783"
         y="-389.98288"
         id="tspan6598">      at Re = 4 × 10⁵</tspan><tspan
         sodipodi:role="line"
         x="405.3783"
         y="-373.98288"
         id="tspan6559" /></text>
<text
       transform="scale(1,-1)"
       sodipodi:linespacing="125%"
       id="text6561"
       y="-357.9827"
       x="448.57831"
       style="font-size:12.80000019px;font-style:normal;font-weight:normal;line-height:125%;letter-spacing:0px;word-spacing:0px;fill:#000000;fill-opacity:1;stroke:none;font-family:Sans"
       xml:space="preserve"><tspan
         y="-357.9827"
         x="448.57831"
         id="tspan6563"
         sodipodi:role="line">AR = 1.27</tspan><tspan
         id="tspan6565"
         y="-341.9827"
         x="448.57831"
         sodipodi:role="line" /></text>
<path
       style="fill:none;stroke:#ffffff;stroke-width:14.0745697;stroke-linecap:butt;stroke-linejoin:miter;stroke-miterlimit:4;stroke-opacity:1;stroke-dasharray:14.0745689, 14.0745689;stroke-dashoffset:0"
       d="M 101.441,469.50031 C 155.27976,561.24 155.27976,561.24 155.27976,561.24 l 0,0"
       id="path6567"
       inkscape:connector-curvature="0" /><rect
       style="fill:#ff9fff;fill-opacity:1;stroke:#ffffff;stroke-width:5.54353856999999994;stroke-miterlimit:4;stroke-opacity:1;stroke-dasharray:none;stroke-dashoffset:0"
       id="rect6569"
       width="9.9411764"
       height="5.3183026"
       x="670.0293"
       y="178.98705"
       transform="matrix(0.40553458,0.9140797,0.87477925,-0.48452169,0,0)"
       inkscape:transform-center-y="1.4127004"
       inkscape:transform-center-x="-0.27661749" /><rect
       inkscape:transform-center-x="-0.07503721"
       inkscape:transform-center-y="1.4375982"
       transform="matrix(0.53013588,0.8479127,0.79788761,-0.60280623,0,0)"
       y="-19.148678"
       x="567.79688"
       height="5.3183026"
       width="9.9411764"
       id="rect6571"
       style="fill:#ff9fff;fill-opacity:1;stroke:#ffffff;stroke-width:5.54353856999999994;stroke-miterlimit:4;stroke-opacity:1;stroke-dasharray:none;stroke-dashoffset:0" /><rect
       inkscape:transform-center-x="-94.699839"
       inkscape:transform-center-y="104.94663"
       transform="matrix(0.59086388,0.80677127,0.81551865,-0.5787308,0,0)"
       y="-206.67734"
       x="561.83643"
       height="5.6192942"
       width="10.096304"
       id="rect6575"
       style="fill:#ff9fff;fill-opacity:1;stroke:#ffffff;stroke-width:5.74253653999999969;stroke-miterlimit:4;stroke-opacity:1;stroke-dasharray:none;stroke-dashoffset:0" /><rect
       inkscape:transform-center-x="-0.27661749"
       inkscape:transform-center-y="1.4127004"
       transform="matrix(0.40553458,0.9140797,0.87477925,-0.48452169,0,0)"
       y="-35.931545"
       x="627.2771"
       height="5.3183026"
       width="9.9411764"
       id="rect6592"
       style="fill:#ff9fff;fill-opacity:1;stroke:#ffffff;stroke-width:5.54353857;stroke-miterlimit:4;stroke-opacity:1;stroke-dasharray:none;stroke-dashoffset:0" /><rect
       style="fill:#ff9fff;fill-opacity:1;stroke:#ffffff;stroke-width:5.54353857;stroke-miterlimit:4;stroke-opacity:1;stroke-dasharray:none;stroke-dashoffset:0"
       id="rect6594"
       width="9.9411764"
       height="5.3183026"
       x="594.0553"
       y="237.59831"
       transform="matrix(-0.0726895,0.99735462,0.99987989,-0.01549843,0,0)"
       inkscape:transform-center-y="1.1159997"
       inkscape:transform-center-x="-0.9092797" /><path
       style="fill:none;stroke:#000000;stroke-width:1.13385826;stroke-miterlimit:4;stroke-opacity:1;stroke-dasharray:none"
       d="m 497.96908,320.14449 c 9.28563,-2.53376 10.53627,-17.70173 -0.94203,-20.77849 L 417.5069,287.84896 c -15.03946,-0.15914 -53.35545,-0.13263 -53.35545,-0.13263 l -79.7267,12.44074 c -10.7256,2.24577 -10.60901,17.85484 0.0781,20.34651 l 79.87352,12.05809 53.01513,-10e-4 80.69581,-12.2488"
       id="path3095"
       inkscape:connector-curvature="0"
       sodipodi:nodetypes="ccccccccc" /><text
       xml:space="preserve"
       style="font-size:12.80000019px;font-style:normal;font-weight:normal;line-height:125%;letter-spacing:0px;word-spacing:0px;fill:#000000;fill-opacity:1;stroke:none;font-family:Sans"
       x="338.17831"
       y="-306.78268"
       id="text3976"
       sodipodi:linespacing="125%"
       transform="scale(1,-1)"><tspan
         sodipodi:role="line"
         id="tspan3978"
         x="338.17831"
         y="-306.78268">Profile of discus</tspan><tspan
         sodipodi:role="line"
         x="338.17831"
         y="-290.78268"
         id="tspan3980" /></text>
</g></svg>