<?xml version="1.0" encoding="UTF-8" standalone="no"?>
<!-- Created with Inkscape (http://www.inkscape.org/) -->

<svg
   xmlns:dc="http://purl.org/dc/elements/1.1/"
   xmlns:cc="http://creativecommons.org/ns#"
   xmlns:rdf="http://www.w3.org/1999/02/22-rdf-syntax-ns#"
   xmlns:svg="http://www.w3.org/2000/svg"
   xmlns="http://www.w3.org/2000/svg"
   xmlns:sodipodi="http://sodipodi.sourceforge.net/DTD/sodipodi-0.dtd"
   xmlns:inkscape="http://www.inkscape.org/namespaces/inkscape"
   id="svg2"
   version="1.1"
   inkscape:version="0.48.4 r9939"
   width="772"
   height="301"
   sodipodi:docname="Sharp82.svg"
   inkscape:export-filename="/home/theo/HPV/BicyclingScience/Sharp82.svg.png"
   inkscape:export-xdpi="200"
   inkscape:export-ydpi="200">
  <metadata
     id="metadata8">
    <rdf:RDF>
      <cc:Work
         rdf:about="">
        <dc:format>image/svg+xml</dc:format>
        <dc:type
           rdf:resource="http://purl.org/dc/dcmitype/StillImage" />
        <dc:title></dc:title>
      </cc:Work>
    </rdf:RDF>
  </metadata>
  <defs
     id="defs6">
    <marker
       inkscape:stockid="Arrow2Sstart"
       orient="auto"
       refY="0.0"
       refX="0.0"
       id="Arrow2Sstart"
       style="overflow:visible">
      <path
         id="path3803"
         style="fill-rule:evenodd;stroke-width:0.62500000;stroke-linejoin:round"
         d="M 8.7185878,4.0337352 L -2.2072895,0.016013256 L 8.7185884,-4.0017078 C 6.9730900,-1.6296469 6.9831476,1.6157441 8.7185878,4.0337352 z "
         transform="scale(0.3) translate(-2.3,0)" />
    </marker>
    <marker
       inkscape:stockid="Arrow2Mstart"
       orient="auto"
       refY="0.0"
       refX="0.0"
       id="Arrow2Mstart"
       style="overflow:visible">
      <path
         id="path3797"
         style="fill-rule:evenodd;stroke-width:0.62500000;stroke-linejoin:round"
         d="M 8.7185878,4.0337352 L -2.2072895,0.016013256 L 8.7185884,-4.0017078 C 6.9730900,-1.6296469 6.9831476,1.6157441 8.7185878,4.0337352 z "
         transform="scale(0.6) translate(0,0)" />
    </marker>
  </defs>
  <sodipodi:namedview
     pagecolor="#ffffff"
     bordercolor="#666666"
     borderopacity="1"
     objecttolerance="10"
     gridtolerance="10"
     guidetolerance="10"
     inkscape:pageopacity="0"
     inkscape:pageshadow="2"
     inkscape:window-width="1280"
     inkscape:window-height="951"
     id="namedview4"
     showgrid="false"
     inkscape:zoom="1.516799"
     inkscape:cx="373.62892"
     inkscape:cy="187.2283"
     inkscape:window-x="-3"
     inkscape:window-y="-3"
     inkscape:window-maximized="1"
     inkscape:current-layer="svg2" />
  <path
     style="fill:#000000"
     d="m 20.370773,279.88594 c -1.2375,-0.49699 -2.25,-1.29208 -2.25,-1.76687 0,-1.25266 4.023929,-3.08539 7.5,-3.41593 l 3,-0.28527 0,-63 0,-63 -2.75,-0.31642 c -2.676353,-0.30795 -3.596268,-1.54252 -1.920905,-2.57795 0.456002,-0.28183 16.093502,-0.76118 34.75,-1.06522 18.656498,-0.30404 37.070912,-0.98255 40.920912,-1.50779 17.40444,-2.37441 23.10675,-3.47215 33.5,-6.44899 21.29705,-6.09992 52.25477,-9.68885 67.5,-7.82528 4.4,0.53786 10.36413,1.41484 10.83624,1.14306 0.86877,-0.50012 -6.15614,-5.7991 -7.64111,-5.86545 -0.44268,-0.0198 -3.45549,-1.83596 -6.69513,-4.03596 -3.23964,-2.2 -6.26884,-4 -6.73155,-4 -0.46271,0 -7.5749,-4.42916 -15.80487,-9.84258 C 153.52611,92.223831 134.83862,77.711295 119.19897,60.515341 107.17173,47.291272 106.96631,47.724735 107.65996,46.832919 c 3.02749,-3.892431 3.31509,0.623503 5.70467,-1.176956 2.99701,-2.258142 3.18617,-3.42761 4.23103,-3.054216 1.04487,0.373394 1.33391,1.890754 -0.46874,3.809584 -1.31839,1.403355 -2.01657,2.019692 -1.4218,3.32159 0.59476,1.301897 2.48247,3.289355 6.33587,7.43495 3.987,4.289331 5.05796,4.53659 7.57979,1.75 0.99549,-1.1 2.19023,-2 2.65499,-2 1.50935,0 0.89428,2.31865 -1.20897,4.55745 l -2.05397,2.18636 5.80397,5.20428 c 7.94466,7.12378 8.5895,7.40176 11.62721,5.01229 3.02997,-2.38337 4.48917,-1.00557 1.65319,1.56096 -1.08703,0.98375 -1.95513,2.28139 -1.92911,2.88365 0.0413,0.95607 8.38861,8.10011 11.61802,9.94328 0.64093,0.36581 2.51969,-0.47452 4.17503,-1.8674 3.68156,-3.09782 5.43057,-1.46261 2.15964,2.01913 -1.21525,1.29357 -1.9764,2.72918 -1.69144,3.19024 0.28495,0.46106 3.72593,3.03011 7.64663,5.70901 l 7.12854,4.870709 2.45419,-2.305589 c 2.98721,-2.80633 4.23099,-1.94736 2.5434,1.756499 -1.41531,3.10627 -0.46342,4.21278 7.78007,9.04378 l 4.43626,2.59982 2.30692,-2.89315 c 2.90724,-3.64603 4.3943,-2.43229 1.99543,1.62868 -0.98718,1.67116 -1.63852,3.17581 -1.44743,3.34368 1.18013,1.03671 13.28855,7.38042 14.38267,7.38042 0.73149,0 1.60244,-1.68253 1.93544,-2.73172 0.77146,-2.43067 3.43774,-3.4946 4.14418,-1.65366 0.29653,0.77275 0.0337,2.34946 -0.5841,3.50381 -0.61779,1.15434 -1.32719,3.39298 -0.97211,3.96751 0.35508,0.57453 4.02989,3.11264 8.37757,4.63643 l 7.89678,2.76771 2.38478,-2.77247 c 2.71198,-3.15286 4.13409,-2.70677 2.53805,0.79615 -1.41954,3.11555 -0.61417,4.13061 4.74417,5.97938 2.475,0.85394 6.50044,2.5349 8.94543,3.73545 l 4.44544,2.18283 1.80456,-2.22854 c 0.99251,-1.2257 1.80457,-2.8537 1.80457,-3.61776 0,-0.76407 1.16946,-0.72994 1.99446,-0.72994 1.9677,0 1.48125,3.70103 -0.48346,5.33158 -0.81894,0.67967 -1.26665,1.59551 -0.99489,2.03522 0.43913,0.71053 16.08836,5.97392 17.76179,5.97392 0.3657,0 1.02184,-1.37745 1.45809,-3.061 1.04018,-4.01418 2.764,-3.37698 2.764,1.02171 0,3.18804 0.35455,3.592 4.5,5.12708 2.475,0.91651 5.95646,1.98112 7.73658,2.3658 2.83436,0.61251 3.38247,0.37924 4.41051,-1.87708 1.60076,-3.51328 3.16145,-3.25777 2.36103,0.38653 -0.72457,3.29892 -1.45134,2.95588 10.42215,4.91931 6.662,1.10164 9.06974,0.43669 9.06974,-2.50479 0,-0.75766 0.45,-1.37756 1,-1.37756 0.55,0 1,1.29686 1,2.88192 0,2.85494 0.0895,2.89803 9.56291,4.60375 5.2596,0.94702 10.49258,1.56265 10.62162,1.36809 0.12903,-0.19457 -0.34747,-3.27755 0.83013,-4.67233 l 1.74927,-0.36286 0.013,1.88301 c 0.0254,3.69697 0.88169,3.89113 10.95978,4.82683 7.23017,0.67129 7.23762,0.66941 8.28716,-2.0911 1.10414,-2.90409 2.51484,-2.42679 3.14083,1.06269 0.32707,1.82318 1.26149,2.02517 10.56931,2.28468 10.19329,0.28419 10.21159,0.2804 10.84668,-2.25 0.80681,-3.21459 2.41935,-3.30203 2.41935,-0.13119 0,2.18145 0.47509,2.43552 5.14274,2.75032 2.82851,0.19076 7.66601,0.1217 10.75,-0.15348 4.87234,-0.43475 5.64914,-0.79523 5.92681,-2.75033 0.41159,-2.89807 1.94656,-2.91136 2.3609,-0.0204 0.30598,2.13487 0.68056,2.21638 8.81955,1.91931 9.00012,-0.3285 9.60532,-0.54106 10.15294,-3.566 0.5075,-2.8034 2.63887,-3.079 3.01996,-0.3905 0.30295,2.13727 0.73314,2.28405 5.8271,1.98818 10.03436,-0.58282 12.46237,-1.4289 12.81642,-4.46612 0.31118,-2.66947 2.16897,-3.90674 2.19889,-1.46443 0.0437,3.56654 1.54832,4.05612 8.62632,2.80687 9.91023,-1.74913 12.44769,-2.88655 12.12605,-5.43551 -0.3681,-2.91715 1.59946,-3.28643 2.29312,-0.43038 0.66246,2.72762 3.6542,2.72644 12.16581,-0.005 4.21134,-1.35135 5.76785,-1.30239 5.76785,-3.0247 0,-3.33975 0.57279,-4.47088 2.41401,-1.66082 1.00927,1.54033 0.50486,2.76478 1.21826,2.32388 0.65289,-0.40351 5.54383,-1.93388 8.85427,-2.79649 5.34757,-1.39341 6.0543,-1.87289 6.33542,-4.29821 0.37401,-3.22666 1.2481,-3.45743 2.92502,-0.77225 1.1277,1.80573 1.55849,1.85648 5.55326,0.65423 2.38191,-0.71685 6.48091,-2.12452 9.1089,-3.12816 4.43003,-1.69184 4.73694,-2.03095 4.21229,-4.65423 -0.65802,-3.29007 1.27603,-3.95872 2.11963,-0.73281 0.67611,2.58545 3.62322,2.1823 11.37149,-1.55559 2.89701,-1.39757 5.85808,-2.54103 6.58014,-2.54103 1.37246,0 1.65604,-0.99631 1.35198,-4.75 -0.10025,-1.2375 0.29994,-2.25 0.8893,-2.25 0.58937,0 1.07157,0.68912 1.07157,1.53138 0,2.865 2.68198,2.5707 10.39179,-1.14031 7.37512,-3.54991 7.67189,-3.82464 7.07369,-6.54822 -0.6914,-3.14794 1.01439,-3.92766 2.92428,-1.33669 0.95799,1.29962 2.18116,0.94426 8.91963,-2.59137 7.49893,-3.93465 7.78399,-4.21317 7.17054,-7.00616 -0.72182,-3.28645 0.99884,-4.00371 3.0092,-1.25438 1.09437,1.49664 1.72792,1.23181 7.11024,-2.03178 9.67819,-5.868399 11.8051,-6.861302 8.98994,-9.781952 -1.79694,-1.864272 1.44948,-4.672179 2.01847,-1.287317 0.69194,4.116335 5.02979,0.153564 10.34492,-3.6987 5.71892,-4.144926 8.23202,-5.687178 5.49087,-7.6045 -2.01651,-1.41047 -0.16454,-3.25 0.92778,-3.25 0.80409,0 1.75874,0.53528 1.88168,1.25 0.54343,3.159356 3.86157,-0.298601 9.84592,-5.06669 4.79947,-3.824019 6.37474,-4.589212 3.32347,-6.53653 -2.40112,-1.532392 -0.0879,-3.344751 0.93454,-1.7655 2.53332,3.912739 5.69733,0.789712 11.57713,-5.30857 5.10756,-5.297343 5.35157,-5.59957 3.75,-7.3693 -1.75712,-1.94143 -2.24495,-4.20325 -0.9066,-4.20325 0.42763,0 1.81816,0.72891 3.09009,1.6198 2.23261,1.56378 2.45774,1.47733 6.51035,-2.5 3.98565,-3.91161 6.89263,-5.10908 8.01079,-3.29985 0.56999,0.92226 -16.21069,17.62793 -26.88872,26.76854 -10.71412,9.1715 -21.18009,17.43444 -30,23.68519 -4.4,3.118309 -9.125,6.467449 -10.5,7.442509 -7.9708,5.65242 -21.51086,13.54125 -35.98686,20.96696 -15.45329,7.92705 -20.00434,10.53229 -15.67814,8.97495 1.00925,-0.36331 7.08425,-1.61091 13.5,-2.77243 18.3224,-3.31714 45.66383,-3.05264 58.665,0.56752 2.75,0.76573 7.925,2.07594 11.5,2.91157 3.575,0.83564 8.89859,2.20434 11.83019,3.04156 14.75697,4.21437 43.29113,6.43712 84.11981,6.55275 8.99391,0.0255 12.11344,0.72432 11.52215,1.30744 -0.5225,0.51528 -0.99715,0.74814 -3.47215,0.92036 l -4.5,0.31313 0.0333,6.25 c 0.0183,3.4375 0.13084,32.35 0.25,64.25 l 0.2167,58 5.5,0 c 4.83333,0 5.5,0.24242 5.5,2 0,1.1 -0.5625,2.05699 -1.25,2.12663 -0.6875,0.0697 -58.175,-0.0248 -127.75,-0.20997 -168.27919,-0.44777 -400.63392,-0.26332 -516,0.40962 -54.775521,0.31952 -94.431879,0.17116 -95.750007,-0.35821 z M 166.2438,271.40505 c 1.12169,-6.63559 2.05474,-47.44134 2.02439,-65.945 -0.0456,-27.84111 -3.13366,-67.92843 -6.06676,-70.86153 -0.97016,-0.97016 -8.78939,0.0391 -9.52505,1.22939 -0.25019,0.40481 -0.0648,3.62816 0.41201,7.16299 0.47679,3.53483 1.12891,10.47697 1.44915,15.42697 0.32024,4.95 1.10831,13.95 1.75128,20 0.66165,6.22586 1.2545,29.66254 1.36598,54 0.10832,23.65 -0.56662,43.26666 -0.49264,43.59258 0.074,0.32592 2.63465,0.32015 4.68313,-0.0128 4.10307,0.35454 4.41493,-0.084 4.39851,-4.59258 z m 47.23725,4.12096 c 1.7922,-1.41404 1.64375,-7.98853 1.98654,-30.60814 0.71162,-46.95677 -4.08286,-97.90795 -10.20979,-108.5 -1.70399,-2.9458 -8.23791,-5.73244 -9.79353,-4.17682 -0.36966,0.36965 0.0581,3.71066 0.95049,7.42446 5.31593,22.12216 7.22479,49.62647 6.29841,90.75236 -0.34689,15.4 -0.90895,31.90164 -1.24901,36.67031 l -0.61831,8.67032 2.88747,0.33516 c 3.65819,0.42463 8.19893,0.65434 9.74773,-0.56765 z M 46.120773,216.41787 c 0.275,-32.45 0.362844,-61.1375 0.195209,-63.75 l -0.304791,-4.75 -5.96996,0 c -5.418424,0 -6.056179,0.22678 -6.903223,2.45467 -0.908619,2.38985 -1.150261,23.17105 -1.060838,91.23197 l 0.0436,33.18664 3.25,0.42579 c 1.7875,0.23419 4.825,0.3752 6.75,0.31336 l 3.5,-0.11243 z m 16.670165,58.72501 c 0.86841,-0.55241 1.218366,-15.95644 1.357081,-59.73469 0.102804,-32.44467 0.13873,-60.92253 0.07984,-63.28413 l -0.107086,-4.29381 -7.25,0.29381 -7.25,0.29381 -0.259242,62.5 c -0.142584,34.375 -0.04421,63.0625 0.218615,63.75 0.52556,1.37478 11.193329,1.75836 13.210792,0.47501 z m 19.829835,-63.72501 0,-64 -6.33731,-0.29998 c -3.883503,-0.18383 -6.896723,0.16428 -7.782074,0.89906 -1.234279,1.02436 -1.42298,10.2426 -1.295248,63.27424 0.08223,34.14136 0.376947,62.66788 0.654922,63.39227 0.367892,0.95871 2.444611,1.2378 7.632559,1.02574 l 7.127151,-0.29133 z m 18.543757,53.75 c 0.18615,-45.73493 -0.2226,-111.43252 -0.71261,-114.53457 l -0.59782,-3.78457 -6.11666,0.64617 c -3.364164,0.35539 -6.566664,0.0515 -7.116664,0.73488 -0.55,0.68335 -0.96261,6.84939 -0.91691,12.29215 0.0457,5.44277 0.1582,33.63344 0.25,62.64594 l 0.16691,52.75 7.500004,0 7.5,0 0.0438,-10.75 z m 18.45625,-54.59538 c 0,-35.66496 -0.26486,-65.27398 -0.58858,-65.79783 -0.65215,-1.05533 -13.38383,0.38553 -14.68418,1.70055 -0.76807,0.77673 -0.44624,34.80411 -0.30306,96.73472 l 0.0758,32.79207 7.75,-0.29207 7.75,-0.29206 0,-64.84538 z m 16.08377,64.20984 c 2.64968,-4.28728 3.35871,-92.00047 0.94466,-116.86446 -0.82769,-8.525 -1.51019,-16.72277 -1.51666,-17.21002 -0.0147,-1.1058 -8.38242,0.8028 -11.11362,2.26453 -1.99902,1.06984 -2.01778,1.73636 -1.70967,60.7636 0.17134,32.82504 0.46399,62.49439 0.65034,65.93189 l 0.33882,6.25 5.85216,0 c 3.28843,0 6.15961,-0.49746 6.55397,-1.13554 z m 18.24538,0.53929 c 2.06871,-3.97566 2.0968,-51.55019 0.74733,-80.40375 -0.58225,-12.44922 -3.59384,-44.20401 -5.20405,-54.87251 -0.49689,-3.29216 -0.60363,-3.35982 -4.47994,-2.83989 -5.93935,0.79663 -6.63891,1.12164 -6.24861,7.70191 0.1855,3.12752 0.73226,15.96049 1.41648,27.51049 1.22926,20.75087 0.75022,89.5725 -0.69084,99.25 l -0.63286,4.25 6.59649,0 c 5.2688,0 7.76868,0.80153 8.496,-0.59625 z m 26.35241,-5.40375 c 1.82094,-14.69435 3.00286,-42.41 2.98513,-70 -0.0193,-30.04344 -0.45663,-36.68458 -3.58887,-54.5 -2.50351,-14.23937 -2.17316,-13.5 -6.03177,-13.5 -1.87872,0 -4.50445,0.41389 -5.83497,0.91975 l -2.41912,0.91974 1.81269,9.33026 c 0.99699,5.13164 2.16879,14.73025 2.60402,21.33025 0.99562,15.09798 1.03066,74.85564 0.0562,95.80174 l -0.73515,15.80175 5.23515,-0.30175 5.23513,-0.30174 z m 18.17309,2.75 c 1.38036,-7.77189 2.80053,-54.70266 2.17121,-71.75 -0.88669,-24.01964 -3.04097,-47.45433 -4.82616,-52.5 -0.77837,-2.2 -1.72269,-7.06566 -2.09849,-9.60389 -0.98514,-6.65401 -2.33995,-7.05775 -7.90982,-7.14196 -2.58924,-0.0391 -4.96779,0.18892 -5.28568,0.5068 -0.31788,0.31789 0.11705,3.87672 0.96651,7.90851 3.19453,15.16212 4.08462,29.11385 4.04036,63.33054 -0.0396,30.58532 -1.48752,63.96609 -3.04357,70.16589 -0.5772,2.29974 -0.46806,2.33411 7.41129,2.33411 l 7.99712,0 z m 35.03155,1.5 c 1.49491,-5.02157 -0.61611,-59.89885 -2.83701,-73.75 -0.35275,-2.2 -1.10139,-7.7491 -1.66364,-11.3241 -2.73436,-17.38623 -8.70783,-39.07812 -13.45411,-49.88893 -1.69754,-3.86655 -2.96488,-5.38275 -4.90663,-5.8701 -1.43987,-0.36138 -2.88571,-0.3893 -3.21297,-0.062 -0.32726,0.32726 0.60255,3.35638 2.06625,6.73137 1.72418,3.97564 3.00183,9.35428 3.62846,15.27508 0.53196,5.0263 1.71506,16.11372 2.62911,24.63872 1.2605,11.75616 1.66645,25.22192 1.68068,55.75 l 0.0188,40.25 7.76506,0 c 6.53017,0 7.84792,-0.27831 8.28604,-1.75 z m 16.23754,-0.887 c 1.02808,-4.0962 -0.59184,-44.74984 -2.20605,-55.363 -0.79469,-5.225 -1.89841,-12.65 -2.45271,-16.5 -3.02601,-21.01793 -13.92537,-57.18443 -19.8258,-63.70434 -1.3088,-1.4462 -8.46882,-3.98577 -8.46882,-2.80563 0,0.16972 1.70744,5.40242 3.39141,10.01662 10.92547,29.93649 15.82777,64.16891 15.90689,111.07668 0.0172,10.22084 0.33134,18.88334 0.69801,19.25 0.36666,0.36667 3.28309,0.66667 6.48094,0.66667 5.44847,0 5.85593,-0.16591 6.47613,-2.637 z m 18.85305,1.67455 c 0.55381,-0.89608 -0.0177,-5.62525 -2.48195,-20.53755 -0.54532,-3.3 -2.36011,-14.325 -4.03286,-24.5 -2.66771,-16.22708 -6.84674,-37.02468 -12.45817,-62 -0.9268,-4.125 -2.51118,-9.975 -3.52084,-13 -1.00966,-3.025 -2.12155,-6.92573 -2.47086,-8.66828 -0.55835,-2.78528 -1.42096,-3.48288 -7.13571,-5.77065 -3.57532,-1.4313 -6.90896,-2.34997 -7.40809,-2.04149 -0.49913,0.30848 0.25021,3.13027 1.66519,6.27065 12.7331,28.25945 18.87302,58.97703 21.47956,107.46059 l 1.27678,23.74918 7.24606,0 c 3.98534,0 7.51374,-0.4331 7.84089,-0.96245 z m 17.04732,-0.22833 c 0.258,-0.258 -0.17924,-2.68312 -0.97164,-5.38916 -6.45197,-22.03316 -18.57789,-74.18437 -20.55897,-88.42006 -2.17125,-15.60233 -4.96744,-30.37394 -5.93227,-31.33877 -1.66744,-1.66744 -10.41792,-4.70462 -11.22545,-3.89621 -0.40379,0.40424 1.45126,9.50998 4.12234,20.23498 2.67107,10.725 6.07743,25.8 7.56968,33.5 6.73875,34.77191 6.58408,33.88929 10.92454,62.34396 2.17024,14.22738 2.3228,14.44672 9.6597,13.88741 3.26863,-0.24918 6.15407,-0.66414 6.41207,-0.92215 z m 15.01319,0.13042 c 0.36044,-0.58319 0.19477,-2.27069 -0.36816,-3.75 -1.1279,-2.964 -8.38783,-31.3561 -13.21717,-51.68964 -3.15154,-13.26934 -6.67365,-38.77448 -8.81223,-54.55181 -1.17852,-8.69454 0.16985,-8.10497 -3.48048,-9.96723 -5.14091,-2.62269 -13.82757,-4.65157 -13.24114,-2.84454 0.24338,0.74997 1.84049,10.36358 3.54912,21.36358 1.70864,11 4.42598,25.625 6.03854,32.5 1.61256,6.875 3.8702,16.775 5.01698,22 3.40077,15.49474 11.6837,44.6891 13.26377,46.75 1.16636,1.52129 10.33228,1.6758 11.25077,0.18964 z m 16.12775,-0.45903 c 0.82925,-0.251 0.58241,-2.17251 -0.85643,-6.66663 -10.80065,-33.73524 -16.27591,-62.22941 -17.64021,-91.80269 l -0.66841,-14.48872 -8,-2.70674 c -4.4,-1.4887 -6.69777,-2.2651 -7.38527,-2.2951 -1.50758,-0.0658 -2.32314,3.76029 -1.00836,11.3294 0.51751,2.97923 0.73888,9.49105 1.34661,13.61605 2.37555,16.12411 4.00184,25.93953 9.61581,49.07288 7.21359,29.72485 11.69828,44.23245 13.84505,44.78752 1.54679,0.39994 8.42241,-0.14107 10.75121,-0.84597 z m 36.33495,-0.6099 c 0,-0.49281 -0.86503,-4.0176 -1.92229,-7.83285 -2.24703,-8.10869 -6.41995,-29.87133 -8.06062,-42.03786 -2.46797,-18.30142 -3.04024,-37.01774 -1.51873,-49.6707 l 0.74203,-6.17071 -4.8702,-0.68105 c -2.6786,-0.37458 -6.51247,-1.02727 -8.5197,-1.45042 -2.00723,-0.42315 -5.32084,-0.68981 -5.93914,-0.30769 -1.46457,0.90516 -1.89415,15.22747 -1.90376,27.34414 -0.0156,19.68957 5.27763,48.35224 13.29997,72.01856 l 3.19244,9.41787 6,0.5 c 6.66023,0.55502 9.5,0.21745 9.5,-1.12929 z m 126.44714,-3.76639 c 2.32732,-4.59274 7.21768,-16.7213 11.33197,-28.10432 4.02007,-11.12234 7.32482,-25.33707 8.89293,-38.25121 1.7521,-14.42928 2.26602,-35.9922 1.00284,-42.07657 l -0.79469,-3.82777 -4.14065,0.69955 c -2.27735,0.38476 -6.90336,1.48954 -8.85555,2.17018 -3.98531,1.38948 -2.57197,-0.54304 -1.60893,18.78729 0.24665,4.9508 -0.15872,13.9508 -0.90081,20 -0.7421,6.04919 -1.60796,13.24853 -1.92413,15.99853 -1.2249,10.65366 -6.80107,29.82592 -13.66976,47 -2.1997,5.5 -4.21423,10.53888 -4.47675,11.1975 -0.33044,0.82906 1.3186,1.29058 5.35955,1.5 3.21026,0.16638 6.1829,0.15815 6.60586,-0.0183 0.42295,-0.17642 1.85311,-2.46013 3.17812,-5.07491 z m 14.54711,4.89568 c 0.90516,0 5.12057,-10.59362 10.03291,-25.21341 7.44507,-22.15754 12.86393,-61.39286 12.12435,-87.78659 -0.25218,-8.99961 -0.63178,-9.38615 -7.01138,-7.13949 -6.86702,2.4183 -7.22243,2.86238 -6.11486,7.64037 2.09545,9.03969 0.66728,33.17836 -3.16499,53.49396 -2.26005,11.98102 -9.28927,34.26621 -14.98412,47.50516 -2.12929,4.95 -3.8725,9.53784 -3.8738,10.19521 -0.002,1.14012 7.85961,2.31426 10.82943,1.61732 0.73248,-0.17189 1.70559,-0.31253 2.16246,-0.31253 z m 33.7503,-0.25 c 1.80109,-2.27539 5.03072,-12.16164 9.60804,-29.41124 7.04481,-26.54831 9.58253,-47.7465 9.62472,-80.39763 0.0268,-20.74885 -0.25333,-21.56914 -6.70824,-19.64226 -6.48169,1.93487 -5.56178,1.11959 -5.52851,13.70344 0.0323,12.20486 0.55245,17.46566 -0.98144,35.17359 -2.37568,27.42593 -8.91106,48.81425 -16.39491,69.04971 -1.9783,5.34908 -3.33367,10.41158 -3.01194,11.25 0.74502,1.9415 11.8919,2.16988 13.39228,0.27439 z m 14.56473,-0.20214 c 2.12609,-2.12609 11.61444,-42.30849 14.06116,-59.54786 3.13269,-22.07273 3.49587,-34.47412 3.33875,-52.89802 -0.19099,-22.39572 1.22566,-22.2387 -7.27834,-19.85455 -3.2472,0.91037 -4.11475,1.18336 -3.68492,3.28344 0.21885,1.06927 0.24904,11.41913 0.25285,22.96913 0.0113,34.31052 -3.87248,59.32806 -14.65364,94.39227 -2.81031,9.1401 -3.24008,11.55881 -2.17396,12.23469 2.14798,1.36173 8.56375,0.99525 10.1381,-0.5791 z m 15.84677,-0.35953 c 0.89956,-0.94381 3.32281,-13.57767 6.27221,-32.70072 2.9051,-18.8359 6.09862,-52.30311 7.53717,-78.98761 1.42798,-26.48831 1.47466,-25.51104 -1.21543,-25.44356 -1.2375,0.0311 -3.825,0.59355 -5.75,1.25 l -3.5,1.19356 -0.0565,27 c -0.069,32.96886 -1.81076,46.70296 -10.90626,86 -0.7638,3.3 -2.14548,9.26198 -3.0704,13.24884 -2.26631,9.76893 -1.81761,10.68644 4.80038,9.81604 2.87805,-0.37852 5.52804,-0.99797 5.88887,-1.37655 z m 16.5915,0.98885 c 2.27701,-1.44589 6.40692,-35.30303 8.2553,-67.67718 0.59664,-10.45 1.17758,-30.925 1.29097,-45.5 l 0.20618,-26.5 -2.35171,-0.33288 c -1.29344,-0.18308 -3.37286,-0.0766 -4.62093,0.23666 -2.48277,0.62313 -2.12905,-2.6112 -4.11168,37.59622 -0.28476,5.775 -1.14237,16.125 -1.90579,23 -0.76342,6.875 -1.6597,15.875 -1.99173,20 -0.91644,11.38561 -3.35217,28.94549 -6.15745,44.39085 -2.06477,11.3682 -2.28121,14.04409 -1.19183,14.73469 1.68379,1.06741 10.91932,1.10532 12.57867,0.0516 z m 16.14044,-1.42718 c 3.17395,-8.51695 6.50205,-71.35843 5.95002,-112.34855 -0.35891,-26.6502 -0.68353,-28.41872 -5.21045,-28.38614 -4.97394,0.0358 -5.01667,0.24406 -5.36985,26.17074 -0.5064,37.17523 -5.26883,105.46744 -7.81816,112.11089 -1.33861,3.48835 0.22497,4.70306 6.05382,4.70306 4.84681,0 5.66318,-0.28725 6.39462,-2.25 z m 14.99458,0.46942 c 2.08162,-3.88955 3.61703,-42.5744 3.5946,-90.56672 -0.0219,-46.98559 -0.0959,-48.90077 -1.94113,-50.25 -1.05506,-0.77149 -2.84479,-1.39581 -3.97717,-1.38739 -4.91861,0.0366 -4.80096,-0.97196 -5.08887,43.62397 -0.14865,23.0234 -0.55907,45.68572 -0.91207,50.36072 -0.35299,4.675 -1.10139,14.575 -1.66312,22 -0.56172,7.425 -1.42019,16.39214 -1.9077,19.92697 -0.48752,3.53483 -0.6575,6.79733 -0.37774,7.25 0.27977,0.45267 2.94127,0.82303 5.91446,0.82303 4.16029,0 5.62536,-0.41025 6.35874,-1.78058 z m 19.59105,-0.96942 c 1.03316,-4.11504 0.36062,-126.8509 -0.73133,-133.46454 -0.64702,-3.91885 -1.46179,-5.8536 -2.59289,-6.15706 -4.96701,-1.33258 -7.50459,-1.65044 -9.1095,-1.14106 -1.68755,0.5356 -1.76974,2.7847 -1.43577,39.29039 0.32668,35.70903 -0.57214,70.10035 -2.43013,92.98329 -0.47172,5.80965 -0.38339,9.62959 0.23702,10.25 0.54394,0.54394 4.2252,0.98898 8.18057,0.98898 7.01133,0 7.2089,-0.0689 7.88203,-2.75 z m 20.02638,-64.25 c 0,-75.96558 0.46612,-71.68038 -8.01123,-73.64932 -2.74382,-0.63728 -6.51015,-1.20189 -8.36961,-1.25468 l -3.38084,-0.096 0.76586,3.75 c 0.42123,2.0625 0.91628,33.42693 1.10012,69.69873 0.18383,36.27181 0.56598,66.55262 0.8492,67.2907 0.38637,1.00686 2.57905,1.26937 8.78073,1.05127 l 8.26577,-0.2907 z m 18.25715,0.87838 c 0.20279,-51.75139 0.32064,-66.4901 -0.67036,-67.27063 -1.69459,-1.3341 -16.16595,-4.86192 -16.80817,-4.2197 -0.28042,0.28042 -0.0196,1.91631 0.57968,3.63531 0.74093,2.12544 1.10157,23.77537 1.12715,67.6652 0.0207,35.49686 0.29569,64.95732 0.61112,65.46769 0.31542,0.51036 3.79773,0.79649 7.73846,0.63584 l 7.16497,-0.29209 z m 16.93235,1.98002 c 0.14614,-49.07734 -0.0923,-64.02708 -1.04214,-65.32598 -0.82796,-1.13231 -3.27007,-1.86922 -7.45093,-2.24832 l -6.38411,-1.22323 0.20192,66.15825 c 0.10995,36.02427 0.344,65.80583 0.71906,66.18088 0.37505,0.37505 3.62598,0.55098 7.22428,0.39096 l 6.54242,-0.29096 z m 16.38742,62.8916 c 0.26659,-4.33246 0.0384,-126.96507 -0.23673,-127.22784 -0.1871,-0.1787 -3.31737,-0.64025 -6.95615,-1.02567 -6.38494,-0.6763 -6.63467,-0.61864 -7.15204,1.65137 -0.29484,1.29368 -0.38614,15.40214 -0.20287,31.35214 0.18326,15.95 0.36418,44.1875 0.40204,62.75 l 0.0688,33.75 7,0 c 4.89231,0 7.02316,-0.37637 7.07692,-1.25 z m 16.68043,-63.5 0.25735,-64.25 -6.89086,0 -6.89085,0 -0.6649,6.25 c -0.73535,6.91207 -0.60868,115.59502 0.1399,120.04366 0.46579,2.76805 0.53117,2.79097 7.13105,2.5 l 6.66096,-0.29366 z m 16.53735,62 c 0.29033,-1.5125 0.45529,-30.55437 0.36658,-64.5375 l -0.16128,-61.7875 -7.5,0.2875 c -5.52478,0.21178 -7.54927,0.34566 -7.4,1.5375 0.0857,0.68435 0.1675,29.6 0.25,64.25 l 0.15,63 6.88342,0 c 6.71456,0 6.89638,-0.0675 7.41128,-2.75 z m 17.46265,-62 0.25735,-64.25 -7.81154,0 -7.81154,0 0.14534,53.25 c 0.0799,29.2875 0.21683,58.33221 0.30419,64.54381 l 0.15885,11.29381 7.25,-0.29381 7.25,-0.29381 z m -413.75735,62.5516 c 0,-1.06138 -3.3443,-13.04087 -5.94674,-21.3016 -2.36318,-7.50129 -6.03038,-23.96651 -7.5726,-34 -1.52063,-9.89298 -1.96821,-29.01698 -1.15817,-49.48531 l -0.65831,-4.15566 -7.9452,-1.72999 c -4.77861,-1.0405 -9.05337,-1.12798 -9.38626,-0.79509 -0.91733,0.91732 -0.41002,23.96959 0.75188,34.16605 2.41863,21.22511 7.68624,44.89541 14.46515,65 4.5561,13.51224 4.54569,13.5 11.47593,13.5 3.97559,0 5.97432,-0.40093 5.97432,-1.1984 z m 35.99037,-3.5516 c -0.005,-2.6125 -0.64623,-10.6 -1.4243,-17.75 -0.77808,-7.15 -1.69014,-17.95 -2.02681,-24 -0.33667,-6.05 -0.79832,-13.25 -1.02589,-16 -0.22757,-2.75 -0.71345,-13.37386 -1.07973,-23.60857 l -0.66597,-18.60858 -8.63383,-1.05048 c -5.29014,-0.64366 -9.06712,-0.69319 -9.75262,-0.12789 -0.61533,0.50743 -1.16419,3.50401 -1.2197,6.65906 -0.0555,3.15505 -0.38022,8.88646 -0.7216,12.73646 -0.63502,7.16149 0.90084,31.41747 2.50107,39.5 0.49002,2.475 1.42093,7.875 2.06869,12 1.23869,7.88814 5.11556,24.89141 7.12523,31.25 l 1.18521,3.75 6.83994,0 6.83994,0 -0.01,-4.75 z m 18.1224,-19.25 c 0.33702,-12.925 0.55393,-36.1 0.76691,-51.5 l -0.54514,-28 -8.83454,-0.60282 c -5.4972,-0.3751 -10.5625,-0.3959 -11.25,-0.14301 -0.92182,0.33909 -1.25,4.28785 -1.25,15.04056 0,19.86506 4.97815,85.53237 6.70899,88.499 0.2547,0.43655 3.46188,0.66155 7.12705,0.5 l 6.66396,-0.29373 z m 16.71613,20.25 c 4.30177,-17.80566 7.31239,-47.6739 7.38564,-73.2728 0.0355,-12.38755 -0.25885,-23.54146 -0.65401,-24.78648 -0.68685,-2.16409 -1.12196,-2.25108 -9.8895,-1.9772 l -10.33649,0.28648 0.0586,17.76691 c -0.52212,14.66896 -0.80996,82.24441 -0.48275,84.98309 0.0493,0.4125 2.99727,0.75 6.55107,0.75 l 6.46145,0 z m 21.17927,-4.5 c 3.23096,-11.96779 7.73498,-34.48903 9.55744,-47.75 2.52262,-18.35559 4.23103,-50.14718 0.0665,-49.70122 -1.60927,0.17233 -17.68537,0.89734 -19.15212,2.36408 -1.17123,1.17124 -1.48205,4.54229 -1.48988,16.15857 -0.0165,24.44119 -3.19059,59.43353 -7.56773,83.42857 l -0.68406,3.75 8.52129,0 8.52129,0 z m 20.14355,-0.5 c 5.38375,-11.60249 7.38152,-17.41351 10.91532,-31.75 3.67012,-14.88952 5.83236,-31.49431 5.46915,-42 -0.31048,-8.98057 -2.18023,-19.70939 -4.1044,-23.55145 l -1.27781,-2.55146 -8.32699,1.06679 -8.32699,1.06679 -0.55631,20.98466 c -0.64661,24.39108 -4.60138,51.22512 -11.04819,74.96457 -2.94556,10.84661 -3.12093,10.5201 5.65028,10.5201 l 7.54579,0 z m 18.98897,-0.75 c 5.66908,-13.07425 12.36733,-34.03129 13.8817,-42.03475 5.58276,-29.50493 5.81688,-60.57662 -0.3077,-60.52954 -1.13596,0.009 -15.66098,2.29503 -17.45434,3.40339 -0.73746,0.45577 -0.45847,2.6299 0.88708,6.91289 6.46578,20.58115 0.17398,63.87332 -13.47369,92.70885 -1.94214,4.10346 -3.30041,7.8342 -3.01837,8.29055 0.28203,0.45634 3.90355,0.69896 8.04782,0.53916 l 7.53504,-0.29055 z m 45.58711,8.25 c 0.53498,-0.6875 2.2064,-4.625 3.71427,-8.75 13.07173,-35.75959 18.38757,-60.9805 18.38757,-95.66041 0,-10.39379 -0.73819,-19.62321 -1.32964,-20.20448 -0.65654,-0.64524 -3.16803,-0.26699 -7.31237,1.10133 l -6.31237,2.08411 0.6542,11.08972 c 0.71512,12.12241 -1.01687,32.10269 -4.54314,52.40991 -2.9521,17.00065 -5.38537,26.56347 -10.98976,43.19004 -2.74811,8.15281 -4.99656,15.08576 -4.99656,15.40654 0,1.18652 11.76527,0.57019 12.7278,-0.66676 z"
     id="path2989"
     inkscape:connector-curvature="0"
     sodipodi:nodetypes="csscccssssssscssssssssssssscssssssscscssscssssssssscsssscssssssssssssssssscscsssssssssssssssssssscsssssssssssssssssssssssssssssssscsssssssssssssssscsscsscssscsssssssccccssssssscsssscssscsscsscscccsssccssssscccccssssccccccssscccccssccsscssssssssscssssssscssscccsscssccsssscscsssscsssscsccssssssscssscsssssssscssccsssssssccssssssssscssscsssssssscsscsscsscsscssscsssssscscccssssssscsssssssssssscsssssssccscscsssscccsscscsssssccssssssssscssssscsssssssssssssscsssscsssscssscsscscssscsccsssscscccsccsssccsccssscsscsccssccccscsscsssssscsssscssssssscccccsscssssscssssscscscssssssscccssssscccssscssssssssscsssssscssssss" />
  <path
     style="fill:none;stroke:#000000;stroke-width:2.32318711;stroke-linecap:round;stroke-linejoin:miter;stroke-miterlimit:4;stroke-opacity:1;stroke-dasharray:none;marker-start:url(#Arrow2Mstart)"
     d="m 552.87608,125.27183 -20.12649,-52.257537 0,0 0,0"
     id="path3767"
     inkscape:connector-curvature="0" />
  <path
     inkscape:connector-curvature="0"
     id="path5135"
     d="m 498.98777,142.78344 -13.67417,-54.304169 0,0 0,0"
     style="fill:none;stroke:#000000;stroke-width:2.32318711;stroke-linecap:round;stroke-linejoin:miter;stroke-miterlimit:4;stroke-opacity:1;stroke-dasharray:none;marker-start:url(#Arrow2Mstart)" />
  <path
     style="fill:none;stroke:#000000;stroke-width:2.32318711;stroke-linecap:round;stroke-linejoin:miter;stroke-miterlimit:4;stroke-opacity:1;stroke-dasharray:none;marker-start:url(#Arrow2Mstart)"
     d="m 282.41639,137.4624 18.36149,-52.903514 0,0 0,0"
     id="path5137"
     inkscape:connector-curvature="0" />
  <path
     inkscape:connector-curvature="0"
     id="path5139"
     d="m 224.05332,119.65298 27.26398,-48.914223 0,0 0,0"
     style="fill:none;stroke:#000000;stroke-width:2.32318711;stroke-linecap:round;stroke-linejoin:miter;stroke-miterlimit:4;stroke-opacity:1;stroke-dasharray:none;marker-start:url(#Arrow2Mstart)" />
  <flowRoot
     xml:space="preserve"
     id="flowRoot5141"
     style="font-size:20px;font-style:normal;font-variant:normal;font-weight:normal;font-stretch:normal;text-align:start;line-height:100%;letter-spacing:0px;word-spacing:0px;writing-mode:lr-tb;text-anchor:start;fill:#000000;fill-opacity:1;stroke:none;font-family:Sans;-inkscape-font-specification:Sans"
     transform="translate(15.822795,8.5706808)"><flowRegion
       id="flowRegion5143"><rect
         id="rect5145"
         width="42.194122"
         height="26.371325"
         x="503.69232"
         y="38.605312"
         style="font-size:20px;font-style:normal;font-variant:normal;font-weight:normal;font-stretch:normal;font-family:Sans;-inkscape-font-specification:Sans" /></flowRegion><flowPara
       id="flowPara5147">A</flowPara></flowRoot>  <flowRoot
     style="font-size:20px;font-style:normal;font-variant:normal;font-weight:normal;font-stretch:normal;text-align:start;line-height:100%;letter-spacing:0px;word-spacing:0px;writing-mode:lr-tb;text-anchor:start;fill:#000000;fill-opacity:1;stroke:none;font-family:Sans;-inkscape-font-specification:Sans"
     id="flowRoot5149"
     xml:space="preserve"
     transform="translate(-29.008458,23.07491)"><flowRegion
       id="flowRegion5151"><rect
         style="font-size:20px;font-style:normal;font-variant:normal;font-weight:normal;font-stretch:normal;font-family:Sans;-inkscape-font-specification:Sans"
         y="38.605312"
         x="503.69232"
         height="26.371325"
         width="42.194122"
         id="rect5153" /></flowRegion><flowPara
       id="flowPara5155">B</flowPara></flowRoot>  <flowRoot
     transform="translate(-203.71849,17.141362)"
     xml:space="preserve"
     id="flowRoot5157"
     style="font-size:20px;font-style:normal;font-variant:normal;font-weight:normal;font-stretch:normal;text-align:start;line-height:100%;letter-spacing:0px;word-spacing:0px;writing-mode:lr-tb;text-anchor:start;fill:#000000;fill-opacity:1;stroke:none;font-family:Sans;-inkscape-font-specification:Sans"><flowRegion
       id="flowRegion5159"><rect
         id="rect5161"
         width="42.194122"
         height="26.371325"
         x="503.69232"
         y="38.605312"
         style="font-size:20px;font-style:normal;font-variant:normal;font-weight:normal;font-stretch:normal;font-family:Sans;-inkscape-font-specification:Sans" /></flowRegion><flowPara
       id="flowPara5163">C</flowPara></flowRoot>  <flowRoot
     style="font-size:20px;font-style:normal;font-variant:normal;font-weight:normal;font-stretch:normal;text-align:start;line-height:100%;letter-spacing:0px;word-spacing:0px;writing-mode:lr-tb;text-anchor:start;fill:#000000;fill-opacity:1;stroke:none;font-family:Sans;-inkscape-font-specification:Sans"
     id="flowRoot5165"
     xml:space="preserve"
     transform="translate(-248.54974,4.614982)"><flowRegion
       id="flowRegion5167"><rect
         style="font-size:20px;font-style:normal;font-variant:normal;font-weight:normal;font-stretch:normal;font-family:Sans;-inkscape-font-specification:Sans"
         y="38.605312"
         x="503.69232"
         height="26.371325"
         width="42.194122"
         id="rect5169" /></flowRegion><flowPara
       id="flowPara5171">D</flowPara></flowRoot></svg>
