<?xml version="1.0" encoding="UTF-8" standalone="no"?>
<!-- Created with Inkscape (http://www.inkscape.org/) -->

<svg
   xmlns:dc="http://purl.org/dc/elements/1.1/"
   xmlns:cc="http://creativecommons.org/ns#"
   xmlns:rdf="http://www.w3.org/1999/02/22-rdf-syntax-ns#"
   xmlns:svg="http://www.w3.org/2000/svg"
   xmlns="http://www.w3.org/2000/svg"
   xmlns:sodipodi="http://sodipodi.sourceforge.net/DTD/sodipodi-0.dtd"
   xmlns:inkscape="http://www.inkscape.org/namespaces/inkscape"
   id="svg2"
   version="1.1"
   inkscape:version="0.48.4 r9939"
   width="264.99875"
   height="189.10117"
   xml:space="preserve"
   sodipodi:docname="11660_008_fig_006.eps"><metadata
     id="metadata8"><rdf:RDF><cc:Work
         rdf:about=""><dc:format>image/svg+xml</dc:format><dc:type
           rdf:resource="http://purl.org/dc/dcmitype/StillImage" /><dc:title></dc:title></cc:Work></rdf:RDF></metadata><defs
     id="defs6"><clipPath
       clipPathUnits="userSpaceOnUse"
       id="clipPath18"><path
         d="M 0,1712.97 0,0 l 2034.99,0 0,1712.97 -2034.99,0 z"
         id="path20"
         inkscape:connector-curvature="0" /></clipPath></defs><sodipodi:namedview
     pagecolor="#ffffff"
     bordercolor="#666666"
     borderopacity="1"
     objecttolerance="10"
     gridtolerance="10"
     guidetolerance="10"
     inkscape:pageopacity="0"
     inkscape:pageshadow="2"
     inkscape:window-width="1600"
     inkscape:window-height="1127"
     id="namedview4"
     showgrid="false"
     fit-margin-left="5"
     fit-margin-bottom="5"
     fit-margin-top="5"
     fit-margin-right="5"
     inkscape:zoom="3.1173791"
     inkscape:cx="134.31462"
     inkscape:cy="78.091794"
     inkscape:window-x="-3"
     inkscape:window-y="-3"
     inkscape:window-maximized="1"
     inkscape:current-layer="g10" /><g
     id="g10"
     inkscape:groupmode="layer"
     inkscape:label="ink_ext_XXXXXX"
     transform="matrix(1.25,0,0,-1.25,5.3125,218.07187)"><path
       inkscape:connector-curvature="0"
       id="path22"
       style="fill:#ffffff;fill-opacity:1;fill-rule:nonzero;stroke:none"
       d="m 161.85,63.0762 c -0.638,-2.3223 -3.037,-3.6852 -5.358,-3.0461 -2.321,0.6379 -3.685,3.0371 -3.047,5.3578 0.64,2.3223 3.04,3.6851 5.36,3.0473 2.32,-0.6403 3.683,-3.0383 3.045,-5.359" /><path
       inkscape:connector-curvature="0"
       id="path24"
       style="fill:none;stroke:#231f20;stroke-width:0.5;stroke-linecap:butt;stroke-linejoin:miter;stroke-miterlimit:4;stroke-opacity:1;stroke-dasharray:none"
       d="m 161.85,63.0762 c -0.638,-2.3223 -3.037,-3.6852 -5.358,-3.0461 -2.321,0.6379 -3.685,3.0371 -3.047,5.3578 0.64,2.3223 3.04,3.6851 5.36,3.0473 2.32,-0.6403 3.683,-3.0383 3.045,-5.359 z" /><path
       inkscape:connector-curvature="0"
       id="path26"
       style="fill:none;stroke:#231f20;stroke-width:0.5;stroke-linecap:butt;stroke-linejoin:miter;stroke-miterlimit:4;stroke-opacity:1;stroke-dasharray:none"
       d="M 161.438,66.3859 153.86,62.0781" /><path
       inkscape:connector-curvature="0"
       id="path28"
       style="fill:none;stroke:#231f20;stroke-width:0.5;stroke-linecap:butt;stroke-linejoin:miter;stroke-miterlimit:4;stroke-opacity:1;stroke-dasharray:none"
       d="m 155.494,68.0211 4.309,-7.5789" /><path
       inkscape:connector-curvature="0"
       id="path30"
       style="fill:#231f20;fill-opacity:1;fill-rule:nonzero;stroke:none"
       d="m 155.576,67.9512 2.143,-3.6571 3.58,2.1618 c 0,0 -0.338,0.8203 -1.156,1.3679 -0.817,0.5481 -1.397,0.7883 -1.793,0.8172 -0.397,0.027 -1.325,-0.1211 -1.325,-0.1211 l -0.757,-0.114 -0.692,-0.4547" /><path
       inkscape:connector-curvature="0"
       id="path32"
       style="fill:#231f20;fill-opacity:1;fill-rule:nonzero;stroke:none"
       d="m 159.689,60.6039 -2.141,3.6563 -3.582,-2.1633 c 0,0 0.339,-0.8199 1.158,-1.368 0.818,-0.548 1.397,-0.7879 1.793,-0.816 0.397,-0.0277 1.323,0.1191 1.323,0.1191 l 0.759,0.1149 0.69,0.457" /><path
       inkscape:connector-curvature="0"
       id="path34"
       style="fill:none;stroke:#231f20;stroke-width:0.5;stroke-linecap:butt;stroke-linejoin:miter;stroke-miterlimit:4;stroke-opacity:1;stroke-dasharray:none"
       d="m 137.499,38.3879 66,0" /><path
       inkscape:connector-curvature="0"
       id="path36"
       style="fill:#231f20;fill-opacity:1;fill-rule:nonzero;stroke:none"
       d="m 168.905,40.4719 c 0.344,-0.818 0.193,-1.659 -0.334,-1.8797 -0.529,-0.2223 -1.235,0.2609 -1.579,1.0789 l -4.734,11.2969 c -0.343,0.8172 -0.192,1.6601 0.338,1.882 0.527,0.2199 1.232,-0.2629 1.575,-1.0789 l 4.734,-11.2992" /><path
       inkscape:connector-curvature="0"
       id="path38"
       style="fill:none;stroke:#231f20;stroke-width:0.5;stroke-linecap:butt;stroke-linejoin:miter;stroke-miterlimit:4;stroke-opacity:1;stroke-dasharray:none"
       d="m 168.905,40.4719 c 0.344,-0.818 0.193,-1.659 -0.334,-1.8797 -0.529,-0.2223 -1.235,0.2609 -1.579,1.0789 l -4.734,11.2969 c -0.343,0.8172 -0.192,1.6601 0.338,1.882 0.527,0.2199 1.232,-0.2629 1.575,-1.0789 l 4.734,-11.2992 z" /><path
       inkscape:connector-curvature="0"
       id="path40"
       style="fill:none;stroke:#231f20;stroke-width:0.5;stroke-linecap:butt;stroke-linejoin:miter;stroke-miterlimit:4;stroke-opacity:1;stroke-dasharray:none"
       d="m 163.833,50.2211 -4.167,9.8328" /><path
       inkscape:connector-curvature="0"
       id="path42"
       style="fill:none;stroke:#231f20;stroke-width:0.49999997;stroke-linecap:butt;stroke-linejoin:miter;stroke-miterlimit:4;stroke-opacity:1;stroke-dasharray:3.99999998, 1.99999999;stroke-dashoffset:0"
       d="m 157.666,59.670194 0,31.144148 m 11.833,-52.093242 0,46.940327" /><text
       transform="scale(1,-1)"
       id="text46"
       x="150.166"
       y="-27.289064"><tspan
         style="font-size:7.5px;font-variant:normal;font-weight:normal;writing-mode:lr-tb;fill:#231f20;fill-opacity:1;fill-rule:nonzero;stroke:none;font-family:Helvetica;-inkscape-font-specification:Helvetica"
         x="150.166 154.41092 156.90843 161.07843 165.24843 167.33342 169.41843 173.16843 174.83347 178.85378"
         y="-27.289064"
         sodipodi:role="line"
         id="tspan48">Front view</tspan></text>
<text
       y="-89.198471"
       x="39.303642"
       id="text3225"
       transform="scale(1,-1)"><tspan
         id="tspan3227"
         sodipodi:role="line"
         y="-89.198471"
         x="39.303642"
         style="font-size:7.5px;font-variant:normal;font-weight:normal;writing-mode:lr-tb;fill:#231f20;fill-opacity:1;fill-rule:nonzero;stroke:none;font-family:Helvetica;-inkscape-font-specification:Helvetica">Path of the center of mass CM</tspan></text>
<path
       inkscape:connector-curvature="0"
       id="path50"
       style="fill:none;stroke:#231f20;stroke-width:0.5;stroke-linecap:butt;stroke-linejoin:miter;stroke-miterlimit:4;stroke-opacity:1;stroke-dasharray:none"
       d="m 0,127.854 c 0,0 68.8328,0 71.6672,0 2.8328,0 59.8318,5.666 83.6658,-32.8337" /><path
       inkscape:connector-curvature="0"
       id="path52"
       style="fill:#231f20;fill-opacity:1;fill-rule:nonzero;stroke:none"
       d="m 155.065,95.4555 0.955,1.8789 0.067,-0.0309 0.554,-3.1121 c 0.347,-0.9879 0.695,-1.9769 1.042,-2.966 -0.731,0.7519 -1.46,1.5031 -2.191,2.2551 l -2.538,1.884 -0.007,0.0679 2.118,0.0231" /><path
       inkscape:connector-curvature="0"
       id="path54"
       style="fill:#231f20;fill-opacity:1;fill-rule:nonzero;stroke:none"
       d="m 8.83398,127.854 c 0,-0.737 -0.59687,-1.334 -1.33398,-1.334 -0.73594,0 -1.3332,0.597 -1.3332,1.334 0,0.736 0.59726,1.334 1.3332,1.334 0.73711,0 1.33398,-0.598 1.33398,-1.334" /><path
       inkscape:connector-curvature="0"
       id="path56"
       style="fill:#231f20;fill-opacity:1;fill-rule:nonzero;stroke:none"
       d="m 22.6672,127.854 c 0,-0.737 -0.5973,-1.334 -1.3332,-1.334 -0.736,0 -1.334,0.597 -1.334,1.334 0,0.736 0.598,1.334 1.334,1.334 0.7359,0 1.3332,-0.598 1.3332,-1.334" /><path
       inkscape:connector-curvature="0"
       id="path58"
       style="fill:#231f20;fill-opacity:1;fill-rule:nonzero;stroke:none"
       d="m 33.834,127.854 c 0,-0.737 -0.5969,-1.334 -1.3328,-1.334 -0.7371,0 -1.334,0.597 -1.334,1.334 0,0.736 0.5969,1.334 1.334,1.334 0.7359,0 1.3328,-0.598 1.3328,-1.334" /><path
       inkscape:connector-curvature="0"
       id="path60"
       style="fill:#231f20;fill-opacity:1;fill-rule:nonzero;stroke:none"
       d="m 45.5012,127.854 c 0,-0.737 -0.5973,-1.334 -1.3332,-1.334 -0.7371,0 -1.334,0.597 -1.334,1.334 0,0.736 0.5969,1.334 1.334,1.334 0.7359,0 1.3332,-0.598 1.3332,-1.334" /><path
       inkscape:connector-curvature="0"
       id="path62"
       style="fill:#231f20;fill-opacity:1;fill-rule:nonzero;stroke:none"
       d="m 55.168,127.854 c 0,-0.737 -0.5981,-1.334 -1.334,-1.334 -0.736,0 -1.3328,0.597 -1.3328,1.334 0,0.736 0.5968,1.334 1.3328,1.334 0.7359,0 1.334,-0.598 1.334,-1.334" /><path
       inkscape:connector-curvature="0"
       id="path64"
       style="fill:#231f20;fill-opacity:1;fill-rule:nonzero;stroke:none"
       d="m 65.5012,128.104 c 0,-0.737 -0.5973,-1.334 -1.3332,-1.334 -0.7371,0 -1.334,0.597 -1.334,1.334 0,0.736 0.5969,1.334 1.334,1.334 0.7359,0 1.3332,-0.598 1.3332,-1.334" /><path
       inkscape:connector-curvature="0"
       id="path66"
       style="fill:#231f20;fill-opacity:1;fill-rule:nonzero;stroke:none"
       d="m 78.334,128.104 c 0,-0.737 -0.5969,-1.334 -1.3328,-1.334 -0.7371,0 -1.334,0.597 -1.334,1.334 0,0.736 0.5969,1.334 1.334,1.334 0.7359,0 1.3328,-0.598 1.3328,-1.334" /><path
       inkscape:connector-curvature="0"
       id="path68"
       style="fill:#231f20;fill-opacity:1;fill-rule:nonzero;stroke:none"
       d="m 88.334,128.104 c 0,-0.737 -0.5969,-1.334 -1.334,-1.334 -0.7359,0 -1.3328,0.597 -1.3328,1.334 0,0.736 0.5969,1.334 1.3328,1.334 0.7371,0 1.334,-0.598 1.334,-1.334" /><path
       inkscape:connector-curvature="0"
       id="path70"
       style="fill:#231f20;fill-opacity:1;fill-rule:nonzero;stroke:none"
       d="m 98.1672,127.438 c 0,-0.738 -0.5973,-1.334 -1.3344,-1.334 -0.7359,0 -1.3328,0.596 -1.3328,1.334 0,0.735 0.5969,1.332 1.3328,1.332 0.7371,0 1.3344,-0.597 1.3344,-1.332" /><path
       inkscape:connector-curvature="0"
       id="path72"
       style="fill:#231f20;fill-opacity:1;fill-rule:nonzero;stroke:none"
       d="m 108.167,125.77 c 0,-0.736 -0.597,-1.332 -1.334,-1.332 -0.736,0 -1.333,0.596 -1.333,1.332 0,0.737 0.597,1.334 1.333,1.334 0.737,0 1.334,-0.597 1.334,-1.334" /><path
       inkscape:connector-curvature="0"
       id="path74"
       style="fill:#231f20;fill-opacity:1;fill-rule:nonzero;stroke:none"
       d="m 117.5,123.27 c 0,-0.736 -0.597,-1.332 -1.333,-1.332 -0.736,0 -1.334,0.596 -1.334,1.332 0,0.737 0.598,1.334 1.334,1.334 0.736,0 1.333,-0.597 1.333,-1.334" /><path
       inkscape:connector-curvature="0"
       id="path76"
       style="fill:#231f20;fill-opacity:1;fill-rule:nonzero;stroke:none"
       d="m 127.167,119.938 c 0,-0.738 -0.597,-1.334 -1.333,-1.334 -0.737,0 -1.334,0.596 -1.334,1.334 0,0.735 0.597,1.332 1.334,1.332 0.736,0 1.333,-0.597 1.333,-1.332" /><path
       inkscape:connector-curvature="0"
       id="path78"
       style="fill:#231f20;fill-opacity:1;fill-rule:nonzero;stroke:none"
       d="m 136.666,114.77 c 0,-0.736 -0.597,-1.332 -1.333,-1.332 -0.736,0 -1.333,0.596 -1.333,1.332 0,0.737 0.597,1.334 1.333,1.334 0.736,0 1.333,-0.597 1.333,-1.334" /><path
       inkscape:connector-curvature="0"
       id="path80"
       style="fill:#231f20;fill-opacity:1;fill-rule:nonzero;stroke:none"
       d="m 145.5,108.104 c 0,-0.736 -0.597,-1.334 -1.333,-1.334 -0.736,0 -1.333,0.598 -1.333,1.334 0,0.736 0.597,1.334 1.333,1.334 0.736,0 1.333,-0.598 1.333,-1.334" /><path
       inkscape:connector-curvature="0"
       id="path82"
       style="fill:#231f20;fill-opacity:1;fill-rule:nonzero;stroke:none"
       d="m 152.667,100.604 c 0,-0.7356 -0.597,-1.3337 -1.333,-1.3337 -0.736,0 -1.333,0.5981 -1.333,1.3337 0,0.736 0.597,1.334 1.333,1.334 0.736,0 1.333,-0.598 1.333,-1.334" /><path
       inkscape:connector-curvature="0"
       id="path84"
       style="fill:none;stroke:#231f20;stroke-width:0.5;stroke-linecap:butt;stroke-linejoin:miter;stroke-miterlimit:4;stroke-opacity:1;stroke-dasharray:none"
       d="m 54.1672,127.854 c 5.6656,0 14.7508,-0.435 19.3328,2.5 10.666,6.834 65.999,22.166 94.833,-41.3337" /><path
       inkscape:connector-curvature="0"
       id="path86"
       style="fill:#231f20;fill-opacity:1;fill-rule:nonzero;stroke:none"
       d="m 168.122,89.4855 1.188,1.7418 0.062,-0.039 0.152,-3.1571 c 0.218,-1.025 0.437,-2.05 0.655,-3.075 -0.628,0.8391 -1.256,1.6782 -1.885,2.5161 l -2.276,2.1922 0.002,0.0691 2.102,-0.2481" /><path
       inkscape:connector-curvature="0"
       id="path88"
       style="fill:none;stroke:#231f20;stroke-width:0.5;stroke-linecap:butt;stroke-linejoin:miter;stroke-miterlimit:4;stroke-opacity:1;stroke-dasharray:none"
       d="m 76.584,147.52 c 0,-1.25 -1.5,-2 -2.25,-2 -0.75,0 -4.25,0 -6.75,0 -2.5,0 -2.5,-2.5 -2.5,-2.5 l 0,-11.832" /><path
       inkscape:connector-curvature="0"
       id="path90"
       style="fill:none;stroke:#231f20;stroke-width:0.5;stroke-linecap:butt;stroke-linejoin:miter;stroke-miterlimit:4;stroke-opacity:1;stroke-dasharray:none"
       d="m 88.0828,137.02 0,6 c 0,0 0,2.5 -2.5,2.5 -2.5,0 -6,0 -6.7488,0 -0.75,0 -2.25,0.75 -2.25,2 l 0,7" /><g
       id="g92"><text
         id="text94"
         transform="matrix(1,0,0,-1,53.6664,164.855)"><tspan
           id="tspan96"
           sodipodi:role="line"
           y="0"
           x="0 5.415 9.585 13.755 17.924999 20.01 24.18 26.6775 30.4275 32.512501 36.682499 40.852501"
           style="font-size:7.5px;font-variant:normal;font-weight:normal;writing-mode:lr-tb;fill:#231f20;fill-opacity:1;fill-rule:nonzero;stroke:none;font-family:Helvetica;-inkscape-font-specification:Helvetica">Countersteer</tspan><tspan
           id="tspan98"
           sodipodi:role="line"
           y="7.6882801"
           x="0 1.665 5.835 7.9200001 10.005 12.09 14.175 18.344999 20.43 22.514999 26.685514 29.369892 33.53989 35.625439 38.235596 39.900597 44.070599 48.240597"
           style="font-size:7.5px;font-variant:normal;font-weight:normal;writing-mode:lr-tb;fill:#231f20;fill-opacity:1;fill-rule:nonzero;stroke:none;font-family:Helvetica;-inkscape-font-specification:Helvetica">left to turn right</tspan><tspan
           id="tspan100"
           sodipodi:role="line"
           y="24.083981"
           x="103.251 110.331 114.501 118.671 122.841 124.506 126.591 130.761 134.931 137.01601"
           style="font-size:7.5px;font-variant:normal;font-weight:normal;writing-mode:lr-tb;fill:#231f20;fill-opacity:1;fill-rule:nonzero;stroke:none;font-family:Helvetica;-inkscape-font-specification:Helvetica">Wheel path</tspan><tspan
           id="tspan102"
           sodipodi:role="line"
           style="font-size:7.5px;font-variant:normal;font-weight:normal;writing-mode:lr-tb;fill:#231f20;fill-opacity:1;fill-rule:nonzero;stroke:none;font-family:Helvetica;-inkscape-font-specification:Helvetica"
           x="0"
           y="0" /></text>
</g><path
       inkscape:connector-curvature="0"
       id="path104"
       style="fill:none;stroke:#231f20;stroke-width:0.5;stroke-linecap:butt;stroke-linejoin:miter;stroke-miterlimit:4;stroke-opacity:1;stroke-dasharray:none"
       d="m 155.916,140.77 -14,-10.5" /><path
       inkscape:connector-curvature="0"
       id="path106"
       style="fill:#231f20;fill-opacity:1;fill-rule:nonzero;stroke:none"
       d="m 142.324,130.577 1.957,-0.784 -0.024,-0.07 -3.051,-0.828 c -0.953,-0.434 -1.907,-0.868 -2.861,-1.302 0.683,0.793 1.367,1.587 2.051,2.381 l 1.65,2.697 0.067,0.013 0.211,-2.107" /><path
       inkscape:connector-curvature="0"
       id="path108"
       style="fill:none;stroke:#231f20;stroke-width:0.5;stroke-linecap:butt;stroke-linejoin:miter;stroke-miterlimit:4;stroke-opacity:1;stroke-dasharray:none"
       d="m 95.516,98.6203 11.25,20.7497" /><path
       inkscape:connector-curvature="0"
       id="path110"
       style="fill:#231f20;fill-opacity:1;fill-rule:nonzero;stroke:none"
       d="m 106.523,118.922 -2.106,-0.104 -0.006,0.073 2.426,2.027 c 0.685,0.793 1.371,1.584 2.057,2.377 -0.29,-1.007 -0.58,-2.015 -0.869,-3.021 l -0.375,-3.138 -0.057,-0.041 -1.07,1.827" /></g></svg>