<?xml version="1.0" encoding="UTF-8" standalone="no"?>
<!-- Created with Inkscape (http://www.inkscape.org/) -->

<svg
   xmlns:dc="http://purl.org/dc/elements/1.1/"
   xmlns:cc="http://creativecommons.org/ns#"
   xmlns:rdf="http://www.w3.org/1999/02/22-rdf-syntax-ns#"
   xmlns:svg="http://www.w3.org/2000/svg"
   xmlns="http://www.w3.org/2000/svg"
   xmlns:sodipodi="http://sodipodi.sourceforge.net/DTD/sodipodi-0.dtd"
   xmlns:inkscape="http://www.inkscape.org/namespaces/inkscape"
   id="svg2"
   version="1.1"
   inkscape:version="0.48.4 r9939"
   width="366.3764"
   height="278.14313"
   sodipodi:docname="Wilson_003_fig_002.svg"
   inkscape:export-filename="/home/theo/Desktop/Data/BS/BS4-chapter3/fig3.2.alternative.png"
   inkscape:export-xdpi="200"
   inkscape:export-ydpi="200">
  <metadata
     id="metadata8">
    <rdf:RDF>
      <cc:Work
         rdf:about="">
        <dc:format>image/svg+xml</dc:format>
        <dc:type
           rdf:resource="http://purl.org/dc/dcmitype/StillImage" />
        <dc:title></dc:title>
      </cc:Work>
    </rdf:RDF>
  </metadata>
  <defs
     id="defs6" />
  <sodipodi:namedview
     pagecolor="#ffffff"
     bordercolor="#666666"
     borderopacity="1"
     objecttolerance="10"
     gridtolerance="10"
     guidetolerance="10"
     inkscape:pageopacity="0"
     inkscape:pageshadow="2"
     inkscape:window-width="1600"
     inkscape:window-height="1127"
     id="namedview4"
     showgrid="false"
     fit-margin-top="10"
     fit-margin-right="10"
     fit-margin-left="10"
     fit-margin-bottom="10"
     inkscape:zoom="2.2637889"
     inkscape:cx="157.46918"
     inkscape:cy="117.49977"
     inkscape:window-x="-3"
     inkscape:window-y="-3"
     inkscape:window-maximized="1"
     inkscape:current-layer="svg2" />
  <rect
     style="opacity:0.38888891;color:#000000;fill:#ececec;fill-opacity:1;fill-rule:nonzero;stroke:#000000;stroke-width:1;stroke-linecap:butt;stroke-linejoin:miter;stroke-miterlimit:4;stroke-opacity:1;stroke-dasharray:none;stroke-dashoffset:0;marker:none;visibility:visible;display:inline;overflow:visible;enable-background:accumulate"
     id="rect3028"
     width="57.802597"
     height="223.11613"
     x="298.07382"
     y="29.180948"
     ry="0.11585867" />
  <rect
     style="opacity:0.38888891;color:#000000;fill:#ececec;fill-opacity:1;fill-rule:nonzero;stroke:#000000;stroke-width:1;stroke-linecap:butt;stroke-linejoin:miter;stroke-miterlimit:4;stroke-opacity:1;stroke-dasharray:none;stroke-dashoffset:0;marker:none;visibility:visible;display:inline;overflow:visible;enable-background:accumulate"
     id="rect3049-3"
     width="107.27715"
     height="222.67439"
     x="190.2899"
     y="29.62269"
     ry="0.11585867" />
  <path
     style="font-size:medium;font-style:normal;font-variant:normal;font-weight:normal;font-stretch:normal;text-indent:0;text-align:start;text-decoration:none;line-height:normal;letter-spacing:normal;word-spacing:normal;text-transform:none;direction:ltr;block-progression:tb;writing-mode:lr-tb;text-anchor:start;baseline-shift:baseline;opacity:0.38888891;color:#000000;fill:#000000;fill-opacity:1;fill-rule:nonzero;stroke:none;stroke-width:1;marker:none;visibility:visible;display:inline;overflow:visible;enable-background:accumulate;font-family:Sans;-inkscape-font-specification:Sans"
     d="m 156.3125,29.266816 0,0.5 0,222.750004 0,0.5 0.5,0 33.40625,0 0.5,0 0,-0.5 0,-222.750004 0,-0.5 -0.5,0 -33.84799,-8.17214 z m 1.22087,-6.509534 32.18538,7.509534 0,221.750004 -32.40625,0 z"
     id="rect3049-2"
     inkscape:connector-curvature="0"
     sodipodi:nodetypes="cccccccccccccccccc" />
  <path
     style="opacity:0.38888891;color:#000000;fill:#ececec;fill-opacity:1;fill-rule:nonzero;stroke:#000000;stroke-width:1;stroke-linecap:butt;stroke-linejoin:miter;stroke-miterlimit:4;stroke-opacity:1;stroke-dashoffset:0;marker:none;visibility:visible;display:inline;overflow:visible;enable-background:accumulate"
     d="m 122.78886,29.395971 34.26763,-7.730403 0,230.717162 -34.26763,0 z"
     id="rect3049"
     inkscape:connector-curvature="0"
     sodipodi:nodetypes="ccccc" />
  <rect
     ry="0.11585867"
     y="29.622686"
     x="10.502821"
     height="222.89526"
     width="112.57801"
     id="rect3026"
     style="opacity:0.38888891;color:#000000;fill:#ececec;fill-opacity:1;fill-rule:nonzero;stroke:#000000;stroke-width:1;stroke-linecap:butt;stroke-linejoin:miter;stroke-miterlimit:4;stroke-opacity:1;stroke-dasharray:none;stroke-dashoffset:0;marker:none;visibility:visible;display:inline;overflow:visible;enable-background:accumulate" />
  <path
     style="fill:#000000"
     d="m 154.55566,252.86945 c -16.96335,-13.61879 -21.12345,-45.88293 -25.36024,-66.6753 -1.91152,-7.8191 -4.29799,-36.09234 -6.74298,-38.04217 L 66.06057,147.71024 C 11.410091,147.28214 10.66261,147.8678 10,146.97806 c 0,-0.1696 0.24788,2.03272 0.34255,-0.79169 9.48159,-0.0636 37.58382,0.3679 56.40745,0.41134 l 56.75,0.13097 1.17462,4.31055 c 2.00859,12.46777 3.4021,25.19017 4.97472,33.54346 1.57261,8.35328 3.03207,15.61068 4.08349,21.10503 0.89619,4.68317 2.26454,9.77897 3.18743,13.64244 1.09616,4.48731 4.65533,14.45453 7.81678,20.19325 2.4219,4.12471 8.75591,13.89162 11.93835,13.09292 0.0985,3.34366 2.49944,-13.5645 3.82287,-23.40104 0.40991,-4.04626 6.69212,-51.4439 7.01104,-55.87785 0.60627,-5.37976 5.12871,-40.67119 7.3003,-54.82716 1.14037,-8.35482 2.54062,-12.79882 3.68984,-19.451126 1.79162,-8.955954 5.65135,-20.748474 10.21628,-32.439494 1.0967,-2.80873 1.50645,-3.346916 2.75358,-2.323596 0.32304,0.26507 1.39813,5.042398 2.77087,10.425418 7.2682,28.501248 12.23937,38.418968 15.43275,44.115448 2.50284,4.04432 4.63576,8.90623 7.70708,11.85916 1.91272,1.81296 3.68318,3.10905 4.18117,3.66689 1.69039,1.89354 9.37072,6.03615 14.59134,7.72973 5.83689,1.8935 12.69941,2.48957 24.09749,3.39727 4.2625,0.33944 17.74537,0.81407 17.74537,1.05472 0,0.59348 -12.04001,0.54272 -21.99537,-0.29788 -10.1343,-0.85571 -15.30625,-1.74356 -21.15234,-3.63114 -6.99512,-2.16256 -11.72516,-5.27774 -16.98868,-10.01904 -4.31735,-3.04957 -11.08958,-16.41206 -13.86667,-23.39686 -3.52328,-7.20371 -6.56305,-17.99123 -9.02349,-27.190627 -1.80342,-6.742857 -4.28094,-17.398893 -4.78076,-16.099233 -2.45114,6.3736 -6.27423,16.530544 -8.05268,22.201318 -4.73517,15.098552 -9.30793,50.104172 -9.75852,53.579172 -0.48111,3.71034 -1.88924,13.84216 -2.71293,20.1178 -1.73406,13.21161 -9.01674,73.26122 -10.9476,85.26102 -0.96788,6.01518 -0.8431,5.55186 -1.96778,5.54978 -1.876,1.10334 -0.8273,0.30697 -2.19289,0.25047 z M 273.25,147.12252 c -1.7875,-0.11249 -3.25,-0.45079 -3.25,-0.75177 0,-0.36755 2.01829,-0.44026 6.14669,-0.22143 3.38068,0.17919 22.50568,0.3258 42.5,0.3258 11.78443,0 19.54709,-0.13182 25.68977,-0.0906 6.38414,0.0428 8.82862,-0.0145 10.39596,-0.062 1.56681,-0.0475 0.26758,0.79836 0.26758,0.88055 0,0.48812 -74.19988,0.39456 -81.75,-0.0806 z"
     id="path2994"
     inkscape:connector-curvature="0"
     sodipodi:nodetypes="cccsccsccsscccccccsssccssssscccssssssccccsscssccc" />
  <flowRoot
     xml:space="preserve"
     id="flowRoot2987"
     style="font-size:12px;font-style:normal;font-variant:normal;font-weight:normal;font-stretch:normal;text-align:start;line-height:100%;letter-spacing:0px;word-spacing:0px;writing-mode:lr-tb;text-anchor:start;fill:#000000;fill-opacity:1;stroke:none;font-family:Serif;-inkscape-font-specification:Serif"
     transform="translate(33.908989,-24.432605)"><flowRegion
       id="flowRegion2989"><rect
         id="rect2991"
         width="63.720509"
         height="16.242483"
         x="9.3706627"
         y="157.12029" /></flowRegion><flowPara
       id="flowPara2993"
       style="-inkscape-font-specification:Sans;font-family:Sans;font-weight:normal;font-style:normal;font-stretch:normal;font-variant:normal;font-size:10px">31 km/h</flowPara></flowRoot>  <flowRoot
     xml:space="preserve"
     id="flowRoot2995"
     style="font-size:12px;font-style:normal;font-variant:normal;font-weight:normal;font-stretch:normal;text-align:start;line-height:100%;letter-spacing:0px;word-spacing:0px;writing-mode:lr-tb;text-anchor:start;fill:#000000;fill-opacity:1;stroke:none;font-family:Serif;-inkscape-font-specification:Serif"
     transform="translate(8.4712041,47.755587)"><flowRegion
       id="flowRegion2997"><rect
         id="rect2999"
         width="68.093483"
         height="16.242483"
         x="187.41325"
         y="3.4414077" /></flowRegion><flowPara
       id="flowPara3001"
       style="-inkscape-font-specification:Sans;font-family:Sans;font-weight:normal;font-style:normal;font-stretch:normal;font-variant:normal">38.1 km/h</flowPara></flowRoot>  <flowRoot
     xml:space="preserve"
     id="flowRoot3003"
     style="font-size:12px;font-style:normal;font-variant:normal;font-weight:normal;font-stretch:normal;text-align:start;line-height:100%;letter-spacing:0px;word-spacing:0px;writing-mode:lr-tb;text-anchor:start;fill:#000000;fill-opacity:1;stroke:none;font-family:Serif;-inkscape-font-specification:Serif"
     transform="translate(-26.23322,-122.69519)"><flowRegion
       id="flowRegion3005"><rect
         id="rect3007"
         width="71.217041"
         height="17.491903"
         x="159.30127"
         y="380.14206" /></flowRegion><flowPara
       id="flowPara3009"
       style="-inkscape-font-specification:Sans;font-family:Sans;font-weight:normal;font-style:normal;font-stretch:normal;font-variant:normal;font-size:10px">21.6 km/h</flowPara></flowRoot>  <flowRoot
     xml:space="preserve"
     id="flowRoot2987-8"
     style="font-size:12px;font-style:normal;font-variant:normal;font-weight:normal;font-stretch:normal;text-align:start;line-height:100%;letter-spacing:0px;word-spacing:0px;writing-mode:lr-tb;text-anchor:start;fill:#000000;fill-opacity:1;stroke:none;font-family:Serif;-inkscape-font-specification:Serif"
     transform="translate(291.7059,-25.233704)"><flowRegion
       id="flowRegion2989-4"><rect
         id="rect2991-2"
         width="63.720509"
         height="16.242483"
         x="9.3706627"
         y="157.12029" /></flowRegion><flowPara
       id="flowPara2993-6"
       style="-inkscape-font-specification:Sans;font-family:Sans;font-weight:normal;font-style:normal;font-stretch:normal;font-variant:normal;font-size:10px">31 km/h</flowPara></flowRoot>  <rect
     style="opacity:0.02999998;color:#000000;fill:#00ffff;fill-opacity:1;fill-rule:nonzero;stroke:#000000;stroke-width:2;stroke-linecap:butt;stroke-linejoin:miter;stroke-miterlimit:4;stroke-opacity:1;stroke-dasharray:8, 4;stroke-dashoffset:0;marker:none;visibility:visible;display:inline;overflow:visible;enable-background:accumulate"
     id="rect3819"
     width="2.1864882"
     height="19.678392"
     x="140.50163"
     y="39.798065"
     ry="1.0932441" />
  <flowRoot
     transform="translate(54.639249,-73.598634)"
     style="font-size:12px;font-style:normal;font-variant:normal;font-weight:normal;font-stretch:normal;text-align:start;line-height:100%;letter-spacing:0px;word-spacing:0px;writing-mode:lr-tb;text-anchor:start;fill:#000000;fill-opacity:1;stroke:none;font-family:Serif;-inkscape-font-specification:Serif"
     id="flowRoot3002"
     xml:space="preserve"><flowRegion
       id="flowRegion3004"><rect
         y="157.12029"
         x="9.3706627"
         height="14.475528"
         width="14.687668"
         id="rect3006" /></flowRegion><flowPara
       id="flowPara3008"
       style="-inkscape-font-specification:Sans;font-family:Sans;font-weight:normal;font-style:normal;font-stretch:normal;font-variant:normal;font-size:10px">1</flowPara></flowRoot>  <flowRoot
     xml:space="preserve"
     id="flowRoot3010"
     style="font-size:12px;font-style:normal;font-variant:normal;font-weight:normal;font-stretch:normal;text-align:start;line-height:100%;letter-spacing:0px;word-spacing:0px;writing-mode:lr-tb;text-anchor:start;fill:#000000;fill-opacity:1;stroke:none;font-family:Serif;-inkscape-font-specification:Serif"
     transform="translate(126.01771,-73.781604)"><flowRegion
       id="flowRegion3012"><rect
         id="rect3014"
         width="14.687668"
         height="14.475528"
         x="9.3706627"
         y="157.12029" /></flowRegion><flowPara
       id="flowPara3016"
       style="-inkscape-font-specification:Sans;font-family:Sans;font-weight:normal;font-style:normal;font-stretch:normal;font-variant:normal;font-size:10px">2</flowPara></flowRoot>  <flowRoot
     transform="translate(156.68057,-73.848467)"
     style="font-size:12px;font-style:normal;font-variant:normal;font-weight:normal;font-stretch:normal;text-align:start;line-height:100%;letter-spacing:0px;word-spacing:0px;writing-mode:lr-tb;text-anchor:start;fill:#000000;fill-opacity:1;stroke:none;font-family:Serif;-inkscape-font-specification:Serif"
     id="flowRoot3018"
     xml:space="preserve"><flowRegion
       id="flowRegion3020"><rect
         y="157.12029"
         x="9.3706627"
         height="14.475528"
         width="14.687668"
         id="rect3022" /></flowRegion><flowPara
       id="flowPara3024"
       style="font-size:10px;font-style:normal;font-variant:normal;font-weight:normal;font-stretch:normal;font-family:Sans;-inkscape-font-specification:Sans">3</flowPara></flowRoot>  <flowRoot
     xml:space="preserve"
     id="flowRoot3030"
     style="font-size:12px;font-style:normal;font-variant:normal;font-weight:normal;font-stretch:normal;text-align:start;line-height:100%;letter-spacing:0px;word-spacing:0px;writing-mode:lr-tb;text-anchor:start;fill:#000000;fill-opacity:1;stroke:none;font-family:Serif;-inkscape-font-specification:Serif"
     transform="translate(230.37491,-75.579954)"><flowRegion
       id="flowRegion3032"><rect
         id="rect3034"
         width="14.687668"
         height="14.475528"
         x="9.3706627"
         y="157.12029" /></flowRegion><flowPara
       id="flowPara3036"
       style="-inkscape-font-specification:Sans;font-family:Sans;font-weight:normal;font-style:normal;font-stretch:normal;font-variant:normal;font-size:10px">4</flowPara></flowRoot>  <flowRoot
     transform="translate(311.57879,-74.955244)"
     style="font-size:12px;font-style:normal;font-variant:normal;font-weight:normal;font-stretch:normal;text-align:start;line-height:100%;letter-spacing:0px;word-spacing:0px;writing-mode:lr-tb;text-anchor:start;fill:#000000;fill-opacity:1;stroke:none;font-family:Serif;-inkscape-font-specification:Serif"
     id="flowRoot3038"
     xml:space="preserve"><flowRegion
       id="flowRegion3040"><rect
         y="157.12029"
         x="9.3706627"
         height="14.475528"
         width="14.687668"
         id="rect3042" /></flowRegion><flowPara
       id="flowPara3044"
       style="-inkscape-font-specification:Sans;font-family:Sans;font-weight:normal;font-style:normal;font-stretch:normal;font-variant:normal;font-size:10px">5</flowPara></flowRoot>  <flowRoot
     transform="translate(-57.123433,5.8999591)"
     style="font-size:12px;font-style:normal;font-variant:normal;font-weight:normal;font-stretch:normal;text-align:start;line-height:100%;letter-spacing:0px;word-spacing:0px;writing-mode:lr-tb;text-anchor:start;fill:#000000;fill-opacity:1;stroke:none;font-family:Serif;-inkscape-font-specification:Serif"
     id="flowRoot3051"
     xml:space="preserve"><flowRegion
       id="flowRegion3053"><rect
         y="3.4414077"
         x="187.41325"
         height="16.867195"
         width="37.482677"
         id="rect3055" /></flowRegion><flowPara
       id="flowPara3057"><flowSpan
         style="-inkscape-font-specification:Sans;font-family:Sans;font-weight:normal;font-style:normal;font-stretch:normal;font-variant:normal"
         id="flowSpan3032"><flowSpan
           style="font-size:10px"
           id="flowSpan3034">3% </flowSpan></flowSpan></flowPara></flowRoot>  <flowRoot
     xml:space="preserve"
     id="flowRoot3059"
     style="font-size:12px;font-style:normal;font-variant:normal;font-weight:normal;font-stretch:normal;text-align:start;line-height:100%;letter-spacing:0px;word-spacing:0px;writing-mode:lr-tb;text-anchor:start;fill:#000000;fill-opacity:1;stroke:none;font-family:Serif;-inkscape-font-specification:Serif"
     transform="translate(-25.263179,5.8999581)"><flowRegion
       id="flowRegion3061"><rect
         id="rect3063"
         width="37.482677"
         height="16.867195"
         x="187.41325"
         y="3.4414077" /></flowRegion><flowPara
       id="flowPara3065"
       style="-inkscape-font-specification:Sans;font-family:Sans;font-weight:normal;font-style:normal;font-stretch:normal;font-variant:normal"><flowSpan
         style="font-size:10px"
         id="flowSpan3036">-3% </flowSpan></flowPara></flowRoot>  <path
     style="opacity:0.124;fill:#000000;fill-opacity:1;fill-rule:nonzero;stroke:none"
     d="m 11.16579,199.86963 0,-52.125 18.000795,2.8e-4 c 9.900438,1.6e-4 34.847552,0.1323 55.438032,0.29363 l 37.437233,0.29335 0,51.83137 0,51.83137 -55.438028,0 -55.438032,0 0,-52.125 z"
     id="path3806"
     inkscape:connector-curvature="0" />
  <path
     style="opacity:0.124;fill:#000000;fill-opacity:1;fill-rule:nonzero;stroke:none"
     d="m 25.632687,146.08833 -14.466897,-0.12272 0,-57.861552 0,-57.861552 55.438032,0 55.438028,0 0,58.088455 0,58.088459 -40.971132,-0.10419 c -22.534124,-0.0573 -47.481238,-0.15941 -55.438031,-0.2269 z m 51.331222,-8.28807 c 1.558294,-4.86468 1.520636,-4.63296 0.752972,-4.63296 -0.361094,0 -1.054242,1.51147 -1.772537,3.8652 -1.276237,4.182 -1.394675,4.96954 -0.747385,4.96954 0.23155,0 1.026677,-1.8908 1.76695,-4.20178 z m -28.341178,2.11362 c 0.319223,-0.43494 0.444386,-1.17593 0.281511,-1.6666 -0.161295,-0.48591 -0.267366,-1.60222 -0.235715,-2.48067 0.07188,-1.99505 -0.729398,-2.69744 -2.871819,-2.51738 -2.373992,0.19951 -2.524964,1.24328 -0.17983,1.24328 1.510352,0 1.810008,0.13716 1.688814,0.77304 -0.08103,0.42517 -0.592565,0.83656 -1.136733,0.9142 -1.342142,0.19148 -1.283681,1.40492 0.06769,1.40492 0.581395,0 1.165925,0.28364 1.298954,0.63031 0.373336,0.9729 -0.866505,1.72168 -2.357132,1.42355 -0.963551,-0.19271 -1.324116,-0.0974 -1.324116,0.34993 0,0.33811 0.248477,0.72413 0.552171,0.85781 1.00734,0.44341 3.632529,-0.13713 4.216209,-0.93239 l 0,0 z m 6.716789,0.32121 c 0,-0.24295 -0.397563,-0.44173 -0.883474,-0.44173 -0.804944,0 -0.883475,-0.2945 -0.883475,-3.31303 0,-2.97145 -0.08736,-3.31303 -0.847346,-3.31303 -1.334341,0 -2.244815,0.47915 -2.244815,1.18137 0,0.44409 0.2753,0.55773 0.883475,0.36471 0.817211,-0.25938 0.883474,-0.0794 0.883474,2.39978 0,2.3857 -0.09707,2.6802 -0.883474,2.6802 -0.485911,0 -0.883475,0.19878 -0.883475,0.44173 0,0.24296 1.0933,0.44174 2.429555,0.44174 1.336256,0 2.429555,-0.19878 2.429555,-0.44174 z m 5.742585,-0.74525 0,-1.18698 1.23895,1.18698 c 0.681419,0.65285 1.614934,1.18699 2.074473,1.18699 0.703763,0 0.613847,-0.22871 -0.570177,-1.45031 l -1.405696,-1.45031 1.420985,-1.42098 c 1.205439,-1.20544 1.291927,-1.42098 0.570172,-1.42098 -0.467945,0 -1.408338,0.53414 -2.089757,1.18698 l -1.23895,1.18699 0,-2.32814 c 0,-1.66556 -0.157143,-2.27609 -0.552171,-2.14525 -0.371369,0.12301 -0.593965,1.43685 -0.679803,4.01245 -0.106914,3.2079 -0.01727,3.82955 0.552172,3.82955 0.443252,0 0.679802,-0.41303 0.679802,-1.18699 z m 5.748615,-0.0278 c 0.01034,-2.08107 0.490342,-3.2026 1.370702,-3.2026 0.703855,0 0.831955,0.34009 0.831955,2.20869 0,1.66879 0.161972,2.20869 0.662606,2.20869 0.42689,0 0.664753,-0.43215 0.668635,-1.21478 0.01007,-2.02786 0.49396,-3.2026 1.319183,-3.2026 0.825222,0 1.30911,1.17474 1.319182,3.2026 0.0035,0.66813 0.204811,1.21478 0.447767,1.21478 0.627452,0 0.549923,-4.57423 -0.08835,-5.2125 -0.65325,-0.65325 -2.40787,-0.69523 -2.796201,-0.0669 -0.19876,0.3216 -0.461108,0.31808 -0.858225,-0.0115 -0.314579,-0.26107 -1.340487,-0.41641 -2.279797,-0.34519 l -1.707832,0.12949 -0.131514,2.7533 c -0.107342,2.24726 -0.0058,2.7533 0.552172,2.7533 0.449883,0 0.685748,-0.41542 0.689715,-1.21478 l 0,-1e-5 z m 13.332321,-0.88348 c 0.112245,-1.74927 0.290367,-2.12047 1.070965,-2.23186 1.005832,-0.14353 1.475902,0.84117 1.487197,3.11534 0.0035,0.66813 0.204812,1.21478 0.447767,1.21478 0.242956,0 0.441738,-1.06896 0.441738,-2.37547 0,-2.68245 -0.67854,-3.59373 -2.427015,-3.25949 -0.972759,0.18595 -1.106884,0.0584 -1.106884,-1.05236 0,-0.82903 -0.228002,-1.26396 -0.662606,-1.26396 -0.5399,0 -0.662606,0.73623 -0.662606,3.97564 0,3.17241 0.128979,3.97563 0.638404,3.97563 0.448213,0 0.678513,-0.62509 0.77304,-2.09825 l 0,0 z M 69.475114,90.981385 c 0,-0.364433 -0.298173,-0.662606 -0.662606,-0.662606 -0.525879,0 -0.662606,-0.638063 -0.662606,-3.092161 l 0,-3.092161 -1.54608,0 c -1.079801,0 -1.546081,0.199833 -1.546081,0.662606 0,0.368113 0.392656,0.662606 0.883475,0.662606 0.776388,0 0.883474,0.294493 0.883474,2.429555 0,2.135062 -0.107086,2.429555 -0.883474,2.429555 -0.490819,0 -0.883475,0.294493 -0.883475,0.662606 0,0.500634 0.5399,0.662606 2.208687,0.662606 1.668786,0 2.208686,-0.161972 2.208686,-0.662606 z"
     id="path3808"
     inkscape:connector-curvature="0" />
  <path
     style="opacity:0.124;fill:#000000;fill-opacity:1;fill-rule:nonzero;stroke:none"
     d="m 151.87939,249.23377 c -6.82228,-7.77071 -11.74168,-18.32027 -15.50062,-33.24073 -3.2861,-13.04359 -6.57267,-30.75565 -9.67207,-52.125 -1.09238,-7.53162 -2.19129,-14.38828 -2.44202,-15.23702 -0.40755,-1.37956 -0.72194,-118.830251 -0.31809,-118.830251 0.0758,0 7.16992,-1.590255 15.76476,-3.533899 8.59483,-1.943644 15.78836,-3.533898 15.98562,-3.533898 0.19726,0 0.35866,51.484482 0.35866,114.409958 l 0,114.40996 -1.07009,0 c -0.73786,0 -1.70222,-0.72001 -3.10615,-2.31912 l 0,0 z M 141.03656,90.981385 c 0,-0.466832 -0.47199,-0.662606 -1.59749,-0.662606 l -1.59748,0 1.59748,-1.768221 c 1.82717,-2.022459 1.95491,-2.733466 0.71401,-3.974364 -0.93801,-0.938011 -1.39401,-1.030542 -2.98172,-0.605052 -1.51035,0.404755 -1.28463,1.524581 0.24561,1.218537 0.82224,-0.16445 1.42953,-0.01895 1.80393,0.432169 0.4772,0.574983 0.25153,1.01456 -1.46039,2.844744 -1.11364,1.190575 -2.0248,2.392538 -2.0248,2.671035 0,0.324399 0.95246,0.506364 2.65042,0.506364 2.06144,0 2.65043,-0.147244 2.65043,-0.662606 z"
     id="path3810"
     inkscape:connector-curvature="0" />
  <path
     style="opacity:0.124;fill:#000000;fill-opacity:1;fill-rule:nonzero;stroke:none"
     d="m 123.8572,202.63049 c 0.03,-30.34421 0.19954,-48.16754 0.44641,-46.93459 0.2189,1.0933 1.18708,7.46901 2.15152,14.16825 1.66989,11.59952 4.54675,27.52635 6.88929,38.14033 4.44228,20.12784 9.8332,33.07057 17.17287,41.22929 l 2.08631,2.31912 -14.3974,0 -14.3974,0 0.0484,-48.9224 z"
     id="path3812"
     inkscape:connector-curvature="0" />
  <path
     style="opacity:0.124;fill:#000000;fill-opacity:1;fill-rule:nonzero;stroke:none"
     d="m 157.8718,134.16121 c -0.0271,-61.042577 0.0999,-110.987039 0.28208,-110.987697 0.18221,-6.58e-4 7.33836,1.627312 15.90254,3.617711 l 15.57124,3.618908 0,16.868108 c 0,16.770435 -0.006,16.881854 -1.04438,19.242194 -2.38306,5.417214 -7.87455,22.141411 -9.33731,28.436587 -1.01767,4.379675 -3.69015,17.609849 -4.19383,20.761649 -1.31045,8.20012 -5.43892,39.40843 -9.93419,75.09535 -2.81553,22.3519 -5.58665,43.72094 -6.15804,47.48676 l -1.03888,6.84692 -0.0492,-110.98649 z m 12.93896,-43.093713 c 0.78216,-0.571926 0.8241,-0.900989 0.60064,-4.712091 -0.0986,-1.681588 -0.28737,-2.036117 -1.26858,-2.382576 -1.25454,-0.442966 -3.4855,-0.06845 -3.4855,0.585116 0,0.22366 0.74543,0.468348 1.65652,0.543752 1.85749,0.153738 2.35712,1.362813 0.6626,1.603471 -1.34542,0.191082 -1.29084,1.404924 0.0632,1.404924 0.5814,0 1.16593,0.283639 1.29896,0.63031 0.36174,0.942685 -0.84687,1.705649 -2.35199,1.484745 -1.2528,-0.183873 -1.77528,0.383844 -1.03477,1.12435 0.50637,0.506372 3.03333,0.321708 3.85895,-0.282001 l 0,0 z"
     id="path3814"
     inkscape:connector-curvature="0" />
  <path
     style="opacity:0.124;fill:#000000;fill-opacity:1;fill-rule:nonzero;stroke:none"
     d="m 158.39497,250.33812 c 1.59812,-10.71836 3.73394,-26.90909 7.79394,-59.08237 7.99408,-63.34869 11.30883,-85.16799 15.06573,-99.170022 0.97968,-3.651259 5.62231,-17.10137 7.28192,-21.096359 l 1.05376,-2.536586 0.0187,91.770927 0.0187,91.77092 -15.73984,0 -15.73983,0 0.24698,-1.65651 z"
     id="path3816"
     inkscape:connector-curvature="0" />
  <path
     style="opacity:0.124;fill:#000000;fill-opacity:1;fill-rule:nonzero;stroke:none"
     d="m 190.95287,160.03965 c 0,-50.33228 0.0809,-91.430419 0.17976,-91.329187 0.0989,0.101231 0.91093,2.967002 1.80459,6.368379 4.70897,17.92301 7.64679,27.040168 11.4268,35.461688 5.26201,11.72329 9.45216,18.5979 13.68365,22.45021 8.95221,8.15001 18.31021,11.59179 35.85277,13.1863 6.7097,0.60987 30.67143,1.55525 39.64592,1.56418 l 3.42346,0.003 0,51.90413 0,51.90413 -53.00847,0 -53.00848,0 0,-91.51324 z"
     id="path3818"
     inkscape:connector-curvature="0" />
  <path
     style="opacity:0.124;fill:#000000;fill-opacity:1;fill-rule:nonzero;stroke:none"
     d="m 266.48995,145.68291 c -5.76325,-0.31156 -19.10613,-1.57569 -22.9268,-2.17214 -5.11029,-0.79776 -9.47351,-2.23395 -14.51831,-4.77883 -7.63112,-3.84957 -12.08335,-7.98349 -16.36779,-15.19756 -4.06217,-6.83983 -5.67741,-10.13149 -8.60404,-17.53393 -2.80574,-7.096679 -6.25319,-18.363463 -9.79585,-32.01432 -1.35395,-5.21715 -2.65581,-9.679801 -2.89301,-9.917005 -0.26533,-0.265335 -0.43128,-6.856084 -0.43128,-17.128949 l 0,-16.69767 53.00848,0 53.00847,0 0,57.867587 0,57.867587 -14.02515,-0.0817 c -7.71384,-0.045 -15.11846,-0.14082 -16.45472,-0.21306 z M 244.84482,88.993567 c 0,-0.485911 0.19878,-0.883474 0.44174,-0.883474 0.24296,0 0.44174,-0.298173 0.44174,-0.662606 0,-0.364434 -0.19878,-0.662606 -0.44174,-0.662606 -0.24296,0 -0.44174,-1.0933 -0.44174,-2.429556 0,-2.073364 -0.12035,-2.429555 -0.82093,-2.429555 -0.87385,0 -4.03818,4.321512 -4.03818,5.514923 0,0.486476 0.48285,0.6694 1.76695,0.6694 1.47246,0 1.76695,0.147244 1.76695,0.883474 0,0.490819 0.29449,0.883475 0.66261,0.883475 0.36811,0 0.6626,-0.392656 0.6626,-0.883475 z m 2.94305,-31.805366 c 1.68621,-5.36801 1.67564,-5.300567 0.83069,-5.300567 -0.43055,0 -1.10186,1.484904 -2.02775,4.485312 -0.76127,2.466923 -1.49454,4.773074 -1.62951,5.124782 -0.16911,0.440692 0.006,0.591127 0.56215,0.483952 0.59971,-0.115494 1.18248,-1.349128 2.26442,-4.793479 l 0,0 z m -45.99235,2.891652 c 1.25725,-1.257259 1.33939,-1.888809 0.41692,-3.205822 -0.42242,-0.603082 -0.50348,-1.05404 -0.22087,-1.228702 0.69037,-0.426674 0.52766,-2.288189 -0.2697,-3.085552 -0.98484,-0.984841 -4.73718,-0.769688 -4.93694,0.283077 -0.11757,0.619585 0.14768,0.695852 1.69725,0.488011 1.25832,-0.168776 1.94874,-0.06489 2.19275,0.329934 0.59576,0.963959 -0.0271,1.760733 -1.37631,1.760733 -1.64414,0 -1.73696,1.211704 -0.10773,1.406305 1.56071,0.186417 2.29832,1.362693 1.4759,2.353642 -0.46505,0.560353 -1.02614,0.676203 -2.2935,0.473545 -1.2848,-0.205447 -1.67783,-0.120479 -1.67783,0.362718 0,1.506566 3.61162,1.55055 5.10006,0.06211 l 0,0 z m 7.78597,0.353194 c 0.87054,-0.787832 1.08207,-2.793622 0.36973,-3.505961 -0.28963,-0.289629 -0.25964,-0.910858 0.0885,-1.833166 0.7218,-1.912246 -0.40261,-3.206286 -2.78597,-3.206286 -2.44753,0 -3.88013,2.197673 -2.39846,3.679346 0.57256,0.572564 0.57256,0.7148 0,1.189985 -0.996,0.826608 -0.80941,2.920394 0.33147,3.719498 1.28167,0.897709 3.37769,0.877003 4.39474,-0.04341 l 0,-2e-6 z m 4.34172,-0.373273 c 0,-0.809852 -0.23559,-1.104343 -0.88347,-1.104343 -0.64788,0 -0.88348,0.294491 -0.88348,1.104343 0,0.809851 0.2356,1.104343 0.88348,1.104343 0.64788,0 0.88347,-0.294492 0.88347,-1.104343 z m 7.84259,0.331303 c 0.11433,-0.346288 -0.24319,-0.552172 -0.95885,-0.552172 l -1.14115,0 0,-3.975635 c 0,-4.286818 -0.0528,-4.363744 -2.53999,-3.697215 -1.42291,0.381325 -1.32109,1.654066 0.11043,1.380412 1.09707,-0.209718 1.10434,-0.189697 1.10434,3.040665 0,3.174067 -0.0264,3.251773 -1.10434,3.251773 -0.70228,0 -1.10434,0.248913 -1.10434,0.683685 0,0.557432 0.50336,0.659398 2.7258,0.552171 1.68776,-0.08143 2.79522,-0.341789 2.9081,-0.683684 z m 7.17648,-0.638826 0,-1.411866 1.45668,1.411866 c 1.31927,1.278691 2.96069,1.888085 2.96069,1.099188 0,-0.171973 -0.71564,-1.045568 -1.59033,-1.941323 l -1.59032,-1.628644 1.70076,-1.580624 c 1.35872,-1.262739 1.53147,-1.583027 0.85898,-1.592575 -0.46298,-0.0066 -1.50658,0.495118 -2.31912,1.114871 l -1.47734,1.126824 0,-2.452036 c 0,-2.157544 -0.10611,-2.452036 -0.88347,-2.452036 -0.82994,0 -0.88348,0.294492 -0.88348,4.859111 0,4.564618 0.0535,4.85911 0.88348,4.85911 0.69919,0 0.88347,-0.294492 0.88347,-1.411866 z m 6.62606,-0.326326 c 0,-2.40416 0.68285,-4.004393 1.70875,-4.004393 1.06466,0 1.38341,0.822566 1.38341,3.570027 0,1.636671 0.16344,2.172558 0.66261,2.172558 0.49916,0 0.6626,-0.535887 0.6626,-2.172558 0,-2.857058 0.31821,-3.570027 1.59334,-3.570027 1.00654,0 1.05709,0.137305 1.05709,2.871293 0,2.5768 0.0906,2.871292 0.88347,2.871292 0.77211,0 0.88265,-0.292321 0.87696,-2.319121 -0.008,-2.995136 -0.75857,-4.486217 -2.34955,-4.67016 -0.67719,-0.07829 -1.49971,0.08044 -1.82782,0.352753 -0.40836,0.338908 -0.68637,0.349816 -0.88119,0.03458 -0.15655,-0.253293 -1.36694,-0.435581 -2.68976,-0.405085 l -2.40512,0.05545 0,3.475796 c 0,2.795104 0.12976,3.475795 0.6626,3.475795 0.47673,0 0.66261,-0.487624 0.66261,-1.738192 z m 15.90254,-0.603016 c 0,-2.422779 0.52019,-3.401377 1.80804,-3.401377 0.96557,0 1.28412,0.885622 1.28412,3.570027 0,1.636671 0.16344,2.172558 0.66261,2.172558 0.51897,0 0.66261,-0.604143 0.66261,-2.786863 0,-3.548375 -0.60713,-4.461423 -2.79665,-4.20581 -1.57721,0.184131 -1.62073,0.150083 -1.62073,-1.268168 0,-1.000957 -0.20751,-1.45738 -0.6626,-1.45738 -0.54883,0 -0.66261,0.834393 -0.66261,4.859111 0,4.024717 0.11378,4.85911 0.66261,4.85911 0.50563,0 0.6626,-0.554626 0.6626,-2.341208 z"
     id="path3820"
     inkscape:connector-curvature="0" />
  <path
     style="opacity:0.124;fill:#000000;fill-opacity:1;fill-rule:nonzero;stroke:none"
     d="m 206.13218,54.760216 c -0.15265,-0.397804 -0.0735,-0.927343 0.17592,-1.176752 0.72008,-0.720077 2.0934,-0.234768 2.0934,0.739775 0,1.123634 -1.86781,1.483296 -2.26932,0.436977 z"
     id="path3822"
     inkscape:connector-curvature="0" />
  <path
     style="opacity:0.124;fill:#000000;fill-opacity:1;fill-rule:nonzero;stroke:none"
     d="m 206.0027,59.012914 c -0.36179,-0.676021 -0.31029,-1.040064 0.22254,-1.572887 0.85428,-0.854281 1.11883,-0.861075 2.20226,-0.05655 0.6849,0.508592 0.75949,0.797514 0.37062,1.435646 -0.6992,1.147379 -2.22834,1.253385 -2.79542,0.19379 l 0,0 z"
     id="path3824"
     inkscape:connector-curvature="0" />
  <path
     style="opacity:0.127;fill:#000000;fill-opacity:1;fill-rule:nonzero;stroke:none"
     d="m 298.73677,88.110093 0,-58.309324 28.27119,0 28.27119,0 0,58.017344 0,58.017347 -12.66138,0.29198 c -6.96376,0.16059 -19.6858,0.29198 -28.27119,0.29198 l -15.60981,0 0,-58.309327 z m 35.93755,49.143277 c 1.27691,-4.18419 1.39478,-4.96955 0.74587,-4.96955 -0.34993,0 -1.21031,2.36183 -2.93677,8.06171 -0.14581,0.48139 8e-4,0.77304 0.3886,0.77304 0.39852,0 1.04746,-1.39172 1.8023,-3.8652 l 0,0 z m -28.68043,2.28756 c 0.78778,-0.78778 0.92722,-2.64355 0.23097,-3.07386 -0.31715,-0.19601 -0.3016,-0.48097 0.0493,-0.90381 0.77786,-0.93726 0.12414,-2.78271 -1.09402,-3.08845 -1.55769,-0.39096 -3.10396,-0.0613 -3.24768,0.69249 -0.0943,0.4943 0.29731,0.6626 1.54156,0.6626 2.01631,0 2.40015,1.24096 0.45314,1.46499 -0.66813,0.0769 -1.21478,0.41154 -1.21478,0.7437 0,0.33216 0.54665,0.66682 1.21478,0.7437 0.87369,0.10053 1.21477,0.38784 1.21477,1.02325 0,0.72644 -0.29449,0.88347 -1.6568,0.88347 -1.52205,0 -2.09069,0.52264 -1.36173,1.25159 0.56146,0.56147 3.17968,0.29111 3.87046,-0.39967 l 0,0 z m 6.87848,0.0316 c 0,-0.36444 -0.29818,-0.66261 -0.66261,-0.66261 -0.53008,0 -0.6626,-0.6626 -0.6626,-3.31303 0,-2.35915 -0.15898,-3.31129 -0.55218,-3.307 -1.32312,0.0145 -2.53999,0.59 -2.53999,1.20136 0,0.44512 0.28998,0.58677 0.88348,0.43157 0.80983,-0.21177 0.88347,-0.0136 0.88347,2.37803 0,2.31458 -0.0997,2.60907 -0.88347,2.60907 -0.49082,0 -0.88348,0.2945 -0.88348,0.66261 0,0.50063 0.53991,0.6626 2.20869,0.6626 1.66879,0 2.20869,-0.16197 2.20869,-0.6626 z m 6.18432,-0.52438 0,-1.18699 1.23895,1.18699 c 0.68142,0.65284 1.62232,1.18698 2.09089,1.18698 0.7029,0 0.57051,-0.28142 -0.75673,-1.60866 l -1.60866,-1.60867 1.28472,-1.08102 c 0.7066,-0.59457 1.28473,-1.26214 1.28473,-1.4835 0,-0.76189 -1.05854,-0.40003 -2.29495,0.78452 l -1.23895,1.18699 0,-2.07046 c 0,-1.54593 -0.16787,-2.07047 -0.66261,-2.07047 -0.5399,0 -0.6626,0.73623 -0.6626,3.97564 0,3.2394 0.1227,3.97563 0.6626,3.97563 0.42459,0 0.66261,-0.42637 0.66261,-1.18698 z m 5.82993,-1.13214 c 0.11401,-1.98012 0.26266,-2.31912 1.017,-2.31912 0.75433,0 0.90299,0.339 1.01699,2.31912 0.0936,1.62597 0.31777,2.31912 0.74996,2.31912 0.43219,0 0.65634,-0.69315 0.74995,-2.31912 0.11632,-2.02037 0.26156,-2.3373 1.12743,-2.46027 0.92865,-0.13189 0.99391,0.0204 0.99391,2.31912 0,1.89242 0.15293,2.46027 0.66261,2.46027 0.50761,0 0.6626,-0.56093 0.6626,-2.398 0,-2.74974 -0.86187,-4.03904 -2.38497,-3.56775 -0.51043,0.15794 -1.12684,0.27288 -1.3698,0.25542 -0.24295,-0.0174 -1.38595,-0.12049 -2.53999,-0.22897 l -2.09825,-0.19722 0,3.06826 c 0,2.38363 0.1427,3.06826 0.63952,3.06826 0.46004,0 0.677,-0.65086 0.77304,-2.31912 z m 13.25212,0 c 0.114,-1.98012 0.26266,-2.31912 1.017,-2.31912 0.75433,0 0.90299,0.339 1.01699,2.31912 0.096,1.66826 0.313,2.31912 0.77304,2.31912 0.47967,0 0.63952,-0.5994 0.63952,-2.398 0,-2.79395 -0.84039,-4.00378 -2.49306,-3.58899 -0.88697,0.22262 -1.04084,0.0967 -1.04084,-0.85152 0,-0.69463 -0.24898,-1.11276 -0.6626,-1.11276 -0.5399,0 -0.66261,0.73623 -0.66261,3.97564 0,3.17562 0.12869,3.97563 0.63952,3.97563 0.46004,0 0.677,-0.65086 0.77304,-2.31912 l 0,0 z M 325.87206,89.62462 c 1.48504,-1.485037 0.44987,-4.194954 -1.64897,-4.316754 -1.79952,-0.104427 -1.47583,-1.173409 0.35532,-1.173409 1.0798,0 1.54608,-0.199833 1.54608,-0.662606 0,-0.500634 -0.5399,-0.662606 -2.20869,-0.662606 l -2.20869,0 0,1.942518 c 0,1.893387 0.0348,1.94087 1.37483,1.877383 1.7236,-0.08166 2.62716,1.04728 1.71646,2.144604 -0.42035,0.506491 -1.00075,0.660013 -1.85177,0.489807 -0.91001,-0.182 -1.23952,-0.0747 -1.23952,0.40366 0,0.907885 3.24769,0.874666 4.16495,-0.04258 l 0,-1.3e-5 z"
     id="path3826"
     inkscape:connector-curvature="0" />
  <path
     style="opacity:0.127;fill:#000000;fill-opacity:1;fill-rule:nonzero;stroke:none"
     d="m 298.73677,199.64876 0,-51.90413 24.22769,0 c 13.32523,0 26.04727,-0.12916 28.27119,-0.28702 l 4.0435,-0.28701 0,52.19115 0,52.19114 -28.27119,0 -28.27119,0 0,-51.90413 z"
     id="path3828"
     inkscape:connector-curvature="0" />
</svg>
