<?xml version="1.0" encoding="UTF-8" standalone="no"?>
<!-- Created with Inkscape (http://www.inkscape.org/) -->

<svg
   xmlns:dc="http://purl.org/dc/elements/1.1/"
   xmlns:cc="http://creativecommons.org/ns#"
   xmlns:rdf="http://www.w3.org/1999/02/22-rdf-syntax-ns#"
   xmlns:svg="http://www.w3.org/2000/svg"
   xmlns="http://www.w3.org/2000/svg"
   xmlns:sodipodi="http://sodipodi.sourceforge.net/DTD/sodipodi-0.dtd"
   xmlns:inkscape="http://www.inkscape.org/namespaces/inkscape"
   id="svg2"
   version="1.1"
   inkscape:version="0.48.4 r9939"
   width="387.5"
   height="211.625"
   xml:space="preserve"
   sodipodi:docname="Wilson_008_fig_013.svg"
   inkscape:export-filename="/home/theo/HPV/BicyclingScience/BS4-chapter8/Wilson_008_fig_013.preview.png"
   inkscape:export-xdpi="300"
   inkscape:export-ydpi="300"><metadata
     id="metadata8"><rdf:RDF><cc:Work
         rdf:about=""><dc:format>image/svg+xml</dc:format><dc:type
           rdf:resource="http://purl.org/dc/dcmitype/StillImage" /><dc:title></dc:title></cc:Work></rdf:RDF></metadata><defs
     id="defs6"><clipPath
       clipPathUnits="userSpaceOnUse"
       id="clipPath18"><path
         d="M 0,1692.98 0,0 l 3099.98,0 0,1692.98 -3099.98,0 z"
         id="path20" /></clipPath></defs><sodipodi:namedview
     pagecolor="#ffffff"
     bordercolor="#666666"
     borderopacity="1"
     objecttolerance="10"
     gridtolerance="10"
     guidetolerance="10"
     inkscape:pageopacity="0"
     inkscape:pageshadow="2"
     inkscape:window-width="1265"
     inkscape:window-height="942"
     id="namedview4"
     showgrid="false"
     inkscape:zoom="2.1367742"
     inkscape:cx="195.62198"
     inkscape:cy="152.09164"
     inkscape:window-x="0"
     inkscape:window-y="0"
     inkscape:window-maximized="0"
     inkscape:current-layer="g10" /><g
     id="g10"
     inkscape:groupmode="layer"
     inkscape:label="ink_ext_XXXXXX"
     transform="matrix(1.25,0,0,-1.25,0,211.625)"><path
       inkscape:connector-curvature="0"
       id="path22"
       style="fill:none;stroke:#231f20;stroke-width:1;stroke-linecap:butt;stroke-linejoin:miter;stroke-miterlimit:4;stroke-opacity:1;stroke-dasharray:none"
       d="m 0,26.2711 309.998,0" /><path
       inkscape:connector-curvature="0"
       id="path24"
       style="fill:none;stroke:#231f20;stroke-width:1.5;stroke-linecap:butt;stroke-linejoin:miter;stroke-miterlimit:4;stroke-opacity:1;stroke-dasharray:none"
       d="M 110.16,69.8539 C 110.16,46.202 90.9859,27.027 67.3328,27.027 c -23.6527,0 -42.8269,19.175 -42.8269,42.8269 0,23.6531 19.1742,42.8281 42.8269,42.8281 23.6531,0 42.8272,-19.175 42.8272,-42.8281 z" /><path
       inkscape:connector-curvature="0"
       id="path26"
       style="fill:#231f20;fill-opacity:1;fill-rule:nonzero;stroke:none"
       d="m 228.083,54.1879 c 0,-1.1039 -0.896,-2 -2,-2 -1.105,0 -2,0.8961 -2,2 0,1.1051 0.895,2 2,2 1.104,0 2,-0.8949 2,-2" /><path
       inkscape:connector-curvature="0"
       id="path28"
       style="fill:none;stroke:#231f20;stroke-width:0.5;stroke-linecap:butt;stroke-linejoin:miter;stroke-miterlimit:4;stroke-opacity:1;stroke-dasharray:none"
       d="m 228.083,54.1879 c 0,-1.1039 -0.896,-2 -2,-2 -1.105,0 -2,0.8961 -2,2 0,1.1051 0.895,2 2,2 1.104,0 2,-0.8949 2,-2 z" /><path
       inkscape:connector-curvature="0"
       id="path30"
       style="fill:#231f20;fill-opacity:1;fill-rule:nonzero;stroke:none"
       d="m 69.416,26.7719 c 0,-1.2891 -1.0441,-2.334 -2.3332,-2.334 -1.2887,0 -2.3328,1.0449 -2.3328,2.334 0,1.2883 1.0441,2.3332 2.3328,2.3332 1.2891,0 2.3332,-1.0449 2.3332,-2.3332" /><path
       inkscape:connector-curvature="0"
       id="path32"
       style="fill:#231f20;fill-opacity:1;fill-rule:nonzero;stroke:none"
       d="m 228.416,26.5219 c 0,-1.2891 -1.045,-2.334 -2.334,-2.334 -1.289,0 -2.332,1.0449 -2.332,2.334 0,1.2883 1.043,2.3332 2.332,2.3332 1.289,0 2.334,-1.0449 2.334,-2.3332" /><path
       inkscape:connector-curvature="0"
       id="path34"
       style="fill:#231f20;fill-opacity:1;fill-rule:nonzero;stroke:none"
       d="m 264.415,26.5219 c 0,-1.2891 -1.044,-2.334 -2.334,-2.334 -1.289,0 -2.332,1.0449 -2.332,2.334 0,1.2883 1.043,2.3332 2.332,2.3332 1.29,0 2.334,-1.0449 2.334,-2.3332" /><path
       inkscape:connector-curvature="0"
       id="path36"
       style="fill:#231f20;fill-opacity:1;fill-rule:nonzero;stroke:none"
       d="m 228.666,135.522 c 0,-1.29 -1.045,-2.334 -2.334,-2.334 -1.289,0 -2.332,1.044 -2.332,2.334 0,1.288 1.043,2.333 2.332,2.333 1.289,0 2.334,-1.045 2.334,-2.333" /><path
       inkscape:connector-curvature="0"
       id="path38"
       style="fill:none;stroke:#231f20;stroke-width:1.5;stroke-linecap:butt;stroke-linejoin:miter;stroke-miterlimit:4;stroke-opacity:1;stroke-dasharray:none"
       d="m 254.166,54.4379 c 0,-15.4641 -12.537,-28 -28,-28 -15.464,0 -28,12.5359 -28,28 0,15.4641 12.536,28 28,28 15.463,0 28,-12.5359 28,-28 z" /><path
       inkscape:connector-curvature="0"
       id="path40"
       style="fill:none;stroke:#231f20;stroke-width:0.5;stroke-linecap:butt;stroke-linejoin:miter;stroke-miterlimit:4;stroke-opacity:1;stroke-dasharray:5, 2;stroke-dashoffset:0"
       d="m 226.166,26.4379 0,109.0831 M 67.0828,26.7719 240.166,144.688 M 262.082,26.5219 174.166,160.687" /><g
       id="g42"><text
         id="text44"
         transform="matrix(1,0,0,-1,243.165,143.189)"><tspan
           id="tspan46"
           y="0"
           x="0"
           style="font-size:7.5px;font-variant:normal;font-weight:normal;writing-mode:lr-tb;fill:#231f20;fill-opacity:1;fill-rule:nonzero;stroke:none;font-family:Helvetica;-inkscape-font-specification:Helvetica">P</tspan><tspan
           id="tspan48"
           y="57"
           x="-9.9988298"
           style="font-size:7.5px;font-variant:normal;font-weight:normal;writing-mode:lr-tb;fill:#231f20;fill-opacity:1;fill-rule:nonzero;stroke:none;font-family:Helvetica;-inkscape-font-specification:Helvetica">X</tspan><tspan
           id="tspan50"
           sodipodi:role="line"
           y="127.4996"
           x="-19.416019 15.789055"
           style="font-size:7.5px;font-variant:normal;font-weight:normal;writing-mode:lr-tb;fill:#231f20;fill-opacity:1;fill-rule:nonzero;stroke:none;font-family:Helvetica;-inkscape-font-specification:Helvetica">QR</tspan><tspan
           y="-19.667601"
           id="tspan52"
           sodipodi:role="line"
           x="0"
           style="font-size:7.5px;font-variant:normal;font-weight:normal;writing-mode:lr-tb;fill:#231f20;fill-opacity:1;fill-rule:nonzero;stroke:none;font-family:Helvetica;-inkscape-font-specification:Helvetica" /><tspan
           id="tspan54"
           sodipodi:role="line"
           y="38.625"
           x="-90.749962 -85.748009 -81.998009 -78.248009 -76.162071 -71.992073"
           style="font-size:7.5px;font-variant:normal;font-weight:normal;writing-mode:lr-tb;fill:#231f20;fill-opacity:1;fill-rule:nonzero;stroke:none;font-family:Helvetica;-inkscape-font-specification:Helvetica">System</tspan><tspan
           id="tspan56"
           sodipodi:role="line"
           y="-19.667601"
           x="-88.89566 -83.893158 -81.808159 -77.638161 -73.468239 -70.859253 -69.194252 -65.024254 -60.854252 -58.769253 -54.599251 -50.849251 -49.18425"
           style="font-size:7.5px;font-variant:normal;font-weight:normal;writing-mode:lr-tb;fill:#231f20;fill-opacity:1;fill-rule:nonzero;stroke:none;font-family:Helvetica;-inkscape-font-specification:Helvetica">Steering axis</tspan><tspan
           id="tspan58"
           sodipodi:role="line"
           y="132.5004"
           x="-222.16566 -217.16316 -215.07816 -213.41316 -209.66316 -207.57816 -203.40816 -199.23816 -197.15329 -191.80563 -187.63564 -183.46564 -179.29564 -177.21063 -172.20813 -170.12314 -165.95314 -161.78314 -157.61314 -155.52814"
           style="font-size:7.5px;font-variant:normal;font-weight:normal;writing-mode:lr-tb;fill:#231f20;fill-opacity:1;fill-rule:nonzero;stroke:none;font-family:Helvetica;-inkscape-font-specification:Helvetica">X is between P and Q</tspan><tspan
           id="tspan60"
           sodipodi:role="line"
           y="141.5004"
           x="-222.16566 -216.75066 -214.66566 -213.00066 -209.25066 -207.16566 -202.99567 -198.82565 -194.65565 -190.48566 -186.31566 -184.23067 -180.06065 -177.97566 -175.89066"
           style="font-size:7.5px;font-variant:normal;font-weight:normal;writing-mode:lr-tb;fill:#231f20;fill-opacity:1;fill-rule:nonzero;stroke:none;font-family:Helvetica;-inkscape-font-specification:Helvetica">R is ahead of Q</tspan></text>
</g><path
       inkscape:connector-curvature="0"
       id="path62"
       style="fill:#ffffff;fill-opacity:1;fill-rule:nonzero;stroke:none"
       d="m 172.027,94.9379 c 0,-2.9609 -2.401,-5.3609 -5.361,-5.3609 -2.96,0 -5.36,2.4 -5.36,5.3609 0,2.9609 2.4,5.3611 5.36,5.3611 2.96,0 5.361,-2.4002 5.361,-5.3611" /><path
       inkscape:connector-curvature="0"
       id="path64"
       style="fill:none;stroke:#231f20;stroke-width:0.5;stroke-linecap:butt;stroke-linejoin:miter;stroke-miterlimit:4;stroke-opacity:1;stroke-dasharray:none"
       d="m 172.027,94.9379 c 0,-2.9609 -2.401,-5.3609 -5.361,-5.3609 -2.96,0 -5.36,2.4 -5.36,5.3609 0,2.9609 2.4,5.3611 5.36,5.3611 2.96,0 5.361,-2.4002 5.361,-5.3611 z" /><path
       inkscape:connector-curvature="0"
       id="path66"
       style="fill:none;stroke:#231f20;stroke-width:0.5;stroke-linecap:butt;stroke-linejoin:miter;stroke-miterlimit:4;stroke-opacity:1;stroke-dasharray:none"
       d="m 166.666,100.188 0,-10.6251" /><path
       inkscape:connector-curvature="0"
       id="path68"
       style="fill:none;stroke:#231f20;stroke-width:0.5;stroke-linecap:butt;stroke-linejoin:miter;stroke-miterlimit:4;stroke-opacity:1;stroke-dasharray:none"
       d="m 172.027,94.9379 -10.721,0" /><path
       style="opacity:0.46349206;fill:#000000;fill-opacity:1;fill-rule:nonzero;stroke:none"
       d="m 202.17425,91.999846 c 0,-1.790812 2.5654,-4.58679 4.57782,-4.989274 l 1.04786,-0.209573 0,2.854207 0,2.854207 -2.81284,0 c -2.31203,0 -2.81284,-0.09072 -2.81284,-0.509567 z"
       id="path3149"
       inkscape:connector-curvature="0"
       transform="matrix(0.8,0,0,-0.8,0,169.3)" /><path
       style="opacity:0.46349206;fill:#000000;fill-opacity:1;fill-rule:nonzero;stroke:none"
       d="m 203.2312,92.217658 -1.09404,-0.204629 0.78853,-1.489151 c 0.77473,-1.463111 2.66237,-3.049655 4.12967,-3.470959 0.73084,-0.209848 0.74457,-0.161525 0.74457,2.621352 l 0,2.835142 -1.73734,-0.04356 c -0.95554,-0.02396 -2.22966,-0.135646 -2.83139,-0.248192 l 0,0 z"
       id="path3151"
       inkscape:connector-curvature="0"
       transform="matrix(0.8,0,0,-0.8,0,169.3)" /><path
       style="opacity:0.46349206;fill:#000000;fill-opacity:1;fill-rule:nonzero;stroke:none"
       d="m 204.35091,92.209232 c -0.89593,-0.107912 -1.68368,-0.362969 -1.75057,-0.566794 -0.34267,-1.044192 4.04688,-5.028961 4.75726,-4.318577 0.14644,0.14644 0.32215,1.373097 0.39046,2.725904 l 0.12421,2.459648 -0.94621,-0.05199 c -0.52041,-0.0286 -1.67923,-0.14028 -2.57515,-0.248192 l 0,0 z"
       id="path3153"
       inkscape:connector-curvature="0"
       transform="matrix(0.8,0,0,-0.8,0,169.3)" /><path
       style="opacity:0.46349206;fill:#000000;fill-opacity:1;fill-rule:nonzero;stroke:none"
       d="m 205.97986,92.289717 c -2.51343,-0.305153 -3.14377,-0.496147 -3.14377,-0.952574 0,-1.103411 3.99409,-4.557496 4.4385,-3.838416 0.10014,0.162021 0.28069,1.355706 0.40122,2.652635 0.17767,1.911659 0.13186,2.348665 -0.24201,2.308468 -0.25365,-0.02727 -0.90792,-0.103821 -1.45394,-0.170113 z"
       id="path3155"
       inkscape:connector-curvature="0"
       transform="matrix(0.8,0,0,-0.8,0,169.3)" /><path
       style="opacity:0.46349206;fill:#000000;fill-opacity:1;fill-rule:nonzero;stroke:none"
       d="m 205.33871,92.122374 c -2.57067,-0.348675 -2.81207,-0.633929 -1.73332,-2.048247 1.03061,-1.351194 3.13304,-2.736929 3.52342,-2.322321 0.38997,0.414179 0.78244,4.324524 0.45113,4.494917 -0.15202,0.07818 -1.16057,0.02223 -2.24123,-0.124349 l 0,0 z"
       id="path3157"
       inkscape:connector-curvature="0"
       transform="matrix(0.8,0,0,-0.8,0,169.3)" /><path
       style="opacity:0.46349206;fill:#000000;fill-opacity:1;fill-rule:nonzero;stroke:none"
       d="m 208.7927,96.315023 0,-2.812842 2.85421,0 2.8542,0 -0.20957,1.047862 c -0.30367,1.518342 -1.7422,3.233019 -3.30943,3.944728 -2.16519,0.983253 -2.18941,0.959136 -2.18941,-2.179748 z"
       id="path3159"
       inkscape:connector-curvature="0"
       transform="matrix(0.8,0,0,-0.8,0,169.3)" /><path
       style="opacity:0.46349206;fill:#000000;fill-opacity:1;fill-rule:nonzero;stroke:none"
       d="m 208.50093,96.397753 -0.0392,-2.895572 3.0006,0 c 2.95918,0 2.99743,0.01028 2.77092,0.744576 -0.49153,1.59339 -1.21618,2.616692 -2.52382,3.563942 -1.6524,1.196988 -2.57033,1.281497 -2.62501,0.241667 -0.0317,-0.601969 -0.0875,-0.554433 -0.29177,0.248192 -0.17805,0.699738 -0.26417,0.138099 -0.29177,-1.902805 z"
       id="path3161"
       inkscape:connector-curvature="0"
       transform="matrix(0.8,0,0,-0.8,0,169.3)" /><path
       style="opacity:0.46349206;fill:#000000;fill-opacity:1;fill-rule:nonzero;stroke:none"
       d="m 208.84582,97.623142 c -0.21123,-0.463583 -0.38404,-1.59958 -0.38404,-2.524438 l 0,-1.681561 2.64783,0.153281 c 1.45631,0.08431 2.74213,0.247578 2.85739,0.362831 0.41581,0.415819 -0.66073,2.266885 -1.97029,3.387826 -1.60649,1.375088 -2.61782,1.472039 -3.15089,0.302061 l 0,0 z"
       id="path3163"
       inkscape:connector-curvature="0"
       transform="matrix(0.8,0,0,-0.8,0,169.3)" /><path
       style="opacity:0.46349206;fill:#000000;fill-opacity:1;fill-rule:nonzero;stroke:none"
       d="m 207.38628,99.556166 c 0.70938,-0.136632 0.74457,-0.290935 0.74457,-3.264159 l 0,-3.120749 -3.12074,0 c -2.97323,0 -3.12753,0.0352 -3.26416,0.744576 -0.0789,0.409517 -0.1637,0.03245 -0.18848,-0.837935 -0.0421,-1.478146 0.75335,-4.182367 1.12185,-3.81387 0.091,0.091 -0.0599,0.704746 -0.33527,1.363871 -0.90745,2.171832 -0.85894,2.212436 2.64304,2.212436 l 3.14376,0 0,-3.121784 0,-3.121784 -0.91003,-0.137859 c -0.50052,-0.07582 -0.0165,-0.137859 1.07549,-0.137859 1.09205,0 1.57602,0.06204 1.0755,0.137859 l -0.91003,0.137859 0,3.121784 0,3.121784 3.12178,0 3.12178,0 0.13786,-0.910037 c 0.0758,-0.500521 0.13786,-0.01655 0.13786,1.075498 0,1.092044 -0.062,1.576019 -0.13786,1.075498 l -0.13786,-0.910037 -3.20451,0.0427 -3.20452,0.0427 2.48192,0.298144 c 3.43181,0.41225 3.42985,0.41121 2.85265,1.513311 -0.59272,1.131737 -2.51364,2.989621 -3.18357,3.079098 -1.04114,0.139056 -1.3142,-0.04481 -1.6153,-1.087618 -0.29521,-1.022388 -0.31202,-0.990841 -0.34039,0.638829 -0.0266,1.526104 0.0519,1.730074 0.71473,1.857739 0.40952,0.07888 0,0.143412 -0.91004,0.143412 -0.91003,0 -1.31955,-0.06454 -0.91003,-0.143412 l 0,0 z"
       id="path3165"
       inkscape:connector-curvature="0"
       transform="matrix(0.8,0,0,-0.8,0,169.3)" /><path
       style="opacity:0.46349206;fill:#000000;fill-opacity:1;fill-rule:nonzero;stroke:none"
       d="m 207.55174,99.561596 c 0.49988,-0.130632 0.57911,-0.578154 0.57911,-3.270838 l 0,-3.1195 -3.1195,0 c -2.69268,0 -3.1402,0.07924 -3.27083,0.579115 -0.0832,0.318513 -0.14834,-0.091 -0.14466,-0.910037 0.004,-0.819034 0.0712,-1.154093 0.15009,-0.744576 0.13663,0.709378 0.29093,0.744576 3.26416,0.744576 l 3.12074,0 0,-3.1195 c 0,-2.692684 -0.0792,-3.140206 -0.57911,-3.270838 -0.31851,-0.08324 0.0165,-0.151338 0.74457,-0.151338 0.72803,0 1.06309,0.0681 0.74458,0.151338 -0.49988,0.130632 -0.57911,0.578154 -0.57911,3.270838 l 0,3.1195 3.1195,0 c 2.69268,0 3.1402,-0.07924 3.27083,-0.579115 0.0832,-0.318513 0.15134,0.01655 0.15134,0.744576 0,0.72803 -0.0681,1.063089 -0.15134,0.744576 -0.13196,-0.504991 -0.56121,-0.573785 -3.35356,-0.537474 l -3.20224,0.04164 2.64424,0.372012 c 3.25075,0.457341 3.43841,0.869019 1.37691,3.020522 -1.66575,1.738475 -2.72501,1.891472 -3.42887,0.495255 -0.39426,-0.782083 -0.41732,-0.742709 -0.42194,0.720311 -0.004,1.198225 0.12587,1.581784 0.57424,1.698956 0.31851,0.08324 -0.0165,0.151338 -0.74458,0.151338 -0.72802,0 -1.06308,-0.0681 -0.74457,-0.151338 z"
       id="path3167"
       inkscape:connector-curvature="0"
       transform="matrix(0.8,0,0,-0.8,0,169.3)" /><path
       style="opacity:0.46349206;fill:#000000;fill-opacity:1;fill-rule:nonzero;stroke:none"
       d="m 207.7172,99.570546 c 0.28982,-0.116945 0.41365,-1.099786 0.41365,-3.2831 l 0,-3.116188 -3.11618,0 c -2.18332,0 -3.16616,0.123833 -3.2831,0.413653 -0.0918,0.22751 -0.16692,-0.03309 -0.16692,-0.579114 0,-0.546022 0.0751,-0.806624 0.16692,-0.579114 0.11694,0.28982 1.09978,0.413653 3.2831,0.413653 l 3.11618,0 0,-3.116188 c 0,-2.183314 -0.12383,-3.166155 -0.41365,-3.2831 -0.22751,-0.0918 0.0331,-0.166913 0.57911,-0.166913 0.54603,0 0.80663,0.07511 0.57912,0.166913 -0.28982,0.116945 -0.41365,1.099786 -0.41365,3.2831 l 0,3.116188 3.11618,0 c 2.18332,0 3.16616,-0.123833 3.2831,-0.413653 0.0918,-0.22751 0.16692,0.03309 0.16692,0.579114 0,0.546022 -0.0751,0.806624 -0.16692,0.579114 -0.11899,-0.294895 -1.0853,-0.402288 -3.36583,-0.374066 l -3.19892,0.03959 2.55713,0.394117 c 1.40642,0.216766 2.65195,0.488949 2.76786,0.604852 0.36668,0.366677 -1.17701,2.500952 -2.31969,3.207169 -1.43523,0.887022 -1.72871,0.857732 -2.31963,-0.231511 l -0.49371,-0.910037 -0.0132,1.544305 c -0.008,0.936761 0.14949,1.60997 0.40041,1.711218 0.22751,0.0918 -0.0331,0.166912 -0.57912,0.166912 -0.54602,0 -0.80662,-0.07511 -0.57911,-0.166912 l 0,0 z"
       id="path3169"
       inkscape:connector-curvature="0"
       transform="matrix(0.8,0,0,-0.8,0,169.3)" /><path
       style="opacity:0.46349206;fill:#000000;fill-opacity:1;fill-rule:nonzero;stroke:none"
       d="m 203.90021,91.805313 -1.08687,-0.313488 0.59049,-1.00888 c 0.5568,-0.951315 2.89772,-2.93737 3.46222,-2.93737 0.28703,0 0.46583,0.710222 0.77063,3.061033 l 0.2038,1.571883 -1.42669,-0.02985 c -0.78469,-0.01641 -1.9158,-0.170915 -2.51358,-0.343333 l 0,10e-7 z"
       id="path3171"
       inkscape:connector-curvature="0"
       transform="matrix(0.8,0,0,-0.8,0,169.3)" /><text
       xml:space="preserve"
       style="font-size:16px;font-style:normal;font-variant:normal;font-weight:normal;font-stretch:normal;text-align:start;line-height:100%;letter-spacing:0px;word-spacing:0px;writing-mode:lr-tb;text-anchor:start;fill:#000000;fill-opacity:1;stroke:none;font-family:Serif;-inkscape-font-specification:Serif"
       x="160.33318"
       y="-80.446198"
       id="text3173"
       sodipodi:linespacing="100%"
       transform="scale(1,-1)"><tspan
         sodipodi:role="line"
         id="tspan3175"
         x="160.33318"
         y="-80.446198"
         style="font-size:6.4px;font-style:normal;font-variant:normal;font-weight:normal;font-stretch:normal;font-family:Sans;-inkscape-font-specification:Sans">CM</tspan></text>
<text
       xml:space="preserve"
       style="font-size:20px;font-style:normal;font-variant:normal;font-weight:normal;font-stretch:normal;text-align:start;line-height:100%;letter-spacing:0px;word-spacing:0px;writing-mode:lr-tb;text-anchor:start;fill:#000000;fill-opacity:1;stroke:none;font-family:Serif;-inkscape-font-specification:Serif"
       x="110.91486"
       y="-10.438708"
       id="text3177"
       sodipodi:linespacing="100%"
       transform="matrix(0.8,0,0,-0.8,0,169.3)"><tspan
         sodipodi:role="line"
         id="tspan3179"></tspan></text>
</g></svg>